<svg height="512pt" viewBox="-48 0 512 512" width="512pt" xmlns="http://www.w3.org/2000/svg"><path d="m410.613281 124.40625-120.019531-120.011719c-.503906-.503906-1.046875-.953125-1.605469-1.371093v122.984374h122.992188c-.417969-.558593-.867188-1.101562-1.367188-1.601562zm0 0"/><path d="m273.988281 156.007812c-8.285156 0-15.003906-6.714843-15.003906-15v-141.007812h-243.984375c-8.285156 0-15 6.714844-15 15v223.960938h338.503906c8.285156 0 15 6.71875 15 15v183.023437c0 8.285156-6.714844 15-15 15h-338.503906v45.015625c0 8.285156 6.714844 15 15 15h385.007812c8.285157 0 15-6.714844 15-15v-340.992188zm0 0"/><path d="m323.503906 268.960938h-323.503906v153.023437h323.503906zm-235.890625 68.375c4.199219 0 6.578125 4.0625 6.578125 8.539062 0 3.78125-1.960937 8.261719-6.578125 8.261719h-21v23.800781h37.519531c4.199219 0 6.582032 4.480469 6.582032 9.660156 0 4.480469-1.960938 9.378906-6.582032 9.378906h-49.839843c-4.761719 0-9.519531-2.238281-9.519531-6.71875v-88.902343c0-4.480469 4.757812-6.722657 9.519531-6.722657h49.839843c4.621094 0 6.582032 4.902344 6.582032 9.382813 0 5.179687-2.382813 9.660156-6.582032 9.660156h-37.519531v23.660157zm98.480469 60.480468c-2.242188 0-4.339844-.699218-5.179688-2.238281l-20.441406-34.722656-20.441406 34.722656c-.980469 1.539063-2.9375 2.238281-5.179688 2.238281-6.019531 0-14.558593-4.757812-14.558593-10.777344 0-1.261718.417969-2.523437 1.257812-3.921874l24.222657-37.382813-23.242188-37.238281c-.980469-1.539063-1.398438-2.941406-1.398438-4.339844 0-5.878906 7.980469-10.359375 14.140626-10.359375 3.078124 0 5.179687 1.117187 6.578124 3.640625l18.621094 32.480469 18.621094-32.480469c1.398438-2.523438 3.5-3.640625 6.578125-3.640625 6.160156 0 14.140625 4.480469 14.140625 10.359375 0 1.398438-.417969 2.800781-1.398438 4.339844l-23.238281 37.238281 24.21875 37.382813c.839844 1.398437 1.261719 2.660156 1.261719 3.921874-.003906 6.019532-8.542969 10.777344-14.5625 10.777344zm69.582031-60.480468c4.199219 0 6.578125 4.0625 6.578125 8.539062 0 3.78125-1.960937 8.261719-6.578125 8.261719h-21.003906v23.800781h37.523437c4.199219 0 6.578126 4.480469 6.578126 9.660156 0 4.480469-1.960938 9.378906-6.578126 9.378906h-49.84375c-4.757812 0-9.519531-2.238281-9.519531-6.71875v-88.902343c0-4.480469 4.761719-6.722657 9.519531-6.722657h49.84375c4.617188 0 6.578126 4.902344 6.578126 9.382813 0 5.179687-2.378907 9.660156-6.578126 9.660156h-37.523437v23.660157zm0 0"/></svg>