<svg height="512pt" viewBox="-66 0 512 512" width="512pt" xmlns="http://www.w3.org/2000/svg"><path d="m374.851562 114.226562-109.828124-109.832031c-.503907-.503906-1.046876-.949219-1.609376-1.371093v112.808593h112.8125c-.421874-.5625-.871093-1.105469-1.375-1.605469zm0 0"/><path d="m109.75 175.558594c-8.269531 0-15 6.730468-15 15.003906 0 8.269531 6.730469 15 15 15 8.273438 0 15-6.730469 15-15 0-8.273438-6.726562-15.003906-15-15.003906zm0 0"/><path d="m248.414062 145.832031c-8.285156 0-15-6.714843-15-15v-130.832031h-218.414062c-8.285156 0-15 6.714844-15 15v369.671875l105.96875-105.96875c2.8125-2.816406 6.628906-4.394531 10.605469-4.394531 3.980469 0 7.796875 1.578125 10.609375 4.394531l28.679687 28.679687 61.707031-61.710937c2.8125-2.8125 6.628907-4.394531 10.605469-4.394531 3.980469 0 7.792969 1.582031 10.609375 4.394531l140.460938 140.464844v-240.304688zm-138.664062 89.730469c-24.8125 0-45-20.1875-45-45 0-24.816406 20.1875-45.003906 45-45.003906 24.816406 0 45 20.1875 45 45.003906 0 24.8125-20.183594 45-45 45zm0 0"/><path d="m177.074219 328.597656 24.644531 24.640625c5.855469 5.855469 5.855469 15.355469-.003906 21.210938-5.855469 5.859375-15.355469 5.859375-21.210938 0l-63.925781-63.925781-116.578125 116.574218v69.902344c0 8.285156 6.714844 15 15 15h349.246094c8.285156 0 15-6.714844 15-15v-68.433594l-151.070313-151.074218zm0 0"/></svg>