<svg height="512pt" viewBox="0 -23 512 512" width="512pt" xmlns="http://www.w3.org/2000/svg"><path d="m168 55c0-13.785156 11.214844-25 25-25h126c13.785156 0 25 11.214844 25 25v8.695312h30v-8.695312c0-30.328125-24.671875-55-55-55h-126c-30.328125 0-55 24.671875-55 55v8.695312h30zm0 0"/><path d="m264.609375 327 11.632813-41.699219h-40.484376l11.632813 41.699219zm0 0"/><path d="m292.4375 255.300781 219.515625-118.410156c-.953125-23.980469-20.746094-43.191406-44.953125-43.191406h-422c-24.207031 0-44 19.210937-44.953125 43.191406l219.507813 118.410156zm0 0"/><path d="m308.695312 280.617188-18.246093 65.414062c-1.808594 6.484375-7.714844 10.96875-14.449219 10.96875h-40c-6.730469 0-12.640625-4.484375-14.445312-10.96875l-18.246094-65.410156-203.308594-109.671875v249.300781c0 24.8125 20.1875 45 45 45h422c24.8125 0 45-20.1875 45-45v-249.300781zm0 0"/></svg>