<svg height="512pt" viewBox="-53 0 512 512" width="512pt" xmlns="http://www.w3.org/2000/svg"><path d="m130.34375 363.367188c71.988281 0 130.347656-58.355469 130.347656-130.34375 0-71.988282-58.359375-130.34375-130.347656-130.34375s-130.34375 58.355468-130.34375 130.34375c0 71.988281 58.359375 130.34375 130.34375 130.34375zm0 0"/><path d="m397.03125 460.332031-135.382812-135.382812c-11.582032 16.492187-26.1875 30.707031-43.007813 41.847656l135.964844 135.960937c5.855469 5.859376 13.535156 8.789063 21.210937 8.789063 7.679688 0 15.359375-2.929687 21.214844-8.789063 11.714844-11.714843 11.714844-30.710937 0-42.425781zm0 0"/><path d="m130.34375 393.367188c-43.25 0-82.550781-17.222657-111.421875-45.15625v148.789062c0 8.285156 6.714844 15 15 15h287.496094l-130.515625-130.519531c-18.695313 7.65625-39.140625 11.886719-60.558594 11.886719zm0 0"/><path d="m276.984375 297.855469 121.183594 121.183593v-270.207031h-131.417969c15.167969 24.484375 23.941406 53.332031 23.941406 84.191407 0 23.0625-4.90625 45-13.707031 64.832031zm0 0"/><path d="m393.773438 114.226562-109.832032-109.832031c-1.335937-1.335937-2.90625-2.386719-4.605468-3.128906v117.566406h117.566406c-.742188-1.699219-1.792969-3.269531-3.128906-4.605469zm0 0"/><path d="m249.335938 125.660156v-125.660156h-215.414063c-8.285156 0-15 6.714844-15 15v102.835938c28.871094-27.9375 68.171875-45.160157 111.421875-45.160157 47.160156.003907 89.625 20.472657 118.992188 52.984375zm0 0"/></svg>