<svg height="512pt" viewBox="-66 0 512 512" width="512pt" xmlns="http://www.w3.org/2000/svg"><path d="m374.851562 114.226562-109.828124-109.832031c-.503907-.503906-1.046876-.949219-1.609376-1.371093v112.808593h112.808594c-.417968-.5625-.867187-1.105469-1.371094-1.605469zm0 0"/><path d="m114.398438 311.859375c0 25.089844 11.925781 49.125 31.90625 64.300781l28.316406 21.511719v-173.75c-15.636719 7.941406-37.410156 16.929687-60.222656 19.890625zm0 0"/><path d="m204.625 397.671875 28.320312-21.511719c19.976563-15.175781 31.902344-39.210937 31.902344-64.300781v-67.960937c-23.433594-2.808594-44.855468-11.585938-60.226562-19.511719v173.285156zm0 0"/><path d="m248.414062 145.832031c-8.285156 0-15-6.714843-15-15v-130.832031h-218.414062c-8.285156 0-15 6.714844-15 15v482c0 8.285156 6.714844 15 15 15h349.246094c8.285156 0 15-6.714844 15-15v-351.167969zm46.4375 166.027344c0 34.410156-16.359374 67.378906-43.761718 88.191406l-52.394532 39.796875c-2.679687 2.035156-5.875 3.054688-9.070312 3.054688-3.199219 0-6.394531-1.019532-9.074219-3.054688l-52.394531-39.796875c-27.402344-20.8125-43.757812-53.78125-43.757812-88.191406v-82.042969c0-8.285156 6.714843-15 15-15 38.730468 0 81.28125-28.96875 81.707031-29.261718 5.265625-3.625 12.261719-3.523438 17.410156.265624.378906.277344 40.132813 28.996094 81.335937 28.996094 8.28125 0 15 6.714844 15 15zm0 0"/></svg>