<svg height="512pt" viewBox="0 0 512 512.0005" width="512pt" xmlns="http://www.w3.org/2000/svg"><path d="m266.578125 100.398438-96.566406-96.023438c-.785157-.78125-1.65625-1.457031-2.578125-2.039062v100.699218h101.238281c-.597656-.949218-1.289063-1.835937-2.09375-2.636718zm0 0"/><path d="m271 345.753906v-212.722656h-118.566406c-8.28125 0-15-6.714844-15-15v-118.0234375h-122.433594c-8.285156 0-15 6.7187495-15 14.9999995v330.746094c0 8.285156 6.714844 15 15 15h241c8.285156 0 15-6.71875 15-15zm0 0"/><path d="m507.578125 251.632812-96.566406-96.023437c-.785157-.78125-1.65625-1.453125-2.578125-2.035156v100.695312h101.238281c-.597656-.945312-1.289063-1.835937-2.09375-2.636719zm0 0"/><path d="m393.433594 284.269531c-8.28125 0-15-6.714843-15-15v-118.023437h-77.433594v194.507812c0 24.8125-20.1875 44.996094-45 44.996094h-15v106.242188c0 8.28125 6.714844 15 15 15h241c8.285156 0 15-6.71875 15-15v-212.722657zm0 0"/><path d="m181.785156 437.214844c-5.855468-5.855469-15.355468-5.855469-21.210937 0-5.53125 5.53125-5.832031 14.304687-.921875 20.195312h-29.597656c-8.269532 0-15-6.726562-15-14.996094v-29.496093c0-8.28125-6.714844-15-15-15-8.285157 0-15 6.71875-15 15v29.496093c0 24.8125 20.1875 44.996094 45 44.996094h29.597656c-4.914063 5.894532-4.609375 14.664063.917968 20.199219 2.929688 2.929687 6.769532 4.390625 10.609376 4.390625 3.835937 0 7.675781-1.464844 10.605468-4.390625l24.589844-24.59375c5.855469-5.855469 5.855469-15.351563 0-21.210937zm0 0"/><path d="m281.464844 74.785156c2.929687 2.925782 6.769531 4.390625 10.605468 4.390625 3.839844 0 7.679688-1.464843 10.609376-4.390625 5.53125-5.53125 5.832031-14.304687.917968-20.195312h29.601563c8.269531 0 15 6.726562 15 14.996094v29.496093c0 8.28125 6.714843 14.996094 15 14.996094 8.28125 0 15-6.714844 15-14.996094v-29.496093c0-24.8125-20.1875-44.996094-45-44.996094h-29.601563c4.914063-5.894532 4.613282-14.664063-.917968-20.195313-5.859376-5.859375-15.355469-5.859375-21.214844 0l-24.589844 24.589844c-2.8125 2.808594-4.394531 6.625-4.394531 10.605469 0 3.976562 1.582031 7.792968 4.394531 10.605468zm0 0"/></svg>