<svg height="512pt" viewBox="-66 0 512 512" width="512pt" xmlns="http://www.w3.org/2000/svg"><path d="m374.851562 114.226562-109.828124-109.832031c-.503907-.503906-1.046876-.949219-1.609376-1.371093v112.808593h112.808594c-.417968-.5625-.867187-1.105469-1.371094-1.605469zm0 0"/><path d="m176.753906 292.511719h-67.574218c-2.757813 0-5 2.242187-5 5v60c0 2.757812 2.242187 5 5 5h67.574218c2.980469 0 5.894532.886719 8.363282 2.550781l75.671874 50.832031v-176.765625l-75.671874 50.832032c-2.46875 1.664062-5.382813 2.550781-8.363282 2.550781zm0 0"/><path d="m248.414062 145.832031c-8.285156 0-15-6.714843-15-15v-130.832031h-218.414062c-8.285156 0-15 6.714844-15 15v482c0 8.285156 6.714844 15 15 15h349.246094c8.285156 0 15-6.714844 15-15v-351.167969zm42.375 298.210938c0 5.539062-3.054687 10.628906-7.945312 13.238281-2.210938 1.175781-4.636719 1.761719-7.054688 1.761719-2.925781 0-5.84375-.855469-8.363281-2.550781l-95.242187-63.980469h-63.003906c-19.300782 0-35-15.699219-35-35v-60c0-19.300781 15.699218-35 35-35h63.003906l95.242187-63.980469c4.601563-3.089844 10.527344-3.394531 15.417969-.789062 4.890625 2.605468 7.945312 7.695312 7.945312 13.238281zm0 0"/></svg>