<svg height="512pt" viewBox="0 -89 512 512" width="512pt" xmlns="http://www.w3.org/2000/svg"><path d="m430.855469 249.199219c-12.378907 0-24.359375-2.0625-35.589844-5.871094-.988281.046875-1.984375.078125-2.980469.078125h-377.300781c-8.273437 0-14.984375 6.707031-14.984375 14.984375v19.980469c0 30.296875 24.648438 54.945312 54.945312 54.945312h361.617188c52.332031 0 94.90625-42.574218 94.90625-94.90625v-23.933594c-20.265625 21.371094-48.910156 34.722657-80.613281 34.722657zm0 0"/><path d="m42.230469 198.535156c0 8.277344 6.710937 14.984375 14.984375 14.984375h292.109375c-8.425781-9.089843-15.382813-19.609375-20.425781-31.226562l-286.667969-16.671875zm0 0"/><path d="m14.628906 133.992188 336.574219 19.578124c7.230469 37.40625 40.132813 65.660157 79.652344 65.660157 44.816406 0 81.144531-36.332031 81.144531-81.144531 0-39.359376-28.023438-72.167969-65.207031-79.574219v-.003907l-324.585938-56.058593c-62.421875-13.957031-121.691406 33.527343-121.691406 97.492187v19.09375c0 7.9375 6.1875 14.496094 14.113281 14.957032zm0 0"/></svg>