<svg height="512pt" viewBox="-66 0 512 512" width="512pt" xmlns="http://www.w3.org/2000/svg"><path d="m374.851562 114.226562-109.828124-109.832031c-.503907-.503906-1.046876-.949219-1.609376-1.371093v112.808593h112.8125c-.425781-.5625-.871093-1.105469-1.375-1.605469zm0 0"/><path d="m212.671875 251.652344-12.441406 12.4375c-5.855469 5.859375-15.355469 5.859375-21.214844 0l-12.441406-12.441406c-7.40625-7.40625-17.257813-11.484376-27.730469-11.484376-10.476562 0-20.328125 4.078126-27.734375 11.484376s-11.488281 17.257812-11.488281 27.734374c0 10.476563 4.082031 20.324219 11.488281 27.730469l78.515625 78.515625 78.511719-78.515625c15.292969-15.292969 15.292969-40.171875 0-55.464843-15.292969-15.292969-40.171875-15.292969-55.464844.003906zm0 0"/><path d="m248.414062 145.832031c-8.285156 0-15-6.714843-15-15v-130.832031h-218.414062c-8.285156 0-15 6.714844-15 15v482c0 8.285156 6.714844 15 15 15h349.246094c8.285156 0 15-6.714844 15-15v-351.167969zm40.9375 182.496094-89.121093 89.121094c-2.929688 2.925781-6.769531 4.390625-10.605469 4.390625-3.839844 0-7.679688-1.460938-10.609375-4.390625l-89.117187-89.121094c-13.074219-13.074219-20.273438-30.457031-20.273438-48.945313 0-18.488281 7.199219-35.871093 20.273438-48.945312 13.070312-13.074219 30.457031-20.273438 48.945312-20.273438s35.871094 7.199219 48.945312 20.273438l1.835938 1.835938 1.835938-1.835938c26.988281-26.988281 70.902343-26.988281 97.890624 0 26.988282 26.988281 26.988282 70.902344 0 97.890625zm0 0"/></svg>