<svg height="512pt" viewBox="-21 0 511 512" width="512pt" xmlns="http://www.w3.org/2000/svg"><path d="m349.742188 483.003906v-50.835937h-334.242188c-8.285156 0-15 6.71875-15 15v35.832031c0 16.015625 12.984375 29 29 29h349.242188c-16.015626 0-29-12.980469-29-28.996094zm0 0"/><path d="m468.316406 20.011719c-15.820312.234375-28.574218 13.125-28.574218 29v50.820312h15c8.285156 0 15-6.71875 15-15v-55.832031c0-3.140625-.503907-6.15625-1.425782-8.988281zm0 0"/><path d="m60.5 30v372.167969h304.242188c8.285156 0 15 6.71875 15 15v49.832031c0 8.285156 6.71875 15 15 15h15v-452.988281c0-16.019531 12.980468-29.0039065 28.996093-29.011719h-348.238281c-16.570312 0-30 13.433594-30 30zm75 92.324219h72.378906c8.28125 0 15 6.714843 15 15 0 8.285156-6.71875 15-15 15h-72.378906c-8.285156 0-15-6.714844-15-15 0-8.285157 6.714844-15 15-15zm0 60h199.242188c8.285156 0 15 6.714843 15 15 0 8.285156-6.714844 15-15 15h-199.242188c-8.285156 0-15-6.714844-15-15 0-8.285157 6.714844-15 15-15zm0 60h199.242188c8.285156 0 15 6.714843 15 15 0 8.285156-6.714844 15-15 15h-199.242188c-8.285156 0-15-6.714844-15-15 0-8.285157 6.714844-15 15-15zm0 60h199.242188c8.285156 0 15 6.714843 15 15 0 8.285156-6.714844 15-15 15h-199.242188c-8.285156 0-15-6.714844-15-15 0-8.285157 6.714844-15 15-15zm0 0"/></svg>