<svg height="512pt" viewBox="-66 0 512 512" width="512pt" xmlns="http://www.w3.org/2000/svg"><path d="m374.851562 114.226562-109.828124-109.832031c-.503907-.503906-1.046876-.949219-1.609376-1.371093v112.808593h112.808594c-.417968-.5625-.867187-1.105469-1.371094-1.605469zm0 0"/><path d="m248.414062 145.832031c-8.285156 0-15-6.714843-15-15v-130.832031h-98.792968v69.378906h13.796875c8.285156 0 15 6.714844 15 15s-6.714844 15-15 15h-13.796875v39.378906h13.796875c8.285156 0 15 6.71875 15 15 0 8.285157-6.714844 15-15 15h-13.796875v39.378907h13.796875c8.285156 0 15 6.71875 15 15 0 8.285156-6.714844 15-15 15h-13.796875v39.296875c12.351562 5.292968 21.316406 16.960937 22.671875 31.183594l8.253906 86.578124c.703125 7.394532-1.757813 14.78125-6.753906 20.277344-4.992188 5.492188-12.117188 8.644532-19.542969 8.644532h-39.253906c-7.425782 0-14.550782-3.152344-19.546875-8.644532-4.996094-5.496094-7.453125-12.886718-6.75-20.277344l8.253906-86.574218c1.355469-14.226563 10.320313-25.894532 22.667969-31.183594v-39.296875h-13.792969c-8.285156 0-15-6.714844-15-15s6.714844-15 15-15h13.792969v-39.378906h-13.792969c-8.285156 0-15-6.714844-15-15 0-8.285157 6.714844-15 15-15h13.792969v-39.382813h-13.792969c-8.285156 0-15-6.714844-15-15s6.714844-15 15-15h13.792969v-69.378906h-89.621094c-8.285156 0-15 6.714844-15 15v482c0 8.285156 6.714844 15 15 15h349.246094c8.285156 0 15-6.714844 15-15v-351.167969zm0 0"/><path d="m135.308594 394.117188-7.878906-82.652344c-.386719-4.046875-3.742188-7.097656-7.804688-7.097656-4.066406 0-7.421875 3.050781-7.808594 7.097656l-7.878906 82.652344zm0 0"/></svg>