<svg height="512pt" viewBox="0 -34 512 512" width="512pt" xmlns="http://www.w3.org/2000/svg"><path d="m247.832031 61.835938-25.230469-48.832032c-2.574218-4.984375-7.714843-8.113281-13.324218-8.113281h-171.960938c-6.457031 0-12.1875 4.128906-14.230468 10.253906l-15.789063 47.363281c2.503906-.433593 5.074219-.671874 7.703125-.671874zm0 0"/><path d="m427.460938 199.050781c-60.695313 0-110.503907-47.460937-114.289063-107.214843h-298.171875c-8.285156 0-15 6.714843-15 15v321.550781c0 8.28125 6.714844 15 15 15h482c8.285156 0 15-6.71875 15-15v-266.683594c-20.957031 22.9375-51.097656 37.347656-84.539062 37.347656zm0 0"/><path d="m427.457031 169.050781c46.683594 0 84.527344-37.839843 84.527344-84.523437s-37.84375-84.527344-84.527344-84.527344c-46.679687 0-84.523437 37.84375-84.523437 84.527344 0 46.679687 37.84375 84.523437 84.523437 84.523437zm-24.523437-99.523437h9.523437v-9.527344c0-8.285156 6.71875-15 15-15 8.285157 0 15 6.714844 15 15v9.527344h9.527344c8.285156 0 15 6.714844 15 15 0 8.28125-6.714844 15-15 15h-9.527344v9.523437c0 8.285157-6.714843 15-15 15-8.28125 0-15-6.714843-15-15v-9.523437h-9.523437c-8.285156 0-15-6.71875-15-15 0-8.285156 6.714844-15 15-15zm0 0"/></svg>