<svg height="512pt" viewBox="-66 0 512 512" width="512pt" xmlns="http://www.w3.org/2000/svg"><path d="m374.851562 114.226562-109.828124-109.832031c-.503907-.503906-1.046876-.949219-1.609376-1.371093v112.808593h112.8125c-.421874-.5625-.871093-1.105469-1.375-1.605469zm0 0"/><path d="m248.414062 145.832031c-8.285156 0-15-6.714843-15-15v-130.832031h-218.414062c-8.285156 0-15 6.714844-15 15v482c0 8.285156 6.714844 15 15 15h349.246094c8.285156 0 15-6.714844 15-15v-351.167969zm-126.785156 139.257813c5.855469-5.859375 15.355469-5.859375 21.210938 0l31.785156 31.78125v-110.824219c0-8.285156 6.714844-15 15-15 8.28125 0 15 6.714844 15 15v110.824219l31.78125-31.78125c5.859375-5.859375 15.355469-5.859375 21.214844 0s5.859375 15.355468 0 21.214844l-57.390625 57.386718c-2.929688 2.929688-6.765625 4.394532-10.605469 4.394532s-7.679688-1.464844-10.605469-4.394532l-57.390625-57.386718c-5.859375-5.859376-5.859375-15.355469 0-21.214844zm137.996094 142.996094h-140.003906c-8.28125 0-15-6.714844-15-15 0-8.285157 6.71875-15 15-15h140.003906c8.28125 0 15 6.714843 15 15 0 8.285156-6.714844 15-15 15zm0 0"/></svg>