<svg height="512pt" viewBox="-66 0 512 512" width="512pt" xmlns="http://www.w3.org/2000/svg"><path d="m374.851562 114.226562-109.828124-109.832031c-.503907-.503906-1.046876-.949219-1.609376-1.371093v112.808593h112.8125c-.421874-.5625-.871093-1.105469-1.375-1.605469zm0 0"/><path d="m248.414062 145.832031c-8.285156 0-15-6.714843-15-15v-130.832031h-218.414062c-8.285156 0-15 6.714844-15 15v482c0 8.285156 6.714844 15 15 15h349.246094c8.285156 0 15-6.714844 15-15v-351.167969zm-158.414062 56.496094h72.378906c8.285156 0 15 6.714844 15 15 0 8.28125-6.714844 15-15 15h-72.378906c-8.285156 0-15-6.71875-15-15 0-8.285156 6.714844-15 15-15zm199.246094 210h-199.246094c-8.285156 0-15-6.714844-15-15s6.714844-15 15-15h199.246094c8.285156 0 15 6.714844 15 15s-6.714844 15-15 15zm0-60h-199.246094c-8.285156 0-15-6.71875-15-15 0-8.285156 6.714844-15 15-15h199.246094c8.285156 0 15 6.714844 15 15 0 8.28125-6.714844 15-15 15zm0-60h-199.246094c-8.285156 0-15-6.71875-15-15 0-8.285156 6.714844-15 15-15h199.246094c8.285156 0 15 6.714844 15 15 0 8.28125-6.714844 15-15 15zm0 0"/></svg>