<svg height="512pt" viewBox="-66 0 512 512" width="512pt" xmlns="http://www.w3.org/2000/svg"><path d="m374.851562 114.226562-109.828124-109.832031c-.503907-.503906-1.046876-.949219-1.609376-1.371093v112.808593h112.808594c-.417968-.5625-.867187-1.105469-1.371094-1.605469zm0 0"/><path d="m144.554688 371.273438 109.421874-63.191407-109.421874-63.191406zm0 0"/><path d="m248.414062 145.832031c-8.285156 0-15-6.714843-15-15v-130.832031h-218.414062c-8.285156 0-15 6.714844-15 15v482c0 8.285156 6.714844 15 15 15h349.246094c8.285156 0 15-6.714844 15-15v-351.167969zm43.058594 175.238281-154.414062 89.175782c-2.320313 1.339844-4.914063 2.011718-7.503906 2.011718-2.589844 0-5.179688-.667968-7.496094-2.007812-4.644532-2.679688-7.503906-7.632812-7.503906-12.992188v-178.351562c0-5.359375 2.859374-10.3125 7.503906-12.988281 4.640625-2.683594 10.355468-2.679688 15 0l154.414062 89.175781c4.640625 2.679688 7.496094 7.632812 7.496094 12.988281 0 5.359375-2.855469 10.3125-7.496094 12.988281zm0 0"/></svg>