<svg height="512pt" viewBox="-66 0 512 512" width="512pt" xmlns="http://www.w3.org/2000/svg"><path d="m374.851562 114.226562-109.832031-109.832031c-.5-.503906-1.042969-.949219-1.605469-1.371093v112.808593h112.808594c-.421875-.5625-.867187-1.105469-1.371094-1.605469zm0 0"/><path d="m117.3125 179c3.324219 0 6.648438 1.101562 9.394531 3.308594l17.914063 14.394531v-196.703125h-54.621094v196.707031l17.914062-14.398437c2.746094-2.207032 6.070313-3.308594 9.398438-3.308594zm0 0"/><path d="m248.414062 145.832031c-8.285156 0-15-6.714843-15-15v-130.832031h-58.792968v228c0 5.773438-3.3125 11.035156-8.515625 13.527344-2.0625.988281-4.277344 1.472656-6.480469 1.472656-3.355469 0-6.683594-1.121094-9.398438-3.304688l-32.914062-26.449218-32.914062 26.449218c-4.5 3.613282-10.675782 4.328126-15.882813 1.832032-5.203125-2.496094-8.515625-7.753906-8.515625-13.527344v-228h-45c-8.285156 0-15 6.714844-15 15v482c0 8.285156 6.714844 15 15 15h349.246094c8.28125 0 15-6.714844 15-15v-351.167969zm0 0"/></svg>