<svg height="512pt" viewBox="-66 0 512 512" width="512pt" xmlns="http://www.w3.org/2000/svg"><path d="m374.851562 114.226562-109.828124-109.832031c-.503907-.503906-1.046876-.949219-1.609376-1.371093v112.808593h112.808594c-.417968-.5625-.867187-1.105469-1.371094-1.605469zm0 0"/><path d="m127.9375 304.902344h-4.996094v137.109375h133.363282v-137.109375zm76.6875 79.984375v12.125c0 8.28125-6.71875 15-15 15-8.285156 0-15.003906-6.71875-15.003906-15v-12.125c-6.066406-4.566407-10-11.824219-10-19.988281 0-13.785157 11.21875-25 25.003906-25 13.78125 0 25 11.214843 25 25 0 8.164062-3.933594 15.421874-10 19.988281zm0 0"/><path d="m248.414062 145.832031c-8.285156 0-15-6.714843-15-15v-130.832031h-218.414062c-8.285156 0-15 6.714844-15 15v482c0 8.285156 6.714844 15 15 15h349.246094c8.285156 0 15-6.714844 15-15v-351.167969zm37.894532 311.179688c0 8.28125-6.71875 15-15.003906 15h-163.363282c-8.285156 0-15-6.71875-15-15v-167.109375c0-8.285156 6.714844-15 15-15h4.996094v-30.535156c0-38.128907 31.019531-69.148438 69.144531-69.148438h15.082031c38.128907 0 69.148438 31.019531 69.148438 69.148438v30.535156h4.992188c8.285156 0 15.003906 6.714844 15.003906 15zm0 0"/><path d="m236.308594 244.367188c0-21.585938-17.558594-39.148438-39.144532-39.148438h-15.082031c-21.585937 0-39.144531 17.5625-39.144531 39.148438v30.535156h93.371094zm0 0"/></svg>