<svg height="512pt" viewBox="0 0 512.001 512" width="512pt" xmlns="http://www.w3.org/2000/svg"><path d="m221.632812 176.703125h108.488282c-.75-1.71875-1.8125-3.300781-3.167969-4.644531l-100.746094-100.074219c-1.328125-1.320313-2.886719-2.359375-4.570312-3.09375v107.8125zm0 0"/><path d="m507.570312 104.433594-100.746093-100.074219c-1.332031-1.320313-2.886719-2.355469-4.574219-3.09375v107.8125h108.488281c-.753906-1.714844-1.8125-3.296875-3.167969-4.644531zm0 0"/><path d="m286.121094 333.773438c-24.824219 0-45.023438-20.195313-45.023438-45.019532 0-24.824218 20.199219-45.019531 45.023438-45.019531h45.261718v-37.019531h-124.753906c-8.289062 0-15.007812-6.71875-15.007812-15.007813v-124.085937h-176.613282c-8.289062 0-15.007812 6.722656-15.007812 15.007812v413.613282c0 8.285156 6.71875 15.007812 15.007812 15.007812h301.371094c8.285156 0 15.003906-6.722656 15.003906-15.007812v-162.46875zm-211.078125-89.648438h90.566406c8.289063 0 15.007813 6.71875 15.007813 15.007812 0 8.285157-6.71875 15.003907-15.007813 15.003907h-90.566406c-8.285157 0-15.007813-6.71875-15.007813-15.003907 0-8.289062 6.722656-15.007812 15.007813-15.007812zm0 60.027344h120.894531c8.285156 0 15.007812 6.71875 15.007812 15.007812 0 8.285156-6.722656 15.007813-15.007812 15.007813h-120.894531c-8.285157 0-15.007813-6.722657-15.007813-15.007813 0-8.289062 6.722656-15.007812 15.007813-15.007812zm181.308593 150.070312h-181.308593c-8.285157 0-15.007813-6.71875-15.007813-15.007812 0-8.289063 6.722656-15.007813 15.007813-15.007813h181.308593c8.285157 0 15.003907 6.71875 15.003907 15.007813 0 8.289062-6.71875 15.007812-15.003907 15.007812zm0-60.027344h-181.308593c-8.285157 0-15.007813-6.71875-15.007813-15.007812s6.722656-15.007812 15.007813-15.007812h181.308593c8.285157 0 15.003907 6.71875 15.003907 15.007812s-6.71875 15.007812-15.003907 15.007812zm0 0"/><path d="m387.246094 139.09375c-8.289063 0-15.007813-6.722656-15.007813-15.007812v-124.085938h-176.617187c-8.285156 0-15.003906 6.71875-15.003906 15.007812v22.601563h35.015624c11.96875 0 23.238282 4.644531 31.726563 13.082031l100.746094 100.070313c8.449219 8.390625 13.292969 20.03125 13.292969 31.941406v61.027344h12.460937c2.226563-5.957031 5.726563-11.425781 10.359375-16.058594 8.503906-8.5 19.808594-13.183594 31.832031-13.183594 12.027344 0 23.332031 4.683594 31.835938 13.183594l29.246093 29.246094c8.503907 8.503906 13.1875 19.808593 13.1875 31.835937 0 12.023438-4.683593 23.328125-13.1875 31.832032l-29.246093 29.246093c-8.503907 8.503907-19.808594 13.1875-31.835938 13.1875-12.023437 0-23.328125-4.683593-31.832031-13.1875-4.632812-4.632812-8.132812-10.097656-10.359375-16.058593h-12.460937v109.851562h135.59375c8.289062 0 15.007812-6.71875 15.007812-15.007812v-289.523438zm0 0"/><path d="m455.910156 278.140625-29.246094-29.246094c-5.859374-5.859375-15.363281-5.859375-21.222656 0s-5.859375 15.363281 0 21.222657l3.628906 3.628906h-122.949218c-8.289063 0-15.007813 6.71875-15.007813 15.007812 0 8.285156 6.71875 15.007813 15.007813 15.007813h122.949218l-3.628906 3.625c-5.859375 5.859375-5.859375 15.363281 0 21.222656 2.929688 2.929687 6.769532 4.398437 10.613282 4.398437 3.839843 0 7.679687-1.46875 10.609374-4.398437l29.246094-29.246094c5.859375-5.859375 5.859375-15.359375 0-21.222656zm0 0"/></svg>