<svg height="512pt" viewBox="-48 0 512 512" width="512pt" xmlns="http://www.w3.org/2000/svg"><path d="m410.613281 124.40625-120.019531-120.011719c-.503906-.503906-1.046875-.953125-1.605469-1.371093v122.984374h122.992188c-.417969-.558593-.867188-1.101562-1.367188-1.601562zm0 0"/><path d="m273.988281 156.007812c-8.285156 0-15.003906-6.714843-15.003906-15v-141.007812h-243.984375c-8.285156 0-15 6.714844-15 15v223.960938h338.503906c8.285156 0 15 6.71875 15 15v183.023437c0 8.285156-6.714844 15-15 15h-338.503906v45.015625c0 8.285156 6.714844 15 15 15h385.007812c8.285157 0 15-6.714844 15-15v-340.992188zm0 0"/><path d="m323.503906 268.960938h-323.503906v153.023437h323.503906zm-205.589844 58.574218c0 23.523438-15.121093 32.480469-34.441406 32.480469h-13.859375v30.242187c0 4.480469-5.460937 6.71875-10.921875 6.71875-5.460937 0-10.917968-2.238281-10.917968-6.71875v-89.042968c0-3.5 3.21875-6.578125 8.117187-6.578125h28.980469c18.480468 0 33.042968 8.679687 33.042968 32.199219zm81.757813 36.402344c0 24.078125-15.121094 33.039062-34.441406 33.039062h-24.777344c-5.742187 0-9.523437-3.078124-9.523437-6.578124v-89.183594c0-3.5 3.78125-6.582032 9.523437-6.582032h24.777344c19.320312 0 34.441406 8.964844 34.441406 33.042969zm75.460937-50.261719h-36.261718v23.660157h21.144531c4.199219 0 6.578125 4.058593 6.578125 8.539062 0 3.78125-1.960938 8.261719-6.578125 8.261719h-21.144531v36.117187c0 4.480469-5.457032 6.722656-10.917969 6.722656s-10.917969-2.238281-10.917969-6.722656v-88.898437c0-4.480469 4.757813-6.722657 9.519532-6.722657h48.578124c4.621094 0 6.582032 4.902344 6.582032 9.382813 0 5.179687-2.382813 9.660156-6.582032 9.660156zm0 0"/><path d="m165.230469 313.675781h-12.457031v64.261719h12.457031c7.84375 0 12.601562-4.480469 12.601562-14v-36.261719c0-9.519531-4.757812-14-12.601562-14zm0 0"/><path d="m83.472656 313.675781h-13.859375v29.539063h13.859375c7.839844 0 12.601563-4.480469 12.601563-14v-1.539063c0-9.519531-4.761719-14-12.601563-14zm0 0"/></svg>