<svg height="512pt" viewBox="0 -21 512 512" width="512pt" xmlns="http://www.w3.org/2000/svg"><path d="m101.101562 469.554688c-25.890624 0-51.78125-9.855469-71.488281-29.566407-19.097656-19.09375-29.613281-44.484375-29.613281-71.488281 0-27.007812 10.515625-52.394531 29.613281-71.492188l258.617188-258.613281c24.757812-24.757812 57.671875-38.394531 92.6875-38.394531 34.976562 0 67.867187 13.609375 92.613281 38.320312.027344.027344.050781.050782.078125.074219 24.753906 24.757813 38.390625 57.675781 38.390625 92.691407 0 35.011718-13.636719 67.929687-38.394531 92.683593l-218.332031 218.335938c-5.855469 5.859375-15.355469 5.859375-21.210938 0-5.859375-5.859375-5.859375-15.355469 0-21.214844l218.332031-218.332031c19.089844-19.089844 29.605469-44.476563 29.605469-71.472656 0-26.96875-10.488281-52.324219-29.535156-71.40625-.027344-.023438-.050782-.046876-.074219-.074219-19.089844-19.089844-44.476563-29.605469-71.476563-29.605469s-52.382812 10.515625-71.472656 29.605469l-258.617187 258.617187c-13.429688 13.429688-20.824219 31.285156-20.824219 50.277344s7.394531 36.847656 20.824219 50.273438c27.726562 27.726562 72.832031 27.722656 100.554687.003906l204.152344-204.152344c16.03125-16.03125 16.03125-42.121094 0-58.15625-16.035156-16.03125-42.121094-16.03125-58.15625 0l-163.867188 163.871094c-5.859374 5.855468-15.355468 5.855468-21.214843 0-5.855469-5.859375-5.855469-15.355469 0-21.214844l163.871093-163.867188c27.726563-27.730468 72.851563-27.730468 100.578126 0 27.730468 27.730469 27.730468 72.851563 0 100.582032l-204.152344 204.148437c-19.707032 19.710938-45.597656 29.566407-71.488282 29.566407zm0 0"/></svg>