<svg height="512pt" viewBox="0 -90 512 512" width="512pt" xmlns="http://www.w3.org/2000/svg"><path d="m391.066406 87.734375c-13.164062-24.558594-32.285156-45.433594-55.761718-60.769531-27.007813-17.640625-58.398438-26.964844-90.785157-26.964844-80.511719 0-148.742187 57.386719-163.339843 135.320312-46.394532 8.601563-81.179688 49.371094-81.179688 97.714844 0 54.808594 44.589844 99.398438 99.398438 99.398438h141.601562v-125.824219l-31.78125 31.78125c-5.859375 5.855469-15.355469 5.855469-21.214844 0-5.859375-5.859375-5.859375-15.355469 0-21.214844l57.390625-57.386719c5.855469-5.859374 15.351563-5.859374 21.210938 0l57.390625 57.386719c5.859375 5.859375 5.859375 15.355469 0 21.214844-2.929688 2.929687-6.769532 4.394531-10.605469 4.394531-3.839844 0-7.679687-1.464844-10.609375-4.394531l-31.78125-31.78125v125.824219h118.644531c67.46875 0 122.355469-54.886719 122.355469-122.355469 0-66.992187-54.117188-121.582031-120.933594-122.34375zm0 0"/></svg>