<svg height="512pt" viewBox="-66 0 512 512" width="512pt" xmlns="http://www.w3.org/2000/svg"><path d="m374.851562 114.226562-109.828124-109.832031c-.503907-.503906-1.046876-.949219-1.609376-1.371093v112.808593h112.808594c-.417968-.5625-.867187-1.105469-1.371094-1.605469zm0 0"/><path d="m248.414062 145.832031c-8.285156 0-15-6.714843-15-15v-130.832031h-218.414062c-8.285156 0-15 6.714844-15 15v482c0 8.285156 6.714844 15 15 15h349.246094c8.285156 0 15-6.714844 15-15v-351.167969zm-58.632812 145.167969c27.886719 0 50.574219 22.683594 50.574219 50.566406v13.730469c0 13.730469-5.648438 27.144531-15.492188 36.804687-5.789062 5.679688-12.648437 9.785157-20.082031 12.144532v28.757812c0 8.285156-6.714844 15-15 15-8.28125 0-15-6.714844-15-15v-28.695312c-7.902344-2.445313-15.132812-6.816406-21.082031-12.875-9.34375-9.515625-14.488281-22.097656-14.488281-35.433594 0-8.285156 6.714843-15.003906 15-15.003906 8.28125 0 15 6.71875 15 15.003906 0 11.125 9.046874 20.351562 20.164062 20.566406.128906 0 .253906.003906.378906.003906 5.226563 0 10.222656-2.082031 14.097656-5.886718 4.132813-4.054688 6.503907-9.664063 6.503907-15.390625v-13.726563c0-11.34375-9.226563-20.570312-20.570313-20.570312-27.890625 0-50.574218-22.683594-50.574218-50.570313v-13.726562c0-13.730469 5.644531-27.148438 15.492187-36.808594 5.785156-5.671875 12.652344-9.78125 20.078125-12.140625v-28.753906c0-8.285156 6.71875-15 15-15 8.285156 0 15 6.714844 15 15v28.734375c20.539062 6.460937 35.574219 25.777343 35.574219 48.265625 0 8.285156-6.714844 15-15 15-8.285157 0-15-6.714844-15-15 0-11.128906-9.046875-20.355469-20.164063-20.570313-5.375-.101562-10.507812 1.988281-14.476562 5.882813-4.132813 4.054687-6.503906 9.664062-6.503906 15.390625v13.726562c0 11.347657 9.226562 20.574219 20.570312 20.574219zm0 0"/></svg>