<svg height="512pt" viewBox="0 0 511 512" width="512pt" xmlns="http://www.w3.org/2000/svg"><path d="m270.695312 75c0-8.285156-6.71875-15-15-15h-213.527343c-8.28125 0-14.996094 6.714844-14.996094 15v105h243.523437zm-113.855468 59.996094h-15.816406c-8.28125 0-15-6.714844-15-15s6.71875-15 15-15h15.816406c8.285156 0 15 6.714844 15 15s-6.714844 15-15 15zm0 0"/><path d="m27.171875 315c0 8.285156 6.714844 15 14.996094 15h213.527343c8.28125 0 15-6.714844 15-15v-105h-243.523437zm114.484375-59.628906h15.8125c8.285156 0 15 6.714844 15 15s-6.714844 15-15 15h-15.8125c-8.285156 0-15-6.714844-15-15-.003906-8.285156 6.714844-15 15-15zm0 0"/><path d="m497.484375 452h-38.292969v-15c0-8.28125-6.714844-15-15-15h-47.832031v-92h45c8.285156 0 15-6.714844 15-15s-6.714844-15-15-15h-39.09375c-3.453125-5.660156-8.378906-9.355469-11.902344-12-1.191406-.898438-2.875-2.15625-3.746093-3.003906.871093-.851563 2.554687-2.109375 3.746093-3.003906 5.984375-4.488282 15.996094-12 15.996094-27s-10.015625-22.511719-16-27c-1.1875-.894532-2.867187-2.152344-3.738281-3 .871094-.851563 2.550781-2.109376 3.738281-3.003907 5.984375-4.488281 16-12 16-27s-10.015625-22.511719-16-27c-1.1875-.890625-2.867187-2.152343-3.738281-3 .871094-.847656 2.550781-2.105469 3.738281-3 5.984375-4.488281 16-11.996093 16-26.996093s-10.015625-22.511719-16-27c-1.1875-.890626-2.863281-2.148438-3.738281-2.996094.875-.847656 2.550781-2.105469 3.738281-2.996094 3.527344-2.644531 8.453125-6.34375 11.90625-12h39.09375c8.285156 0 15-6.714844 15-15s-6.714844-15-15-15h-109.863281v-45c0-8.285156-6.714844-15-15-15h-300.996094c-8.285156 0-15 6.714844-15 15s6.714844 15 15 15h285.996094v45c0 8.285156 6.71875 15 15 15h43.960937c-2.40625 3.941406-4.097656 8.835938-4.097656 14.996094 0 15 10.019531 22.507812 16 26.996094 1.191406.894531 2.867187 2.152343 3.742187 3-.875.847656-2.550781 2.105468-3.742187 2.996093-5.984375 4.488281-16 12-16 27s10.015625 22.511719 16 27c1.191406.894531 2.871094 2.152344 3.742187 3-.871093.847657-2.550781 2.109375-3.742187 3-5.984375 4.488281-16 12.003907-16 27.003907s10.015625 22.511718 16 27c1.191406.890624 2.871094 2.152343 3.742187 3-.871093.847656-2.550781 2.105468-3.742187 3-5.984375 4.488281-16 12.003906-16 27.003906 0 6.164062 1.691406 11.058594 4.101563 15.003906h-43.964844c-8.28125 0-15 6.714844-15 15v45h-285.996094c-8.285156 0-15 6.714844-15 15s6.714844 15 15 15h300.996094c8.285156 0 15-6.714844 15-15v-45h34.863281v92h-47.832031c-8.285156 0-15 6.71875-15 15v15h-35.605469c-8.285156 0-15 6.714844-15 15s6.714844 15 15 15h35.605469v15c0 8.285156 6.714844 15 15 15h125.664062c8.285156 0 15-6.714844 15-15v-15h38.292969c8.285156 0 15-6.714844 15-15s-6.714844-15-15-15zm0 0"/></svg>