<svg height="512pt" viewBox="-56 0 512 512" width="512pt" xmlns="http://www.w3.org/2000/svg"><path d="m394.933594 106.410156-102.738282-102.050781c-.492187-.488281-1.023437-.925781-1.570312-1.339844v105.035157h105.714844c-.433594-.574219-.890625-1.128907-1.40625-1.644532zm0 0"/><path d="m32.03125 436.792969v-376.585938h-17.03125c-8.285156 0-15 6.714844-15 15v421.792969c0 8.285156 6.714844 15 15 15h307.332031c8.285157 0 15-6.714844 15-15v-15.207031h-260.300781c-24.8125 0-45-20.1875-45-45zm0 0"/><path d="m275.625 138.054688c-8.285156 0-15-6.714844-15-15v-123.054688h-183.59375c-8.285156 0-15 6.714844-15 15v421.792969c0 8.285156 6.714844 15 15 15h307.332031c8.28125 0 15-6.714844 15-15v-298.738281zm-139.65625 21.957031h72.378906c8.285156 0 15 6.714843 15 15 0 8.285156-6.714844 15-15 15h-72.378906c-8.285156 0-15-6.714844-15-15 0-8.285157 6.714844-15 15-15zm188.472656 210h-188.472656c-8.285156 0-15-6.714844-15-15 0-8.285157 6.714844-15 15-15h188.472656c8.285156 0 15 6.714843 15 15 0 8.285156-6.714844 15-15 15zm0-60h-188.472656c-8.285156 0-15-6.714844-15-15 0-8.285157 6.714844-15 15-15h188.472656c8.285156 0 15 6.714843 15 15 0 8.285156-6.714844 15-15 15zm0-60h-188.472656c-8.285156 0-15-6.714844-15-15 0-8.285157 6.714844-15 15-15h188.472656c8.285156 0 15 6.714843 15 15 0 8.285156-6.714844 15-15 15zm0 0"/></svg>