<svg height="512pt" viewBox="0 -37 512 512" width="512pt" xmlns="http://www.w3.org/2000/svg"><path d="m247.832031 56.945312-25.230469-48.832031c-2.574218-4.980469-7.714843-8.113281-13.324218-8.113281h-171.960938c-6.457031 0-12.1875 4.132812-14.230468 10.257812l-15.789063 47.359376c2.503906-.433594 5.074219-.671876 7.703125-.671876zm0 0"/><path d="m497 86.945312h-482c-8.285156 0-15 6.714844-15 15v321.550782c0 8.285156 6.714844 15 15 15h482c8.285156 0 15-6.714844 15-15v-321.550782c0-8.285156-6.714844-15-15-15zm-135.53125 161.828126-41.851562 40.796874 9.878906 57.605469c.964844 5.625-1.347656 11.3125-5.964844 14.671875-2.613281 1.898438-5.710938 2.863282-8.820312 2.863282-2.386719 0-4.78125-.570313-6.976563-1.722657l-51.734375-27.199219-51.730469 27.199219c-5.054687 2.65625-11.179687 2.210938-15.796875-1.140625-4.621094-3.359375-6.933594-9.046875-5.96875-14.671875l9.878906-57.609375-41.851562-40.796875c-4.089844-3.984375-5.5625-9.945312-3.796875-15.375 1.765625-5.429687 6.457031-9.390625 12.109375-10.210937l57.839844-8.402344 25.867187-52.410156c2.527344-5.121094 7.738281-8.363282 13.449219-8.363282s10.925781 3.242188 13.453125 8.363282l25.863281 52.410156 57.839844 8.402344c5.652344.820312 10.34375 4.78125 12.109375 10.210937 1.765625 5.429688.292969 11.390625-3.796875 15.378907zm0 0"/><path d="m271.90625 235.128906-15.90625-32.226562-15.90625 32.226562c-2.183594 4.429688-6.40625 7.496094-11.292969 8.207032l-35.566406 5.167968 25.734375 25.085938c3.535156 3.445312 5.148438 8.410156 4.316406 13.277344l-6.078125 35.421874 31.8125-16.726562c2.1875-1.148438 4.582031-1.722656 6.980469-1.722656s4.792969.574218 6.980469 1.722656l31.808593 16.726562-6.074218-35.421874c-.835938-4.867188.777344-9.832032 4.316406-13.277344l25.734375-25.085938-35.566406-5.167968c-4.886719-.710938-9.109375-3.777344-11.292969-8.207032zm0 0"/></svg>