<svg height="512pt" viewBox="-66 0 512 512" width="512pt" xmlns="http://www.w3.org/2000/svg"><path d="m374.851562 114.226562-109.828124-109.832031c-.503907-.503906-1.046876-.949219-1.609376-1.371093v112.808593h112.808594c-.417968-.5625-.867187-1.105469-1.371094-1.605469zm0 0"/><path d="m248.414062 145.832031c-8.285156 0-15-6.714843-15-15v-130.832031h-218.414062c-8.285156 0-15 6.714844-15 15v482c0 8.285156 6.714844 15 15 15h349.246094c8.285156 0 15-6.714844 15-15v-351.167969zm-177.078124-65.800781 99.355468.828125c7.589844.0625 10.738282 8.371094 10.675782 15.960937-.070313 8.738282-4.046876 16.296876-10.945313 16.238282l-31.738281-.265625-1.042969 124.882812c-.0625 7.359375-9.0625 10.964844-18.03125 10.890625-8.972656-.074218-17.910156-3.828125-17.847656-11.191406l1.042969-124.882812-31.738282-.265626c-6.898437-.058593-10.746094-7.679687-10.675781-16.421874.066406-7.585938 3.355469-15.839844 10.945313-15.773438zm232.910156 371.980469h-229.246094c-8.285156 0-15-6.71875-15-15 0-8.285157 6.714844-15 15-15h229.246094c8.285156 0 15 6.714843 15 15 0 8.28125-6.714844 15-15 15zm0-65.300781h-229.246094c-8.285156 0-15-6.714844-15-15 0-8.285157 6.714844-15 15-15h229.246094c8.285156 0 15 6.714843 15 15 0 8.285156-6.714844 15-15 15zm0-65.300782h-229.246094c-8.285156 0-15-6.714844-15-15s6.714844-15 15-15h229.246094c8.285156 0 15 6.714844 15 15s-6.714844 15-15 15zm0-65.300781h-121.597656c-8.285157 0-15-6.71875-15-15 0-8.285156 6.714843-15 15-15h121.597656c8.285156 0 15 6.714844 15 15s-6.714844 15-15 15zm0 0"/></svg>