<svg height="512pt" viewBox="-66 0 512 512" width="512pt" xmlns="http://www.w3.org/2000/svg"><path d="m374.851562 114.226562-109.828124-109.832031c-.503907-.503906-1.046876-.949219-1.609376-1.371093v112.808593h112.8125c-.421874-.5625-.871093-1.105469-1.375-1.605469zm0 0"/><path d="m191.550781 270.886719h-3.859375c-13.785156 0-25 11.214843-25 25v17.375.136719 47.078124c0 13.785157 11.214844 25 25 25h3.859375c13.785157 0 25-11.214843 25-25v-47.078124c0-.042969 0-.089844 0-.136719v-17.371094c0-13.789063-11.214843-25.003906-25-25.003906zm0 0"/><path d="m248.414062 145.832031c-8.285156 0-15-6.714843-15-15v-130.832031h-218.414062c-8.285156 0-15 6.714844-15 15v482c0 8.285156 6.714844 15 15 15h349.246094c8.285156 0 15-6.714844 15-15v-351.167969zm58.152344 192.226563-36.488281 5c-.675781.09375-1.359375.140625-2.035156.140625-1.953125 0-3.890625-.378907-5.703125-1.125l-15.789063-6.492188v10.625l28.371094 23.816407 24.777344 9.09375c7.777343 2.855468 11.769531 11.472656 8.914062 19.25-2.226562 6.070312-7.972656 9.835937-14.082031 9.835937-1.71875 0-3.460938-.296875-5.167969-.921875l-27.242187-10c-1.628906-.597656-3.144532-1.476562-4.476563-2.59375l-15.386719-12.914062c-8.335937 19.78125-27.925781 33.703124-50.707031 33.703124h-3.859375c-22.78125 0-42.367187-13.921874-50.707031-33.707031l-15.386719 12.917969c-1.332031 1.117188-2.847656 1.992188-4.476562 2.59375l-27.242188 10c-1.703125.625-3.449218.921875-5.167968.921875-6.109376 0-11.851563-3.765625-14.082032-9.835937-2.855468-7.777344 1.136719-16.394532 8.914063-19.25l24.777343-9.097657 28.371094-23.816406v-10.621094l-15.789062 6.488281c-1.8125.746094-3.75 1.128907-5.703125 1.128907-.675781 0-1.359375-.046875-2.035157-.140625l-36.488281-5c-8.210937-1.125-13.953125-8.691406-12.828125-16.898438 1.125-8.207031 8.695313-13.949218 16.898438-12.824218l32.488281 4.453124 23.457031-9.640624v-7.261719c0-2.609375.195313-5.175781.546875-7.6875h-18.527343c-5.097657 0-9.84375-2.585938-12.605469-6.871094l-18.164063-28.164063c-4.492187-6.964843-2.488281-16.246093 4.472656-20.738281 6.960938-4.488281 16.246094-2.484375 20.738282 4.476563l13.734375 21.296875h24.804687c3.503906-3.71875 7.515625-6.953125 11.929688-9.582031v-22.949219c0-16.542969 13.457031-30 30-30 16.542968 0 30 13.457031 30 30v22.949219c4.414062 2.628906 8.425781 5.863281 11.933594 9.582031h24.804687l13.734375-21.296875c4.488281-6.960938 13.773438-8.964844 20.734375-4.476563 6.960937 4.492188 8.964844 13.773438 4.476563 20.738281l-18.164063 28.164063c-2.761719 4.285156-7.511719 6.871094-12.605469 6.871094h-18.53125c.355469 2.511719.550782 5.078125.550782 7.6875v7.261719l23.457031 9.640624 32.488281-4.453124c8.203125-1.117188 15.769531 4.617187 16.894531 12.824218 1.125 8.210938-4.617187 15.773438-12.828125 16.898438zm0 0"/></svg>