<svg height="512pt" viewBox="-13 0 512 512" width="512pt" xmlns="http://www.w3.org/2000/svg"><path d="m90 173.972656h54.273438v32.433594h-54.273438zm0 0"/><path d="m357.5 337.078125-73.527344 73.523437-58.457031 26.570313c-5.285156 2.402344-10.871094 3.621094-16.601563 3.621094 0 0 0 0-.003906 0-13.621094-.003907-26.191406-6.894531-33.621094-18.4375-7.371093-11.445313-8.394531-25.707031-2.738281-38.148438l12.636719-27.804687h-110.1875c-8.285156 0-15-6.714844-15-15s6.714844-15 15-15h123.824219l.296875-.652344 29.347656-29.347656h-153.46875c-8.285156 0-15-6.714844-15-15s6.714844-15 15-15h183.46875l54.589844-54.585938 63.371094-63.375v-103.429687c0-8.285157-6.714844-15-15-15h-66.945313l7.914063 17.398437c5.65625 12.441406 4.621093 26.726563-2.777344 38.214844-7.394532 11.488281-19.96875 18.347656-33.632813 18.347656h-155.546875c-13.664062 0-26.238281-6.859375-33.636718-18.347656-7.394532-11.492188-8.429688-25.777344-2.769532-38.214844l7.914063-17.398437h-66.949219c-8.285156 0-15 6.714843-15 15v451.988281c0 8.285156 6.714844 15 15 15h346.429688c8.285156 0 15-6.714844 15-15v-140.1875c-3.75-2.042969-7.234376-4.632812-10.339844-7.738281-3.554688-3.558594-6.433594-7.609375-8.589844-11.996094zm-297.5-178.105469c0-8.285156 6.714844-15 15-15h84.273438c8.285156 0 15 6.714844 15 15v62.433594c0 8.28125-6.714844 15-15 15h-84.273438c-8.285156 0-15-6.71875-15-15zm0 0"/><path d="m110.441406 73.972656h155.546875c7.273438 0 12.113281-7.519531 9.101563-14.140625l-12.667969-27.851562c-.59375-1.300781-.898437-2.710938-.898437-4.140625v-17.839844c0-5.523438-4.476563-10-10-10h-126.617188c-5.523438 0-10 4.476562-10 10v17.839844c0 1.429687-.304688 2.839844-.898438 4.140625l-12.667968 27.851562c-3.011719 6.621094 1.828125 14.140625 9.101562 14.140625zm0 0"/><path d="m472.152344 200.582031-10.296875-10.300781c11.402343-11.738281 11.304687-30.496094-.308594-42.105469-11.714844-11.714843-30.710937-11.714843-42.425781 0l-63.636719 63.640625 42.425781 42.425782 42.738282-42.742188 10.292968 10.292969c5.851563 5.851562 5.851563 15.367187 0 21.214843l-63.636718 63.640626c-5.859376 5.855468-5.859376 15.355468 0 21.210937 2.929687 2.929687 6.765624 4.394531 10.605468 4.394531s7.675782-1.464844 10.605469-4.394531l63.640625-63.640625c17.542969-17.542969 17.542969-46.09375-.003906-63.636719zm0 0"/><path d="m224.183594 343.113281-24.320313 53.507813c-3.824219 8.410156 4.828125 17.0625 13.238281 13.242187l53.507813-24.320312 110.039063-110.039063-42.425782-42.425781zm0 0"/></svg>