<svg height="512pt" viewBox="-48 0 512 512" width="512pt" xmlns="http://www.w3.org/2000/svg"><path d="m410.613281 124.40625-120.019531-120.011719c-.503906-.503906-1.046875-.953125-1.605469-1.371093v122.984374h122.992188c-.417969-.558593-.867188-1.101562-1.367188-1.601562zm0 0"/><path d="m273.988281 156.007812c-8.285156 0-15.003906-6.714843-15.003906-15v-141.007812h-243.984375c-8.285156 0-15 6.714844-15 15v223.960938h338.503906c8.285156 0 15 6.71875 15 15v183.023437c0 8.285156-6.714844 15-15 15h-338.503906v45.015625c0 8.285156 6.714844 15 15 15h385.007812c8.285157 0 15-6.714844 15-15v-340.992188zm0 0"/><path d="m164.691406 313.675781h-13.859375v29.539063h13.859375c7.839844 0 12.601563-4.480469 12.601563-14v-1.539063c0-9.519531-4.761719-14-12.601563-14zm0 0"/><path d="m323.503906 268.960938h-323.503906v153.023437h323.503906zm-212.710937 95.816406c0 24.078125-15.261719 33.039062-33.601563 33.039062-20.019531 0-35.140625-10.640625-35.140625-29.261718 0-8.398438 3.5-10.359376 11.0625-10.359376 5.597657 0 10.359375 1.402344 10.777344 6.582032.421875 5.457031 1.121094 14 12.320313 14 8.121093 0 12.742187-4.480469 12.742187-14v-51.101563h-12.179687c-4.199219 0-6.582032-4.480469-6.582032-9.660156 0-4.480469 1.960938-9.382813 6.582032-9.382813h24.5c4.757812 0 9.519531 2.242188 9.519531 6.722657zm88.339843-37.242188c0 23.523438-15.121093 32.480469-34.441406 32.480469h-13.859375v30.242187c0 4.480469-5.460937 6.71875-10.917969 6.71875-5.460937 0-10.921874-2.238281-10.921874-6.71875v-89.042968c0-3.5 3.21875-6.578125 8.121093-6.578125h28.980469c18.480469 0 33.039062 8.679687 33.039062 32.199219zm46.199219 51.242188c7.839844 0 12.601563-4.480469 12.601563-14v-4.761719h-8.261719c-4.199219 0-6.578125-4.058594-6.578125-8.398437 0-4.058594 2.378906-8.402344 6.578125-8.402344h23.519531c4.203125 0 6.582032 3.222656 6.582032 6.859375v14.703125c0 24.078125-15.121094 33.039062-34.441407 33.039062-19.320312 0-34.300781-8.960937-34.300781-33.039062v-37.101563c0-24.078125 15.261719-33.042969 33.601562-33.042969 20.019532 0 35.140626 10.082032 35.140626 27.863282 0 8.398437-3.5 10.359375-10.921876 10.359375-5.878906 0-10.777343-1.539063-10.917968-6.582031-.140625-5.039063-.5625-12.597657-12.460938-12.597657-7.980468 0-12.601562 4.476563-12.601562 14v37.101563c0 9.519531 4.621094 14 12.460937 14zm0 0"/></svg>