<svg height="512pt" viewBox="0 0 512.00041 512" width="512pt" xmlns="http://www.w3.org/2000/svg"><path d="m508.472656 195.578125c-2.851562-3.382813-7.050781-5.335937-11.472656-5.335937h-47.886719c1.339844 3.761718 2.203125 7.753906 2.488281 11.90625l17.472657 253.804687 42.707031-248.167969c.753906-4.359375-.460938-8.824218-3.308594-12.207031zm0 0"/><path d="m426.792969 511.984375h-391.710938c-7.882812 0-14.421875-6.105469-14.960937-13.96875l-20.0859378-291.742187c-.1328124-1.953126.1171878-3.917969.7343748-5.773438l19.0625-57.183594c2.042969-6.125 7.773438-10.257812 14.230469-10.257812h146.882812c5.609376 0 10.753907 3.132812 13.328126 8.117187l25.351562 49.066407h187.085938c7.882812 0 14.421874 6.101562 14.964843 13.96875l20.082031 291.742187c.285157 4.144531-1.164062 8.226563-4 11.265625-2.835937 3.039062-6.808593 4.765625-10.964843 4.765625zm0 0"/><path d="m312.796875 76.546875c-5.859375-5.855469-15.355469-5.855469-21.214844 0l-20.582031 20.585937v-82.132812c0-8.285156-6.714844-15-15-15s-15 6.714844-15 15v82.132812l-20.585938-20.585937c-5.855468-5.855469-15.351562-5.855469-21.210937 0-5.859375 5.859375-5.859375 15.355469 0 21.214844l46.191406 46.1875c2.925781 2.929687 6.765625 4.394531 10.605469 4.394531 3.835938 0 7.675781-1.464844 10.605469-4.394531l46.1875-46.1875c5.859375-5.859375 5.859375-15.355469.003906-21.214844zm0 0"/></svg>