<svg height="511pt" viewBox="1 -11 511.999 511" width="511pt" xmlns="http://www.w3.org/2000/svg"><path d="m247.832031 57.445312-25.230469-48.832031c-2.574218-4.984375-7.714843-8.113281-13.324218-8.113281h-171.960938c-6.457031 0-12.1875 4.128906-14.230468 10.257812l-15.789063 47.359376c2.503906-.433594 5.074219-.671876 7.703125-.671876zm0 0"/><path d="m43.929688 219.914062c0 72.183594 58.515624 130.703126 130.703124 130.703126s130.703126-58.519532 130.703126-130.703126c0-72.1875-58.515626-130.707031-130.703126-130.707031s-130.703124 58.519531-130.703124 130.707031zm0 0"/><path d="m306.238281 312.03125c-11.613281 16.539062-26.257812 30.796875-43.125 41.964844l125.941407 125.941406c5.875 5.875 13.574218 8.8125 21.273437 8.8125s15.398437-2.9375 21.273437-8.8125c11.746094-11.746094 11.746094-30.796875 0-42.542969zm0 0"/><path d="m174.632812 380.617188c-88.613281 0-160.703124-72.089844-160.703124-160.703126 0-54.910156 27.6875-103.46875 69.828124-132.46875h-68.757812c-8.285156 0-15 6.714844-15 15v321.550782c0 8.285156 6.714844 15 15 15h290.6875l-70.3125-70.3125c-18.75 7.683594-39.257812 11.933594-60.742188 11.933594zm0 0"/><path d="m497 87.445312h-231.492188c42.140626 29 69.828126 77.558594 69.828126 132.46875 0 23.132813-4.921876 45.136719-13.761719 65.03125l131.238281 131.234376c6.644531 6.648437 11.402344 14.476562 14.277344 22.816406h29.910156c8.28125 0 15-6.714844 15-15v-321.550782c0-8.285156-6.714844-15-15-15zm0 0"/></svg>