<svg height="512pt" viewBox="-48 0 512 512" width="512pt" xmlns="http://www.w3.org/2000/svg"><path d="m273.988281 156.007812c-8.285156 0-15.003906-6.714843-15.003906-15v-141.007812h-243.984375c-8.285156 0-15 6.714844-15 15v223.960938h338.503906c8.285156 0 15 6.71875 15 15v183.023437c0 8.285156-6.714844 15-15 15h-338.503906v45.015625c0 8.285156 6.714844 15 15 15h385.007812c8.285157 0 15-6.714844 15-15v-340.992188zm0 0"/><path d="m410.613281 124.40625-120.019531-120.011719c-.503906-.503906-1.046875-.953125-1.605469-1.371093v122.984374h122.992188c-.417969-.558593-.867188-1.101562-1.367188-1.601562zm0 0"/><path d="m0 421.984375h323.503906v-153.023437h-323.503906zm209.691406-100.207031c0-21 18.34375-28.980469 35.84375-28.980469 7.417969 0 27.859375 1.398437 27.859375 12.320313 0 3.777343-2.519531 11.476562-8.679687 11.476562-5.042969 0-7.703125-5.316406-19.183594-5.316406-9.9375 0-14 4.058594-14 8.398437 0 14 44.382812 11.339844 44.382812 46.621094 0 20.160156-14.699218 31.078125-35 31.078125-18.339843 0-33.742187-8.960938-33.742187-18.199219 0-4.761719 4.199219-11.761719 9.519531-11.761719 6.582032 0 10.78125 10.363282 23.800782 10.363282 6.441406 0 13.582031-2.523438 13.582031-9.242188 0-16.9375-44.382813-14-44.382813-46.757812zm-78.117187 0c0-21 18.339843-28.980469 35.839843-28.980469 7.421876 0 27.859376 1.398437 27.859376 12.320313 0 3.777343-2.519532 11.476562-8.679688 11.476562-5.039062 0-7.699219-5.316406-19.179688-5.316406-9.941406 0-14 4.058594-14 8.398437 0 14 44.378907 11.339844 44.378907 46.621094 0 20.160156-14.699219 31.078125-35 31.078125-18.339844 0-33.742188-8.960938-33.742188-18.199219 0-4.761719 4.203125-11.761719 9.523438-11.761719 6.578125 0 10.777343 10.363282 23.800781 10.363282 6.4375 0 13.578125-2.523438 13.578125-9.242188 0-16.9375-44.378906-14-44.378906-46.757812zm-80.921875 4.898437c0-24.078125 15.261718-33.042969 33.601562-33.042969 20.019532 0 35.140625 10.082032 35.140625 27.863282 0 8.398437-3.5 10.359375-10.921875 10.359375-5.878906 0-10.640625-1.542969-10.917968-6.582031-.140626-3.640626-.5625-12.597657-12.460938-12.597657-7.980469 0-12.601562 4.476563-12.601562 14v37.101563c0 9.519531 4.621093 14 12.742187 14 11.199219 0 11.898437-8.542969 12.316406-14 .421875-5.183594 5.179688-6.582032 10.78125-6.582032 7.558594 0 11.058594 1.960938 11.058594 10.359376 0 18.621093-15.121094 29.261718-35.140625 29.261718-18.339844 0-33.601562-8.960937-33.601562-33.039062v-37.101563zm0 0"/></svg>