<svg height="512pt" viewBox="-66 0 512 512" width="512pt" xmlns="http://www.w3.org/2000/svg"><path d="m374.851562 114.226562-109.828124-109.832031c-.503907-.503906-1.046876-.949219-1.609376-1.371093v112.808593h112.808594c-.417968-.5625-.867187-1.105469-1.371094-1.605469zm0 0"/><path d="m248.414062 145.832031c-8.285156 0-15-6.714843-15-15v-130.832031h-218.414062c-8.285156 0-15 6.714844-15 15v482c0 8.285156 6.714844 15 15 15h349.246094c8.285156 0 15-6.714844 15-15v-351.167969zm9.207032 154.648438c-2.929688 2.925781-6.769532 4.390625-10.609375 4.390625-3.835938 0-7.675781-1.464844-10.605469-4.390625l-31.78125-31.785157v110.828126c0 8.28125-6.71875 15-15 15-8.285156 0-15.003906-6.71875-15.003906-15v-110.828126l-31.78125 31.78125c-5.855469 5.859376-15.355469 5.859376-21.214844 0-5.855469-5.855468-5.855469-15.355468 0-21.210937l57.390625-57.390625c2.8125-2.8125 6.628906-4.394531 10.605469-4.394531 3.980468 0 7.796875 1.582031 10.605468 4.394531l57.390626 57.390625c5.859374 5.855469 5.859374 15.355469.003906 21.214844zm0 0"/></svg>