<svg height="512pt" viewBox="0 0 511 512" width="512pt" xmlns="http://www.w3.org/2000/svg"><path d="m296.5 0h-.199219v102.058594c0 8.285156 6.714844 15 15 15h105.195313zm0 0"/><path d="m266.296875 0h-154.796875c-8.285156 0-15 6.714844-15 15v102.058594h169.796875zm0 0"/><path d="m497.261719 147.058594h-481.761719c-8.285156 0-15 6.71875-15 15v231.925781c0 8.28125 6.714844 15 15 15h51v-83.542969h-3.5c-8.285156 0-15-6.714844-15-15 0-8.28125 6.714844-15 15-15h386.996094c8.285156 0 15 6.71875 15 15 0 8.285156-6.714844 15-15 15h-3.5v83.542969h50.765625c8.285156 0 15-6.71875 15-15v-231.925781c0-8.285156-6.714844-15-15-15zm-50.265625 90h-28.5c-8.28125 0-15-6.714844-15-15 0-8.28125 6.71875-15 15-15h28.5c8.285156 0 15 6.71875 15 15 0 8.285156-6.714844 15-15 15zm0 0"/><path d="m96.5 497c0 8.285156 6.714844 15 15 15h289.996094c8.285156 0 15-6.714844 15-15v-171.558594h-319.996094zm244.996094-32.003906h-84.957032c-8.28125 0-15-6.714844-15-15 0-8.28125 6.71875-15 15-15h84.957032c8.285156 0 15 6.71875 15 15 0 8.285156-6.714844 15-15 15zm-169.914063-90h169.914063c8.285156 0 15 6.71875 15 15 0 8.285156-6.714844 15-15 15h-169.914063c-8.285156 0-15-6.714844-15-15 0-8.28125 6.714844-15 15-15zm0 0"/></svg>