<svg height="512pt" viewBox="0 0 512 512" width="512pt" xmlns="http://www.w3.org/2000/svg"><path d="m247.832031 130.449219-25.226562-48.832031c-2.578125-4.980469-7.71875-8.113282-13.328125-8.113282h-171.960938c-6.457031 0-12.1875 4.132813-14.230468 10.257813l-15.789063 47.359375c2.503906-.433594 5.074219-.671875 7.703125-.671875zm0 0"/><path d="m355.371094 55c0-13.785156 11.214844-25 25-25h20.960937c13.785157 0 25 11.214844 25 25v28.535156h30v-28.535156c0-30.328125-24.675781-55-55-55h-20.960937c-30.324219 0-55 24.671875-55 55v28.535156h30zm0 0"/><path d="m322.703125 298.433594h134.296875c13.785156 0 25-11.214844 25-25v-134.898438c0-13.78125-11.214844-25-25-25h-134.296875c-13.785156 0-25 11.21875-25 25v134.902344c0 13.78125 11.214844 24.996094 25 24.996094zm67.148437-127.714844c13.785157 0 25 11.214844 25 25 0 8.160156-3.933593 15.417969-10 19.984375v11.550781c0 8.285156-6.714843 15-15 15-8.285156 0-15-6.714844-15-15v-11.550781c-6.070312-4.566406-10-11.824219-10-19.984375 0-13.785156 11.214844-25 25-25zm0 0"/><path d="m457 328.433594h-134.296875c-30.328125 0-55-24.671875-55-55v-112.984375h-252.703125c-8.285156 0-15 6.714843-15 15v321.550781c0 8.285156 6.714844 15 15 15h482c8.285156 0 15-6.714844 15-15v-223.566406c0 30.328125-24.671875 55-55 55zm0 0"/></svg>