<svg height="512pt" viewBox="0 -41 512 512" width="512pt" xmlns="http://www.w3.org/2000/svg"><path d="m378.316406 343.140625v76.078125c0 8.394531 9.71875 13.050781 16.265625 7.792969l26.046875-20.929688 26.046875 20.929688c6.542969 5.257812 16.261719.601562 16.261719-7.792969v-76.078125c-12.820312 6.144531-27.167969 9.589844-42.308594 9.589844s-29.492187-3.449219-42.3125-9.589844zm0 0"/><path d="m488.859375 254.5c0 37.679688-30.550781 68.230469-68.230469 68.230469-37.683594 0-68.230468-30.550781-68.230468-68.230469 0-37.683594 30.546874-68.230469 68.230468-68.230469 37.679688 0 68.230469 30.546875 68.230469 68.230469zm0 0"/><path d="m497 0h-482c-8.285156 0-15 6.714844-15 15v340c0 8.285156 6.714844 15 15 15h333.316406v-49.089844c-.277344-.300781-.542968-.605468-.816406-.910156h-245.5c-8.285156 0-15-6.714844-15-15 0-12.132812-9.867188-22-22-22-8.285156 0-15-6.714844-15-15v-166c0-8.285156 6.714844-15 15-15 12.132812 0 22-9.867188 22-22 0-8.285156 6.714844-15 15-15h308c8.285156 0 15 6.714844 15 15 0 12.132812 9.867188 22 22 22 8.285156 0 15 6.714844 15 15v63.421875c22.710938 10.589844 40.730469 29.609375 50 53.015625v-203.4375c0-8.285156-6.714844-15-15-15zm0 0"/><path d="m492.941406 370h4.058594c8.285156 0 15-6.714844 15-15v-64.445312c-4.472656 11.289062-10.976562 21.558593-19.058594 30.355468zm0 0"/><path d="m420.628906 156.269531c3.84375 0 7.640625.230469 11.371094.664063v-42.136719c-16.632812-5.019531-29.773438-18.164063-34.796875-34.796875h-282.40625c-5.023437 16.632812-18.164063 29.773438-34.796875 34.796875v140.40625c16.632812 5.023437 29.773438 18.164063 34.796875 34.796875h214.246094c-4.285157-11.015625-6.644531-22.988281-6.644531-35.5 0-54.164062 44.066406-98.230469 98.230468-98.230469zm-143.394531 73.464844h-132.234375c-8.285156 0-15-6.714844-15-15s6.714844-15 15-15h132.234375c8.285156 0 15 6.714844 15 15s-6.714844 15-15 15zm15.964844-60.6875h-148.199219c-8.285156 0-15-6.71875-15-15 0-8.285156 6.714844-15 15-15h148.199219c8.285156 0 15 6.714844 15 15 0 8.28125-6.714844 15-15 15zm0 0"/></svg>