<svg height="512pt" viewBox="0 0 512 512.0003" width="512pt" xmlns="http://www.w3.org/2000/svg"><path d="m223.195312 361.046875-204.476562 150.953125h473.5l-203.429688-150.949219c-19.621093-14.574219-45.980468-14.574219-65.59375-.003906zm0 0"/><path d="m0 282.917969v205.613281l184.953125-136.542969zm0 0"/><path d="m511.988281 489.3125v-206.398438l-185.03125 69.101563zm0 0"/><path d="m69.367188 187.75-62.105469 37.402344c-4.503907 2.714844-7.261719 7.589844-7.261719 12.851562v12.890625l69.367188 25.90625zm0 0"/><path d="m504.863281 225.234375-56.25-34.6875v84.011719l63.375-23.667969v-12.886719c0-5.207031-2.695312-10.039062-7.125-12.769531zm0 0"/><path d="m255.988281 320.199219c14.703125 0 28.847657 3.714843 41.476563 10.804687l121.148437-45.242187v-246.75c0-39.511719 33.847657-39.011719 33.847657-39.011719h-323.09375c-16.566407 0-30 13.429688-30 30v258.003906l115.140624 43c12.617188-7.085937 26.769532-10.804687 41.480469-10.804687zm-99.621093-207.871094h72.378906c8.285156 0 15 6.714844 15 15 0 8.28125-6.714844 15-15 15h-72.378906c-8.28125 0-15-6.71875-15-15 0-8.285156 6.71875-15 15-15zm0 60h199.246093c8.28125 0 15 6.714844 15 15 0 8.28125-6.71875 15-15 15h-199.246093c-8.28125 0-15-6.71875-15-15 0-8.285156 6.71875-15 15-15zm-15 75c0-8.285156 6.71875-15 15-15h199.246093c8.28125 0 15 6.714844 15 15 0 8.28125-6.71875 15-15 15h-199.246093c-8.28125 0-15-6.71875-15-15zm0 0"/><path d="m448.472656 49.011719v50.820312h15c8.285156 0 15-6.714843 15-15v-55.832031c0-3.140625-.503906-6.15625-1.425781-8.988281-15.820313.234375-28.574219 13.125-28.574219 29zm0 0"/></svg>