<svg height="512pt" viewBox="-66 0 512 512" width="512pt" xmlns="http://www.w3.org/2000/svg"><path d="m374.851562 114.226562-109.828124-109.832031c-.503907-.503906-1.046876-.949219-1.609376-1.371093v112.808593h112.808594c-.417968-.5625-.867187-1.105469-1.371094-1.605469zm0 0"/><path d="m248.414062 145.832031c-8.285156 0-15-6.714843-15-15v-130.832031h-218.414062c-8.285156 0-15 6.714844-15 15v482c0 8.285156 6.714844 15 15 15h349.246094c8.285156 0 15-6.714844 15-15v-351.167969zm-116.5 220.246094c5.859376 5.855469 5.859376 15.355469 0 21.214844-2.929687 2.925781-6.769531 4.390625-10.605468 4.390625-3.839844 0-7.679688-1.464844-10.609375-4.390625l-46.304688-46.308594c-5.859375-5.855469-5.859375-15.355469 0-21.214844l46.304688-46.304687c5.859375-5.859375 15.355469-5.859375 21.214843 0 5.859376 5.855468 5.859376 15.355468 0 21.210937l-35.699218 35.699219zm93.640626-118.285156-42.742188 172.390625c-1.695312 6.828125-7.816406 11.394531-14.550781 11.394531-1.195313 0-2.40625-.148437-3.621094-.445313-8.039063-1.996093-12.941406-10.128906-10.949219-18.171874l42.746094-172.386719c1.992188-8.039063 10.121094-12.9375 18.167969-10.949219 8.039062 1.992188 12.941406 10.128906 10.949219 18.167969zm90.101562 93.191406-46.308594 46.308594c-2.929687 2.925781-6.765625 4.390625-10.605468 4.390625-3.839844 0-7.679688-1.464844-10.609376-4.390625-5.855468-5.859375-5.855468-15.355469 0-21.214844l35.703126-35.699219-35.703126-35.703125c-5.855468-5.855469-5.855468-15.351562 0-21.210937 5.859376-5.855469 15.355469-5.855469 21.214844 0l46.308594 46.308594c5.855469 5.855468 5.855469 15.355468 0 21.210937zm0 0"/></svg>