<svg height="512pt" viewBox="-36 0 512 512" width="512pt" xmlns="http://www.w3.org/2000/svg"><path d="m163.65625 89.992188h164.589844v71.757812h-164.589844zm0 0"/><path d="m394.394531 0h-340.394531c-8.285156 0-15 6.714844-15 15v44.75h-24c-8.285156 0-15 6.71875-15 15 0 8.285156 6.714844 15 15 15h24v42h-24c-8.285156 0-15 6.71875-15 15 0 8.285156 6.714844 15 15 15h24v42.003906h-24c-8.285156 0-15 6.714844-15 15 0 8.28125 6.714844 15 15 15h24v42h-24c-8.285156 0-15 6.714844-15 15 0 8.28125 6.714844 15 15 15h24v42h-24c-8.285156 0-15 6.714844-15 15s6.714844 15 15 15h24v42h-24c-8.285156 0-15 6.714844-15 15s6.714844 15 15 15h24v47.246094c0 8.285156 6.714844 15 15 15h340.394531c24.8125 0 45-20.1875 45-45v-422c0-24.8125-20.1875-45-45-45zm-329.394531 449.753906h-25v-30h25c8.285156 0 15 6.714844 15 15s-6.714844 15-15 15zm0-72h-25v-30h25c8.285156 0 15 6.714844 15 15s-6.714844 15-15 15zm0-72h-25v-30h25c8.285156 0 15 6.714844 15 15 0 8.28125-6.714844 15-15 15zm0-72h-25v-30h25c8.285156 0 15 6.714844 15 15 0 8.28125-6.714844 15-15 15zm0-72.003906h-25v-30h25c8.285156 0 15 6.71875 15 15 0 8.285156-6.714844 15-15 15zm0-72h-25v-30h25c8.285156 0 15 6.71875 15 15 0 8.285156-6.714844 15-15 15zm271.714844 246.003906h-182.609375c-8.28125 0-15-6.71875-15-15 0-8.285156 6.71875-15 15-15h182.605469c8.285156 0 15 6.714844 15 15 .003906 8.28125-6.714844 15-14.996094 15zm0-60h-182.609375c-8.28125 0-15-6.71875-15-15 0-8.285156 6.71875-15 15-15h182.605469c8.285156 0 15 6.714844 15 15 .003906 8.28125-6.714844 15-14.996094 15zm21.53125-99c0 8.28125-6.714844 15-15 15h-194.589844c-8.285156 0-15-6.71875-15-15v-101.761718c0-8.285157 6.714844-15 15-15h194.589844c8.285156 0 15 6.714843 15 15zm0 0"/></svg>