<svg height="512pt" viewBox="0 0 512 512" width="512pt" xmlns="http://www.w3.org/2000/svg"><path d="m507.613281 141.128906-136.605469-136.738281c-2.804687-2.8125-6.613281-4.390625-10.585937-4.390625s-7.78125 1.578125-10.589844 4.390625l-97.847656 97.9375 157.777344 157.9375 97.851562-97.941406c2.808594-2.8125 4.386719-6.625 4.386719-10.597657 0-3.976562-1.578125-7.789062-4.386719-10.597656zm-131.757812-47.726562c-2.925781 2.925781-6.757813 4.386718-10.589844 4.386718s-7.664063-1.460937-10.585937-4.386718c-5.847657-5.855469-5.847657-15.34375 0-21.199219l20.890624-20.867187 21.175782 21.195312zm64.003906 64.066406c-2.925781 2.925781-6.757813 4.390625-10.589844 4.386719-3.832031 0-7.664062-1.460938-10.585937-4.386719-5.847656-5.855469-5.847656-15.34375 0-21.199219l20.890625-20.867187 21.175781 21.195312zm0 0"/><path d="m394.328125 287.261719-169.816406-169.980469c-2.808594-2.8125-6.617188-4.390625-10.585938-4.390625-3.972656 0-7.78125 1.578125-10.589843 4.390625l-172.636719 172.808594c-19.796875 19.816406-30.699219 46.167968-30.699219 74.191406 0 28.027344 10.902344 54.371094 30.699219 74.191406l42.757812 42.796875c19.796875 19.816407 46.121094 30.730469 74.117188 30.730469 28 0 54.320312-10.914062 74.117187-30.730469l172.636719-172.808593c5.847656-5.855469 5.847656-15.34375 0-21.199219zm-117.503906-5.15625c0 8.277343-6.703125 14.988281-14.972657 14.988281-4.136718 0-7.878906-1.679688-10.589843-4.390625-1.910157-1.914063-3.289063-4.34375-3.949219-7.058594l-59.914062 59.972657 33.597656 8.765624 18.621094-18.644531c5.851562-5.851562 15.332031-5.851562 21.179687 0 5.847656 5.855469 5.847656 15.34375 0 21.199219l-24.691406 24.710938c-3.753907 3.761718-9.222657 5.246093-14.363281 3.90625l-58.894532-15.363282-21.824218 21.84375c2.65625 10 .082031 21.117188-7.738282 28.945313-11.679687 11.6875-30.679687 11.6875-42.355468 0-11.675782-11.6875-11.675782-30.707031 0-42.394531 7.824218-7.828126 18.925781-10.40625 28.917968-7.746094l4.980469-4.988282-10.398437-65.636718c-.75-4.738282.808593-9.554688 4.199218-12.945313l20.8125-20.832031c5.847656-5.851562 15.328125-5.851562 21.175782 0 5.847656 5.851562 5.847656 15.34375 0 21.199219l-15.414063 15.425781 5.796875 36.59375 75.136719-75.210938c-6.5625-1.59375-11.4375-7.496093-11.441407-14.550781 0-8.277343 6.707032-14.988281 14.976563-14.988281h32.179687c8.269532 0 14.972657 6.710938 14.972657 14.988281zm0 0"/></svg>