<svg height="512pt" viewBox="-48 0 512 512" width="512pt" xmlns="http://www.w3.org/2000/svg"><path d="m410.613281 124.40625-120.019531-120.011719c-.503906-.503906-1.046875-.953125-1.605469-1.371093v122.984374h122.992188c-.417969-.558593-.867188-1.101562-1.367188-1.601562zm0 0"/><path d="m273.988281 156.007812c-8.285156 0-15.003906-6.714843-15.003906-15v-141.007812h-243.984375c-8.285156 0-15 6.714844-15 15v223.960938h338.503906c8.285156 0 15 6.71875 15 15v183.023437c0 8.285156-6.714844 15-15 15h-338.503906v45.015625c0 8.285156 6.714844 15 15 15h385.007812c8.285157 0 15-6.714844 15-15v-340.992188zm0 0"/><path d="m83.472656 310.675781h-13.859375v29.539063h13.859375c7.839844 0 12.601563-4.480469 12.601563-14v-1.539063c0-9.519531-4.761719-14-12.601563-14zm0 0"/><path d="m243.351562 310.675781h-12.460937v64.261719h12.460937c7.839844 0 12.601563-4.480469 12.601563-14v-36.261719c0-9.519531-4.761719-14-12.601563-14zm0 0"/><path d="m323.503906 268.960938h-323.503906v153.023437h323.503906zm-205.589844 55.574218c0 23.519532-15.121093 32.480469-34.441406 32.480469h-13.859375v30.242187c0 4.480469-5.460937 6.71875-10.921875 6.71875-5.460937 0-10.917968-2.238281-10.917968-6.71875v-89.042968c0-3.5 3.21875-6.582032 8.117187-6.582032h28.980469c18.480468 0 33.042968 8.683594 33.042968 32.203126zm41.859376 70.839844c-18.339844 0-33.742188-8.957031-33.742188-18.199219 0-4.757812 4.199219-11.757812 9.519531-11.757812 6.582031 0 10.78125 10.359375 23.800781 10.359375 6.441407 0 13.582032-2.519532 13.582032-9.242188 0-16.9375-44.382813-14-44.382813-46.761718 0-21 18.34375-28.980469 35.84375-28.980469 7.417969 0 27.859375 1.402343 27.859375 12.320312 0 3.78125-2.519531 11.480469-8.679687 11.480469-5.039063 0-7.699219-5.320312-19.179688-5.320312-9.941406 0-14 4.0625-14 8.402343 0 14 44.378907 11.339844 44.378907 46.621094 0 20.160156-14.699219 31.078125-35 31.078125zm118.019531-34.4375c0 24.078125-15.121094 33.039062-34.441407 33.039062h-24.777343c-5.742188 0-9.523438-3.078124-9.523438-6.578124v-89.183594c0-3.5 3.78125-6.582032 9.523438-6.582032h24.777343c19.320313 0 34.441407 8.960938 34.441407 33.042969zm0 0"/></svg>