<svg height="511pt" viewBox="-66 1 511 511.999" width="511pt" xmlns="http://www.w3.org/2000/svg"><path d="m375.351562 114.226562-109.832031-109.832031c-.5-.503906-1.042969-.949219-1.605469-1.371093v112.808593h112.808594c-.421875-.5625-.867187-1.105469-1.371094-1.605469zm0 0"/><path d="m248.914062 145.832031c-8.285156 0-15-6.714843-15-15v-130.832031h-218.414062c-8.285156 0-15 6.714844-15 15v126.136719c0 7.613281 5.707031 14.023437 13.273438 14.898437l67.980468 7.867188c4.097656.476562 7.855469 2.648437 10.316406 5.957031l52.316407 70.441406c2.472656 3.328125 6.203125 5.480469 10.320312 5.957031l87.160157 10.089844c4.097656.472656 7.859374 2.644532 10.316406 5.953125l52.320312 70.445313c2.46875 3.324218 6.203125 5.480468 10.316406 5.957031l48.199219 5.578125c.574219.070312 1.148438.101562 1.722657.101562 3.660156 0 7.214843-1.339843 9.976562-3.800781 3.195312-2.84375 5.023438-6.921875 5.023438-11.199219v-183.550781zm0 0"/><path d="m366.46875 374.882812-67.988281-7.871093c-4.097657-.472657-7.855469-2.644531-10.316407-5.957031l-52.320312-70.441407c-2.46875-3.328125-6.203125-5.480469-10.316406-5.957031l-87.164063-10.089844c-4.097656-.472656-7.855469-2.644531-10.3125-5.953125l-52.320312-70.445312c-2.46875-3.324219-6.203125-5.480469-10.316407-5.957031l-48.1875-5.578126c-4.246093-.488281-8.507812.855469-11.703124 3.703126-3.195313 2.84375-5.019532 6.921874-5.019532 11.199218v295.464844c0 8.28125 6.714844 15 15 15h349.242188c8.285156 0 15-6.71875 15-15v-107.21875c0-7.613281-5.710938-14.023438-13.277344-14.898438zm0 0"/></svg>