<svg height="512pt" viewBox="0 0 512 512" width="512pt" xmlns="http://www.w3.org/2000/svg"><path d="m266.5 89.996094h30.121094v212.488281h-30.121094zm0 0"/><path d="m281.5625 422.480469c8.304688 0 15.058594-6.726563 15.058594-15 0-8.269531-6.753906-14.996094-15.058594-14.996094-8.308594 0-15.0625 6.726563-15.0625 14.996094 0 8.273437 6.757812 15 15.0625 15zm0 0"/><path d="m197.375 15v482c0 8.285156 6.714844 15 15 15h148.371094v-512h-148.371094c-8.285156 0-15 6.714844-15 15zm39.125 59.996094c0-8.285156 6.714844-15 15-15h60.121094c8.285156 0 15 6.714844 15 15v242.488281c0 8.285156-6.714844 15-15 15h-60.121094c-8.285156 0-15-6.714844-15-15zm45.0625 287.488281c24.84375 0 45.058594 20.183594 45.058594 44.996094s-20.214844 45-45.058594 45c-24.847656 0-45.0625-20.1875-45.0625-45s20.214844-44.996094 45.0625-44.996094zm0 0"/><path d="m496.496094 0h-105.75v512h105.75c8.285156 0 15-6.714844 15-15v-482c0-8.285156-6.714844-15-15-15zm-66.011719 89.753906h5.386719c8.285156 0 15 6.714844 15 15 0 8.28125-6.714844 15-15 15h-5.386719c-8.285156 0-15-6.71875-15-15 0-8.285156 6.714844-15 15-15zm8.585937 332.484375h-5.390624c-8.285157 0-15-6.714843-15-15 0-8.285156 6.714843-15 15-15h5.390624c8.28125 0 15 6.714844 15 15 0 8.285157-6.71875 15-15 15zm0 0"/><path d="m68.625 89.996094h30.125v212.488281h-30.125zm0 0"/><path d="m152.375 0h-137.375c-8.285156 0-15 6.714844-15 15v482c0 8.285156 6.714844 15 15 15h137.375c8.28125 0 15-6.714844 15-15v-482c0-8.285156-6.71875-15-15-15zm-68.6875 452.480469c-24.847656 0-45.0625-20.1875-45.0625-45s20.214844-44.996094 45.0625-44.996094 45.0625 20.183594 45.0625 44.996094-20.214844 45-45.0625 45zm45.0625-134.996094c0 8.285156-6.71875 15-15 15h-60.125c-8.285156 0-15-6.714844-15-15v-242.488281c0-8.285156 6.714844-15 15-15h60.125c8.28125 0 15 6.714844 15 15zm0 0"/><path d="m83.6875 392.484375c-8.304688 0-15.0625 6.726563-15.0625 14.996094 0 8.273437 6.757812 15 15.0625 15s15.0625-6.726563 15.0625-15c0-8.269531-6.757812-14.996094-15.0625-14.996094zm0 0"/></svg>