<svg height="512pt" viewBox="0 0 512 512" width="512pt" xmlns="http://www.w3.org/2000/svg"><path d="m390.660156 160.082031v-160.082031h-269.3125v160.082031h131.90625v-85.078125c0-8.285156 6.714844-15 15-15h60c8.285156 0 15 6.714844 15 15v85.078125zm0 0"/><path d="m283.253906 90.003906h30v70.078125h-30zm0 0"/><path d="m116.003906 512h280.003906v-248.421875h-280.003906zm51.429688-202.777344h177.144531c8.28125 0 15 6.71875 15 15 0 8.285156-6.71875 15-15 15h-177.144531c-8.285156 0-15-6.714844-15-15 0-8.28125 6.714844-15 15-15zm0 60h177.144531c8.28125 0 15 6.71875 15 15 0 8.285156-6.71875 15-15 15h-177.144531c-8.285156 0-15-6.714844-15-15 0-8.28125 6.714844-15 15-15zm0 0"/><path d="m507.605469 74.226562-69.832031-69.832031c-2.8125-2.816406-6.628907-4.394531-10.605469-4.394531h-6.507813v175.082031c0 8.28125-6.714844 15-15 15h-299.3125c-8.28125 0-15-6.71875-15-15v-175.082031h-76.347656c-8.285156 0-15 6.714844-15 15v482c0 8.285156 6.714844 15 15 15h71.003906v-263.421875c0-8.285156 6.714844-15 15-15h310c8.285156 0 15 6.714844 15 15v263.421875h70.992188c8.285156 0 15-6.714844 15-15v-412.167969c0-3.980469-1.578125-7.792969-4.390625-10.605469zm0 0"/></svg>