<svg height="512pt" viewBox="0 -90 512 512" width="512pt" xmlns="http://www.w3.org/2000/svg"><path d="m391.066406 87.734375c-13.164062-24.558594-32.285156-45.433594-55.761718-60.769531-27.007813-17.640625-58.398438-26.964844-90.785157-26.964844-80.511719 0-148.742187 57.386719-163.339843 135.320312-46.394532 8.601563-81.179688 49.371094-81.179688 97.714844 0 54.808594 44.589844 99.398438 99.398438 99.398438h290.246093c67.46875 0 122.355469-54.886719 122.355469-122.355469 0-66.992187-54.117188-121.582031-120.933594-122.34375zm-67.070312 154.414063-57.390625 57.390624c-2.929688 2.929688-6.765625 4.394532-10.605469 4.394532s-7.679688-1.464844-10.605469-4.394532l-57.390625-57.390624c-5.859375-5.859376-5.859375-15.355469 0-21.210938 5.855469-5.859375 15.355469-5.859375 21.214844 0l31.78125 31.78125v-110.824219c0-8.285156 6.714844-15 15-15s15 6.714844 15 15v110.824219l31.78125-31.78125c5.859375-5.859375 15.355469-5.859375 21.214844 0 5.859375 5.855469 5.859375 15.351562 0 21.210938zm0 0"/></svg>