<svg id="Layer_1" enable-background="new 0 0 512 512" height="512" viewBox="0 0 512 512" width="512" xmlns="http://www.w3.org/2000/svg"><g clip-rule="evenodd" fill-rule="evenodd"><g><g><path d="m219.23 52.497h246.443c16.049 0 29.179 13.131 29.179 29.179v155.642c0 16.048-13.132 29.179-29.179 29.179h-181.894l-26.577 40.487c-1.232 1.877-3.461 2.69-5.612 2.047-2.15-.643-3.568-2.546-3.568-4.79v-37.744h-28.792c-16.049 0-29.179-13.131-29.179-29.179v-155.642c0-16.049 13.13-29.179 29.179-29.179z" fill="#ffe177"/><path d="m476.099 54.436c10.939 4.219 18.753 14.861 18.753 27.24v155.642c0 16.048-13.132 29.179-29.179 29.179h-181.894l-26.577 40.487c-1.232 1.877-3.461 2.69-5.612 2.047-2.15-.643-3.568-2.546-3.568-4.79v-13.191l22.681-34.553h181.894c16.048 0 29.179-13.132 29.179-29.179v-155.642c.002-6.436-2.111-12.401-5.677-17.24zm-228.076 212.062v-10h-41.868c-3.669 0-7.184-.688-10.426-1.939 5.324 7.227 13.889 11.939 23.501 11.939z" fill="#ffd064"/></g><g><path d="m265.297 147.304v58.933c0 2.871 2.342 5.213 5.213 5.213h98.948c1.136 0 2.112-.313 3.035-.975l44.936-32.18c1.411-1.01 2.178-2.503 2.178-4.238v-58.933c0-2.871-2.342-5.213-5.213-5.213h-98.948c-1.136 0-2.112.313-3.035.975l-44.936 32.18c-1.411 1.01-2.178 2.502-2.178 4.238z" fill="#c48958"/><path d="m371.132 211.185c.473-.161.923-.396 1.361-.71l44.936-32.18c1.411-1.01 2.178-2.503 2.178-4.238v-58.933c0-1.565-.696-2.972-1.793-3.929l-46.681 33.43v66.56z" fill="#e3a76f"/><path d="m265.297 147.304v58.933c0 2.871 2.342 5.213 5.213 5.213h98.948c.597 0 1.15-.086 1.674-.265v-66.56h-105.115c-.472.785-.72 1.693-.72 2.679z" fill="#ecba78"/></g><g><path d="m29.075 459.503h179.202c3.803 0 7.076-1.604 9.405-4.61 2.329-3.005 3.068-6.574 2.12-10.257-11.591-45.038-52.471-78.318-101.126-78.318-48.656 0-89.536 33.281-101.127 78.319-.948 3.683-.21 7.251 2.121 10.257 2.329 3.005 5.602 4.609 9.405 4.609z" fill="#60b7ff"/><path d="m208.277 459.503c3.803 0 7.076-1.605 9.405-4.61 2.33-3.005 3.069-6.574 2.121-10.256-11.591-45.038-52.471-78.319-101.127-78.319-4.025 0-7.994.233-11.9.676 43.316 4.915 78.593 36.33 89.226 77.643.948 3.682.209 7.251-2.121 10.256s-5.603 4.61-9.405 4.61z" fill="#41a8fc"/><ellipse cx="118.677" cy="313.519" fill="#f6dccd" rx="52.796" ry="52.796" transform="matrix(.083 -.997 .997 .083 -203.563 405.932)"/><path d="m118.676 260.723c29.158 0 52.796 23.638 52.796 52.796s-23.638 52.796-52.796 52.796c-2.512 0-4.982-.179-7.401-.519 25.654-3.599 45.395-25.631 45.395-52.277s-19.742-48.678-45.395-52.277c2.42-.339 4.889-.519 7.401-.519z" fill="#f1cbbc"/></g></g><path d="m380.26 195.877v-47.139l32.477-23.257v47.144zm-105.81-43.252h89.807v50.825h-89.807zm43.02-34.713-26.123 18.715h78.369l26.123-18.715zm103.269-15.999h-105.81c-1.695 0-3.342.522-4.66 1.492l-48.481 34.718c-2.118 1.502-3.342 3.921-3.342 6.5v66.824c0 2.123.847 4.156 2.353 5.658 1.459 1.502 3.53 2.344 5.648 2.344h105.811c1.694 0 3.295-.522 4.66-1.497l48.481-34.713c2.071-1.501 3.342-3.925 3.342-6.505v-66.824c0-4.419-3.577-7.997-8.002-7.997zm67.262 135.403v-155.642c0-11.678-9.508-21.176-21.181-21.176h-246.452c-11.673 0-21.181 9.499-21.181 21.176v155.643c0 11.678 9.508 21.181 21.181 21.181h28.806c4.378 0 8.002 3.582 8.002 7.997v27.71l21.04-32.096c1.459-2.255 4.001-3.61 6.684-3.61h181.92c11.673-.002 21.181-9.505 21.181-21.183zm-21.181-192.822h-246.452c-20.522 0-37.184 16.681-37.184 37.18v155.643c0 20.503 16.662 37.18 37.184 37.18h20.804v46.471c0 3.54 2.307 6.651 5.695 7.672.753.217 1.506.329 2.306.329 2.636 0 5.178-1.309 6.684-3.61l33.372-50.862h177.591c20.475 0 37.184-16.677 37.184-37.18v-155.643c0-20.499-16.709-37.18-37.184-37.18zm-441.505 407.013c8.943-44.579 48.104-77.179 94.467-77.193h.047c46.363.014 85.524 32.614 94.467 77.193zm49.704-137.991c0-24.702 20.098-44.796 44.81-44.796 24.664 0 44.762 20.094 44.762 44.796 0 24.692-20.051 44.781-44.762 44.8-.047 0-.047 0-.047 0-24.712-.019-44.763-20.108-44.763-44.8zm79.17 50.123c41.373 13.207 72.533 49.686 77.381 95.008.236 2.259-.471 4.509-1.977 6.199-1.553 1.69-3.718 2.66-5.978 2.66h-207.62c-2.259 0-4.424-.97-5.978-2.66-1.506-1.68-2.212-3.939-1.977-6.189 4.848-45.332 36.008-81.81 77.428-95.018-15.956-10.972-26.453-29.342-26.453-50.123 0-33.523 27.253-60.799 60.813-60.799 33.513 0 60.766 27.276 60.766 60.799 0 20.781-10.496 39.151-26.405 50.123z"/></g></svg>