<svg id="flat" height="512" viewBox="0 0 340 340" width="512" xmlns="http://www.w3.org/2000/svg"><path d="m198.331 161.599-57.112-37.638 56.096-38.617 56.096 38.617z" fill="#ffe2ca"/><path d="m141.219 192.563 57.112 37.639v-68.603l-57.112-37.638z" fill="#f7ca9f"/><path d="m253.411 193.902-55.08 36.3v-68.603l55.08-37.638z" fill="#d69a67"/><path d="m155.133 185.578-21.178 16.6a73.8 73.8 0 1 0 15.256 22.777z" fill="#fff"/><path d="m81.078 332.059a78.055 78.055 0 1 1 53.164-135.189l18.423-14.44a4 4 0 0 1 6.423 3.743l-5.754 38.27a78.086 78.086 0 0 1 -72.256 107.616zm0-148.109a70.012 70.012 0 1 0 64.455 42.575 4 4 0 0 1 -.276-2.165l4.424-29.427-13.258 10.392a4 4 0 0 1 -5.324-.348 69.53 69.53 0 0 0 -50.021-21.027z" fill="#ffde76"/><path d="m31.662 63.24h134.371a8.084 8.084 0 0 1 8.084 8.084v27.066a0 0 0 0 1 0 0h-150.539a0 0 0 0 1 0 0v-27.066a8.084 8.084 0 0 1 8.084-8.084z" fill="#cae7ff" transform="matrix(.822 -.569 .569 .822 -28.426 70.65)"/><path d="m108.851 256.957a26.755 26.755 0 1 0 -40.157 23.158 3.348 3.348 0 0 1 1.657 2.9v6.122h23.49v-6.12a3.331 3.331 0 0 1 1.633-2.889 26.74 26.74 0 0 0 13.377-23.171z" fill="#ffde76"/><path d="m70.351 289.137h23.49v6.022a10.083 10.083 0 0 1 -10.083 10.083h-3.324a10.083 10.083 0 0 1 -10.083-10.083z" fill="#efac52"/><path d="m331.351 122.318a8.987 8.987 0 0 1 -12.516 2.215l-129.3-90.413a27.764 27.764 0 0 1 -8.233-9.046l-6.171-10.874a1.21 1.21 0 0 1 1.272-1.787l12.371 2.287a27.74 27.74 0 0 1 10.86 4.547l129.5 90.554a8.988 8.988 0 0 1 2.217 12.517z" fill="#ff8080"/><g fill="#494151"><path d="m198.331 174.4a4 4 0 0 0 -4 4v44.372l-25.231-16.625a4 4 0 1 0 -4.4 6.679l31.434 20.716c.03.019.062.032.092.051.116.072.235.139.357.2.055.027.111.051.168.076.111.047.223.09.337.127.062.021.124.041.186.058.119.033.239.058.36.08.056.01.111.023.168.03a4.017 4.017 0 0 0 .537.039h.071a3.97 3.97 0 0 0 .449-.032c.07-.009.14-.026.21-.039.1-.019.209-.04.313-.068.075-.02.149-.046.223-.071.1-.033.2-.07.295-.111.071-.03.141-.062.211-.1.039-.02.081-.034.121-.056.056-.03.107-.069.162-.1s.1-.049.142-.079l55.08-36.3a4 4 0 0 0 1.8-3.34v-69.956a4.065 4.065 0 0 0 -.071-.708c-.009-.049-.016-.1-.027-.147a4.006 4.006 0 0 0 -.2-.636c-.019-.048-.042-.094-.063-.141a4.011 4.011 0 0 0 -.3-.547c-.013-.02-.024-.041-.037-.061a3.953 3.953 0 0 0 -.43-.521c-.034-.036-.068-.07-.1-.1a3.994 3.994 0 0 0 -.5-.42l-56.1-38.617a4 4 0 0 0 -4.537 0l-56.1 38.617c-.017.012-.032.026-.05.039-.053.038-.1.08-.155.121-.084.067-.167.134-.245.206-.051.048-.1.1-.147.147-.071.074-.141.149-.206.227-.045.055-.088.111-.13.167-.06.081-.117.163-.171.248-.038.06-.074.12-.109.182-.049.088-.094.177-.137.268-.03.064-.059.127-.086.193-.038.095-.07.191-.1.289-.021.066-.043.13-.061.2-.027.105-.047.212-.066.319-.011.063-.025.124-.033.187-.016.125-.022.252-.026.379 0 .042-.008.083-.008.126v53.12a4 4 0 0 0 8 0v-45.701l50.91 33.552a4 4 0 0 0 .641.336c.066.028.133.051.2.075a3.9 3.9 0 0 0 .5.146c.065.014.129.032.194.043a4.084 4.084 0 0 0 .662.06h.025c.031 0 .062-.006.093-.006a4.1 4.1 0 0 0 .6-.065c.068-.013.133-.03.2-.046a3.88 3.88 0 0 0 .489-.15c.067-.025.133-.048.2-.077a4 4 0 0 0 .516-.275c.036-.023.075-.04.111-.065l.02-.011 48.823-33.363v60.209l-47.08 31.027v-44.377a4 4 0 0 0 -3.994-4zm-.04-17.621-45.234-29.811-4.678-3.083 48.936-33.685 49.024 33.748z"/><path d="m81.078 332.059a78.086 78.086 0 0 0 72.256-107.616l5.754-38.27a4 4 0 0 0 -6.423-3.743l-18.423 14.44a78.05 78.05 0 1 0 -53.164 135.189zm0-148.109a69.53 69.53 0 0 1 50.022 21.027 4 4 0 0 0 5.324.348l13.258-10.392-4.424 29.427a4 4 0 0 0 .276 2.165 70.064 70.064 0 1 1 -64.456-42.575z"/><path d="m174.022 50.135-15.409-22.252a12.1 12.1 0 0 0 -16.813-3.055l-110.47 76.499a12.083 12.083 0 0 0 -3.055 16.814l15.41 22.252a4 4 0 0 0 5.565 1.007l52.96-36.673 70.8-49.027a4 4 0 0 0 1.012-5.565zm-19.563 8.682-5.322-7.686a4 4 0 1 0 -6.576 4.554l5.322 7.686-11.261 7.8-3.046-4.4a4 4 0 1 0 -6.576 4.555l3.045 4.4-11.261 7.8-5.323-7.686a4 4 0 1 0 -6.576 4.554l5.322 7.686-11.262 7.8-3.046-4.4a4 4 0 1 0 -6.576 4.554l3.046 4.4-11.262 7.8-5.323-7.687a4 4 0 1 0 -6.576 4.555l5.323 7.686-11.262 7.8-3.045-4.4a4 4 0 0 0 -6.577 4.555l3.046 4.4-10.709 7.407-13.132-18.963a4.083 4.083 0 0 1 1.033-5.683l110.469-76.5a4.088 4.088 0 0 1 5.683 1.033l13.132 18.963z"/><path d="m66.351 283.376v11.783a14.1 14.1 0 0 0 14.083 14.082h3.324a14.1 14.1 0 0 0 14.083-14.082v-11.782a30.867 30.867 0 0 0 15.011-26.42 30.757 30.757 0 0 0 -31.194-30.752 30.755 30.755 0 0 0 -15.307 57.171zm23.49 11.783a6.089 6.089 0 0 1 -6.083 6.082h-3.324a6.089 6.089 0 0 1 -6.083-6.082v-2.022h15.49zm-8.071-60.959a22.757 22.757 0 0 1 23.082 22.753 22.843 22.843 0 0 1 -11.38 19.709 7.34 7.34 0 0 0 -3.631 6.351v2.12h-15.49v-2.122a7.37 7.37 0 0 0 -3.65-6.361 22.756 22.756 0 0 1 11.069-42.45z"/><path d="m334.629 124.611a12.988 12.988 0 0 0 -3.2-18.086l-129.5-90.556a31.569 31.569 0 0 0 -12.425-5.2l-14.928-2.761a4 4 0 0 0 -4.206 5.908l7.453 13.133a31.969 31.969 0 0 0 9.42 10.349l129.3 90.414a12.893 12.893 0 0 0 7.415 2.347 13.17 13.17 0 0 0 2.291-.2 12.907 12.907 0 0 0 8.38-5.348zm-6.557-4.585a4.987 4.987 0 0 1 -6.945 1.229l-129.3-90.413a23.942 23.942 0 0 1 -7.047-7.742l-3.214-5.664 6.481 1.2a23.612 23.612 0 0 1 9.3 3.892l129.5 90.555a4.987 4.987 0 0 1 1.228 6.945z"/><path d="m279.037 144.749a4 4 0 0 0 4-4v-6.986a4 4 0 1 0 -8 0v6.986a4 4 0 0 0 4 4z"/><path d="m275.037 162.969a4 4 0 0 0 8 0v-6.985a4 4 0 1 0 -8 0z"/><path d="m275.037 186.539a4 4 0 0 0 8 0v-6.986a4 4 0 0 0 -8 0z"/><path d="m275.037 208.76a4 4 0 0 0 8 0v-6.986a4 4 0 0 0 -8 0z"/><path d="m275.037 230.287a4 4 0 0 0 8 0v-6.987a4 4 0 0 0 -8 0z"/><path d="m275.037 252.508a4 4 0 1 0 8 0v-6.986a4 4 0 0 0 -8 0z"/><path d="m275.037 276.078a4 4 0 0 0 8 0v-6.986a4 4 0 0 0 -8 0z"/><path d="m316.229 186.28a3.98 3.98 0 0 0 2.216-.672l5.813-3.877a4 4 0 1 0 -4.44-6.655l-5.812 3.876a4 4 0 0 0 2.223 7.328z"/><path d="m297.743 198.61a3.983 3.983 0 0 0 2.216-.673l5.812-3.877a4 4 0 1 0 -4.439-6.655l-5.812 3.876a4 4 0 0 0 2.223 7.329z"/><path d="m253.316 225.236a4 4 0 0 0 5.548 1.108l5.813-3.877a4 4 0 0 0 -4.44-6.655l-5.812 3.877a4 4 0 0 0 -1.109 5.547z"/><path d="m242.327 227.757-5.812 3.876a4 4 0 1 0 4.439 6.656l5.813-3.877a4 4 0 1 0 -4.44-6.655z"/><path d="m223.841 240.086-5.812 3.877a4 4 0 1 0 4.44 6.655l5.811-3.877a4 4 0 1 0 -4.439-6.655z"/><path d="m204.232 253.164-5.812 3.877a4 4 0 1 0 4.439 6.655l5.813-3.877a4 4 0 0 0 -4.44-6.655z"/><path d="m40.5 251.758a4 4 0 0 0 -4-4h-6.881a4 4 0 0 0 0 8h6.881a4 4 0 0 0 4-4z"/><path d="m49.04 225.148a4 4 0 1 0 5.66-5.658l-4.866-4.866a4 4 0 1 0 -5.656 5.657z"/><path d="m82.1 215.851a4 4 0 0 0 4-4v-6.882a4 4 0 0 0 -8 0v6.882a4 4 0 0 0 4 4z"/><path d="m112.324 226.319a3.988 3.988 0 0 0 2.828-1.171l4.867-4.867a4 4 0 1 0 -5.657-5.657l-4.862 4.866a4 4 0 0 0 2.828 6.829z"/><path d="m127.806 255.758h6.882a4 4 0 0 0 0-8h-6.882a4 4 0 0 0 0 8z"/></g></svg>