<svg id="Layer_5" enable-background="new 0 0 64 64" height="512" viewBox="0 0 64 64" width="512" xmlns="http://www.w3.org/2000/svg"><g><g><g><path d="m2 48h60v10h-60z" fill="#cf9e76"/></g><g><path d="m19 46v6h-8c-2.42 0-4.44-1.72-4.9-4-.07-.32-.1-.66-.1-1v-4.64c0-4.16 3.19-7.63 7.34-7.97l2.73-.23 3.57 8.57 1.36 3.27z" fill="#b4dd7f"/></g><g><path d="m44 28v1c0 3.61-1.73 6.81-4.42 8.82-1.83 1.37-4.11 2.18-6.58 2.18h-1v8h-7.54c-.39-.68-.98-1.24-1.69-1.58v-.01l1.57-3.72 3.67-8.69h4.99c2.76 0 5-2.24 5-5v-3h4c0 1.1.9 2 2 2z" fill="#b4dd7f"/></g><g><path d="m22 38 2.34 4.69-1.57 3.72v.01c-.54-.27-1.14-.42-1.77-.42l-1.36-3.27z" fill="#e6e9ed"/></g><g><path d="m26 34h2.01l-3.67 8.69-2.34-4.69z" fill="#ccd1d9"/></g><g><path d="m18 34 4 4-2.36 4.73-3.57-8.57z" fill="#ccd1d9"/></g><g><path d="m2 58h60v4h-60z" fill="#d3a06c"/></g><g><path d="m60 44-4 4-4.59 4.59c-.9.9-2.13 1.41-3.41 1.41l4-10z" fill="#4fc1e9"/></g><g><path d="m56 38-4 6-4-6z" fill="#4fc1e9"/></g><g><path d="m44 44 4 10c-1.28 0-2.51-.51-3.41-1.41l-4.59-4.59-4-4z" fill="#4fc1e9"/></g><g><path d="m48 38-4 6-4-6z" fill="#4fc1e9"/></g><g><path d="m56 38 4 6h-8z" fill="#69d6f4"/></g><g><path d="m52 44-4 10-4-10z" fill="#69d6f4"/></g><g><path d="m48 38 4 6h-8z" fill="#69d6f4"/></g><g><path d="m40 38 4 6h-8l3.95-5.93z" fill="#69d6f4"/></g><g><path d="m32 25c0-1.66-1.34-3-3-3h-1v-2c2.21 0 4-1.79 4-4z" fill="#b27946"/></g><g><path d="m32 16c0 2.21-1.79 4-4 4h-6c-.55 0-1.05-.22-1.41-.59-.37-.36-.59-.86-.59-1.41l-.97.24c-1.74.44-2.97 1.98-3.03 3.76h-1c-.8 0-1.53.32-2.06.82l-.59-1.76c-.23-.7-.35-1.44-.35-2.18 0-3.8 3.08-6.88 6.88-6.88h12.12c.55 0 1 .45 1 1z" fill="#b27946"/></g><g><path d="m16 26c0 .7.12 1.37.34 2h-1.34c-.83 0-1.58-.34-2.12-.88s-.88-1.29-.88-2.12c0-.86.36-1.63.94-2.18.53-.5 1.26-.82 2.06-.82h1v.12z" fill="#f0d0b4"/></g><g><path d="m29 22c1.66 0 3 1.34 3 3 0 .83-.34 1.58-.88 2.12s-1.29.88-2.12.88h-1.34c.22-.63.34-1.3.34-2v-4z" fill="#f0d0b4"/></g><g><path d="m28 22v4c0 .7-.12 1.37-.34 2-.47 1.32-1.39 2.44-2.58 3.15-.9.54-1.95.85-3.08.85-.07 0-.13 0-3.08-.85-.43-.26-.81-.56-1.16-.91-.63-.63-1.12-1.39-1.42-2.24-.22-.63-.34-1.3-.34-2v-3.88c0-.04 0-.08 0-.12.06-1.78 1.29-3.32 3.03-3.76l.97-.24c0 .55.22 1.05.59 1.41.36.37.86.59 1.41.59h6z" fill="#f0d0b4"/></g><g><path d="m18.92 31.15c2.95.85 3.01.85 3.08.85 1.13 0 2.18-.31 3.08-.85l.92 2.85-4 4-4-4z" fill="#f0d0b4"/></g><g><path d="m21 46c.63 0 1.23.15 1.77.42.71.34 1.3.9 1.69 1.58.34.59.54 1.27.54 2v2h-6v-6z" fill="#f0d0b4"/></g><g><path d="m42 20.17v5.83h-4v-3c0-.83.34-1.58.88-2.12s1.29-.88 2.12-.88c.35 0 .69.06 1 .17z" fill="#f0d0b4"/></g><g><path d="m45.41 27.41c-.36.37-.86.59-1.41.59-1.1 0-2-.9-2-2v-5.83-4.46c.63.19 1.3.29 2 .29s1.37-.1 2-.29v10.29c0 .55-.22 1.05-.59 1.41z" fill="#969faa"/></g><g><path d="m44 2c3.87 0 7 3.13 7 7 0 3.18-2.11 5.85-5 6.71-.63.19-1.3.29-2 .29s-1.37-.1-2-.29c-2.89-.86-5-3.53-5-6.71 0-3.87 3.13-7 7-7z" fill="#e6e9ed"/></g><g><circle cx="44" cy="9" fill="#69d6f4" r="3"/></g></g><g><path d="m58.414 47 2.873-2.873-4.752-7.127h-14.616c1.909-2.126 3.081-4.925 3.081-8v-.184c1.161-.414 2-1.514 2-2.816v-9.589c2.928-1.19 5-4.061 5-7.411 0-4.411-3.589-8-8-8s-8 3.589-8 8c0 3.35 2.072 6.221 5 7.411v2.589c-2.206 0-4 1.794-4 4v6c0 2.206-1.794 4-4 4h-6.271l-.469-1.458c.871-.671 1.577-1.54 2.055-2.542h.685c2.206 0 4-1.794 4-4v-9-3c0-1.103-.897-2-2-2h-12.117c-4.347 0-7.883 3.536-7.883 7.883 0 .85.137 1.689.404 2.493l.41 1.232c-.504.668-.814 1.491-.814 2.392 0 2.206 1.794 4 4 4h.685c.478 1.001 1.184 1.871 2.055 2.542l-.488 1.517-3.999.333c-4.628.386-8.253 4.325-8.253 8.969v4.639h-4v16h62v-16zm-16.282-4h-4.263l2.131-3.197zm8.391 2-2.523 6.307-2.523-6.307zm-4.655-2 2.132-3.197 2.132 3.197zm10.132-3.197 2.131 3.197h-4.263zm-4 2.394-2.132-3.197h4.263zm-8 0-2.132-3.197h4.263zm-9.287 1.93 2.873 2.873h-4.586v-6c1.536 0 3-.301 4.35-.829zm3.701.873h4.908l3.047 7.618c-.395-.187-.765-.428-1.077-.739zm14.263 0h4.908l-6.878 6.879c-.312.311-.682.553-1.077.739zm-14.677-36c0-3.309 2.691-6 6-6s6 2.691 6 6-2.691 6-6 6-6-2.691-6-6zm6 8c.339 0 .672-.028 1-.069v9.069c0 .551-.448 1-1 1s-1-.449-1-1v-9.069c.328.041.661.069 1 .069zm-3 4v4h-2v-2c0-1.103.897-2 2-2zm-2 8v-2h2.184c.302.847.969 1.514 1.816 1.816v.184c0 5.514-4.486 10-10 10h-2v8h-6.026c-.275-.363-.597-.685-.959-.962l4.663-11.038h4.322c3.309 0 6-2.691 6-6zm-21.379 6.035 3.162 3.162-1.065 2.129-2.201-5.282zm8.793-.035h.093l-2.239 5.3-1.052-2.103zm-4.718 10.07-.961-2.305 1.265-2.529 1.244 2.488-1.031 2.442c-.169-.043-.342-.071-.517-.096zm-.696 1.93c1.654 0 3 1.346 3 3v1h-4v-4zm8-26.101c.743-.152 1.416-.482 2-.924v1.582c-.591-.345-1.268-.557-2-.557zm0 6.101h-.08c.047-.328.08-.66.08-1v-3c1.103 0 2 .897 2 2s-.897 2-2 2zm-14 0c-1.103 0-2-.897-2-2s.897-2 2-2v3c0 .34.033.672.08 1zm.143-6h-.143c-.535 0-1.045.11-1.512.301l-.186-.559c-.2-.6-.302-1.226-.302-1.86 0-3.243 2.639-5.882 5.883-5.882h12.117v3c0 1.654-1.346 3-3 3h-6c-.552 0-1-.449-1-1s.448-1 1-1h1v-2h-1c-1.371 0-2.517.93-2.874 2.188l-.338.085c-1.855.463-3.23 1.926-3.645 3.727zm1.857 5v-3.877c0-1.376.93-2.569 2.263-2.907.468 1.049 1.516 1.784 2.737 1.784h5v5c0 2.757-2.243 5-5 5s-5-2.243-5-5zm5 7c.874 0 1.707-.168 2.479-.462l.382 1.187-2.861 2.861-2.861-2.861.382-1.187c.772.294 1.605.462 2.479.462zm-15 9.361c0-3.611 2.819-6.675 6.419-6.976l2.005-.167 4.076 9.782h-6.5v-5h-2v5.586l-1.707 1.707 1.414 1.414 1.707-1.707h5.586v4h-7c-2.206 0-4-1.794-4-4zm-1.65 6.639c.826 2.327 3.043 4 5.65 4h15v-3c0-.342-.035-.677-.101-1h13.687l4.293 4.293c1.085 1.085 2.587 1.707 4.121 1.707s3.036-.622 4.121-1.707l4.293-4.293h4.586v8h-58v-8zm-2.35 12v-2h58v2z"/><path d="m48 9c0-2.206-1.794-4-4-4s-4 1.794-4 4 1.794 4 4 4 4-1.794 4-4zm-6 0c0-1.103.897-2 2-2s2 .897 2 2-.897 2-2 2-2-.897-2-2z"/></g></g></svg>