<?xml version="1.0" encoding="iso-8859-1"?>
<!-- Generator: Adobe Illustrator 19.0.0, SVG Export Plug-In . SVG Version: 6.00 Build 0)  -->
<svg version="1.1" id="Capa_1" xmlns="http://www.w3.org/2000/svg" xmlns:xlink="http://www.w3.org/1999/xlink" x="0px" y="0px"
	 viewBox="0 0 460.688 460.688" style="enable-background:new 0 0 460.688 460.688;" xml:space="preserve">
<g>
	<g>
		<path d="M19.313,425.844L24,421.157l-11.218-11.407L2.344,420.188c-3.125,3.125-3.125,8.188,0,11.313l24,24l11.313-11.313
			L19.313,425.844z"/>
	</g>
</g>
<g>
	<g>
		<polygon points="406.98,28.137 396.551,35.088 430.756,69.283 437.706,58.862 		"/>
	</g>
</g>
<g>
	<g>
		<rect x="431.028" y="5.59" transform="matrix(0.7071 -0.7071 0.7071 0.7071 110.5771 318.7056)" width="17.944" height="40.568"/>
	</g>
</g>
<g>
	<g>
		<rect x="377.363" y="47.903" transform="matrix(0.707 -0.7073 0.7073 0.707 62.6442 298.878)" width="29.256" height="51.88"/>
	</g>
</g>
<g>
	<g>
		<polygon points="96,317.157 84.064,329.092 143.338,375.194 148.688,369.844 		"/>
	</g>
</g>
<g>
	<g>
		<polygon points="72.662,340.494 60.064,353.092 119.338,399.194 131.936,386.596 		"/>
	</g>
</g>
<g>
	<g>
		<path d="M24.729,388.546c-1.316,1.469-2.1,3.309-2.1,5.298c0,2.137,0.832,4.145,2.34,5.656l41.375,41.375
			c3.023,3.016,8.289,3.016,11.313,0l6.279-6.279L24.729,388.546z"/>
	</g>
</g>
<g>
	<g>
		<polygon points="48.662,364.494 36.064,377.092 95.338,423.194 107.936,410.596 		"/>
	</g>
</g>
<g>
	<g>
		
			<rect x="278.057" y="124.561" transform="matrix(0.7071 -0.7071 0.7071 0.7071 -25.383 262.3538)" width="51.88" height="74.512"/>
	</g>
</g>
<g>
	<g>
		<path d="M305.375,222.532l-62.063-62.063c-6.242-6.234-16.383-6.234-22.625,0l-9.375,9.375L296,254.532l9.375-9.375
			C311.613,238.918,311.613,228.77,305.375,222.532z"/>
	</g>
</g>
<g>
	<g>
		<rect x="331.037" y="88.597" transform="matrix(0.7071 -0.7071 0.7071 0.7071 10.5947 277.285)" width="17.944" height="74.512"/>
	</g>
</g>
<g>
	<g>
		<path d="M391.031,116.188l-41.375-41.375c-3.023-3.016-8.289-3.016-11.313,0l-7.031,7.031L384,134.532l7.031-7.031
			c1.508-1.512,2.34-3.52,2.34-5.656S392.539,117.7,391.031,116.188z"/>
	</g>
</g>
<g>
	<g>
		<polygon points="283.086,289.618 287.316,268.473 197.371,178.528 176.227,182.758 205.656,212.188 194.344,223.5 
			160.002,189.159 151.371,197.789 144.684,231.215 234.629,321.16 268.055,314.473 276.686,305.842 242.344,271.5 253.656,260.188 
					"/>
	</g>
</g>
<g>
	<g>
		<path d="M104,277.157l-1.375,1.375c-6.238,6.238-6.238,16.387,0,22.625l62.063,62.063c6.242,6.234,16.383,6.234,22.625,0
			l1.375-1.375L104,277.157z"/>
	</g>
</g>
<g>
	<g>
		
			<rect x="153.367" y="237.955" transform="matrix(0.7071 -0.7071 0.7071 0.7071 -161.3996 206.0253)" width="29.256" height="119.769"/>
	</g>
</g>
<g>
</g>
<g>
</g>
<g>
</g>
<g>
</g>
<g>
</g>
<g>
</g>
<g>
</g>
<g>
</g>
<g>
</g>
<g>
</g>
<g>
</g>
<g>
</g>
<g>
</g>
<g>
</g>
<g>
</g>
</svg>
