<?xml version="1.0" encoding="iso-8859-1"?>
<!-- Generator: Adobe Illustrator 19.0.0, SVG Export Plug-In . SVG Version: 6.00 Build 0)  -->
<svg version="1.1" id="Capa_1" xmlns="http://www.w3.org/2000/svg" xmlns:xlink="http://www.w3.org/1999/xlink" x="0px" y="0px"
	 viewBox="0 0 457.269 457.269" style="enable-background:new 0 0 457.269 457.269;" xml:space="preserve">
<g>
	<g>
		<path d="M380.004,188.634c-2.98,0-5.715-1.656-7.094-4.301c-16.637-31.891-49.25-51.699-85.113-51.699
			c-31.246,0-60.023,15.035-77.922,40h69.922c2.121,0,4.156,0.844,5.656,2.344l48,48c3.125,3.125,3.125,8.188,0,11.313l-48,48
			c-1.5,1.5-3.535,2.344-5.656,2.344h-69.922c17.898,24.965,46.676,40,77.922,40c35.863,0,68.477-19.809,85.113-51.699
			c1.379-2.645,4.113-4.301,7.094-4.301h67.793v-80H380.004z"/>
	</g>
</g>
<g>
	<g>
		<circle cx="223.797" cy="228.634" r="8"/>
	</g>
</g>
<g>
	<g>
		<path d="M96.947,145.098c-10.21,15.453-17.672,32.854-21.694,51.537h49.685c1.848-5.715,4.184-11.25,6.992-16.551L96.947,145.098z
			"/>
	</g>
</g>
<g>
	<g>
		<path d="M124.938,260.634H75.253c4.022,18.683,11.483,36.084,21.694,51.537l34.983-34.986
			C129.121,271.88,126.785,266.345,124.938,260.634z"/>
	</g>
</g>
<g>
	<g>
		<path d="M140.26,101.784l34.986,34.983c5.301-2.809,10.836-5.145,16.551-6.992V80.09
			C173.114,84.112,155.713,91.574,140.26,101.784z"/>
	</g>
</g>
<g>
	<g>
		<path d="M384.734,284.634c-20.027,34.668-56.73,56-96.938,56c-41.844,0-79.895-23.105-99.301-60.301
			c-1.293-2.48-1.199-5.453,0.254-7.848c1.449-2.391,4.043-3.852,6.84-3.852h80.895l40-40l-40-40H195.59
			c-2.797,0-5.391-1.461-6.84-3.852c-1.453-2.395-1.547-5.367-0.254-7.848c19.406-37.195,57.457-60.301,99.301-60.301
			c40.207,0,76.91,21.332,96.938,56h71.063c0.522,0,0.978,0.202,1.472,0.297c-4.23-17.743-10.426-34.725-18.345-50.703
			l-14.295,7.081c-18.409-37.148-45.939-67.412-79.092-88.864l-11.084,16.626l-13.313-8.875l10.648-15.972
			C301.662,15.688,267.6,6.162,231.797,4.913v15.722h-16V4.837c-36.101,1.276-70.054,11.098-99.877,27.559l10.534,15.801
			l-13.313,8.875L102.199,40.66c-26.516,17.212-49.165,39.861-66.377,66.377l16.412,10.941l-8.875,13.313l-15.801-10.534
			C11.098,150.58,1.276,184.533,0,220.634h23.797v16H0c1.276,36.101,11.098,70.054,27.559,99.877l15.801-10.534l8.875,13.313
			l-16.412,10.941c17.212,26.516,39.861,49.165,66.377,66.377l10.941-16.412l13.313,8.875l-10.534,15.801
			c29.823,16.46,63.776,26.283,99.877,27.559v-15.797h16v15.722c35.803-1.249,69.865-10.776,99.992-27.312l-10.648-15.972
			l13.313-8.875l11.084,16.626c33.152-21.453,60.683-51.716,79.092-88.864l14.295,7.081c7.918-15.978,14.114-32.959,18.345-50.703
			c-0.494,0.096-0.95,0.297-1.472,0.297H384.734z M223.797,204.634c13.234,0,24,10.766,24,24s-10.766,24-24,24s-24-10.766-24-24
			S210.563,204.634,223.797,204.634z M223.797,396.634c-92.637,0-168-75.363-168-168s75.363-168,168-168
			c36.688,0,71.547,11.617,100.805,33.59l-9.609,12.797c-26.465-19.879-58-30.387-91.195-30.387c-5.405,0-10.739,0.307-16,0.86
			v58.289c0,3.648-2.469,6.836-6.004,7.746c-8.371,2.156-16.355,5.531-23.723,10.035c-1.293,0.789-2.734,1.172-4.168,1.172
			c-2.07,0-4.117-0.801-5.66-2.344l-41.035-41.035c-7.538,6.22-14.468,13.149-20.688,20.688l41.035,41.035
			c2.613,2.613,3.098,6.672,1.172,9.828c-4.504,7.367-7.879,15.352-10.035,23.723c-0.91,3.535-4.098,6.004-7.746,6.004H72.657
			c-0.553,5.261-0.86,10.595-0.86,16s0.307,10.739,0.86,16h58.289c3.648,0,6.836,2.469,7.746,6.004
			c2.156,8.367,5.531,16.348,10.035,23.727c1.926,3.152,1.441,7.211-1.172,9.824l-41.035,41.035
			c6.22,7.538,13.149,14.468,20.688,20.688l41.035-41.035c2.617-2.609,6.68-3.094,9.824-1.172
			c7.379,4.504,15.359,7.879,23.727,10.035c3.535,0.91,6.004,4.098,6.004,7.746v58.289c5.261,0.553,10.595,0.86,16,0.86
			c33.195,0,64.73-10.508,91.195-30.387l9.609,12.797C295.344,385.017,260.484,396.634,223.797,396.634z"/>
	</g>
</g>
<g>
	<g>
		<path d="M175.246,320.501l-34.986,34.983c15.453,10.21,32.854,17.672,51.537,21.694v-49.685
			C186.086,325.646,180.551,323.31,175.246,320.501z"/>
	</g>
</g>
<g>
</g>
<g>
</g>
<g>
</g>
<g>
</g>
<g>
</g>
<g>
</g>
<g>
</g>
<g>
</g>
<g>
</g>
<g>
</g>
<g>
</g>
<g>
</g>
<g>
</g>
<g>
</g>
<g>
</g>
</svg>
