<?xml version="1.0" encoding="iso-8859-1"?>
<!-- Generator: Adobe Illustrator 19.0.0, SVG Export Plug-In . SVG Version: 6.00 Build 0)  -->
<svg version="1.1" id="Capa_1" xmlns="http://www.w3.org/2000/svg" xmlns:xlink="http://www.w3.org/1999/xlink" x="0px" y="0px"
	 viewBox="0 0 448 448" style="enable-background:new 0 0 448 448;" xml:space="preserve">
<g>
	<g>
		<rect x="328" y="368" width="40" height="80"/>
	</g>
</g>
<g>
	<g>
		<path d="M296,0H152c-17.645,0-32,14.355-32,32v40h208V32C328,14.355,313.645,0,296,0z"/>
	</g>
</g>
<g>
	<g>
		<path d="M328.668,88H119.332l-0.896,10.233c66.349,33.597,144.778,33.597,211.127,0L328.668,88z"/>
	</g>
</g>
<g>
	<g>
		<rect x="80" y="368" width="40" height="80"/>
	</g>
</g>
<g>
	<g>
		<path d="M384,368v80h40v-40C424,385.945,406.055,368,384,368z"/>
	</g>
</g>
<g>
	<g>
		<path d="M24,408v40h40v-80C41.945,368,24,385.945,24,408z"/>
	</g>
</g>
<g>
	<g>
		<path d="M256.332,324.434c-13.297,4.332-22.816,6.496-32.332,6.496s-19.023-2.164-32.309-6.488
			c-14.738-4.798-28.071-12.123-39.691-21.323v52.717l72,50.398l72-50.398v-52.714C284.386,312.316,271.061,319.637,256.332,324.434
			z"/>
	</g>
</g>
<g>
	<g>
		<polygon points="141.479,368 136,368 136,448 216,448 216,420.165 		"/>
	</g>
</g>
<g>
	<g>
		<polygon points="306.521,368 232,420.165 232,448 312,448 312,368 		"/>
	</g>
</g>
<g>
	<g>
		<path d="M359.977,179.051c-0.438-8.344-8.215-15.129-17.336-15.129c-4.148,0-7.609-3.172-7.969-7.305l-3.617-41.335
			C297.19,131.359,260.615,139.5,224,139.5s-73.19-8.141-107.055-24.218l-3.617,41.335c-0.359,4.133-3.82,7.305-7.969,7.305
			c-9.121,0-16.898,6.785-17.336,15.129c-0.234,4.449,1.316,8.668,4.367,11.883s7.176,4.988,11.609,4.988h8c4.418,0,8,3.582,8,8
			c0,48.063,30.801,90.383,76.645,105.309c23.262,7.574,31.449,7.566,54.734-0.008C297.207,294.297,328,251.988,328,203.945
			c0-4.418,3.582-8.023,8-8.023h8c4.434,0,8.559-1.773,11.609-4.988S360.211,183.5,359.977,179.051z M168,200
			c-8.824,0-16-7.176-16-16s7.176-16,16-16s16,7.176,16,16S176.824,200,168,200z M257.941,265.371
			c-9.066,9.066-21.121,14.059-33.941,14.059s-24.875-4.992-33.941-14.059L184,259.313L195.313,248l6.059,6.059
			c12.477,12.477,32.781,12.477,45.258,0l6.059-6.059L264,259.313L257.941,265.371z M280,200c-8.824,0-16-7.176-16-16
			s7.176-16,16-16s16,7.176,16,16S288.824,200,280,200z"/>
	</g>
</g>
<g>
</g>
<g>
</g>
<g>
</g>
<g>
</g>
<g>
</g>
<g>
</g>
<g>
</g>
<g>
</g>
<g>
</g>
<g>
</g>
<g>
</g>
<g>
</g>
<g>
</g>
<g>
</g>
<g>
</g>
</svg>
