<?xml version="1.0" encoding="iso-8859-1"?>
<!-- Generator: Adobe Illustrator 19.0.0, SVG Export Plug-In . SVG Version: 6.00 Build 0)  -->
<svg version="1.1" id="Capa_1" xmlns="http://www.w3.org/2000/svg" xmlns:xlink="http://www.w3.org/1999/xlink" x="0px" y="0px"
	 viewBox="0 0 480 480" style="enable-background:new 0 0 480 480;" xml:space="preserve">
<g>
	<g>
		<circle cx="88" cy="320" r="32"/>
	</g>
</g>
<g>
	<g>
		<path d="M112.336,109.703c1.016-3.387,4.133-5.703,7.664-5.703h88V80h-90.336c-9.871,0-18.617,5.922-22.281,15.086L55.43,194.973
			C54.211,198.008,51.27,200,48,200c-23.926,0-32,14.133-32,56v56h24.723c3.827-22.665,23.54-40,47.277-40s43.451,17.335,47.277,40
			H208V200H96c-2.527,0-4.91-1.195-6.418-3.223c-1.512-2.031-1.973-4.652-1.246-7.074L112.336,109.703z"/>
	</g>
</g>
<g>
	<g>
		<path d="M368,404.496l-22.973,27.57C348.961,432.57,352,435.93,352,440v40h32v-40c0-4.07,3.039-7.43,6.973-7.934L368,404.496z"/>
	</g>
</g>
<g>
	<g>
		<polygon points="125.953,120 106.754,184 208,184 208,120 		"/>
	</g>
</g>
<g>
	<g>
		<path d="M88,404.496l-22.973,27.57C68.961,432.57,72,435.93,72,440v40h32v-40c0-4.07,3.039-7.43,6.973-7.934L88,404.496z"/>
	</g>
</g>
<g>
	<g>
		<path d="M432,296c-4.418,0-8-3.582-8-8v-48c0-4.418,3.582-8,8-8h26.52c-9.01-18.886-28.237-32-50.52-32h-48
			c-3.445,0-6.5-2.203-7.59-5.469L319.703,96.41C316.434,86.594,307.281,80,296.938,80H272v24h24c3.531,0,6.648,2.316,7.664,5.703
			l24,80c0.727,2.422,0.266,5.043-1.246,7.074C324.91,198.805,322.527,200,320,200h-48v112h48.723c3.827-22.665,23.54-40,47.277-40
			s43.451,17.335,47.277,40H464v-16H432z"/>
	</g>
</g>
<g>
	<g>
		<polygon points="290.047,120 272,120 272,184 309.246,184 		"/>
	</g>
</g>
<g>
	<g>
		<path d="M463.361,248H440v32h24v-24C464,253.277,463.739,250.62,463.361,248z"/>
	</g>
</g>
<g>
	<g>
		<polygon points="16,0 16,32 224,32 224,480 256,480 256,32 464,32 464,0 		"/>
	</g>
</g>
<g>
	<g>
		<circle cx="368" cy="320" r="32"/>
	</g>
</g>
<g>
</g>
<g>
</g>
<g>
</g>
<g>
</g>
<g>
</g>
<g>
</g>
<g>
</g>
<g>
</g>
<g>
</g>
<g>
</g>
<g>
</g>
<g>
</g>
<g>
</g>
<g>
</g>
<g>
</g>
</svg>
