<?xml version="1.0" encoding="iso-8859-1"?>
<!-- Generator: Adobe Illustrator 19.0.0, SVG Export Plug-In . SVG Version: 6.00 Build 0)  -->
<svg version="1.1" id="Capa_1" xmlns="http://www.w3.org/2000/svg" xmlns:xlink="http://www.w3.org/1999/xlink" x="0px" y="0px"
	 viewBox="0 0 448 448" style="enable-background:new 0 0 448 448;" xml:space="preserve">
<g>
	<g>
		<path d="M360,272c-22.055,0-40,17.945-40,40s17.945,40,40,40s40-17.945,40-40S382.055,272,360,272z M368,320h-16v-16h16V320z"/>
	</g>
</g>
<g>
	<g>
		<path d="M152,160H88c-4.41,0-8,3.586-8,8v32c0,4.414,3.59,8,8,8h64c4.41,0,8-3.586,8-8v-32C160,163.586,156.41,160,152,160z
			 M112,192H96v-16h16V192z M144,192h-16v-16h16V192z"/>
	</g>
</g>
<g>
	<g>
		<path d="M80,272c-22.055,0-40,17.945-40,40s17.945,40,40,40s40-17.945,40-40S102.055,272,80,272z M88,320H72v-16h16V320z"/>
	</g>
</g>
<g>
	<g>
		<path d="M417.16,215.078l-98.992-23.289c-1.977-0.469-3.699-1.664-4.824-3.352l-54.5-81.75C254.383,99.992,246.922,96,238.875,96
			H79.063c-10.344,0-19.496,6.594-22.766,16.414l-19.844,59.523c-3.703,11.102-10.602,20.672-19.957,27.688
			C6.168,207.375,0,219.711,0,232.617V296c0,4.414,3.59,8,8,8h16.639c3.903-27.09,27.205-48,55.361-48s51.458,20.91,55.361,48
			h169.278c3.903-27.09,27.205-48,55.361-48s51.458,20.91,55.361,48H440c4.41,0,8-3.586,8-8v-41.984
			C448,235.359,435.316,219.352,417.16,215.078z M176,200c0,13.234-10.766,24-24,24H88c-13.234,0-24-10.766-24-24v-32
			c0-13.234,10.766-24,24-24h64c13.234,0,24,10.766,24,24V200z M208,192h-16v-16h16V192z M223.215,216.156l-9.313-13.016
			c6.324-4.523,10.098-11.805,10.098-19.477s-3.773-14.953-10.098-19.477l9.313-13.016C233.727,158.695,240,170.836,240,183.664
			C240,196.484,233.727,208.633,223.215,216.156z M241.824,242.211l-9.313-13.016C247.219,218.672,256,201.648,256,183.664
			s-8.781-35-23.488-45.523l9.313-13.016C260.719,138.648,272,160.531,272,183.664C272,206.805,260.719,228.688,241.824,242.211z"/>
	</g>
</g>
<g>
</g>
<g>
</g>
<g>
</g>
<g>
</g>
<g>
</g>
<g>
</g>
<g>
</g>
<g>
</g>
<g>
</g>
<g>
</g>
<g>
</g>
<g>
</g>
<g>
</g>
<g>
</g>
<g>
</g>
</svg>
