<?xml version="1.0" encoding="iso-8859-1"?>
<!-- Generator: Adobe Illustrator 19.0.0, SVG Export Plug-In . SVG Version: 6.00 Build 0)  -->
<svg version="1.1" id="Capa_1" xmlns="http://www.w3.org/2000/svg" xmlns:xlink="http://www.w3.org/1999/xlink" x="0px" y="0px"
	 viewBox="0 0 448 448" style="enable-background:new 0 0 448 448;" xml:space="preserve">
<g>
	<g>
		<path d="M360,272c-22.055,0-40,17.945-40,40s17.945,40,40,40s40-17.945,40-40S382.055,272,360,272z M368,320h-16v-16h16V320z"/>
	</g>
</g>
<g>
	<g>
		<path d="M80,272c-22.055,0-40,17.945-40,40s17.945,40,40,40s40-17.945,40-40S102.055,272,80,272z M88,320H72v-16h16V320z"/>
	</g>
</g>
<g>
	<g>
		<path d="M184,152v112h48V152H184z M224,184h-32v-16h32V184z"/>
	</g>
</g>
<g>
	<g>
		<path d="M417.16,215.078l-98.992-23.289c-1.977-0.469-3.699-1.664-4.824-3.352l-54.5-81.75C254.383,99.992,246.922,96,238.875,96
			H79.063c-10.344,0-19.496,6.594-22.766,16.414l-19.844,59.523c-3.703,11.102-10.602,20.672-19.957,27.688
			C6.168,207.375,0,219.711,0,232.617V296c0,4.414,3.59,8,8,8h16.639c3.903-27.09,27.205-48,55.361-48s51.458,20.91,55.361,48
			h169.278c3.903-27.09,27.205-48,55.361-48s51.458,20.91,55.361,48H440c4.41,0,8-3.586,8-8v-41.984
			C448,235.359,435.316,219.352,417.16,215.078z M264,280h-24h-64h-24v-16h16v-79.596c-13.533,1.962-24,13.528-24,27.596
			c0,15.438-12.563,28-28,28s-28-12.563-28-28v-24.688l-8-8l-16,16V208H48v-16c0-2.125,0.844-4.156,2.344-5.656l24-24
			C75.906,160.781,77.953,160,80,160h32v16H99.313l2.344,2.344c1.5,1.5,2.344,3.531,2.344,5.656v28c0,6.617,5.383,12,12,12
			s12-5.383,12-12c0-22.908,17.608-41.767,40-43.797V144c0-4.422,3.582-8,8-8h64c4.418,0,8,3.578,8,8v120h16V280z"/>
	</g>
</g>
<g>
</g>
<g>
</g>
<g>
</g>
<g>
</g>
<g>
</g>
<g>
</g>
<g>
</g>
<g>
</g>
<g>
</g>
<g>
</g>
<g>
</g>
<g>
</g>
<g>
</g>
<g>
</g>
<g>
</g>
</svg>
