<?xml version="1.0" encoding="iso-8859-1"?>
<!-- Generator: Adobe Illustrator 19.0.0, SVG Export Plug-In . SVG Version: 6.00 Build 0)  -->
<svg version="1.1" id="Capa_1" xmlns="http://www.w3.org/2000/svg" xmlns:xlink="http://www.w3.org/1999/xlink" x="0px" y="0px"
	 viewBox="0 0 448 448" style="enable-background:new 0 0 448 448;" xml:space="preserve">
<g>
	<g>
		<path d="M120,32H24c-4.41,0-8,3.586-8,8v56h16V48h16v48h16V48h16v48h16V48h16v48h16V40C128,35.586,124.41,32,120,32z"/>
	</g>
</g>
<g>
	<g>
		<path d="M408,0H239.262c-12.172,0-23.484,5.414-31.117,14.867l-57.328,93.32C149.359,110.555,146.781,112,144,112h-8H8
			c-4.41,0-8,3.586-8,8v288c0,22.055,17.945,40,40,40h368c22.055,0,40-17.945,40-40V40C448,17.945,430.055,0,408,0z M424,384
			c0,22.055-17.945,40-40,40H64c-22.055,0-40-17.945-40-40V184c0-22.055,17.945-40,40-40h320c22.055,0,40,17.945,40,40V384z M424,64
			c0,13.234-10.766,24-24,24H256c-13.234,0-24-10.766-24-24V48c0-13.234,10.766-24,24-24h144c13.234,0,24,10.766,24,24V64z"/>
	</g>
</g>
<g>
	<g>
		<path d="M243.264,160l-17.182,10.57C142.381,222.075,88.723,310.387,81.08,408h48.021c8.005-103.535,68.229-197.144,157.785-248
			H243.264z"/>
	</g>
</g>
<g>
	<g>
		<path d="M400,40H256c-4.41,0-8,3.586-8,8v16c0,4.414,3.59,8,8,8h144c4.41,0,8-3.586,8-8V48C408,43.586,404.41,40,400,40z"/>
	</g>
</g>
<g>
	<g>
		<path d="M384,160h-61.742c-99.655,43.352-168.294,139.973-177.108,248H384c13.234,0,24-10.766,24-24V184
			C408,170.766,397.234,160,384,160z M360,392H256v-16h104V392z M392,392h-16v-16h16V392z"/>
	</g>
</g>
<g>
	<g>
		<path d="M64,160c-13.234,0-24,10.766-24,24v200c0,13.234,10.766,24,24,24h1.037c7.54-101.354,62.305-193.199,148.023-248H64z"/>
	</g>
</g>
<g>
</g>
<g>
</g>
<g>
</g>
<g>
</g>
<g>
</g>
<g>
</g>
<g>
</g>
<g>
</g>
<g>
</g>
<g>
</g>
<g>
</g>
<g>
</g>
<g>
</g>
<g>
</g>
<g>
</g>
</svg>
