<?xml version="1.0" encoding="iso-8859-1"?>
<!-- Generator: Adobe Illustrator 19.0.0, SVG Export Plug-In . SVG Version: 6.00 Build 0)  -->
<svg version="1.1" id="Capa_1" xmlns="http://www.w3.org/2000/svg" xmlns:xlink="http://www.w3.org/1999/xlink" x="0px" y="0px"
	 viewBox="0 0 480 480" style="enable-background:new 0 0 480 480;" xml:space="preserve">
<g>
	<g>
		<circle cx="200" cy="384" r="8"/>
	</g>
</g>
<g>
	<g>
		<path d="M200,344c-22.055,0-40,17.945-40,40s17.945,40,40,40s40-17.945,40-40S222.055,344,200,344z M200,408
			c-13.234,0-24-10.766-24-24s10.766-24,24-24s24,10.766,24,24S213.234,408,200,408z"/>
	</g>
</g>
<g>
	<g>
		<polygon points="84.688,224 0,224 0,256 116.688,256 		"/>
	</g>
</g>
<g>
	<g>
		<path d="M285.055,306.125l-79.023-26.352c-5.648-1.88-11.029-4.39-16.264-7.17l65.092-108.486l-13.719-8.234l-64.89,108.149
			c-5.581-4.136-10.893-8.641-15.587-13.806l-50.68-55.75C103.93,187.82,95.297,184,86.305,184H0v24h88
			c2.125,0,4.156,0.844,5.656,2.344l48,48c2.289,2.289,2.977,5.727,1.734,8.719C142.156,270.055,139.234,272,136,272H0v104h144.639
			c3.904-27.09,27.209-48,55.361-48c30.875,0,56,25.125,56,56h24c8.82,0,16-7.18,16-16v-46.703
			C296,314.398,291.602,308.305,285.055,306.125z"/>
	</g>
</g>
<g>
	<g>
		<path d="M480,116c0-33.086-26.914-60-60-60h-6.52c-25.867,0-48.742,16.488-56.922,41.023l-12.148,36.445l15.18,5.063
			l12.148-36.445C377.738,84.09,394.512,72,413.48,72H420c24.262,0,44,19.738,44,44s-19.738,44-44,44h-36
			c-3.234,0-6.152,1.949-7.391,4.938c-1.238,2.992-0.555,6.43,1.734,8.719l33.09,33.09C419.535,214.852,424,225.625,424,237.09
			c0,23.66-19.25,42.91-42.91,42.91c-11.465,0-22.238-4.465-30.344-12.566c-17.563-17.559-43.664-22.598-66.512-12.809
			l-23.387,10.023l6.305,14.703l23.387-10.023c16.781-7.176,35.98-3.496,48.895,9.418C350.559,289.871,365.352,296,381.09,296
			c32.484,0,58.91-26.426,58.91-58.91c0-15.738-6.129-30.531-17.254-41.656L403.313,176H420C453.086,176,480,149.086,480,116z"/>
	</g>
</g>
<g>
	<g>
		<path d="M260.801,222.402l-25.602,19.199l9.602,12.797l25.602-19.199C293.789,217.66,322.766,208,352,208v-16
			C319.328,192,286.938,202.797,260.801,222.402z"/>
	</g>
</g>
<g>
	<g>
		<path d="M304,56c-30.879,0-56,25.121-56,56c0,17.645,14.355,32,32,32c8.824,0,16,7.176,16,16v8h16v-8c0-17.645-14.355-32-32-32
			c-8.824,0-16-7.176-16-16c0-22.055,17.945-40,40-40c8.824,0,16,7.176,16,16v16h16V88C336,70.355,321.645,56,304,56z"/>
	</g>
</g>
<g>
</g>
<g>
</g>
<g>
</g>
<g>
</g>
<g>
</g>
<g>
</g>
<g>
</g>
<g>
</g>
<g>
</g>
<g>
</g>
<g>
</g>
<g>
</g>
<g>
</g>
<g>
</g>
<g>
</g>
</svg>
