<?xml version="1.0" encoding="iso-8859-1"?>
<!-- Generator: Adobe Illustrator 19.0.0, SVG Export Plug-In . SVG Version: 6.00 Build 0)  -->
<svg version="1.1" id="Capa_1" xmlns="http://www.w3.org/2000/svg" xmlns:xlink="http://www.w3.org/1999/xlink" x="0px" y="0px"
	 viewBox="0 0 447.624 447.624" style="enable-background:new 0 0 447.624 447.624;" xml:space="preserve">
<g>
	<g>
		<path d="M420.088,347.614c16.805-30.456,26.289-64.53,27.536-99.904H423.81v-16h23.797c-1.276-36.101-11.098-70.054-27.559-99.877
			l-15.801,10.534l-8.875-13.313l16.412-10.941c-17.212-26.516-39.861-49.165-66.377-66.377l-10.941,16.412l-13.313-8.875
			l10.534-15.801c-29.823-16.46-63.776-26.283-99.877-27.559V31.71h-16V15.913c-36.101,1.276-70.054,11.098-99.877,27.559
			l10.534,15.801l-13.313,8.875l-10.941-16.412c-26.516,17.212-49.165,39.861-66.377,66.377l16.412,10.941l-8.875,13.313
			l-15.801-10.534c-16.46,29.823-26.283,63.776-27.559,99.877H23.81v16H0c1.248,35.361,10.75,69.429,27.555,99.889l15.817-10.545
			l8.875,13.313l-16.488,10.992c6.945,10.694,14.87,20.835,23.679,30.352H79.81v16H55.904H51.81c-6.617,0-12,5.383-12,12
			s5.383,12,12,12h47.719l13.625-20.438l13.313,8.875l-7.708,11.563H387.81c6.617,0,12-5.383,12-12
			c0-5.672-3.953-10.434-9.25-11.684c-0.203-0.02-0.414-0.051-0.625-0.086c-0.688-0.129-1.398-0.23-2.125-0.23h-52v-16h52.449
			c8.798-9.507,16.642-19.685,23.579-30.367l-16.465-10.977l8.875-13.313L420.088,347.614z M223.81,407.71
			c-92.633,0-168-75.363-168-168s75.367-168,168-168s168,75.363,168,168S316.443,407.71,223.81,407.71z"/>
	</g>
</g>
<g>
	<g>
		<path d="M140.273,112.861l34.982,34.982c5.305-2.805,10.844-5.145,16.555-6.988V91.166
			C173.127,95.188,155.726,102.65,140.273,112.861z"/>
	</g>
</g>
<g>
	<g>
		<path d="M308.912,261.714c0.914-3.535,4.102-6.004,7.75-6.004h58.289c0.553-5.261,0.86-10.595,0.86-16s-0.307-10.739-0.86-16
			h-58.289c-3.648,0-6.836-2.469-7.75-6.004c-2.156-8.383-5.531-16.363-10.031-23.723c-1.922-3.152-1.445-7.215,1.172-9.828
			l41.035-41.035c-6.22-7.538-13.149-14.468-20.688-20.688l-41.035,41.035c-1.539,1.543-3.594,2.344-5.656,2.344
			c-1.438,0-2.875-0.383-4.172-1.172c-7.367-4.5-15.352-7.879-23.727-10.039c-3.531-0.91-6-4.098-6-7.746V88.57
			c-5.261-0.553-10.595-0.86-16-0.86s-10.739,0.307-16,0.86v58.289c0,3.648-2.469,6.836-6.008,7.746
			c-8.367,2.156-16.344,5.531-23.719,10.035c-1.297,0.789-2.734,1.172-4.172,1.172c-2.063,0-4.117-0.801-5.656-2.344l-41.035-41.035
			c-7.538,6.22-14.468,13.149-20.688,20.688l41.035,41.035c2.617,2.613,3.094,6.676,1.172,9.828
			c-4.5,7.359-7.875,15.34-10.031,23.723c-0.914,3.535-4.102,6.004-7.75,6.004H72.67c-0.553,5.261-0.86,10.595-0.86,16
			s0.307,10.739,0.86,16h58.289c3.648,0,6.836,2.469,7.75,6.004c2.156,8.375,5.531,16.359,10.031,23.723
			c1.922,3.152,1.445,7.215-1.172,9.828L106.533,336.3c6.22,7.538,13.149,14.468,20.688,20.688l41.035-41.035
			c2.609-2.621,6.664-3.102,9.828-1.172c7.375,4.504,15.352,7.879,23.719,10.035c3.539,0.91,6.008,4.098,6.008,7.746v58.289
			c5.261,0.553,10.595,0.86,16,0.86s10.739-0.307,16-0.86v-58.289c0-3.648,2.469-6.836,6.008-7.746
			c8.367-2.156,16.344-5.531,23.719-10.035c3.156-1.93,7.211-1.449,9.828,1.172l41.035,41.035
			c7.538-6.22,14.468-13.149,20.688-20.688l-41.035-41.035c-2.617-2.613-3.094-6.676-1.172-9.828
			C303.38,278.073,306.755,270.089,308.912,261.714z M223.81,311.71c-39.703,0-72-32.301-72-72s32.297-72,72-72s72,32.301,72,72
			S263.513,311.71,223.81,311.71z"/>
	</g>
</g>
<g>
	<g>
		<path d="M96.96,156.173c-10.21,15.453-17.672,32.854-21.694,51.537h49.685c1.844-5.719,4.188-11.254,6.992-16.555L96.96,156.173z"
			/>
	</g>
</g>
<g>
	<g>
		<circle cx="223.81" cy="239.71" r="8"/>
	</g>
</g>
<g>
	<g>
		<path d="M124.951,271.71H75.266c4.022,18.683,11.484,36.084,21.694,51.537l34.982-34.982
			C129.138,282.96,126.794,277.425,124.951,271.71z"/>
	</g>
</g>
<g>
	<g>
		<path d="M223.81,183.71c-30.875,0-56,25.121-56,56s25.125,56,56,56s56-25.121,56-56S254.685,183.71,223.81,183.71z M223.81,263.71
			c-13.234,0-24-10.766-24-24s10.766-24,24-24s24,10.766,24,24S237.044,263.71,223.81,263.71z"/>
	</g>
</g>
<g>
	<g>
		<path d="M175.255,331.577l-34.982,34.982c15.453,10.21,32.854,17.672,51.537,21.694v-49.688
			C186.099,336.722,180.56,334.382,175.255,331.577z"/>
	</g>
</g>
<g>
	<g>
		<path d="M322.669,271.71c-1.844,5.715-4.188,11.25-6.992,16.555l34.982,34.982c10.21-15.453,17.672-32.854,21.694-51.537H322.669z
			"/>
	</g>
</g>
<g>
	<g>
		<path d="M272.365,331.577c-5.305,2.805-10.844,5.145-16.555,6.988v49.688c18.683-4.022,36.084-11.484,51.537-21.694
			L272.365,331.577z"/>
	</g>
</g>
<g>
	<g>
		<path d="M350.66,156.173l-34.982,34.982c2.805,5.301,5.148,10.836,6.992,16.555h49.685
			C368.332,189.028,360.87,171.626,350.66,156.173z"/>
	</g>
</g>
<g>
	<g>
		<path d="M255.81,91.166v49.685c5.711,1.848,11.25,4.188,16.555,6.992l34.982-34.982C291.895,102.65,274.493,95.188,255.81,91.166z
			"/>
	</g>
</g>
<g>
</g>
<g>
</g>
<g>
</g>
<g>
</g>
<g>
</g>
<g>
</g>
<g>
</g>
<g>
</g>
<g>
</g>
<g>
</g>
<g>
</g>
<g>
</g>
<g>
</g>
<g>
</g>
<g>
</g>
</svg>
