<?xml version="1.0" encoding="iso-8859-1"?>
<!-- Generator: Adobe Illustrator 19.0.0, SVG Export Plug-In . SVG Version: 6.00 Build 0)  -->
<svg version="1.1" id="Capa_1" xmlns="http://www.w3.org/2000/svg" xmlns:xlink="http://www.w3.org/1999/xlink" x="0px" y="0px"
	 viewBox="0 0 448 448" style="enable-background:new 0 0 448 448;" xml:space="preserve">
<g>
	<g>
		<rect x="64" y="168" width="152" height="16"/>
	</g>
</g>
<g>
	<g>
		<rect x="64" y="328" width="152" height="16"/>
	</g>
</g>
<g>
	<g>
		<rect x="64" y="392" width="152" height="16"/>
	</g>
</g>
<g>
	<g>
		<rect x="64" y="296" width="152" height="16"/>
	</g>
</g>
<g>
	<g>
		<path d="M392,0H56C42.766,0,32,10.766,32,24v400c0,13.234,10.766,24,24,24h336c13.234,0,24-10.766,24-24V24
			C416,10.766,405.234,0,392,0z M400,416c0,4.418-3.582,8-8,8H56c-4.418,0-8-3.582-8-8V32c0-4.418,3.582-8,8-8h336
			c4.418,0,8,3.582,8,8V416z"/>
	</g>
</g>
<g>
	<g>
		<rect x="64" y="200" width="152" height="16"/>
	</g>
</g>
<g>
	<g>
		<rect x="64" y="232" width="152" height="16"/>
	</g>
</g>
<g>
	<g>
		<rect x="64" y="264" width="152" height="16"/>
	</g>
</g>
<g>
	<g>
		<rect x="64" y="360" width="152" height="16"/>
	</g>
</g>
<g>
	<g>
		<rect x="64" y="136" width="152" height="16"/>
	</g>
</g>
<g>
	<g>
		<rect x="232" y="104" width="152" height="16"/>
	</g>
</g>
<g>
	<g>
		<rect x="232" y="168" width="152" height="16"/>
	</g>
</g>
<g>
	<g>
		<rect x="232" y="136" width="152" height="16"/>
	</g>
</g>
<g>
	<g>
		<rect x="232" y="200" width="152" height="16"/>
	</g>
</g>
<g>
	<g>
		<rect x="232" y="232" width="152" height="16"/>
	</g>
</g>
<g>
	<g>
		<rect x="232" y="40" width="152" height="16"/>
	</g>
</g>
<g>
	<g>
		<rect x="232" y="72" width="152" height="16"/>
	</g>
</g>
<g>
	<g>
		<rect x="232" y="392" width="152" height="16"/>
	</g>
</g>
<g>
	<g>
		<rect x="64" y="40" width="152" height="16"/>
	</g>
</g>
<g>
	<g>
		<rect x="64" y="72" width="152" height="16"/>
	</g>
</g>
<g>
	<g>
		<rect x="64" y="104" width="152" height="16"/>
	</g>
</g>
<g>
	<g>
		<rect x="232" y="360" width="152" height="16"/>
	</g>
</g>
<g>
	<g>
		<rect x="232" y="296" width="152" height="16"/>
	</g>
</g>
<g>
	<g>
		<rect x="232" y="328" width="152" height="16"/>
	</g>
</g>
<g>
	<g>
		<rect x="232" y="264" width="152" height="16"/>
	</g>
</g>
<g>
</g>
<g>
</g>
<g>
</g>
<g>
</g>
<g>
</g>
<g>
</g>
<g>
</g>
<g>
</g>
<g>
</g>
<g>
</g>
<g>
</g>
<g>
</g>
<g>
</g>
<g>
</g>
<g>
</g>
</svg>
