<?xml version="1.0" encoding="iso-8859-1"?>
<!-- Generator: Adobe Illustrator 19.0.0, SVG Export Plug-In . SVG Version: 6.00 Build 0)  -->
<svg version="1.1" id="Capa_1" xmlns="http://www.w3.org/2000/svg" xmlns:xlink="http://www.w3.org/1999/xlink" x="0px" y="0px"
	 viewBox="0 0 448 448" style="enable-background:new 0 0 448 448;" xml:space="preserve">
<g>
	<g>
		<rect x="256" y="28" width="48" height="24"/>
	</g>
</g>
<g>
	<g>
		<rect x="32" y="28" width="48" height="24"/>
	</g>
</g>
<g>
	<g>
		<rect x="144" y="28" width="48" height="24"/>
	</g>
</g>
<g>
	<g>
		<rect x="368" y="28" width="48" height="24"/>
	</g>
</g>
<g>
	<g>
		<path d="M234.961,321.133L265.055,276H240c-2.297,0-4.477-0.984-6-2.707c-1.516-1.719-2.227-4.008-1.938-6.285l3.148-25.211
			L205.93,292H232c2.461,0,4.789,1.137,6.305,3.078s2.055,4.473,1.453,6.863L234.961,321.133z"/>
	</g>
</g>
<g>
	<g>
		<path d="M40,180v208h368V180H40z M286.656,272.438l-64,96C221.133,370.723,218.602,372,216,372c-1.094,0-2.188-0.223-3.234-0.684
			c-3.563-1.574-5.469-5.48-4.523-9.258L221.75,308H192c-2.867,0-5.508-1.531-6.938-4.016s-1.414-5.539,0.023-8.016l56-96
			c1.922-3.277,5.891-4.758,9.477-3.547c3.602,1.219,5.844,4.801,5.375,8.57L249.063,260H280c2.953,0,5.664,1.625,7.055,4.227
			S288.289,269.984,286.656,272.438z"/>
	</g>
</g>
<g>
	<g>
		<rect y="68" width="448" height="64"/>
	</g>
</g>
<g>
	<g>
		<path d="M0,148v272h448V148H0z M424,396c0,4.418-3.578,8-8,8H32c-4.422,0-8-3.582-8-8V172c0-4.418,3.578-8,8-8h384
			c4.422,0,8,3.582,8,8V396z"/>
	</g>
</g>
<g>
</g>
<g>
</g>
<g>
</g>
<g>
</g>
<g>
</g>
<g>
</g>
<g>
</g>
<g>
</g>
<g>
</g>
<g>
</g>
<g>
</g>
<g>
</g>
<g>
</g>
<g>
</g>
<g>
</g>
</svg>
