<?xml version="1.0" encoding="iso-8859-1"?>
<!-- Generator: Adobe Illustrator 19.0.0, SVG Export Plug-In . SVG Version: 6.00 Build 0)  -->
<svg version="1.1" id="Capa_1" xmlns="http://www.w3.org/2000/svg" xmlns:xlink="http://www.w3.org/1999/xlink" x="0px" y="0px"
	 viewBox="0 0 432 432" style="enable-background:new 0 0 432 432;" xml:space="preserve">
<g>
	<g>
		<circle cx="208" cy="216" r="24"/>
	</g>
</g>
<g>
	<g>
		<path d="M364.891,342.328c-6.141,0-12.25-2.379-16.953-7.082l-22.281-22.277c-4.531-4.531-7.031-10.559-7.031-16.969
			c0-4.769,1.394-9.321,3.968-13.209c-6.688-4.51-10.476-12.39-9.663-20.462l6.539-65.406c0.578-5.785,3.359-11.02,7.82-14.746
			l5.523-4.605c3.266-2.719,2.102-6.129,1.664-7.109c-0.438-0.984-2.242-4.129-6.391-3.535c-6.836,0.992-13.828-1.352-18.719-6.242
			l-42.406-42.41c-7.711-7.711-8.594-20.102-2.047-28.824l2.237-2.983l-15.252-15.255c-5.047-5.047-7.57-12.02-6.93-19.129
			c0.641-7.105,4.375-13.512,10.242-17.574l21.438-14.841C254.717,12.009,231.539,8,208,8C93.305,8,0,101.309,0,216
			s93.305,208,208,208c66.998,0,128.144-31.505,166.959-84.011C371.748,341.491,368.33,342.328,364.891,342.328z M208,352
			c-74.992,0-136-61.008-136-136S133.008,80,208,80c5.688,0,11.406,0.355,16.992,1.055l-1.984,15.875
			C218.078,96.313,213.023,96,208,96c-66.172,0-120,53.832-120,120s53.828,120,120,120c5.023,0,10.078-0.313,15.008-0.93
			l1.984,15.875C219.406,351.645,213.688,352,208,352z M276.008,333.801l-8.016-13.852c11.273-6.52,21.375-14.789,30.008-24.578
			l12,10.586C300.219,317.043,288.781,326.41,276.008,333.801z M208,320c-57.344,0-104-46.652-104-104s46.656-104,104-104
			s104,46.652,104,104S265.344,320,208,320z"/>
	</g>
</g>
<g>
	<g>
		<path d="M337.444,289.868l-0.476,0.476c-1.516,1.512-2.344,3.52-2.344,5.656s0.828,4.145,2.344,5.652l22.281,22.281
			c2.969,2.957,7.617,3.148,10.828,0.449l15.014-12.711L337.444,289.868z"/>
	</g>
</g>
<g>
	<g>
		<path d="M208,128c-48.523,0-88,39.477-88,88s39.477,88,88,88s88-39.477,88-88S256.523,128,208,128z M200,144h16v16h-16V144z
			 M152,208h-16v-16h16V208z M176,280h-16v-16h16V280z M208,256c-22.055,0-40-17.945-40-40s17.945-40,40-40s40,17.945,40,40
			S230.055,256,208,256z M256,280h-16v-16h16V280z M264,208v-16h16v16H264z"/>
	</g>
</g>
<g>
	<g>
		<path d="M359.086,259.453C349.922,255.785,344,247.035,344,237.168v-11.883c0-8.59,4.633-16.574,12.094-20.836l17.414-9.949
			c14.266-8.152,20.43-25.23,14.656-40.613c-5.438-14.52-20.547-23.441-35.891-21.273l-15.219,2.172
			c-7.438,1.094-15.039-1.473-20.367-6.781l-8.531-8.535c-8.398-8.387-9.352-21.875-2.227-31.371l37.738-50.32
			c-4.233-3.21-8.563-6.323-13.058-9.262l-52.898,70.535c-1.797,2.395-1.555,5.793,0.563,7.91l42.414,42.414
			c1.344,1.34,3.258,1.977,5.133,1.715c9.945-1.406,19.227,3.762,23.273,12.871c4.055,9.109,1.625,19.52-6.039,25.898l-5.516,4.605
			c-1.227,1.023-1.992,2.461-2.148,4.051l-6.539,65.414c-0.227,2.207,0.797,4.367,2.609,5.605l81.367,37.234
			c3.268-7.347,6.106-14.821,8.542-22.404L359.086,259.453z"/>
	</g>
</g>
<g>
	<g>
		<path d="M300.266,29.824c-0.556-0.453-1.186-0.76-1.821-1.043c-0.19-0.092-0.381-0.183-0.572-0.275
			c-2.374-0.837-5.074-0.559-7.224,0.927l-26.328,18.23c-2.68,1.855-3.289,4.465-3.414,5.859c-0.125,1.391,0.008,4.07,2.305,6.375
			l13.636,13.639l29.223-38.965L300.266,29.824z"/>
	</g>
</g>
<g>
	<g>
		<path d="M431.796,224c0.092-2.662,0.204-5.321,0.204-8c0-52.277-17.724-101.363-49.327-140.479l-41.548,34.624l-10.25-12.289
			l41.277-34.397c-5.069-5.425-10.458-10.59-16.097-15.532l-37.328,49.773c-2.375,3.164-2.055,7.66,0.742,10.453l8.531,8.535
			c1.773,1.773,4.297,2.59,6.789,2.262l15.219-2.172c22.711-3.273,45.078,9.996,53.141,31.492
			c8.539,22.77-0.586,48.055-21.703,60.121l-17.414,9.949c-2.484,1.422-4.031,4.082-4.031,6.945v11.883
			c0,3.289,1.977,6.207,5.031,7.43l60.644,24.255c2.296-9.475,4.024-19.089,5.056-28.853H376v-16H431.796z"/>
	</g>
</g>
<g>
</g>
<g>
</g>
<g>
</g>
<g>
</g>
<g>
</g>
<g>
</g>
<g>
</g>
<g>
</g>
<g>
</g>
<g>
</g>
<g>
</g>
<g>
</g>
<g>
</g>
<g>
</g>
<g>
</g>
</svg>
