<?xml version="1.0" encoding="iso-8859-1"?>
<!-- Generator: Adobe Illustrator 19.0.0, SVG Export Plug-In . SVG Version: 6.00 Build 0)  -->
<svg version="1.1" id="Capa_1" xmlns="http://www.w3.org/2000/svg" xmlns:xlink="http://www.w3.org/1999/xlink" x="0px" y="0px"
	 viewBox="0 0 480 480" style="enable-background:new 0 0 480 480;" xml:space="preserve">
<g>
	<g>
		<path d="M224,104c-22.055,0-40,17.945-40,40c0,13.234-10.766,24-24,24c-22.055,0-40,17.945-40,40s17.945,40,40,40h32v-16h-32
			c-13.234,0-24-10.766-24-24s10.766-24,24-24c22.055,0,40-17.945,40-40c0-13.234,10.766-24,24-24h24v-16H224z"/>
	</g>
</g>
<g>
	<g>
		<path d="M464,60c0-33.086-26.914-60-60-60h-28v16h28c24.262,0,44,19.738,44,44s-19.738,44-44,44h-28c-4.418,0-8,3.582-8,8
			s3.582,8,8,8h20c15.438,0,28,12.563,28,28s-12.563,28-28,28h-20c-44.113,0-80,35.887-80,80h16c0-35.289,28.711-64,64-64h20
			c24.262,0,44-19.738,44-44c0-12.688-5.395-24.133-14.012-32.172C448.227,107.039,464,85.328,464,60z"/>
	</g>
</g>
<g>
	<g>
		<path d="M336,40c-22.055,0-40,17.945-40,40v40c0,13.234-10.766,24-24,24c-22.055,0-40,17.945-40,40v72h16v-72
			c0-13.234,10.766-24,24-24c22.055,0,40-17.945,40-40V80c0-13.234,10.766-24,24-24h48V40H336z"/>
	</g>
</g>
<g>
	<g>
		<path d="M432,252c0-15.438-12.563-28-28-28h-20c-2.809,0-5.414,1.473-6.859,3.883l-24,40c-1.484,2.473-1.523,5.551-0.102,8.059
			c0.034,0.061,0.087,0.104,0.123,0.163l-0.021,0.013L369.87,304H78.13l16.729-27.883l-0.021-0.013
			c0.036-0.059,0.089-0.102,0.123-0.163c0.931-1.642,1.171-3.52,0.854-5.321l0.063-0.011l-16.805-95.219
			c-3.418-19.371,8.082-38.676,26.746-44.898l56.711-18.902l-5.063-15.18l-56.711,18.902c-26.129,8.715-42.227,35.738-37.441,62.859
			l9.286,52.616l-1.743-2.905C69.414,225.473,66.809,224,64,224H44c-15.438,0-28,12.563-28,28s12.563,28,28,28h29.87l-16.729,27.883
			l0.046,0.027c-0.55,0.914-0.967,1.916-1.116,3.031l-3.792,28.438h-0.001l-2.708,20.318l-9.5,71.245
			c-0.048,0.359,0.084,0.701,0.085,1.059H40v32c0,8.824,7.176,16,16,16h32c8.824,0,16-7.176,16-16v-24h240v24
			c0,8.824,7.176,16,16,16h32c8.824,0,16-7.176,16-16v-32h-0.155c0.001-0.358,0.133-0.699,0.085-1.059l-16-120
			c-0.149-1.115-0.566-2.118-1.116-3.031l0.046-0.027L374.13,280H404C419.438,280,432,267.438,432,252z"/>
	</g>
</g>
<g>
	<g>
		<rect x="112" y="280" width="40" height="16"/>
	</g>
</g>
<g>
	<g>
		<rect x="176" y="280" width="160" height="16"/>
	</g>
</g>
<g>
</g>
<g>
</g>
<g>
</g>
<g>
</g>
<g>
</g>
<g>
</g>
<g>
</g>
<g>
</g>
<g>
</g>
<g>
</g>
<g>
</g>
<g>
</g>
<g>
</g>
<g>
</g>
<g>
</g>
</svg>
