<?xml version="1.0" encoding="iso-8859-1"?>
<!-- Generator: Adobe Illustrator 19.0.0, SVG Export Plug-In . SVG Version: 6.00 Build 0)  -->
<svg version="1.1" id="Capa_1" xmlns="http://www.w3.org/2000/svg" xmlns:xlink="http://www.w3.org/1999/xlink" x="0px" y="0px"
	 viewBox="0 0 464 464" style="enable-background:new 0 0 464 464;" xml:space="preserve">
<g>
	<g>
		<path d="M272,0H96c-8.82,0-16,7.18-16,16v64.406c0,6.313,3.727,12.055,9.5,14.617l43.5,19.328c11.539,5.133,19,16.609,19,29.242
			V312c0,8.82,7.18,16,16,16h32c8.82,0,16-7.18,16-16V143.594c0-12.633,7.461-24.109,19-29.242l43.5-19.328
			c5.773-2.563,9.5-8.305,9.5-14.617V16C288,7.18,280.82,0,272,0z"/>
	</g>
</g>
<g>
	<g>
		<path d="M312,24h-8v32h8c4.414,0,8-3.586,8-8V32C320,27.586,316.414,24,312,24z"/>
	</g>
</g>
<g>
	<g>
		<path d="M344,208v256h32V208H344z M368,432h-16v-16h16V432z M368,384h-16v-16h16V384z M368,336h-16v-16h16V336z M368,288h-16v-16
			h16V288z M368,240h-16v-16h16V240z"/>
	</g>
</g>
<g>
	<g>
		<path d="M376,168H232v144c0,17.648-14.352,32-32,32h-32c-17.648,0-32-14.352-32-32V168H88c-22.055,0-40,17.945-40,40v256h24V208
			c0-4.422,3.578-8,8-8h40v16H88v248h208v-40h-40c-4.422,0-8-3.578-8-8v-56c0-4.422,3.578-8,8-8h40v-40h-48c-4.422,0-8-3.578-8-8
			v-48c0-4.422,3.578-8,8-8h24v-32h-24v-16h32c4.422,0,8,3.578,8,8v48c0,4.422-3.578,8-8,8h-24v32h48c4.422,0,8,3.578,8,8v56
			c0,4.422-3.578,8-8,8h-40v40h40c4.422,0,8,3.578,8,8v48h16V200c0-4.422,3.578-8,8-8h48c4.422,0,8,3.578,8,8v264h24V208
			C416,185.945,398.055,168,376,168z"/>
	</g>
</g>
<g>
</g>
<g>
</g>
<g>
</g>
<g>
</g>
<g>
</g>
<g>
</g>
<g>
</g>
<g>
</g>
<g>
</g>
<g>
</g>
<g>
</g>
<g>
</g>
<g>
</g>
<g>
</g>
<g>
</g>
</svg>
