<?xml version="1.0" encoding="iso-8859-1"?>
<!-- Generator: Adobe Illustrator 19.0.0, SVG Export Plug-In . SVG Version: 6.00 Build 0)  -->
<svg version="1.1" id="Capa_1" xmlns="http://www.w3.org/2000/svg" xmlns:xlink="http://www.w3.org/1999/xlink" x="0px" y="0px"
	 viewBox="0 0 448 448" style="enable-background:new 0 0 448 448;" xml:space="preserve">
<g>
	<g>
		<path d="M88,96v280c0,39.703,32.301,72,72,72h128c39.699,0,72-32.297,72-72V96H88z M304,392c0,17.648-14.355,32-32,32h-96
			c-17.645,0-32-14.352-32-32v-16c0-17.648,14.355-32,32-32h96c17.645,0,32,14.352,32,32V392z M328,288c0,17.648-14.355,32-32,32
			H152c-17.645,0-32-14.352-32-32v-32c0-17.648,14.355-32,32-32h144c17.645,0,32,14.352,32,32V288z M328,176
			c0,17.648-14.355,32-32,32H152c-17.645,0-32-14.352-32-32v-32c0-17.648,14.355-32,32-32h144c17.645,0,32,14.352,32,32V176z"/>
	</g>
</g>
<g>
	<g>
		<path d="M296,240H152c-8.824,0-16,7.18-16,16v32c0,8.82,7.176,16,16,16h144c8.824,0,16-7.18,16-16v-32
			C312,247.18,304.824,240,296,240z M232,280h-16v-16h16V280z"/>
	</g>
</g>
<g>
	<g>
		<path d="M288,0H160c-39.699,0-72,32.297-72,72v8h272v-8C360,32.297,327.699,0,288,0z M327.156,59.578
			C325.801,62.289,323.031,64,320,64H128c-3.031,0-5.801-1.711-7.156-4.422s-1.063-5.953,0.758-8.383
			C138.137,29.156,164.453,16,192,16h64c27.547,0,53.863,13.156,70.398,35.195C328.219,53.625,328.512,56.867,327.156,59.578z"/>
	</g>
</g>
<g>
	<g>
		<path d="M296,128H152c-8.824,0-16,7.18-16,16v32c0,8.82,7.176,16,16,16h144c8.824,0,16-7.18,16-16v-32
			C312,135.18,304.824,128,296,128z M232,168h-16v-16h16V168z"/>
	</g>
</g>
<g>
	<g>
		<path d="M272,360h-96c-8.824,0-16,7.18-16,16v16c0,8.82,7.176,16,16,16h96c8.824,0,16-7.18,16-16v-16
			C288,367.18,280.824,360,272,360z M232,392h-16v-16h16V392z"/>
	</g>
</g>
<g>
	<g>
		<path d="M256,32h-64c-16.535,0-32.527,5.797-45.215,16h154.43C288.527,37.797,272.535,32,256,32z"/>
	</g>
</g>
<g>
</g>
<g>
</g>
<g>
</g>
<g>
</g>
<g>
</g>
<g>
</g>
<g>
</g>
<g>
</g>
<g>
</g>
<g>
</g>
<g>
</g>
<g>
</g>
<g>
</g>
<g>
</g>
<g>
</g>
</svg>
