<?xml version="1.0" encoding="iso-8859-1"?>
<!-- Generator: Adobe Illustrator 19.0.0, SVG Export Plug-In . SVG Version: 6.00 Build 0)  -->
<svg version="1.1" id="Capa_1" xmlns="http://www.w3.org/2000/svg" xmlns:xlink="http://www.w3.org/1999/xlink" x="0px" y="0px"
	 viewBox="0 0 448 448" style="enable-background:new 0 0 448 448;" xml:space="preserve">
<g>
	<g>
		<path d="M368,432c-3.645,0-6.828-2.465-7.742-5.992L314.106,248H133.894L87.742,426.008C86.828,429.535,83.645,432,80,432H32v16
			h384v-16H368z M280,432H112v-16h168V432z M336,432h-40v-16h40V432z"/>
	</g>
</g>
<g>
	<g>
		<polygon points="249.809,0 198.191,0 189.895,32 258.105,32 		"/>
	</g>
</g>
<g>
	<g>
		<polygon points="293.365,168 154.635,168 138.042,232 309.958,232 		"/>
	</g>
</g>
<g>
	<g>
		<polygon points="262.253,48 185.747,48 169.154,112 278.846,112 		"/>
	</g>
</g>
<g>
	<g>
		<polygon points="282.995,128 165.005,128 158.783,152 289.217,152 		"/>
	</g>
</g>
<g>
</g>
<g>
</g>
<g>
</g>
<g>
</g>
<g>
</g>
<g>
</g>
<g>
</g>
<g>
</g>
<g>
</g>
<g>
</g>
<g>
</g>
<g>
</g>
<g>
</g>
<g>
</g>
<g>
</g>
</svg>
