<?xml version="1.0" encoding="iso-8859-1"?>
<!-- Generator: Adobe Illustrator 19.0.0, SVG Export Plug-In . SVG Version: 6.00 Build 0)  -->
<svg version="1.1" id="Capa_1" xmlns="http://www.w3.org/2000/svg" xmlns:xlink="http://www.w3.org/1999/xlink" x="0px" y="0px"
	 viewBox="0 0 464 464" style="enable-background:new 0 0 464 464;" xml:space="preserve">
<g>
	<g>
		<circle cx="360" cy="424" r="8"/>
	</g>
</g>
<g>
	<g>
		<path d="M445.055,346.125l-79.023-26.352c-17.367-5.781-33.055-16-45.367-29.547l-50.68-55.75
			C263.93,227.82,255.297,224,246.305,224H80.719c-12.195,0-23.164,6.773-28.617,17.688l-33.805,67.609
			C11.563,322.766,8,337.852,8,352.914V408c0,8.82,7.18,16,16,16h24c0-30.875,25.125-56,56-56c28.152,0,51.457,20.91,55.361,48
			h145.278c3.904-27.09,27.209-48,55.361-48c30.875,0,56,25.125,56,56h24c8.82,0,16-7.18,16-16v-46.703
			C456,354.398,451.602,348.305,445.055,346.125z M303.391,307.063C302.156,310.055,299.234,312,296,312H56
			c-2.57,0-4.984-1.234-6.492-3.32c-1.5-2.086-1.914-4.773-1.094-7.211l16-48C65.5,250.203,68.555,248,72,248h176
			c2.125,0,4.156,0.844,5.656,2.344l48,48C303.945,300.633,304.633,304.07,303.391,307.063z"/>
	</g>
</g>
<g>
	<g>
		<path d="M360,384c-22.055,0-40,17.945-40,40s17.945,40,40,40s40-17.945,40-40S382.055,384,360,384z M360,448
			c-13.234,0-24-10.766-24-24s10.766-24,24-24s24,10.766,24,24S373.234,448,360,448z"/>
	</g>
</g>
<g>
	<g>
		<path d="M104,384c-22.055,0-40,17.945-40,40s17.945,40,40,40s40-17.945,40-40S126.055,384,104,384z M104,448
			c-13.234,0-24-10.766-24-24s10.766-24,24-24s24,10.766,24,24S117.234,448,104,448z"/>
	</g>
</g>
<g>
	<g>
		<polygon points="244.688,264 77.766,264 67.102,296 276.688,296 		"/>
	</g>
</g>
<g>
	<g>
		<circle cx="104" cy="424" r="8"/>
	</g>
</g>
<g>
	<g>
		<path d="M232,24h-72V0h-16v24H72c-4.422,0-8,3.578-8,8v32c0,4.422,3.578,8,8,8h40v56h16V72h48v32h16V72h40c4.422,0,8-3.578,8-8V32
			C240,27.578,236.422,24,232,24z"/>
	</g>
</g>
<g>
	<g>
		<rect x="80" y="88" width="16" height="24"/>
	</g>
</g>
<g>
	<g>
		<rect x="80" y="128" width="16" height="16"/>
	</g>
</g>
<g>
	<g>
		<rect x="80" y="160" width="16" height="16"/>
	</g>
</g>
<g>
	<g>
		<rect x="112" y="144" width="16" height="16"/>
	</g>
</g>
<g>
	<g>
		<rect x="112" y="176" width="16" height="16"/>
	</g>
</g>
<g>
	<g>
		<rect x="144" y="88" width="16" height="24"/>
	</g>
</g>
<g>
	<g>
		<rect x="144" y="128" width="16" height="32"/>
	</g>
</g>
<g>
	<g>
		<rect x="144" y="176" width="16" height="16"/>
	</g>
</g>
<g>
	<g>
		<rect x="176" y="120" width="16" height="16"/>
	</g>
</g>
<g>
	<g>
		<rect x="176" y="152" width="16" height="24"/>
	</g>
</g>
<g>
	<g>
		<rect x="208" y="88" width="16" height="24"/>
	</g>
</g>
<g>
	<g>
		<rect x="208" y="128" width="16" height="32"/>
	</g>
</g>
<g>
	<g>
		<rect x="208" y="176" width="16" height="16"/>
	</g>
</g>
<g>
</g>
<g>
</g>
<g>
</g>
<g>
</g>
<g>
</g>
<g>
</g>
<g>
</g>
<g>
</g>
<g>
</g>
<g>
</g>
<g>
</g>
<g>
</g>
<g>
</g>
<g>
</g>
<g>
</g>
</svg>
