<?xml version="1.0" encoding="iso-8859-1"?>
<!-- Generator: Adobe Illustrator 19.0.0, SVG Export Plug-In . SVG Version: 6.00 Build 0)  -->
<svg version="1.1" id="Capa_1" xmlns="http://www.w3.org/2000/svg" xmlns:xlink="http://www.w3.org/1999/xlink" x="0px" y="0px"
	 viewBox="0 0 447.797 447.797" style="enable-background:new 0 0 447.797 447.797;" xml:space="preserve">
<g>
	<g>
		<path d="M335.797,95.797v145.278c5.24-0.755,10.554-1.278,16-1.278s10.76,0.523,16,1.278V95.797H335.797z"/>
	</g>
</g>
<g>
	<g>
		<circle cx="223.797" cy="223.797" r="16"/>
	</g>
</g>
<g>
	<g>
		<rect x="303.797" y="167.797" width="16" height="16"/>
	</g>
</g>
<g>
	<g>
		<path d="M351.797,255.797c-52.938,0-96,43.063-96,96s43.063,96,96,96s96-43.063,96-96S404.734,255.797,351.797,255.797z
			 M362.133,373.445l-6.245-6.245c-1.314,0.35-2.668,0.597-4.091,0.597c-8.82,0-16-7.18-16-16c0-1.422,0.247-2.777,0.597-4.091
			l-22.253-22.253l11.313-11.313l22.253,22.253c1.314-0.35,2.668-0.597,4.091-0.597c8.82,0,16,7.18,16,16
			c0,1.422-0.247,2.777-0.597,4.091l6.245,6.245L362.133,373.445z M405.133,411.422L394.461,399.5
			c13.563-12.133,21.336-29.523,21.336-47.703c0-35.289-28.711-64-64-64s-64,28.711-64,64c0,18.18,7.773,35.57,21.336,47.703
			l-10.672,11.922c-16.945-15.164-26.664-36.898-26.664-59.625c0-44.109,35.891-80,80-80s80,35.891,80,80
			C431.797,374.523,422.078,396.258,405.133,411.422z"/>
	</g>
</g>
<g>
	<g>
		<path d="M124.938,255.797H75.253c4.022,18.683,11.484,36.084,21.694,51.537l34.982-34.982
			C129.125,267.047,126.789,261.516,124.938,255.797z"/>
	</g>
</g>
<g>
	<g>
		<path d="M175.242,315.664l-34.982,34.982c15.453,10.21,32.854,17.672,51.537,21.694v-49.685
			C186.086,320.813,180.555,318.469,175.242,315.664z"/>
	</g>
</g>
<g>
	<g>
		<path d="M140.26,96.947l34.982,34.982c5.305-2.805,10.836-5.141,16.555-6.992V75.253C173.114,79.275,155.712,86.737,140.26,96.947
			z"/>
	</g>
</g>
<g>
	<g>
		<path d="M96.947,140.26c-10.21,15.453-17.672,32.854-21.694,51.537h49.685c1.852-5.719,4.188-11.25,6.992-16.555L96.947,140.26z"
			/>
	</g>
</g>
<g>
	<g>
		<path d="M345.395,35.822l-10.941,16.412l-13.313-8.875l10.534-15.801C301.851,11.098,267.898,1.276,231.797,0v15.797h-16V0
			c-36.101,1.276-70.054,11.098-99.877,27.559l10.534,15.801l-13.313,8.875l-10.941-16.412
			c-26.516,17.212-49.165,39.861-66.377,66.377l16.412,10.941l-8.875,13.313l-15.801-10.534C11.098,145.743,1.276,179.696,0,215.797
			h23.797v16H0c1.276,36.101,11.098,70.054,27.559,99.877l15.801-10.534l8.875,13.313l-16.412,10.941
			c17.212,26.516,39.861,49.165,66.377,66.377l10.941-16.412l13.313,8.875l-10.534,15.801c29.823,16.46,63.776,26.283,99.877,27.559
			v-15.797h16v15.662c17.284-0.614,34.345-3.108,50.967-7.646c-26.109-20.523-42.967-52.306-42.967-88.016
			c0-50.635,33.796-93.475,80-107.283v-44.717h-24c-4.422,0-8-3.578-8-8v-32c0-4.422,3.578-8,8-8h24v-64c0-4.422,3.578-8,8-8h48
			c4.422,0,8,3.578,8,8v156.717c22.435,6.705,41.885,20.273,56.016,38.25c5.239-19.189,7.984-38.941,7.984-58.967
			C447.797,145.089,406.958,75.785,345.395,35.822z M223.797,255.797c-17.648,0-32-14.352-32-32s14.352-32,32-32s32,14.352,32,32
			S241.445,255.797,223.797,255.797z M292.195,88.016c-21.328-10.758-44.344-16.219-68.398-16.219c-5.405,0-10.739,0.307-16,0.86
			v58.289c0,3.648-2.469,6.836-6.008,7.75c-8.375,2.156-16.359,5.531-23.719,10.031c-1.289,0.789-2.734,1.172-4.172,1.172
			c-2.063,0-4.117-0.797-5.656-2.344l-41.035-41.035c-7.538,6.22-14.468,13.149-20.688,20.688l41.035,41.035
			c2.617,2.609,3.094,6.672,1.172,9.828c-4.5,7.359-7.875,15.344-10.031,23.719c-0.914,3.539-4.102,6.008-7.75,6.008H72.657
			c-0.553,5.261-0.86,10.595-0.86,16s0.307,10.739,0.86,16h58.289c3.648,0,6.836,2.469,7.75,6.008
			c2.156,8.375,5.531,16.359,10.031,23.719c1.922,3.156,1.445,7.219-1.172,9.828l-41.035,41.035
			c6.22,7.538,13.149,14.468,20.688,20.688l41.035-41.035c2.609-2.625,6.68-3.094,9.82-1.172
			c7.391,4.508,15.375,7.883,23.727,10.031c3.539,0.914,6.008,4.102,6.008,7.75v58.289c5.261,0.553,10.595,0.86,16,0.86v16
			c-92.633,0-168-75.367-168-168s75.367-168,168-168c26.586,0,52.023,6.031,75.602,17.938L292.195,88.016z"/>
	</g>
</g>
<g>
</g>
<g>
</g>
<g>
</g>
<g>
</g>
<g>
</g>
<g>
</g>
<g>
</g>
<g>
</g>
<g>
</g>
<g>
</g>
<g>
</g>
<g>
</g>
<g>
</g>
<g>
</g>
<g>
</g>
</svg>
