<?xml version="1.0" encoding="iso-8859-1"?>
<!-- Generator: Adobe Illustrator 19.0.0, SVG Export Plug-In . SVG Version: 6.00 Build 0)  -->
<svg version="1.1" id="Capa_1" xmlns="http://www.w3.org/2000/svg" xmlns:xlink="http://www.w3.org/1999/xlink" x="0px" y="0px"
	 viewBox="0 0 463.03 463.03" style="enable-background:new 0 0 463.03 463.03;" xml:space="preserve">
<g>
	<g>
		<path d="M457.57,272.737c-1-21.051-4.887-41.875-11.559-61.887l-13.703-41.105c-4.152-12.465-14.074-22.387-26.539-26.539
			l-17.314-5.773c-10.242,13.391-26.333,22.082-44.456,22.082c-0.289,0-0.568-0.039-0.855-0.043l-4.754,5.547
			c-14.375,16.77-33.305,28.469-54.738,33.828l-21.176,5.297c-3.816,0.953-6.477,4.363-6.477,8.293c0,2.516,1.047,4.809,2.945,6.457
			c1.902,1.648,4.344,2.348,6.809,2.004l64.09-9.152c20.832-3.023,41.273,6.75,52.102,24.793c6.793,11.32,9.035,24.668,6.313,37.582
			l-23.387,111.082c-0.738,3.516,0.137,7.133,2.398,9.922c2.266,2.789,5.625,4.391,9.219,4.391c5.457,0,10.188-3.695,11.512-8.992
			l28.238-112.949c0.957-3.824,4.563-6.434,8.492-6.023c3.926,0.359,7.008,3.527,7.254,7.465l6.836,109.371
			c0.391,6.242,5.594,11.129,11.844,11.129c3.777,0,6.824-1.305,9.086-3.676c2.262-2.375,3.422-5.484,3.266-8.758L457.57,272.737z"
			/>
	</g>
</g>
<g>
	<g>
		<circle cx="344" cy="103.515" r="40"/>
	</g>
</g>
<g>
	<g>
		<circle cx="160" cy="331.635" r="8"/>
	</g>
</g>
<g>
	<g>
		<path d="M160,291.632c-22.055,0-40,17.945-40,40s17.945,40,40,40s40-17.945,40-40S182.055,291.632,160,291.632z M160,355.632
			c-13.234,0-24-10.766-24-24s10.766-24,24-24s24,10.766,24,24S173.234,355.632,160,355.632z"/>
	</g>
</g>
<g>
	<g>
		<polygon points="44.688,171.632 0,171.632 0,203.632 76.688,203.632 		"/>
	</g>
</g>
<g>
	<g>
		<path d="M245.055,253.757l-79.023-26.352c-5.648-1.88-11.029-4.39-16.264-7.17l65.092-108.486l-13.719-8.234l-64.89,108.149
			c-5.581-4.136-10.893-8.641-15.587-13.806l-50.68-55.75c-6.055-6.656-14.688-10.477-23.68-10.477H0v24h48
			c2.125,0,4.156,0.844,5.656,2.344l48,48c2.289,2.289,2.977,5.727,1.734,8.719c-1.234,2.992-4.156,4.938-7.391,4.938H0v104h104.639
			c3.904-27.09,27.209-48,55.361-48c30.875,0,56,25.125,56,56h24c8.82,0,16-7.18,16-16v-46.703
			C256,262.03,251.602,255.937,245.055,253.757z"/>
	</g>
</g>
<g>
	<g>
		<rect x="208" y="143.515" width="16" height="16"/>
	</g>
</g>
<g>
	<g>
		<rect x="224" y="159.515" width="16" height="16"/>
	</g>
</g>
<g>
	<g>
		<rect x="176" y="191.515" width="16" height="16"/>
	</g>
</g>
<g>
	<g>
		<rect x="248" y="103.515" width="16" height="16"/>
	</g>
</g>
<g>
	<g>
		<rect x="288" y="263.515" width="16" height="16"/>
	</g>
</g>
<g>
	<g>
		<rect x="160" y="79.515" width="16" height="16"/>
	</g>
</g>
<g>
</g>
<g>
</g>
<g>
</g>
<g>
</g>
<g>
</g>
<g>
</g>
<g>
</g>
<g>
</g>
<g>
</g>
<g>
</g>
<g>
</g>
<g>
</g>
<g>
</g>
<g>
</g>
<g>
</g>
</svg>
