<?xml version="1.0" encoding="iso-8859-1"?>
<!-- Generator: Adobe Illustrator 19.0.0, SVG Export Plug-In . SVG Version: 6.00 Build 0)  -->
<svg version="1.1" id="Capa_1" xmlns="http://www.w3.org/2000/svg" xmlns:xlink="http://www.w3.org/1999/xlink" x="0px" y="0px"
	 viewBox="0 0 479.939 479.939" style="enable-background:new 0 0 479.939 479.939;" xml:space="preserve">
<g>
	<g>
		<circle cx="415.939" cy="288.171" r="8"/>
	</g>
</g>
<g>
	<g>
		<circle cx="111.939" cy="240.171" r="16"/>
	</g>
</g>
<g>
	<g>
		<path d="M191.939,256.171c0.8-5.6,8-10.4,8-16c0-5.6-7.2-10.4-8-16c-0.8-5.6,3.2-12.8,1.6-17.6c-1.6-4.8-10.4-7.2-13.6-11.2
			s-1.6-12.8-5.6-16.8s-12-2.4-16.8-5.6c-4.8-3.2-6.4-11.2-11.2-13.6c-4.8-2.4-12.8,1.6-18.4,0.8c-5.6-0.8-10.4-8-16-8
			c-5.6,0-10.4,7.2-16,8s-12.8-3.2-17.6-1.6c-4.8,1.6-7.2,10.4-11.2,13.6s-12.8,1.6-16.8,5.6s-2.4,12-5.6,16.8
			c-3.2,4.8-11.2,6.4-13.6,11.2c-2.4,4.8,1.6,12.8,0.8,18.4c-0.8,5.6-8,10.4-8,16c0,5.6,7.2,10.4,8,16c0.8,5.6-3.2,12.8-1.6,17.6
			c1.6,4.8,10.4,7.2,13.6,11.2s1.6,12.8,5.6,16.8s12,2.4,16.8,5.6c4.8,3.2,6.4,11.2,11.2,13.6c4.8,2.4,12-2.4,17.6-1.6
			c5.6,0.8,10.4,8,16,8c5.6,0,10.4-7.2,16-8c5.6-0.8,12.8,3.2,17.6,1.6c4.8-1.6,7.2-10.4,11.2-13.6s12.8-1.6,16.8-5.6
			s2.4-12,5.6-16.8s11.2-6.4,13.6-11.2C194.339,268.971,191.139,261.771,191.939,256.171z M111.939,266.571
			c-14.4,0-26.4-12-26.4-26.4c0-14.4,12-26.4,26.4-26.4s26.4,12,26.4,26.4C138.339,254.571,126.339,266.571,111.939,266.571z"/>
	</g>
</g>
<g>
	<g>
		<path d="M426.339,224.171l-271.2-88c-60-23.2-122.4,3.2-146.4,60s3.2,122.4,60,146.4c10.4,4,21.6,7.2,32.8,8
			c0,0.8,314.4,1.6,314.4,1.6c35.2,0,64-28.8,64-64C479.139,257.771,464.739,236.171,426.339,224.171z M455.939,261.771
			c4.978,7.112,7.738,15.488,8.22,24.004c-1.732-3.771-6.894-7.089-8.22-10.404C454.339,271.371,457.539,264.971,455.939,261.771z
			 M453.539,258.571c-3.2-2.4-9.6-1.6-13.6-4c-4-2.4-4.8-9.6-9.6-12C439.939,245.771,447.939,251.371,453.539,258.571z
			 M435.139,288.171c0,10.4-8.8,19.2-19.2,19.2s-19.2-8.8-19.2-19.2s8.8-19.2,19.2-19.2S435.139,277.771,435.139,288.171z
			 M415.939,336.171h-88v-8h-16v8h-16v-8h-16v8h-16v-8h-16v8h-16v-8h-16v8c0,0-110.4,0-111.2,0c-52.8-4-92-50.4-88-103.2
			s49.6-92.8,103.2-88.8c10.4,0.8,22.4,4.8,29.6,7.2l84.8,27.2l-2.4,8l15.2,4.8l2.4-7.2l15.2,4.8l-2.4,7.2l15.2,4.8l1.6-6.4
			l15.2,4.8l-1.6,6.4l15.2,4.8l1.6-5.6l15.2,4.8l-1.6,4.8l15.2,4.8l1.6-4.8l77.6,24.8c1.6,0.8,8.8,2.4,11.2,3.2c-4,0-9.6,4-13.6,4
			c-4.8,0-10.4-5.6-15.2-4c-4.8,1.6-5.6,9.6-9.6,12c-4,2.4-12,1.6-14.4,5.6c-2.4,4,0.8,11.2-0.8,15.2c-1.6,4-8,8-8,12.8
			s7.2,8.8,8.8,12.8c1.6,4.8-1.6,12,0.8,15.2c2.4,3.2,10.4,2.4,14.4,5.6s4.8,10.4,9.6,12c4,1.6,10.4-4,15.2-4c4.8,0,10.4,5.6,14.4,4
			C425.539,335.371,420.739,336.171,415.939,336.171z M431.139,333.771c4-1.6,5.6-8.8,9.6-12s11.2-1.6,14.4-4.8
			C448.739,324.971,440.739,330.571,431.139,333.771z M455.139,316.171c2.4-4-0.8-10.4,0.8-15.2
			c1.336-4.01,6.567-6.906,8.257-10.548C463.823,299.535,460.836,308.574,455.139,316.171z"/>
	</g>
</g>
<g>
</g>
<g>
</g>
<g>
</g>
<g>
</g>
<g>
</g>
<g>
</g>
<g>
</g>
<g>
</g>
<g>
</g>
<g>
</g>
<g>
</g>
<g>
</g>
<g>
</g>
<g>
</g>
<g>
</g>
</svg>
