<svg xmlns="http://www.w3.org/2000/svg" width="80" height="80" viewBox="0 0 80 80">
  <g id="setting_9298146" transform="translate(-8.978 -8.976)">
    <path id="Path_3520" data-name="Path 3520" d="M85.967,56.4l-6.255-6.241a1.74,1.74,0,0,0-2.455,0l-2.5,2.474c-.188-.078-.377-.154-.57-.227V48.893a1.736,1.736,0,0,0-1.738-1.734H63.592A1.727,1.727,0,0,0,61.975,48.3a33.415,33.415,0,0,0-10.688-5.085,18.282,18.282,0,1,0-17.613.016A33.45,33.45,0,0,0,8.982,75.436a16.06,16.06,0,0,0,.1,2.191,1.823,1.823,0,0,0,.082.25,1.873,1.873,0,0,0,.087.264,1.711,1.711,0,0,0,.21.31,1.656,1.656,0,0,0,.162.2,1.708,1.708,0,0,0,.348.229,1.459,1.459,0,0,0,.193.116,1.713,1.713,0,0,0,.646.13H49.7a1.7,1.7,0,0,0,.384.6l6.255,6.241a1.74,1.74,0,0,0,2.455,0l2.493-2.477c.188.083.379.161.572.238v3.511a1.736,1.736,0,0,0,1.738,1.734h8.861a1.736,1.736,0,0,0,1.738-1.734v-3.5c.193-.076.382-.154.572-.238l2.5,2.477a1.74,1.74,0,0,0,2.455,0l6.255-6.241a1.731,1.731,0,0,0,0-2.448l-2.481-2.5c.082-.187.162-.378.238-.57H87.24a1.736,1.736,0,0,0,1.738-1.734V63.647a1.736,1.736,0,0,0-1.738-1.734H83.73c-.076-.192-.155-.383-.236-.569l2.483-2.491a1.731,1.731,0,0,0-.01-2.448ZM61.283,52.638l-2.052-2.044a30.259,30.259,0,0,1,2.488,1.864C61.566,52.516,61.424,52.575,61.283,52.638ZM27.65,27.235A14.818,14.818,0,1,1,42.467,42.019,14.8,14.8,0,0,1,27.65,27.235Zm-15.193,48.2a30.016,30.016,0,0,1,45.3-25.768.264.264,0,0,1-.09,0,1.788,1.788,0,0,0-.459.049,1.438,1.438,0,0,0-.243.049,1.691,1.691,0,0,0-.629.39L50.08,56.4a1.731,1.731,0,0,0,0,2.448l2.483,2.491c-.082.186-.16.376-.236.569h-3.52a1.736,1.736,0,0,0-1.738,1.734V72.48a1.736,1.736,0,0,0,1.738,1.734h3.515c.076.194.156.385.238.572l-.869.867H12.457ZM85.5,65.38v5.374H82.5a1.737,1.737,0,0,0-1.658,1.214,13.14,13.14,0,0,1-.982,2.347,1.731,1.731,0,0,0,.3,2.048L82.285,78.5l-3.8,3.8-2.144-2.126a1.74,1.74,0,0,0-2.054-.3,13.006,13.006,0,0,1-2.351.981,1.734,1.734,0,0,0-1.216,1.654v3H65.33v-3a1.734,1.734,0,0,0-1.216-1.654,13.077,13.077,0,0,1-2.353-.981,1.74,1.74,0,0,0-2.052.3L57.567,82.3l-3.8-3.792,2.128-2.143a1.731,1.731,0,0,0,.3-2.046,13.139,13.139,0,0,1-.982-2.347,1.737,1.737,0,0,0-1.658-1.214H50.544V65.38h3.006a1.737,1.737,0,0,0,1.658-1.214,13.16,13.16,0,0,1,.982-2.347,1.731,1.731,0,0,0-.3-2.048l-2.132-2.138,3.805-3.8,2.142,2.127a1.74,1.74,0,0,0,2.05.3,13.5,13.5,0,0,1,2.356-.983,1.734,1.734,0,0,0,1.216-1.652v-3h5.386v3A1.734,1.734,0,0,0,72,55.3a1.41,1.41,0,0,1,.24.087,1.914,1.914,0,0,0,.238.1,10.264,10.264,0,0,1,1.8.77,1.74,1.74,0,0,0,2.064-.288l2.144-2.127,3.8,3.8-2.132,2.138a1.731,1.731,0,0,0-.3,2.048,13.16,13.16,0,0,1,.982,2.347A1.737,1.737,0,0,0,82.5,65.38Z" fill="#2fb2c3"/>
    <path id="Path_3521" data-name="Path 3521" d="M46.977,37.615a9.442,9.442,0,1,0,9.463,9.441A9.452,9.452,0,0,0,46.977,37.615Zm0,15.414a5.974,5.974,0,1,1,5.988-5.974A5.981,5.981,0,0,1,46.977,53.029Z" transform="translate(21.047 21.013)" fill="#2fb2c3"/>
  </g>
</svg>
