<svg xmlns="http://www.w3.org/2000/svg" width="80.25" height="75.7" viewBox="0 0 80.25 75.7">
  <g id="add-user_3_" data-name="add-user (3)" transform="translate(0.25 -14.75)">
    <path id="XMLID_108_" d="M390.907,192.9l-8.01-.066v-7.763a1.28,1.28,0,0,0-2.56,0v7.741l-7.408-.061h-.01a1.287,1.287,0,0,0-.01,2.574l7.428.06v7.925a1.28,1.28,0,0,0,2.56,0v-7.9l7.99.065h.01a1.286,1.286,0,0,0,.01-2.571Z" transform="translate(-312.177 -141.786)" fill="#2fb2c3"/>
    <path id="XMLID_105_" d="M19.571,0A19.389,19.389,0,1,1,0,19.388,19.48,19.48,0,0,1,19.571,0Z" transform="translate(15.904 16.28)" fill="none"/>
    <path id="XMLID_837_" d="M60.593,64.01a35.348,35.348,0,0,0-16.9-9.351,20.851,20.851,0,1,0-16.443,0,35.278,35.278,0,0,0-16.867,9.354A34.854,34.854,0,0,0,0,88.92a1.28,1.28,0,1,0,2.56,0,32.944,32.944,0,0,1,65.884,0,1.28,1.28,0,1,0,2.56,0A34.819,34.819,0,0,0,60.593,64.01ZM17.183,35.668A18.292,18.292,0,1,1,35.475,53.776,18.221,18.221,0,0,1,17.183,35.668Z" transform="translate(0 0)" fill="#2fb2c3" stroke="#2fb2c3" stroke-width="0.5"/>
  </g>
</svg>
