<svg xmlns="http://www.w3.org/2000/svg" width="21.947" height="22" viewBox="0 0 21.947 22">
  <g id="Layer_x0020_1" transform="translate(-0.5 0.5)">
    <path id="Path_3395" data-name="Path 3395" d="M9.536,17.594a9,9,0,0,1-6.4-2.619A9.061,9.061,0,1,1,15.932,2.14a9.12,9.12,0,0,1,0,12.835A9,9,0,0,1,9.536,17.594Zm0-1.846a7.011,7.011,0,0,1-5.065-2.1A7.194,7.194,0,0,1,14.644,3.471,7.19,7.19,0,0,1,9.536,15.748ZM4.9,3.943a6.529,6.529,0,0,0,0,9.272,6.556,6.556,0,0,0,9.272-9.272A6.529,6.529,0,0,0,4.9,3.943ZM14.258,10.9h-9.4a.316.316,0,0,1-.343-.343.306.306,0,0,1,.343-.3h.859V7.506a.332.332,0,0,1,.3-.343.339.339,0,0,1,.343.343v2.747H8.034V5.875a.332.332,0,0,1,.343-.3.293.293,0,0,1,.3.3v4.379h1.717V7.506a.332.332,0,0,1,.3-.343.339.339,0,0,1,.343.343v2.747h1.674V5.7a.332.332,0,0,1,.343-.3.293.293,0,0,1,.3.3v4.55h.9a.293.293,0,0,1,.3.3A.306.306,0,0,1,14.258,10.9Z" transform="translate(0)" fill="#585858" fill-rule="evenodd"/>
    <path id="Path_3396" data-name="Path 3396" d="M341.623,342.6a1.739,1.739,0,0,1-1.288-.6L336,337.7a9.882,9.882,0,0,0,1.46-1.2A10.052,10.052,0,0,0,338.7,335L343,339.336a1.848,1.848,0,0,1-.043,2.661,2.012,2.012,0,0,1-1.245.6Z" transform="translate(-321.098 -321.098)" fill="#585858" fill-rule="evenodd"/>
  </g>
</svg>
