<svg id="brush" xmlns="http://www.w3.org/2000/svg" width="16.308" height="22.016" viewBox="0 0 16.308 22.016">
  <path id="Path_3390" data-name="Path 3390" d="M19.862,10.969H16.6V2.815A.815.815,0,0,0,15.785,2H12.523a.815.815,0,0,0-.815.815v8.154H8.446A2.446,2.446,0,0,0,6,13.416v1.631H22.308V13.416A2.446,2.446,0,0,0,19.862,10.969Z" transform="translate(-6 -2)" fill="#585858"/>
  <path id="Path_3391" data-name="Path 3391" d="M6,26.523a.815.815,0,0,0,.815.815H9.262V24.077a.815.815,0,1,1,1.631,0v3.262h1.631V24.892a.815.815,0,0,1,1.631,0v2.446h7.339a.815.815,0,0,0,.815-.815V20H6Z" transform="translate(-6 -5.323)" fill="#585858"/>
</svg>
