<svg xmlns="http://www.w3.org/2000/svg" width="19.8" height="22" viewBox="0 0 19.8 22">
  <g id="building_800391" transform="translate(-18.75)">
    <g id="Group_588" data-name="Group 588" transform="translate(18.75)">
      <path id="Path_3477" data-name="Path 3477" d="M36.35,19.8V0H20.95V19.8h-2.2V22h19.8V19.8ZM27.55,2.2h2.2V4.4h-2.2Zm0,4.4h2.2V8.8h-2.2Zm0,4.4h2.2v2.2h-2.2Zm-2.2,2.2h-2.2V11h2.2Zm0-4.4h-2.2V6.6h2.2Zm0-4.4h-2.2V2.2h2.2Zm5.5,15.4h-4.4V15.4h4.4Zm3.3-6.6h-2.2V11h2.2Zm0-4.4h-2.2V6.6h2.2Zm0-4.4h-2.2V2.2h2.2Z" transform="translate(-18.75)" fill="#ebedef"/>
    </g>
  </g>
</svg>
