<svg xmlns="http://www.w3.org/2000/svg" width="21.728" height="22.006" viewBox="0 0 21.728 22.006">
  <g id="layout-circular.ba8ed808" transform="translate(0.232 0.5)">
    <path id="Path_3401" data-name="Path 3401" d="M20.377,13.278l-1.2,3.289M2.828,10.1V13.77m17.549-3.181L19.18,7.3M3.957,16.459l1.833,2.184M3.957,7.408,5.789,5.224m6.048-2.212-3.576.63m0,16.582,3.576.63M17.347,5.179l-2.82-1.628m0,16.764,2.82-1.628" transform="translate(-1.216 -1.43)" fill="none" stroke="#585858" stroke-miterlimit="10" stroke-width="0.171"/>
    <path id="Path_3402" data-name="Path 3402" d="M4.357,17.212H7.046V19.9H4.357ZM16.131,3.181H18.82V5.87H16.131ZM.268,12.339H2.957v2.689H.269Zm0-6.362H2.957V8.667H.269ZM18.307,9.159H21v2.689H18.307Zm-2.176,5.978H18.82v2.689H16.131Zm-5.509,3.181H13.31v2.689H10.622ZM4.357,1.1H7.046V3.794H4.357ZM10.622,0H13.31V2.689H10.622Z" fill="#585858" stroke="#585858" stroke-width="1"/>
  </g>
</svg>
