<svg xmlns="http://www.w3.org/2000/svg" width="43.997" height="56" viewBox="0 0 43.997 56">
  <g id="clipboard_839860" transform="translate(-47.037 0)">
    <g id="Group_586" data-name="Group 586" transform="translate(47.037 0)">
      <g id="Group_585" data-name="Group 585" transform="translate(0 0)">
        <path id="Path_3465" data-name="Path 3465" d="M85.434,7.337H80.368V5.071c0-.733-.8-1.067-1.533-1.067H74.9a5.963,5.963,0,0,0-5.933-4,6.066,6.066,0,0,0-5.933,4H59.17c-.733,0-1.467.333-1.467,1.067V7.337H52.637a5.666,5.666,0,0,0-5.6,5.4v38.2c0,2.933,2.666,5.066,5.6,5.066h32.8c2.933,0,5.6-2.133,5.6-5.066v-38.2A5.666,5.666,0,0,0,85.434,7.337ZM60.369,6.671h3.666a1.467,1.467,0,0,0,1.267-1.2,3.866,3.866,0,0,1,3.666-3,3.8,3.8,0,0,1,3.6,3,1.467,1.467,0,0,0,1.333,1.2h3.8V12H60.369Zm28,44.263c0,1.467-1.467,2.4-2.933,2.4h-32.8c-1.467,0-2.933-.933-2.933-2.4v-38.2A3,3,0,0,1,52.637,10H57.7v3.4a1.4,1.4,0,0,0,1.467,1.267H78.835A1.466,1.466,0,0,0,80.368,13.4V10h5.066a3,3,0,0,1,2.933,2.733v38.2Z" transform="translate(-47.037 0)" fill="#585858"/>
        <path id="Path_3466" data-name="Path 3466" d="M109.567,230.727a1.333,1.333,0,0,0-1.867-.067l-4.266,4.066-1.8-1.867a1.333,1.333,0,0,0-1.867-.067,1.4,1.4,0,0,0,0,1.933l2.733,2.8a1.2,1.2,0,0,0,.933.4,1.333,1.333,0,0,0,.933-.4l5.2-4.933a1.266,1.266,0,0,0,.077-1.79Q109.608,230.764,109.567,230.727Z" transform="translate(-92.702 -200.925)" fill="#585858"/>
        <path id="Path_3467" data-name="Path 3467" d="M215.213,256.034H199.881a1.333,1.333,0,1,0,0,2.666h15.332a1.333,1.333,0,0,0,0-2.666Z" transform="translate(-179.216 -223.365)" fill="#585858"/>
        <path id="Path_3468" data-name="Path 3468" d="M109.567,147.135a1.333,1.333,0,0,0-1.867-.067l-4.266,4.066-1.8-1.867a1.333,1.333,0,0,0-1.867-.067,1.4,1.4,0,0,0,0,1.933l2.733,2.8a1.2,1.2,0,0,0,.933.4,1.333,1.333,0,0,0,.933-.4l5.2-4.933a1.266,1.266,0,0,0,.077-1.79Q109.608,147.172,109.567,147.135Z" transform="translate(-92.702 -127.999)" fill="#585858"/>
        <path id="Path_3469" data-name="Path 3469" d="M215.213,172.442H199.881a1.333,1.333,0,0,0,0,2.666h15.332a1.333,1.333,0,0,0,0-2.666Z" transform="translate(-179.216 -150.439)" fill="#585858"/>
        <path id="Path_3470" data-name="Path 3470" d="M109.567,314.318a1.333,1.333,0,0,0-1.867-.067l-4.266,4.066-1.8-1.867a1.333,1.333,0,0,0-1.867-.067,1.4,1.4,0,0,0,0,1.933l2.733,2.8a1.2,1.2,0,0,0,.933.4,1.333,1.333,0,0,0,.933-.4l5.2-4.933a1.266,1.266,0,0,0,.077-1.79Q109.608,314.355,109.567,314.318Z" transform="translate(-92.702 -273.851)" fill="#585858"/>
        <path id="Path_3471" data-name="Path 3471" d="M215.213,339.626H199.881a1.333,1.333,0,1,0,0,2.666h15.332a1.333,1.333,0,0,0,0-2.666Z" transform="translate(-179.216 -296.292)" fill="#585858"/>
      </g>
    </g>
  </g>
</svg>
