<svg xmlns="http://www.w3.org/2000/svg" width="17.841" height="20.39" viewBox="0 0 17.841 20.39">
  <path id="Icon_awesome-copy" data-name="Icon awesome-copy" d="M12.743,17.841v1.593a.956.956,0,0,1-.956.956H.956A.956.956,0,0,1,0,19.434V4.779a.956.956,0,0,1,.956-.956H3.823V15.611a2.233,2.233,0,0,0,2.23,2.23Zm0-13.7V0H6.053A.956.956,0,0,0,5.1.956V15.611a.956.956,0,0,0,.956.956H16.885a.956.956,0,0,0,.956-.956V5.1H13.7A.959.959,0,0,1,12.743,4.142Zm4.817-1.236L14.935.28A.956.956,0,0,0,14.259,0h-.241V3.823h3.823V3.582a.956.956,0,0,0-.28-.676Z" fill="#585858"/>
</svg>
