<svg xmlns="http://www.w3.org/2000/svg" width="17.098" height="19.768" viewBox="0 0 17.098 19.768">
  <g id="Icon_ionic-ios-cut" data-name="Icon ionic-ios-cut" transform="translate(-5.344 -3.375)">
    <path id="Path_3347" data-name="Path 3347" d="M16.365,14.266a51.5,51.5,0,0,0,4.285-6.432,5.65,5.65,0,0,0,.494-2.195,2.407,2.407,0,0,0-.869-1.929,1.473,1.473,0,0,0-.95-.328l-5.435,7.3-.475.637-.138.185,0,0-.689.936s-.01.014-.014.019c-.024.038-.356.518-.722,1.078-.143.219-.29.451-.428.67-.166.266-.314.523-.418.722-.171.337-.347.684-.508,1.021-.176.356-.342.694-.494.983a2.779,2.779,0,0,0-1.629-.527,2.862,2.862,0,0,0-2.176,1.026,3.644,3.644,0,0,0,0,4.679A2.869,2.869,0,0,0,8.37,23.14a2.8,2.8,0,0,0,1.862-.713,3.361,3.361,0,0,0,1.036-1.682,13.828,13.828,0,0,1,1.24-2.722A4.27,4.27,0,0,1,13.914,16.7l.641-.461A9.915,9.915,0,0,0,16.365,14.266ZM8.379,21.1a1.346,1.346,0,0,1,0-2.66,1.346,1.346,0,0,1,0,2.66Zm5.52-6.314a.76.76,0,1,1,.76-.76A.762.762,0,0,1,13.9,14.789Z" transform="translate(0 -0.002)" fill="#585858"/>
    <path id="Path_3348" data-name="Path 3348" d="M11.449,13.466a.761.761,0,0,0,.119.128c.081-.133.171-.271.257-.409l2.209-3.126L9.045,3.375a1.441,1.441,0,0,0-.879.185,2.624,2.624,0,0,0-.917,2.071,5.72,5.72,0,0,0,.494,2.195A42.127,42.127,0,0,0,11.449,13.466Z" transform="translate(-0.618)" fill="#585858"/>
    <path id="Path_3349" data-name="Path 3349" d="M23.821,21.968a2.779,2.779,0,0,0-1.63.527c-.152-.29-.318-.627-.494-.983-.162-.328-.328-.665-.494-.988l-.518.66-1.729,1.572a4.089,4.089,0,0,1,.727.831,13.7,13.7,0,0,1,1.235,2.722,3.361,3.361,0,0,0,1.036,1.682,2.819,2.819,0,0,0,1.862.713,3.22,3.22,0,0,0,3.04-3.368A3.216,3.216,0,0,0,23.821,21.968Zm0,4.694a1.346,1.346,0,1,1,1.14-1.33A1.247,1.247,0,0,1,23.826,26.662Z" transform="translate(-4.415 -5.562)" fill="#585858"/>
  </g>
</svg>
