<svg xmlns="http://www.w3.org/2000/svg" width="80" height="80" viewBox="0 0 80 80">
  <path id="Shape" d="M64.414,11.658a7.972,7.972,0,1,0-.466-2.665h-4a2.665,2.665,0,0,0-2.665,2.665V39.636H51.958V31.642a4,4,0,0,0-4-4H31.974a4,4,0,0,0-4,4v7.994H22.648V11.658a2.665,2.665,0,0,0-2.665-2.665h-4V5c0-2.747-4.143-4-7.994-4S0,2.25,0,5v7.994c0,2.747,4.143,4,7.994,4s7.994-1.25,7.994-4V11.658h4V27.645h-4V26.313c0-2.747-4.143-4-7.994-4S0,23.566,0,26.313v7.994c0,2.747,4.143,4,7.994,4s7.994-1.25,7.994-4v-4h4V51.626h-4v-4c0-2.747-4.143-4-7.994-4S0,44.882,0,47.629v7.994c0,2.747,4.143,4,7.994,4s7.994-1.25,7.994-4V54.29h4V70.277h-4V68.945c0-2.747-4.143-4-7.994-4S0,66.2,0,68.945v7.994c0,2.747,4.143,4,7.994,4s7.994-1.25,7.994-4v-4h4a2.665,2.665,0,0,0,2.665-2.665V42.3h5.329v7.994a4,4,0,0,0,4,4H47.961a4,4,0,0,0,4-4V42.3h5.329V70.277a2.665,2.665,0,0,0,2.665,2.665h4a8.025,8.025,0,1,0,.466-2.664H59.951V54.29h4.463a7.972,7.972,0,1,0-.466-2.665h-4V30.31h4a8.025,8.025,0,1,0,.466-2.664H59.951V11.658Zm7.527-7.994a5.329,5.329,0,1,1-5.329,5.329A5.329,5.329,0,0,1,71.942,3.665Zm-63.948,0c3.128,0,4.953.9,5.3,1.332-.342.436-2.168,1.332-5.3,1.332S3.04,5.433,2.7,5c.342-.436,2.168-1.332,5.3-1.332Zm0,10.658c-3.309,0-5.161-1-5.329-1.332V8.069a14.474,14.474,0,0,0,5.329.925,14.436,14.436,0,0,0,5.329-.933v2.221c0,.013-.008.025-.008.039s.008.025.008.04v2.553C13.155,13.318,11.3,14.323,7.994,14.323Zm0,10.658c3.128,0,4.953.9,5.3,1.332-.342.436-2.168,1.332-5.3,1.332s-4.953-.9-5.3-1.332c.342-.436,2.168-1.332,5.3-1.332Zm0,10.658c-3.309,0-5.161-1-5.329-1.332V29.385a14.474,14.474,0,0,0,5.329.925,14.436,14.436,0,0,0,5.329-.933l.008,4.852c-.176.405-2.028,1.41-5.337,1.41Zm0,10.658c3.128,0,4.953.9,5.3,1.332-.342.436-2.168,1.332-5.3,1.332s-4.953-.9-5.3-1.332c.342-.436,2.168-1.332,5.3-1.332Zm0,10.658c-3.309,0-5.161-1-5.329-1.332V50.7a14.473,14.473,0,0,0,5.329.925,14.436,14.436,0,0,0,5.329-.933v2.221c0,.013-.008.025-.008.039s.008.025.008.04v2.553c-.168.405-2.02,1.41-5.329,1.41Zm0,10.658c3.128,0,4.953.9,5.3,1.332-.342.436-2.168,1.332-5.3,1.332s-4.953-.9-5.3-1.332c.342-.436,2.168-1.332,5.3-1.332Zm0,10.658c-3.309,0-5.161-1-5.329-1.332V72.017a14.474,14.474,0,0,0,5.329.925,14.436,14.436,0,0,0,5.329-.933l.008,4.852c-.176.405-2.028,1.41-5.337,1.41ZM30.642,37.2a5.449,5.449,0,0,1,1.418.839,6.724,6.724,0,0,0,8.7,0,4.093,4.093,0,0,1,5.509,0,6.91,6.91,0,0,0,3.02,1.473v6.561a5.474,5.474,0,0,1-1.422-.841,6.727,6.727,0,0,0-8.706,0,4.087,4.087,0,0,1-5.5,0,6.9,6.9,0,0,0-3.019-1.473Zm1.332-6.888H47.961a1.332,1.332,0,0,1,1.332,1.332v5.1a5.474,5.474,0,0,1-1.422-.841,6.727,6.727,0,0,0-8.706,0,4.087,4.087,0,0,1-5.5,0,6.9,6.9,0,0,0-3.019-1.473v-2.79a1.332,1.332,0,0,1,1.332-1.332ZM47.961,51.626H31.974a1.332,1.332,0,0,1-1.332-1.332v-3.77a5.449,5.449,0,0,1,1.418.839,6.724,6.724,0,0,0,8.7,0,4.093,4.093,0,0,1,5.509,0,6.91,6.91,0,0,0,3.02,1.473v1.457A1.332,1.332,0,0,1,47.961,51.626ZM71.942,67.613a5.329,5.329,0,1,1-5.329,5.329A5.329,5.329,0,0,1,71.942,67.613Zm0-21.316a5.329,5.329,0,1,1-5.329,5.329A5.329,5.329,0,0,1,71.942,46.3Zm0-21.316a5.329,5.329,0,1,1-5.329,5.329A5.329,5.329,0,0,1,71.942,24.981Z" transform="translate(0 -0.999)" fill="#2fb2c3"/>
</svg>
