<svg xmlns="http://www.w3.org/2000/svg" width="80" height="80" viewBox="0 0 80 80">
  <path id="data-transformation" d="M44.378,64.395V31.6c0-1.447-1.015-3.494-5.848-5.033a42.351,42.351,0,0,0-12.34-1.636,42.342,42.342,0,0,0-12.34,1.636C9.015,28.109,8,30.157,8,31.6V64.395c0,1.447,1.015,3.494,5.849,5.033a42.342,42.342,0,0,0,12.34,1.636,42.342,42.342,0,0,0,12.34-1.636C43.363,67.889,44.378,65.842,44.378,64.395ZM26.189,27.515c10.1,0,15.608,2.7,15.608,4.088s-5.509,4.088-15.608,4.088-15.608-2.7-15.608-4.088,5.509-4.088,15.608-4.088ZM10.581,35.222a15.36,15.36,0,0,0,3.268,1.415,42.343,42.343,0,0,0,12.34,1.636,42.343,42.343,0,0,0,12.34-1.636A15.356,15.356,0,0,0,41.8,35.222v7.313c0,1.388-5.509,4.088-15.608,4.088s-15.608-2.7-15.608-4.088Zm0,10.93a15.361,15.361,0,0,0,3.268,1.415A42.343,42.343,0,0,0,26.189,49.2a42.343,42.343,0,0,0,12.34-1.636A15.356,15.356,0,0,0,41.8,46.152v7.313c0,1.388-5.509,4.088-15.608,4.088s-15.608-2.7-15.608-4.088Zm0,18.243V57.082A15.361,15.361,0,0,0,13.849,58.5a42.343,42.343,0,0,0,12.34,1.636A42.343,42.343,0,0,0,38.529,58.5,15.356,15.356,0,0,0,41.8,57.082v7.312c0,1.388-5.509,4.088-15.608,4.088S10.581,65.782,10.581,64.395ZM23.206,42.447a1.29,1.29,0,0,1,1.29-1.29h3.385a1.29,1.29,0,1,1,0,2.581H24.5A1.29,1.29,0,0,1,23.206,42.447Zm0,10.93a1.29,1.29,0,0,1,1.29-1.29h3.385a1.29,1.29,0,1,1,0,2.581H24.5A1.29,1.29,0,0,1,23.206,53.378Zm5.965,10.931a1.29,1.29,0,0,1-1.29,1.29H24.5a1.29,1.29,0,0,1,0-2.581h3.385A1.29,1.29,0,0,1,29.171,64.308ZM87.365,30.5,82.435,25.57a2.125,2.125,0,0,0-1.533-.635H53.988A2.171,2.171,0,0,0,51.82,27.1V68.9a2.171,2.171,0,0,0,2.168,2.168H85.832A2.171,2.171,0,0,0,88,68.9V32.033A2.126,2.126,0,0,0,87.365,30.5ZM82.556,29.34l1.038,1.038H82.556ZM54.4,68.483V27.515H79.975V31.23A1.731,1.731,0,0,0,81.7,32.959h3.715V68.483Zm3.158-36.814a1.29,1.29,0,0,1,1.29-1.29H75.527a1.29,1.29,0,1,1,0,2.581H58.849A1.29,1.29,0,0,1,57.558,31.669Zm24.7,6.536a1.29,1.29,0,0,1-1.29,1.29H58.849a1.29,1.29,0,1,1,0-2.581H80.971A1.29,1.29,0,0,1,82.261,38.2Zm0,6.536a1.29,1.29,0,0,1-1.29,1.29H58.849a1.29,1.29,0,1,1,0-2.581H80.971A1.29,1.29,0,0,1,82.261,44.74Zm0,6.536a1.29,1.29,0,0,1-1.29,1.29H58.849a1.29,1.29,0,1,1,0-2.581H80.971A1.29,1.29,0,0,1,82.261,51.276Zm0,6.536a1.29,1.29,0,0,1-1.29,1.29H58.849a1.29,1.29,0,1,1,0-2.581H80.971A1.29,1.29,0,0,1,82.261,57.812Zm0,6.536a1.29,1.29,0,0,1-1.29,1.29H58.849a1.29,1.29,0,1,1,0-2.581H80.971A1.29,1.29,0,0,1,82.261,64.348ZM30.293,13.193a1.29,1.29,0,0,1,1.29-1.29H60.668l-2.044-1.6a1.29,1.29,0,0,1,1.588-2.034l5,3.9a1.29,1.29,0,0,1,0,2.034l-5,3.9a1.29,1.29,0,0,1-1.588-2.034l2.044-1.6H31.583a1.29,1.29,0,0,1-1.29-1.29ZM65.707,82.805a1.29,1.29,0,0,1-1.29,1.29H35.332l2.044,1.6a1.29,1.29,0,1,1-1.588,2.034l-5-3.9a1.29,1.29,0,0,1,0-2.034l5-3.9a1.29,1.29,0,0,1,1.588,2.034l-2.044,1.6H64.416a1.29,1.29,0,0,1,1.29,1.29Z" transform="translate(-8 -7.999)" fill="#2fb2c3"/>
</svg>
