<svg xmlns="http://www.w3.org/2000/svg" width="80" height="80" viewBox="0 0 80 80">
  <g id="folder_1443254" transform="translate(0.001)">
    <path id="Path_3512" data-name="Path 3512" d="M78.666,0H1.333A1.333,1.333,0,0,0,0,1.333V78.667A1.333,1.333,0,0,0,1.333,80H78.666A1.333,1.333,0,0,0,80,78.667V1.333A1.333,1.333,0,0,0,78.666,0Zm-76,2.667H77.333V13.333H2.666ZM77.333,77.333H2.666V16H77.333Zm0,0" fill="#2fb2c3"/>
    <path id="Path_3513" data-name="Path 3513" d="M28.068,25.4A2.667,2.667,0,1,1,25.4,22.734,2.667,2.667,0,0,1,28.068,25.4Zm0,0" transform="translate(-17.401 -17.401)" fill="#2fb2c3"/>
    <path id="Path_3514" data-name="Path 3514" d="M56.482,25.4a2.667,2.667,0,1,1-2.667-2.667A2.667,2.667,0,0,1,56.482,25.4Zm0,0" transform="translate(-39.149 -17.401)" fill="#2fb2c3"/>
    <path id="Path_3515" data-name="Path 3515" d="M84.9,25.4a2.667,2.667,0,1,1-2.667-2.667A2.667,2.667,0,0,1,84.9,25.4Zm0,0" transform="translate(-60.9 -17.401)" fill="#2fb2c3"/>
    <path id="Path_3516" data-name="Path 3516" d="M35.435,123.634h24a1.333,1.333,0,0,0,1.333-1.333v-16a1.333,1.333,0,0,0-1.333-1.333H46.653l-2.275-2.275a1.334,1.334,0,0,0-.943-.391h-8a1.333,1.333,0,0,0-1.333,1.333V122.3a1.333,1.333,0,0,0,1.333,1.333Zm1.332-18.667h6.115l2.275,2.275a1.333,1.333,0,0,0,.943.39h12v13.334H36.768Zm0,0" transform="translate(-26.102 -78.3)" fill="#2fb2c3"/>
    <path id="Path_3517" data-name="Path 3517" d="M35.435,237.3h24a1.333,1.333,0,0,0,1.333-1.333v-16a1.333,1.333,0,0,0-1.333-1.332H46.653l-2.275-2.276a1.333,1.333,0,0,0-.943-.39h-8A1.333,1.333,0,0,0,34.1,217.3v18.667a1.333,1.333,0,0,0,1.333,1.332Zm1.332-18.667h6.115l2.275,2.276a1.333,1.333,0,0,0,.943.39h12v13.333H36.768Zm0,0" transform="translate(-26.102 -165.301)" fill="#2fb2c3"/>
    <path id="Path_3518" data-name="Path 3518" d="M194.568,123.634h24A1.333,1.333,0,0,0,219.9,122.3v-16a1.333,1.333,0,0,0-1.333-1.333H205.786l-2.275-2.275a1.334,1.334,0,0,0-.943-.391h-8a1.333,1.333,0,0,0-1.333,1.333V122.3a1.333,1.333,0,0,0,1.333,1.333Zm1.333-18.667h6.114l2.276,2.275a1.329,1.329,0,0,0,.942.39h12v13.334H195.9Zm0,0" transform="translate(-147.901 -78.3)" fill="#2fb2c3"/>
    <path id="Path_3519" data-name="Path 3519" d="M194.568,237.3h24a1.333,1.333,0,0,0,1.333-1.333v-16a1.333,1.333,0,0,0-1.333-1.332H205.786l-2.275-2.276a1.333,1.333,0,0,0-.943-.39h-8a1.333,1.333,0,0,0-1.333,1.333v18.667A1.333,1.333,0,0,0,194.568,237.3Zm1.333-18.667h6.114l2.276,2.276a1.329,1.329,0,0,0,.942.39h12v13.333H195.9Zm0,0" transform="translate(-147.901 -165.301)" fill="#2fb2c3"/>
  </g>
</svg>
