<svg xmlns="http://www.w3.org/2000/svg" width="70.81" height="80.03" viewBox="0 0 70.81 80.03">
  <path id="data-modelling_1_" data-name="data-modelling (1)" d="M95.929,51.726V28.265a5.612,5.612,0,1,0-5.359-9.289L80.409,13.108,70.251,7.243a5.613,5.613,0,1,0-10.73,0L49.363,13.108,39.2,18.975a5.612,5.612,0,1,0-5.363,9.29V51.726A5.61,5.61,0,1,0,39.2,61.012l10.159,5.867,10.158,5.864a5.613,5.613,0,1,0,10.73,0l10.159-5.863L90.57,61.012a5.61,5.61,0,1,0,5.359-9.286ZM90.57,53.38,78.256,46.27V33.72l12.312-7.107a5.608,5.608,0,0,0,2.857,1.654V51.728A5.583,5.583,0,0,0,90.57,53.38Zm-25.683-.342c-6.222,0-10.871-2.4-10.871-4.539V44.22a11.136,11.136,0,0,0,1.76,1.035,21.668,21.668,0,0,0,9.111,1.818A21.66,21.66,0,0,0,74,45.255a11.217,11.217,0,0,0,1.757-1.033V48.5C75.752,50.641,71.106,53.037,64.886,53.037ZM39.2,53.378a5.619,5.619,0,0,0-2.86-1.652V28.265a5.625,5.625,0,0,0,2.86-1.652l12.31,7.105V46.268ZM64.886,26.954c6.219,0,10.866,2.4,10.866,4.539s-4.647,4.534-10.866,4.534-10.871-2.395-10.871-4.534S58.666,26.954,64.886,26.954Zm-10.869,8.72a11.26,11.26,0,0,0,1.766,1.036,21.659,21.659,0,0,0,9.1,1.821,21.642,21.642,0,0,0,9.1-1.821,11.332,11.332,0,0,0,1.766-1.036v4.358c0,2.143-4.647,4.539-10.866,4.539s-10.871-2.4-10.871-4.539ZM94.679,19.685A3.11,3.11,0,1,1,91.57,22.8,3.114,3.114,0,0,1,94.679,19.685ZM79.157,15.275l10.158,5.867a5.627,5.627,0,0,0,0,3.3L78.2,30.857c-.281-1.8-1.754-3.407-4.219-4.584a20.8,20.8,0,0,0-7.849-1.791V11.066a5.6,5.6,0,0,0,2.857-1.655ZM64.886,2.484a3.11,3.11,0,1,1-3.112,3.107,3.112,3.112,0,0,1,3.112-3.107ZM50.613,15.277,60.774,9.411a5.617,5.617,0,0,0,2.862,1.655V24.481a20.848,20.848,0,0,0-7.852,1.791c-2.465,1.177-3.937,2.788-4.219,4.584L40.46,24.447a5.6,5.6,0,0,0,0-3.306ZM31.984,22.8A3.11,3.11,0,1,1,35.093,25.9,3.113,3.113,0,0,1,31.984,22.8ZM35.091,60.3A3.107,3.107,0,1,1,38.2,57.2,3.112,3.112,0,0,1,35.091,60.3Zm15.522,4.408L40.458,58.847a5.616,5.616,0,0,0,0-3.3l11.107-6.415c.278,1.8,1.746,3.415,4.211,4.594a20.832,20.832,0,0,0,7.859,1.788V68.925a5.625,5.625,0,0,0-2.86,1.652Zm14.273,12.8A3.11,3.11,0,1,1,68,74.4,3.115,3.115,0,0,1,64.886,77.508Zm14.27-12.8L68.994,70.577a5.611,5.611,0,0,0-2.856-1.652V55.51A20.853,20.853,0,0,0,74,53.722c2.463-1.177,3.929-2.79,4.208-4.592l11.11,6.416a5.594,5.594,0,0,0,0,3.3ZM94.679,60.3A3.107,3.107,0,1,1,97.787,57.2,3.112,3.112,0,0,1,94.679,60.3Z" transform="translate(-29.48 0.02)" fill="#2fb2c3"/>
</svg>
