<svg xmlns="http://www.w3.org/2000/svg" width="492.493" height="491.976" viewBox="0 0 492.493 491.976">
  <g id="pencil" transform="translate(0 -0.246)">
    <path id="Path_3390" data-name="Path 3390" d="M304.141,82.473l-270.977,271a10.8,10.8,0,0,0-2.816,4.949L.312,478.973a10.665,10.665,0,0,0,10.344,13.25,10.6,10.6,0,0,0,2.582-.32l120.555-30.039a10.655,10.655,0,0,0,4.949-2.812l271-270.977Zm0,0" fill="white"/>
    <path id="Path_3391" data-name="Path 3391" d="M476.875,45.523,446.711,15.359c-20.16-20.16-55.3-20.141-75.434,0L334.328,52.308l105.6,105.6,36.949-36.949a53.353,53.353,0,0,0,0-75.434Zm0,0" fill="white"/>
  </g>
</svg>
