<svg id="eye" xmlns="http://www.w3.org/2000/svg"   width="21.25" height="12.667" viewBox="0 0 21.25 12.667" >
  <path id="Path_55" data-name="Path 55"  d="M10.625,98.725c-4.06,0-7.742,2.221-10.458,5.829a.841.841,0,0,0,0,1c2.717,3.612,6.4,5.833,10.458,5.833s7.742-2.221,10.458-5.829a.841.841,0,0,0,0-1C18.366,100.946,14.685,98.725,10.625,98.725Zm.291,10.793a4.469,4.469,0,1,1,4.169-4.169A4.472,4.472,0,0,1,10.916,109.518Zm-.135-2.06a2.407,2.407,0,1,1,2.247-2.247A2.4,2.4,0,0,1,10.781,107.458Z" transform="translate(0 -98.725)" fill="white"/>
</svg>
