<svg xmlns="http://www.w3.org/2000/svg" width="56.039" height="56.039" viewBox="0 0 56.039 56.039">
  <g id="find_6133530" transform="translate(0 0)">
    <path id="Path_3472" data-name="Path 3472" d="M234.915,127.63a13.547,13.547,0,0,0-23.873,0,1.094,1.094,0,0,0,0,1.1,13.547,13.547,0,0,0,23.873,0A1.094,1.094,0,0,0,234.915,127.63Zm-11.936,6.047a12.246,12.246,0,0,1-9.7-5.5,11.31,11.31,0,0,1,19.406,0A12.246,12.246,0,0,1,222.978,133.677Z" transform="translate(-187.814 -107.303)" fill="#585858"/>
    <path id="Path_3473" data-name="Path 3473" d="M35.165,0A20.874,20.874,0,0,0,15.778,28.613L11.1,33.288a1.094,1.094,0,0,0,0,1.548l1.557,1.557L1.44,47.612a4.931,4.931,0,0,0,0,6.965l.022.022a4.931,4.931,0,0,0,6.965,0l11.22-11.22L21.2,44.936a1.1,1.1,0,0,0,1.548,0l4.675-4.675A20.874,20.874,0,1,0,35.165,0ZM6.88,53.051a2.739,2.739,0,0,1-3.869,0l-.022-.022a2.739,2.739,0,0,1,0-3.869L14.207,37.94,18.1,41.832Zm15.1-10.436-8.553-8.553,3.339-3.339a21.023,21.023,0,0,0,8.553,8.553ZM35.165,39.56A18.686,18.686,0,1,1,53.85,20.875,18.707,18.707,0,0,1,35.165,39.56Z" transform="translate(0)" fill="#585858"/>
    <path id="Path_3474" data-name="Path 3474" d="M187.211,40.163A16.479,16.479,0,1,0,203.69,56.642,16.5,16.5,0,0,0,187.211,40.163Zm0,30.769a14.29,14.29,0,1,1,14.29-14.29A14.306,14.306,0,0,1,187.211,70.932Z" transform="translate(-152.046 -35.767)" fill="#585858"/>
    <path id="Path_3475" data-name="Path 3475" d="M294.513,160.653a3.292,3.292,0,1,0,3.292,3.292A3.3,3.3,0,0,0,294.513,160.653Zm0,4.4a1.1,1.1,0,1,1,1.1-1.1A1.1,1.1,0,0,1,294.513,165.049Z" transform="translate(-259.349 -143.071)" fill="#585858"/>
  </g>
</svg>
