<svg xmlns="http://www.w3.org/2000/svg" width="56" height="56" viewBox="0 0 56 56">
  <g id="folder_955228" transform="translate(0 -0.291)">
    <g id="Group_587" data-name="Group 587" transform="translate(0 0.291)">
      <path id="Path_3476" data-name="Path 3476" d="M46.2,35.74A10.273,10.273,0,0,0,35.5,45.077H31.6a3.724,3.724,0,0,0-2.664-2.667V33.88H44.775a1.867,1.867,0,0,0,1.864-1.866V7.755a1.867,1.867,0,0,0-1.864-1.866H27.012a.916.916,0,0,1-.719-.335L22.754,1.3A2.78,2.78,0,0,0,20.6.291H12.157a2.8,2.8,0,0,0-2.8,2.8V32.014a1.867,1.867,0,0,0,1.864,1.866H27.068v8.53A3.724,3.724,0,0,0,24.4,45.077H20.5a10.28,10.28,0,1,0,0,1.866H24.4a3.709,3.709,0,0,0,7.191,0H35.5A10.269,10.269,0,1,0,46.2,35.74ZM14.673,53.162a8.4,8.4,0,0,1-8.76,0,4.608,4.608,0,0,1,1.6-5.3,4.566,4.566,0,0,0,5.559,0A4.608,4.608,0,0,1,14.673,53.162Zm-6.357-11a2.8,2.8,0,1,1-.606,3.05A2.793,2.793,0,0,1,8.316,42.164ZM16.8,51.313h0a6.515,6.515,0,0,0-2.49-4.841,4.615,4.615,0,0,0,.646-2.328,4.66,4.66,0,1,0-9.319,0,4.615,4.615,0,0,0,.646,2.328,6.516,6.516,0,0,0-2.49,4.841,8.393,8.393,0,1,1,13.007,0ZM11.225,3.09a.933.933,0,0,1,.932-.933H20.6a.916.916,0,0,1,.719.335l2.827,3.4H11.225Zm0,28.925V7.755h33.55V32.014H11.225ZM28,47.876a1.866,1.866,0,1,1,1.864-1.866A1.865,1.865,0,0,1,28,47.876Zm22.087,5.286a8.4,8.4,0,0,1-8.76,0,4.608,4.608,0,0,1,1.6-5.3,4.566,4.566,0,0,0,5.559,0A4.608,4.608,0,0,1,50.087,53.162Zm-6.357-11a2.8,2.8,0,1,1-.606,3.05A2.793,2.793,0,0,1,43.73,42.164Zm8.481,9.149a6.515,6.515,0,0,0-2.49-4.841,4.615,4.615,0,0,0,.646-2.328,4.66,4.66,0,1,0-9.319,0,4.615,4.615,0,0,0,.646,2.328,6.516,6.516,0,0,0-2.49,4.841,8.393,8.393,0,1,1,13.007,0Z" transform="translate(0 -0.291)" fill="#585858"/>
    </g>
  </g>
</svg>
