<svg xmlns="http://www.w3.org/2000/svg" width="22" height="22" viewBox="0 0 22 22">
  <g id="help-web-button" transform="translate(-0.008)">
    <path id="Path_100" data-name="Path 100" d="M11.008,0a11,11,0,1,0,11,10.994A11,11,0,0,0,11.008,0Zm.784,17.115a1.3,1.3,0,0,1-.887.342A1.34,1.34,0,0,1,10,17.119a1.181,1.181,0,0,1-.388-.942,1.214,1.214,0,0,1,.376-.9,1.267,1.267,0,0,1,.921-.366,1.252,1.252,0,0,1,1.271,1.27A1.192,1.192,0,0,1,11.792,17.115Zm3.186-7.9a3.889,3.889,0,0,1-.7.942q-.4.4-1.454,1.335a6.019,6.019,0,0,0-.465.465,1.893,1.893,0,0,0-.26.367,1.768,1.768,0,0,0-.132.333q-.047.166-.141.584a.949.949,0,0,1-1.015.887,1.039,1.039,0,0,1-.747-.29,1.139,1.139,0,0,1-.3-.861,3.174,3.174,0,0,1,.222-1.241,3.136,3.136,0,0,1,.588-.921,13.485,13.485,0,0,1,.99-.942q.546-.478.789-.721a2.439,2.439,0,0,0,.409-.542,1.3,1.3,0,0,0,.166-.648,1.5,1.5,0,0,0-.507-1.151,1.853,1.853,0,0,0-1.309-.469,1.811,1.811,0,0,0-1.382.473,3.777,3.777,0,0,0-.75,1.394q-.291.964-1.1.964a1.083,1.083,0,0,1-.806-.337,1.03,1.03,0,0,1-.328-.729,3.086,3.086,0,0,1,.52-1.642A4,4,0,0,1,8.781,5.09a4.775,4.775,0,0,1,2.328-.546A4.968,4.968,0,0,1,13.293,5a3.539,3.539,0,0,1,1.463,1.241,3.045,3.045,0,0,1,.516,1.706A2.627,2.627,0,0,1,14.978,9.217Z" fill="#ebedef"/>
  </g>
</svg>
