<svg id="icon_2" data-name="icon 2" xmlns="http://www.w3.org/2000/svg" width="22" height="16.433" viewBox="0 0 22 16.433">
  <rect id="Rectangle_740" data-name="Rectangle 740" width="3.639" height="3.519" rx="0.29" transform="translate(0.07 6.114)" fill="#585858"/>
  <rect id="Rectangle_741" data-name="Rectangle 741" width="3.639" height="3.519" rx="0.29" transform="translate(9.076 12.914)" fill="#585858"/>
  <rect id="Rectangle_742" data-name="Rectangle 742" width="3.639" height="3.519" rx="0.29" transform="translate(18.362 6.114)" fill="#585858"/>
  <rect id="Rectangle_743" data-name="Rectangle 743" width="3.639" height="3.519" rx="0.29" transform="translate(9.166 6.114)" fill="#585858"/>
  <rect id="Rectangle_744" data-name="Rectangle 744" width="3.639" height="3.519" rx="0.29" transform="translate(0 12.914)" fill="#585858"/>
  <rect id="Rectangle_745" data-name="Rectangle 745" width="3.639" height="3.519" rx="0.29" transform="translate(9.166)" fill="#585858"/>
  <path id="Path_3422" data-name="Path 3422" d="M10.042,3.29V4.483L1.88,4.632,1.86,6.471" transform="translate(-0.011 -0.019)" fill="none" stroke="#585858" stroke-miterlimit="10" stroke-width="0.15"/>
  <line id="Line_99" data-name="Line 99" y2="3.668" transform="translate(10.985 9.633)" stroke="#585858" stroke-miterlimit="10" stroke-width="0.15"/>
  <path id="Path_3423" data-name="Path 3423" d="M2.94,9.69v1.253c2.416-.02,4.831-.03,7.237-.05.01.835.03,1.67.04,2.5" transform="translate(-0.017 -0.057)" fill="none" stroke="#585858" stroke-miterlimit="10" stroke-width="0.15"/>
  <line id="Line_100" data-name="Line 100" y2="4.225" transform="translate(1.819 9.633)" stroke="#585858" stroke-miterlimit="10" stroke-width="0.15"/>
  <line id="Line_101" data-name="Line 101" x1="0.04" y2="3.658" transform="translate(10.965 3.082)" stroke="#585858" stroke-miterlimit="10" stroke-width="0.15"/>
  <path id="Path_3424" data-name="Path 3424" d="M12.03,3.47l.02.875c2.754.05,5.517.089,8.271.139.02.736.04,1.481.06,2.217" transform="translate(-0.071 -0.02)" fill="none" stroke="#585858" stroke-miterlimit="10" stroke-width="0.16"/>
</svg>
