<svg id="marketplace" xmlns="http://www.w3.org/2000/svg" width="21.049" height="19.167" viewBox="0 0 21.049 19.167">
  <path id="store" d="M8.525,16.307v5.721h4V16.307Zm9.893-2.677a4.2,4.2,0,0,1-2.631-.893,4.324,4.324,0,0,1-5.262,0,4.2,4.2,0,0,1-2.631.893,4.2,4.2,0,0,1-2.631-.893,4.2,4.2,0,0,1-2.631.893,4.091,4.091,0,0,1-.606-.042V21.4a.631.631,0,0,0,.631.631H7.262V16.307a1.264,1.264,0,0,1,1.263-1.263h4a1.264,1.264,0,0,1,1.263,1.263v5.721h4.605a.631.631,0,0,0,.631-.631V13.583a3.584,3.584,0,0,1-.606.046ZM0,10.232a1.956,1.956,0,0,0,.77,1.511,2.972,2.972,0,0,0,1.861.623,2.42,2.42,0,0,0,2.631-2.135H0Zm5.262,0a1.956,1.956,0,0,0,.77,1.511,2.971,2.971,0,0,0,1.861.623,2.42,2.42,0,0,0,2.631-2.135H5.262Zm5.262,0a1.956,1.956,0,0,0,.77,1.511,2.971,2.971,0,0,0,1.861.623,2.42,2.42,0,0,0,2.631-2.135H10.524ZM17.53,3.21a.634.634,0,0,0-.564-.349H4.084a.634.634,0,0,0-.564.349L.631,8.969H20.418Zm-1.743,7.022a1.956,1.956,0,0,0,.77,1.511,2.971,2.971,0,0,0,1.861.623,2.42,2.42,0,0,0,2.631-2.135H15.787Z" transform="translate(0 -2.861)" fill="#585858"/>
</svg>
