<svg id="notifications" xmlns="http://www.w3.org/2000/svg" width="14.81" height="21" viewBox="0 0 14.81 21">
  <path id="Path_43" data-name="Path 43" d="M131.875,416a2.124,2.124,0,0,0,4.2,0Zm0,0" transform="translate(-126.57 -396.802)" fill="#585858"/>
  <path id="Path_44" data-name="Path 44" d="M155.884,1.8l.047,0,.054,0a7.069,7.069,0,0,1,.725.041c.026,0,.053,0,.079,0V.9a.858.858,0,1,0-1.714,0v.948c.026,0,.051,0,.077,0C155.394,1.819,155.638,1.8,155.884,1.8Zm0,0" transform="translate(-148.527 0)" fill="#585858"/>
  <path id="Path_45" data-name="Path 45" d="M14.006,61.922a6.9,6.9,0,0,1-.694-3.012V54.036a5.977,5.977,0,0,0-4.9-5.939q-.242-.044-.49-.066a5.6,5.6,0,0,0-1.472.065,5.96,5.96,0,0,0-4.908,5.94V58.91a6.9,6.9,0,0,1-.693,3.012L.019,63.607h14.81Zm0,0" transform="translate(-0.019 -45.31)" fill="#585858"/>
</svg>
