<svg id="notifications" xmlns="http://www.w3.org/2000/svg" width="14.81" height="22" viewBox="0 0 14.81 22">
  <path id="Path_43" data-name="Path 43" d="M131.875,416a2.112,2.112,0,0,0,4.2,0Zm0,0" transform="translate(-126.57 -395.887)" fill="#ebedef"/>
  <path id="Path_44" data-name="Path 44" d="M155.884,1.888l.047,0,.054,0a6.752,6.752,0,0,1,.725.043c.026,0,.053,0,.079,0V.943a.861.861,0,1,0-1.714,0v.994c.026,0,.051,0,.077,0A7.134,7.134,0,0,1,155.884,1.888Zm0,0" transform="translate(-148.527 0)" fill="#ebedef"/>
  <path id="Path_45" data-name="Path 45" d="M14.006,62.585a7.517,7.517,0,0,1-.694-3.156V54.323a6.192,6.192,0,0,0-4.9-6.222q-.242-.046-.49-.069a5.349,5.349,0,0,0-1.472.068,6.174,6.174,0,0,0-4.908,6.222v5.107a7.514,7.514,0,0,1-.693,3.156L.019,64.35h14.81Zm0,0" transform="translate(-0.019 -45.181)" fill="#ebedef"/>
</svg>
