<svg xmlns="http://www.w3.org/2000/svg" width="81.5" height="81.5" viewBox="0 0 81.5 81.5">
  <g id="cogwheel_10210489" transform="translate(-1.05 -1.05)">
    <g id="Group_608" data-name="Group 608" transform="translate(1.8 34.66)">
      <g id="Group_596" data-name="Group 596">
        <path id="Path_3489" data-name="Path 3489" d="M42.918,48.083a17.072,17.072,0,0,1-2.753,6.538l3.441,4.473-3.957,3.957L35.176,59.61a17.072,17.072,0,0,1-6.538,2.753l-.86,5.677H22.273l-.86-5.677a18.28,18.28,0,0,1-6.538-2.753L10.4,63.051,6.445,59.094,9.886,54.62a23.544,23.544,0,0,1-2.581-6.538L1.8,47.223V41.717l5.505-.86a17.072,17.072,0,0,1,2.753-6.538L6.617,29.846l3.957-3.957,4.473,3.441a17.072,17.072,0,0,1,6.538-2.753l.86-5.677h5.505l.86,5.677a18.28,18.28,0,0,1,6.538,2.753l4.473-3.441,3.957,3.957-3.441,4.473a20.245,20.245,0,0,1,2.753,6.538l5.505.86v5.505Z" transform="translate(-1.8 -20.9)" fill="none" stroke="#2fb2c3" stroke-linecap="round" stroke-linejoin="round" stroke-width="1.5"/>
      </g>
      <g id="Group_607" data-name="Group 607" transform="translate(14.796 12.387)">
        <g id="Group_606" data-name="Group 606">
          <g id="Group_605" data-name="Group 605">
            <g id="Group_604" data-name="Group 604">
              <g id="Group_603" data-name="Group 603">
                <g id="Group_602" data-name="Group 602">
                  <g id="Group_601" data-name="Group 601">
                    <g id="Group_600" data-name="Group 600">
                      <g id="Group_599" data-name="Group 599">
                        <g id="Group_598" data-name="Group 598">
                          <circle id="Ellipse_1080" data-name="Ellipse 1080" cx="3.785" cy="3.785" r="3.785" transform="translate(4.645)" fill="none" stroke="#2fb2c3" stroke-linecap="round" stroke-linejoin="round" stroke-width="1.5"/>
                          <g id="Group_597" data-name="Group 597" transform="translate(0 12.215)">
                            <path id="Path_3490" data-name="Path 3490" d="M24.508,45.178a2.717,2.717,0,0,0,2.753-2.753c0-5.849-3.785-7.226-8.43-7.226s-8.43,1.548-8.43,7.226a2.717,2.717,0,0,0,2.753,2.753Z" transform="translate(-10.4 -35.2)" fill="none" stroke="#2fb2c3" stroke-linecap="round" stroke-linejoin="round" stroke-width="1.5"/>
                          </g>
                        </g>
                      </g>
                    </g>
                  </g>
                </g>
              </g>
            </g>
          </g>
        </g>
      </g>
    </g>
    <g id="Group_621" data-name="Group 621" transform="translate(27.09 1.8)">
      <g id="Group_609" data-name="Group 609">
        <path id="Path_3491" data-name="Path 3491" d="M44.887,20.381a14.6,14.6,0,0,1-1.892,4.473l2.237,3.1L42.479,30.7l-3.1-2.409a13.014,13.014,0,0,1-4.473,1.892l-.344,3.957H30.78l-.516-3.957a14.6,14.6,0,0,1-4.473-1.892l-3.1,2.409-2.753-2.753,2.237-3.1a14.6,14.6,0,0,1-1.892-4.473L16.5,19.865V16.08l3.785-.516a14.6,14.6,0,0,1,1.892-4.473l-2.237-3.1,2.753-2.753,3.1,2.409a13.014,13.014,0,0,1,4.473-1.892L30.78,1.8h3.785l.688,3.785a14.6,14.6,0,0,1,4.473,1.892l3.1-2.409,2.753,2.753-2.409,3.1a14.6,14.6,0,0,1,1.892,4.473l3.785.516v3.785Z" transform="translate(-16.5 -1.8)" fill="none" stroke="#2fb2c3" stroke-linecap="round" stroke-linejoin="round" stroke-width="1.5"/>
      </g>
      <g id="Group_620" data-name="Group 620" transform="translate(10.323 8.602)">
        <g id="Group_619" data-name="Group 619">
          <g id="Group_618" data-name="Group 618">
            <g id="Group_617" data-name="Group 617">
              <g id="Group_616" data-name="Group 616">
                <g id="Group_615" data-name="Group 615">
                  <g id="Group_614" data-name="Group 614">
                    <g id="Group_613" data-name="Group 613">
                      <g id="Group_612" data-name="Group 612">
                        <g id="Group_611" data-name="Group 611">
                          <circle id="Ellipse_1081" data-name="Ellipse 1081" cx="2.581" cy="2.581" r="2.581" transform="translate(3.269)" fill="none" stroke="#2fb2c3" stroke-linecap="round" stroke-linejoin="round" stroke-width="1.5"/>
                          <g id="Group_610" data-name="Group 610" transform="translate(0 8.258)">
                            <path id="Path_3492" data-name="Path 3492" d="M32.306,18.482A1.909,1.909,0,0,0,34.2,16.589c0-3.957-2.581-4.989-5.849-4.989S22.5,12.632,22.5,16.589a1.909,1.909,0,0,0,1.892,1.892Z" transform="translate(-22.5 -11.6)" fill="none" stroke="#2fb2c3" stroke-linecap="round" stroke-linejoin="round" stroke-width="1.5"/>
                          </g>
                        </g>
                      </g>
                    </g>
                  </g>
                </g>
              </g>
            </g>
          </g>
        </g>
      </g>
    </g>
    <g id="Group_634" data-name="Group 634" transform="translate(49.456 32.596)">
      <g id="Group_622" data-name="Group 622">
        <path id="Path_3493" data-name="Path 3493" d="M57.887,38.453a14.6,14.6,0,0,1-1.892,4.473l2.237,3.1-2.753,2.753-3.1-2.409a13.013,13.013,0,0,1-4.473,1.892l-.344,3.957H43.78l-.516-3.957a14.6,14.6,0,0,1-4.473-1.892l-3.1,2.409-2.753-2.753,2.237-3.1a14.6,14.6,0,0,1-1.892-4.473L29.5,37.937V33.98l3.785-.516a14.6,14.6,0,0,1,1.892-4.473l-2.237-3.1,2.753-2.753,3.1,2.409a13.014,13.014,0,0,1,4.473-1.892L43.78,19.7h3.785l.516,3.957a14.6,14.6,0,0,1,4.473,1.892l3.1-2.409L58.4,25.894l-2.237,3.1a14.6,14.6,0,0,1,1.892,4.473l3.785.516v3.785Z" transform="translate(-29.5 -19.7)" fill="none" stroke="#2fb2c3" stroke-linecap="round" stroke-linejoin="round" stroke-width="1.5"/>
      </g>
      <g id="Group_633" data-name="Group 633" transform="translate(10.323 8.602)">
        <g id="Group_632" data-name="Group 632">
          <g id="Group_631" data-name="Group 631">
            <g id="Group_630" data-name="Group 630">
              <g id="Group_629" data-name="Group 629">
                <g id="Group_628" data-name="Group 628">
                  <g id="Group_627" data-name="Group 627">
                    <g id="Group_626" data-name="Group 626">
                      <g id="Group_625" data-name="Group 625">
                        <g id="Group_624" data-name="Group 624">
                          <circle id="Ellipse_1082" data-name="Ellipse 1082" cx="2.581" cy="2.581" r="2.581" transform="translate(3.269)" fill="none" stroke="#2fb2c3" stroke-linecap="round" stroke-linejoin="round" stroke-width="1.5"/>
                          <g id="Group_623" data-name="Group 623" transform="translate(0 8.43)">
                            <path id="Path_3494" data-name="Path 3494" d="M45.306,36.482A1.909,1.909,0,0,0,47.2,34.589c0-3.957-2.581-4.989-5.849-4.989S35.5,30.632,35.5,34.589a1.909,1.909,0,0,0,1.892,1.892Z" transform="translate(-35.5 -29.6)" fill="none" stroke="#2fb2c3" stroke-linecap="round" stroke-linejoin="round" stroke-width="1.5"/>
                          </g>
                        </g>
                      </g>
                    </g>
                  </g>
                </g>
              </g>
            </g>
          </g>
        </g>
      </g>
    </g>
  </g>
</svg>
