<svg xmlns="http://www.w3.org/2000/svg" width="78.995" height="80" viewBox="0 0 78.995 80">
  <path id="settings" d="M80.156,66.32H76.868V59.166a1.253,1.253,0,0,0-1.252-1.252H44.461v-5.9h1.748a2.856,2.856,0,0,0,2.853-2.853V45.7a20.164,20.164,0,0,0,3.753-1.556l2.45,2.449a2.855,2.855,0,0,0,4.034,0l4.244-4.244a2.856,2.856,0,0,0,0-4.034l-2.45-2.45a20.15,20.15,0,0,0,1.556-3.752h3.463a2.856,2.856,0,0,0,2.853-2.853v-6A2.856,2.856,0,0,0,66.111,20.4H62.649a20.152,20.152,0,0,0-1.556-3.752l2.45-2.45a2.857,2.857,0,0,0,0-4.034L59.3,5.922a2.856,2.856,0,0,0-4.034,0l-2.45,2.45a20.158,20.158,0,0,0-3.753-1.556V3.353A2.856,2.856,0,0,0,46.209.5h-6a2.856,2.856,0,0,0-2.853,2.853V6.815A20.178,20.178,0,0,0,33.6,8.371l-2.449-2.45a2.856,2.856,0,0,0-4.034,0l-4.244,4.244a2.856,2.856,0,0,0,0,4.034l2.45,2.45A20.161,20.161,0,0,0,23.768,20.4H20.3a2.856,2.856,0,0,0-2.853,2.853v6A2.856,2.856,0,0,0,20.3,32.11h3.463a20.166,20.166,0,0,0,1.556,3.752l-2.45,2.45a2.856,2.856,0,0,0,0,4.034l4.244,4.244a2.855,2.855,0,0,0,4.034,0l2.45-2.45A20.151,20.151,0,0,0,37.354,45.7v3.463a2.856,2.856,0,0,0,2.853,2.853h1.749v5.9H10.8a1.253,1.253,0,0,0-1.252,1.252V66.32H6.261a2.553,2.553,0,0,0-2.55,2.55V77.95a2.553,2.553,0,0,0,2.55,2.55h9.081a2.553,2.553,0,0,0,2.55-2.55V68.869a2.553,2.553,0,0,0-2.55-2.55H12.054v-5.9h19.1v5.9H27.865a2.553,2.553,0,0,0-2.55,2.55V77.95a2.553,2.553,0,0,0,2.55,2.55h9.081a2.553,2.553,0,0,0,2.55-2.55V68.869a2.553,2.553,0,0,0-2.55-2.55H33.658v-5.9h19.1v5.9H49.47a2.553,2.553,0,0,0-2.55,2.55V77.95a2.553,2.553,0,0,0,2.55,2.55h9.081a2.553,2.553,0,0,0,2.55-2.55V68.869a2.553,2.553,0,0,0-2.55-2.55H55.263v-5.9h19.1v5.9H71.075a2.553,2.553,0,0,0-2.55,2.55V77.95a2.553,2.553,0,0,0,2.55,2.55h9.081a2.553,2.553,0,0,0,2.55-2.55V68.869a2.553,2.553,0,0,0-2.55-2.55Zm-40.3-17.16V44.742a1.253,1.253,0,0,0-.951-1.216,17.666,17.666,0,0,1-4.87-2.02,1.253,1.253,0,0,0-1.532.187l-3.125,3.125a.351.351,0,0,1-.492,0l-4.244-4.244a.352.352,0,0,1,0-.492l3.126-3.126a1.253,1.253,0,0,0,.187-1.532,17.669,17.669,0,0,1-2.02-4.87,1.252,1.252,0,0,0-1.215-.951H20.3a.352.352,0,0,1-.348-.348v-6a.352.352,0,0,1,.348-.348h4.418a1.252,1.252,0,0,0,1.215-.951,17.68,17.68,0,0,1,2.02-4.87,1.252,1.252,0,0,0-.187-1.532l-3.125-3.125a.353.353,0,0,1,0-.492l4.244-4.244a.351.351,0,0,1,.492,0l3.125,3.125a1.252,1.252,0,0,0,1.532.187,17.671,17.671,0,0,1,4.871-2.02,1.252,1.252,0,0,0,.951-1.216V3.353A.353.353,0,0,1,40.207,3h6a.352.352,0,0,1,.348.348V7.77a1.253,1.253,0,0,0,.951,1.216,17.674,17.674,0,0,1,4.87,2.02,1.253,1.253,0,0,0,1.532-.187l3.125-3.125a.351.351,0,0,1,.492,0l4.244,4.244a.353.353,0,0,1,0,.492l-3.125,3.126a1.253,1.253,0,0,0-.187,1.532,17.662,17.662,0,0,1,2.02,4.87,1.252,1.252,0,0,0,1.216.951h4.418a.352.352,0,0,1,.348.348v6a.352.352,0,0,1-.348.348H61.694a1.253,1.253,0,0,0-1.216.951,17.672,17.672,0,0,1-2.02,4.87,1.253,1.253,0,0,0,.187,1.532l3.125,3.125a.353.353,0,0,1,0,.492l-4.244,4.244a.351.351,0,0,1-.492,0L53.91,41.694a1.252,1.252,0,0,0-1.532-.187,17.674,17.674,0,0,1-4.871,2.02,1.252,1.252,0,0,0-.951,1.216v4.417a.352.352,0,0,1-.348.348h-6a.352.352,0,0,1-.348-.348ZM15.386,68.869V77.95a.049.049,0,0,1-.045.045H6.261a.049.049,0,0,1-.045-.045V68.869a.049.049,0,0,1,.045-.045h9.081A.049.049,0,0,1,15.386,68.869Zm21.6,0V77.95a.049.049,0,0,1-.045.045H27.865a.049.049,0,0,1-.045-.045V68.869a.049.049,0,0,1,.045-.045h9.081A.049.049,0,0,1,36.991,68.869Zm21.6,0V77.95a.049.049,0,0,1-.045.045H49.47a.049.049,0,0,1-.045-.045V68.869a.049.049,0,0,1,.045-.045h9.081A.049.049,0,0,1,58.6,68.869ZM80.2,77.95a.049.049,0,0,1-.045.045H71.075a.049.049,0,0,1-.045-.045V68.869a.049.049,0,0,1,.045-.045h9.081a.049.049,0,0,1,.045.045ZM57.123,26.256A13.915,13.915,0,1,0,43.208,40.171,13.931,13.931,0,0,0,57.123,26.256ZM43.208,37.666a11.41,11.41,0,1,1,11.41-11.41,11.423,11.423,0,0,1-11.41,11.41Z" transform="translate(-3.711 -0.5)" fill="#2fb2c3"/>
</svg>
