<svg id="Untitled-1" xmlns="http://www.w3.org/2000/svg" width="22" height="21.929" viewBox="0 0 22 21.929">
  <rect id="Rectangle_724" data-name="Rectangle 724" width="2.895" height="2.886" rx="0.31" transform="translate(8.323 7.095)" fill="#585858"/>
  <rect id="Rectangle_725" data-name="Rectangle 725" width="2.895" height="2.886" rx="0.31" transform="translate(9.766)" fill="#585858"/>
  <rect id="Rectangle_726" data-name="Rectangle 726" width="2.895" height="2.886" rx="0.31" transform="translate(10.772 13.472)" fill="#585858"/>
  <rect id="Rectangle_727" data-name="Rectangle 727" width="2.895" height="2.886" rx="0.31" transform="translate(15.353 17.374)" fill="#585858"/>
  <rect id="Rectangle_728" data-name="Rectangle 728" width="2.895" height="2.886" rx="0.31" transform="translate(4.236 19.043)" fill="#585858"/>
  <rect id="Rectangle_729" data-name="Rectangle 729" width="2.895" height="2.886" rx="0.31" transform="translate(19.105 13.05)" fill="#585858"/>
  <rect id="Rectangle_730" data-name="Rectangle 730" width="2.895" height="2.886" rx="0.31" transform="translate(18.807 2.886)" fill="#585858"/>
  <rect id="Rectangle_731" data-name="Rectangle 731" width="2.895" height="2.886" rx="0.31" transform="translate(0 9.147)" fill="#585858"/>
  <line id="Line_88" data-name="Line 88" x1="1.006" y2="4.756" transform="translate(9.766 2.685)" stroke="#585858" stroke-miterlimit="10" stroke-width="0.13"/>
  <line id="Line_89" data-name="Line 89" x2="1.843" y2="4.276" transform="translate(10.372 9.569)" stroke="#585858" stroke-miterlimit="10" stroke-width="0.13"/>
  <line id="Line_90" data-name="Line 90" x2="8.603" y2="5.772" transform="translate(10.986 8.716)" stroke="#585858" stroke-miterlimit="10" stroke-width="0.13"/>
  <line id="Line_91" data-name="Line 91" x1="2.905" y2="3.078" transform="translate(16.796 15.37)" stroke="#585858" stroke-miterlimit="10" stroke-width="0.13"/>
  <line id="Line_92" data-name="Line 92" x1="3.007" y2="9.943" transform="translate(5.959 9.569)" stroke="#585858" stroke-miterlimit="10" stroke-width="0.13"/>
  <line id="Line_93" data-name="Line 93" x1="5.912" y2="1.582" transform="translate(2.57 8.783)" stroke="#585858" stroke-miterlimit="10" stroke-width="0.13"/>
  <line id="Line_94" data-name="Line 94" x2="8.342" y2="11.142" transform="translate(12.215 2.33)" stroke="#585858" stroke-miterlimit="10" stroke-width="0.13"/>
  <line id="Line_95" data-name="Line 95" x2="0.838" y2="7.958" transform="translate(20.25 5.513)" stroke="#585858" stroke-miterlimit="10" stroke-width="0.13"/>
</svg>
