<svg xmlns="http://www.w3.org/2000/svg" width="22" height="21.99" viewBox="0 0 22 21.99">
  <path id="palletes" d="M97.845,86.7a11,11,0,1,0-11,11.289h.03a2.862,2.862,0,0,0,2.841-2.871V92.581a2.9,2.9,0,0,1,2.9-2.9h2.393a2.83,2.83,0,0,0,2.832-2.876Zm-15.271-5.57a1.894,1.894,0,1,1-1.894,1.894A1.894,1.894,0,0,1,82.574,81.131Zm-1.4,9.1a1.771,1.771,0,1,1,1.771-1.771A1.771,1.771,0,0,1,81.169,90.232ZM84.5,94.386a1.558,1.558,0,1,1,1.558-1.558A1.558,1.558,0,0,1,84.5,94.386ZM88.529,83.7A2.168,2.168,0,1,1,90.7,81.528,2.168,2.168,0,0,1,88.529,83.7ZM92.9,87.117a1.771,1.771,0,1,1,1.771-1.771A1.771,1.771,0,0,1,92.9,87.117Z" transform="translate(-75.845 -76)" fill="#585858"/>
</svg>
