<svg xmlns="http://www.w3.org/2000/svg" width="17.562" height="20.071" viewBox="0 0 17.562 20.071">
  <path id="Icon_awesome-paste" data-name="Icon awesome-paste" d="M5.018,7.213a2.2,2.2,0,0,1,2.2-2.2h5.331V2.2a.941.941,0,0,0-.941-.941H8.443a2.506,2.506,0,0,0-4.343,0H.941A.941.941,0,0,0,0,2.2V15.367a.941.941,0,0,0,.941.941H5.018ZM6.272,1.568a.941.941,0,1,1-.941.941A.941.941,0,0,1,6.272,1.568Zm7.213,9.722h4.077v7.84a.941.941,0,0,1-.941.941H7.213a.941.941,0,0,1-.941-.941V7.213a.941.941,0,0,1,.941-.941h5.331v4.077A.944.944,0,0,0,13.485,11.29ZM17.562,9.8v.238H13.8V6.272h.238a.941.941,0,0,1,.665.276l2.585,2.585A.941.941,0,0,1,17.562,9.8Z" fill="#585858"/>
</svg>
