<svg xmlns="http://www.w3.org/2000/svg" width="18.574" height="22.345" viewBox="0 0 18.574 22.345">
  <g id="icon_4" data-name="icon 4" transform="translate(0.116 0.058)">
    <rect id="Rectangle_753" data-name="Rectangle 753" width="2.966" height="2.864" rx="0.28" transform="translate(10.809 6.242)" fill="#585858"/>
    <rect id="Rectangle_754" data-name="Rectangle 754" width="2.966" height="2.864" rx="0.28" transform="translate(4.128 8.863)" fill="#585858"/>
    <rect id="Rectangle_755" data-name="Rectangle 755" width="2.966" height="2.864" rx="0.28" transform="translate(11.601 13.985)" fill="#585858"/>
    <rect id="Rectangle_756" data-name="Rectangle 756" width="2.966" height="2.864" rx="0.28" transform="translate(15.493 17.566)" fill="#585858"/>
    <rect id="Rectangle_757" data-name="Rectangle 757" width="2.966" height="2.864" rx="0.28" transform="translate(7.944 10.093)" fill="#585858"/>
    <rect id="Rectangle_758" data-name="Rectangle 758" width="2.966" height="2.864" rx="0.28" transform="translate(4.128 15.426)" fill="#585858"/>
    <rect id="Rectangle_759" data-name="Rectangle 759" width="2.966" height="2.864" rx="0.28" transform="translate(0.497 5.872)" fill="#585858"/>
    <rect id="Rectangle_760" data-name="Rectangle 760" width="2.966" height="2.864" rx="0.28" transform="translate(13.336 2.384)" fill="#585858"/>
    <line id="Line_108" data-name="Line 108" x1="1.853" y2="2.502" transform="translate(6.47 12.923)" stroke="#585858" stroke-miterlimit="10" stroke-width="0.1"/>
    <line id="Line_109" data-name="Line 109" x1="4.566" y1="2.519" transform="translate(3.412 8.475)" stroke="#585858" stroke-miterlimit="10" stroke-width="0.1"/>
    <line id="Line_110" data-name="Line 110" x1="5.055" y2="6.116" transform="translate(9.672 4.675)" fill="none" stroke="#585858" stroke-miterlimit="10" stroke-width="0.1"/>
    <line id="Line_111" data-name="Line 111" x2="4.667" y2="5.603" transform="translate(10.859 12.443)" fill="none" stroke="#585858" stroke-miterlimit="10" stroke-width="0.1"/>
    <path id="Path_3425" data-name="Path 3425" d="M5.58,9.792c0-2.115,2.907-6.361,7.54-2.62" transform="translate(-0.871 -0.888)" fill="none" stroke="#585858" stroke-miterlimit="10" stroke-width="0.1"/>
    <path id="Path_3426" data-name="Path 3426" d="M1.08,6.015c0-3.631,7.936-9.2,13.9-3.555" transform="translate(-0.162 0)" fill="none" stroke="#585858" stroke-miterlimit="10" stroke-width="0.1"/>
    <path id="Path_3427" data-name="Path 3427" d="M16,9.15c2.612.6,5.249,5.021,1.028,7.625" transform="translate(-2.512 -1.433)" fill="none" stroke="#585858" stroke-miterlimit="10" stroke-width="0.1"/>
    <path id="Path_3428" data-name="Path 3428" d="M.733,10.36C-2.9,19.484,8.787,27.126,16.976,22.054" transform="translate(0 -1.624)" fill="none" stroke="#585858" stroke-miterlimit="10" stroke-width="0.1"/>
  </g>
</svg>
