<svg xmlns="http://www.w3.org/2000/svg" width="24.349" height="24.484" viewBox="0 0 24.349 24.484">
  <path id="repeat" d="M2.727,77.1H0l3.636,3.636L7.272,77.1H4.545A5.469,5.469,0,0,1,10,71.649a5.851,5.851,0,0,1,2.545.636L13.9,70.923A8.122,8.122,0,0,0,10,69.832,7.291,7.291,0,0,0,2.727,77.1Zm12.723,0A5.469,5.469,0,0,1,10,82.555a5.851,5.851,0,0,1-2.545-.636L6.09,83.282A8.123,8.123,0,0,0,10,84.373a7.292,7.292,0,0,0,7.271-7.27H20l-3.636-3.636L12.723,77.1Z" transform="matrix(0.695, -0.719, 0.719, 0.695, -50.233, -34.126)" fill="white"/>
</svg>
