<svg id="settings" xmlns="http://www.w3.org/2000/svg" width="21.006" height="21.007" viewBox="0 0 21.006 21.007">
  <path id="settings-2" data-name="settings" d="M19.854,8.223l-1.646-.209a8.272,8.272,0,0,0-.5-1.2L18.727,5.5A1.3,1.3,0,0,0,18.62,3.77L17.242,2.391A1.3,1.3,0,0,0,15.5,2.28L14.2,3.3a8.242,8.242,0,0,0-1.2-.5l-.209-1.643A1.311,1.311,0,0,0,11.484,0H9.523a1.311,1.311,0,0,0-1.3,1.153L8.013,2.8a8.146,8.146,0,0,0-1.2.5L5.5,2.28a1.3,1.3,0,0,0-1.732.107L2.391,3.765A1.3,1.3,0,0,0,2.28,5.5L3.3,6.811a8.175,8.175,0,0,0-.5,1.2l-1.643.209A1.311,1.311,0,0,0,0,9.523v1.961a1.311,1.311,0,0,0,1.153,1.3l1.646.209a8.272,8.272,0,0,0,.5,1.2L2.28,15.505a1.3,1.3,0,0,0,.107,1.732l1.379,1.379a1.306,1.306,0,0,0,1.737.11L6.811,17.71a8.081,8.081,0,0,0,1.2.5l.209,1.642a1.311,1.311,0,0,0,1.3,1.157h1.961a1.311,1.311,0,0,0,1.3-1.153l.209-1.646a8.272,8.272,0,0,0,1.2-.5l1.309,1.016a1.3,1.3,0,0,0,1.732-.107l1.379-1.379a1.3,1.3,0,0,0,.111-1.737L17.711,14.2a8.081,8.081,0,0,0,.5-1.2l1.642-.209a1.311,1.311,0,0,0,1.155-1.3V9.523a1.309,1.309,0,0,0-1.152-1.3ZM10.5,14.88A4.376,4.376,0,1,1,14.88,10.5,4.381,4.381,0,0,1,10.5,14.88Z" transform="translate(0 0)" fill="#585858"/>
</svg>
