<svg xmlns="http://www.w3.org/2000/svg" width="16" height="15.347" viewBox="0 0 16 15.347">
  <path id="star_2956792" d="M13.708,17.343a1.288,1.288,0,0,1-.6-.15L9.65,15.378a.185.185,0,0,0-.174,0L6.023,17.193a1.3,1.3,0,0,1-1.88-1.366L4.8,11.982a.187.187,0,0,0-.055-.166L1.955,9.091a1.3,1.3,0,0,1,.72-2.211l3.859-.56a.187.187,0,0,0,.141-.1L8.4,2.718a1.3,1.3,0,0,1,2.324,0l1.726,3.5a.188.188,0,0,0,.141.1l3.862.561a1.3,1.3,0,0,1,.72,2.211l-2.795,2.723a.188.188,0,0,0-.055.166l.659,3.845a1.3,1.3,0,0,1-1.275,1.516Zm-4.145-3.1a1.289,1.289,0,0,1,.6.15l3.453,1.815a.178.178,0,0,0,.2-.014.18.18,0,0,0,.075-.183l-.66-3.846a1.3,1.3,0,0,1,.372-1.147L16.4,8.3a.187.187,0,0,0-.1-.319l-3.861-.561a1.294,1.294,0,0,1-.975-.709L9.73,3.211a.187.187,0,0,0-.336,0l-1.725,3.5a1.294,1.294,0,0,1-.976.709L2.832,7.98a.187.187,0,0,0-.1.319l2.794,2.724A1.3,1.3,0,0,1,5.9,12.169l-.66,3.846a.187.187,0,0,0,.273.2L8.961,14.4a1.294,1.294,0,0,1,.6-.149Z" transform="translate(-1.563 -1.996)" fill="#585858"/>
</svg>
