<svg xmlns="http://www.w3.org/2000/svg" width="16.136" height="16.137" viewBox="0 0 16.136 16.137">
  <g id="help-web-button" transform="translate(-0.008)">
    <path id="Path_100" data-name="Path 100" d="M8.076,0a8.068,8.068,0,1,0,8.068,8.064A8.066,8.066,0,0,0,8.076,0Zm.575,12.554A.95.95,0,0,1,8,12.8a.983.983,0,0,1-.666-.247.866.866,0,0,1-.285-.691.891.891,0,0,1,.275-.663A.93.93,0,0,1,8,10.934a.919.919,0,0,1,.932.932A.874.874,0,0,1,8.651,12.554Zm2.337-5.793a2.853,2.853,0,0,1-.513.691q-.3.291-1.067.979a4.415,4.415,0,0,0-.341.341,1.389,1.389,0,0,0-.191.269,1.3,1.3,0,0,0-.1.244q-.034.122-.1.429a.7.7,0,0,1-.744.651.762.762,0,0,1-.548-.213.836.836,0,0,1-.222-.632,2.328,2.328,0,0,1,.163-.91,2.3,2.3,0,0,1,.431-.676,9.891,9.891,0,0,1,.726-.691q.4-.35.579-.529a1.789,1.789,0,0,0,.3-.4.956.956,0,0,0,.122-.475A1.1,1.1,0,0,0,9.111,5a1.359,1.359,0,0,0-.96-.344A1.329,1.329,0,0,0,7.137,5a2.77,2.77,0,0,0-.55,1.023q-.213.707-.807.707a.794.794,0,0,1-.591-.247.756.756,0,0,1-.241-.535,2.263,2.263,0,0,1,.382-1.2,2.937,2.937,0,0,1,1.114-1.01,3.5,3.5,0,0,1,1.708-.4,3.643,3.643,0,0,1,1.6.335,2.6,2.6,0,0,1,1.073.91A2.234,2.234,0,0,1,11.2,5.829,1.927,1.927,0,0,1,10.988,6.761Z" fill="#585858"/>
  </g>
</svg>
