<svg id="user_1_" data-name="user (1)" xmlns="http://www.w3.org/2000/svg" width="18.543" height="21.235" viewBox="0 0 18.543 21.235">
  <g id="Group_4" data-name="Group 4" transform="translate(3.709)">
    <g id="Group_3" data-name="Group 3">
      <path id="Path_49" data-name="Path 49" d="M126.563,0a5.6,5.6,0,1,0,5.563,5.6A5.588,5.588,0,0,0,126.563,0Z" transform="translate(-121)" fill="#585858"/>
    </g>
  </g>
  <g id="Group_6" data-name="Group 6" transform="translate(0 12.442)">
    <g id="Group_5" data-name="Group 5">
      <path id="Path_50" data-name="Path 50" d="M47.193,302.414A7.905,7.905,0,0,0,41.508,300H39.035a7.905,7.905,0,0,0-5.685,2.414A8.188,8.188,0,0,0,31,308.171a.62.62,0,0,0,.618.622H48.925a.62.62,0,0,0,.618-.622A8.188,8.188,0,0,0,47.193,302.414Z" transform="translate(-31 -300)" fill="#585858"/>
    </g>
  </g>
</svg>
