<svg xmlns="http://www.w3.org/2000/svg" width="19.336" height="22" viewBox="0 0 19.336 22">
  <g id="user_1_" data-name="user (1)" transform="translate(-31)">
    <g id="Group_515" data-name="Group 515" transform="translate(34.867)">
      <g id="Group_514" data-name="Group 514">
        <path id="Path_3385" data-name="Path 3385" d="M126.8,0a5.8,5.8,0,1,0,5.8,5.8A5.807,5.807,0,0,0,126.8,0Z" transform="translate(-121)" fill="#ebedef"/>
      </g>
    </g>
    <g id="Group_517" data-name="Group 517" transform="translate(31 12.891)">
      <g id="Group_516" data-name="Group 516">
        <path id="Path_3386" data-name="Path 3386" d="M47.885,302.5a8.27,8.27,0,0,0-5.928-2.5H39.379a8.27,8.27,0,0,0-5.928,2.5A8.454,8.454,0,0,0,31,308.465a.645.645,0,0,0,.645.645H49.691a.645.645,0,0,0,.645-.645A8.454,8.454,0,0,0,47.885,302.5Z" transform="translate(-31 -300)" fill="#ebedef"/>
      </g>
    </g>
  </g>
</svg>
