<?xml version="1.0" encoding="iso-8859-1"?>
<!-- Generator: Adobe Illustrator 19.1.0, SVG Export Plug-In . SVG Version: 6.00 Build 0)  -->
<svg version="1.1" id="Capa_1" xmlns="http://www.w3.org/2000/svg" xmlns:xlink="http://www.w3.org/1999/xlink" x="0px" y="0px"
	 viewBox="0 0 487.75 487.75" style="enable-background:new 0 0 487.75 487.75;" xml:space="preserve">
<g>
	<g>
		<path d="M173.05,276.65L173.05,276.65c0.2,0,0.3,0,0.5,0s0.3,0,0.5,0l0,0c88.8-0.9,75.9-119.5,75.9-119.5
			c-3.6-79.2-69.9-78.6-76.4-78.3c-6.5-0.3-72.8-0.9-76.4,78.3C97.15,157.25,84.25,275.75,173.05,276.65z"/>
		<path d="M303.95,339.35c-34.6-21.8-73.4-40.6-73.4-40.6l-30.8,97.4l-18-51.1c31.6-44.1-2.2-46.3-8.3-46.4l0,0c-0.1,0-0.1,0-0.2,0
			s-0.1,0-0.2,0l0,0c-6,0.1-39.9,2.3-8.3,46.4l-18,51.1l-30.8-97.4c0,0-38.7,18.8-73.4,40.6c-26.1,16.4-31,34.1-31.7,59.7v88.7
			h324.7v-88.7C334.95,373.45,330.15,355.75,303.95,339.35z"/>
		<path d="M449.75,27.15c-36.2-36.2-94.8-36.2-130.9,0c-34.8,34.8-36.1,90.4-3.9,126.8l0.9,0.8c-3.5,7.6-9.5,16.9-19.1,21.6
			c-3.2,1.5-2.4,6.2,1,6.8c10.4,1.6,25.4-0.2,39.4-10.8l0.2,0.2c35.5,20.9,81.9,16.1,112.4-14.4
			C485.95,121.85,485.95,63.25,449.75,27.15z M409.05,126.45c-3.8,4.6-8.6,7.6-14.3,9.2c-2.5,0.7-3.6,2-3.5,4.6c0.1,2.5,0,5.1,0,7.6
			c0,2.3-1.2,3.5-3.4,3.5c-2.7,0.1-5.5,0.1-8.2,0c-2.4,0-3.5-1.4-3.5-3.7c0-1.9,0-3.7-0.1-5.6c0-4.1-0.2-4.3-4.1-4.9
			c-5-0.8-10-1.9-14.6-4.2c-3.6-1.8-4-2.7-3-6.5c0.8-2.8,1.6-5.7,2.4-8.4c1-3.2,1.9-3.7,4.9-2.1c5.1,2.7,10.5,4.1,16.2,4.8
			c3.7,0.5,7.2,0.1,10.6-1.4c6.3-2.8,7.3-10.1,2-14.5c-1.8-1.5-3.9-2.6-6-3.5c-5.5-2.4-11.3-4.3-16.5-7.4
			c-8.5-5.1-13.9-12.1-13.2-22.4c0.7-11.7,7.3-19,18-22.9c4.4-1.6,4.4-1.5,4.5-6.2c0-1.6,0-3.1,0-4.7c0.1-3.5,0.7-4.1,4.1-4.2
			c1.1,0,2.1,0,3.2,0c7.4,0,7.4,0,7.4,7.4c0,5.2,0,5.2,5.2,6.1c4,0.6,7.8,1.8,11.5,3.4c2,0.9,2.8,2.3,2.2,4.5
			c-0.9,3.2-1.8,6.4-2.8,9.6c-1,3-1.9,3.4-4.8,2c-5.8-2.8-11.8-4-18.2-3.6c-1.7,0.1-3.3,0.3-4.8,1c-5.5,2.4-6.4,8.5-1.7,12.2
			c2.4,1.9,5.1,3.3,7.9,4.4c4.9,2,9.8,4,14.4,6.5C415.45,95.35,419.35,113.85,409.05,126.45z"/>
	</g>
</g>
<g>
</g>
<g>
</g>
<g>
</g>
<g>
</g>
<g>
</g>
<g>
</g>
<g>
</g>
<g>
</g>
<g>
</g>
<g>
</g>
<g>
</g>
<g>
</g>
<g>
</g>
<g>
</g>
<g>
</g>
</svg>
