<?xml version="1.0" encoding="iso-8859-1"?>
<!-- Generator: Adobe Illustrator 19.1.0, SVG Export Plug-In . SVG Version: 6.00 Build 0)  -->
<svg version="1.1" id="Capa_1" xmlns="http://www.w3.org/2000/svg" xmlns:xlink="http://www.w3.org/1999/xlink" x="0px" y="0px"
	 viewBox="0 0 489.3 489.3" style="enable-background:new 0 0 489.3 489.3;" xml:space="preserve">
<g>
	<g>
		<path d="M456.2,91.25H343.6c-18.2,0-33,14.9-33,33v240.8c0,18.2,14.9,33,33,33h112.7c18.2,0,33-14.9,33-33v-67.2v-145.4v-28.2
			C489.2,106.05,474.4,91.25,456.2,91.25z M414.1,384.15h-31.8c-4.7,0-8.5-3.8-8.5-8.5s3.8-8.5,8.5-8.5h31.8c4.7,0,8.5,3.8,8.5,8.5
			S418.8,384.15,414.1,384.15z M471.7,146.15v6.3v145.2v16.8v30.2c0,4.7-3.8,8.5-8.5,8.5H336.5c-4.7,0-8.5-3.8-8.5-8.5v-200
			c0-4.7,3.8-8.5,8.5-8.5h126.7c4.7,0,8.5,3.8,8.5,8.5L471.7,146.15L471.7,146.15z"/>
		<path d="M290.3,221.85l-26.4-16.4c-1.3-0.8-2.9,0.1-2.9,1.6v8.1h-60.9c-1.4,0-2.5,1.1-2.5,2.5v11.7c0,1.4,1.1,2.5,2.5,2.5H261v8.1
			c0,1.5,1.6,2.4,2.9,1.6l26.4-16.4C291.5,224.35,291.5,222.65,290.3,221.85z"/>
		<path d="M288.6,258.65h-60.9v-8.1c0-1.5-1.6-2.4-2.9-1.6l-26.4,16.4c-1.2,0.7-1.2,2.5,0,3.2l26.4,16.4c1.3,0.8,2.9-0.1,2.9-1.6
			v-8.1h60.9c1.4,0,2.5-1.1,2.5-2.5v-11.7C291.2,259.75,290,258.65,288.6,258.65z"/>
		<path d="M145.6,91.25H33c-18.2,0-33,14.9-33,33v240.8c0,18.2,14.9,33,33,33h112.6c18.2,0,33-14.9,33-33v-67.2v-145.4v-28.2
			C178.6,106.05,163.8,91.25,145.6,91.25z M103.5,384.15H71.7c-4.7,0-8.5-3.8-8.5-8.5s3.8-8.5,8.5-8.5h31.8c4.7,0,8.5,3.8,8.5,8.5
			S108.2,384.15,103.5,384.15z M161.1,146.15v6.3v145.2v16.8v30.2c0,4.7-3.8,8.5-8.5,8.5H25.9c-4.7,0-8.5-3.8-8.5-8.5v-200
			c0-4.7,3.8-8.5,8.5-8.5h126.7c4.7,0,8.5,3.8,8.5,8.5V146.15z"/>
		<path d="M89,194.65c-27.8,0-50.4,22.6-50.4,50.4s22.6,50.4,50.4,50.4s50.4-22.6,50.4-50.4C139.3,217.25,116.7,194.65,89,194.65z
			 M89,284.95c-22,0-39.9-17.9-39.9-39.9s17.9-39.9,39.9-39.9s39.9,17.9,39.9,39.9S111,284.95,89,284.95z"/>
		<path d="M97.5,242.15c-2.4-1.3-5-2.4-7.6-3.4c-1.5-0.6-2.9-1.3-4.1-2.3c-2.5-2-2-5.2,0.9-6.4c0.8-0.4,1.7-0.5,2.5-0.5
			c3.3-0.2,6.5,0.4,9.5,1.9c1.5,0.7,2,0.5,2.5-1.1c0.5-1.7,1-3.3,1.5-5c0.3-1.1-0.1-1.9-1.1-2.3c-1.9-0.9-3.9-1.5-6-1.8
			c-2.7-0.4-2.7-0.4-2.7-3.2c0-3.9,0-3.9-3.9-3.9c-0.6,0-1.1,0-1.7,0c-1.8,0.1-2.1,0.4-2.2,2.2c0,0.8,0,1.6,0,2.5
			c0,2.4,0,2.4-2.3,3.2c-5.6,2-9.1,5.9-9.5,12c-0.3,5.4,2.5,9.1,7,11.8c2.7,1.6,5.8,2.6,8.7,3.9c1.1,0.5,2.2,1.1,3.2,1.9
			c2.8,2.3,2.3,6.2-1,7.6c-1.8,0.8-3.7,1-5.6,0.7c-3-0.4-5.8-1.2-8.5-2.5c-1.6-0.8-2-0.6-2.6,1.1c-0.5,1.5-0.9,3-1.3,4.4
			c-0.5,2-0.4,2.5,1.6,3.4c2.4,1.2,5,1.8,7.7,2.2c2.1,0.3,2.1,0.4,2.2,2.6c0,1,0,1.9,0,2.9c0,1.2,0.6,1.9,1.9,2c1.4,0,2.9,0,4.3,0
			c1.2,0,1.8-0.7,1.8-1.9c0-1.3,0.1-2.7,0-4c-0.1-1.4,0.5-2,1.8-2.4c3-0.8,5.6-2.4,7.5-4.8C107.4,256.15,105.3,246.45,97.5,242.15z"
			/>
		<path d="M400,194.65c-27.8,0-50.4,22.6-50.4,50.4s22.6,50.4,50.4,50.4s50.4-22.6,50.4-50.4C450.3,217.25,427.7,194.65,400,194.65z
			 M400,284.95c-22,0-39.9-17.9-39.9-39.9s17.9-39.9,39.9-39.9s39.9,17.9,39.9,39.9S422,284.95,400,284.95z"/>
		<path d="M408.5,242.15c-2.4-1.3-5-2.4-7.6-3.4c-1.5-0.6-2.9-1.3-4.1-2.3c-2.5-2-2-5.2,0.9-6.4c0.8-0.4,1.7-0.5,2.5-0.5
			c3.3-0.2,6.5,0.4,9.5,1.9c1.5,0.7,2,0.5,2.5-1.1c0.5-1.7,1-3.3,1.5-5c0.3-1.1-0.1-1.9-1.1-2.3c-1.9-0.9-3.9-1.5-6-1.8
			c-2.7-0.4-2.7-0.4-2.7-3.2c0-3.9,0-3.9-3.9-3.9c-0.6,0-1.1,0-1.7,0c-1.8,0.1-2.1,0.4-2.2,2.2c0,0.8,0,1.6,0,2.5
			c0,2.4,0,2.4-2.3,3.2c-5.6,2-9.1,5.9-9.5,12c-0.3,5.4,2.5,9.1,7,11.8c2.7,1.6,5.8,2.6,8.7,3.9c1.1,0.5,2.2,1.1,3.2,1.9
			c2.8,2.3,2.3,6.2-1,7.6c-1.8,0.8-3.7,1-5.6,0.7c-3-0.4-5.8-1.2-8.5-2.5c-1.6-0.8-2-0.6-2.6,1.1c-0.5,1.5-0.9,3-1.3,4.4
			c-0.5,2-0.4,2.5,1.6,3.4c2.4,1.2,5,1.8,7.7,2.2c2.1,0.3,2.1,0.4,2.2,2.6c0,1,0,1.9,0,2.9c0,1.2,0.6,1.9,1.9,2c1.4,0,2.9,0,4.3,0
			c1.2,0,1.8-0.7,1.8-1.9c0-1.3,0.1-2.7,0-4c-0.1-1.4,0.5-2,1.8-2.4c3-0.8,5.6-2.4,7.5-4.8C418.4,256.15,416.3,246.45,408.5,242.15z
			"/>
	</g>
</g>
<g>
</g>
<g>
</g>
<g>
</g>
<g>
</g>
<g>
</g>
<g>
</g>
<g>
</g>
<g>
</g>
<g>
</g>
<g>
</g>
<g>
</g>
<g>
</g>
<g>
</g>
<g>
</g>
<g>
</g>
</svg>
