<?xml version="1.0" encoding="iso-8859-1"?>
<!-- Generator: Adobe Illustrator 19.1.0, SVG Export Plug-In . SVG Version: 6.00 Build 0)  -->
<svg version="1.1" id="Capa_1" xmlns="http://www.w3.org/2000/svg" xmlns:xlink="http://www.w3.org/1999/xlink" x="0px" y="0px"
	 viewBox="0 0 486.825 486.825" style="enable-background:new 0 0 486.825 486.825;" xml:space="preserve">
<g>
	<g>
		<path d="M208.113,11.25c-15-15-39.5-15-54.5,0l-68.3,68.4h191.2L208.113,11.25z"/>
		<path d="M283.513,475.95c14.5,14.5,38.2,14.5,52.7,0l66.1-66.1h-184.9L283.513,475.95z"/>
		<path d="M240.713,160.35c-46.6,0-84.4,37.8-84.4,84.4s37.8,84.4,84.4,84.4s84.4-37.8,84.4-84.4
			C325.212,198.15,287.413,160.35,240.713,160.35z M265.013,278.05c-3.7,4.5-8.5,7.5-14.1,9c-2.4,0.7-3.5,1.9-3.4,4.5
			c0.1,2.5,0,5,0,7.5c0,2.2-1.1,3.4-3.3,3.5c-2.7,0.1-5.4,0.1-8,0c-2.4,0-3.5-1.4-3.5-3.7c0-1.8,0-3.6-0.1-5.5c0-4-0.2-4.2-4-4.8
			c-4.9-0.8-9.8-1.9-14.3-4.1c-3.6-1.7-3.9-2.6-2.9-6.3c0.8-2.8,1.5-5.6,2.4-8.3c1-3.2,1.9-3.6,4.8-2.1c5,2.6,10.3,4.1,15.9,4.8
			c3.6,0.4,7.1,0.1,10.4-1.4c6.2-2.7,7.2-9.9,1.9-14.2c-1.8-1.5-3.8-2.6-5.9-3.5c-5.4-2.4-11.1-4.2-16.3-7.3c-8.3-5-13.6-11.8-13-22
			c0.7-11.5,7.2-18.6,17.7-22.5c4.3-1.6,4.4-1.5,4.4-6c0-1.5,0-3.1,0-4.6c0.1-3.4,0.7-4,4.1-4.1c1.1,0,2.1,0,3.2,0
			c7.3,0,7.3,0,7.3,7.2c0,5.1,0,5.2,5.1,6c3.9,0.6,7.6,1.8,11.3,3.4c2,0.9,2.7,2.3,2.1,4.4c-0.9,3.1-1.8,6.3-2.8,9.4
			c-0.9,2.9-1.9,3.4-4.7,2c-5.7-2.7-11.6-3.9-17.9-3.5c-1.6,0.1-3.2,0.3-4.8,1c-5.4,2.4-6.3,8.3-1.7,12c2.3,1.9,5,3.2,7.7,4.4
			c4.8,2,9.6,3.9,14.1,6.4C271.312,247.55,275.212,265.65,265.013,278.05z"/>
		<circle cx="118.013" cy="249.05" r="23.4"/>
		<circle cx="363.613" cy="249.05" r="23.4"/>
		<path d="M427.212,107.15h-367.6c-21.2,0-38.5,17.3-38.5,38.5v198.2c0,21.2,17.3,38.5,38.5,38.5h367.6c21.2,0,38.5-17.3,38.5-38.5
			v-198.2C465.712,124.45,448.413,107.15,427.212,107.15z M432.812,303.95c-2.2-0.4-4.5-0.6-6.9-0.6c-21.5,0-39,17.5-39,39
			c0,2.5,0.2,4.8,0.7,7.2h-285.3c0.2-1.6,0.3-3.2,0.3-4.8c0-21.5-17.5-39-39-39c-3.3,0-6.6,0.4-9.6,1.2v-119.6
			c3.1,0.8,6.3,1.2,9.6,1.2c21.5,0,39-17.5,39-39c0-3.3-0.4-6.5-1.2-9.5h286.2c-0.4,2.3-0.7,4.7-0.7,7.2c0,21.5,17.5,39,39,39
			c2.3,0,4.6-0.2,6.9-0.6V303.95z"/>
	</g>
</g>
<g>
</g>
<g>
</g>
<g>
</g>
<g>
</g>
<g>
</g>
<g>
</g>
<g>
</g>
<g>
</g>
<g>
</g>
<g>
</g>
<g>
</g>
<g>
</g>
<g>
</g>
<g>
</g>
<g>
</g>
</svg>
