<?xml version="1.0" encoding="iso-8859-1"?>
<!-- Generator: Adobe Illustrator 19.1.0, SVG Export Plug-In . SVG Version: 6.00 Build 0)  -->
<svg version="1.1" id="Capa_1" xmlns="http://www.w3.org/2000/svg" xmlns:xlink="http://www.w3.org/1999/xlink" x="0px" y="0px"
	 viewBox="0 0 490 490" style="enable-background:new 0 0 490 490;" xml:space="preserve">
<g>
	<g>
		<path d="M334.6,89.6c-19.2,0-37.5,3.5-54.5,9.8c41,35.2,66.9,87.3,66.9,145.5s-26,110.4-66.9,145.5c17,6.4,35.3,9.8,54.5,9.8
			c85.8,0,155.4-69.6,155.4-155.4C490,159.2,420.4,89.6,334.6,89.6z"/>
		<path d="M155.4,89.6C69.6,89.6,0,159.2,0,245s69.6,155.4,155.4,155.4S310.8,330.8,310.8,245S241.2,89.6,155.4,89.6z M200,306.3
			c-6.8,8.2-15.6,13.8-25.9,16.6c-4.5,1.2-6.5,3.6-6.3,8.3c0.2,4.6,0,9.2,0,13.8c0,4.1-2.1,6.3-6.1,6.4c-4.9,0.1-9.9,0.1-14.8,0
			c-4.3-0.1-6.4-2.5-6.4-6.8c0-3.4-0.1-6.7-0.1-10.1c-0.1-7.4-0.3-7.7-7.4-8.8c-9.1-1.4-18-3.5-26.4-7.6c-6.5-3.2-7.2-4.8-5.3-11.7
			c1.4-5.1,2.8-10.2,4.4-15.3c1.8-5.9,3.4-6.6,8.8-3.8c9.2,4.8,19,7.5,29.3,8.8c6.6,0.8,13.1,0.2,19.2-2.5
			c11.4-5,13.2-18.2,3.6-26.2c-3.3-2.7-7-4.7-10.9-6.4c-10-4.4-20.5-7.8-29.9-13.4c-15.3-9.2-25.1-21.8-23.9-40.5
			c1.3-21.1,13.2-34.3,32.6-41.3c8-2.9,8-2.8,8.1-11.1c0-2.8,0-5.7,0-8.5c0.2-6.3,1.2-7.4,7.5-7.6c1.9-0.1,3.9,0,5.8,0
			c13.3,0,13.3,0,13.4,13.3c0,9.4,0,9.5,9.4,11c7.2,1.1,14.1,3.3,20.7,6.2c3.7,1.6,5.1,4.2,3.9,8.1c-1.7,5.8-3.2,11.6-5.1,17.3
			c-1.7,5.4-3.5,6.2-8.7,3.7c-10.4-5-21.4-7.1-32.9-6.5c-3,0.2-6,0.6-8.8,1.8c-9.9,4.4-11.6,15.3-3.1,22.1c4.3,3.4,9.2,5.9,14.3,8
			c8.8,3.6,17.7,7.1,26,11.8C211.6,250,218.8,283.5,200,306.3z"/>
	</g>
</g>
<g>
</g>
<g>
</g>
<g>
</g>
<g>
</g>
<g>
</g>
<g>
</g>
<g>
</g>
<g>
</g>
<g>
</g>
<g>
</g>
<g>
</g>
<g>
</g>
<g>
</g>
<g>
</g>
<g>
</g>
</svg>
