<?xml version="1.0" encoding="iso-8859-1"?>
<!-- Generator: Adobe Illustrator 19.1.0, SVG Export Plug-In . SVG Version: 6.00 Build 0)  -->
<svg version="1.1" id="Capa_1" xmlns="http://www.w3.org/2000/svg" xmlns:xlink="http://www.w3.org/1999/xlink" x="0px" y="0px"
	 viewBox="0 0 487.901 487.901" style="enable-background:new 0 0 487.901 487.901;" xml:space="preserve">
<g>
	<g>
		<path d="M198,215.1c-42,0-76.1,34.1-76.1,76.1s34.1,76.1,76.1,76.1s76.1-34.1,76.1-76.1S240,215.1,198,215.1z M219.8,321.2
			c-3.3,4-7.6,6.7-12.7,8.1c-2.2,0.6-3.2,1.8-3.1,4c0.1,2.2,0,4.5,0,6.7c0,2-1,3.1-3,3.1c-2.4,0.1-4.8,0.1-7.3,0
			c-2.1,0-3.1-1.2-3.1-3.3c0-1.6,0-3.3,0-4.9c0-3.6-0.2-3.8-3.6-4.3c-4.5-0.7-8.8-1.7-12.9-3.7c-3.2-1.6-3.5-2.4-2.6-5.7
			c0.7-2.5,1.4-5,2.1-7.5c0.9-2.9,1.7-3.2,4.3-1.9c4.5,2.4,9.3,3.7,14.3,4.3c3.2,0.4,6.4,0.1,9.4-1.2c5.6-2.4,6.5-8.9,1.7-12.8
			c-1.6-1.3-3.4-2.3-5.3-3.1c-4.9-2.2-10-3.8-14.7-6.6c-7.5-4.5-12.3-10.7-11.7-19.8c0.6-10.3,6.5-16.8,16-20.2
			c3.9-1.4,3.9-1.4,4-5.5c0-1.4,0-2.8,0-4.1c0.1-3.1,0.6-3.6,3.7-3.7c1,0,1.9,0,2.9,0c6.5,0,6.5,0,6.6,6.5c0,4.6,0,4.6,4.6,5.4
			c3.5,0.6,6.9,1.6,10.2,3c1.8,0.8,2.5,2,1.9,3.9c-0.8,2.8-1.6,5.7-2.5,8.5c-0.9,2.6-1.7,3-4.2,1.8c-5.1-2.5-10.5-3.5-16.1-3.2
			c-1.5,0.1-2.9,0.3-4.3,0.9c-4.9,2.1-5.7,7.5-1.5,10.8c2.1,1.7,4.5,2.9,7,3.9c4.3,1.8,8.7,3.5,12.8,5.8
			C225.5,293.7,229,310.1,219.8,321.2z"/>
		<circle cx="87.4" cy="295.1" r="21.1"/>
		<circle cx="308.7" cy="295.1" r="21.1"/>
		<path d="M453.3,72.7H122c-19.2,0-34.7,15.6-34.7,34.7v31.2H366c34.9,0,63.2,28.4,63.2,63.2v119h24c19.2,0,34.7-15.6,34.7-34.7
			V107.4C488,88.3,472.4,72.7,453.3,72.7z"/>
		<path d="M366,167.1H34.7C15.5,167.1,0,182.7,0,201.8v178.7c0,19.2,15.6,34.7,34.7,34.7H366c19.2,0,34.7-15.6,34.7-34.7V201.9
			C400.8,182.7,385.2,167.1,366,167.1z M371.1,344.6c-2-0.4-4.1-0.6-6.2-0.6c-19.4,0-35.2,15.7-35.2,35.2c0,2.2,0.2,4.4,0.6,6.5
			H73.2c0.2-1.4,0.3-2.9,0.3-4.4c0-19.4-15.7-35.2-35.2-35.2c-3,0-5.9,0.4-8.7,1.1V239.4c2.8,0.7,5.7,1.1,8.7,1.1
			c19.4,0,35.2-15.7,35.2-35.2c0-3-0.4-5.8-1.1-8.6h258c-0.4,2.1-0.6,4.3-0.6,6.5c0,19.4,15.7,35.2,35.2,35.2c2.1,0,4.2-0.2,6.2-0.6
			v106.8H371.1z"/>
	</g>
</g>
<g>
</g>
<g>
</g>
<g>
</g>
<g>
</g>
<g>
</g>
<g>
</g>
<g>
</g>
<g>
</g>
<g>
</g>
<g>
</g>
<g>
</g>
<g>
</g>
<g>
</g>
<g>
</g>
<g>
</g>
</svg>
