<?xml version="1.0" encoding="iso-8859-1"?>
<!-- Generator: Adobe Illustrator 19.1.0, SVG Export Plug-In . SVG Version: 6.00 Build 0)  -->
<svg version="1.1" id="Capa_1" xmlns="http://www.w3.org/2000/svg" xmlns:xlink="http://www.w3.org/1999/xlink" x="0px" y="0px"
	 viewBox="0 0 489 489" style="enable-background:new 0 0 489 489;" xml:space="preserve">
<g>
	<g>
		<path d="M478.7,291.7l-31.6-5.4c-3.1-12.2-7.8-23.6-14-34.2l18.7-26.1c3.5-4.8,2.9-11.4-1.2-15.6l-11.1-11.2L428.4,188
			c-2.3-2.3-5.4-3.6-8.6-3.6c-2.4,0-4.9,0.7-7,2.2l-26.3,18.5c-10.1-6.1-21.1-10.8-32.9-13.9c-2.4,15-6.6,29.5-12.2,43.1
			c30.2,8.1,55.1,32.2,62.6,64.8c10.8,47-18.6,93.9-65.6,104.7c-6.6,1.5-13.2,2.2-19.6,2.2c-38.8,0-74-26-84.3-64.8
			c-13.7,5.6-28.1,9.8-43.2,12.2c3.1,11.7,7.9,22.7,13.8,32.8l-18.6,26.1c-3.5,4.8-2.9,11.4,1.2,15.6l11.1,11.2l11.1,11.2
			c2.3,2.3,5.4,3.6,8.6,3.6c2.4,0,4.9-0.7,7-2.2l26.4-18.6c10.3,6,21.5,10.8,33.3,13.9l5.2,31.6c1,5.9,6,10.2,12,10.2l15.9,0.1
			l15.9,0.1l0,0c5.8,0,11-4.3,12-10.1l5.4-31.6c12.2-3.1,23.6-7.8,34.2-14l26.1,18.7c2.1,1.5,4.6,2.3,7.1,2.3c3.1,0,6.2-1.2,8.5-3.5
			l11.2-11.1l11.2-11.1c4.2-4.1,4.8-10.7,1.3-15.6l-18.5-26.2c6.3-10.6,11.1-22,14.3-34.1l31.6-5.2c5.9-1,10.2-6,10.2-12l0.1-15.9
			l0.1-15.9C488.7,297.8,484.4,292.8,478.7,291.7z"/>
		<path d="M318.9,159.5C318.9,71.4,247.5,0,159.5,0C71.4,0,0,71.4,0,159.5s71.4,159.4,159.5,159.4
			C247.5,318.9,318.9,247.5,318.9,159.5z M205.3,222.3c-7,8.5-16,14.1-26.6,17c-4.6,1.3-6.7,3.7-6.5,8.5c0.2,4.7,0,9.4,0,14.1
			c0,4.2-2.1,6.4-6.3,6.6c-5.1,0.1-10.1,0.1-15.2,0c-4.4-0.1-6.5-2.6-6.6-6.9c0-3.4-0.1-6.9-0.1-10.3c-0.1-7.6-0.3-7.9-7.6-9.1
			c-9.3-1.5-18.5-3.6-27.1-7.8c-6.7-3.3-7.4-4.9-5.5-12c1.4-5.2,2.9-10.5,4.5-15.7c1.9-6,3.5-6.8,9.1-3.9c9.5,4.9,19.5,7.7,30,9
			c6.8,0.8,13.4,0.2,19.7-2.6c11.7-5.1,13.6-18.7,3.7-26.9c-3.4-2.8-7.2-4.8-11.2-6.6c-10.3-4.5-21-8-30.7-13.8
			c-15.7-9.4-25.7-22.4-24.6-41.5c1.3-21.7,13.6-35.2,33.4-42.4c8.2-3,8.2-2.9,8.3-11.4c0-2.9,0-5.8,0-8.7c0.2-6.5,1.3-7.6,7.7-7.8
			c2-0.1,4,0,6,0c13.7,0,13.7,0,13.8,13.7c0,9.7,0,9.7,9.7,11.2c7.4,1.2,14.4,3.3,21.3,6.3c3.8,1.7,5.2,4.3,4,8.3
			c-1.7,5.9-3.3,11.9-5.2,17.7c-1.8,5.5-3.6,6.3-8.9,3.8c-10.7-5.2-21.9-7.3-33.7-6.7c-3.1,0.2-6.1,0.6-9,1.8
			c-10.2,4.5-11.9,15.7-3.2,22.7c4.4,3.5,9.4,6.1,14.6,8.2c9,3.7,18.1,7.3,26.7,12.1C217.2,164.6,224.5,198.9,205.3,222.3z"/>
	</g>
</g>
<g>
</g>
<g>
</g>
<g>
</g>
<g>
</g>
<g>
</g>
<g>
</g>
<g>
</g>
<g>
</g>
<g>
</g>
<g>
</g>
<g>
</g>
<g>
</g>
<g>
</g>
<g>
</g>
<g>
</g>
</svg>
