<?xml version="1.0" encoding="iso-8859-1"?>
<!-- Generator: Adobe Illustrator 19.1.0, SVG Export Plug-In . SVG Version: 6.00 Build 0)  -->
<svg version="1.1" id="Capa_1" xmlns="http://www.w3.org/2000/svg" xmlns:xlink="http://www.w3.org/1999/xlink" x="0px" y="0px"
	 viewBox="0 0 482.9 482.9" style="enable-background:new 0 0 482.9 482.9;" xml:space="preserve">
<g>
	<g>
		<path d="M310.45,107.1h-138c-22.2,0-40.4,18.2-40.4,40.4v295c0,22.2,18.2,40.4,40.4,40.4h138c22.2,0,40.4-18.2,40.4-40.4v-82.3
			V182.1v-34.6C350.85,125.3,332.65,107.1,310.45,107.1z M258.85,465.9h-38.9c-5.8,0-10.5-4.7-10.5-10.5s4.7-10.5,10.5-10.5h38.9
			c5.8,0,10.5,4.7,10.5,10.5C269.25,461.3,264.55,465.9,258.85,465.9z M329.45,174.3v7.8V360v20.6v37c0,5.7-4.7,10.4-10.4,10.4
			h-155.2c-5.7,0-10.4-4.7-10.4-10.4V172.5c0-5.7,4.7-10.4,10.4-10.4h155.2c5.7,0,10.4,4.7,10.4,10.4L329.45,174.3L329.45,174.3z"/>
		<path d="M241.45,233.6c-33.9,0-61.4,27.5-61.4,61.4s27.5,61.4,61.4,61.4s61.4-27.5,61.4-61.4S275.35,233.6,241.45,233.6z
			 M259.05,319.2c-2.7,3.3-6.2,5.4-10.2,6.6c-1.8,0.5-2.6,1.4-2.5,3.3c0.1,1.8,0,3.6,0,5.4c0,1.6-0.8,2.5-2.4,2.5c-2,0-3.9,0-5.9,0
			c-1.7,0-2.5-1-2.5-2.7c0-1.3,0-2.7,0-4c0-2.9-0.1-3-2.9-3.5c-3.6-0.6-7.1-1.4-10.4-3c-2.6-1.3-2.9-1.9-2.1-4.6c0.6-2,1.1-4,1.7-6
			c0.7-2.3,1.4-2.6,3.5-1.5c3.6,1.9,7.5,3,11.6,3.5c2.6,0.3,5.2,0.1,7.6-1c4.5-2,5.2-7.2,1.4-10.3c-1.3-1.1-2.8-1.9-4.3-2.5
			c-4-1.7-8.1-3.1-11.8-5.3c-6.1-3.6-9.9-8.6-9.5-16c0.5-8.3,5.2-13.6,12.9-16.3c3.2-1.1,3.2-1.1,3.2-4.4c0-1.1,0-2.2,0-3.3
			c0.1-2.5,0.5-2.9,3-3c0.8,0,1.5,0,2.3,0c5.3,0,5.3,0,5.3,5.3c0,3.7,0,3.7,3.7,4.3c2.8,0.4,5.6,1.3,8.2,2.4c1.5,0.6,2,1.7,1.6,3.2
			c-0.7,2.3-1.3,4.6-2,6.8c-0.7,2.1-1.4,2.4-3.4,1.5c-4.1-2-8.4-2.8-13-2.6c-1.2,0.1-2.4,0.2-3.5,0.7c-3.9,1.7-4.6,6.1-1.2,8.7
			c1.7,1.4,3.6,2.3,5.6,3.2c3.5,1.4,7,2.8,10.3,4.7C263.65,297,266.55,310.2,259.05,319.2z"/>
		<path d="M196.45,58.5l10.4,13.8c10.3-7.8,22.6-11.9,35.6-11.9c12.3,0,24.1,3.7,34.1,10.8l10-14.1c-13-9.2-28.2-14-44.1-14
			C225.75,43.1,209.85,48.5,196.45,58.5z"/>
		<path d="M243.15,17.3c22.8,0,44.7,6.9,63.2,20l10-14.1C294.85,8,269.55,0,243.15,0c-27.8,0-54.2,8.8-76.4,25.5l10.4,13.8
			C196.25,25,219.15,17.3,243.15,17.3z"/>
	</g>
</g>
<g>
</g>
<g>
</g>
<g>
</g>
<g>
</g>
<g>
</g>
<g>
</g>
<g>
</g>
<g>
</g>
<g>
</g>
<g>
</g>
<g>
</g>
<g>
</g>
<g>
</g>
<g>
</g>
<g>
</g>
</svg>
