<?xml version="1.0" encoding="iso-8859-1"?>
<!-- Generator: Adobe Illustrator 19.1.0, SVG Export Plug-In . SVG Version: 6.00 Build 0)  -->
<svg version="1.1" id="Capa_1" xmlns="http://www.w3.org/2000/svg" xmlns:xlink="http://www.w3.org/1999/xlink" x="0px" y="0px"
	 viewBox="0 0 486.592 486.592" style="enable-background:new 0 0 486.592 486.592;" xml:space="preserve">
<g>
	<g>
		<path d="M354.846,164.968c3.3-4.5,2.3-10.7-2.2-14s-10.7-2.3-14,2.2s-2.3,10.7,2.2,14c1.7,1.3,3.7,1.9,5.7,1.9
			C349.746,169.168,352.846,167.768,354.846,164.968z"/>
		<path d="M417.746,292.768c0.4,0,0.8,0,1.2-0.1c5.5-0.6,9.5-5.5,8.9-11s-5.5-9.5-11-8.9s-9.5,5.5-8.9,11
			C408.546,288.868,412.746,292.668,417.746,292.768z"/>
		<path d="M176.146,451.868c-5-2.2-11,0-13.2,5.1s0,11,5.1,13.2c1.3,0.6,2.6,0.8,3.9,0.9c3.9,0.1,7.6-2.2,9.3-5.9
			C183.446,460.068,181.146,454.168,176.146,451.868z"/>
		<path d="M310.646,451.968L310.646,451.968c-5.1,2.2-7.3,8.1-5.1,13.2c1.6,3.7,5.2,5.9,9,5.9c1.4,0,2.8-0.3,4.2-0.9
			c5-2.2,7.3-8.1,5.1-13.2C321.546,451.968,315.646,449.768,310.646,451.968z"/>
		<path d="M243.346,466.168c-5.5,0-10,4.5-10,10s4.4,9.9,9.8,10c0.1,0,0.1,0,0.2,0c5.5,0,10-4.5,10-10
			S248.946,466.268,243.346,466.168z"/>
		<path d="M68.046,292.468c0.3,0,0.6,0.1,0.9,0.1c5.1,0.1,9.6-3.7,10.1-8.9v-0.1c0-0.1,0-0.1,0-0.2c0.6-5.5-3.4-10.4-8.9-11
			s-10.4,3.4-11,8.9l0,0c0,0.1,0,0.1,0,0.2v0.1C58.546,286.968,62.546,291.868,68.046,292.468z"/>
		<path d="M134.846,150.668c-4.5,3.2-5.5,9.5-2.2,14c1.9,2.7,4.9,4.1,8,4.1c2.1,0,4.2-0.6,6-1.9c4.5-3.3,5.5-9.5,2.2-14
			C145.546,148.468,139.346,147.468,134.846,150.668z"/>
		<path d="M395.346,223.368c1.8,0,3.5-0.4,5.2-1.4c4.8-2.7,6.4-8.9,3.7-13.7c-2.8-4.8-8.9-6.4-13.7-3.7c-4.8,2.7-6.4,8.9-3.7,13.7
			C388.646,221.568,391.946,223.368,395.346,223.368z"/>
		<path d="M86.746,221.468c1.5,0.9,3.2,1.3,4.8,1.4c3.5,0.1,6.9-1.7,8.8-5c2.8-4.8,1.1-10.9-3.6-13.7c-4.8-2.8-10.9-1.2-13.7,3.6
			C80.346,212.568,81.946,218.768,86.746,221.468z"/>
		<path d="M262.046,103.468L262.046,103.468v-6.8c0,0,21.5,0.7,31.7-9.8c0,0-14.8-4.2-12.2-31.2c2.7-27-3.3-50.8-25-48.7
			c0,0-9.4-11.3-28.2-4.2c-6.4,2.4-23.7,8.6-22.8,46.1c0.9,37.4-13.3,37.7-13.3,37.7s7.3,10.6,32.1,10.4v7l18.9,55.1l18.8-55
			L262.046,103.468z"/>
		<path d="M176.246,162.668h66.1h1.7h66.1c1.6,0,2.8-1.4,2.5-3l-3.8-20.9c-1.2-6.8-5.6-12.6-11.8-15.7l-23.7-11.7
			c-1.4-0.7-2.7-1.4-4-2.2l7.5,22.1l-10.5-0.8l-23.1,28.4l-23.1-28.4l-10.5,0.8l7.6-22.1l-4.8,2.4l-23.2,11.4
			c-6.2,3.1-10.6,8.9-11.8,15.7l-3.8,20.9C173.546,161.268,174.746,162.668,176.246,162.668z"/>
		<path d="M435.846,417.068L435.846,417.068v-6.8c0,0,21.5,0.7,31.7-9.8c0,0-14.8-4.2-12.2-31.2c2.7-27-3.3-50.8-25-48.7
			c0,0-9.4-11.3-28.2-4.2c-6.4,2.4-23.7,8.6-22.8,46.1c0.9,37.4-13.3,37.7-13.3,37.7s7.3,10.6,32.1,10.4v7l18.9,55.1l18.8-55
			V417.068z"/>
		<path d="M486.546,473.368l-3.8-20.9c-1.2-6.8-5.6-12.6-11.8-15.7l-23.7-11.7c-1.4-0.7-2.7-1.4-4-2.2l7.5,22.1l-10.5-0.8
			l-23.1,28.4l-23.1-28.4l-10.5,0.8l7.6-22.1l-4.8,2.4l-23.2,11.4c-6.2,3.1-10.6,8.9-11.8,15.7l-3.8,20.9c-0.3,1.5,0.9,3,2.5,3h66.1
			h1.7h66.1C485.646,476.368,486.846,474.868,486.546,473.368z"/>
		<path d="M88.446,417.068L88.446,417.068v-6.8c0,0,21.5,0.7,31.7-9.8c0,0-14.8-4.2-12.2-31.2c2.7-27-3.3-50.8-25-48.7
			c0,0-9.4-11.3-28.2-4.2c-6.4,2.4-23.7,8.6-22.8,46.1c0.9,37.4-13.3,37.7-13.3,37.7s7.3,10.6,32.1,10.4v7l18.9,55.1l18.8-55
			L88.446,417.068z"/>
		<path d="M135.246,452.368c-1.2-6.8-5.6-12.6-11.8-15.7l-23.7-11.7c-1.4-0.7-2.7-1.4-4-2.2l7.5,22.1l-10.5-0.8l-23.1,28.4
			l-23.1-28.4l-10.5,0.8l7.6-22.1l-4.8,2.4l-23.2,11.4c-6.2,3.1-10.6,8.9-11.8,15.7l-3.8,20.9c-0.3,1.5,0.9,3,2.5,3h66.1h1.7h66.1
			c1.6,0,2.8-1.4,2.5-3L135.246,452.368z"/>
		<path d="M243.546,224.468c-45.4,0-82.2,36.8-82.2,82.2s36.8,82.2,82.2,82.2s82.2-36.8,82.2-82.2
			C325.746,261.268,288.946,224.468,243.546,224.468z M267.146,339.168c-3.6,4.4-8.3,7.3-13.7,8.8c-2.4,0.7-3.4,1.9-3.3,4.4
			c0.1,2.4,0,4.9,0,7.3c0,2.2-1.1,3.3-3.2,3.4c-2.6,0.1-5.2,0.1-7.8,0c-2.3,0-3.4-1.3-3.4-3.6c0-1.8,0-3.5,0-5.3
			c0-3.9-0.2-4.1-3.9-4.7c-4.8-0.8-9.5-1.9-14-4c-3.5-1.7-3.8-2.5-2.8-6.2c0.7-2.7,1.5-5.4,2.3-8.1c1-3.1,1.8-3.5,4.7-2
			c4.9,2.5,10.1,4,15.5,4.6c3.5,0.4,6.9,0.1,10.2-1.3c6-2.6,7-9.7,1.9-13.9c-1.7-1.4-3.7-2.5-5.8-3.4c-5.3-2.3-10.8-4.1-15.8-7.1
			c-8.1-4.9-13.3-11.5-12.7-21.4c0.7-11.2,7-18.1,17.2-21.9c4.2-1.5,4.2-1.5,4.3-5.9c0-1.5,0-3,0-4.5c0.1-3.3,0.7-3.9,4-4
			c1,0,2.1,0,3.1,0c7.1,0,7.1,0,7.1,7.1c0,5,0,5,5,5.8c3.8,0.6,7.4,1.7,11,3.3c1.9,0.9,2.7,2.2,2.1,4.3c-0.9,3-1.7,6.1-2.7,9.1
			c-0.9,2.9-1.8,3.3-4.6,1.9c-5.5-2.7-11.3-3.8-17.4-3.4c-1.6,0.1-3.2,0.3-4.6,0.9c-5.3,2.3-6.1,8.1-1.6,11.7
			c2.3,1.8,4.9,3.1,7.5,4.2c4.7,1.9,9.4,3.8,13.8,6.2C273.246,309.368,277.046,327.068,267.146,339.168z"/>
	</g>
</g>
<g>
</g>
<g>
</g>
<g>
</g>
<g>
</g>
<g>
</g>
<g>
</g>
<g>
</g>
<g>
</g>
<g>
</g>
<g>
</g>
<g>
</g>
<g>
</g>
<g>
</g>
<g>
</g>
<g>
</g>
</svg>
