<?xml version="1.0" encoding="iso-8859-1"?>
<!-- Generator: Adobe Illustrator 19.1.0, SVG Export Plug-In . SVG Version: 6.00 Build 0)  -->
<svg version="1.1" id="Capa_1" xmlns="http://www.w3.org/2000/svg" xmlns:xlink="http://www.w3.org/1999/xlink" x="0px" y="0px"
	 viewBox="0 0 485.013 485.013" style="enable-background:new 0 0 485.013 485.013;" xml:space="preserve">
<g>
	<g>
		<path d="M151.856,205.113c-4.6,10-12.6,22.4-25.3,28.6c-4.2,2.1-3.2,8.3,1.4,9c13.8,2.2,33.7-0.3,52.2-14.3l0.3,0.2
			c47,27.7,108.6,21.3,149-19.1c47.9-47.9,47.9-125.7,0-173.6c-48-47.9-125.8-47.9-173.7,0.1c-46.1,46.1-47.9,119.9-5.2,168.1
			L151.856,205.113z M202.756,167.813c1-3.7,2.1-7.5,3.2-11.2c1.3-4.3,2.5-4.8,6.5-2.8c6.8,3.5,13.9,5.5,21.5,6.4
			c4.9,0.6,9.6,0.1,14.1-1.8c8.4-3.7,9.7-13.4,2.6-19.2c-2.4-2-5.1-3.4-8-4.7c-7.3-3.2-15-5.7-21.9-9.8c-11.3-6.7-18.4-16-17.6-29.7
			c0.9-15.5,9.7-25.1,23.9-30.3c5.9-2.1,5.9-2,5.9-8.2c0-2.1,0-4.1,0-6.2c0.1-4.6,0.9-5.4,5.5-5.5c1.4,0,2.8,0,4.3,0
			c9.8,0,9.8,0,9.8,9.8c0,6.9,0,7,6.9,8c5.3,0.8,10.3,2.4,15.2,4.5c2.7,1.2,3.7,3.1,2.9,5.9c-1.2,4.2-2.4,8.5-3.7,12.7
			c-1.3,4-2.5,4.5-6.3,2.7c-7.6-3.7-15.7-5.2-24.1-4.8c-2.2,0.1-4.4,0.4-6.4,1.3c-7.3,3.2-8.5,11.2-2.3,16.2
			c3.1,2.5,6.7,4.3,10.5,5.9c6.5,2.7,13,5.2,19.1,8.6c19.5,10.8,24.8,35.3,11,52.1c-5,6-11.4,10.1-19,12.2c-3.3,0.9-4.8,2.6-4.6,6.1
			c0.1,3.4,0,6.7,0,10.1c0,3-1.5,4.6-4.5,4.7c-3.6,0.1-7.2,0.1-10.9,0c-3.2-0.1-4.7-1.9-4.7-5c0-2.5,0-4.9-0.1-7.4
			c-0.1-5.4-0.2-5.6-5.4-6.5c-6.7-1.1-13.2-2.6-19.3-5.5C201.956,174.013,201.456,172.813,202.756,167.813z"/>
		<path d="M389.756,317.713c-39.1-24.6-82.7-45.7-82.7-45.7l-34.7,109.9l-20.3-57.6c35.6-49.7-2.5-52.2-9.3-52.3l0,0
			c-0.1,0-0.1,0-0.2,0s-0.2,0-0.2,0l0,0c-6.8,0.1-44.9,2.6-9.3,52.3l-20.3,57.6l-34.8-109.9c0,0-43.6,21.2-82.7,45.7
			c-29.5,18.5-34.9,38.5-35.8,67.3v100h366.1v-100C424.756,356.213,419.256,336.213,389.756,317.713z"/>
	</g>
</g>
<g>
</g>
<g>
</g>
<g>
</g>
<g>
</g>
<g>
</g>
<g>
</g>
<g>
</g>
<g>
</g>
<g>
</g>
<g>
</g>
<g>
</g>
<g>
</g>
<g>
</g>
<g>
</g>
<g>
</g>
</svg>
