<?xml version="1.0" encoding="iso-8859-1"?>
<!-- Generator: Adobe Illustrator 19.1.0, SVG Export Plug-In . SVG Version: 6.00 Build 0)  -->
<svg version="1.1" id="Capa_1" xmlns="http://www.w3.org/2000/svg" xmlns:xlink="http://www.w3.org/1999/xlink" x="0px" y="0px"
	 viewBox="0 0 488.501 488.501" style="enable-background:new 0 0 488.501 488.501;" xml:space="preserve">
<g>
	<g>
		<path d="M326.7,183.6c-33.5,0-60.7,27.2-60.7,60.7s27.2,60.7,60.7,60.7s60.7-27.2,60.7-60.7C387.5,210.8,360.3,183.6,326.7,183.6z
			 M344.2,268.2c-2.7,3.2-6.1,5.4-10.1,6.5c-1.8,0.5-2.5,1.4-2.5,3.2c0.1,1.8,0,3.6,0,5.4c0,1.6-0.8,2.5-2.4,2.5c-1.9,0-3.9,0-5.8,0
			c-1.7,0-2.5-1-2.5-2.6c0-1.3,0-2.6,0-3.9c0-2.9-0.1-3-2.9-3.5c-3.6-0.6-7-1.4-10.3-3c-2.6-1.2-2.8-1.9-2.1-4.6c0.5-2,1.1-4,1.7-6
			c0.7-2.3,1.3-2.6,3.4-1.5c3.6,1.9,7.4,2.9,11.4,3.4c2.6,0.3,5.1,0.1,7.5-1c4.5-1.9,5.2-7.1,1.4-10.2c-1.3-1.1-2.7-1.8-4.3-2.5
			c-3.9-1.7-8-3-11.7-5.2c-6-3.6-9.8-8.5-9.4-15.8c0.5-8.3,5.2-13.4,12.7-16.2c3.1-1.1,3.1-1.1,3.2-4.4c0-1.1,0-2.2,0-3.3
			c0.1-2.5,0.5-2.9,2.9-3c0.8,0,1.5,0,2.3,0c5.2,0,5.2,0,5.2,5.2c0,3.7,0,3.7,3.7,4.3c2.8,0.4,5.5,1.3,8.1,2.4
			c1.4,0.6,2,1.6,1.5,3.1c-0.7,2.3-1.3,4.5-2,6.7c-0.7,2.1-1.4,2.4-3.4,1.4c-4.1-2-8.3-2.8-12.8-2.5c-1.2,0.1-2.3,0.2-3.4,0.7
			c-3.9,1.7-4.5,6-1.2,8.6c1.7,1.3,3.6,2.3,5.6,3.1c3.4,1.4,6.9,2.8,10.2,4.6C348.7,246.3,351.5,259.3,344.2,268.2z"/>
		<circle cx="238.5" cy="247.4" r="16.8"/>
		<circle cx="415.1" cy="247.4" r="16.8"/>
		<path d="M460.9,145.3H196.4c-15.3,0-27.7,12.4-27.7,27.7v142.6c0,15.3,12.4,27.7,27.7,27.7h264.4c15.3,0,27.7-12.4,27.7-27.7V173
			C488.6,157.7,476.1,145.3,460.9,145.3z M464.9,286.9c-1.6-0.3-3.2-0.4-4.9-0.4c-15.5,0-28.1,12.6-28.1,28.1c0,1.8,0.2,3.5,0.5,5.2
			H227.2c0.1-1.1,0.2-2.3,0.2-3.5c0-15.5-12.6-28.1-28.1-28.1c-2.4,0-4.7,0.3-6.9,0.9v-86c2.2,0.6,4.5,0.9,6.9,0.9
			c15.5,0,28.1-12.6,28.1-28.1c0-2.4-0.3-4.7-0.9-6.8h205.9c-0.3,1.7-0.5,3.4-0.5,5.2c0,15.5,12.6,28.1,28.1,28.1
			c1.7,0,3.3-0.2,4.9-0.4L464.9,286.9L464.9,286.9z"/>
		<path d="M104.7,372.8c0.2-1.5,0.3-3.1,0.3-4.7v-24.7c0-21.2-17.2-38.4-38.4-38.4H52.3c-21.2,0-38.4,17.2-38.4,38.4v24.7
			c0,1.6,0.1,3.1,0.3,4.6C6.1,374.4,0,381.6,0,390.2v47.1c0,9.8,8,17.9,17.9,17.9h82.9c9.8,0,17.9-8,17.9-17.9v-47.1
			C118.7,381.7,112.7,374.6,104.7,372.8z M65.2,415.6c-0.8,0.6-1,1.2-1,2.1c0,4.2,0,8.4,0,12.7l0,0c0,2.7-2.2,4.9-4.9,4.9
			c-2.7,0-4.9-2.2-4.9-4.9l0,0c0-4.2,0-8.5,0-12.7c0-0.9-0.2-1.4-0.9-2c-3.8-2.8-5.1-7.6-3.2-11.9c1.6-3.6,5.2-5.9,8.9-5.9
			c0.6,0,1.2,0.1,1.8,0.2c4.8,1,8.1,4.8,8.1,9.6C69.2,410.9,67.9,413.6,65.2,415.6z M85.5,368.2c0,1.4-0.2,2.9-0.5,4.2H33.9
			c-0.3-1.4-0.5-2.8-0.5-4.2v-24.7c0-10.4,8.5-18.9,18.9-18.9h14.3c10.4,0,18.9,8.5,18.9,18.9C85.5,343.5,85.5,368.2,85.5,368.2z"/>
		<path d="M315.3,106.8v2v8.7v4.1h24.1v-4.1V78.7c0-25-20.4-45.4-45.4-45.4H139.1c-25,0-45.4,20.4-45.4,45.4v212.7
			c10.1,5.3,18.5,13.4,24.1,23.3v-208c0-6.4,5.2-11.7,11.7-11.7h174.3C310.1,95.1,315.3,100.4,315.3,106.8z"/>
		<path d="M315.3,381.8c0,6.4-5.2,11.7-11.7,11.7H139v43.9c0,6.4-1.6,12.4-4.3,17.6c1.5,0.1,2.9,0.2,4.4,0.2h155
			c25,0,45.4-20.4,45.4-45.4v-42.9h-24.2V381.8z M236,436.2h-43.7c-6.5,0-11.7-5.3-11.7-11.7s5.3-11.7,11.7-11.7H236
			c6.5,0,11.7,5.3,11.7,11.7S242.5,436.2,236,436.2z"/>
	</g>
</g>
<g>
</g>
<g>
</g>
<g>
</g>
<g>
</g>
<g>
</g>
<g>
</g>
<g>
</g>
<g>
</g>
<g>
</g>
<g>
</g>
<g>
</g>
<g>
</g>
<g>
</g>
<g>
</g>
<g>
</g>
</svg>
