<?xml version="1.0" encoding="iso-8859-1"?>
<!-- Generator: Adobe Illustrator 19.1.0, SVG Export Plug-In . SVG Version: 6.00 Build 0)  -->
<svg version="1.1" id="Capa_1" xmlns="http://www.w3.org/2000/svg" xmlns:xlink="http://www.w3.org/1999/xlink" x="0px" y="0px"
	 viewBox="0 0 489 489" style="enable-background:new 0 0 489 489;" xml:space="preserve">
<g>
	<g>
		<path d="M478.7,291.7l-31.6-5.4c-3.1-12.2-7.8-23.6-14-34.2l18.7-26.1c3.5-4.8,2.9-11.4-1.2-15.6l-11.1-11.2L428.4,188
			c-2.3-2.3-5.4-3.6-8.6-3.6c-2.4,0-4.9,0.7-7,2.2l-26.3,18.5c-10.1-6.1-21.1-10.8-32.9-13.9c-2.4,15-6.6,29.5-12.2,43.1
			c30.2,8.1,55.1,32.2,62.6,64.8c10.8,47-18.6,93.9-65.6,104.7c-6.6,1.5-13.2,2.2-19.6,2.2c-38.8,0-74-26-84.3-64.8
			c-13.7,5.6-28.1,9.8-43.2,12.2c3.1,11.7,7.9,22.7,13.8,32.8l-18.6,26.1c-3.5,4.8-2.9,11.4,1.2,15.6l11.1,11.2l11.1,11.2
			c2.3,2.3,5.4,3.6,8.6,3.6c2.4,0,4.9-0.7,7-2.2l26.4-18.6c10.3,6,21.5,10.8,33.3,13.9l5.2,31.6c1,5.9,6,10.2,12,10.2l15.9,0.1
			l15.9,0.1l0,0c5.8,0,11-4.3,12-10.1l5.4-31.6c12.2-3.1,23.6-7.8,34.2-14l26.1,18.7c2.1,1.5,4.6,2.3,7.1,2.3c3.1,0,6.2-1.2,8.5-3.5
			l11.2-11.1l11.2-11.1c4.2-4.1,4.8-10.7,1.3-15.6l-18.5-26.2c6.3-10.6,11.1-22,14.3-34.1l31.6-5.2c5.9-1,10.2-6,10.2-12l0.1-15.9
			l0.1-15.9C488.7,297.8,484.4,292.8,478.7,291.7z"/>
		<path d="M318.9,159.5C318.9,71.4,247.5,0,159.5,0C71.4,0,0,71.4,0,159.5s71.4,159.4,159.4,159.4
			C247.5,318.9,318.9,247.5,318.9,159.5z M215.1,240.2c-4.8,2.2-9.8,4-14.9,5.4c-19.4,5.4-38.9,5.6-58.2-0.7
			c-23.3-7.6-38.8-23.5-48.1-45.8c-1.8-4.3-2.9-8.9-4.3-13.4H71.4c-3.1,0-5.5-2.5-5.5-5.5v-12.3c0-3.1,2.5-5.5,5.5-5.5h15.1
			c0-3.4,0-6.6,0-10H71.4c-3.1,0-5.5-2.5-5.5-5.5v-12.3c0-3.1,2.5-5.5,5.5-5.5h19.3l0.7-1.9c5.2-16.5,14.1-30.5,27.9-41.2
			c10.9-8.4,23.5-13.1,37-15.3c19.2-3.1,37.8-0.4,55.9,6.6c1.2,0.5,2.3,1,3.4,1.6c4.3,2.6,5.5,5.8,3.5,10.4c-2,4.9-4.1,9.8-6.3,14.6
			c-1.9,4.1-4.5,5.5-9,4.5c-6.1-1.4-12.1-3.3-18.2-4.5c-12.9-2.6-25.7-2.8-38.2,2.2c-10.7,4.3-17.3,12.4-21.8,22.7
			c0,0.1-0.1,0.2-0.1,0.4H163c3.1,0,5.5,2.5,5.5,5.5V147c0,3.1-2.5,5.5-5.5,5.5h-42.8c-0.1,3.3,0,6.6,0,10h42.9
			c3.1,0,5.5,2.5,5.5,5.5v12.3c0,3.1-2.5,5.5-5.5,5.5H124c4.7,13.5,12.4,23.9,26.8,28.5c11.5,3.6,23.2,3.4,34.9,1
			c6-1.3,12-3.1,18-4.5c4.7-1.1,7.3,0.2,9.3,4.5c2.2,4.9,4.3,9.8,6.3,14.8C220.9,234.6,219.7,238.1,215.1,240.2z"/>
	</g>
</g>
<g>
</g>
<g>
</g>
<g>
</g>
<g>
</g>
<g>
</g>
<g>
</g>
<g>
</g>
<g>
</g>
<g>
</g>
<g>
</g>
<g>
</g>
<g>
</g>
<g>
</g>
<g>
</g>
<g>
</g>
</svg>
