<?xml version="1.0" encoding="iso-8859-1"?>
<!-- Generator: Adobe Illustrator 19.1.0, SVG Export Plug-In . SVG Version: 6.00 Build 0)  -->
<svg version="1.1" id="Capa_1" xmlns="http://www.w3.org/2000/svg" xmlns:xlink="http://www.w3.org/1999/xlink" x="0px" y="0px"
	 viewBox="0 0 488.2 488.2" style="enable-background:new 0 0 488.2 488.2;" xml:space="preserve">
<g>
	<g>
		<path d="M333.75,0h-179.3c-28.9,0-52.5,23.6-52.5,52.5v383.2c0,28.9,23.6,52.5,52.5,52.5h179.3c28.9,0,52.5-23.6,52.5-52.5V328.8
			V97.4V52.5C386.35,23.6,362.65,0,333.75,0z M266.75,466.1h-50.6c-7.5,0-13.6-6.1-13.6-13.6s6.1-13.6,13.6-13.6h50.6
			c7.5,0,13.6,6.1,13.6,13.6C280.25,460.1,274.25,466.1,266.75,466.1z M358.45,87.3v10.1v231.1v26.8v48c0,7.4-6.1,13.5-13.5,13.5
			h-201.6c-7.4,0-13.5-6.1-13.5-13.5V84.9c0-7.4,6.1-13.5,13.5-13.5h201.6c7.4,0,13.5,6.1,13.5,13.5V87.3z"/>
		<path d="M321.95,204.5l-44.7-27.9c-2.1-1.3-4.9,0.2-4.9,2.7v13.8h-103.2c-2.4,0-4.3,1.9-4.3,4.3v19.8c0,2.4,1.9,4.3,4.3,4.3h103.2
			v13.6c0,2.5,2.8,4.1,4.9,2.7l44.7-27.9C323.95,208.7,323.95,205.8,321.95,204.5z"/>
		<path d="M319.15,266.8h-103.2v-13.7c0-2.5-2.8-4.1-4.9-2.7l-44.7,27.9c-2,1.3-2,4.2,0,5.5l44.7,27.9c2.1,1.3,4.9-0.2,4.9-2.7
			v-13.9h103.2c2.4,0,4.3-1.9,4.3-4.3V271C323.45,268.7,321.55,266.8,319.15,266.8z"/>
	</g>
</g>
<g>
</g>
<g>
</g>
<g>
</g>
<g>
</g>
<g>
</g>
<g>
</g>
<g>
</g>
<g>
</g>
<g>
</g>
<g>
</g>
<g>
</g>
<g>
</g>
<g>
</g>
<g>
</g>
<g>
</g>
</svg>
