<?xml version="1.0" encoding="iso-8859-1"?>
<!-- Generator: Adobe Illustrator 19.1.0, SVG Export Plug-In . SVG Version: 6.00 Build 0)  -->
<svg version="1.1" id="Capa_1" xmlns="http://www.w3.org/2000/svg" xmlns:xlink="http://www.w3.org/1999/xlink" x="0px" y="0px"
	 viewBox="0 0 486.9 486.9" style="enable-background:new 0 0 486.9 486.9;" xml:space="preserve">
<g>
	<g>
		<path d="M260.75,215.8c-4.9-2.7-10.1-4.8-15.3-6.9c-3-1.2-5.9-2.7-8.4-4.7c-5-4-4-10.4,1.8-13c1.6-0.7,3.4-1,5.1-1
			c0.8,0,1.5-0.1,2.3-0.1c5.9,0,11.6,1.3,17,3.9c1.1,0.5,1.9,0.8,2.6,0.8c1.2,0,1.8-0.9,2.5-3c1.1-3.3,2-6.7,3-10.1
			c0.7-2.3-0.1-3.8-2.3-4.7c-3.9-1.7-7.9-3-12.2-3.6c-5.5-0.9-5.5-0.9-5.5-6.4c0-7.5,0-7.8-7-7.8c-0.3,0-0.6,0-0.9,0
			c-0.7,0-1.4,0-2.1,0c-0.4,0-0.8,0-1.3,0c-3.7,0.1-4.3,0.7-4.4,4.4c0,1.7,0,3.3,0,5c0,4.9-0.1,4.8-4.7,6.5
			c-11.3,4.1-18.3,11.8-19.1,24.2c-0.7,10.9,5,18.3,14,23.7c5.5,3.3,11.7,5.3,17.5,7.9c2.3,1,4.5,2.2,6.4,3.8
			c5.7,4.7,4.6,12.4-2.1,15.3c-2.6,1.2-5.4,1.7-8.2,1.7c-1,0-2-0.1-3.1-0.2c-6-0.7-11.7-2.3-17.1-5.1c-1.2-0.6-2-0.9-2.7-0.9
			c-1.2,0-1.8,1-2.5,3.2c-0.9,3-1.8,6-2.6,8.9c-1.1,4-0.7,5,3.1,6.8c4.9,2.4,10.1,3.6,15.5,4.4c4.2,0.7,4.3,0.8,4.4,5.2
			c0,2,0,3.9,0.1,5.9c0,2.5,1.2,3.9,3.8,4c1.4,0,2.7,0,4.1,0c1.5,0,3.1,0,4.6-0.1c2.4-0.1,3.6-1.3,3.6-3.7c0-2.7,0.1-5.4,0-8.1
			s1.1-4.1,3.7-4.8c6-1.7,11.2-4.9,15.2-9.7C280.55,244,276.35,224.4,260.75,215.8z"/>
		<path d="M332.85,0h-178.8c-28.8,0-52.4,23.6-52.4,52.4v382.1c0,28.8,23.6,52.4,52.4,52.4h178.8c28.8,0,52.4-23.6,52.4-52.4V327.9
			V97.1V52.3C385.25,23.5,361.65,0,332.85,0z M265.35,455.1h-43.8c-8.5,0-15.4-6.9-15.4-15.4s6.9-15.4,15.4-15.4h43.8
			c8.5,0,15.4,6.9,15.4,15.4C280.75,448.1,273.75,455.1,265.35,455.1z M312.85,290.8c-19.2,19.2-44.3,28.7-69.4,28.7
			c-17.2,0-34.4-4.5-49.7-13.5l-0.2-0.2c-11.8,8.9-24.2,11.9-34.4,11.9c-2.6,0-5.1-0.2-7.3-0.6c-3.7-0.6-4.4-5.6-1.1-7.2
			c10.1-5,16.5-14.8,20.2-22.8l-1-0.8c-34.1-38.5-32.8-97.5,4.1-134.4c19.2-19.2,44.3-28.7,69.4-28.7s50.2,9.6,69.4,28.7
			C351.15,190.4,351.15,252.5,312.85,290.8z"/>
	</g>
</g>
<g>
</g>
<g>
</g>
<g>
</g>
<g>
</g>
<g>
</g>
<g>
</g>
<g>
</g>
<g>
</g>
<g>
</g>
<g>
</g>
<g>
</g>
<g>
</g>
<g>
</g>
<g>
</g>
<g>
</g>
</svg>
