<?xml version="1.0" encoding="iso-8859-1"?>
<!-- Generator: Adobe Illustrator 19.1.0, SVG Export Plug-In . SVG Version: 6.00 Build 0)  -->
<svg version="1.1" id="Capa_1" xmlns="http://www.w3.org/2000/svg" xmlns:xlink="http://www.w3.org/1999/xlink" x="0px" y="0px"
	 viewBox="0 0 480.7 480.7" style="enable-background:new 0 0 480.7 480.7;" xml:space="preserve">
<g>
	<g>
		<path d="M259,183.85c-5.3-2.9-10.8-5.1-16.4-7.4c-3.2-1.3-6.3-2.9-9-5c-5.3-4.3-4.3-11.2,1.9-13.9c1.8-0.8,3.6-1,5.5-1.1
			c7.2-0.4,14.1,0.9,20.7,4.1c3.3,1.6,4.3,1.1,5.4-2.3c1.2-3.6,2.1-7.2,3.2-10.9c0.7-2.4-0.2-4-2.5-5.1c-4.2-1.8-8.5-3.2-13-3.9
			c-5.9-0.9-5.9-1-5.9-6.9c0-8.4,0-8.4-8.4-8.4c-1.2,0-2.4,0-3.7,0c-3.9,0.1-4.6,0.8-4.7,4.8c0,1.8,0,3.6,0,5.3c0,5.3-0.1,5.2-5.1,7
			c-12.2,4.4-19.7,12.7-20.5,26c-0.7,11.8,5.4,19.7,15.1,25.5c5.9,3.6,12.5,5.7,18.8,8.4c2.5,1.1,4.8,2.3,6.9,4
			c6.1,5,4.9,13.3-2.2,16.5c-3.9,1.7-7.9,2.1-12.1,1.6c-6.4-0.8-12.6-2.5-18.4-5.5c-3.4-1.8-4.4-1.3-5.5,2.4c-1,3.2-1.9,6.4-2.8,9.6
			c-1.2,4.3-0.8,5.3,3.4,7.3c5.2,2.5,10.9,3.8,16.6,4.8c4.5,0.7,4.6,0.9,4.7,5.6c0,2.1,0,4.2,0.1,6.3c0,2.7,1.3,4.2,4,4.3
			c3.1,0.1,6.2,0.1,9.3,0c2.5-0.1,3.8-1.4,3.9-4c0-2.9,0.1-5.8,0-8.7c-0.1-2.9,1.1-4.4,4-5.2c6.5-1.8,12-5.3,16.3-10.4
			C280.3,214.15,275.8,193.15,259,183.85z"/>
		<path d="M480.7,304.55V52.95c0-19.3-15.7-35-35-35H35c-19.3,0-35,15.7-35,35v257.7c0,0.1,0,0.3,0,0.4v46.8c0,0.2,0,0.4,0,0.6v2.6
			c0,0.2,0,0.4,0,0.6v0.7l0,0c0.6,16.4,14.2,29.6,30.8,29.6h141.8h14.1h107.2h8.7h147.2c16.6,0,30.1-13.1,30.8-29.6l0,0
			L480.7,304.55L480.7,304.55z M268.3,358.25c0,4.3-3.4,7.7-7.7,7.7h-40.4c-4.3,0-7.7-3.4-7.7-7.7v-5.3c0-4.3,3.4-7.7,7.7-7.7h40.4
			c4.3,0,7.7,3.4,7.7,7.7V358.25z M314.9,264.45c-34.6,34.6-87.4,40.1-127.8,16.4l-0.2-0.2c-15.9,12-32.9,14.1-44.8,12.2
			c-3.9-0.6-4.8-6-1.2-7.7c10.9-5.3,17.7-15.9,21.7-24.5l-1.1-0.9c-36.6-41.4-35.2-104.6,4.4-144.2c41.1-41.1,107.8-41.1,148.9,0
			C356,156.65,356,223.35,314.9,264.45z"/>
		<path d="M343.1,435.95h2.2c-23.7-3-36.4-12.5-43.2-22.1H179.4c-6.8,9.6-19.4,19.1-43.2,22.1h1.5c-7.4,0-13.4,6-13.4,13.4
			s6,13.4,13.4,13.4h205.4c7.4,0,13.4-6,13.4-13.4S350.5,435.95,343.1,435.95z"/>
	</g>
</g>
<g>
</g>
<g>
</g>
<g>
</g>
<g>
</g>
<g>
</g>
<g>
</g>
<g>
</g>
<g>
</g>
<g>
</g>
<g>
</g>
<g>
</g>
<g>
</g>
<g>
</g>
<g>
</g>
<g>
</g>
</svg>
