<svg id="Layer_1" enable-background="new 0 0 512 512" viewBox="0 0 512 512" xmlns="http://www.w3.org/2000/svg"><g clip-rule="evenodd" fill-rule="evenodd"><path d="m265.053 478h-222.714l.529-2.426c11.401-52.261 57.348-89.021 110.833-89.021 53.468 0 99.421 36.757 110.823 89.021zm63.119-257.23-67.861-39.182c-.928-.535-1.501-1.523-1.501-2.595v-78.359c0-1.071.573-2.059 1.5-2.594l67.861-39.177c.927-.535 2.074-.536 3.001 0l67.848 39.177c.927.535 1.501 1.523 1.501 2.594v78.359c0 1.072-.573 2.059-1.501 2.595l-67.847 39.182c-.456.264-.973.401-1.5.401-.528.001-1.044-.136-1.501-.401zm141.489-146.281c0-22.323-18.154-40.489-40.479-40.489h-199.033c-22.325 0-40.48 18.166-40.48 40.489v130.445c0 22.324 18.155 40.484 40.48 40.484h33.713c1.657 0 3.001 1.344 3.001 3.001v51.398c0 6.314 3.359 11.849 8.992 14.715 5.472 2.785 11.792 2.363 16.844-1.125l.151-.104 66.778-67.003c.564-.566 1.325-.882 2.123-.882h67.431c22.325 0 40.479-18.161 40.479-40.484zm-262.09 252.186c0 29.701-24.16 53.866-53.88 53.875h-.009c-29.702 0-53.871-24.175-53.871-53.875 0-29.709 24.172-53.88 53.88-53.88 29.713 0 53.88 24.168 53.88 53.88z" fill="#434b66"/><path d="m326.672 141.547-61.859-35.713v71.426l61.859 35.713zm-24.93-60.498 27.931-16.127 61.85 35.713-27.931 16.127zm27.931 55.299-61.86-35.713 27.932-16.121 61.855 35.713zm3.001 5.199v71.427l61.845-35.714v-71.426l-27.926 16.122v23.133c0 1.661-1.341 2.996-3.001 2.996-1.653 0-3.001-1.342-3.001-2.996v-19.665z" fill="#ffb229"/></g></svg>