<svg id="Capa_1" enable-background="new 0 0 512 512" height="512" viewBox="0 0 512 512" width="512" xmlns="http://www.w3.org/2000/svg"><g><path d="m466.901 345.496-2.104.406c-9.052 35.383-26.873 67.294-51.017 93.256-2.059 2.214-1.771 5.715.62 7.566l24.051 18.62c2.136 1.654 5.174 1.365 6.991-.633 27.305-30.027 47.566-66.57 58.182-107.021l-1.939-1.634z" fill="#97d729"/><path d="m490.377 189.772-1.367-.616c.01.023.021.046.031.069l-35.771 14.154c-.017-.038-.036-.076-.053-.114l-.466 1.394c12.042 26.853 18.75 56.598 18.75 87.882 0 18.414-2.336 36.289-6.703 53.36l38.828 11.789c5.46-20.801 8.375-42.633 8.375-65.148-.001-36.517-7.736-71.284-21.624-102.77z" fill="#8bc727"/><path d="m355.97 56.945-1.805 1.612-14.699 33.288.164 2.105c50.251 21.244 90.835 61.011 113.121 110.709l37.626-14.888c-26.251-59.511-74.539-107.267-134.407-132.826z" fill="#fed402"/><path d="m188.892 418.906h134.217c45.184-24.046 75.95-71.608 75.95-126.363 0-79.009-64.05-143.058-143.059-143.058s-143.059 64.049-143.059 143.058c0 54.755 30.767 102.316 75.951 126.363z" fill="#d8ecfe"/><path d="m188.892 418.906h32.089c-45.193-24.041-75.967-71.602-75.967-126.363 0-73.587 55.563-134.186 127.022-142.159-5.265-.587-10.614-.9-16.036-.9-79.009 0-143.059 64.049-143.059 143.059 0 54.755 30.767 102.316 75.951 126.363z" fill="#c4e2ff"/><path d="m255.686 36.543c-35.377.042-69.073 7.263-99.71 20.28l-.238 1.936 15.069 34.138 1.556 1.04c25.729-10.877 53.993-16.895 83.637-16.895s57.908 6.018 83.637 16.894l16.334-36.994c-30.834-13.161-64.736-20.442-100.285-20.399z" fill="#fac600"/><g><path d="m335.933 475.457h-159.866c-15.827 0-28.776-12.949-28.776-28.776 0-15.827 12.949-28.776 28.776-28.776h159.865c15.827 0 28.776 12.949 28.776 28.776 0 15.827-12.949 28.776-28.775 28.776z" fill="#0593fc"/></g><g><path d="m190.068 446.681c0-15.827 12.949-28.776 28.776-28.776h-42.777c-15.827 0-28.776 12.949-28.776 28.776 0 15.827 12.949 28.776 28.776 28.776h42.777c-15.827 0-28.776-12.949-28.776-28.776z" fill="#0182fc"/></g><g><g><circle cx="202" cy="446.681" fill="#fed402" r="7.5"/></g><g><circle cx="229" cy="446.681" fill="#fed402" r="7.5"/></g><g><circle cx="256" cy="446.681" fill="#fed402" r="7.5"/></g><g><circle cx="283" cy="446.681" fill="#fed402" r="7.5"/></g><g><circle cx="310" cy="446.681" fill="#fed402" r="7.5"/></g></g><path d="m465.513 115.16-158.333 96.217c18.829 11.915 33.244 30.194 40.203 51.793l120.783-144.93c1.49-1.788-.663-4.288-2.653-3.08z" fill="#478cb1"/><path d="m465.514 115.16-158.334 96.217c5.398 3.416 10.436 7.351 15.037 11.741l118.616-72.081 27.333-32.797c1.49-1.788-.664-4.288-2.652-3.08z" fill="#266c8f"/><g><g><circle cx="256" cy="292.543" fill="#fed402" r="96.985"/></g><g><path d="m191.099 292.543c0-48.098 35.015-88.011 80.943-95.657-5.219-.869-10.576-1.328-16.042-1.328-53.563 0-96.985 43.422-96.985 96.985s43.422 96.985 96.985 96.985c5.466 0 10.823-.459 16.042-1.328-45.928-7.646-80.943-47.559-80.943-95.657z" fill="#fac600"/></g><g><path d="m256 348.082c-21.128 0-38.317-17.189-38.317-38.317 0-4.142 3.357-7.5 7.5-7.5s7.5 3.358 7.5 7.5c0 12.857 10.46 23.317 23.317 23.317s23.317-10.46 23.317-23.317c0-4.142 3.357-7.5 7.5-7.5s7.5 3.358 7.5 7.5c0 21.128-17.189 38.317-38.317 38.317z" fill="#fb8801"/></g><g><g><path d="m235.681 282.144c-4.143 0-7.5-3.358-7.5-7.5 0-4.419-3.596-8.015-8.016-8.015-4.419 0-8.015 3.596-8.015 8.015 0 4.142-3.357 7.5-7.5 7.5s-7.5-3.358-7.5-7.5c0-12.69 10.324-23.015 23.015-23.015s23.016 10.325 23.016 23.015c0 4.142-3.358 7.5-7.5 7.5z" fill="#fb8801"/></g><g><path d="m307.35 282.144c-4.143 0-7.5-3.358-7.5-7.5 0-4.419-3.596-8.015-8.015-8.015-4.42 0-8.016 3.596-8.016 8.015 0 4.142-3.357 7.5-7.5 7.5s-7.5-3.358-7.5-7.5c0-12.69 10.325-23.015 23.016-23.015s23.015 10.325 23.015 23.015c0 4.142-3.358 7.5-7.5 7.5z" fill="#fb8801"/></g></g></g><path d="m155.98 56.833c-60.009 25.502-108.285 73.246-134.475 132.892l.53 1.285 35.876 14.196 1.338-.546c22.285-49.697 62.868-89.463 113.117-110.707z" fill="#fe9901"/><g fill="#fd4755"><path d=""/><path d="m59.249 204.66-37.744-14.935c-13.819 31.471-21.505 66.244-21.505 102.818 0 22.515 2.915 44.347 8.375 65.149l1.214.677 36.774-11.166.839-1.3c-4.367-17.071-6.703-34.947-6.703-53.36 0-31.285 6.708-61.03 18.75-87.883z"/></g><g><path d="m47.201 345.898c0 .002.001.003.001.005l-38.827 11.789c10.618 40.455 30.882 77.003 58.193 107.032 1.814 1.994 4.852 2.271 6.983.62l24.049-18.619c2.391-1.851 2.679-5.352.62-7.566-24.146-25.964-41.967-57.875-51.019-93.261z" fill="#e41f2d"/></g></g></svg>