<?xml version="1.0" encoding="iso-8859-1"?>
<!-- Generator: Adobe Illustrator 21.0.0, SVG Export Plug-In . SVG Version: 6.00 Build 0)  -->
<svg xmlns="http://www.w3.org/2000/svg" xmlns:xlink="http://www.w3.org/1999/xlink" version="1.1" id="Capa_1" x="0px" y="0px" viewBox="0 0 512 512" style="enable-background:new 0 0 512 512;" xml:space="preserve" width="512" height="512">
<g>
	<path style="fill:#B5FCFF;" d="M221.757,7.5h213.485c38.25,0,69.257,30.923,69.257,69.068v166.336   c0,38.146-31.008,69.068-69.257,69.068H348.5c0,37.329-25,48.656-55.539,48.656c-1.966,0-1.824-2.975,0.069-3.504   c27.971-7.822,18.722-45.151,18.722-45.151h-89.995c-38.25,0-69.257-30.923-69.257-69.068V76.568   C152.5,38.423,183.508,7.5,221.757,7.5z"/>
	<g>
		<path style="fill:#71F6FC;" d="M435.243,7.5h-30c38.25,0,69.257,30.923,69.257,69.068v166.336    c0,38.146-31.008,69.068-69.257,69.068h30c38.25,0,69.257-30.923,69.257-69.068V76.568C504.5,38.423,473.492,7.5,435.243,7.5z"/>
	</g>
	<g>
		<g>
			<path style="fill:#E8916F;" d="M53.42,246.195c0,18.225-10.976,33-24.515,33S7.5,262.228,7.5,244.002s7.865-30.807,21.405-30.807     S53.42,227.97,53.42,246.195z"/>
			<path style="fill:#D98868;" d="M207.58,246.195c0,18.225,10.976,33,24.515,33c13.539,0,21.405-16.967,21.405-35.193     s-7.865-30.807-21.405-30.807C218.556,213.195,207.58,227.97,207.58,246.195z"/>
		</g>
	</g>
	<rect x="105.5" y="348.5" style="fill:#D98868;" width="50" height="80"/>
	<path style="fill:#EBAD88;" d="M40.5,276.5v-67.065c0-46.909,38.027-84.935,84.935-84.935h10.129   c46.909,0,84.935,38.027,84.935,84.935V276.5c0,49.706-40.294,90-90,90h0C80.794,366.5,40.5,326.206,40.5,276.5z"/>
	<path style="fill:#E8916F;" d="M135.565,124.5h-10.129c-3.363,0-6.674,0.217-9.935,0.598c42.224,4.923,75,40.793,75,84.338V276.5   c0,44.594-32.435,81.606-75,88.749c4.879,0.819,9.888,1.251,15,1.251h0c49.706,0,90-40.294,90-90v-67.065   C220.5,162.527,182.473,124.5,135.565,124.5z"/>
	<path style="fill:#685C79;" d="M247.5,487.6v16.9h-234v-16.9c0-49.141,34.609-88.975,77.304-88.975h79.393   C212.891,398.625,247.5,438.459,247.5,487.6z"/>
	<path style="fill:#594F69;" d="M170.196,398.625h-30c42.695,0,77.304,39.835,77.304,88.975v16.9h30v-16.9   C247.5,438.459,212.891,398.625,170.196,398.625z"/>
	<polygon style="fill:#FF2C5C;" points="93.026,398.625 167.974,398.625 130.5,504.5  "/>
	<g>
		<polygon style="fill:#50475E;" points="130.5,504.5 102.933,388.5 72.771,398.625 72.771,443.336 87.399,453.944 87.399,473.172       "/>
		<polygon style="fill:#50475E;" points="130.5,504.5 158.067,388.5 188.229,398.625 188.229,443.336 173.601,453.944     173.601,473.172   "/>
	</g>
	<path style="fill:#FFD659;" d="M40.113,227.397c0,0,7.488,3.02,15.175-11.401c8.791-16.493,31.957-25.704,59.72-24.7   c34.452,1.246,48.599-10.882,55.443-23.064c9.466,31.271,22.781,23.064,31.435,49.733c4.963,15.293,17.975,9.432,17.975,9.432   s35.809-20.763,17.353-53.73c3.171-66.25-48.784-70.175-48.784-70.175s-23.746-30.156-88.837-14.47   c-93.927,22.634-77.251,88.635-77.251,88.635S6.191,208.919,40.113,227.397z"/>
	<g>
		<path style="fill:#FFBD54;" d="M237.215,173.667c3.171-66.25-48.784-70.175-48.784-70.175s-18.904-24.001-69.206-18.038    c28.03,3.849,39.206,18.038,39.206,18.038s51.955,3.924,48.784,70.175c10.881,19.437,2.899,34.629-5.485,43.827    c0.052,0.158,0.105,0.311,0.157,0.471c4.963,15.293,17.975,9.432,17.975,9.432S255.671,206.634,237.215,173.667z"/>
	</g>
	<path style="fill:#EBAD88;" d="M406.599,104.678c-10.328-7.98-18.348-18.563-23.193-30.682l-12.53-31.339   c-1.28-3.385-6.399-3.361-14.419-1.285l0,0c-8.02,2.077-13.559,11.451-7.504,30.857l4.655,17.976   c0.753,2.908-0.894,5.889-3.752,6.817c-10.971,3.562-25.437,4.636-35.521,4.916l-28.011,0c-8.075,0-15.024,6.203-15.406,14.269   c-0.365,7.698,5.075,14.197,12.319,15.495c0.273,0.049,0.273,0.423,0,0.471c-7.244,1.298-12.684,7.796-12.319,15.494   c0.382,8.066,7.331,14.27,15.406,14.27h5.569c0.606,0,0.758,0.838,0.189,1.045c-4.449,1.618-11.028,5.563-10.997,14.743   c0.026,7.82,6.794,14.212,14.614,14.212h9.145c0.559,0,0.701,0.773,0.177,0.966c-4.358,1.601-11.402,5.549-11.597,14.381   c-0.178,8.057,6.658,14.653,14.717,14.653h8.666v-0.001l14.996,0.001v-0.001h82.588c13.838,0,25.056-11.218,25.056-25.056v-51.166   C439.446,132.15,423.633,117.839,406.599,104.678z"/>
	<g>
		<path style="fill:#E8916F;" d="M406.599,104.678c-10.328-7.979-18.348-18.563-23.193-30.682l-12.53-31.339    c-1.28-3.385-6.399-3.361-14.419-1.285c-5.434,1.407-9.724,6.171-10.045,15.131l6.994,17.493    c4.845,12.119,12.865,22.702,23.193,30.682c17.034,13.161,32.847,27.472,32.847,41.037v51.166    c0,13.838-11.218,25.057-25.056,25.057h30c13.838,0,25.056-11.218,25.056-25.057v-51.166    C439.446,132.15,423.633,117.839,406.599,104.678z"/>
	</g>
	<g>
		<path d="M173.858,289.428c-3.838-1.56-8.197,0.252-9.756,4.091c-0.304,0.705-7.736,17.272-32.704,17.272    c-25.255,0-34.264-16.863-34.704-17.719c-1.833-3.688-6.303-5.211-10.006-3.399c-3.722,1.817-5.267,6.308-3.449,10.03    c0.52,1.064,13.14,26.088,48.159,26.088c35.379,0,46.131-25.473,46.572-26.557C179.528,295.396,177.696,290.986,173.858,289.428z"/>
		<path d="M103.82,255.61c1.126,0.604,2.339,0.891,3.536,0.891c2.653,0,5.225-1.41,6.587-3.902    c1.988-3.634,0.653-8.191-2.981-10.179c-0.622-0.341-15.449-8.25-34.917-1.695c-3.926,1.322-6.037,5.576-4.715,9.501    c1.322,3.927,5.576,6.033,9.501,4.716C93.772,250.581,103.301,255.342,103.82,255.61z"/>
		<path d="M184.956,240.725c-19.47-6.554-34.296,1.354-34.917,1.695c-3.634,1.987-5.002,6.563-3.014,10.196    c1.365,2.497,3.927,3.916,6.576,3.916c1.207,0,2.432-0.295,3.57-0.917c0.401-0.207,9.97-5.06,23-0.674    c3.925,1.317,8.179-0.789,9.501-4.716C190.993,246.301,188.882,242.047,184.956,240.725z"/>
		<path d="M286.325,94.438c-12.27,0-22.328,9.405-22.898,21.413c-0.289,6.089,1.902,11.806,5.727,16.086    c-3.824,4.28-6.016,9.997-5.727,16.086c0.398,8.404,5.445,15.535,12.646,19.058c-1.643,3.147-2.5,6.744-2.487,10.671    c0.031,9.309,6.05,17.267,14.448,20.335c-1.314,2.739-2.037,5.774-2.108,9.032c-0.128,5.81,2.079,11.338,6.215,15.566    c4.198,4.292,10.029,6.753,16.001,6.753l106.249-0.001c17.952,0,32.556-14.604,32.556-32.557v-51.166    c0-16.999-17.188-32.621-35.761-46.972c-9.284-7.173-16.481-16.693-20.815-27.531L377.86,39.925    c-4.15-10.766-18.544-7.039-23.284-5.813c-5.336,1.383-9.769,4.83-12.481,9.709c-4.172,7.504-4.292,17.752-0.357,30.463    l4.171,16.107c-9.852,2.867-22.522,3.789-31.677,4.048H286.325z M314.544,109.436c10.661-0.296,25.843-1.453,37.628-5.279    c6.619-2.149,10.439-9.104,8.696-15.831l-4.655-17.976c-0.031-0.119-0.064-0.237-0.101-0.354    c-2.101-6.734-4.487-19.624,2.224-21.362c3.272-0.848,5.248-1.115,6.378-1.182l11.727,29.329    c5.328,13.324,14.17,25.023,25.572,33.832c8.187,6.325,29.932,23.127,29.932,35.103v51.166c0,9.681-7.875,17.557-17.556,17.557    l-106.25,0.001c-3.833,0-7.305-3.13-7.219-6.987c0.028-1.26,0.113-5.093,6.691-7.509c3.642-1.342,5.791-5.088,5.11-8.907    c-0.682-3.822-3.995-6.597-7.878-6.597h-9.145c-3.777,0-7.114-3.148-7.114-6.737c0-3.607,2.18-8.27,7.346-8.27    c0.046,0.001,10.856,0.007,10.856,0.007c4.142,0,7.5-3.357,7.5-7.5s-3.358-7.5-7.5-7.5c-7.472,0-12.873,0-20.461,0    c-4.178,0-7.729-3.196-7.915-7.125c-0.178-3.763,2.466-7.097,6.148-7.757c1.311-0.235,3.261-0.053,19.638-0.118    c4.142,0,7.5-3.357,7.5-7.5s-3.358-7.5-7.5-7.5h-18.295c-4.356,0-7.691-3.664-7.491-7.876c0.187-3.928,3.737-7.124,7.915-7.124    h28.011C314.405,109.438,314.475,109.438,314.544,109.436z"/>
		<path d="M435.24,0H320c-4.142,0-7.5,3.357-7.5,7.5s3.358,7.5,7.5,7.5h115.24C469.294,15,497,42.62,497,76.57V242.9    c0,33.949-27.706,61.569-61.76,61.569H348.5c-4.142,0-7.5,3.357-7.5,7.5c0,14.198-3.217,32.155-26.82,38.663    c8.196-12.672,7.411-30.132,4.85-40.467c-0.829-3.347-3.833-5.696-7.28-5.696h-87.845c1.756-5.855,2.981-11.938,3.607-18.194    C249.146,290.182,261,267.157,261,244c0-16.155-5.533-28.446-14.946-34.373c4.557-9.664,6.491-22.557-1.264-37.7    c1.147-36.166-13.611-54.874-26.334-64.233c-10.47-7.701-21.223-10.373-26.368-11.263c-4.172-4.086-14.314-12.228-32.088-16.562    V76.57C160,42.62,187.705,15,221.76,15H288c4.142,0,7.5-3.357,7.5-7.5S292.142,0,288,0h-66.24C179.434,0,145,34.35,145,76.57    v0.869c-12.81-1.117-28.406-0.229-47.163,4.292c-11.81,2.845-22.578,6.527-32.006,10.943c-3.751,1.758-5.367,6.223-3.61,9.974    c1.757,3.752,6.222,5.367,9.973,3.61c8.516-3.989,18.326-7.336,29.156-9.945c20.681-4.983,36.737-5.136,48.91-3.194    c0.6,0.188,1.234,0.292,1.888,0.323c21.148,3.873,29.865,14.054,30.39,14.689c1.3,1.651,3.232,2.681,5.328,2.839    c0.108,0.009,11.139,1.036,21.702,8.807c14.562,10.711,21.343,28.721,20.156,53.531c-0.067,1.402,0.261,2.797,0.947,4.022    c6.128,10.945,5.775,21.042-1.078,30.868c-4.796,6.877-11.287,11.305-13.041,12.427c-0.766,0.24-2.671,0.705-4.168,0.012    c-1.697-0.788-2.766-3.147-3.363-4.988c-4.729-14.573-11.074-20.435-16.672-25.607c-5.556-5.133-10.354-9.566-14.719-23.983    c-0.871-2.877-3.375-4.956-6.362-5.282c-2.99-0.331-5.882,1.161-7.354,3.781c-2.86,5.091-11.569,20.57-48.634,19.243    c-31.064-1.135-56.585,9.861-66.61,28.667c-2.794,5.243-5.234,7.106-6.342,7.567C17.64,205.61,27.767,183.57,29.006,181.1    c0.84-1.626,1.057-3.504,0.608-5.279c-0.073-0.289-7.009-29.165,18.055-53.228c2.988-2.868,3.084-7.616,0.216-10.604    s-7.617-3.086-10.604-0.216c-26.753,25.685-24.273,55.852-22.752,65.004c-1.452,3.598-3.688,10.554-3.52,18.971    c0.087,4.344,0.836,9.365,2.914,14.542C5.068,216.442,0,228.388,0,244c0,23.539,12.175,46.116,33.482,42.277    c2.21,22.36,11.983,43.085,28.074,59.165C72.015,355.908,84.44,363.697,98,368.476v13.769l-27.616,9.27    c-1.939,0.651-3.471,2.045-4.336,3.799C30.458,407.583,6,444.755,6,487.6v16.9c0,4.143,3.358,7.5,7.5,7.5h234    c4.142,0,7.5-3.357,7.5-7.5v-16.9c0-11.479-1.753-22.713-5.211-33.389c-1.277-3.941-5.505-6.103-9.446-4.823    c-3.94,1.276-6.101,5.505-4.824,9.446c2.973,9.18,4.481,18.858,4.481,28.766v9.4h-86.426l24.437-17.762    c1.941-1.411,3.09-3.666,3.09-6.066V457.77l11.531-8.362c1.945-1.411,3.097-3.668,3.097-6.071v-31.577    c9.941,4.557,18.868,11.736,26.18,21.144c1.479,1.902,3.691,2.897,5.927,2.897c1.608,0,3.229-0.515,4.597-1.578    c3.271-2.542,3.861-7.254,1.319-10.524c-10.481-13.485-23.822-23.213-38.802-28.386c-0.865-1.753-2.396-3.147-4.335-3.798    L163,382.245v-13.821c24.103-8.547,43.875-26.318,55.052-49.051c1.24,0.06,2.479,0.097,3.707,0.097h83.622    c0.333,3.094,0.524,7.129,0.046,11.287c-1.206,10.504-5.922,16.765-14.424,19.143c-4.566,1.281-7.519,5.808-6.869,10.529    c0.614,4.462,4.326,7.701,8.826,7.701c18.472,0,33.176-3.976,43.703-11.816c11.163-8.314,17.538-20.687,19.008-36.844h79.57    c42.326,0,76.76-34.349,76.76-76.569V76.57C512,34.35,477.566,0,435.24,0z M228,270.904v-39.987    c2.664-1.988,6.195-4.947,9.648-8.803C243.731,225.625,246,235.231,246,244C246,257.337,240.239,275.682,228,270.904z M15,244    c0-8.014,1.93-16.935,7.052-21.008c2.889,3.118,6.482,6.135,10.948,8.929v38.983C20.732,275.694,15,257.337,15,244z     M80.271,404.019l17.264-5.795l20.983,88.296l-23.62-17.168v-15.407c0-2.403-1.151-4.66-3.097-6.071l-11.531-8.362V404.019z     M114.829,406.12h31.341l-15.671,65.94L114.829,406.12z M21,487.6c0-34.063,17.78-63.791,44.271-75.85v31.586    c0,2.403,1.151,4.66,3.097,6.071l11.531,8.362v15.402c0,2.4,1.149,4.655,3.09,6.066L107.426,497H21V487.6z M180.729,404.019    v35.492l-11.531,8.362c-1.945,1.411-3.097,3.668-3.097,6.071v15.407l-23.62,17.168l20.983-88.296L180.729,404.019z M148,391.12    h-35v-18.682c11.55,2.08,23.44,2.089,35-0.015V391.12z M72.162,334.835C56.581,319.264,48,298.547,48,276.5v-42.55    c4.294-1.751,9.299-5.782,13.907-14.427c7.194-13.495,27.938-21.632,52.831-20.732c23.745,0.857,41.66-4.374,53.48-15.575    c4.489,9.101,9.438,13.673,13.952,17.844c5.064,4.679,9.064,8.375,12.583,19.221c2.805,8.644,7.862,12.437,11.611,14.097    c2.283,1.012,4.545,1.459,6.636,1.58V276.5C213,349.516,123.974,386.679,72.162,334.835z"/>
	</g>
</g>















</svg>
