<svg id="Layer_1" enable-background="new 0 0 512 512" viewBox="0 0 512 512" xmlns="http://www.w3.org/2000/svg"><g clip-rule="evenodd" fill-rule="evenodd"><g><path d="m250.898 121.196h75.924c7.595 0 14.072 4.05 16.818 10.516l28.589 67.315c.846 1.991 1.221 3.818 1.221 5.954v83.282c0 5.954-4.856 10.81-10.81 10.81-110.742 0-199.143 0-309.885 0-7.938 0-14.412-6.475-14.412-14.413v-52.631h208.834v-107.11c-.003-2.051 1.67-3.723 3.721-3.723z" fill="#ffe177"/><path d="m250.898 121.196h10.95c-2.051 0-3.723 1.673-3.723 3.723v174.153h-10.95v-174.153c-.001-2.051 1.672-3.723 3.723-3.723z" fill="#ffc338"/><path d="m355.159 242.525h18.29v30.896h-18.29c-2.745 0-4.983-2.238-4.983-4.983v-20.93c0-2.745 2.238-4.983 4.983-4.983z" fill="#837683"/><path d="m366.001 242.525h7.447v30.895h-7.447z" fill="#685e68"/><path d="m345.321 192.348-19.46-45.822c-.835-1.967-2.661-3.175-4.798-3.175h-46.52c-2.871 0-5.213 2.341-5.213 5.213v45.822c0 2.871 2.342 5.213 5.213 5.213h65.98c1.803 0 3.353-.833 4.347-2.336.995-1.504 1.156-3.255.451-4.915z" fill="#eceff1"/><path d="m281.99 143.352h-7.447c-2.871 0-5.213 2.341-5.213 5.213v45.822c0 2.871 2.342 5.213 5.213 5.213h7.447c-2.871 0-5.213-2.341-5.213-5.213v-45.822c0-2.872 2.342-5.213 5.213-5.213z" fill="#d1d1d6"/><ellipse cx="310.312" cy="299.073" fill="#685e68" rx="28.827" ry="28.827" transform="matrix(.16 -.987 .987 .16 -34.606 557.471)"/><path d="m310.311 289.251c-5.428 0-9.821 4.393-9.821 9.821s4.393 9.822 9.821 9.822 9.822-4.393 9.822-9.822c0-5.427-4.393-9.821-9.822-9.821z" fill="#a79ba7"/><path d="m15.998 89.356c0-7.927 6.475-14.413 14.413-14.413h68.728 133.622c7.938 0 14.413 6.476 14.413 14.413v209.717h-216.763c-7.938 0-14.413-6.475-14.413-14.413z" fill="#837683"/><path d="m15.998 89.356c0-7.927 6.475-14.413 14.413-14.413h19.315c-7.938 0-14.413 6.486-14.413 14.413v195.304c0 7.938 6.475 14.413 14.413 14.413h-19.315c-7.938 0-14.413-6.475-14.413-14.413z" fill="#685e68"/><path d="m77.359 170.115c-3.814 2.209-8.697.908-10.906-2.906s-.908-8.697 2.906-10.906l75.578-43.635c3.814-2.209 8.697-.908 10.906 2.906s.908 8.697-2.906 10.906zm40.849 70.805c-3.814 2.192-8.683.876-10.875-2.938s-.877-8.683 2.938-10.875l75.578-43.635c3.814-2.192 8.683-.877 10.875 2.938 2.192 3.814.876 8.683-2.938 10.875zm-47.843-19.581 130.385-75.277c3.814-2.192 5.129-7.061 2.938-10.875-2.192-3.814-7.061-5.129-10.875-2.938l-130.386 75.277c-3.814 2.192-5.129 7.061-2.938 10.875 2.193 3.814 7.062 5.129 10.876 2.938z" fill="#a79ba7"/><path d="m102.964 270.246c15.921 0 28.827 12.906 28.827 28.826 0 15.921-12.906 28.827-28.827 28.827s-28.826-12.906-28.826-28.827c0-15.92 12.905-28.826 28.826-28.826z" fill="#685e68"/><path d="m102.964 289.251c-5.428 0-9.821 4.393-9.821 9.821s4.393 9.822 9.821 9.822 9.821-4.393 9.821-9.822c0-5.427-4.393-9.821-9.821-9.821z" fill="#a79ba7"/></g><path d="m167.168 397.999c-3.814 2.192-8.683.876-10.875-2.938s-.877-8.683 2.938-10.875l94.776-54.719c3.814-2.192 8.683-.876 10.875 2.938s.876 8.683-2.938 10.875zm262.606-351.118c2.192-3.814 7.061-5.129 10.875-2.938 3.814 2.192 5.129 7.061 2.938 10.875l-54.719 94.776c-2.192 3.814-7.061 5.129-10.875 2.938-3.814-2.192-5.129-7.061-2.938-10.875zm43.249 178.242c4.401 0 7.969 3.568 7.969 7.969s-3.568 7.969-7.969 7.969l-75.381.001c-4.401 0-7.969-3.568-7.969-7.969s3.568-7.969 7.969-7.969zm-29.436 202.027c2.209 3.814.908 8.697-2.906 10.906s-8.697.908-10.906-2.906l-54.719-94.776c-2.209-3.814-.908-8.697 2.906-10.906s8.697-.908 10.906 2.906zm-125.306 34c0 4.401-3.568 7.969-7.969 7.969s-7.969-3.568-7.969-7.969v-105.382c0-4.401 3.568-7.969 7.969-7.969s7.969 3.568 7.969 7.969z" fill="#a79ba7"/><g><path d="m436.68 73.829c12.656 0 22.979-10.323 22.979-22.979s-10.323-22.979-22.979-22.979c-12.657 0-22.979 10.323-22.979 22.979s10.322 22.979 22.979 22.979z" fill="#8ac9fe"/><path d="m436.68 73.829c12.691 0 22.979-10.288 22.979-22.979s-10.288-22.979-22.979-22.979c-1.397 0-2.765.125-4.093.364 10.738 1.93 18.886 11.321 18.886 22.615s-8.148 20.684-18.886 22.615c1.328.239 2.696.364 4.093.364z" fill="#60b7ff"/></g><g><path d="m473.023 256.071c12.656 0 22.979-10.323 22.979-22.979s-10.323-22.979-22.979-22.979c-12.657 0-22.979 10.323-22.979 22.979s10.322 22.979 22.979 22.979z" fill="#8ac9fe"/><path d="m473.023 256.071c12.691 0 22.979-10.288 22.979-22.979s-10.288-22.979-22.979-22.979c-1.397 0-2.765.125-4.093.364 10.738 1.93 18.886 11.321 18.886 22.615s-8.148 20.684-18.886 22.615c1.328.239 2.696.364 4.093.364z" fill="#60b7ff"/></g><g><circle cx="436.68" cy="431.149" fill="#8ac9fe" r="22.979"/><path d="m436.681 454.128c12.691 0 22.979-10.288 22.979-22.979s-10.288-22.979-22.979-22.979c-1.397 0-2.765.125-4.093.364 10.738 1.93 18.886 11.321 18.886 22.615s-8.148 20.684-18.886 22.615c1.328.239 2.696.364 4.093.364z" fill="#60b7ff"/></g><g><circle cx="310.313" cy="461.15" fill="#8ac9fe" r="22.979"/><path d="m310.313 484.129c12.691 0 22.979-10.288 22.979-22.979s-10.288-22.979-22.979-22.979c-1.397 0-2.765.125-4.093.364 10.738 1.93 18.886 11.321 18.886 22.615s-8.148 20.684-18.886 22.615c1.328.239 2.696.364 4.093.364z" fill="#60b7ff"/></g><g><path d="m163.2 414.071c12.656 0 22.979-10.323 22.979-22.979s-10.323-22.979-22.979-22.979c-12.657 0-22.979 10.323-22.979 22.979-.001 12.656 10.322 22.979 22.979 22.979z" fill="#8ac9fe"/><path d="m163.2 414.071c12.691 0 22.979-10.288 22.979-22.979s-10.288-22.979-22.979-22.979c-1.397 0-2.765.125-4.093.364 10.738 1.93 18.886 11.321 18.886 22.615s-8.148 20.684-18.886 22.615c1.328.239 2.696.364 4.093.364z" fill="#60b7ff"/></g></g></svg>