<svg id="Layer_1" enable-background="new 0 0 450 450" height="512" viewBox="0 0 450 450" width="512" xmlns="http://www.w3.org/2000/svg"><g><g><path d="m127.6 282.4h23.7v30.4h-23.7z" fill="#d78e44"/></g><g><path d="m83.8 282.4h23.7v30.4h-23.7z" fill="#d78e44"/></g><g><path d="m114 247.9 14.6 18.7v-67.4h-29.1v67.4z" fill="#edaf54"/></g><g><path d="m179.6 199.2v67.4l14.5-18.7 14.5 18.7v-67.4z" fill="#edaf54"/></g><g><path d="m179.6 266.6v-67.4h-51v67.4l-14.5-18.6-14.5 18.6v-67.4h-24.8c-6.7 0-12.2 5.5-12.2 12.2v105.2c0 6.7 5.5 12.2 12.2 12.2h158.6c6.7 0 12.2-5.5 12.2-12.2v-105.2c0-6.7-5.5-12.2-12.2-12.2h-24.7v67.4l-14.5-18.6zm-72 15.8v30.4h-23.7v-30.4zm20 0h23.7v30.4h-23.7z" fill="#ffd47d"/></g><g><path clip-rule="evenodd" d="m385 189.8c12.6-24.1 56.2-95.8 56.2-119.1 0-31.1-25.2-56.2-56.2-56.2s-56.2 25.2-56.2 56.2c0 23.4 43.6 95.1 56.2 119.1zm26.9-119.1c0 14.8-12 26.9-26.9 26.9-14.8 0-26.9-12-26.9-26.9 0-14.8 12-26.9 26.9-26.9s26.9 12 26.9 26.9z" fill="#ef5350" fill-rule="evenodd"/></g><g><path clip-rule="evenodd" d="m191 152.2c7.3-13.9 32.5-55.3 32.5-68.8 0-17.9-14.5-32.4-32.5-32.4s-32.5 14.5-32.5 32.5c.1 13.4 25.3 54.8 32.5 68.7zm0-53.2c-8.6 0-15.5-6.9-15.5-15.5s6.9-15.5 15.5-15.5 15.5 6.9 15.5 15.5c0 8.5-6.9 15.5-15.5 15.5z" fill="#ef5350" fill-rule="evenodd"/></g><g><path clip-rule="evenodd" d="m48.9 146.2c8.9-16.9 39.6-67.5 39.6-83.9 0-21.9-17.7-39.6-39.6-39.6-21.9 0-39.6 17.7-39.6 39.6 0 16.4 30.7 67 39.6 83.9zm0-65c-10.5 0-18.9-8.5-18.9-18.9s8.5-18.9 18.9-18.9 18.9 8.5 18.9 18.9-8.5 18.9-18.9 18.9z" fill="#ef5350" fill-rule="evenodd"/></g><g><path d="m245.5 211.4v105.2c0 6.7-5.5 12.2-12.2 12.2h-158.5c-6.7 0-12.2-5.5-12.2-12.2v-105.2c0-6.7 5.5-12.2 12.2-12.2h24.7 29.1 51 29.1 24.7c6.7 0 12.1 5.5 12.1 12.2zm50 13.6v-51.5h-282.9v180.8h282.9z" fill="#729bc6"/></g><g><path d="m295.5 354.4h-282.9v50.1h43.7c0-18 14.6-32.5 32.6-32.5s32.6 14.6 32.6 32.5h32.3c0-18 14.6-32.5 32.6-32.5s32.6 14.6 32.6 32.5h76.8v-50.1z" fill="#729bc6"/></g><g><path d="m196.9 404.5c0-5.9-4.8-10.7-10.7-10.7s-10.7 4.8-10.7 10.7 4.8 10.7 10.7 10.7 10.7-4.8 10.7-10.7z" fill="#e6e6e6"/></g><g><path d="m99.5 404.5c0-5.9-4.8-10.7-10.7-10.7s-10.7 4.8-10.7 10.7 4.8 10.7 10.7 10.7 10.7-4.8 10.7-10.7z" fill="#e6e6e6"/></g><g><path d="m368.1 393.8c-5.9 0-10.7 4.8-10.7 10.7s4.8 10.7 10.7 10.7 10.7-4.8 10.7-10.7-4.8-10.7-10.7-10.7z" fill="#e6e6e6"/></g><g><path d="m186.2 393.8c5.9 0 10.7 4.8 10.7 10.7s-4.8 10.7-10.7 10.7-10.7-4.8-10.7-10.7 4.8-10.7 10.7-10.7zm32.5 10.7c0-18-14.6-32.5-32.6-32.5s-32.6 14.6-32.6 32.5c0 18 14.6 32.5 32.6 32.5s32.6-14.5 32.6-32.5z" fill="#a2abb8"/></g><g><path d="m88.8 393.8c5.9 0 10.7 4.8 10.7 10.7s-4.8 10.7-10.7 10.7-10.7-4.8-10.7-10.7c.1-5.9 4.8-10.7 10.7-10.7zm32.6 10.7c0-18-14.6-32.5-32.6-32.5s-32.6 14.6-32.6 32.5c0 18 14.6 32.5 32.6 32.5s32.6-14.5 32.6-32.5z" fill="#a2abb8"/></g><g><path d="m368.1 393.8c5.9 0 10.7 4.8 10.7 10.7s-4.8 10.7-10.7 10.7-10.7-4.8-10.7-10.7 4.8-10.7 10.7-10.7zm0-21.9c-18 0-32.5 14.6-32.5 32.5 0 18 14.6 32.5 32.5 32.5 18 0 32.5-14.6 32.5-32.5.1-17.9-14.5-32.5-32.5-32.5z" fill="#a2abb8"/></g><g><path d="m324.2 319.9h87.8l-26.7-66.2h-61.1z" fill="#bfddff"/></g><g><path d="m368.1 371.9c18 0 32.5 14.6 32.5 32.5h40v-90.2l-36-89.2h-109.1v129.3 50.1h40c.1-17.9 14.6-32.5 32.6-32.5zm43.9-52h-87.9v-66.2h61.1z" fill="#ef5350"/></g><g><g><g><path d="m385 194.6c-1.8 0-3.4-1-4.3-2.6-2.6-4.9-6.5-11.9-11.1-20.1-24-42.9-45.6-82.9-45.6-101.2 0-33.7 27.4-61 61-61s61 27.4 61 61c0 18.3-21.6 58.3-45.7 101.3-4.6 8.1-8.5 15.1-11.1 20.1-.8 1.5-2.4 2.5-4.2 2.5zm0-175.3c-28.4 0-51.4 23.1-51.4 51.4 0 17.3 27.9 66.9 44.5 96.6 2.5 4.5 4.9 8.7 6.9 12.4 2-3.7 4.4-7.9 7-12.4 16.6-29.7 44.5-79.3 44.5-96.6 0-28.4-23.1-51.4-51.5-51.4z"/></g><g><path d="m385 102.4c-17.5 0-31.7-14.2-31.7-31.7s14.3-31.7 31.7-31.7 31.7 14.2 31.7 31.7-14.2 31.7-31.7 31.7zm0-53.8c-12.2 0-22.1 9.9-22.1 22.1s9.9 22.1 22.1 22.1 22.1-9.9 22.1-22.1-9.9-22.1-22.1-22.1z"/></g></g><g><g><path d="m233.4 333.5h-158.6c-9.4 0-17-7.6-17-17v-105.1c0-9.4 7.6-17 17-17h158.6c9.4 0 17 7.6 17 17v105.2c0 9.3-7.7 16.9-17 16.9zm-158.6-129.5c-4.1 0-7.4 3.3-7.4 7.4v105.2c0 4.1 3.3 7.4 7.4 7.4h158.6c4.1 0 7.4-3.3 7.4-7.4v-105.2c0-4.1-3.3-7.4-7.4-7.4z"/></g><g><path d="m99.5 271.4c-.5 0-1.1-.1-1.6-.3-1.9-.7-3.2-2.5-3.2-4.5v-67.4c0-2.6 2.2-4.8 4.8-4.8s4.8 2.1 4.8 4.8v53.4l5.9-7.6c.9-1.2 2.3-1.9 3.8-1.9 1.5 0 2.9.7 3.8 1.9l5.9 7.6v-53.4c0-2.6 2.1-4.8 4.8-4.8s4.8 2.1 4.8 4.8v67.4c0 2-1.3 3.9-3.2 4.5-1.9.7-4.1 0-5.4-1.6l-10.7-13.8-10.8 13.8c-.8 1.2-2.2 1.9-3.7 1.9z"/></g><g><path d="m208.6 271.4c-1.4 0-2.9-.7-3.8-1.9l-10.8-13.8-10.8 13.8c-1.3 1.6-3.4 2.3-5.4 1.6s-3.2-2.5-3.2-4.5v-67.4c0-2.6 2.1-4.8 4.8-4.8s4.8 2.1 4.8 4.8v53.4l5.9-7.6c.9-1.2 2.3-1.9 3.8-1.9s2.9.7 3.8 1.9l5.9 7.6v-53.4c0-2.6 2.1-4.8 4.8-4.8s4.8 2.1 4.8 4.8v67.4c0 2-1.3 3.9-3.2 4.5-.3.2-.9.3-1.4.3z"/></g><g><path d="m107.6 317.7h-23.7c-2.7 0-4.8-2.1-4.8-4.8v-30.4c0-2.6 2.2-4.8 4.8-4.8h23.7c2.6 0 4.8 2.1 4.8 4.8v30.4c0 2.6-2.2 4.8-4.8 4.8zm-19-9.6h14.1v-20.8h-14.1z"/></g><g><path d="m151.4 317.7h-23.7c-2.6 0-4.8-2.1-4.8-4.8v-30.4c0-2.6 2.1-4.8 4.8-4.8h23.7c2.6 0 4.8 2.1 4.8 4.8v30.4c0 2.6-2.2 4.8-4.8 4.8zm-19-9.6h14.1v-20.8h-14.1z"/></g><g><path d="m224.3 287.2h-52.8c-2.6 0-4.8-2.1-4.8-4.8s2.1-4.8 4.8-4.8h52.8c2.6 0 4.8 2.1 4.8 4.8s-2.2 4.8-4.8 4.8z"/></g><g><path d="m224.3 302.5h-52.8c-2.6 0-4.8-2.1-4.8-4.8s2.1-4.8 4.8-4.8h52.8c2.6 0 4.8 2.1 4.8 4.8s-2.2 4.8-4.8 4.8z"/></g><g><path d="m224.3 317.7h-52.8c-2.6 0-4.8-2.1-4.8-4.8s2.1-4.8 4.8-4.8h52.8c2.6 0 4.8 2.1 4.8 4.8s-2.2 4.8-4.8 4.8z"/></g><g><path d="m440.7 409.3h-40c-2.6 0-4.8-2.1-4.8-4.8s2.1-4.8 4.8-4.8h35.3v-84.4l-34.5-85.4h-101.2v169.8h35.3c2.6 0 4.8 2.1 4.8 4.8s-2.1 4.8-4.8 4.8h-40c-2.6 0-4.8-2.1-4.8-4.8v-179.5c0-2.6 2.1-4.8 4.8-4.8h109.1c2 0 3.7 1.2 4.5 3l36.1 89.3c.2.6.4 1.2.4 1.8v90.2c-.2 2.6-2.3 4.8-5 4.8z"/></g><g><path d="m412 324.7h-87.9c-2.6 0-4.8-2.1-4.8-4.8v-66.2c0-2.6 2.1-4.8 4.8-4.8h61.1c2 0 3.7 1.2 4.5 3l26.8 66.2c.6 1.5.4 3.2-.5 4.5s-2.4 2.1-4 2.1zm-83-9.6h75.9l-22.9-56.6h-53z"/></g><g><path d="m295.5 409.3h-76.8c-2.6 0-4.8-2.1-4.8-4.8s2.1-4.8 4.8-4.8h76.8c2.6 0 4.8 2.1 4.8 4.8s-2.1 4.8-4.8 4.8zm-141.9 0h-32.3c-2.6 0-4.8-2.1-4.8-4.8s2.1-4.8 4.8-4.8h32.3c2.6 0 4.8 2.1 4.8 4.8s-2.1 4.8-4.8 4.8zm-97.3 0h-43.7c-2.6 0-4.8-2.1-4.8-4.8v-50.1c0-2.6 2.1-4.8 4.8-4.8s4.8 2.1 4.8 4.8v45.3h38.9c2.7 0 4.8 2.1 4.8 4.8s-2.2 4.8-4.8 4.8z"/></g><g><path d="m368.1 441.8c-20.6 0-37.4-16.8-37.4-37.4s16.8-37.4 37.4-37.4 37.4 16.8 37.4 37.4-16.8 37.4-37.4 37.4zm0-65.1c-15.3 0-27.8 12.5-27.8 27.8s12.5 27.8 27.8 27.8 27.8-12.5 27.8-27.8-12.5-27.8-27.8-27.8z"/></g><g><path d="m186.2 441.8c-20.6 0-37.4-16.8-37.4-37.4s16.8-37.4 37.4-37.4 37.4 16.8 37.4 37.4-16.8 37.4-37.4 37.4zm0-65.1c-15.3 0-27.8 12.5-27.8 27.8s12.4 27.8 27.8 27.8 27.8-12.5 27.8-27.8-12.5-27.8-27.8-27.8z"/></g><g><path d="m88.8 441.8c-20.6 0-37.3-16.8-37.3-37.4s16.8-37.4 37.3-37.4c20.6 0 37.4 16.8 37.4 37.4s-16.8 37.4-37.4 37.4zm0-65.1c-15.3 0-27.8 12.5-27.8 27.8s12.4 27.8 27.8 27.8 27.8-12.5 27.8-27.8-12.5-27.8-27.8-27.8z"/></g><g><path d="m341.5 344h-17.3c-2.6 0-4.8-2.1-4.8-4.8s2.1-4.8 4.8-4.8h17.3c2.6 0 4.8 2.1 4.8 4.8s-2.2 4.8-4.8 4.8z"/></g><g><path d="m88.8 420c-8.5 0-15.5-7-15.5-15.5s7-15.5 15.5-15.5 15.5 7 15.5 15.5-6.9 15.5-15.5 15.5zm0-21.4c-3.2 0-5.9 2.6-5.9 5.9s2.6 5.9 5.9 5.9 5.9-2.6 5.9-5.9-2.6-5.9-5.9-5.9z"/></g><g><path d="m186.2 420c-8.5 0-15.5-7-15.5-15.5s6.9-15.5 15.5-15.5 15.5 7 15.5 15.5-7 15.5-15.5 15.5zm0-21.4c-3.2 0-5.9 2.6-5.9 5.9s2.6 5.9 5.9 5.9 5.9-2.6 5.9-5.9-2.7-5.9-5.9-5.9z"/></g><g><path d="m368.1 420c-8.5 0-15.5-7-15.5-15.5s6.9-15.5 15.5-15.5 15.5 7 15.5 15.5-7 15.5-15.5 15.5zm0-21.4c-3.3 0-5.9 2.6-5.9 5.9s2.6 5.9 5.9 5.9 5.9-2.6 5.9-5.9-2.6-5.9-5.9-5.9z"/></g><g><path d="m295.5 359.2h-282.9c-2.6 0-4.8-2.1-4.8-4.8v-180.8c0-2.6 2.1-4.8 4.8-4.8h282.9c2.6 0 4.8 2.1 4.8 4.8v51.4c0 2.6-2.1 4.8-4.8 4.8s-4.8-2.1-4.8-4.8v-46.7h-273.3v171.2h278.1c2.6 0 4.8 2.1 4.8 4.8s-2.1 4.9-4.8 4.9z"/></g></g><g><g><path d="m48.9 151c-1.8 0-3.4-1-4.3-2.6-1.8-3.4-4.6-8.4-7.8-14.1-17-30.4-32.3-58.8-32.3-72 0-24.5 19.9-44.4 44.4-44.4s44.4 19.9 44.4 44.4c0 13.2-15.3 41.6-32.4 72.1-3.2 5.7-6 10.7-7.8 14.1-.8 1.6-2.4 2.5-4.2 2.5zm0-123.5c-19.2 0-34.8 15.6-34.8 34.8 0 11.8 20.3 48 31.2 67.4 1.3 2.3 2.5 4.5 3.7 6.5 1.1-2 2.4-4.2 3.7-6.5 10.9-19.4 31.2-55.6 31.2-67.4-.2-19.2-15.8-34.8-35-34.8z"/></g><g><path d="m48.9 86c-13.1 0-23.7-10.7-23.7-23.7s10.6-23.7 23.7-23.7 23.7 10.6 23.7 23.7-10.6 23.7-23.7 23.7zm0-37.8c-7.8 0-14.1 6.3-14.1 14.1s6.3 14.1 14.1 14.1 14.1-6.3 14.1-14.1-6.3-14.1-14.1-14.1z"/></g></g><g><g><path d="m191 157c-1.8 0-3.4-1-4.3-2.6-1.5-2.8-3.7-6.9-6.4-11.5-14-25-26.6-48.4-26.6-59.5 0-20.5 16.7-37.3 37.3-37.3 20.5 0 37.3 16.7 37.3 37.3 0 11-12.6 34.4-26.6 59.5-2.6 4.7-4.9 8.7-6.4 11.5-.9 1.6-2.5 2.6-4.3 2.6zm0-101.2c-15.3 0-27.7 12.4-27.7 27.7 0 9.4 16.5 38.9 25.4 54.8.8 1.4 1.5 2.7 2.2 4 .7-1.3 1.5-2.6 2.2-4 8.9-15.8 25.4-45.3 25.4-54.8.2-15.3-12.2-27.7-27.5-27.7z"/></g><g><path d="m191 103.8c-11.2 0-20.3-9.1-20.3-20.3s9.1-20.3 20.3-20.3 20.3 9.1 20.3 20.3-9.1 20.3-20.3 20.3zm0-31.1c-5.9 0-10.7 4.8-10.7 10.7s4.8 10.7 10.7 10.7 10.7-4.8 10.7-10.7-4.8-10.7-10.7-10.7z"/></g></g><g><path d="m170 41.3c-1.5 0-2.9-.7-3.9-1.9-7.6-10.2-18.5-16.1-29.8-16.1-11.4 0-22.3 5.9-29.8 16.1-1.6 2.1-4.6 2.6-6.7 1s-2.6-4.6-1-6.7c9.4-12.7 23.1-20 37.5-20s28.1 7.3 37.6 20c1.6 2.1 1.1 5.1-1 6.7-.9.5-1.9.9-2.9.9z"/></g><g><path d="m306.5 118.9c-2.4 0-4.5-1.8-4.8-4.3-7.3-62.7-56.6-73.4-57.1-73.5-2.6-.5-4.3-3.1-3.8-5.7s3.1-4.3 5.7-3.8c.6.1 14.6 3 29.5 14.6 13.7 10.7 31 30.9 35.2 67.2.3 2.6-1.6 5-4.2 5.3-.1.2-.3.2-.5.2z"/></g></g></g></svg>