<svg height="512" viewBox="0 0 64 64" width="512" xmlns="http://www.w3.org/2000/svg"><g id="Layer_21" data-name="Layer 21"><g fill="#49bdff"><path d="m28.82 54h-14.32a1 1 0 0 0 0 2h14.32a1 1 0 0 0 0-2z"/><path d="m60.29 54h-6a1 1 0 0 0 0 2h6a1 1 0 0 0 0-2z"/><path d="m48.7 54h-14.32a1 1 0 1 0 0 2h14.32a1 1 0 0 0 0-2z"/><path d="m8.92 54h-5.21a1 1 0 0 0 0 2h5.21a1 1 0 1 0 0-2z"/><path d="m17.21 40.74a1 1 0 0 0 -1.4.16l-4.29 5.38-1.88-1.89a1 1 0 0 0 -1.42 0 1 1 0 0 0 0 1.41l2.68 2.68a1 1 0 0 0 .71.29h.05a1 1 0 0 0 .73-.37l5-6.25a1 1 0 0 0 -.18-1.41z"/><path d="m37.47 40.74a1 1 0 0 0 -1.41.16l-4.28 5.38-1.89-1.89a1 1 0 0 0 -1.41 1.41l2.68 2.68a1 1 0 0 0 .7.29h.06a1 1 0 0 0 .73-.37l5-6.25a1 1 0 0 0 -.18-1.41z"/></g><rect fill="#e6646e" height="7.57" rx="1" width="7.57" x="7.93" y="51.24"/><rect fill="#e6646e" height="7.57" rx="1" width="7.57" x="27.81" y="51.24"/><rect fill="#e6646e" height="7.57" rx="1" width="7.57" x="47.7" y="51.24"/><path d="m32.69 21.53v-.09-.08l-.08-.13-.06-.07v-.08a1.08 1.08 0 0 0 -.2-.16l-13.65-7.8a1.07 1.07 0 0 0 -.33-.11h-.09a1.3 1.3 0 0 0 -.34 0 .92.92 0 0 0 -.23.09l-.06.05-.07.06a1 1 0 0 0 -.24.26 1.07 1.07 0 0 0 -.11.33s0 .06 0 .09 0 .05 0 .08v15.63a1 1 0 0 0 .5.87l13.52 7.81s.05 0 .07 0h.09a.86.86 0 0 0 .68 0h.09.07a1.08 1.08 0 0 0 .2-.16 1.07 1.07 0 0 0 .19-.28v-.08a1 1 0 0 0 .07-.35v-15.62a1 1 0 0 0 0-.25z" fill="#ffc350"/><path d="m46.22 13.91s0-.06 0-.09a1.07 1.07 0 0 0 -.11-.33 1 1 0 0 0 -.24-.26l-.07-.06-.06-.05a.92.92 0 0 0 -.24-.12 1.3 1.3 0 0 0 -.34 0h-.09a1.07 1.07 0 0 0 -.33.11l-7.27 4.2h-.09l-6.15 3.56a1.56 1.56 0 0 0 -.2.16.35.35 0 0 0 -.05.08l-.06.07-.08.13v.09.08a1 1 0 0 0 0 .25v15.68a1 1 0 0 0 .07.35v.08a1.07 1.07 0 0 0 .19.28 1.66 1.66 0 0 0 .21.16h.07.09a.94.94 0 0 0 .34.07 1 1 0 0 0 .34-.07h.09s.05 0 .07 0l13.51-7.81a1 1 0 0 0 .5-.87v-15.6s-.1-.06-.1-.09z" fill="#ffd164"/><path d="m46.23 14a1 1 0 0 1 0 .25 1.05 1.05 0 0 1 -.15.3l-.06.07a.86.86 0 0 1 -.26.24l-6.85 3.95-.5.29h-.09l-1.44.9-4.66 2.7a1 1 0 0 1 -.5.13 1 1 0 0 1 -.5-.13l-13.52-7.84a.86.86 0 0 1 -.26-.24l-.06-.07a1.05 1.05 0 0 1 -.15-.3 1 1 0 0 1 0-.25s0-.05 0-.08 0-.06 0-.09a1.07 1.07 0 0 1 .11-.33.83.83 0 0 1 .23-.26l.07-.06.06-.05 6.22-3.6.9-.52h.09l.92-.53 5.39-3.12a1 1 0 0 1 1 0l13.51 7.81.06.05.08.06a1.16 1.16 0 0 1 .23.26 1.07 1.07 0 0 1 .11.33s0 .06 0 .09.02.04.02.04z" fill="#ffe17d"/><path d="m17.7 30.47 13.51 7.8a1 1 0 0 0 .5.14 1 1 0 0 0 .5-.14l13.53-7.8a1 1 0 0 0 .5-.87v-15.6a1 1 0 0 0 -.5-.87l-13.53-7.81a1 1 0 0 0 -1 0l-13.51 7.8a1 1 0 0 0 -.5.87v15.61a1 1 0 0 0 .5.87zm1.5-14.74 11.51 6.64v13.31l-11.51-6.68zm6.09-4.68 10.71 7.13-4.27 2.46-11.54-6.64zm7.42 24.63v-13.31l4.17-2.37v3.58a1 1 0 1 0 2 0v-4.76l5.36-3.1v13.28zm-1-28.34 11.53 6.66-5.33 3.07-10.69-7.14z"/><path d="m60.29 54h-5v-1.76a1 1 0 0 0 -1-1h-5.59a1 1 0 0 0 -1 1v1.76h-12.31v-1.76a1 1 0 0 0 -1-1h-5.58a1 1 0 0 0 -1 1v1.76h-12.31v-1.76a1 1 0 0 0 -1-1h-5.57a1 1 0 0 0 -1 1v1.76h-4.22a1 1 0 0 0 0 2h4.22v1.79a1 1 0 0 0 1 1h5.57a1 1 0 0 0 1-1v-1.79h12.31v1.79a1 1 0 0 0 1 1h5.58a1 1 0 0 0 1-1v-1.79h12.31v1.79a1 1 0 0 0 1 1h5.57a1 1 0 0 0 1-1v-1.79h5a1 1 0 0 0 0-2zm-46.79 2.82h-3.57v-3.58h3.57zm19.89 0h-3.58v-3.58h3.58zm19.88 0h-3.57v-3.58h3.57z"/><path d="m10.9 48.48a1 1 0 0 0 .71.29h.05a1 1 0 0 0 .73-.37l5-6.25a1 1 0 0 0 -.16-1.41 1 1 0 0 0 -1.4.16l-4.29 5.38-1.9-1.89a1 1 0 0 0 -1.42 0 1 1 0 0 0 0 1.41z"/><path d="m36.06 40.9-4.28 5.38-1.89-1.89a1 1 0 0 0 -1.41 1.41l2.68 2.68a1 1 0 0 0 .7.29h.06a1 1 0 0 0 .73-.37l5-6.25a1 1 0 1 0 -1.57-1.25z"/></g></svg>