<svg id="Layer_1" enable-background="new 0 0 512 512" viewBox="0 0 512 512" xmlns="http://www.w3.org/2000/svg"><g clip-rule="evenodd" fill-rule="evenodd"><path d="m258.769 125.777 151.739 87.607c1.6.92 2.518 2.594 2.519 4.316v175.546c0 2.02-1.198 3.76-2.922 4.549l-151.625 87.54c-1.597.918-3.493.86-4.981 0l-152.027-87.773c-1.595-.924-2.498-2.597-2.5-4.316v-175.546c0-1.978 1.149-3.688 2.815-4.499l151.713-87.59c1.699-.984 3.738-.853 5.269.166z" fill="#c49e6c"/><path d="m261 483.882c-5.185 2.993-5.163 2.804-10 .011v-188.97h10z" fill="#9e8057"/><path d="m253.5 309.79-151.971-87.74c-3.385-1.926-3.371-6.748-.056-8.665l152.027-87.774c1.488-.859 3.384-.918 4.981 0l151.984 87.748c3.379 1.922 3.375 6.739.044 8.658l-151.739 87.607c-1.532 1.019-3.571 1.15-5.27.166z" fill="#8e734e"/><path d="m256 124.948c.843-.001 1.697.213 2.481.663l151.984 87.748c3.379 1.922 3.375 6.739.044 8.658l-151.739 87.607c-.821.546-1.787.838-2.769.839v-185.515z" fill="#806846"/><path d="m440.638 274.169-152.028 87.774c-2.456 1.42-5.528.575-6.966-2.094l-29.961-51.894c-1.367-2.379-.556-5.423 1.816-6.797l152.027-87.773c2.457-1.421 5.533-.573 6.966 2.095l29.961 51.894c1.368 2.377.557 5.421-1.815 6.795z" fill="#9e8057"/><path d="m223.389 361.943-152.027-87.774c-2.372-1.374-3.183-4.418-1.816-6.797l30.11-52.172c1.381-2.384 4.433-3.197 6.817-1.816l152.027 87.773c2.372 1.374 3.183 4.418 1.816 6.797l-30.11 52.172c-1.381 2.384-4.433 3.197-6.817 1.817z" fill="#b08e61"/><path d="m256 177.537-19.364 72.268c-.603 2.256-2.92 3.596-5.176 2.993-.989-.264-1.802-.858-2.353-1.632l-14.807-17.568-21.938 7.93c-2.192.795-4.613-.338-5.408-2.53-.306-.844-.326-1.722-.11-2.528l-.006-.002 23.826-88.921c.603-2.256 2.92-3.596 5.176-2.993.148.04.293.087.433.141l39.726 12.1 39.726-12.1c.14-.054.285-.102.433-.141 2.256-.603 4.573.738 5.176 2.993l23.826 88.921-.006.002c.216.806.196 1.684-.11 2.528-.794 2.192-3.216 3.325-5.407 2.53l-21.939-7.93-14.807 17.568c-.55.774-1.364 1.368-2.353 1.632-2.255.603-4.573-.738-5.176-2.993z" fill="#e6bd5c"/><path d="m256 177.537-1.913 7.139-2.323-8.67-19.364 72.267c-.423 1.581-1.687 2.712-3.183 3.04-.038-.048-.074-.098-.11-.147l-14.807-17.568-2.258.816-1.978-2.347-21.938 7.93c-.177.064-.356.116-.535.155-.265-.34-.482-.727-.636-1.154-.306-.844-.326-1.722-.11-2.528l-.006-.002 23.826-88.921c.603-2.256 2.92-3.596 5.176-2.993.148.04.293.087.433.141l39.726 12.1 39.726-12.1c.14-.054.285-.102.433-.141.064-.017.127-.032.191-.046.339.434.598.942.749 1.508l23.826 88.921-.006.002c.216.806.196 1.684-.11 2.528-.795 2.192-3.216 3.325-5.408 2.53l-17.703-6.399-4.236-1.531-14.807 17.568c-.55.774-1.363 1.368-2.353 1.632-.064.017-.127.032-.191.046-.339-.435-.598-.943-.749-1.508z" fill="#ffd266"/><path d="m258.051 31.082 12.201-4.288c5.769-2.027 11.93-.369 15.913 4.272l8.423 9.814c.98 1.142 2.055 1.758 3.528 2.035l12.711 2.387c6.027 1.132 10.525 5.63 11.657 11.657l2.387 12.71c.278 1.483.894 2.549 2.035 3.528l9.814 8.423c4.641 3.983 6.299 10.143 4.272 15.913l-4.288 12.201c-.484 1.379-.484 2.723 0 4.103l4.288 12.201c2.027 5.769.368 11.93-4.273 15.913l-9.814 8.422c-1.173 1.375-1.684 1.661-2.035 3.528l-2.387 12.711c-1.132 6.027-5.63 10.525-11.657 11.657l-12.711 2.387c-1.483.278-2.549.894-3.528 2.035l-8.423 9.814c-3.983 4.641-10.143 6.3-15.913 4.272l-12.201-4.288c-1.412-.496-2.694-.495-4.103 0l-12.201 4.288c-5.77 2.028-11.93.368-15.913-4.272l-8.423-9.814c-.99-1.154-2.035-1.754-3.528-2.035l-12.71-2.387c-6.028-1.133-10.525-5.63-11.657-11.657l-2.387-12.71c-.278-1.483-.894-2.549-2.035-3.528l-9.814-8.423c-4.641-3.982-6.3-10.143-4.273-15.913l4.288-12.201c.485-1.38.485-2.723 0-4.103l-4.288-12.201c-2.027-5.77-.368-11.93 4.272-15.913l9.814-8.423c1.173-1.374 1.685-1.661 2.035-3.528l2.387-12.711c1.132-6.027 5.63-10.525 11.657-11.657l12.711-2.387c1.477-.277 2.548-.893 3.528-2.035l8.423-9.814c3.983-4.641 10.143-6.3 15.913-4.272l12.201 4.288c1.38.485 2.725.486 4.104.001z" fill="#e4404d"/><path d="m258.051 31.082 12.201-4.288c.83-.292 1.668-.507 2.507-.648 3.256.556 6.281 2.241 8.58 4.92l8.423 9.814c.98 1.142 2.055 1.758 3.528 2.035l12.71 2.387c6.028 1.132 10.525 5.63 11.657 11.657l2.387 12.71c.279 1.483.894 2.549 2.035 3.528l9.814 8.423c4.641 3.983 6.299 10.143 4.272 15.913l-4.288 12.201c-.484 1.379-.484 2.723 0 4.103l4.288 12.201c2.027 5.769.368 11.93-4.273 15.913l-9.814 8.422c-1.173 1.375-1.684 1.661-2.035 3.528l-2.387 12.711c-1.132 6.027-5.63 10.525-11.657 11.657l-12.71 2.387c-1.483.278-2.549.894-3.528 2.035l-8.423 9.814c-2.299 2.679-5.324 4.364-8.58 4.92-.839-.141-1.677-.357-2.507-.648l-12.201-4.288c-1.412-.496-2.694-.495-4.103 0l-.361.127-.362-.127c-1.412-.496-2.694-.495-4.103 0l-12.202 4.288c-.83.292-1.668.507-2.507.648-3.256-.556-6.281-2.242-8.58-4.92l-8.423-9.814c-.99-1.154-2.035-1.754-3.528-2.035l-12.71-2.387c-6.028-1.133-10.525-5.63-11.657-11.657l-2.387-12.71c-.278-1.483-.894-2.549-2.035-3.528l-9.814-8.423c-4.641-3.982-6.3-10.143-4.273-15.913l4.288-12.201c.485-1.38.485-2.723 0-4.103l-4.288-12.201c-2.027-5.77-.368-11.93 4.272-15.913l9.814-8.423c1.173-1.374 1.685-1.661 2.035-3.528l2.387-12.711c1.132-6.027 5.63-10.525 11.657-11.657l12.711-2.387c1.477-.277 2.548-.893 3.528-2.035l8.423-9.814c2.299-2.679 5.324-4.364 8.58-4.92.839.141 1.677.356 2.507.648l12.202 4.288c1.379.484 2.724.484 4.103 0l.362-.127.362.127c1.379.485 2.724.486 4.103.001z" fill="#fd4755"/><circle cx="256" cy="111.786" fill="#ffd266" r="54.049"/><path d="m256 53.503c16.094 0 30.665 6.524 41.212 17.071s17.071 25.118 17.071 41.212-6.524 30.665-17.071 41.212c-10.548 10.548-25.119 17.072-41.212 17.072s-30.665-6.524-41.212-17.071-17.071-25.118-17.071-41.212 6.524-30.665 17.071-41.212c10.547-10.548 25.118-17.072 41.212-17.072zm35.225 23.058c-9.014-9.015-21.469-14.59-35.226-14.59s-26.211 5.576-35.226 14.59c-9.014 9.014-14.59 21.469-14.59 35.226s5.576 26.211 14.59 35.226c9.014 9.014 21.469 14.59 35.226 14.59s26.211-5.576 35.226-14.59c9.014-9.014 14.59-21.469 14.59-35.226s-5.575-26.212-14.59-35.226z" fill="#e6bd5c"/><path d="m276.954 92.828c1.653-1.653 4.333-1.653 5.987 0 1.653 1.653 1.653 4.334 0 5.987l-31.931 31.931c-1.653 1.653-4.333 1.653-5.986 0l-15.965-15.965c-1.653-1.653-1.653-4.333 0-5.986s4.334-1.653 5.986 0l12.972 12.972z" fill="#eceff1"/></g></svg>