<svg id="_x33_0" enable-background="new 0 0 62 62" height="512" viewBox="0 0 62 62" width="512" xmlns="http://www.w3.org/2000/svg"><g><g><g><circle cx="45" cy="29" fill="#ccd1d9" r="16"/></g><g><circle cx="45" cy="29" fill="#69d6f4" r="12"/></g><g><path d="m29 3c5.1 0 9.64 2.39 12.56 6.1-4.65.68-8.26 4.53-8.54 9.3-.17.2-.34.4-.51.6h-5.51v-16z" fill="#fcd770"/></g><g><path d="m23 3v16h-6c0-5.04-3.73-9.21-8.57-9.9 2.93-3.72 7.47-6.1 12.57-6.1z" fill="#fcd770"/></g><g><path d="m42.04 9.73.2 3.51c-3.64.64-6.87 2.5-9.22 5.16.28-4.77 3.89-8.62 8.54-9.3.17.21.33.42.48.63z" fill="#ffc729"/></g><g><path d="m17 19h-12c0-3.74 1.28-7.18 3.43-9.9 4.84.69 8.57 4.86 8.57 9.9z" fill="#ffc729"/></g><g><path d="m27 3v16h-4v-16-1c0-.55.45-1 1-1h2c.55 0 1 .45 1 1z" fill="#ffc729"/></g><g><path d="m27 19h5.51c-.96 1.2-1.76 2.55-2.34 4h-.01-21.16-2-5c-.55 0-1-.45-1-1v-2c0-.55.45-1 1-1h3 12 6z" fill="#ffc729"/></g><g><path d="m35 51.01v5.99h-8v-4.54c.3-.17.58-.39.83-.63.72-.73 1.17-1.73 1.17-2.83 2.25 0 4.33.75 6 2z" fill="#ff826e"/></g><g><path d="m23 52.46v4.54h-8v-5.99-.01c1.67-1.25 3.75-2 6-2 0 1.48.8 2.77 2 3.46z" fill="#ff826e"/></g><g><path d="m27 57h8v4h-8z" fill="#fc6e51"/></g><g><path d="m15 57h8v4h-8z" fill="#fc6e51"/></g><g><path d="m39 59v2h-4v-4-5.99c2.43 1.82 4 4.72 4 7.99z" fill="#fcd770"/></g><g><path d="m27 57v4h-4v-4-4.54c.59.34 1.27.54 2 .54s1.41-.2 2-.54z" fill="#fcd770"/></g><g><path d="m15 57v4h-4v-2c0-3.27 1.57-6.17 4-7.99z" fill="#fcd770"/></g><g><path d="m27 49c.68 0 1.35-.05 2-.15v.01.14c0 1.1-.45 2.1-1.17 2.83-.25.24-.53.46-.83.63-.59.34-1.27.54-2 .54s-1.41-.2-2-.54c-1.2-.69-2-1.98-2-3.46v-.14c.65.09 1.32.14 2 .14z" fill="#f0d0b4"/></g><g><path d="m29 29c0 6.39 3.74 11.9 9.15 14.46-2.17 2.87-5.42 4.86-9.15 5.39-.65.1-1.32.15-2 .15h-4c-.68 0-1.35-.05-2-.14-6.78-.97-12-6.81-12-13.86v-4-3-5h21.16.01c-.76 1.85-1.17 3.88-1.17 6z" fill="#f0d0b4"/></g><g><path d="m7 23h2v5 3h-2c-1.1 0-2.1-.45-2.83-1.17-.72-.73-1.17-1.73-1.17-2.83 0-2.21 1.79-4 4-4z" fill="#f0d0b4"/></g><g><circle cx="18" cy="30" fill="#d3a06c" r="3"/></g><g><path d="m47 44.88v15.12c0 .55-.45 1-1 1h-2c-.55 0-1-.45-1-1v-15.12c.66.08 1.32.12 2 .12s1.34-.04 2-.12z" fill="#969faa"/></g><g><circle cx="45" cy="33" fill="#ff826e" r="2"/></g><g><path d="m48 9-.24 4.24-.22 4.03-.54 9.73h-4l-.54-9.73-.22-4.03-.2-3.51-.04-.73z" fill="#ff826e"/></g></g><g><path d="m45 36c1.654 0 3-1.346 3-3s-1.346-3-3-3-3 1.346-3 3 1.346 3 3 3zm0-4c.552 0 1 .449 1 1s-.448 1-1 1-1-.449-1-1 .448-1 1-1z"/><path d="m62 29c0-7.983-5.499-14.799-13.19-16.555l.247-4.445h-7.105c-3.216-3.778-7.954-6-12.952-6h-1c0-1.103-.897-2-2-2h-2c-1.103 0-2 .897-2 2h-1c-9.036 0-16.427 7.092-16.949 16h-2.051c-1.103 0-2 .897-2 2v2c0 1.103.897 2 2 2h1.026c-.635.838-1.026 1.87-1.026 3 0 2.757 2.243 5 5 5h1v3c0 6.149 3.722 11.44 9.03 13.753-4.107 1.597-7.03 5.583-7.03 10.247v3h30v-3c0-4.667-2.926-8.654-7.037-10.249 2.088-.904 3.952-2.282 5.466-4.074 1.132.476 2.33.82 3.57 1.042v14.281c0 1.103.897 2 2 2h2c1.103 0 2-.897 2-2v-14.281c7.947-1.423 14.001-8.37 14.001-16.719zm-26-14.422c-.438.273-.861.565-1.271.875.326-.758.758-1.46 1.271-2.095zm2-3.054c.916-.615 1.951-1.067 3.066-1.311l.124 2.232c-1.112.254-2.18.607-3.19 1.062zm4.054 16.476h5.893l.524-9.433c4.423 1.475 7.529 5.684 7.529 10.433 0 6.065-4.935 11-11 11s-11-4.935-11-11c0-4.749 3.106-8.958 7.53-10.433zm4.889-18-.89 16h-2.107l-.89-16zm-17.943-6c4.047 0 7.89 1.665 10.691 4.513-4.155 1.313-7.215 5.028-7.632 9.449-.011.013-.024.025-.035.038h-4.024v-14zm-3-2v16h-2v-16zm-5 2h1v14h-4.046c-.407-4.414-3.478-8.168-7.659-9.488 2.724-2.78 6.514-4.512 10.705-4.512zm-9 7.525v6.475h-2v-7.482c.713.254 1.384.592 2 1.007zm2 1.849c1.05 1.306 1.742 2.9 1.937 4.626h-1.937zm-6-1.825v6.451h-1.949c.155-2.337.841-4.527 1.949-6.451zm-6 8.451h28.58c-.399.641-.76 1.307-1.072 2h-27.508zm5 10c-1.654 0-3-1.346-3-3s1.346-3 3-3h1v2.132l-1.445-.964-1.109 1.664 2.554 1.703v1.465zm15 22.974v3.026h-6v-4.478c1.2-.805 2.602-1.328 4.114-1.477.255 1.193.945 2.217 1.886 2.929zm-6 5.026h6v2h-6zm8-4.101c.323.066.658.101 1 .101s.677-.035 1-.101v6.101h-2zm4 4.101h6v2h-6zm6-2h-6v-3.026c.941-.712 1.631-1.736 1.886-2.93 1.512.148 2.914.672 4.114 1.477zm-9-4c-1.317 0-2.427-.859-2.829-2.042.276.015.549.042.829.042h4c.28 0 .553-.032.831-.047-.401 1.185-1.512 2.047-2.831 2.047zm-13 7c0-2.137.752-4.099 2-5.644v6.644h-2zm26 0v1h-2v-6.644c1.248 1.545 2 3.507 2 5.644zm-11-11h-4c-7.168 0-13-5.832-13-13v-11h18.76c-.486 1.587-.76 3.263-.76 5 0 6.314 3.468 11.824 8.591 14.755-2.461 2.704-5.889 4.245-9.591 4.245zm19 12h-2v-14.051c.333.02.662.051 1 .051s.667-.031 1-.051zm-1-16c-8.271 0-15-6.729-15-15 0-6.929 4.691-12.866 11.302-14.533l.113 2.043c-5.502 1.58-9.415 6.696-9.415 12.49 0 7.168 5.832 13 13 13s13-5.832 13-13c0-5.794-3.913-10.91-9.416-12.49l.113-2.043c6.612 1.667 11.303 7.604 11.303 14.533 0 8.271-6.729 15-15 15z"/><path d="m22 30c0-2.206-1.794-4-4-4s-4 1.794-4 4 1.794 4 4 4 4-1.794 4-4zm-4 2c-1.103 0-2-.897-2-2s.897-2 2-2 2 .897 2 2-.897 2-2 2z"/><path d="m24 30h2v6h-2z"/><path d="m28.832 39.949c-.856 1.284-2.289 2.051-3.832 2.051s-2.976-.767-3.832-2.051l-.336-.504-1.664 1.109.336.504c1.228 1.842 3.283 2.942 5.496 2.942s4.268-1.1 5.496-2.941l.336-.504-1.664-1.109z"/><path d="m0 56h8v2h-8z"/><path d="m0 52h10v2h-10z"/><path d="m0 48h10v2h-10z"/><path d="m0 44h8v2h-8z"/></g></g></svg>