<svg id="Layer_6" enable-background="new 0 0 64 64" height="512" viewBox="0 0 64 64" width="512" xmlns="http://www.w3.org/2000/svg"><g><g><g><path d="m23.98 27.99v4h-.01-14-1.99c-1.11 0-2-.9-2-2 0-1.11.89-2 2-2z" fill="#fc6e51"/></g><g><path d="m23.98 37.99h12 12 12 2v4h-38-.01v-10h.01z" fill="#fc6e51"/></g><g><path d="m23.98 41.99h38v12h-6.35c-.33-.96-.91-1.81-1.65-2.47-1.06-.95-2.46-1.53-4-1.53s-2.94.58-4 1.53c-.75.66-1.32 1.51-1.66 2.47h-20.35v-12z" fill="#fc6e51"/></g><g><path d="m61.98 53.99v2c0 1.1-.9 2-2 2h-4.35c.23-.62.35-1.3.35-2s-.12-1.37-.35-2z" fill="#ccd1d9"/></g><g><path d="m43.98 55.99c0 .7.12 1.38.35 2h-.01-24.69c.23-.62.35-1.3.35-2 0-.66-.11-1.3-.31-1.89l.3-.11h4 20.35c-.22.63-.34 1.3-.34 2z" fill="#ccd1d9"/></g><g><path d="m7.98 55.99c0 .7.12 1.38.35 2h-.01-4.35c-1.1 0-2-.9-2-2v-2h6.35c-.22.63-.34 1.3-.34 2z" fill="#ccd1d9"/></g><g><path d="m5.97 35.99c0-2.21 1.8-4 4-4h14v10 12h-4l-.3.11c-.78-2.39-3.04-4.11-5.69-4.11-2.62 0-4.84 1.67-5.66 4h-6.35v-4h.01 2c1.1 0 2-.9 2-2 0-1.11-.9-2-2-2h-1.88c.41-1.93 1.89-3.51 3.87-4h.01 9c.55 0 1-.45 1-1v-4c0-.56-.45-1-1-1h-9z" fill="#ff826e"/></g><g><path d="m15.98 36.99v4c0 .55-.45 1-1 1h-9-.01v-6h.01 9c.55 0 1 .44 1 1z" fill="#69d6f4"/></g><g><path d="m1.98 49.99h-.01v-2.88c0-.38.04-.76.13-1.12h1.88c1.1 0 2 .89 2 2 0 1.1-.9 2-2 2z" fill="#fcd770"/></g><g><path d="m49.98 49.99c1.54 0 2.94.58 4 1.53.74.66 1.32 1.51 1.65 2.47.23.63.35 1.3.35 2s-.12 1.38-.35 2c-.82 2.33-3.04 4-5.65 4s-4.83-1.67-5.65-4c-.23-.62-.35-1.3-.35-2s.12-1.37.34-2c.34-.96.91-1.81 1.66-2.47 1.06-.95 2.46-1.53 4-1.53z" fill="#969faa"/></g><g><path d="m8.32 53.99c.82-2.33 3.04-4 5.66-4 2.65 0 4.91 1.72 5.69 4.11.2.59.31 1.23.31 1.89 0 .7-.12 1.38-.35 2-.82 2.33-3.04 4-5.65 4s-4.83-1.67-5.65-4c-.23-.62-.35-1.3-.35-2s.12-1.37.34-2z" fill="#969faa"/></g><g><circle cx="49.98" cy="55.99" fill="#ccd1d9" r="2"/></g><g><circle cx="13.98" cy="55.99" fill="#ccd1d9" r="2"/></g><g><path d="m24 26h36v12h-36z" fill="#d3a06c"/></g><g><path d="m30 14h24v12h-24z" fill="#d3a06c"/></g><g><path d="m36 2h12v12h-12z" fill="#d3a06c"/></g><g><path d="m55.98 25.99v4h-4v-4h2z" fill="#b27946"/></g><g><path d="m43.98 25.99v4h-4v-4h2z" fill="#b27946"/></g><g><path d="m49.98 13.99v4h-4v-4h2z" fill="#b27946"/></g><g><path d="m39.98 1.99h4v4h-4z" fill="#b27946"/></g><g><path d="m37.98 13.99v4h-4v-4h2z" fill="#b27946"/></g><g><path d="m31.98 25.99v4h-4v-4h2z" fill="#b27946"/></g></g><g><path d="m13.975 52.986c-1.654 0-3 1.346-3 3s1.346 3 3 3 3-1.346 3-3-1.346-3-3-3zm0 4c-.551 0-1-.449-1-1s.449-1 1-1 1 .449 1 1-.449 1-1 1z"/><path d="m49.975 52.986c-1.654 0-3 1.346-3 3s1.346 3 3 3 3-1.346 3-3-1.346-3-3-3zm0 4c-.551 0-1-.449-1-1s.449-1 1-1 1 .449 1 1-.449 1-1 1z"/><path d="m60.975 36.986v-12h-6v-12h-6v-12h-14v12h-6v12h-6v2h-15c-1.654 0-3 1.346-3 3 0 1.069.566 2.003 1.41 2.534-.869.9-1.41 2.119-1.41 3.466v5.271c-2.39.928-4 3.233-4 5.853v8.877c0 1.654 1.346 3 3 3h3.685c1.126 2.361 3.53 4 6.315 4s5.189-1.639 6.315-4h23.37c1.126 2.361 3.53 4 6.315 4s5.189-1.639 6.315-4h3.685c1.654 0 3-1.346 3-3v-19h-2zm-6 14.11v-6.11h-2v4.685c-.622-.297-1.294-.503-2-.605v-4.08h-2v4.08c-.706.102-1.378.308-2 .605v-4.685h-2v6.11c-.537.549-.98 1.188-1.315 1.89h-18.685v-10h36v10h-4.685c-.334-.701-.778-1.34-1.315-1.89zm-30-10.11v-2h36v2zm16-14h2v2h-2zm4 4v-4h2v10h-10v-10h2v4zm14 6h-10v-10h2v4h6v-4h2zm-6-10h2v2h-2zm0-2h-4-2-4v-10h2v4h6v-4h2zm-6-10h2v2h-2zm-6-12h2v2h-2zm-4 0h2v4h6v-4h2v10h-4-2-4zm-2 12h2v2h-2zm-4 0h2v4h6v-4h2v10h-4-2-4zm-2 12h2v2h-2zm-4 0h2v4h6v-4h2v10h-10v-6zm-17 2h15v2h-13-2c-.551 0-1-.449-1-1s.449-1 1-1zm7 8v4h-8v-4zm-8.845 6h8.845c1.103 0 2-.897 2-2v-4c0-1.103-.897-2-2-2h-7.816c.414-1.161 1.514-2 2.816-2h13v5 15h-2.685c-1.126-2.361-3.53-4-6.315-4s-5.189 1.639-6.315 4h-4.685v-2h1c1.654 0 3-1.346 3-3s-1.346-3-3-3h-.431c.549-.961 1.463-1.694 2.586-2zm-3.145 4h.99c.551 0 1 .449 1 1s-.449 1-1 1h-1v-1.877c0-.042.009-.082.01-.123zm.99 10c-.551 0-1-.449-1-1v-1h4.08c-.047.328-.08.66-.08 1s.033.672.08 1zm10 4c-2.757 0-5-2.243-5-5s2.243-5 5-5 5 2.243 5 5-2.243 5-5 5zm6.92-4c.047-.328.08-.66.08-1s-.033-.672-.08-1h22.16c-.047.328-.08.66-.08 1s.033.672.08 1zm29.08 4c-2.757 0-5-2.243-5-5s2.243-5 5-5 5 2.243 5 5-2.243 5-5 5zm10-4h-3.08c.047-.328.08-.66.08-1s-.033-.672-.08-1h4.08v1c0 .551-.449 1-1 1z"/><path d="m32.975 44.986h2v6h-2z"/><path d="m28.975 44.986h2v6h-2z"/><path d="m36.975 44.986h2v6h-2z"/><path d="m40.975 44.986h2v6h-2z"/><path d="m56.975 44.986h2v6h-2z"/></g></g></svg>