<svg id="Layer_1" enable-background="new 0 0 52 52" height="512" viewBox="0 0 52 52" width="512" xmlns="http://www.w3.org/2000/svg"><g id="Container_Loading"><g><g><g><g><path d="m28.0093422 24.6097012v.0100097l6.1800537 3.5599976.0199585 10.4500141-1.1900024.6900024-3.7699585 2.1799927-1.1900025.6900025-24.2600093-14.1000386-.0499878-17.5799551 14.7499996-8.5100099 24.25 14.0999748-.8400269.4899902-13.039978 7.5200196h-.0100098z" fill="#5094ff"/></g></g><g fill="#5094ff"><path d="m41.9493446 34.1596909-6.8799438 3.9799804-.8600464.4900513-.0199585-10.4500141-6.1800537-3.5599976v-.0100097l.8500366-.5h.0100098l13.039978-7.5200196z"/><path d="m42.7493935 16.0996914v.0100098l-.8400269.4799804z"/></g><g><g><path d="m29.869503 25.2919464.0429077 15.1498299 13.0555268-7.5375252v-.0003662z" fill="#1d2943"/></g><g><path d="m42.923687 17.2778702-13.0555248 7.5375213.0013408.4765549 13.0984345 7.6119385z" fill="#4c5c75"/></g></g><g><g><path d="m42.9660339 32.9050255-13.0543232 7.5332146-.0239029-9.3416634-.0119876-.2634468v-.7904835l-.0119877-3.5689487v-1.1856537l.2635193.1556988.1437111.0838432.5388793.3113994 1.5689068.9101468 2.7785378 1.6168594z" fill="#1d2943"/></g><g><path d="m42.9660339 32.9050255-7.8086471-4.5390339-2.7785378-1.6168594-1.5689068-.9101468-.5388793-.3113994-.1437111-.0838432-.2635193-.1556988v-.4670983l2.3952808-1.377243 10.6590424-6.1678829z" fill="#4c5c75"/></g></g><path d="m35.1691933 25.1205044.0001831-.0001221-.0001831-.0001221v-.0011597l-.0010376.0006104-1.567688-.9095459-.5389404-.3113403-.1437378-.0838623-.5508423-.3114014-.1078491-.0598755-2.3952637 1.3772583v.1437378.6227417.1677246.6227417l-.0718384.0479126.0718384.0479126.0119629 3.5689087c-.0119629-.0119019-.0239258-.0238647-.0359497-.0358887v-.0239868c0-.0358887-.0119019-.0478516-.0358887-.0718384-.0239868-.0119629-.0479736 0-.0479736.0239868v.0358887c-.0598145-.0358887-.1317139-.0358887-.1795654-.0119019-.0598755.0238647-.0958252.0957642-.0958252.2035522l.2874146.1677246v.3233032c0 .0598755.0479126.1436768.1077881.1796875l.0120239.2634277 1.4610596.8503418v-.0023193l3.8060913-2.2119141zm-3.8082886 2.2155151.0011597-.0006714-.0076294 2.4838257z" fill="#f9a83d"/><g><g enable-background="new"><g><g><path d="m35.1691742 25.1191101-3.8071022 2.2124443-.0141888 4.6135807 3.8071003-2.2124443z" fill="#f9a83d"/></g><g><path d="m35.1693764 25.1203556-2.7905274 1.6287766-1.0179653.5869045-1.4970512-.862339-.0718556-.0478802.0718556-.0479527v-1.5569191l2.3952808-1.377243.1078224.0598679.550869.3113975.1437111.0838432.5389519.3113251z" fill="#ffd06c"/></g><g><path d="m31.3608837 27.3360367-.0119877 4.6108913-1.4610882-.8503513-.0119877-.2634468c-.0598679-.035965-.1078205-.1198082-.1078205-.1796761v-.3233128l-.2874222-.1676865c0-.1078205.035965-.1796761.0958328-.2035789.0478783-.0239773.1197338-.0239773.1796017.0119152v-.0358925c0-.0239754.0239754-.0359631.0479527-.0239754.0239754.0239754.0358906.035965.0358906.0718555v.0239754c.0119877.0119896.0239773.0239773.035965.0358925l-.0119877-3.5689487z" fill="#febc1f"/></g><g><path d="m33.6004677 24.2101364c-.1000671.0580521-3.9828587 2.3105698-3.7366352 2.1677284v-1.413208l2.5031033-1.4610863.550869.3113976.1437111.0838432z" fill="#f3f1fc"/></g><g><path d="m33.0615158 23.8988113c-.1012535.0587807-3.404232 1.9762363-3.1976833 1.8563309v-.1676884c.1012592-.0587692 3.2498226-1.8861561 3.0539722-1.7724857z" fill="#e9e7fc"/></g><g><g><g><g><path d="m30.324564 30.9577827-.0003605.1270199.7522411.4343071.0003605-.1270199z" fill="#4c5c75"/></g></g><g><g><path d="m30.9063911 30.5365105-.1651802.1559944.1132412.0653801-.001213.4275455.1051521.0607109.0012131-.4275474.1105442.0638237z" fill="#4c5c75"/></g></g><g><g><path d="m30.4992638 30.3014545-.1651802.1559964.1105442.0638218-.0012112.4275474.1051521.060709.0012112-.4275455.1132412.0653782z" fill="#4c5c75"/></g></g></g><g><g><g><path d="m29.9476757 30.7253094c.0239754.0119896.0239754.035965.0239754.0479527 0 .0598679-.0359631.0957603-.0958309.0598679-.0598679-.035965-.1078205-.1198082-.1078205-.1796761v-.3233128l-.2874222-.1676865c0-.1078205.035965-.1796761.0958328-.2035789.0478783-.0239773.1197338-.0239773.1796017.0119152v-.0358925c0-.0239754.0239754-.0359631.0479527-.0239754.0239754.0239754.0358906.035965.0358906.0718555v.0239754c.0119877.0119896.0239773.0239773.035965.0358925.1317234.1078186.239542.3113976.239542.4790859l-.239542-.1437111-.0598679-.035965v.3353748c0 .0358906.0239029.0838432.0598679.0958309.0358906.0239029.0598679.0119896.0598679-.0239754-.0000002-.0239771.0119875-.0239771.0119875-.0239771z" fill="#4c5c75"/></g></g></g></g></g></g></g><g><g enable-background="new"><g><g><path d="m48.9893837 37.2296982-.8500366.5-6.1900025-3.5700073-.039978-17.5700093.8400269-.4799804v-.0100098h.0099487l6.1900024 3.5700073z" fill="#5094ff"/></g></g></g></g><path d="m39.1500282 27.4175014.0001831-.000122-.6135864-.3542481-.0725098-.0418701-.5410766-.3123779-.0001831.0001221-1.5562134-.8984986-3.8070679 2.2124024-.0142212 4.6135883 4.354187 2.513855 3.8070679-2.2124024.0142212-4.6135883z" fill="#f9a83d"/><g><g><path d="m40.7208023 28.3243446-3.8071022 2.2124443-.0141907 4.6135788 3.8071022-2.2124443z" fill="#f9a83d"/></g><g><path d="m32.5595703 28.0229321 4.3541298 2.5138568 3.8071022-2.2124443-4.3541298-2.5138588z" fill="#ffd06c"/></g><g><path d="m32.5595703 28.0229321-.0141868 4.6135807 4.3541259 2.5138549.0141907-4.6135788z" fill="#febc1f"/></g><g><path d="m39.1501884 27.4173775-1.2271194-.7084751-3.8070717 2.2124614 1.2271156.7084751z" fill="#f3f1fc"/></g><g><path d="m35.3431129 29.6298389v1.5313302l-.6135597-.9721642-.6135559.2541771v-1.5218182" fill="#dedffb"/></g><g><path d="m38.6091347 27.1050014-.1450119-.0837211-3.8070717 2.2124596.1450081.0837211z" fill="#e9e7fc"/></g><g><g><g><g><path d="m35.8761902 34.1630173-.0003586.1270179.7522392.4343071.0003624-.1270179z" fill="#4c5c75"/></g></g><g><g><path d="m36.4580193 33.741745-.1651802.1559944.1132392.0653801-.001213.4275436.1051521.060711.0012131-.4275475.1105461.0638237z" fill="#4c5c75"/></g></g><g><g><path d="m36.0508919 33.5066872-.1651802.1559982.1105423.0638199-.0012093.4275474.1051521.0607109.0012093-.4275474.1132431.0653801z" fill="#4c5c75"/></g></g></g><g><g><g><path d="m35.3247795 33.5300179-.0071945.3305016c0 .0574989.0503044.1437187.1077995.1724434.0574951.035965.100605.0071945.100605-.0574493 0-.0143852-.0071907-.0287704-.0215759-.0431137-.0071907 0-.021534 0-.021534.021534 0 .0359192-.0215759.0503044-.0574951.0287704-.0359192-.0143852-.0574951-.0646858-.0574951-.100605v-.3305473l.2946281.1724434c0-.1796341-.1221848-.4023819-.2730522-.5101357v-.0287704c0-.0287247-.0143852-.0503044-.0359154-.0646439-.0215797-.0143852-.0431137 0-.0431137.021534v.0287666c-.0646858-.0359612-.1365242-.0359612-.1796341-.0071907-.0574951.0287247-.0934143.100605-.0934143.2011681z" fill="#4c5c75"/></g></g></g></g></g><g><g><g><path d="m35.0393715 27.6797085-.8499756.5-6.1800537-3.5599976v-.0100097l.8500366-.5h.0100098z" fill="#5094ff"/></g></g><g><g><path d="m35.0893593 45.2497177-.8599854.4899902-.0200195-7.1099853-.0199585-10.4500141.8499756-.5.0300293 10.4599628z" fill="#5094ff"/></g></g><g><g><path d="m34.2293739 45.7397079-6.1699829-3.5499877 1.1900025-.6900025 3.7699585-2.1799927 1.1900024-.6900024z" fill="#5094ff"/></g></g></g><g><g><path d="m28.055191 42.1879311-24.2540299-14.0949021-.0498357-17.5787315 24.2540304 14.094902z" fill="#497bfe"/></g></g><g><g><g><path d="m6.4437022 15.1392384-.0325513 11.4820041-.961832-.555315.0325518-11.4820032z" fill="#57b3fe"/></g></g><g><g><path d="m6.4437022 15.1392384-.0325513 11.4820041-.961832-.555315.0325518-11.4820032z" fill="#57b3fe"/></g></g><g><g><path d="m9.2900152 16.7825584-.0325517 11.4820023-.965396-.5573711.0325518-11.4820042z" fill="#57b3fe"/></g></g><g><g><path d="m12.1327639 18.4238205-.0325518 11.4820023-.961832-.5553132.0325517-11.4820041z" fill="#57b3fe"/></g></g><g><g><path d="m14.9790754 20.0671387-.0325517 11.4820022-.965395-.5573692.0325518-11.4820042z" fill="#57b3fe"/></g></g><g><g><path d="m17.825388 21.7104568-.0325528 11.4820061-.9653949-.557373.0325508-11.4820042z" fill="#57b3fe"/></g></g><g><g><path d="m20.6681366 23.3517189-.0325508 11.4820061-.961834-.5553169.0325528-11.4820023z" fill="#57b3fe"/></g></g><g><g><path d="m23.5144501 24.995039-.0325527 11.4820042-.965395-.5573731.0325508-11.4820023z" fill="#57b3fe"/></g></g><g><g><path d="m26.3571987 26.636301-.0325527 11.4820042-.9618321-.5553169.0325509-11.4820023z" fill="#57b3fe"/></g></g></g><g><g enable-background="new"><g><g><path d="m48.0926361 20.163353.8535614-.4960366.0444603 17.5656052-.8535614.4960365z" fill="#5094ff"/></g></g><g><g><path d="m41.9055252 16.5912228.8535614-.4960366 6.1871109 3.5721302-.8535614.4960366z" fill="#57b3fe"/></g></g><g><g><path d="m48.0926361 20.163353.0444603 17.5656051-6.1871109-3.5721283-.0444603-17.565607z" fill="#497bfe"/></g><g><path d="m43.1461487 33.464447-.037426-14.7956676 3.7882423 2.1870994.037426 14.7956677z" fill="#57b3fe"/></g></g></g></g><g><path d="m28.0053558 24.6091995-24.2540304-14.094902 14.7467043-8.514014 24.2540302 14.0949027z" fill="#57b3fe"/></g><g><path d="m6.2861357 10.5180273 12.2097749-7.0495093 21.7213402 12.6229432-12.2097759 7.049509z" fill="#5094ff"/></g><g><g><g><path d="m28.0008736 24.6055164.8535633-.4960365 6.187109 3.5721302-.8535614.4960365z" fill="#57b3fe"/></g></g><g><g><path d="m34.1879845 28.1776466.8535614-.4960365.0444603 17.5656052-.8535614.4960365z" fill="#497bfe"/></g></g><g><g><path d="m34.1879845 28.1776466.0444603 17.5656052-6.1772538-3.5553207-.0543174-17.5824147z" fill="#5094ff"/></g><g><path d="m29.2510338 41.4953308-.0472851-14.8124771 3.7882443 2.1870995.0374259 14.7956695z" fill="#497bfe"/></g></g></g></g><g><g><g><path d="m14.5793505 35.4397202-.0199585 6.5299682-5.3900147 3.1300049-6.1600346-3.5599976.0200195-6.5299682 5.3900151-3.1300068 2.9699707 1.7199726.1000367.0599976.8699951.5z" fill="#febc1f"/></g></g><g><g><path d="m14.5777912 35.4404488-5.3856888 3.1298179-.0200729 6.5265732 5.3856888-3.1298218z" fill="#f9a83d"/></g><g><path d="m3.0325637 35.0140572 6.1595387 3.5562095 5.3856888-3.1298179-6.1595383-3.5562115z" fill="#ffd06c"/></g><g><path d="m3.0325637 35.0140572-.020073 6.5265693 6.1595388 3.5562134.0200729-6.5265732z" fill="#febc1f"/></g><g><path d="m12.3559322 34.1574135-1.7359333-1.0022392-5.3856496 3.1298446 1.7359337 1.0022392z" fill="#f3f1fc"/></g><g><path d="m6.970283 37.2872581v2.1662865l-.8679671-1.375267-.8679666.3595695v-2.1528282z" fill="#dedffb"/></g><g><path d="m11.5905342 33.7155113-.2051363-.1184349-5.3856501 3.1298447.2051367.1184349z" fill="#e9e7fc"/></g></g><g><g><path d="m23.019352 40.3396835-.0199585 6.5300293-5.3900147 3.1300049-6.1600332-3.5599975.0200195-6.5200196 5.3900137-3.1300049 2.2000122 1.2700196.7600098.4400024.2099609.1199951.7600098.4400025z" fill="#bf7d5a"/></g></g><g><g><path d="m23.0154762 40.3438911-5.3856907 3.1298218-.0200729 6.5265694 5.3856907-3.129818z" fill="#bf7d5a"/></g><g><path d="m11.4702482 39.9175034 6.1595373 3.5562095 5.3856907-3.1298218-6.1595382-3.5562095z" fill="#dba660"/></g><g><path d="m11.4702482 39.9175034-.0200729 6.5265693 6.1595373 3.5562096.0200729-6.5265694z" fill="#aa6256"/></g><g><path d="m20.7936172 39.0608597-1.7359333-1.0022392-5.3856506 3.1298446 1.7359333 1.0022354z" fill="#f3f1fc"/></g><g><path d="m15.4079666 42.1907005v2.1662865l-.8679666-1.3752632-.8679667.3595695v-2.1528282z" fill="#dedffb"/></g><g><path d="m20.0282192 38.6189575-.2051372-.1184349-5.3856507 3.1298409.2051373.1184349z" fill="#e9e7fc"/></g></g></g></g></g></svg>