<svg height="470pt" viewBox="-25 0 470 470" width="470pt" xmlns="http://www.w3.org/2000/svg"><path d="m375 366.160156v69.511719l-163.949219 29.328125v-164.5l53.949219 94.5zm0 0" fill="#d6a550"/><path d="m219.300781 456.75v-141.800781l-8.25-14.449219v164.5l163.949219-29.328125v-6.777344zm0 0" fill="#c18e44"/><path d="m211.050781 300.5v164.5l-166.050781-29.328125v-69.511719l110 28.839844zm0 0" fill="#eabf6a"/><path d="m50 377.660156 110 28.839844 51.050781-86.066406v-19.933594l-56.050781 94.5-110-28.839844v69.511719l5 .882813zm0 0" fill="#dbaf61"/><path d="m375.550781 266.777344 39.449219 88.894531-40 10.488281-110 28.839844-53.949219-94.5zm0 0" fill="#fcd884"/><path d="m225.050781 307.25 154.414063-31.652344-3.914063-8.820312-164.5 33.722656 53.949219 94.5 8.824219-2.3125zm0 0" fill="#e5bf73"/><path d="m211.050781 300.5-56.050781 94.5-110-28.839844-40-10.488281 41.449219-88.894531zm0 0" fill="#fcd884"/><path d="m51.453125 277.027344 154.71875 31.699218 4.878906-8.226562-164.601562-33.722656-41.449219 88.894531 8.714844 2.28125zm0 0" fill="#e5bf73"/><path d="m375.550781 266.777344-164.5 33.722656-164.601562-33.722656 164.601562-33.617188zm0 0" fill="#e4a150"/><path d="m211.050781 242.160156 142.511719 29.125 21.988281-4.507812-164.5-33.617188-164.601562 33.617188 22 4.507812zm0 0" fill="#d1904a"/><path d="m415 175-39.449219 91.777344-164.5-33.617188 53.949219-88.160156zm0 0" fill="#fec35b"/><path d="m225.300781 227.667969 49.402344-80.726563-9.703125-1.941406-53.949219 88.160156 164.5 33.617188 3.320313-7.71875zm0 0" fill="#dda54a"/><path d="m155 145 56.050781 88.160156-164.601562 33.617188-41.449219-91.777344zm0 0" fill="#fec35b"/><path d="m53.949219 253.777344-36.683594-81.230469-12.265625 2.453125 41.449219 91.777344 164.601562-33.617188-6.453125-10.148437zm0 0" fill="#dda54a"/><path d="m46.449219 271.777344c-1.933594 0-3.734375-1.125-4.554688-2.9375l-41.453125-91.78125c-.625-1.390625-.585937-2.988282.109375-4.34375.699219-1.355469 1.972657-2.320313 3.46875-2.617188l150-30c2.023438-.40625 4.089844.476563 5.199219 2.21875l56.050781 88.160156c.882813 1.390626 1.023438 3.121094.382813 4.636719-.644532 1.515625-1.988282 2.617188-3.601563 2.945313l-164.601562 33.621094c-.332031.066406-.667969.097656-1 .097656zm-34.304688-93.105469 37.21875 82.410156 153.570313-31.367187-50.3125-79.140625zm0 0"/><path d="m375.550781 271.78125c-.332031 0-.667969-.035156-1-.105469l-164.5-33.617187c-1.597656-.328125-2.9375-1.410156-3.585937-2.90625-.648438-1.496094-.53125-3.214844.320312-4.601563l53.949219-88.160156c1.097656-1.789063 3.191406-2.703125 5.246094-2.292969l150 30c1.480469.292969 2.746093 1.242188 3.445312 2.578125.703125 1.332031.765625 2.914063.167969 4.296875l-39.449219 91.78125c-.800781 1.863282-2.628906 3.027344-4.59375 3.027344zm-156.515625-42.09375 153.527344 31.378906 35.40625-82.375-140.527344-28.105468zm0 0"/><path d="m211.050781 140c-2.761719 0-5-2.238281-5-5v-130c0-2.761719 2.238281-5 5-5s5 2.238281 5 5v130c0 2.761719-2.238281 5-5 5zm0 0"/><path d="m211.046875 139.511719c-1.042969 0-2.09375-.328125-2.992187-1l-26.050782-19.511719c-2.210937-1.652344-2.660156-4.789062-1.003906-6.996094 1.652344-2.214844 4.789062-2.660156 6.996094-1.007812l26.050781 19.511718c2.210937 1.652344 2.660156 4.789063 1.003906 7-.980469 1.308594-2.484375 2.003907-4.003906 2.003907zm0 0"/><path d="m211.054688 139.507812c-1.453126 0-2.890626-.628906-3.878907-1.839843-1.746093-2.140625-1.421875-5.289063.71875-7.035157l23.949219-19.511718c2.140625-1.742188 5.289062-1.421875 7.035156.722656 1.742188 2.140625 1.421875 5.289062-.71875 7.03125l-23.949218 19.511719c-.929688.753906-2.046876 1.121093-3.15625 1.121093zm0 0"/><path d="m211.054688 470c-.289063 0-.578126-.023438-.875-.074219l-166.046876-29.332031c-2.390624-.421875-4.132812-2.496094-4.132812-4.921875v-69.511719c0-2.761718 2.238281-5 5-5s5 2.238282 5 5v65.3125l161.921875 28.601563c2.71875.480469 4.535156 3.074219 4.054687 5.792969-.429687 2.429687-2.539062 4.132812-4.921874 4.132812zm0 0"/><path d="m211.050781 470c-1.164062 0-2.300781-.40625-3.210937-1.164062-1.132813-.953126-1.789063-2.355469-1.789063-3.835938v-164.5c0-2.761719 2.238281-5 5-5s5 2.238281 5 5v158.523438l153.949219-27.539063v-65.324219c0-2.761718 2.238281-5 5-5s5 2.238282 5 5v69.511719c0 2.421875-1.734375 4.492187-4.117188 4.921875l-163.953124 29.328125c-.292969.054687-.585938.078125-.878907.078125zm0 0"/><path d="m265 400c-1.765625 0-3.4375-.9375-4.34375-2.519531l-53.949219-94.5c-.792969-1.394531-.875-3.082031-.210937-4.542969.660156-1.457031 1.980468-2.511719 3.550781-2.835938l164.5-33.71875c2.292969-.46875 4.617187.722657 5.574219 2.871094l39.449218 88.886719c.59375 1.339844.570313 2.875-.066406 4.195313-.632812 1.320312-1.816406 2.300781-3.234375 2.671874l-150.003906 39.328126c-.417969.109374-.84375.164062-1.265625.164062zm-46.1875-95.988281 48.628906 85.179687 140.605469-36.867187-35.433594-79.835938zm0 0"/><path d="m155 400c-.421875 0-.847656-.054688-1.269531-.164062l-150-39.328126c-1.433594-.378906-2.625-1.371093-3.257813-2.710937-.628906-1.34375-.628906-2.898437-.003906-4.238281l41.449219-88.894532c.980469-2.097656 3.273437-3.242187 5.535156-2.78125l164.601563 33.71875c1.582031.324219 2.914062 1.394532 3.566406 2.875.652344 1.480469.554687 3.183594-.269532 4.574219l-56.050781 94.5c-.914062 1.542969-2.566406 2.449219-4.300781 2.449219zm-142.9375-47.644531 140.558594 36.851562 50.546875-85.21875-153.855469-31.515625zm0 0"/></svg>