<svg id="Layer_1" height="512" viewBox="0 0 64 64" width="512" xmlns="http://www.w3.org/2000/svg" data-name="Layer 1"><path d="m14 28.8h16v16h-16z" fill="#e6b155"/><path d="m61.2 13a9.255 9.255 0 0 0 -.1-1.319 1.115 1.115 0 0 1 .6-1.121l.7-.386a1.124 1.124 0 0 0 .438-1.574l-1.933-3.2a1.236 1.236 0 0 0 -1.646-.422l-.706.39a1.282 1.282 0 0 1 -1.374-.113 10.3 10.3 0 0 0 -2.255-1.255 1.184 1.184 0 0 1 -.786-1.078v-.77a1.179 1.179 0 0 0 -1.205-1.152h-3.866a1.179 1.179 0 0 0 -1.2 1.152v.773a1.184 1.184 0 0 1 -.791 1.075 10.3 10.3 0 0 0 -2.255 1.252 1.282 1.282 0 0 1 -1.374.113l-.706-.39a1.236 1.236 0 0 0 -1.641.425l-1.938 3.2a1.124 1.124 0 0 0 .441 1.574l.7.386a1.115 1.115 0 0 1 .594 1.121 9.2 9.2 0 0 0 0 2.638 1.115 1.115 0 0 1 -.597 1.121l-.7.386a1.124 1.124 0 0 0 -.441 1.574l1.941 3.2a1.236 1.236 0 0 0 1.646.422l.706-.39a1.282 1.282 0 0 1 1.374.113 10.3 10.3 0 0 0 2.25 1.255 1.184 1.184 0 0 1 .786 1.078v.773a1.179 1.179 0 0 0 1.205 1.149h3.866a1.179 1.179 0 0 0 1.2-1.152v-.773a1.184 1.184 0 0 1 .791-1.075 10.3 10.3 0 0 0 2.255-1.252 1.282 1.282 0 0 1 1.374-.113l.706.39a1.236 1.236 0 0 0 1.646-.422l1.933-3.2a1.124 1.124 0 0 0 -.441-1.574l-.7-.386a1.115 1.115 0 0 1 -.594-1.121 9.255 9.255 0 0 0 .097-1.322z" fill="#d98286"/><circle cx="51" cy="13" fill="#f1f9ff" r="4.5"/><path d="m1 49h62v14h-62z" fill="#8197bf"/><path d="m43 40h16v16h-16z" fill="#ffca5e"/><path d="m16.286 44.8h13.714v-13.714a13.714 13.714 0 0 1 -13.714 13.714z" fill="#cc9d4b"/><path d="m45.286 56h13.714v-13.714a13.714 13.714 0 0 1 -13.714 13.714z" fill="#e6b154"/><path d="m1 11h18v10h6v-16h-24z" fill="#63758c"/><path d="m37 56-5 7h-26l5-7-5-7h26z" fill="#d8e0e6"/><path d="m32 30-10-6-10 6v-4a6 6 0 0 1 6-6h8a6 6 0 0 1 6 6z" fill="#758ba6"/><path d="m23.143 33.371-1.143-1.142-1.143 1.142v-4.571h2.286z" fill="#ffe5b2"/><circle cx="22" cy="8" fill="#758ba6" r="5"/><ellipse cx="22" cy="56" fill="#bfc6cc" rx="8" ry="3"/><path d="m52.143 44.571-1.143-1.142-1.143 1.142v-4.571h2.286z" fill="#ffe5b2"/></svg>