<svg clip-rule="evenodd" fill-rule="evenodd" height="512" image-rendering="optimizeQuality" shape-rendering="geometricPrecision" text-rendering="geometricPrecision" viewBox="0 0 512 512" width="512" xmlns="http://www.w3.org/2000/svg" xmlns:xodm="http://www.corel.com/coreldraw/odm/2003"><g id="Layer_x0020_1"><g id="_1353738175248"><g><path d="m256 449.06c-.6 0-1.2-.15-1.75-.43l-170.62-88.89c-1.25-.65-2.04-1.94-2.04-3.36v-200.77c0-1.32.69-2.55 1.83-3.24 1.13-.68 2.54-.73 3.71-.12l170.62 88.89c1.25.65 2.04 1.95 2.04 3.36v200.77c0 1.32-.69 2.55-1.82 3.24-.61.36-1.29.55-1.97.55z" fill="#ff8d50"/><path d="m236.95 417.66c-.6 0-1.2-.14-1.75-.43l-132.52-69.04c-1.26-.65-2.04-1.95-2.04-3.36v-157.82c0-1.32.69-2.55 1.82-3.24 1.14-.69 2.54-.73 3.72-.12l132.52 69.04c1.26.65 2.04 1.95 2.04 3.36v157.82c0 1.32-.69 2.55-1.82 3.24-.6.36-1.29.55-1.97.55z" fill="#ff7241"/><path d="m256 449.06c-.68 0-1.36-.19-1.97-.55-1.13-.69-1.82-1.92-1.82-3.24v-200.77c0-1.41.79-2.71 2.04-3.36l170.62-88.89c1.17-.61 2.58-.56 3.71.12 1.13.69 1.82 1.92 1.82 3.24v200.77c0 1.42-.78 2.71-2.03 3.36l-170.62 88.89c-.55.28-1.15.43-1.75.43z" fill="#ff9d59"/><path d="m275.04 417.66c-.68 0-1.36-.19-1.96-.55-1.14-.69-1.83-1.92-1.83-3.24v-157.82c0-1.41.79-2.71 2.04-3.36l132.53-69.04c1.17-.61 2.58-.57 3.72.12 1.13.69 1.82 1.92 1.82 3.24v157.82c0 1.41-.79 2.71-2.04 3.36l-132.53 69.04c-.55.29-1.15.43-1.75.43z" fill="#ff7f48"/><path d="m256 248.29c-.6 0-1.2-.15-1.75-.43l-170.62-88.88c-1.25-.66-2.04-1.95-2.04-3.37 0-1.41.79-2.7 2.04-3.36l170.62-88.88c1.09-.57 2.4-.57 3.5 0l170.62 88.88c1.25.66 2.03 1.95 2.03 3.37 0 1.41-.78 2.7-2.03 3.36l-170.62 88.88c-.55.28-1.15.43-1.75.43z" fill="#ffae63"/><path d="m256 226.81c-.6 0-1.2-.14-1.75-.43l-129.4-67.4c-1.25-.66-2.04-1.95-2.04-3.37 0-1.41.79-2.7 2.04-3.36l129.4-67.4c1.09-.58 2.4-.58 3.5 0l129.39 67.4c1.25.66 2.04 1.95 2.04 3.36 0 1.42-.79 2.71-2.04 3.37l-129.39 67.4c-.55.29-1.15.43-1.75.43z" fill="#ff9448"/></g><path d="m460.36 488.68h-181.05c-2.76 0-5-2.24-5-5 0-2.77 2.24-5 5-5h181.05c2.76 0 5 2.23 5 5 0 2.76-2.24 5-5 5zm-227.67 0h-181.05c-2.77 0-5-2.24-5-5 0-2.77 2.23-5 5-5h181.05c2.76 0 5 2.23 5 5 0 2.76-2.24 5-5 5zm250.99-23.32c-2.76 0-5-2.24-5-5v-181.05c0-2.76 2.23-5 5-5 2.76 0 5 2.24 5 5v181.05c0 2.76-2.24 5-5 5zm-455.36 0c-2.76 0-5-2.24-5-5v-181.05c0-2.76 2.24-5 5-5s5 2.24 5 5v181.05c0 2.76-2.24 5-5 5zm455.36-227.67c-2.76 0-5-2.24-5-5v-181.05c0-2.76 2.23-5 5-5 2.76 0 5 2.24 5 5v181.04c0 2.77-2.24 5.01-5 5.01zm-455.36 0c-2.76 0-5-2.24-5-5v-181.05c0-2.76 2.24-5 5-5s5 2.24 5 5v181.04c0 2.77-2.24 5.01-5 5.01zm432.04-204.37h-181.05c-2.76 0-5-2.23-5-5 0-2.76 2.24-5 5-5h181.05c2.76 0 5 2.24 5 5 0 2.77-2.24 5-5 5zm-227.67 0h-181.05c-2.77 0-5-2.23-5-5 0-2.76 2.23-5 5-5h181.05c2.76 0 5 2.24 5 5 0 2.77-2.24 5-5 5z" fill="#112d34"/><g fill="#464d51"><path d="m51.64 56.64h-46.63c-2.76 0-5-2.24-5-5v-46.63c0-2.76 2.24-5 5-5h46.63c2.76 0 5 2.24 5 5v46.63c0 2.76-2.24 5-5 5z"/><path d="m51.64 511.99h-46.63c-2.76 0-5-2.24-5-5v-46.63c0-2.76 2.24-5 5-5h46.63c2.76 0 5 2.24 5 5v46.63c0 2.76-2.24 5-5 5z"/><path d="m51.64 284.31h-46.63c-2.76 0-5-2.24-5-5v-46.63c0-2.76 2.24-4.99 5-4.99h46.63c2.76 0 5 2.23 5 4.99v46.63c0 2.76-2.24 5-5 5z"/><path d="m506.99 56.64h-46.63c-2.76 0-5-2.24-5-5v-46.63c0-2.76 2.24-5 5-5h46.63c2.76 0 5 2.24 5 5v46.63c0 2.76-2.24 5-5 5z"/><path d="m506.99 511.99h-46.63c-2.76 0-5-2.24-5-5v-46.63c0-2.76 2.24-5 5-5h46.63c2.76 0 5 2.24 5 5v46.63c0 2.76-2.24 5-5 5z"/><path d="m506.99 284.31h-46.63c-2.76 0-5-2.24-5-5v-46.63c0-2.76 2.24-4.99 5-4.99h46.63c2.76 0 5 2.23 5 4.99v46.63c0 2.76-2.24 5-5 5z"/><path d="m279.31 56.64h-46.62c-2.77 0-5-2.24-5-5v-46.63c0-2.76 2.23-5 5-5h46.62c2.76 0 5 2.24 5 5v46.63c0 2.76-2.24 5-5 5z"/><path d="m279.31 511.99h-46.62c-2.77 0-5-2.24-5-5v-46.63c0-2.76 2.23-5 5-5h46.62c2.76 0 5 2.24 5 5v46.63c0 2.76-2.24 5-5 5z"/></g></g></g></svg>