<svg id="Layer_5" enable-background="new 0 0 64 64" height="512" viewBox="0 0 64 64" width="512" xmlns="http://www.w3.org/2000/svg"><g><g><g><path d="m53 44c4.97 0 9 4.03 9 9 0 2.48-1.01 4.74-2.64 6.36-1.62 1.63-3.88 2.64-6.36 2.64h-42c-4.97 0-9-4.03-9-9 0-2.48 1.01-4.74 2.64-6.36 1.62-1.63 3.88-2.64 6.36-2.64z" fill="#aab2bd"/></g><g><path d="m53 48h-7-14-14-7c-1.38 0-2.63.56-3.54 1.46-.9.91-1.46 2.16-1.46 3.54 0 2.76 2.24 5 5 5h7 14 14 7c1.38 0 2.63-.56 3.54-1.46.9-.91 1.46-2.16 1.46-3.54 0-2.76-2.24-5-5-5z" fill="#ccd1d9"/></g><g><circle cx="46" cy="53" fill="#969faa" r="4"/></g><g><circle cx="32" cy="53" fill="#969faa" r="4"/></g><g><circle cx="18" cy="53" fill="#969faa" r="4"/></g><g><path d="m26 34h12c0 3.31-2.69 6-6 6-1.66 0-3.16-.67-4.24-1.76-1.09-1.08-1.76-2.58-1.76-4.24z" fill="#aab2bd"/></g><g><path d="m33 30h5c1.1 0 2 .9 2 2 0 .55-.22 1.05-.59 1.41-.36.37-.86.59-1.41.59h-12c-1.1 0-2-.9-2-2 0-.55.22-1.05.59-1.41.36-.37.86-.59 1.41-.59h5z" fill="#ccd1d9"/></g><g><path d="m32.67 2h-1.34c-3.41 0-6.49 1.38-8.72 3.61s-3.61 5.31-3.61 8.72c0 1.8.39 3.55 1.13 5.15.73 1.6 1.81 3.04 3.18 4.21 1.71 1.47 2.69 3.61 2.69 5.86v.45h5 2 5v-.45c0-1.13.24-2.22.7-3.22s1.14-1.91 1.99-2.64c1.37-1.17 2.45-2.61 3.18-4.21.74-1.6 1.13-3.35 1.13-5.15 0-6.81-5.52-12.33-12.33-12.33z" fill="#ffeaa7"/></g><g><path d="m40.12 11.88c.54.54.88 1.29.88 2.12 0 1.66-1.34 3-3 3h-3.63l.35-3.31c.16-1.53 1.45-2.69 2.98-2.69h.3c.83 0 1.58.34 2.12.88z" fill="#fcd770"/></g><g><path d="m29.28 13.69.35 3.31h-3.63c-.83 0-1.58-.34-2.12-.88s-.88-1.29-.88-2.12c0-1.66 1.34-3 3-3h.3c1.53 0 2.82 1.16 2.98 2.69z" fill="#fcd770"/></g><g><path d="m60 38-8 2 2-8z" fill="#ff826e"/></g><g><path d="m12 16-2 8-6-6z" fill="#ff826e"/></g></g><g><circle cx="18" cy="53" r="1"/><circle cx="32" cy="53" r="1"/><circle cx="46" cy="53" r="1"/><path d="m53 43h-42c-5.514 0-10 4.486-10 10s4.486 10 10 10h42c5.514 0 10-4.486 10-10s-4.486-10-10-10zm0 18h-42c-4.411 0-8-3.589-8-8s3.589-8 8-8h42c4.411 0 8 3.589 8 8s-3.589 8-8 8z"/><path d="m53 47h-42c-3.309 0-6 2.691-6 6s2.691 6 6 6h42c3.309 0 6-2.691 6-6s-2.691-6-6-6zm-42 10c-2.206 0-4-1.794-4-4s1.794-4 4-4h4.031c-1.225.912-2.031 2.359-2.031 4s.806 3.088 2.031 4zm7-1c-1.654 0-3-1.346-3-3s1.346-3 3-3 3 1.346 3 3-1.346 3-3 3zm2.969 1c1.225-.912 2.031-2.359 2.031-4s-.806-3.088-2.031-4h8.062c-1.225.912-2.031 2.359-2.031 4s.806 3.088 2.031 4zm11.031-1c-1.654 0-3-1.346-3-3s1.346-3 3-3 3 1.346 3 3-1.346 3-3 3zm2.969 1c1.225-.912 2.031-2.359 2.031-4s-.806-3.088-2.031-4h8.062c-1.225.912-2.031 2.359-2.031 4s.806 3.088 2.031 4zm11.031-1c-1.654 0-3-1.346-3-3s1.346-3 3-3 3 1.346 3 3-1.346 3-3 3zm7 1h-4.031c1.225-.912 2.031-2.359 2.031-4s-.806-3.088-2.031-4h4.031c2.206 0 4 1.794 4 4s-1.794 4-4 4z"/><path d="m22.655 24.45c1.399 1.199 2.228 2.912 2.325 4.741-1.151.419-1.98 1.514-1.98 2.809 0 1.322.865 2.434 2.054 2.833.414 3.468 3.369 6.167 6.946 6.167s6.532-2.699 6.946-6.167c1.189-.399 2.054-1.511 2.054-2.833 0-1.295-.829-2.39-1.981-2.81.098-1.829.926-3.542 2.325-4.741 2.96-2.535 4.656-6.224 4.656-10.12 0-7.35-5.979-13.329-13.329-13.329h-1.342c-7.35 0-13.329 5.979-13.329 13.329 0 3.896 1.696 7.585 4.655 10.121zm9.345 14.55c-2.414 0-4.434-1.721-4.899-4h9.798c-.465 2.279-2.485 4-4.899 4zm6-6h-12c-.552 0-1-.449-1-1s.448-1 1-1h12c.552 0 1 .449 1 1s-.448 1-1 1zm-7.257-15h2.514l-1.157 11h-.2zm.586-15h1.342c6.247 0 11.329 5.082 11.329 11.329 0 3.312-1.442 6.447-3.956 8.602-1.795 1.538-2.867 3.727-3.014 6.069h-2.92l1.158-11h2.732c2.206 0 4-1.794 4-4s-1.794-4-4-4h-.299c-2.053 0-3.764 1.54-3.979 3.582l-.254 2.418h-2.936l-.255-2.419c-.214-2.041-1.925-3.581-3.978-3.581h-.299c-2.206 0-4 1.794-4 4s1.794 4 4 4h2.731l1.158 11h-2.919c-.148-2.342-1.22-4.531-3.014-6.069-2.514-2.155-3.956-5.29-3.956-8.602 0-6.247 5.082-11.329 11.329-11.329zm4.15 13 .232-2.209c.108-1.021.964-1.791 1.99-1.791h.299c1.103 0 2 .897 2 2s-.897 2-2 2zm-6.958 0h-2.521c-1.103 0-2-.897-2-2s.897-2 2-2h.299c1.026 0 1.882.77 1.99 1.791z"/><path d="m53.458 30.044-2.832 11.331 11.33-2.833-3.815-3.815c.562-2.188.859-4.447.859-6.727 0-5.114-1.437-10.092-4.153-14.396l-1.691 1.067c2.515 3.985 3.844 8.593 3.844 13.329 0 1.711-.173 3.41-.515 5.071zm4.586 7.414-4.67 1.167 1.168-4.669z"/><path d="m5 28c0 4.746 1.249 9.414 3.613 13.501l1.73-1.001c-2.187-3.783-3.343-8.105-3.343-12.5 0-1.711.173-3.41.515-5.071l3.027 3.027 2.832-11.331-11.33 2.833 3.815 3.815c-.562 2.188-.859 4.447-.859 6.727zm5.626-10.625-1.168 4.669-3.502-3.502z"/></g></g></svg>