<svg id="Layer_1" enable-background="new 0 0 497 497" viewBox="0 0 497 497" xmlns="http://www.w3.org/2000/svg"><g><path d="m347.75 497h-291.687c-13.807 0-25-11.193-25-25v-400.406c0-13.807 11.193-25 25-25h291.687c13.807 0 25 11.193 25 25v400.406c0 13.807-11.193 25-25 25z" fill="#fe9738"/><path d="m336.688 465.938h-269.563c-2.761 0-5-2.239-5-5v-378.282c0-2.761 2.239-5 5-5h269.562c2.761 0 5 2.239 5 5v378.281c.001 2.762-2.238 5.001-4.999 5.001z" fill="#eaf9fa"/><path d="m336.688 77.656h-41.594v327.282c0 22.643-18.356 41-41 41h-191.969v15c0 2.761 2.239 5 5 5h269.562c2.761 0 5-2.239 5-5v-378.282c.001-2.761-2.238-5-4.999-5z" fill="#d4f2f6"/><path d="m237.623 31.062c-2.459 0-4.608-1.78-4.938-4.217-2.058-15.16-15.054-26.845-30.779-26.845s-28.721 11.685-30.779 26.845c-.331 2.437-2.479 4.217-4.938 4.217h-52.471c-2.761 0-5 2.239-5 5v57.125c0 8.284 6.716 15 15 15h156.375c8.284 0 15-6.716 15-15v-57.125c0-2.761-2.239-5-5-5z" fill="#017297"/><path d="m290.094 31.062h-20c2.761 0 5 2.239 5 5v57.125c0 8.284-6.716 15-15 15h20c8.284 0 15-6.716 15-15v-57.125c0-2.761-2.239-5-5-5z" fill="#025f80"/><g fill="#80d261"><path d="m150.312 201.906h-36.594c-2.761 0-5-2.239-5-5v-36.594c0-2.761 2.239-5 5-5h36.594c2.761 0 5 2.239 5 5v36.594c0 2.762-2.238 5-5 5z"/><path d="m150.312 279.562h-36.594c-2.761 0-5-2.239-5-5v-36.594c0-2.761 2.239-5 5-5h36.594c2.761 0 5 2.239 5 5v36.594c0 2.762-2.238 5-5 5z"/><path d="m396.047 108.719c-37.433 0-69.068 32.135-69.873 68.297-.261 11.706 2.358 22.777 7.196 32.553 1.066 2.155 1.367 4.607.784 6.94l-5.977 23.907c-.915 3.662 2.401 6.979 6.063 6.063l23.907-5.977c2.333-.583 4.785-.283 6.94.784 9.332 4.618 19.842 7.214 30.959 7.214 37.099 0 68.702-31.682 69.854-67.593 1.272-39.648-30.49-72.188-69.853-72.188z"/></g><path d="m264.031 85.156h-124.25c-4.142 0-7.5-3.358-7.5-7.5s3.358-7.5 7.5-7.5h124.25c4.142 0 7.5 3.358 7.5 7.5s-3.358 7.5-7.5 7.5z" fill="#025f80"/><g><path d="m295.094 162.812h-108.719c-4.142 0-7.5-3.358-7.5-7.5s3.358-7.5 7.5-7.5h108.719c4.142 0 7.5 3.358 7.5 7.5s-3.358 7.5-7.5 7.5z" fill="#017297"/></g><g><path d="m264.031 193.875h-77.656c-4.142 0-7.5-3.358-7.5-7.5s3.358-7.5 7.5-7.5h77.656c4.142 0 7.5 3.358 7.5 7.5s-3.358 7.5-7.5 7.5z" fill="#017297"/></g><g><path d="m295.094 240.469h-108.719c-4.142 0-7.5-3.358-7.5-7.5s3.358-7.5 7.5-7.5h108.719c4.142 0 7.5 3.358 7.5 7.5s-3.358 7.5-7.5 7.5z" fill="#017297"/></g><g><path d="m264.031 271.531h-77.656c-4.142 0-7.5-3.358-7.5-7.5s3.358-7.5 7.5-7.5h77.656c4.142 0 7.5 3.358 7.5 7.5s-3.358 7.5-7.5 7.5z" fill="#017297"/></g><path d="m264.031 388.547c-4.142 0-7.5 3.358-7.5 7.5 0 8.71-7.086 15.797-15.797 15.797s-15.797-7.086-15.797-15.797v-46.594c0-8.71 7.086-15.797 15.797-15.797s15.797 7.086 15.797 15.797c0 4.142 3.358 7.5 7.5 7.5s7.5-3.358 7.5-7.5c0-16.981-13.815-30.797-30.797-30.797s-30.797 13.815-30.797 30.797v46.594c0 16.981 13.815 30.797 30.797 30.797s30.797-13.815 30.797-30.797c0-4.142-3.358-7.5-7.5-7.5z" fill="#02c7dd"/><path d="m189.497 411.859c2.779-4.625 4.378-10.035 4.378-15.812v-46.594c0-16.981-13.815-30.797-30.797-30.797s-30.797 13.815-30.797 30.797v46.594c0 16.981 13.815 30.797 30.797 30.797 5.777 0 11.188-1.599 15.812-4.378l2.181 2.181c1.464 1.464 3.384 2.197 5.303 2.197s3.839-.732 5.303-2.197c2.929-2.929 2.929-7.678 0-10.606zm-26.419-.015c-8.71 0-15.797-7.086-15.797-15.797v-46.594c0-8.71 7.086-15.797 15.797-15.797s15.797 7.086 15.797 15.797v46.594c0 1.573-.231 3.094-.662 4.529l-4.01-4.01c-2.929-2.929-7.678-2.929-10.606 0-2.929 2.929-2.929 7.678 0 10.606l4.01 4.01c-1.435.43-2.956.662-4.529.662z" fill="#02c7dd"/><path d="m390.049 202.971c-3.462 0-6.717-1.349-9.165-3.797l-20.128-20.128c-2.929-2.929-2.929-7.678 0-10.606 2.929-2.929 7.678-2.929 10.606 0l18.687 18.687 30.682-30.681c2.929-2.929 7.678-2.929 10.606 0 2.929 2.929 2.929 7.678 0 10.606l-32.123 32.123c-2.448 2.448-5.703 3.796-9.165 3.796z" fill="#eaf9fa"/><g><g><circle cx="201.906" cy="31.062" fill="#025f80" r="7.5"/></g></g></g><g/><g/><g/><g/><g/><g/><g/><g/><g/><g/><g/><g/><g/><g/><g/></svg>