<svg id="Capa_1" enable-background="new 0 0 512 512" height="512" viewBox="0 0 512 512" width="512" xmlns="http://www.w3.org/2000/svg"><g><circle cx="256" cy="256" fill="#fb7c82" r="256"/><path d="m446.435 193.81-35.267-35.267-15.271 15.271-48.183-48.182-.139.139-.247-.247-19.861 19.861 83.697 83.697-80.823 80.823-90.047-90.047-51.566 51.566-84.551-84.551-22.356 22.356-18.155-18.159-22.843 22.843 102.706 102.707-5.467 5.467 56.653 56.653-11.334 11.334 117.928 117.928c119.773-21.39 210.691-126.078 210.691-252.002 0-3.601-.094-7.18-.241-10.745l-58.385-58.385z" fill="#fa455c"/><path d="m226.329 142.602c-3.198-.549-6.48-.851-9.835-.851-31.887 0-57.737 25.85-57.737 57.737s25.85 57.737 57.737 57.737h76.983l32.765-76.983-32.765-76.983c-28.84 0-53.961 15.87-67.148 39.343z" fill="#c8875b"/><path d="m428.197 199.487c0-31.887-25.85-57.737-57.737-57.737-3.355 0-6.637.302-9.835.851-13.187-23.473-38.307-39.343-67.148-39.343v153.966h76.983c31.887.001 57.737-25.849 57.737-57.737z" fill="#b46d3c"/><path d="m133.58 186.87 47.072 108.552 112.825 13.521 34.876-67.797-34.876-54.276z" fill="#a6d4fd"/><path d="m453.375 186.87h-159.898v122.073l102.374-13.521z" fill="#6cb1f8"/><path d="m153.089 295.422-48.912-108.552h-63.354v27.044h48.496l48.742 108.175h23.562l21.757 67.986h44.081l21.636-67.609h44.38l15.581-13.522-15.581-13.522zm54.63 67.609h-4.598l-12.982-40.566h30.561z" fill="#e9edf5"/><path d="m293.477 295.422h122.148v27.043h-122.148z" fill="#cdd2e1"/><circle cx="396.328" cy="342.748" fill="#333940" r="60.848"/><circle cx="396.328" cy="342.748" fill="#cdd2e1" r="27.044"/></g></svg>