<svg height="512" viewBox="0 0 64 64" width="512" xmlns="http://www.w3.org/2000/svg"><g id="Flat"><g id="Color_copy" data-name="Color copy"><path d="m43 9h-22l11 14z" fill="#48cae4"/><path d="m43 9h-22l4-6h14z" fill="#ade8f4"/><path d="m36 9h-8l4 14z" fill="#00b4d8"/><path d="m36 9h-8l2-6h4z" fill="#48cae4"/><path d="m21 9 11 14-4-14z" fill="#0096c7"/><path d="m30 3h-5l-4 6h7z" fill="#00b4d8"/><g fill="#ade8f4"><path d="m46 7a1 1 0 0 1 -.556-1.832l3-2a1 1 0 1 1 1.11 1.664l-3 2a1 1 0 0 1 -.554.168z"/><path d="m51 10h-4a1 1 0 0 1 0-2h4a1 1 0 0 1 0 2z"/><path d="m49 15a1 1 0 0 1 -.554-.168l-3-2a1 1 0 0 1 1.11-1.664l3 2a1 1 0 0 1 -.556 1.832z"/><path d="m18 7a1 1 0 0 1 -.554-.168l-3-2a1 1 0 1 1 1.11-1.664l3 2a1 1 0 0 1 -.556 1.832z"/><path d="m17 10h-4a1 1 0 0 1 0-2h4a1 1 0 0 1 0 2z"/><path d="m15 15a1 1 0 0 1 -.556-1.832l3-2a1 1 0 1 1 1.11 1.664l-3 2a1 1 0 0 1 -.554.168z"/></g><path d="m60.28 38.02-6.59 12.23a15.937 15.937 0 0 0 -1.83 9.26l.16 1.49h-12.88l-.6-3.68a19.418 19.418 0 0 1 2.07-12.31 18.825 18.825 0 0 1 1.86-2.82l5.15-6.52a3 3 0 0 1 4.33-.39c.04.03.06.07.1.1l1.68-2.57a1.983 1.983 0 0 0 .27-1.59l-1.97-7.79a3 3 0 0 1 2.33-3.68 3.12 3.12 0 0 1 3.53 2.37l2.93 11.58a6.057 6.057 0 0 1 -.54 4.32z" fill="#f9dbaf"/><path d="m25.71 54.2a19.3 19.3 0 0 1 -.25 3.12l-.6 3.68h-12.88l.16-1.49a15.937 15.937 0 0 0 -1.83-9.26l-6.59-12.23a6.057 6.057 0 0 1 -.54-4.32l2.93-11.58a3.12 3.12 0 0 1 3.53-2.37 3 3 0 0 1 2.33 3.68l-1.97 7.79a1.983 1.983 0 0 0 .27 1.59l1.68 2.57c.04-.03.06-.07.1-.1a3 3 0 0 1 4.33.39l5.15 6.52a18.825 18.825 0 0 1 1.86 2.82 19.379 19.379 0 0 1 2.32 9.19z" fill="#f9dbaf"/><path d="m12.75 43.279-2.95-3.729a3.142 3.142 0 0 1 .172-4.2 2.961 2.961 0 0 1 1.469-.743l.511.778a3.12 3.12 0 0 0 -.171 4.143l4.208 5.321a4.134 4.134 0 0 1 -3.239-1.57z" fill="#edb88e"/><path d="m12.14 59.51a15.937 15.937 0 0 0 -1.83-9.26l-6.59-12.23a6.057 6.057 0 0 1 -.54-4.32l1.14-4.49a17.63 17.63 0 0 0 3.44 12.06l5.61 7.5a15.957 15.957 0 0 1 3.18 8.88v.01a6.537 6.537 0 0 0 1.06 3.34h-5.63z" fill="#edb88e"/><path d="m51.25 43.279 2.95-3.729a3.141 3.141 0 0 0 -.171-4.2 2.961 2.961 0 0 0 -1.469-.743l-.511.778a3.121 3.121 0 0 1 .171 4.143l-4.208 5.321a4.134 4.134 0 0 0 3.238-1.57z" fill="#edb88e"/><path d="m47.45 60.25a10.426 10.426 0 0 0 1 .75h-9.31l-.6-3.68a19.418 19.418 0 0 1 2.07-12.31 18.825 18.825 0 0 1 1.86-2.82l5.15-6.52a2.99 2.99 0 0 1 2.72-1.11l-2.87 3.63a18.825 18.825 0 0 0 -1.86 2.82 19.418 19.418 0 0 0 -2.07 12.31 11.55 11.55 0 0 0 3.91 6.93z" fill="#edb88e"/><path d="m22 21a1 1 0 0 0 -.781.376l-4 5a1 1 0 1 0 1.562 1.248l3.699-4.624h9.52v-2z" fill="#efad1b"/><path d="m46.781 26.376-4-5a1 1 0 0 0 -.781-.376h-10v2h9.519l3.7 4.624a1 1 0 1 0 1.562-1.248z" fill="#fdc741"/><path d="m22 21h20v18h-20z" fill="#fdc741"/><path d="m42 36v3h-20v-18h4v7a8 8 0 0 0 8 8z" fill="#efad1b"/><path d="m42 21h-20l4 8h12z" fill="#efad1b"/><path d="m30 34h4v5h-4z" fill="#fcea42"/><path d="m42 21h-20l4 6h12z" fill="#fcea42"/><path d="m34 36v3h-4v-4.08a7.851 7.851 0 0 0 4 1.08z" fill="#fdc741"/></g></g></svg>