<svg id="_x33_0" enable-background="new 0 0 64 64" height="512" viewBox="0 0 64 64" width="512" xmlns="http://www.w3.org/2000/svg"><g><g><g><path d="m62 43v14c0 .55-.45 1-1 1h-17v2.59c0 .78-.63 1.41-1.41 1.41-.38 0-.74-.15-1-.41l-3.59-3.59h-19.85l2.34-2.34-.77-.77c-.48-.48-.59-1.2-.33-1.82 0-.01.01-.02.01-.02.26-.62.84-1.05 1.51-1.05h1.09v-4h-1.09c-.67 0-1.25-.43-1.51-1.05 0 0-.01-.01-.01-.02-.26-.62-.15-1.34.33-1.82l.77-.77-2.34-2.34h42.85c.55 0 1 .45 1 1z" fill="#e6e9ed"/></g><g><path d="m18.15 58-.49.49-.77-.77c-.48-.48-1.2-.59-1.82-.33-.01 0-.02.01-.02.01-.62.26-1.05.84-1.05 1.51v1.09h-4v-1.09c0-.67-.43-1.25-1.05-1.51 0 0-.01-.01-.02-.01-.62-.26-1.34-.15-1.82.33l-.77.77-2.83-2.83.77-.77c.48-.48.59-1.2.33-1.82 0-.01-.01-.02-.01-.02-.26-.62-.84-1.05-1.51-1.05h-1.09v-4h1.09c.67 0 1.25-.43 1.51-1.05 0 0 .01-.01.01-.02.26-.62.15-1.34-.33-1.82l-.77-.77 2.83-2.83.77.77c.48.48 1.2.59 1.82.33.01 0 .02-.01.02-.01.62-.26 1.05-.84 1.05-1.51v-1.09h4v1.09c0 .67.43 1.25 1.05 1.51 0 0 .01.01.02.01.62.26 1.34.15 1.82-.33l.77-.77.49.49 2.34 2.34-.77.77c-.48.48-.59 1.2-.33 1.82 0 .01.01.02.01.02.26.62.84 1.05 1.51 1.05h1.09v4h-1.09c-.67 0-1.25.43-1.51 1.05 0 0-.01.01-.01.02-.26.62-.15 1.34.33 1.82l.77.77zm-2.15-8c0-2.21-1.79-4-4-4s-4 1.79-4 4 1.79 4 4 4 4-1.79 4-4z" fill="#fcd770"/></g><g><circle cx="54" cy="50" fill="#ef7385" r="2"/></g><g><circle cx="46" cy="50" fill="#ef7385" r="2"/></g><g><circle cx="38" cy="50" fill="#ef7385" r="2"/></g><g><circle cx="30" cy="50" fill="#ef7385" r="2"/></g><g><path d="m49 31 2 5h-6l2-5z" fill="#ffeaa7"/></g><g><path d="m50.39 28.91-1.39 2.09h-2l-1.39-2.09 2.39-1.91z" fill="#fcd770"/></g><g><path d="m50.39 28.91 2.61 2.09 1.8-6.31c4.27 1.56 7.2 5.65 7.2 10.31v1h-11l-2-5z" fill="#4fc1e9"/></g><g><path d="m47 31-2 5h-1.24-.01c-.57-2.64-2.13-4.94-4.33-6.44l.01-.01c.96-1.08 1.67-2.35 2.1-3.71l1.47 5.16 2.61-2.09z" fill="#4fc1e9"/></g><g><path d="m50.39 28.91-2.39-1.91 4-3 1.17.23c.56.11 1.1.26 1.63.46l-1.8 6.31z" fill="#3bafda"/></g><g><path d="m44 24 4 3-2.39 1.91-2.61 2.09-1.47-5.16c.14-.44.25-.9.32-1.36.32-.1.65-.18.98-.25z" fill="#3bafda"/></g><g><path d="m18.39 28.91 2.61 2.09 1.47-5.16c.43 1.36 1.14 2.63 2.1 3.71l.01.01-2.34 2.19c-.97 1.24-1.66 2.68-1.99 4.25h-.01-1.24l-2-5z" fill="#fcd770"/></g><g><path d="m11 31 2.61-2.09 1.39 2.09-2 5h-11v-1c0-4.66 2.93-8.75 7.2-10.31z" fill="#fcd770"/></g><g><path d="m16 27 4-3 1.17.23c.33.07.66.15.98.25.07.46.18.92.32 1.36l-1.47 5.16-2.61-2.09z" fill="#ffc729"/></g><g><path d="m12 24 4 3-2.39 1.91-2.61 2.09-1.8-6.31c.53-.2 1.07-.35 1.63-.46z" fill="#ffc729"/></g><g><path d="m17 31 2 5h-6l2-5z" fill="#ef7385"/></g><g><path d="m18.39 28.91-1.39 2.09h-2l-1.39-2.09 2.39-1.91z" fill="#ed5565"/></g><g><path d="m57.79 10.85-.54 2.16-.01.01c-.54-.63-1.34-1.02-2.24-1.02h-1v-1c0-1.66-1.34-3-3-3h-7c-1.23.61-2 1.87-2 3.24v4.76c0-2.76-1.12-5.26-2.93-7.07-.31-.31-.64-.6-.99-.87.51-3.43 3.47-6.06 7.04-6.06h5.76c3.93 0 7.12 3.19 7.12 7.12 0 .59-.07 1.17-.21 1.73z" fill="#b27946"/></g><g><path d="m27.76 24.24 1.56 1.13-1.32 2.63c-1.25.31-2.4.84-3.42 1.56l-.01-.01c-.96-1.08-1.67-2.35-2.1-3.71-.14-.44-.25-.9-.32-1.36-.1-.57-.15-1.14-.15-1.72v-4.76-2c0-1.42.3-2.78.84-4 .68-1.56 1.74-2.91 3.08-3.94 1.68-1.29 3.79-2.06 6.08-2.06s4.4.77 6.08 2.06c.35.27.68.56.99.87 1.81 1.81 2.93 4.31 2.93 7.07v2 4.76c0 .58-.05 1.15-.15 1.72-.07.46-.18.92-.32 1.36-.43 1.36-1.14 2.63-2.1 3.71l-.01.01c-1.02-.72-2.17-1.25-3.42-1.56l-1.32-2.63c1.97-.99 3.32-3.02 3.32-5.37v-4l-.1-.02c-3.22-.64-6.27-2.01-8.9-3.98-1.79.6-3 2.27-3 4.16v3.84c0 1.66.67 3.16 1.76 4.24z" fill="#656d78"/></g><g><path d="m25.92 8.06c-1.34 1.03-2.4 2.38-3.08 3.94h-.01c-3.2-.03-6.32-1-8.99-2.77l-1.84-1.23c-1.23.61-2 1.87-2 3.24v.76h-1c-.86 0-1.63.36-2.18.94l-.77-4.64c-.03-.2-.05-.4-.05-.61 0-.81.26-1.56.7-2.18.45-.62 1.09-1.11 1.85-1.36l.45-.15c.61-1.23 1.87-2 3.24-2h6.64c3.57 0 6.53 2.63 7.04 6.06z" fill="#b27946"/></g><g><path d="m44 39h-24v-.75c0-.77.08-1.52.25-2.25.33-1.57 1.02-3.01 1.99-4.25l2.34-2.19c1.02-.72 2.17-1.25 3.42-1.56v2.53c0 .5.05.99.15 1.47.45 2.14 1.85 3.99 3.85 5 1.22-.62 2.22-1.55 2.92-2.67.44-.71.76-1.5.93-2.33.1-.48.15-.97.15-1.47v-2.53c1.25.31 2.4.84 3.42 1.56 2.2 1.5 3.76 3.8 4.33 6.44.17.73.25 1.48.25 2.25z" fill="#b4dd7f"/></g><g><path d="m28.15 32h7.7c-.17.83-.49 1.62-.93 2.33-.7 1.12-1.7 2.05-2.92 2.67-2-1.01-3.4-2.86-3.85-5z" fill="#ffeaa7"/></g><g><path d="m55 12c.9 0 1.7.39 2.24 1.02.47.53.76 1.22.76 1.98 0 .83-.34 1.58-.88 2.12s-1.29.88-2.12.88h-1v-6z" fill="#f0d0b4"/></g><g><path d="m50 22c.45 0 .87-.07 1.27-.21v.01l.73 2.2-4 3-4-3 .73-2.2v-.01c.4.14.82.21 1.27.21z" fill="#f0d0b4"/></g><g><path d="m54 12v6c0 1.76-1.14 3.26-2.73 3.79-.4.14-.82.21-1.27.21h-4c-.45 0-.87-.07-1.27-.21-1.59-.53-2.73-2.03-2.73-3.79v-2-4.76c0-1.37.77-2.63 2-3.24h7c1.66 0 3 1.34 3 3z" fill="#f0d0b4"/></g><g><path d="m36 28v2.53c0 .5-.05.99-.15 1.47h-7.7c-.1-.48-.15-.97-.15-1.47v-2.53l1.32-2.63c.8.4 1.71.63 2.68.63s1.88-.23 2.68-.63z" fill="#f0d0b4"/></g><g><path d="m38 16v4c0 2.35-1.35 4.38-3.32 5.37-.8.4-1.71.63-2.68.63s-1.88-.23-2.68-.63l-1.56-1.13c-1.09-1.08-1.76-2.58-1.76-4.24v-3.84c0-1.89 1.21-3.56 3-4.16 2.63 1.97 5.68 3.34 8.9 3.98z" fill="#f0d0b4"/></g><g><path d="m18 22c.45 0 .87-.07 1.27-.21v.01l.73 2.2-4 3-4-3 .73-2.2v-.01c.4.14.82.21 1.27.21z" fill="#f0d0b4"/></g><g><path d="m22.83 12h.01c-.54 1.22-.84 2.58-.84 4v2c0 1.76-1.14 3.26-2.73 3.79-.4.14-.82.21-1.27.21h-4c-.45 0-.87-.07-1.27-.21-1.59-.53-2.73-2.03-2.73-3.79v-6-.76c0-1.37.77-2.63 2-3.24l1.84 1.23c2.67 1.77 5.79 2.74 8.99 2.77z" fill="#f0d0b4"/></g><g><path d="m10 12v6h-1c-.83 0-1.58-.34-2.12-.88s-.88-1.29-.88-2.12c0-.8.32-1.53.82-2.06.55-.58 1.32-.94 2.18-.94z" fill="#f0d0b4"/></g></g><g><path d="m33 50c0-1.654-1.346-3-3-3s-3 1.346-3 3 1.346 3 3 3 3-1.346 3-3zm-4 0c0-.552.449-1 1-1s1 .448 1 1-.449 1-1 1-1-.448-1-1z"/><path d="m41 50c0-1.654-1.346-3-3-3s-3 1.346-3 3 1.346 3 3 3 3-1.346 3-3zm-4 0c0-.552.449-1 1-1s1 .448 1 1-.449 1-1 1-1-.448-1-1z"/><path d="m49 50c0-1.654-1.346-3-3-3s-3 1.346-3 3 1.346 3 3 3 3-1.346 3-3zm-4 0c0-.552.449-1 1-1s1 .448 1 1-.449 1-1 1-1-.448-1-1z"/><path d="m57 50c0-1.654-1.346-3-3-3s-3 1.346-3 3 1.346 3 3 3 3-1.346 3-3zm-4 0c0-.552.449-1 1-1s1 .448 1 1-.449 1-1 1-1-.448-1-1z"/><path d="m12 45c-2.757 0-5 2.243-5 5s2.243 5 5 5 5-2.243 5-5-2.243-5-5-5zm0 8c-1.654 0-3-1.346-3-3s1.346-3 3-3 3 1.346 3 3-1.346 3-3 3z"/><path d="m20.31 53.462.014-.032c.11-.265.335-.43.588-.43h2.088v-6h-2.088c-.253 0-.479-.165-.598-.453-.112-.269-.069-.547.11-.727l1.48-1.48-4.244-4.244-1.48 1.481c-.18.179-.458.22-.75.1-.262-.109-.43-.339-.43-.588v-2.089h-6v2.089c0 .249-.168.479-.453.598-.27.109-.547.068-.726-.11l-1.481-1.481-4.245 4.244 1.481 1.48c.18.18.222.458.101.75-.11.265-.336.43-.589.43h-2.088v6h2.088c.253 0 .479.165.598.453.112.269.07.547-.109.727l-1.481 1.48 4.245 4.244 1.48-1.481c.18-.18.458-.22.75-.1.261.109.429.339.429.588v2.089h6v-2.089c0-.249.168-.479.453-.598.268-.112.547-.069.726.109l1.481 1.481 4.244-4.244-1.48-1.48c-.18-.179-.222-.457-.114-.717zm-1.301 2.132.066.066-1.416 1.416-.067-.067c-.751-.753-1.893-.964-2.927-.533-1.011.417-1.665 1.374-1.665 2.435v.089h-2v-.089c0-1.062-.654-2.019-1.685-2.443-1.016-.422-2.156-.211-2.909.541l-.066.067-1.416-1.416.067-.066c.752-.753.964-1.896.533-2.928-.418-1.013-1.374-1.666-2.436-1.666h-.088v-2h.088c1.062 0 2.018-.653 2.444-1.684.423-1.015.211-2.157-.542-2.91l-.066-.066 1.416-1.416.067.067c.752.752 1.894.964 2.927.533 1.012-.417 1.666-1.374 1.666-2.435v-.089h2v.089c0 1.062.654 2.019 1.685 2.443 1.016.425 2.157.211 2.909-.541l.066-.067 1.416 1.416-.067.066c-.752.753-.964 1.896-.533 2.928.418 1.013 1.374 1.666 2.436 1.666h.088v2h-.088c-1.062 0-2.018.653-2.436 1.666l.924.382-.932-.364c-.424 1.014-.211 2.157.541 2.91z"/><path d="m61 41h-38v2h38v14h-18v3.586c0 .338-.468.532-.707.293l-3.879-3.879h-15.414v2h14.586l3.293 3.294c.45.448 1.072.706 1.707.706 1.331 0 2.414-1.083 2.414-2.414v-1.586h16c1.103 0 2-.897 2-2v-14c0-1.103-.897-2-2-2z"/><path d="m53.371 23.255-.606-.121-.268-.804c1.218-.705 2.113-1.908 2.402-3.33h.101c2.206 0 4-1.794 4-4 0-.815-.248-1.572-.668-2.205l.425-1.701c.161-.643.243-1.306.243-1.971 0-4.479-3.644-8.123-8.123-8.123h-5.754c-3.482 0-6.554 2.264-7.672 5.458-1.609-.922-3.467-1.458-5.451-1.458s-3.842.536-5.451 1.458c-1.118-3.194-4.19-5.458-7.672-5.458h-6.641c-1.614 0-3.08.822-3.918 2.174l-.081.026c-1.936.646-3.237 2.45-3.237 4.491 0 .26.021.52.064.777l.7 4.199c-.476.659-.764 1.461-.764 2.333 0 2.206 1.794 4 4 4h.101c.289 1.419 1.193 2.604 2.408 3.31l-.275.824-.606.121c-5.578 1.116-9.628 6.056-9.628 11.745v2h18.075c-.044.411-.075.825-.075 1.246v.754h2v-.754c0-3.953 2.413-7.429 6-8.866v1.148c0 3.14 1.745 5.962 4.553 7.366l.447.224.447-.224c2.808-1.404 4.553-4.226 4.553-7.366v-1.148c3.587 1.437 6 4.913 6 8.866v.754h2v-.754c0-.421-.031-.835-.075-1.246h18.075v-2c0-5.689-4.05-10.629-9.629-11.745zm-.392 1.961c.201.04.396.094.593.146l-1.12 3.918-2.818-2.255 2.609-1.957zm-9.744-2.082-.254.051c.005-.143.019-.284.019-.427v-.783c.163.123.332.232.51.335zm-.536 2.161c.108-.025.213-.058.323-.08l.736-.148 2.609 1.957-2.818 2.255-.983-3.438c.052-.179.09-.363.133-.546zm2.683 5.08.494.742-1.435 3.587c-.296-.922-.702-1.798-1.21-2.608zm2.295 1.625h.646l1.2 3h-3.046zm.788-2h-.93l-.586-.879 1.051-.84 1.051.84zm2.358-6.367-2.823 2.117-2.823-2.117.231-.692c.196.023.389.059.592.059h4c.203 0 .398-.029.595-.053zm4.177-6.633v-4c1.103 0 2 .897 2 2s-.897 2-2 2zm-9.877-14h5.754c3.376 0 6.123 2.747 6.123 6.123 0 .501-.062 1.001-.183 1.485l-.187.747c-.499-.224-1.048-.355-1.63-.355h-2v7c0 1.654-1.346 3-3 3h-4c-1.654 0-3-1.346-3-3v-6.764c0-.822.376-1.575 1.008-2.065l4.478 2.687 1.029-1.715-5.472-3.283-.491.245c-1.179.59-2.023 1.626-2.373 2.848-.556-.841-1.227-1.598-1.986-2.257.653-2.706 3.101-4.696 5.93-4.696zm-4.123 13v6.758c0 1.977-.632 3.889-1.792 5.469-.781-.449-1.621-.814-2.513-1.075l-.704-1.409c1.816-1.265 3.009-3.366 3.009-5.743v-4.819l-.901-.181c-3.062-.612-6-1.927-8.499-3.8l-.419-.314-.497.166c-2.204.734-3.684 2.788-3.684 5.11v3.838c0 2.377 1.193 4.478 3.01 5.744l-.704 1.409c-.892.261-1.733.626-2.513 1.075-1.161-1.581-1.793-3.494-1.793-5.47v-6.758c0-4.963 4.038-9 9-9s9 4.037 9 9zm-9 9c-2.757 0-5-2.243-5-5v-3.838c0-1.294.731-2.455 1.862-3.024 2.437 1.732 5.227 2.99 8.138 3.67v3.192c0 2.757-2.243 5-5 5zm-3 5.528v-2.292l.798-1.596c.693.23 1.432.36 2.202.36s1.509-.13 2.202-.36l.798 1.596v2.292c0 .159-.019.315-.03.472h-5.94c-.011-.157-.03-.312-.03-.472zm-13-2.247 1.051.84-.586.879h-.93l-.586-.879zm-.323 3.719h.646l1.2 3h-3.046zm2.447-.883.494-.742 2.15 1.72c-.508.81-.914 1.686-1.21 2.608zm-.491-4.092 2.61-1.957.738.148c.109.022.214.054.321.079.042.183.081.367.132.547l-.983 3.438zm3.386-3.84-.254-.051-.275-.824c.177-.103.347-.212.51-.335v.783c0 .143.014.284.019.427zm-14.019-8.185c0-1.103.897-2 2-2v4c-1.103 0-2-.897-2-2zm2.016-4h-.016c-.509 0-.992.105-1.44.279l-.523-3.138c-.024-.149-.037-.299-.037-.45 0-1.179.751-2.221 1.87-2.594l.84-.28.185-.37c.446-.892 1.343-1.447 2.341-1.447h6.641c2.829 0 5.277 1.99 5.93 4.697-1.054.914-1.932 2.023-2.578 3.274-2.797-.138-5.495-1.016-7.834-2.576l-2.323-1.549-.519.26c-1.503.752-2.453 2.231-2.537 3.894zm1.984.236c0-.811.366-1.556.983-2.046l1.302.868c2.45 1.634 5.247 2.611 8.16 2.869-.285.977-.445 2.006-.445 3.073v2c0 1.654-1.346 3-3 3h-4c-1.654 0-3-1.346-3-3zm3 11.764h4c.203 0 .396-.036.592-.06l.231.692-2.823 2.118-2.823-2.117.231-.692c.196.023.389.059.592.059zm-2.979 2.216.736-.148 2.609 1.957-2.818 2.255-1.12-3.918c.197-.052.392-.106.593-.146zm-2.472.845 1.902 6.658 2.931-2.344.494.742-1.553 3.883h-9.323c0-3.848 2.224-7.285 5.549-8.939zm13.721 4.134.43-1.504c.143.23.292.458.452.678-.31.259-.602.537-.882.826zm9.73 5.664c-1.128-.682-1.983-1.686-2.488-2.859h4.975c-.504 1.174-1.359 2.178-2.487 2.859zm8.848-6.49c.16-.22.309-.448.452-.678l.43 1.504c-.28-.289-.572-.567-.882-.826zm10.829 5.631-1.553-3.883.494-.742 2.931 2.344 1.902-6.658c3.325 1.654 5.549 5.091 5.549 8.939z"/><path d="m49.5 4.585h2v5.831h-2z" transform="matrix(.515 -.858 .858 .515 18.087 46.945)"/></g></g></svg>