<svg id="Capa_1" enable-background="new 0 0 512 512" height="512" viewBox="0 0 512 512" width="512" xmlns="http://www.w3.org/2000/svg"><g><path d="m256 12.086c-135.31 0-245 109.69-245 245 0 40.256 9.711 78.244 26.916 111.751l1.544.807c.951-.103 1.901-.162 2.838-.162h119.946c14.5 0 26.297 11.797 26.297 26.297v7.726c5.229-1.908 10.87-2.951 16.75-2.951h101.418c5.881 0 11.522 1.043 16.751 2.951v-7.727c0-14.5 11.797-26.297 26.297-26.297h119.946c.873 0 1.757.057 2.643.146l1.738-.792c17.204-33.505 26.916-71.492 26.916-111.749 0-135.309-109.69-245-245-245z" fill="#fd8087"/><path d="m256 80.086c-97.754 0-177 79.246-177 177 0 42.679 15.107 81.828 40.263 112.396h42.98c14.5 0 26.297 11.797 26.297 26.297v7.726c5.229-1.908 10.87-2.951 16.75-2.951h101.418c5.881 0 11.522 1.043 16.751 2.951v-7.727c0-14.5 11.797-26.297 26.297-26.297h42.98c25.157-30.567 40.264-69.716 40.264-112.395 0-97.754-79.246-177-177-177z" fill="#fe99a0"/><g><g><g><path d="m344.755 121.285h-18.74c-1.454-4.901-3.393-9.594-5.789-14.006l13.242-13.242c3.61-3.61 3.61-9.464 0-13.075l-16.344-16.344c-3.611-3.61-9.464-3.61-13.075 0l-13.242 13.242c-4.412-2.396-9.104-4.335-14.006-5.789v-18.74c0-5.106-4.139-9.245-9.245-9.245h-23.113c-5.106 0-9.245 4.139-9.245 9.245v18.74c-4.901 1.454-9.594 3.393-14.006 5.789l-13.242-13.242c-3.61-3.61-9.464-3.61-13.075 0l-16.344 16.344c-3.61 3.611-3.61 9.464 0 13.075l13.242 13.242c-2.396 4.412-4.335 9.104-5.789 14.006h-18.74c-5.106 0-9.245 4.139-9.245 9.245v23.113c0 5.106 4.139 9.245 9.245 9.245h18.74c1.454 4.901 3.393 9.594 5.789 14.006l-13.242 13.242c-3.61 3.61-3.61 9.464 0 13.075l16.344 16.344c3.611 3.61 9.464 3.61 13.075 0l13.242-13.242c4.412 2.396 9.104 4.335 14.006 5.789v18.74c0 5.106 4.139 9.245 9.245 9.245h23.113c5.106 0 9.245-4.139 9.245-9.245v-18.74c4.901-1.454 9.594-3.393 14.006-5.789l13.242 13.242c3.61 3.61 9.464 3.61 13.075 0l16.344-16.344c3.61-3.611 3.61-9.464 0-13.075l-13.242-13.242c2.396-4.412 4.335-9.104 5.789-14.006h18.74c5.106 0 9.245-4.139 9.245-9.245v-23.113c0-5.106-4.139-9.245-9.245-9.245z" fill="#a2aee6"/></g><g><circle cx="256" cy="142.086" fill="#4f66d0" r="49.426"/></g><g><circle cx="256" cy="142.086" fill="#a2aee6" r="24.038"/></g><g><path d="m246.272 142.086c0-10.784 7.101-19.909 16.883-22.955-2.26-.704-4.663-1.083-7.155-1.083-13.276 0-24.038 10.762-24.038 24.038s10.762 24.038 24.038 24.038c2.492 0 4.895-.379 7.155-1.083-9.781-3.046-16.883-12.171-16.883-22.955z" fill="#6c7fd8"/></g></g><g><g><path d="m204.017 142.086c0-41.952 31.911-76.451 72.785-80.548v-8.207c0-5.106-4.139-9.245-9.245-9.245h-23.113c-5.106 0-9.245 4.139-9.245 9.245v18.74c-4.901 1.454-9.594 3.393-14.006 5.789l-13.243-13.242c-3.61-3.61-9.464-3.61-13.075 0l-16.344 16.344c-3.61 3.611-3.61 9.464 0 13.075l13.242 13.243c-2.396 4.411-4.335 9.104-5.789 14.006h-18.74c-5.106 0-9.245 4.139-9.245 9.245v23.113c0 5.106 4.139 9.245 9.245 9.245h18.74c1.454 4.901 3.393 9.594 5.789 14.006l-13.242 13.243c-3.61 3.61-3.61 9.464 0 13.075l16.344 16.344c3.611 3.61 9.464 3.61 13.075 0l13.242-13.243c4.412 2.396 9.104 4.335 14.006 5.789v18.74c0 5.106 4.139 9.245 9.245 9.245h23.113c5.106 0 9.245-4.139 9.245-9.245v-8.207c-40.872-4.099-72.784-38.597-72.784-80.55z" fill="#6c7fd8"/></g></g></g><g><g><g><circle cx="441.322" cy="80.592" fill="#26a6fe" r="70.678"/></g><path d="m396 80.592c0-34.704 25.019-63.545 58-69.522-4.115-.746-8.348-1.156-12.678-1.156-39.035 0-70.678 31.644-70.678 70.678 0 39.035 31.644 70.678 70.678 70.678 4.33 0 8.563-.41 12.678-1.156-32.981-5.977-58-34.818-58-69.522z" fill="#0593fc"/><g><circle cx="441.322" cy="80.592" fill="#fff" r="48.678"/></g><g><path d="m418.714 80.592c0-22.367 15.091-41.198 35.643-46.899-4.15-1.151-8.518-1.78-13.035-1.78-26.884 0-48.678 21.794-48.678 48.678s21.794 48.678 48.678 48.678c4.517 0 8.885-.628 13.035-1.779-20.552-5.7-35.643-24.531-35.643-46.898z" fill="#f5f8f9"/></g><g><path d="m461.418 88.092h-20.097c-4.143 0-7.5-3.357-7.5-7.5v-27.228c0-4.143 3.357-7.5 7.5-7.5s7.5 3.357 7.5 7.5v19.728h12.597c4.143 0 7.5 3.357 7.5 7.5s-3.357 7.5-7.5 7.5z" fill="#6c7fd8"/></g></g><g><g><circle cx="70.678" cy="80.592" fill="#4fc123" r="70.678"/></g><path d="m34 80.592c0-33.172 22.858-60.994 53.678-68.606-5.447-1.345-11.138-2.072-17-2.072-39.034 0-70.678 31.643-70.678 70.678s31.644 70.678 70.678 70.678c5.862 0 11.553-.727 17-2.072-30.82-7.613-53.678-35.434-53.678-68.606z" fill="#47a920"/><g><path d="m60.226 117.956c-1.919 0-3.839-.732-5.303-2.196l-29.367-29.366c-2.929-2.93-2.929-7.678 0-10.607 2.929-2.928 7.678-2.928 10.606 0l24.064 24.063 45.963-45.964c2.929-2.928 7.678-2.928 10.606 0 2.929 2.93 2.929 7.678 0 10.607l-51.266 51.267c-1.464 1.464-3.383 2.196-5.303 2.196z" fill="#fee97d"/></g></g></g><g><g><g><g><path d="m467.789 369.483v-100.185c0-23.961-19.424-43.385-43.385-43.385h-3.798c-6.643-6.346-15.638-10.251-25.551-10.251-23.961 0-43.385 19.424-43.385 43.385v110.436z" fill="#4f66d0"/></g></g><g fill="#314dc9"><path d="m357.347 289.554h4.301c1.131-7.643 7.427-13.587 15.234-14.171v-16.336c0-19.384 12.714-35.793 30.256-41.357-3.786-1.31-7.849-2.028-12.082-2.028-23.961 0-43.385 19.424-43.385 43.385v31.529c1.772-.649 3.678-1.022 5.676-1.022z"/><path d="m362.962 327.197h-5.615c-1.998 0-3.904-.373-5.676-1.022v43.308h25.211v-19.587c-6.659-5.951-11.584-13.799-13.92-22.699z"/></g><g><path d="m362.447 315.437v-23.424c0-.838.085-1.655.212-2.458h-5.312c-9.125 0-16.522 7.397-16.522 16.522v4.598c0 9.125 7.397 16.522 16.522 16.522h6.661c-1.012-3.752-1.561-7.693-1.561-11.76z" fill="#f6a96c"/><path d="m462.113 289.554h-5.1v25.882c0 4.068-.549 8.008-1.561 11.76h6.661c9.125 0 16.522-7.397 16.522-16.522v-4.598c0-9.124-7.397-16.522-16.522-16.522z" fill="#ffbd86"/></g><path d="m469.703 368.482h-119.946c-15.076 0-27.297 12.221-27.297 27.297v7.387c19.312 6.576 33.249 24.879 33.249 46.388v29.672l1 1.245c50.623-22.857 92.095-62.398 117.375-111.634-1.427-.23-2.889-.355-4.381-.355z" fill="#fee97d"/><g><path d="m348 395.78c0-15.076 12.221-27.297 27.297-27.297h-25.54c-15.076 0-27.297 12.221-27.297 27.297v7.387c10.613 3.614 19.595 10.774 25.54 20.056z" fill="#ffe177"/></g><path d="m411.808 360.642h-4.155c-4.495 0-8.835-.668-12.937-1.896l-11.782 9.737v38.88c0 1.534 1.714 2.445 2.985 1.586l22.741-15.351c.647-.437 1.495-.437 2.142 0l22.74 15.351c1.271.858 2.985-.053 2.985-1.586v-38.88l-11.782-9.737c-4.102 1.227-8.442 1.896-12.937 1.896z" fill="#ffd15b"/><path d="m411.808 360.642h-4.155c-5.56 0-10.886-1.015-15.811-2.86v11.612c0 1.726.367 3.432 1.076 5.005l13.483 29.896c1.293 2.868 5.366 2.868 6.659 0l13.483-29.896c.709-1.573 1.076-3.279 1.076-5.005v-11.612c-4.925 1.845-10.251 2.86-15.811 2.86z" fill="#ffbd86"/><path d="m406.906 369.394v-8.771c-5.29-.086-10.362-1.079-15.064-2.841v11.612c0 1.726.367 3.432 1.076 5.005l13.483 29.896c1.293 2.868 5.366 2.868 6.659 0l4.203-9.319-9.28-20.577c-.71-1.573-1.077-3.279-1.077-5.005z" fill="#f6a96c"/><g><g><g><path d="m427.011 261.162-19.572 12.292c-1.94 1.218-4.184 1.865-6.475 1.865h-22.824c-9.22 0-16.694 7.474-16.694 16.694v23.423c0 25.518 20.687 46.205 46.205 46.205h4.155c25.518 0 46.205-20.687 46.205-46.205v-31.844c0-10.788-6.637-20.025-16.051-23.852-4.896-1.99-10.471-1.39-14.949 1.422z" fill="#fed2a4"/></g></g><g><path d="m379.114 315.436v-23.423c0-9.22 7.474-16.694 16.694-16.694h-17.667c-9.22 0-16.694 7.474-16.694 16.694v23.423c0 25.518 20.687 46.205 46.205 46.205h4.155c2.277 0 4.51-.183 6.698-.504-22.286-3.295-39.391-22.498-39.391-45.701z" fill="#ffbd86"/></g><g><g><g><path d="m390.304 309.232c-4.143 0-7.5-3.357-7.5-7.5v-10.258c0-4.143 3.357-7.5 7.5-7.5s7.5 3.357 7.5 7.5v10.258c0 4.143-3.358 7.5-7.5 7.5z" fill="#d88a55"/></g><g><path d="m429.155 309.232c-4.143 0-7.5-3.357-7.5-7.5v-10.258c0-4.143 3.357-7.5 7.5-7.5s7.5 3.357 7.5 7.5v10.258c0 4.143-3.357 7.5-7.5 7.5z" fill="#d88a55"/></g></g></g></g><g><path d="m409.73 340.44c-6.208 0-12.415-1.441-18.073-4.324-3.69-1.881-5.158-6.396-3.277-10.088 1.881-3.69 6.397-5.157 10.088-3.277 7.052 3.595 15.475 3.593 22.524 0 3.691-1.879 8.207-.412 10.088 3.277 1.881 3.691.413 8.207-3.277 10.088-5.658 2.883-11.865 4.324-18.073 4.324z" fill="#d88a55"/></g></g><g><g><path d="m123.324 228.349h-11.127c7.227 6.651 11.765 16.181 11.765 26.753v3.754h.854c13.64 0 24.737 11.097 24.737 24.737v6.6h6.801c1.38 0 2.713.202 3.975.571v-25.41c0-20.438-16.567-37.005-37.005-37.005z" fill="#314dc9"/><path d="m54.987 283.593c0-13.641 11.097-24.737 24.737-24.737h44.876v-3.754c0-20.437-16.568-37.005-37.005-37.005h-6.38c-20.437 0-37.005 16.568-37.005 37.005v35.662c1.262-.369 2.595-.571 3.975-.571h6.801v-6.6z" fill="#4f66d0"/><path d="m61 255.102c0-18.67 13.829-34.102 31.8-36.633-1.701-.24-3.437-.372-5.204-.372h-6.38c-20.437 0-37.005 16.568-37.005 37.005v35.662c1.262-.369 2.595-.571 3.975-.571h6.439v-6.6c0-6.403 2.414-12.251 6.375-16.69z" fill="#314dc9"/></g><g><path d="m54.987 326.795v-37.241h-6.801c-8.186 0-14.821 6.636-14.821 14.821v8c0 8.186 6.636 14.821 14.821 14.821h6.811c-.001-.134-.01-.266-.01-.401z" fill="#f6a96c"/><path d="m156.354 289.554h-6.801v37.241c0 .135-.009.268-.01.402h6.811c8.186 0 14.821-6.635 14.821-14.821v-8c0-8.186-6.636-14.822-14.821-14.822z" fill="#ffbd86"/></g><path d="m156.291 449.555c0-21.509 13.937-39.812 33.25-46.388v-7.387c0-15.076-12.221-27.297-27.297-27.297h-119.947c-1.492 0-2.954.125-4.381.355 25.28 49.236 66.752 88.801 117.375 111.658l1-1.439z" fill="#f5f8f9"/><path d="m325.5 369.016v-96.516c0-22.825-18.675-41.5-41.5-41.5-5.333 0-10.433 1.031-15.127 2.884-8.759-8.573-20.724-13.884-33.873-13.884-26.675 0-48.5 21.825-48.5 48.5v100.516c0 12.694 10.29 22.984 22.984 22.984h93.031c12.695 0 22.985-10.29 22.985-22.984z" fill="#d88a55"/><g><path d="m211 369.016v-100.516c0-22.443 15.451-41.449 36.24-46.916-3.914-1.029-8.014-1.584-12.24-1.584-26.675 0-48.5 21.825-48.5 48.5v100.516c0 12.694 10.29 22.984 22.984 22.984h24.5c-12.694 0-22.984-10.291-22.984-22.984z" fill="#c57a44"/></g><g><path d="m118.204 402.425-14.304-9.655c-.483-.326-1.047-.499-1.63-.499s-1.147.173-1.631.5l-14.303 9.654 10.184 12.27-4.777 24.167c7.975 7.211 16.433 13.896 25.31 20.02l-9.032-44.187z" fill="#0593fc"/></g><path d="m115.707 360.642h-26.874c-1.227 0-2.439-.07-3.633-.198l-9.727 8.039v38.88c0 1.534 1.714 2.445 2.985 1.586l22.741-15.351c.647-.437 1.495-.437 2.142 0l22.741 15.351c1.271.858 2.985-.053 2.985-1.586v-38.88l-9.727-8.039c-1.194.128-2.406.198-3.633.198z" fill="#fff"/><g><path d="m115.707 360.642h-26.874c-1.51 0-2.994-.109-4.452-.302v10.091c0 1.017.381 1.997 1.069 2.747l15.409 16.81c.759.828 2.063.828 2.822 0l15.409-16.81c.687-.75 1.069-1.73 1.069-2.747v-10.091c-1.458.192-2.942.302-4.452.302z" fill="#ffbd86"/><path d="m98.814 370.431v-9.789h-9.981c-1.51 0-2.994-.109-4.452-.302v10.091c0 1.017.381 1.997 1.069 2.747l15.409 16.81c.759.828 2.063.828 2.822 0l5.805-6.333-9.604-10.477c-.687-.75-1.068-1.73-1.068-2.747z" fill="#f6a96c"/></g><g><g><g><path d="m115.707 361.641h-26.874c-19.245 0-34.846-15.601-34.846-34.846v-43.203c0-14.214 11.523-25.737 25.737-25.737h45.092c14.214 0 25.737 11.523 25.737 25.737v43.203c0 19.245-15.601 34.846-34.846 34.846z" fill="#fed2a4"/></g><g><path d="m69.49 326.795v-43.203c0-14.214 11.523-25.737 25.737-25.737h-15.503c-14.214 0-25.737 11.523-25.737 25.737v43.203c0 19.245 15.601 34.846 34.846 34.846h15.503c-19.245 0-34.846-15.601-34.846-34.846z" fill="#ffbd86"/></g></g><g><g><g><path d="m82.844 309.232c-4.142 0-7.5-3.357-7.5-7.5v-10.258c0-4.143 3.358-7.5 7.5-7.5s7.5 3.357 7.5 7.5v10.258c0 4.143-3.358 7.5-7.5 7.5z" fill="#d88a55"/></g><g><path d="m121.696 309.232c-4.142 0-7.5-3.357-7.5-7.5v-10.258c0-4.143 3.358-7.5 7.5-7.5s7.5 3.357 7.5 7.5v10.258c0 4.143-3.358 7.5-7.5 7.5z" fill="#d88a55"/></g></g></g></g><g><path d="m102.27 340.44c-6.207 0-12.415-1.441-18.073-4.324-3.691-1.881-5.158-6.396-3.278-10.088s6.397-5.158 10.087-3.277c7.053 3.594 15.474 3.594 22.526 0 3.688-1.881 8.207-.413 10.087 3.277 1.88 3.691.413 8.207-3.278 10.088-5.656 2.883-11.864 4.324-18.071 4.324z" fill="#d88a55"/></g></g></g><g><g><g><path d="m201.282 335.941v-27.47h-7.694c-9.446 0-17.104 7.658-17.104 17.104v9.232c0 9.446 7.658 17.104 17.104 17.104h10.077c-1.545-5.055-2.383-10.416-2.383-15.97z" fill="#f6a96c"/><path d="m318.412 308.471h-7.695v27.47c0 5.514-.828 10.837-2.352 15.86 1.412.036 2.341.073 2.34.109h7.706c9.446 0 17.104-7.658 17.104-17.104v-9.232c.001-9.445-7.656-17.103-17.103-17.103z" fill="#ffbd86"/></g><g><path d="m306.709 399.554h-101.418c-27.614 0-50 22.386-50 50v30.941c30.721 13.87 64.813 21.591 100.709 21.591s69.989-7.721 100.709-21.591v-30.941c0-27.614-22.385-50-50-50z" fill="#d8ecfe"/></g><path d="m271.506 390.659h-31.012c-1.472 0-2.924-.089-4.354-.248l-11.14 9.143-8 40.71c0 3.77 4.014 6.184 7.344 4.417l30.421-16.143c.747-.504 1.725-.504 2.472 0l30.421 16.143c3.33 1.767 7.344-.647 7.344-4.417l-8-40.71-11.14-9.143c-1.432.16-2.884.248-4.356.248z" fill="#b3dafe"/><path d="m256 390.659c-7.302 0-14.268-1.449-20.643-4.056v14.939c0 1.375.283 2.735.833 3.995l15.227 34.943c1.745 4.004 7.423 4.004 9.167 0l15.227-34.943c.549-1.26.833-2.62.833-3.995v-14.939c-6.376 2.607-13.342 4.056-20.644 4.056z" fill="#ffbd86"/><path d="m252 401.543v-11.046c-5.849-.425-11.444-1.768-16.643-3.894v14.939c0 1.375.283 2.735.833 3.995l15.227 34.943c1.745 4.004 7.423 4.004 9.167 0l3.738-8.578-11.489-26.365c-.55-1.259-.833-2.619-.833-3.994z" fill="#f6a96c"/><g><path d="m279.14 273.915-21.857 15.37c-3.438 2.417-7.538 3.715-11.741 3.715h-35.26c-5.523 0-10 4.477-10 10v32.941c0 30.772 24.946 55.718 55.718 55.718 30.772 0 55.718-24.946 55.718-55.718v-34.35c0-15.048-11.191-27.482-25.704-29.434-2.423-.325-4.875.352-6.874 1.758z" fill="#fed2a4"/><g><path d="m220.564 335.941v-32.941c0-5.523 4.477-10 10-10h-20.282c-5.523 0-10 4.477-10 10v32.941c0 30.772 24.946 55.718 55.718 55.718 3.465 0 6.851-.332 10.141-.938-25.928-4.77-45.577-27.473-45.577-54.78z" fill="#ffbd86"/></g><g><g><g><path d="m225.171 330.024c-4.142 0-7.5-3.357-7.5-7.5v-11.837c0-4.143 3.358-7.5 7.5-7.5s7.5 3.357 7.5 7.5v11.837c0 4.143-3.358 7.5-7.5 7.5z" fill="#d88a55"/></g><g><path d="m286.829 330.024c-4.143 0-7.5-3.357-7.5-7.5v-11.837c0-4.143 3.357-7.5 7.5-7.5s7.5 3.357 7.5 7.5v11.837c0 4.143-3.357 7.5-7.5 7.5z" fill="#d88a55"/></g></g><g><path d="m255.996 343.931c-1.706 0-3.42-.578-4.827-1.764l-8.086-6.81c-2.698-2.271-3.448-6.117-1.802-9.237l8.086-15.32c1.934-3.663 6.468-5.064 10.134-3.132 3.663 1.934 5.065 6.471 3.132 10.134l-5.265 9.976 3.463 2.917c3.168 2.668 3.574 7.399.905 10.567-1.483 1.761-3.604 2.669-5.74 2.669z" fill="#d88a55"/></g></g></g><g><path d="m256 371.559c-6.983 0-13.967-1.622-20.333-4.865-3.69-1.881-5.158-6.397-3.277-10.088 1.88-3.691 6.396-5.157 10.088-3.277 8.467 4.314 18.578 4.314 27.045 0 3.691-1.879 8.207-.412 10.088 3.277 1.881 3.69.413 8.207-3.277 10.088-6.367 3.243-13.351 4.865-20.334 4.865z" fill="#d88a55"/></g></g></g></g><circle cx="256" cy="462.5" fill="#b3dafe" r="7.5"/></svg>