<?xml version="1.0" encoding="UTF-8"?><svg id="Layer_2" xmlns="http://www.w3.org/2000/svg" viewBox="0 0 72.66 72.65"><defs><style>.cls-1{fill:#4d4e50;}</style></defs><g id="Object"><path class="cls-1" d="m39.53,24.51c-1.1-.61-2.43-.88-3.27-1.15-.84-.28-1.85-2.65-7.82-1.1.55,1.78,3.83-.82,6.84,3.01,3.01.83,5.34-.27,6.43,1.1.82.82,2.1.27,2.35-1.1.25-1.37-3.44-.16-4.54-.76Z"/><path class="cls-1" d="m36.33,0C16.26,0,0,16.26,0,36.33s16.26,36.33,36.33,36.33,36.33-16.26,36.33-36.33S56.39,0,36.33,0ZM13.26,55.88c.96,1.5-2.5,2.32-1.87,3.41.54.93,1.45,1.8,1.99,3.2-.57-.5-1.15-.99-1.68-1.53-5.58-5.58-9.26-13.05-10.04-21.35,2.61,1.54,6.69,8.19,11.6,9.55,1.23.82-.96,5.2,0,6.71Zm3.89-41.46s0,0,0,0c-.14,1.02-.88,2.12-2.9,3.35,0,0,0,0,0,0-.38.51-2.07,1.22-2.25,1.66-.19.44-.67.6-1.3.8-.63.2-2.13,1.2-2.36,1.6-.23.4-.53.2-1.99.55h0c-.76.35-1.47.57-2.22.69,1.73-4.2,4.25-7.98,7.38-11.16,1.07-.96,2.19-1.77,3.41-2.38l2.59-1.61c-.48,1.18-.47,1.99-1.07,2.66-.06.85,1.1,2.71.7,3.83Zm52.39,32.44c-1.7,5.39-4.68,10.2-8.57,14.11-1,.99-2.07,1.9-3.18,2.77-.23.12-.46.23-.67.31.61-4.34,1.41-5.79,3.82-6.84,2.41-1.05,2.94-2.52,2.82-4.51-.02-3.23,4.23-4.96,5.81-6.07,0,.07-.03.16-.04.23Zm-.46-22.32c.36.98.66,1.99.93,3.01-.07,3.32-4.28,4.98-4.62,6.35,0,.12.02.23.02.34.59-.02,1.15.45,1.55,1.86,1.23,4.38.69,6.02-.82,6.02-1.22,0-1.81-2.08-2.65-4.21-.34-.25-.68-.65-.97-1.14-1.23-2.05-2.88-7.39-4.93-7.8-.96-.2-1.11,1.15-1.38,2.67-.3,1.39.43,2.59.43,2.59,0,0-.89.57-1.16,1.28-.26.71-1.34.04-2.04.02-1.59.77-2.97-.39-3.34-2.29-1.05-1.75-1.76-3.76-3.18-3.05,1.23,1.65,1.64,6.98,2.87,8.21,3.69,0,4.1-2.87,3.3,2.06-.2,1.25-.49,2.23-.84,3.06-.14,1.75-.5,2.58-1.03,3.09-.53.52-2.16,1.79-2.34,2.06.28.95-.62,1.36-.96,1.72-.05.15-.07.28-.06.39.27.32,1.06.49,1.61.57,2.06-.17,5.1-1.16,2.78,1.42-.92.86-1.66,1.52-2.26,2.03.07.13.1.27.06.38-.22.46-.6,1.33-.78,1.68.13.64-.09.59-.66.34-.71.35-.62-.15-.94-.75-.1-.19-.17-.35-.24-.5-.08-.12-.13-.28-.17-.46-.05-.2-.09-.41-.14-.66l.02-.02c-.1-.51-.28-1-.82-1.22-2.05-.82-1.05,2.88-3.93,6.17-4.92,3.69-5.75.4-8.21-2.88-2.46-3.28,1.51-3.96.56-9.94-2.05-1.23-3.84-5.25-3.84-5.25h-1.29c-.35,0-.27.34-.89.29-.62-.06-1.93-.29-2.7-.29s-.94.3-1.55,0c0,0-1.2,0-1.64.34-.44.34-1.16.35-1.78-.34,0,0-3.7-5.34-2.87-9.03.82-3.69,2.46-4.51,5.75-7.39-.55-2.05-2.46-.68-2.19-3.28.68-4.66,4.24-1.23,4.92-4.1.18-.74-.17-1.08-.75-1.22-.89-.1-1.95.9-2.88.71-.93-.2-1.72-.44-.85-1.47h0c.08-.14.2-.29.37-.48.54-.6,1.04-1.13,1.51-1.6.26-.27.5-.49.69-.64.34-1.06.87-2.06,2.13-1.66,1.27.4.3,1.2.44,2.04.71,4.63,1.97,3.74,2.62,2.97-.27-1.37,3.83-.68,2.05-1.5-.18-.09-.33-.22-.45-.38-.34-.28-.57-.57-.51-.92.2-.27-.11-.67.11-.99-.1-.32.04-.62.17-.91.04-.15.1-.31.16-.46,0,0,0-.01,0-.01.03-.4.33-1.3.6-1.42.07-.03.14-.04.22-.05.54-.69,1.27-1.3,2.21-1.68.02-.09.03-.17.02-.24-.03-.21,1.03-.2,1.03-.2l.13.09c.59-.12,1.15-.21,1.71-.26h0c.45-.05,1.22-.52,1.22-.52,0,0,1.06-.01,1.1.5h0c.18.02.35.04.51.06.3-.04.52-.21.88-.27.53-.1.73.5,1.36,1.08.55.42.79.98.63,1.65,1.64,0,5.88-3.01,5.88-3.01,0,0,5.75,1.64,5.06,3.29-.68-.41-3.56-1.23-6.84,0-.82.31,1.78,1.23,4.79,1.23,7.57.13,14.34,7.94,17.09,12.94Z"/></g></svg>