<?xml version="1.0" encoding="UTF-8"?><svg id="Layer_2" xmlns="http://www.w3.org/2000/svg" viewBox="0 0 80.4 56.75"><defs><style>.cls-1{fill:#4d4e50;}</style></defs><g id="Object"><path class="cls-1" d="m79.11,45.21c-1.25,1.76-3.34,3.29-6.01,4.44-3.09,3.59-9.82,6.07-17.61,6.07-1.21,0-2.4-.06-3.55-.18,2.7.77,5.77,1.21,9.04,1.21,9.87,0,18.02-3.99,19.26-9.14.11-.45.17-.91.17-1.37,0-.83-.18-1.63-.51-2.4-.2.47-.46.93-.78,1.37Z"/><path class="cls-1" d="m41.86,36.8c.09.25.18.51.3.75.1.21.22.42.34.62.51.85,1.22,1.66,2.1,2.4.57.49,1.22.95,1.93,1.37,3.56,2.14,8.71,3.49,14.45,3.49,5.16,0,9.85-1.09,13.33-2.87.21-.11.41-.21.61-.32.17-.1.35-.2.51-.3.71-.43,1.35-.88,1.93-1.37.88-.74,1.59-1.55,2.1-2.4.27-.45.48-.9.64-1.37.06-.17.11-.34.15-.51.11-.45.17-.91.17-1.37,0-5.81-8.7-10.51-19.43-10.51s-19.43,4.71-19.43,10.51c0,.07,0,.15.01.22-3.4,1.89-5.5,4.48-5.5,7.32,0,.47.06.92.17,1.37.56,2.32,2.51,4.4,5.38,5.99.55.3,1.13.59,1.75.86,3.32,1.44,7.54,2.3,12.13,2.3,3.26,0,6.34-.44,9.04-1.21-1.15.12-2.34.18-3.55.18-8.27,0-15.34-2.8-18.14-6.74-.31-.44-.57-.9-.78-1.37-.33-.77-.51-1.57-.51-2.4,0-.46.06-.92.17-1.37.2.83.58,1.64,1.12,2.4.34.47.74.93,1.19,1.37,3.33,3.2,9.67,5.37,16.95,5.37,4.59,0,8.8-.86,12.13-2.3.61-.27,1.2-.55,1.75-.86,1.19-.66,2.23-1.4,3.07-2.21.46-.44.85-.9,1.19-1.37.54-.76.92-1.57,1.12-2.4.11-.45.17-.91.17-1.37,0-.17,0-.34-.02-.51-.04.47-.14.92-.29,1.37-.28.84-.74,1.64-1.37,2.4-.39.48-.85.94-1.37,1.37-.71.6-1.53,1.16-2.44,1.67-.25.14-.5.27-.76.4-3.46,1.73-8.09,2.79-13.18,2.79-6.88,0-12.92-1.94-16.37-4.86-.52-.44-.97-.89-1.37-1.37-.63-.76-1.09-1.56-1.37-2.4-.15-.45-.25-.9-.29-1.37,0-.11.03-.22.04-.33-.02.01-.04.02-.06.03,0-.07-.01-.15-.01-.22,0-.47.06-.92.17-1.37.04.17.09.34.15.51Zm7.5-3.29h1.45c.07-.42.21-.8.39-1.17.02-.05.04-.1.07-.15.72-1.33,2.19-2.28,4.16-2.55l.49,1.63.2.68.24.78s-1.16.13-1.72.78h3.75c.2-.44.44-.91.74-1.38.27-.41.59-.82.99-1.2.28-.26.6-.51.96-.74,2.5-1.56,6.79-.9,8.59.75.34.31.66.79.9,1.36.16.38.29.79.37,1.22h1.59v1.52h-1.55c-.04.32-.11.63-.22.94-.12.35-.3.69-.53,1.01-.23.31-.51.61-.85.87-.62.48-1.45.86-2.53,1.09-.5.11-1.04.18-1.64.22l-.1-.47-.55-2.7s.1,0,.26-.01c.08,0,.16-.02.27-.03.64-.08,1.69-.3,2.18-.92h-4.63c-.05.12-.11.24-.16.36-.06.12-.11.23-.17.35-.63,1.21-1.57,2.32-3.49,2.78-.67.16-1.46.25-2.4.23h0c-2.35-.05-3.82-.77-4.68-1.77-.5-.58-.78-1.26-.91-1.94h-1.47v-1.52Z"/><path class="cls-1" d="m65.11,32.38c-.54.09-.93.24-1.27.59-.15.15-.29.32-.43.55h4.03c-.36-.92-1.39-1.29-2.32-1.14Z"/><path class="cls-1" d="m57.44,35.22c.05-.06.1-.12.15-.18h-3.04c.56.89,2.12,1.01,2.89.18Z"/><path class="cls-1" d="m43.05,20.8c-1.25,1.76-3.34,3.29-6.01,4.44-3.09,3.59-9.82,6.07-17.61,6.07-1.21,0-2.4-.06-3.55-.18,2.7.77,5.77,1.21,9.04,1.21,9.87,0,18.02-3.98,19.26-9.14.11-.45.17-.91.17-1.37,0-.82-.18-1.63-.52-2.4-.2.47-.46.93-.78,1.37Z"/><path class="cls-1" d="m5.8,12.4c.09.25.18.51.3.75.1.21.22.41.34.62.51.85,1.22,1.66,2.1,2.4.57.48,1.22.94,1.93,1.37,3.56,2.14,8.71,3.49,14.45,3.49,5.16,0,9.85-1.09,13.33-2.87.21-.11.41-.21.61-.32.18-.1.35-.2.52-.3.71-.43,1.35-.89,1.93-1.37.88-.74,1.59-1.55,2.1-2.4.27-.45.48-.9.64-1.37.06-.17.11-.34.15-.51.11-.45.17-.91.17-1.37,0-5.81-8.7-10.51-19.43-10.51S5.49,4.71,5.49,10.51c0,.07,0,.15,0,.22-3.4,1.89-5.5,4.48-5.5,7.33,0,.46.06.92.17,1.37.56,2.32,2.51,4.4,5.38,5.99.55.3,1.14.59,1.75.86,3.32,1.44,7.54,2.3,12.13,2.3,3.26,0,6.34-.44,9.04-1.21-1.15.12-2.34.18-3.55.18-8.27,0-15.34-2.8-18.14-6.74-.32-.44-.57-.9-.78-1.37-.33-.77-.51-1.57-.51-2.4,0-.47.06-.92.17-1.37.2.83.58,1.64,1.12,2.4.34.47.74.93,1.19,1.37,3.33,3.2,9.67,5.37,16.95,5.37,4.59,0,8.8-.86,12.13-2.3.61-.27,1.2-.55,1.75-.86,1.19-.66,2.23-1.4,3.07-2.21.46-.44.86-.9,1.19-1.37.54-.76.92-1.57,1.12-2.4.11-.45.17-.9.17-1.37,0-.17,0-.34-.02-.51-.04.47-.14.92-.29,1.37-.28.84-.74,1.64-1.37,2.4-.4.48-.85.94-1.37,1.37-.71.6-1.53,1.16-2.44,1.67-.24.14-.5.27-.76.4-3.46,1.73-8.09,2.79-13.18,2.79-6.88,0-12.92-1.94-16.37-4.86-.52-.44-.97-.89-1.37-1.37-.63-.76-1.09-1.56-1.37-2.4-.15-.45-.25-.9-.29-1.37,0-.11.03-.22.04-.33-.02.01-.04.02-.06.03,0-.07,0-.15,0-.22,0-.47.06-.92.17-1.37.04.17.09.34.15.51Zm7.5-3.29h1.45c.07-.41.21-.8.39-1.17.02-.05.04-.1.07-.15.72-1.33,2.19-2.28,4.16-2.55l.49,1.63.2.68.23.78s-1.16.13-1.72.78h3.74c.21-.44.44-.91.75-1.38.27-.41.59-.82.99-1.2.28-.26.6-.51.96-.74,2.5-1.56,6.8-.9,8.59.75.34.31.66.79.9,1.36.16.38.29.79.37,1.22h1.59v1.52h-1.54c-.04.32-.11.63-.22.94-.12.35-.3.69-.53,1.01-.23.31-.51.61-.85.87-.62.48-1.45.86-2.53,1.09-.5.11-1.04.18-1.64.22l-.1-.47-.56-2.71s.1,0,.26-.01c.08,0,.17-.02.27-.03.64-.08,1.69-.3,2.18-.92h-4.63c-.05.12-.11.24-.16.36-.06.12-.11.24-.17.35-.63,1.21-1.57,2.32-3.49,2.78-.67.16-1.46.25-2.4.23h0c-2.35-.05-3.82-.77-4.68-1.77-.5-.58-.78-1.25-.9-1.94h-1.47v-1.52Z"/><path class="cls-1" d="m29.05,7.97c-.54.09-.93.24-1.27.59-.15.15-.29.33-.43.55h4.03c-.36-.92-1.39-1.29-2.32-1.14Z"/><path class="cls-1" d="m21.39,10.82c.05-.06.1-.12.15-.18h-3.04c.56.89,2.12,1.01,2.89.18Z"/></g></svg>