<?xml version="1.0" encoding="UTF-8"?><svg id="Layer_2" xmlns="http://www.w3.org/2000/svg" viewBox="0 0 75.5 67.4"><defs><style>.cls-1{fill:#fff;}.cls-2{fill:#4d4e50;}</style></defs><g id="Object"><polygon class="cls-2" points=".67 21.52 3.95 25.58 36.57 65.94 23.09 21.52 .67 21.52"/><polygon class="cls-2" points="62.91 0 62.91 0 62.91 0 62.91 0"/><polygon class="cls-2" points="39.01 65.84 71.55 25.58 74.83 21.52 53.7 21.52 39.01 65.84"/><polygon class="cls-2" points="75.5 20.69 75.5 20.69 75.5 20.69 75.5 20.69"/><polygon class="cls-2" points="62.12 0 38.68 0 53.1 19.28 62.12 0"/><polygon class="cls-2" points="12.15 .72 .51 19.86 22.31 19.86 12.15 .72"/><polygon class="cls-2" points="74.99 19.86 63.36 .74 54.41 19.86 74.99 19.86"/><polygon class="cls-2" points="75.5 20.69 75.5 20.69 75.5 20.69 75.5 20.69"/><polygon class="cls-2" points="36.85 0 13.41 0 23.64 19.28 36.85 0"/><polygon class="cls-2" points="37.77 1.27 25.03 19.86 51.68 19.86 37.77 1.27"/><path class="cls-1" d="m75.5,20.69h0s-.5-.83-.5-.83h-20.58L63.36.74,62.91,0h0s-.79,0-.79,0l-9.02,19.28L38.68,0h-1.82l-13.22,19.28L13.41,0h-.82l-.44.72,10.16,19.14H.51l-.51.83.67.83h22.42l13.49,44.42,1.18,1.45,1.26-1.56,14.69-44.32h21.13l.67-.83h0ZM37.77,1.27l13.91,18.59h-26.65L37.77,1.27Zm0,63.8l-13.22-43.55h27.66l-14.44,43.55Z"/><polygon class="cls-2" points="37.78 67.4 52.21 21.52 24.55 21.52 37.78 67.4"/></g></svg>