<?xml version="1.0" encoding="UTF-8"?><svg id="Layer_2" xmlns="http://www.w3.org/2000/svg" viewBox="0 0 60.4 80.46"><defs><style>.cls-1{fill:#4d4e50;}</style></defs><g id="Object"><path class="cls-1" d="m29.2,61.91c-.12.11-.25.22-.37.33-.13.11-.26.22-.39.33-.27.22-.55.43-.84.63l-5.93,12.19-1.18-7.02,1.75-2.82c-.21.05-.43.09-.64.13-.55.1-1.12.17-1.69.2-.31.02-.63.03-.94.03-1.22,0-2.4-.15-3.54-.42l1.78,2.88-1.11,7.15-6.57-12.91c-.3-.24-.6-.5-.88-.76l-.12.1C2.13,67.46.44,75.98,0,80.46h37.3c-1.23-13.1-6.68-17.6-8.09-18.55Z"/><path class="cls-1" d="m18.96,36.59c-7.79,0-14.14,6.34-14.14,14.13s6.34,14.14,14.14,14.14,14.14-6.34,14.14-14.14-6.34-14.13-14.14-14.13Z"/><path class="cls-1" d="m59.44,71.15c.08-.05.13-.15.12-.25,0-.1-.06-.19-.15-.23-.03-.02-2.39-1.24-3.02-2.9.83.82,1.81,1.16,3.1,1.4.1.02.2-.02.27-.1.06-.08.08-.19.04-.28-1.23-2.99-1.84-6.55-2.43-9.98-.36-2.1-.71-4.15-1.19-5.98-.16-.79-.4-1.55-.72-2.27-.35-.9-.75-1.71-1.24-2.4-.53-.75-1.97-2.78-5.23-3.45-1.05-.34-2.17-.53-3.34-.53-2.34,0-4.38.77-6.06,2.07-1.59,1-2.78,2.52-3.66,4.72-.57,1.24-.99,2.58-1.23,3.98-.07.39-.11.76-.13,1.13-.08.46-.15.93-.22,1.43-.33,2.31-.09,5.32.36,8.17,1.87,2.99,3.73,7.67,4.39,14.79h21.32c-.15-1.96-.64-5.31-2.15-8.63.71-.35,1.15-.65,1.2-.68Zm-6.55-1.7c-.17.21-3.51,2.39-3.51,2.39l1.64,2.24-5.2,4.08v.02s0-.01,0-.01h-.02s.01,0,.01,0l-5.2-4.08,1.64-2.24s-3.34-2.18-3.51-2.39c-.3-.37,1.49-2.09,1.49-2.09l5.58,10.78,5.58-10.78s1.79,1.72,1.49,2.09Z"/><path class="cls-1" d="m42.86,0H5.1C3.04,0,1.37,1.67,1.37,3.73v20.33c0,2.06,1.67,3.73,3.73,3.73h15.18l-.5,6.39,5.55-6.39h17.53c2.06,0,3.73-1.67,3.73-3.73V3.73c0-2.06-1.67-3.73-3.73-3.73Zm-17.15,18.02H6.86c-.36,0-.65-.29-.65-.65s.29-.65.65-.65h18.85c.36,0,.66.29.66.65s-.29.65-.66.65Zm14.93-4.52H6.86c-.36,0-.65-.29-.65-.65s.29-.65.65-.65h33.78c.36,0,.65.29.65.65s-.29.65-.65.65Zm0-4.52H6.86c-.36,0-.65-.29-.65-.65s.29-.65.65-.65h33.78c.36,0,.65.29.65.65s-.29.65-.65.65Z"/><path class="cls-1" d="m56.87,18.02h-8.59v7.34c0,2.22-1.8,4.02-4.02,4.02h-11.33v4.89c0,1.29,1.04,2.34,2.33,2.34h11.52l3.47,4-.31-4h6.92c1.29,0,2.33-1.05,2.33-2.34v-13.92c0-1.29-1.05-2.33-2.33-2.33Z"/></g></svg>