<?xml version="1.0" encoding="UTF-8"?><svg id="Layer_2" xmlns="http://www.w3.org/2000/svg" viewBox="0 0 56.02 58.9"><defs><style>.cls-1{fill:#fff;}.cls-2{fill:#4d4e50;}</style></defs><g id="Object"><path class="cls-2" d="m.03,54.24c0,2.58,2.09,4.66,4.67,4.66l46.66-.03c2.58,0,4.66-2.09,4.66-4.67,0,0-.03-42.27-.03-42.9,0-1.02-.25-1.85-.9-2.51-.42-.42-5.04-5.03-7.41-7.41C46.84.56,45.27,0,44.1,0,42.93,0,4.66.03,4.66.03,2.09.03,0,2.12,0,4.69l.03,49.55ZM41.77,2.89v15.95c.01,1.39-1.41,2.72-2.8,2.72h-20.27c-1.39.01-2.69-1.31-2.69-2.7V2.91s25.76-.02,25.76-.02Z"/><path class="cls-2" d="m32.03,19.11h5.29c.87,0,1.58-.71,1.58-1.58V6.91c0-.87-.71-1.58-1.59-1.58h-5.29c-.87,0-1.58.71-1.58,1.58v10.62c0,.87.71,1.58,1.58,1.58Z"/><path class="cls-1" d="m48.17,54.12H7.85v-22.28c0-1.68,1.3-3.04,2.91-3.04h34.49c1.61,0,2.91,1.36,2.91,3.04v22.28Z"/></g></svg>