<?xml version="1.0" encoding="UTF-8"?><svg id="Layer_2" xmlns="http://www.w3.org/2000/svg" viewBox="0 0 50.82 67.19"><defs><style>.cls-1{fill:#4d4e50;}</style></defs><g id="Object"><path class="cls-1" d="m44.68,43.44c1.4-6.35,2.53-14.44,1.72-20.11-.12-.86-.26-1.69-.4-2.5-.04-.65-.11-1.3-.23-1.98-.43-2.45-1.17-4.8-2.19-6.97-1.57-3.85-3.68-6.51-6.5-8.27-2.98-2.26-6.6-3.62-10.76-3.62-2.07,0-4.06.33-5.93.94-5.8,1.18-8.35,4.72-9.29,6.04-.87,1.21-1.59,2.63-2.2,4.2-.57,1.26-1.01,2.59-1.28,3.98-.85,3.2-1.48,6.78-2.12,10.46-1.05,6.02-2.13,12.24-4.32,17.49-.07.16-.04.36.08.49.11.14.29.2.47.17,2.29-.42,4.04-1.01,5.51-2.44-1.12,2.9-5.31,5.05-5.37,5.07-.16.08-.26.24-.27.4-.01.18.07.34.21.44.08.05.86.57,2.13,1.19C-.09,57.17,0,66.04,0,66.56v.63h50.81l-.03-.66c-.47-11.59-3.34-18.78-6.11-23.09Zm-6.12.82c-.3.37-6.22,4.18-6.22,4.18l2.91,3.92-9.23,7.15.02.03-.03-.02-.03.02.02-.03-9.23-7.15,2.92-3.92s-5.93-3.81-6.22-4.18c-.53-.65,2.65-3.66,2.65-3.66l9.9,18.88,9.9-18.88s3.18,3,2.65,3.66Z"/><polygon class="cls-1" points="26 59.51 26.02 59.52 26.03 59.51 26.02 59.48 26 59.51"/></g></svg>