<?xml version="1.0" encoding="UTF-8"?><svg id="Layer_2" xmlns="http://www.w3.org/2000/svg" viewBox="0 0 78.85 70.83"><defs><style>.cls-1{fill:#4d4e50;}</style></defs><g id="Object"><path class="cls-1" d="m20.38,29.87H3.62c-2.13,0-3.65,1.69-3.45,3.8l-.18,32.91c0,.1,0,.19.02.28.3,2.19,2.31,3.97,4.5,3.97h21.38c2.09,0,3.57-1.63,3.44-3.68l-4.64-34.29s-.05.02-.07.03c-.66-1.73-2.4-3.02-4.26-3.02Z"/><path class="cls-1" d="m78.81,44.08c-.21-2.49-1.47-4.31-3.11-5.62,1.24-.88,1.97-2.16,2.13-3.77.21-2.16-.35-5.54-2.62-7.99-1.15-1.24-3.21-2.71-6.49-2.71h-15.25c-.03-2.21-.03-5.67.13-8.74.23-4.44-2.25-9.84-4.7-12.68-1.29-1.5-2.6-2.33-3.89-2.49-.42-.05-.84-.08-1.28-.08-2.81,0-6.13,1.12-6.78,3.59-.29,1.07-.02,2.2.26,3.4.37,1.59.84,3.56.35,6.32-.83,4.68-7.91,16-10.2,18.08l4.77,35.27c3.14,1.22,10.4,3.87,14.22,3.87h19.07c1.3,0,5.64-.28,6.94-3.93.62-1.76.39-3.41-.22-4.83,0-.14-.01-.25-.02-.33,0-.03,0-.06,0-.1,2.38-.64,3.92-2.22,4.33-4.57.49-2.83-.36-4.79-1.21-5.98,2.52-1.17,3.84-3.53,3.57-6.71Z"/></g></svg>