<?xml version="1.0" encoding="UTF-8"?><svg id="Layer_2" xmlns="http://www.w3.org/2000/svg" viewBox="0 0 41.13 80.01"><defs><style>.cls-1{fill:#4d4e50;}</style></defs><g id="Object"><path class="cls-1" d="m39.37,0c-.14,0-.27.02-.4.05-.72.19-1.41.41-2.09.63-.18.06-.36.12-.54.18-.56.2-1.11.41-1.64.63-.1.04-.2.08-.3.12-.61.26-1.2.54-1.77.82-.14.07-.28.15-.42.22-.46.24-.9.48-1.33.74-.12.07-.24.14-.36.21-.51.31-1.01.64-1.49.97-.1.07-.19.14-.29.21-.39.28-.77.56-1.13.85-.12.09-.23.18-.34.28-.43.35-.84.71-1.24,1.08l-.12.11c-.36.34-.7.68-1.03,1.02-.1.1-.19.21-.29.31-.32.35-.63.69-.93,1.04l-.09.11c-.32.39-.62.77-.91,1.16-.08.1-.15.21-.23.31-.23.32-.45.64-.67.96-.05.08-.11.16-.16.23-.25.38-.48.76-.7,1.15-.05.09-.11.18-.16.28-.18.31-.34.61-.5.91-.05.1-.1.19-.15.29-.19.37-.36.73-.53,1.09-.03.07-.06.14-.1.21-.13.3-.26.59-.38.88-.04.1-.08.2-.12.3-.13.33-.26.65-.37.96l-.02.04h0c-.18.49-.33.95-.46,1.4h-3.53c-8.06,0-14.6,6.54-14.6,14.6v11.31h38.68v-11.31c0-8.06-6.54-14.6-14.6-14.6h-2.15c4.65-12.29,15.23-15.64,17.61-16.25.26-.07.43-.1.47-.11h.01c.64-.27,1.1-.9,1.1-1.64,0-.98-.79-1.76-1.77-1.76Zm-16.48,28.6v9.49c0,1.95-1.59,3.54-3.55,3.54-1.95,0-3.54-1.59-3.54-3.55v-9.49c0-1.95,1.59-3.54,3.54-3.54,0,0,0,0,0,0,1.95,0,3.54,1.59,3.54,3.54Z"/><path class="cls-1" d="m0,65.41c0,8.06,6.54,14.6,14.6,14.6h4.27s5.22,0,5.22,0c8.06,0,14.6-6.54,14.6-14.6v-17.8H0v17.8Z"/></g></svg>