<?xml version="1.0" encoding="UTF-8"?><svg id="Layer_2" xmlns="http://www.w3.org/2000/svg" viewBox="0 0 58.18 66.47"><defs><style>.cls-1{fill:#4d4e50;}</style></defs><g id="Object"><path class="cls-1" d="m29.1,0s-.03,0-.05,0h0c-1.59.16-5.76,1.3-10.94,3.3-5.22,2.01-10.33,2.74-14.6,3.85C-.72,8.24.06,13.32.06,13.32c0,0,1.59,20.57,2.24,23.95,3.09,16.19,26.45,29.2,26.45,29.2h0s23.8-12.62,27.03-29.11c.68-3.46,2.34-24.51,2.34-24.51,0,0,.82-5.22-3.62-6.25-4.44-1.03-9.7-1.66-15.03-3.56C34.22,1.16,30.72.12,29.15,0h0s-.03,0-.05,0Zm8.42,7.56c4.08,1.47,8.03,2.24,11.53,2.92,0,0,3.16.77,3.7.88,0,0,.13-.02.09.86,0,.14-.02.16-.03.31-.63,8.03-1.81,21.62-2.26,23.96-1.38,7.1-7.8,13.66-12.92,17.89-3.39,2.81-6.7,5-8.88,6.35-2.15-1.37-5.35-3.57-8.68-6.38-5.09-4.3-11.4-10.88-12.75-17.92-.44-2.29-1.57-15.64-2.18-23.5-.01-.15,0-.17-.03-.3-.03-.3,0-.69.06-.96,1.12-.28,2.33-.54,3.61-.82,3.39-.73,7.25-1.57,11.26-3.11,4.52-1.73,7.74-2.6,9.03-2.85.84.17,3.07.74,8.45,2.67Z"/><path class="cls-1" d="m29.01,6.69s-.02,0-.03,0h0c-1.18.12-4.26,1.01-8.1,2.56-3.87,1.56-7.66,2.13-10.84,2.99-3.15.85-2.57,4.85-2.57,4.85,0,0,1.18,16.17,1.66,18.83,2.3,12.72,19.62,22.88,19.62,22.88h0s17.56-9.94,19.93-22.83c.5-2.71,1.72-19.16,1.72-19.16,0,0,.6-4.08-2.66-4.89-3.27-.81-7.14-1.32-11.08-2.82-3.87-1.48-6.46-2.31-7.62-2.4h0s-.02,0-.03,0Z"/></g></svg>