<?xml version="1.0" encoding="UTF-8"?><svg id="Layer_2" xmlns="http://www.w3.org/2000/svg" viewBox="0 0 44.3 75.68"><defs><style>.cls-1{fill:#4d4e50;}</style></defs><g id="Object"><path class="cls-1" d="m44.3,9.8c.05-3.93-1.81-7.44-4.71-9.66-.43-.33-1.05-.02-1.05.52v8.33l-6.24,3.83-6.23-3.83V.65c0-.54-.62-.85-1.05-.52-2.82,2.16-4.67,5.54-4.71,9.37-.06,4.98,2.92,9.29,7.23,11.15v33.87c-4.2,1.82-7.17,5.98-7.23,10.85-.05,3.93,1.81,7.44,4.71,9.66.43.33,1.05.02,1.05-.52v-8.33l6.24-3.83,6.23,3.83v8.33c0,.54.62.85,1.05.52,2.82-2.16,4.67-5.54,4.71-9.37.06-4.98-2.93-9.29-7.23-11.15V20.65c4.2-1.82,7.17-5.97,7.23-10.85Z"/><path class="cls-1" d="m13.06,34.76h-3.75V12.48l1.64-2.59L8.97,0h-3.96l-1.98,9.88,1.64,2.59v22.29H.92c-.51,0-.92.47-.92,1.05v1.8c0,.58.41,1.05.92,1.05h.21c-.71,1.22-1.13,2.68-1.13,4.25v25.08c0,4.24,3.02,7.68,6.74,7.68h.5c3.72,0,6.74-3.44,6.74-7.68v-25.08c0-1.57-.42-3.04-1.13-4.25h.21c.51,0,.92-.47.92-1.05v-1.8c0-.58-.41-1.05-.92-1.05ZM3.3,70.49h-1.51v-27.57h1.51v27.57Zm4.36,0h-1.51v-27.57h1.51v27.57Zm4.36,0h-1.51v-27.57h1.51v27.57Z"/></g></svg>