<?xml version="1.0" encoding="UTF-8"?><svg id="Layer_2" xmlns="http://www.w3.org/2000/svg" viewBox="0 0 65.14 71.68"><defs><style>.cls-1{fill:#4d4e50;}</style></defs><g id="Object"><path class="cls-1" d="m48.63,44.86c-7.24,2.78-11.74,8.58-10.06,12.98,1.68,4.38,8.92,5.69,16.16,2.9,6.23-2.4,10.43-7.03,10.4-11.08h.01V0h0s0,0,0,0L21.62,8.4v44.94c-3.08-.84-7.14-.56-11.21,1-7.24,2.78-11.74,8.59-10.06,12.97,1.68,4.39,8.92,5.69,16.16,2.91,6.31-2.42,10.54-7.15,10.4-11.22h0v-29.51l32.92-6.35v20.73c-3.08-.84-7.14-.56-11.21,1Zm-21.71-21.42v-4.59l32.92-6.35v4.59l-32.92,6.35Z"/></g></svg>