<?xml version="1.0" encoding="UTF-8"?><svg id="Layer_2" xmlns="http://www.w3.org/2000/svg" viewBox="0 0 51.54 63.61"><defs><style>.cls-1{fill:#4d4e50;}</style></defs><g id="Object"><path class="cls-1" d="m45.89,25.45H15.33v-6.86c0-5.76,4.68-10.44,10.44-10.44s10.44,4.68,10.44,10.44h8.15C44.36,8.34,36.02,0,25.77,0S7.18,8.34,7.18,18.59v6.86h-1.53c-3.12,0-5.66,2.53-5.66,5.66v26.85c0,3.13,2.53,5.66,5.66,5.66h40.23c3.12,0,5.66-2.54,5.66-5.66v-26.85c0-3.12-2.53-5.66-5.66-5.66Zm-17.75,19.45v3.51c0,.52-.42.95-.95.95h-2.84c-.52,0-.95-.42-.95-.95v-3.51c-1.3-.8-2.17-2.22-2.17-3.85,0-2.51,2.03-4.54,4.54-4.54s4.54,2.03,4.54,4.54c0,1.63-.87,3.06-2.17,3.85Z"/></g></svg>