<?xml version="1.0" encoding="UTF-8"?><svg id="Layer_2" xmlns="http://www.w3.org/2000/svg" viewBox="0 0 70.81 62.03"><defs><style>.cls-1{fill:#4d4e50;}</style></defs><g id="Object"><path class="cls-1" d="m58.5,62.03c1.26,0,2.29-1.02,2.29-2.29v-24.5h6.03c2.2,0,3.98-1.78,3.98-3.98,0-1.26-.58-2.38-1.49-3.11l-7.78-6.75v-11.23c0-1.31-1.06-2.38-2.38-2.38h-4.92c-1.31,0-2.38,1.07-2.38,2.38v2.83L38.01.97c-1.5-1.3-3.72-1.3-5.22,0L1.37,28.25c-1.25,1.09-1.7,2.84-1.12,4.4.58,1.55,2.07,2.59,3.73,2.59h6.02v24.5c0,1.27,1.03,2.29,2.29,2.29h13.54v-17.81c0-2.52,2.04-4.56,4.56-4.56h10.02c2.52,0,4.56,2.04,4.56,4.56v17.81h13.53Z"/></g></svg>