<?xml version="1.0" encoding="UTF-8"?><svg id="Layer_2" xmlns="http://www.w3.org/2000/svg" viewBox="0 0 64.31 65.66"><defs><style>.cls-1{fill:#4d4e50;}</style></defs><g id="Object"><path class="cls-1" d="m63.32,47.8h-6.14c-.55,0-.99.44-.99.99v8.72H8.12v-8.72c0-.55-.44-.99-.99-.99H.99c-.55,0-.99.44-.99.99v15.87c0,.55.44,1,.99,1h62.33c.55,0,.99-.44.99-1v-15.87c0-.55-.44-.99-.99-.99Z"/><rect class="cls-1" x="21.37" width="21.57" height="7.55" rx="1.16" ry="1.16"/><path class="cls-1" d="m19.01,36.63l11.15,13.06c.89,1.04,3.11,1.04,4,0l11.15-13.06,11.14-13.06c.89-1.04-.22-2.34-2-2.34h-11.69v-10.79c0-.55-.45-.99-.99-.99h-19.56c-.55,0-.99.44-.99.99v10.79h-11.35c-1.78,0-2.89,1.3-2,2.34l11.15,13.06Z"/></g></svg>