<?xml version="1.0" encoding="UTF-8"?><svg id="Layer_2" xmlns="http://www.w3.org/2000/svg" viewBox="0 0 60.35 68.75"><defs><style>.cls-1{fill:#4d4e50;}</style></defs><g id="Object"><path class="cls-1" d="m56.72,7.99s-.01-.01-.02-.02l-1.71-2.08c-3.06-3.74-7.6-5.88-12.45-5.88h0c-3.7,0-7.31,1.29-10.17,3.63l-13.2,10.82c-3.74,3.06-5.88,7.6-5.88,12.45,0,2.02.39,4.01,1.15,5.93.15.37.08.78-.17,1.08-.25.3-.65.44-1.03.36-.31-.07-.61-.09-.91-.1h0c-1.03,0-2.03.36-2.82,1.01l-3.61,2.96c-3.74,3.06-5.88,7.6-5.88,12.45,0,3.7,1.29,7.32,3.64,10.18l1.73,2.1c3.06,3.74,7.6,5.88,12.44,5.88h0c3.7,0,7.31-1.29,10.17-3.63l13.2-10.82c3.74-3.06,5.88-7.6,5.88-12.45,0-2.02-.39-4.01-1.15-5.93-.15-.36-.08-.78.17-1.08.25-.3.65-.44,1.03-.36.31.06.62.11.91.1,1.01.03,2.03-.36,2.82-1.01l3.61-2.96c.42-.35.83-.72,1.22-1.11,3.01-3.02,4.66-7.05,4.66-11.35,0-3.7-1.29-7.31-3.63-10.17Zm-19.51,37.44c-.44.77-1,1.43-1.67,1.98l-13.2,10.82c-1.3,1.06-2.86,1.62-4.54,1.62-2.17,0-4.19-.96-5.55-2.62l-1.72-2.1c-1.06-1.29-1.62-2.86-1.62-4.54,0-2.17.96-4.19,2.62-5.55l3.61-2.96c.79-.64,1.33-1.55,1.54-2.55.08-.4.39-.72.79-.82.4-.1.82.04,1.08.36l.1.13c3.07,3.74,7.61,5.89,12.45,5.89.9,0,1.81-.08,2.7-.23.66-.11,1.28-.38,1.86-.81.41-.3.96-.27,1.34.07.37.34.46.89.22,1.32Zm-4.88-12.08l.02-.04c.15.07.28.13.37.18.21.12.42.25.62.39l.21.15s.03.02.04.03c.36.27.54.77.39,1.2-.14.43-.52.75-.98.75-.23,0-.46.02-.7.06,0,0,0,0-.01,0h0c-.4.07-.81.09-1.2.1-1.58,0-3.15-.53-4.4-1.5-.36-.28-.5-.75-.36-1.18.15-.43.55-.72,1-.73.24,0,.48-.02.72-.06.68-.12,1.4-.12,2.13-.03.38.05.77.13,1.18.26l.16.05c.18.06.34.12.5.19.02,0,.04.02.07.03l.22.1s.01,0,.02,0l-.02.04s.02.01.02.02Zm16.49-9.62l-3.61,2.96c-.79.65-1.33,1.55-1.54,2.55-.08.4-.39.72-.79.82-.09.02-.17.03-.26.03-.31,0-.62-.14-.82-.39l-.1-.13c-.28-.35-.6-.7-1.01-1.11h0l-.24-.23c-.38-.36-.74-.68-1.1-.98l-.12-.09s-.04-.03-.06-.05c-.39-.3-.74-.55-1.09-.77-.01,0-.02-.01-.03-.02l-.15-.1c-.43-.27-.87-.53-1.32-.75l-.1-.05s-.01,0-.02-.01h0c-.94-.47-1.93-.85-2.95-1.13,0,0-.02,0-.02,0-2.33-.63-4.67-.74-6.93-.35-.66.11-1.28.38-1.86.81-.41.3-.97.27-1.34-.07-.37-.34-.46-.89-.22-1.32.44-.77,1-1.43,1.67-1.98l13.2-10.82c1.29-1.06,2.86-1.62,4.53-1.62.01,0,.03,0,.04,0,2.16.02,4.16.97,5.51,2.62l1.72,2.11c1.06,1.29,1.62,2.86,1.62,4.54,0,2.16-.96,4.19-2.62,5.55Z"/></g></svg>