<?xml version="1.0" encoding="UTF-8"?><svg id="Layer_2" xmlns="http://www.w3.org/2000/svg" viewBox="0 0 72.65 72.65"><defs><style>.cls-1{fill:#fff;}.cls-2{fill:#4d4e50;}</style></defs><g id="Object"><circle class="cls-2" cx="36.33" cy="36.33" r="36.33"/><path class="cls-1" d="m1.44,36.33C1.44,16.74,16.74,1.63,36.33,1.63s35.42,17.41,34.67,34.84c-.81,18.83-13.64,34.07-33.23,34.07S1.44,55.92,1.44,36.33Z"/><path class="cls-2" d="m24.76,19.43c-.09.03-.15.08-.29.12-.15.05-.17.13-.24.13-.08,0-.16.2-.2.23-.03.02-.05.04-.14.08-.09.03-.13.04-.27.02-.14-.02-.06-.05-.1-.09-.04-.04-.11,0-.18,0-.06,0-.37.17-.38.14,0-.03-.12-.02-.17-.06-.05-.04-.18.04-.29.05-.11.01,0,0,0,.14-.01.13-.04.14-.18.15-.13.01-.18.07-.25.11-.07.04-.03.12,0,.1.03-.01.1.04.33.06.23.02.1.12.1.12,0,0-.11.05-.14.05s-.17.02-.17.02c0,0-.17.06-.2.04-.03,0-.14-.05-.14-.05-.03.04-.07.07-.11.11,0,0-.09.1-.13.13-.05.02-.12,0-.21-.09-.06-.01-.13-.03-.19-.04,0,0-.18.05-.21.08-.04.02-.09.12-.09.12,0,0-.21.06-.3.06-.09,0-.16.09-.22.15-.06.06-.16.11-.25.09-.09,0-.19.04-.25-.03-.07-.07.04-.08.11-.18.07-.1.17-.03.24-.07.07-.03.06-.08.08-.19.02-.1.13-.22.13-.22,0,0,.15-.14.24-.18.09-.04.11-.12.16-.18.04-.05.02-.15.03-.27.01-.13-.02-.16-.01-.21,0-.05.05-.05.16-.1.11-.04.14-.11.24-.19.09-.08-.04-.13-.09-.23-.04-.09-.09-.14-.15-.15-.07-.01-.03-.14,0-.18.02-.04.09.05.15.07.06.02.21.16.24.21.04.05.2.09.3.15.09.06.17.03.31-.03.14-.06.1-.16.13-.19.02-.03-.06-.08-.04-.14.02-.07-.16-.12-.17-.22-.01-.1-.16-.05-.18-.11-.02-.06-.1-.15-.13-.21-.03-.06-.22-.09-.26-.08-.05.01-.22.03-.22-.01,0-.04-.1-.07-.13-.09-.03-.02-.22-.03-.27-.06-.05-.03-.29.01-.36-.04-.07-.05-.64.06-.64.06,0,0-.18-.03-.23-.07-.05-.04,0-.1.01-.15.02-.05-.14-.14-.21-.15-.08,0-.1-.08-.09-.13,0-.05.12-.09.16-.13.03-.04-.14-.16-.22-.2-.08-.04-.03-.14.03-.23.06-.1-.08-.19-.08-.25,0-.06-.24,0-.3,0-.05,0-.09.13-.15.17-.06.05-.13.06-.12,0,0-.06.09-.13.06-.19-.04-.06-.26-.26-.24-.33.02-.06-.08-.12-.09-.15,0-.03-.14-.14-.14-.14,0,0-.22-.04-.31-.03-.09.01-.26.08-.27.05,0-.03-.07-.08-.12-.15-.06-.06-.26-.03-.26.03,0,.06-.13.18-.2.24-.08.06-.26.27-.25.22,0-.04-.05-.11-.12-.14-.07-.03-.18.26-.21.32-.03.05-.41.28-.54.3-.13.03-.34.1-.47.2-.14.09-.42.28-.49.32-.07.04-.38.19-.42.28v.08s.04.02.11,0c.07-.01.21-.02.32-.09.11-.07.03-.06.14-.12.11-.06.18,0,.24,0s-.02.08-.06.12c-.04.03.06.06.14.07.08,0,.15.06.24.02.08-.03,0,0,.17-.07.17-.07.11.02.27-.02.15-.03.14-.08.26-.19.12-.12.16-.12.32-.23.16-.11.22-.16.33-.22l.23.17c-.12.05-.23.13-.39.21-.16.08.03.06.15.04.11-.03.19.03.32.07.13.05.18.25.28.18.11-.06.14.08.21.1.08.02.16.05.24.04.07-.01.15-.07.3-.16.15-.1.18,0,.33-.05.15-.05.19.02.28.01.09,0,.03.04.1.13.08.1.1.06.16.06.07,0,.17.05.28.13.11.08.17.16.1.14-.06-.02,0,0-.11-.03s-.1.01-.23,0c-.13-.02-.12.02-.29-.01-.17-.03-.13,0-.21-.04-.07-.04-.07.05-.15.11-.08.05-.05,0-.19,0-.13,0-.16.06-.21.08-.04.01-.11.11-.22.16-.12.05-.06,0-.18-.02-.12-.02-.21,0-.26-.04-.05-.03-.11.08-.12.23-.02.15-.02.04-.11.21-.1.17-.09.13-.2.24-.11.12-.1.2-.07.23.03.03.05,0,.2-.17.15-.17.3-.45.35-.5.05-.05,0,.05.01.16.02.1-.05.13-.06.22,0,.08-.06.17-.14.32-.08.15-.13.17-.21.23-.08.07-.09.09-.15.2-.07.12,0,.36,0,.44,0,.08-.04.09-.16.24-.11.15-.01.3,0,.37.02.07.05.39.09.47.04.07.41.15.41.15.04-.02.17-.07.29-.16.12-.08.03-.13.07-.22.04-.09.13-.2.19-.34.07-.14.07-.18.1-.35.03-.17-.09-.17-.15-.24-.06-.07-.07-.1-.08-.14,0-.04.03-.2.11-.26.09-.06.07-.12.05-.18-.01-.05.03-.16.05-.24.02-.07.1-.13.17-.19.07-.07.06-.08.17-.14.1-.06.06-.04.15.11.09.14.06-.02.16-.15.1-.13,0-.06.09-.2.08-.14.04-.1.19-.22.14-.13.13-.11.13-.11,0,0,.09.08.16.05.07-.03.25.04.31.02.06-.01.3.12.36.15.06.03.12.22.07.28-.05.06-.04.45-.07.59-.02.14-.05.12-.05.14,0,.02-.05.06-.22.1-.17.03-.15.06-.21.11-.07.05.1.17.2.15.1-.01.13-.09.25-.18.12-.08.08-.13.19-.18.11-.04.06.08.1.09.05,0,.1.02.16.12.06.11-.04.19,0,.25.02.05.02.19.03.25.02.05-.02.15-.08.18-.06.03-.08.05-.14.1-.06.04-.23.41-.39.54-.15.13-.05.05-.14.15-.09.1,0,0,.02.06.02.06.13.07.2.08.07,0,.16.05.23.07.06.02.27.1.4.04.14-.05.51-.09.62-.15.11-.05.1-.09.21-.15.11-.06.21,0,.21,0,0,0,.17-.07.28-.11.1-.04.22-.05.26-.08.05-.03.14-.22.14-.22,0,0,.18-.06.3-.12.11-.06.18-.13.22-.22.04-.09.04-.17.04-.33,0-.07.28-.02.36-.02.07-.01.19.01.31,0,.11-.01.11,0,.36.11.24.1.12-.03.25-.13.04-.03.07-.01.15-.04.09-.03.07-.03.14-.1.07-.06.04-.07.09-.19.06-.12,0-.12.02-.23.02-.12.1-.06.22-.14.12-.09.55-.49.6-.55.05-.06,0,0-.09.02-.09.02-.21.19-.31.22Z"/><path class="cls-2" d="m12.11,14.28c-.06-.02-.13-.26-.14-.29,0-.03-.01-.16-.06-.2-.05-.04-.07-.15-.03-.27.04-.11-.01-.18-.07-.17-.05,0-.14-.09-.12-.13.02-.04.12-.21.08-.26-.03-.05-.14-.08-.2-.15-.06-.07-.26-.11-.09-.19.16-.08.12-.07.29-.16.17-.1.2-.14.1-.15-.1,0-.18.11-.19.05-.02-.08-.05-.28-.05-.28,0,0-.23.53-.31.55-.08.02-.27.02-.32.02-.04,0-.13.13-.19.23-.06.11-.19.14-.14.24.05.1-.01.18.1.16.11-.02.23-.06.28-.04.05.02-.12.15-.13.22-.01.07.02.15.12.24.09.08.26.28.25.36,0,.08.18-.06.23-.05.13.01.17.13.17.16,0,.03.04.11-.02.22-.06.12.02.11.06.07.04-.04.21-.14.21-.14,0,0,.01.11,0,.22-.02.11-.08.21-.13.31-.05.11-.07.15-.08.26,0,.11-.06.13.05.21.11.08.2-.06.32-.19.11-.14.14-.27.15-.33,0-.06,0-.25-.03-.29-.03-.04-.06-.21-.12-.23Z"/><path class="cls-2" d="m68.58,23.27s.02-.05.05-.12c-.26-.63-.53-1.26-.82-1.87-.07,0-.19.09-.28-.05-.09-.14-.1-.28-.14-.3-.04-.02-.32-.18-.44-.16-.12.02-.45-.14-.45-.14,0,0-.02-.2-.08-.21-.06-.01-.26-.18-.35-.25-.09-.07-.22-.22-.25-.23-.03-.01,0,.01-.13-.09-.14-.11-.22-.23-.26-.27-.04-.04-.14-.2-.15-.26-.01-.06-.11-.2-.1-.3,0-.1-.02-.23-.07-.25-.05-.02-.27-.1-.32-.11-.05,0-.18.05-.25.02-.06-.03-.1-.13-.17-.11-.07.02-.09-.05-.2.01-.1.06-.15-.03-.22.02-.07.05-.12.12-.18.18-.05.06-.05.03-.1.06-.05.03-.03-.13-.17-.01,0,0,0,0,0,0-.16.13-.22.18-.25.23-.03.06,0-.08-.17.08-.17.16-.4.35-.46.36-.06,0-.36-.09-.41-.09-.05,0-.2.01-.24-.03-.04-.04-.06-.15-.18-.16-.12,0-.28-.02-.36-.02s-.13-.09-.23-.05c-.1.04-.32.1-.35.15-.03.05-.22.21-.26.3-.04.09-.08.06-.05.2.01.06.03.12.05.18.03.09.06.17.07.21.02.06.05.05-.02.15-.06.1-.11.14-.17.19-.06.05-.08-.13-.23.04-.16.17-.3.27-.3.27,0,0-.17.04-.23.07-.06.03-.2.02-.25.05-.04.03-.23.16-.23.16,0,0-.18.06-.2.09-.03.03-.24.13-.24.16,0,.03-.12.12-.1.15,0,.03-.18.39-.21.47-.03.08-.09.09-.09.18,0,.09-.05.11-.04.24.02.13.05.17.1.22.06.05.15.05.17.15.03.1-.01.14-.03.17-.02.03-.2.1-.23.13-.04.03-.08.01-.13.1-.05.09-.07.12-.13.2-.05.08-.12.1-.16.16-.03.06-.06.03-.09.1-.03.07-.31.15-.31.15,0,0-.12.07-.16.13-.04.06-.24.26-.24.26-.05.03-.1.05-.15.08-.04.02-.09.05-.13.07,0,0-.25-.06-.28-.03-.03.03-.17.07-.17.07,0,0-.09-.07-.15-.07-.06,0-.22.04-.29.05-.06.01-.13.02-.19,0-.06-.02-.13-.01-.16.01-.1.09-.36.14-.39.14s-.09.09-.16.15c-.06.06-.17.15-.2.14-.03-.01-.26-.08-.26-.12-.01-.04-.22-.27-.24-.3-.02-.03,0-.23-.05-.25-.06-.03-.25-.09-.29-.11-.04-.02-.07-.07-.15-.04-.04.01-.08,0-.11,0-.04,0-.08,0-.11.04-.06.07-.02.07-.13.08-.11.01-.18,0-.18,0,0,0-.16-.06-.22-.08-.06-.02-.12-.04-.2,0-.07.04-.17.06-.17.06,0,0-.1-.01-.07-.09.03-.08.03-.24.08-.3.05-.06.1-.23.1-.3,0-.07-.01-.17-.04-.21-.03-.04-.08-.17-.08-.17-.13-.02-.22,0-.23-.06-.01-.07.02-.21-.01-.24-.03-.03-.05-.03-.05-.12,0-.09-.04-.07.07-.21.11-.14.14-.11.17-.25.03-.14.32-.82.31-.88,0-.05-.02-.2-.02-.26,0-.06,0-.24-.02-.27-.02-.03-.06-.08-.08-.18-.02-.1-.03-.14-.01-.25,0-.01,0-.03.01-.04.02-.09.02-.17.02-.21-.01-.05,0-.01-.06-.14-.06-.13-.06-.16-.1-.18-.04-.02-.11-.06-.08-.12.03-.06.06-.17.16-.19.1-.02.24-.1.28-.08.04.02.17.02.22-.03.06-.05.1-.17.14-.21.04-.04.1-.12.2-.11.09.01.16.04.22.1.06.06.09.04.14.09.05.05.03.02.17.01.14-.02.17-.05.21-.05.03,0,.41-.08.42-.05.02.03.2.04.21.08,0,.04.13-.01.22.02.09.03.31.07.31.07,0,0,.09,0,.19-.03.1-.02.27-.07.27-.07,0,0-.03-.04.13,0,.16.04.17.08.3.09.11,0,.26-.08.31-.04.06.04.1.02.18.03.08.01.15,0,.23.03.08.02.05-.03.19-.01.13.01.1.05.19-.05,0,0,.01,0,.02-.02.12-.12.15-.09.19-.2.03-.11.14-.65.16-.74.01-.09-.03-.42-.03-.42.02-.07.04-.14.07-.22,0,0,.04-.14.03-.18-.01-.04-.04-.18-.05-.23,0-.05.04-.13-.08-.15-.12-.02-.15-.12-.2-.16-.06-.04-.09-.07-.15-.17-.07-.1-.15-.18-.15-.22,0-.04.05-.09.04-.14,0-.05-.06-.12-.11-.13-.05,0-.02-.12-.11-.12s-.11-.04-.17-.04c-.06,0-.05-.11-.18-.07-.14.04-.21-.06-.25-.11-.04-.05-.12-.13-.15-.12-.03.01,0-.05-.13-.03-.13.02-.28.01-.33-.04-.05-.05-.12-.1-.1-.2.02-.1-.14-.23-.06-.3.07-.07.26-.24.3-.25.04-.01.05.05.17,0,.12-.05.19.02.23,0,.04-.02.09-.07.16-.09.07-.02.08,0,.13.03.05.02.12-.05.18.03.05.08.06.09.18.11.12.02.23-.07.32-.01.09.06.15,0,.23.03.08.03.18.11.16,0-.02-.12.02-.27-.07-.29-.09-.02-.1-.19-.12-.25-.03-.06-.03-.12-.07-.17-.05-.05-.11-.12-.02-.13.09-.01.31.02.39.04.08.03.25.07.28.14.03.07.16.06.22.09.06.03.36-.06.39-.02.03.03.22.04.23-.05.02-.09.05-.12.04-.21,0-.08.07-.13.07-.13,0,0,.14-.05.21-.06.08-.01.18-.05.25-.1.07-.04.3-.19.3-.19,0,0-.06-.25-.04-.29.02-.04-.02-.15.07-.21.08-.06.27-.24.3-.22.03.03.04-.04.12-.02.03,0,.06,0,.1-.01.08-.02.16-.07.17-.09.03-.03.25-.18.25-.18.06-.05.12-.09.17-.13.12-.04.26-.13.3-.14.02-.01.14-.16.21-.23-3.83-4.04-8.6-7.18-13.97-9.05-.04.04-.05.03-.05.07,0,.06.08.06.16.11.07.05.08.02.1.06.02.04.1.09.1.13,0,.05,0,.13-.03.17-.03.04-.03.01-.03.07,0,.06-.03.21-.03.21,0,0-.08.16-.1.19-.03.03-.08.03-.1.06-.02.02-.1,0-.07.07.03.06.07.06.09.13.01.07-.03.08-.08.12-.05.05-.09,0-.12.05-.02.05-.03.06-.04.2-.01.13.05.12.02.21-.03.08,0-.01-.11.07-.11.08-.12.04-.13.12-.01.08.06,0-.01.08-.07.09-.15,0-.24.04-.09.04-.2-.04-.14.05.06.09.09.08.16.12.06.04.12,0,.09.07-.03.07-.09.11-.12.14-.03.03-.07-.04-.13-.01-.06.03-.08.01-.07.09.01.07-.12.1-.12.1,0,0,0-.15-.01-.15-.01,0-.14,0-.16-.02-.01,0,.02-.09-.07-.06-.08.04-.18.09-.23.13-.05.04-.11-.04-.1-.09,0-.05.04-.14.06-.15.02,0,.08-.1.02-.08-.07.01-.12.06-.15,0-.03-.06.03-.17.03-.17,0,0-.16.04-.21.05-.06.01-.2-.02-.19-.07.02-.05.04-.11.07-.13.02-.02.09-.07.11-.08.01-.01.1-.16.1-.16,0-.06-.01-.12-.02-.17,0,0-.18.16-.2.17-.01,0-.1-.06-.1-.06,0,0,0-.06,0-.09,0-.02,0-.14-.08-.03-.08.11-.05.09-.07.16-.02.08-.17.08-.19.09-.02,0-.08.02-.1.04-.02.03-.15.11-.19.1-.04,0-.18.04-.19,0-.01-.04.02-.1-.01-.1-.03,0-.1.01-.14.03-.04.02-.07.11-.11.14-.03.03-.02.01-.1.05-.07.05,0,.05-.11.02-.1-.03-.11-.05-.11-.05,0-.1,0-.21-.01-.31.03-.01.05-.03.08-.04.02-.01.05-.02.07-.03,0,0,0-.03-.02-.03-.02,0-.04,0-.06,0v-.11s-.01-.06-.03-.06c-.02,0-.05.05-.05.05-.03.02-.06.05-.08.07,0,0-.06.03-.08.03,0,0-.04-.02-.06-.03-.02,0-.05-.03-.05-.05,0-.02,0-.03.01-.05.02-.02.05-.04.05-.06,0-.01.02-.05,0-.06-.02-.01-.03-.06-.06-.06-.03,0-.06-.05-.07-.05-.01,0-.03-.03-.05-.01-.03.01-.04,0-.04-.01,0-.01-.01-.04,0-.07.01-.02.02-.03.02-.05,0-.01.02-.06,0-.06-.02.01-.06,0-.06-.03,0-.02-.04-.02,0-.05.04-.03.03-.03.04-.03.02,0,.07-.04.07-.04,0,0,.03-.05,0-.04-.02,0-.05-.06-.07-.05-.03.01-.04,0-.03-.03,0-.03.14-.1.01-.06-.12.04-.19.09-.19.09,0,0-.01-.01-.03,0-.02,0-.09-.04-.09-.04,0,0-.03-.04-.03-.05,0-.01-.02-.03,0-.05.02-.02.03-.07.03-.08l-.03-.03s0-.02-.02-.01t-.04,0s0-.03-.05-.04c-.03-.01-.04-.02-.07-.02-.03,0-.04.02-.06,0-.02-.03-.03-.04-.04-.05-.01-.01-.02-.05-.01-.07,0-.03.02-.08.02-.08.02-.02.04-.04.07-.06l.07-.06s.05-.08.04-.08c0,0-.04-.08-.04-.08,0,0-.01-.03,0-.04,0-.01.04-.04.06-.06.01-.02.03-.09.02-.09,0,0-.08,0-.11.03-.03.02-.11.04-.15,0-.04-.05-.18-.12-.18-.12.05-.02.09-.04.14-.07,0,0-.03-.01-.06,0-.03.01-.12-.02-.14-.02-.03,0-.08-.02-.08-.03,0-.01.11-.12.1-.12l-.07-.06s.03-.05.04-.07c0,0,.04-.06.04-.07,0-.01.01-.06-.05-.05-.06,0-.06-.05-.11,0-.06.04-.11.06-.12.05,0,0-.01-.03-.04-.05-.02-.01.09-.2.09-.18,0,.01.02-.04.02-.04,0,0,.01-.02.02-.03,0,0,.07-.01.08,0,.02,0,.05-.03.06-.03,0,.01.02-.01.04-.02,0,0,.06-.13.06-.13.02,0,.05-.01.07-.02-.21-.04-.42-.08-.63-.11-.02.02-.05.02-.05.02,0,0-.02-.02-.03-.04-2.02-.36-4.08-.55-6.2-.55-.26,0-.51.01-.77.02-.03.05-.06.1-.07.12-.02.05-.12.14-.16.13-.03,0-.05-.07-.06-.1-.01-.03-.08,0-.12,0-.04,0-.13,0-.11-.09,0-.02,0-.03-.01-.04-.06,0-.12,0-.17,0-.02,0-.03.02-.04.01-.01,0-.04,0-.07,0-.44.02-.88.05-1.32.09.03-.02,0,.1,0,.12,0,.03-.02.2,0,.17.03-.02.09.02.15-.01.07-.03.04.02.13.05.03.01,0,.07.04.08.03.01.05.02.1-.01.05-.04.06-.05.12-.1.06-.04.03.05.04.07.02.02.02.09.06.07.04-.02.08.1.16.11.08,0-.04.13-.04.16,0,.02-.03.12-.05.12s-.01.08,0,.09c.02.02.01.08.05.08.04,0,.05.06.12.05.07-.01.03.08.04.14,0,.05,0,.04,0,.07,0,.03-.01.1.02.1.04,0,.03.12.05.1.01-.02,0,.15,0,.15,0,0-.03.14-.05.16-.02.02-.09.02-.09.02-.04.03-.08.04-.12.06,0,0,0,.07.03.06.03,0,.02.12.02.12,0,0-.02.13-.09.2-.02.02-.1-.09-.1-.11,0-.02-.06.05-.08.07-.01.02,0,.07.04.09.04.03.05.05.05.05,0,0,0,.07.05.06.03,0,.02.09.02.09,0,0-.08.12-.09.15-.01.03.02-.04-.03-.12-.02-.03-.07.01-.07,0,0-.02-.07-.07-.07-.07,0-.03-.02-.07-.02-.1,0,0-.07-.01-.09-.04-.02-.04-.1,0-.1,0,0,0,.01-.1.01-.12-.02-.17-.04-.01-.16-.01-.12,0-.11.02-.15,0-.04-.03-.14-.09-.13-.16,0-.07-.15-.04-.15-.04,0,0-.19-.07-.23-.1-.04-.03-.31-.15-.34-.2-.03-.06-.08-.03-.08-.06s-.13-.02-.14-.07c0-.04-.1-.03-.12-.05-.02-.02-.08-.03-.11-.03-.03,0-.12.05-.12.05,0,0,0,.07.01.1.02.03.01.07.04.07.03,0,.02.05.1.12.09.06.03.04.09.09.06.04,0,.1.02.12.02.02.04.07.37.17.32.1.07.08.13.12.06.03.08.1.07.14,0,.04.26.24.39.33.14.08.04.05.06.08.02.03-.03.12,0,.14.03.03,0,.04-.01.11-.01.07-.02.09-.05.11-.03.02-.07.03-.09.05-.02.01-.08-.02-.09-.04-.01-.02-.14-.04-.14-.04,0,0-.12-.06-.17-.12-.05-.06-.09.02-.17.01-.08-.01-.08-.04-.1-.06-.03-.02-.13.01-.18.02t-.09-.01s-.08,0-.13-.03c-.05-.03-.11,0-.13-.02-.02-.02-.15-.05-.21-.05-.05,0-.1-.05-.13-.12-.03-.08-.05,0-.08-.05-.04-.05-.1-.03-.1-.05-.01-.02-.07-.05-.06-.07.01-.03-.08-.02-.18-.15-.1-.13-.09.03-.12.02-.04,0-.11.03-.11.03,0,0-.05.08-.06.1-.01.02-.03.04-.05.08-.02.03-.18.05-.21-.01-.04-.06-.06-.02-.02-.09.04-.06-.09-.05-.1-.07,0-.02.02-.03.11-.09.09-.07-.06-.09-.07-.12-.01-.03-.01-.08-.06-.1-.05-.03-.1.02-.12,0-.03-.02-.1.01-.17-.09,0-.02-.1-.08-.14-.13-.04-.05-.02-.04.06-.12.07-.07.09-.01.19-.04.09-.03.1-.03.15-.08.05-.05-.03-.04-.07-.11-.05-.07-.09-.02-.13-.04-.04-.02-.18,0-.18-.01,0-.02-.14,0-.16.02-.03.01-.14.08-.16.06-.02-.02-.07-.03-.05-.08.03-.05.07-.04.08-.16,0-.02-.12-.02-.17-.04-.05-.01-.06,0-.06-.07,0-.08.19-.02.17-.07-.02-.04-.07,0-.12.01-.05,0-.11-.04-.18-.14-.08-.11-.03-.03,0-.15.03-.12-.02-.05-.02-.08,0-.03-.15,0-.19-.04-.04-.03-.07,0-.09-.03-.02-.03-.03.04-.05.08-.02.04-.09.15-.11.14-.01,0-.05-.09-.04-.16,0-.07-.04-.04-.02-.11.02-.07-.02-.06-.04-.07-.08.02-.15.04-.23.05.01,0,.02.01.03.01.07.01.03.09.03.11,0,.02-.06.09-.06.09,0,0-.13.04-.16.02-.02-.02-.08.03-.12.03-.04,0-.1.03-.11.01-.01-.02-.09-.07-.12-.09-.03-.02-.06-.03-.1-.04-.04-.01-.08.04-.1.07-.01.03-.05.09-.05.09,0,0-.08.07-.12.09-.05.02-.03.01-.29.06-.26.04-.06.01-.11-.05-.04,0-.07-.01-.11-.01,0,0-.13.06-.19.06-.07,0-.13.04-.13.04,0,0-.02-.03-.03-.06-.64.18-1.28.38-1.91.6.04.17.01.12-.13.25-.16.13-.18.15-.42.12,0,0-.23-.02-.31-.06-3.19,1.19-6.16,2.84-8.83,4.85.05-.03.12-.06.18-.09.04-.02.07.01.18.05.12.03.11,0,.26.12.16.11.03.05.04.12.01.06-.03.15.03.24.06.09.03.17.04.24.02.07,0,.11.07.24.07.13.06.12.06.16,0,.04-.04.07-.16.17-.12.1-.09.08-.13.14-.04.05.09.04.16.03.07,0,.17-.02.26-.05.09-.03.23-.09.34-.15.11-.06.14,0,.51-.09.37-.09.09,0,.17,0,.08,0,.07.03.15.09.07.05.03.12.09.17.06.05.1,0,.2-.04.1-.03.12.05.2.04.08,0,.07.08.22.14.05.01.1.02.15.03,0,0,.14.04.18.06.04.03.15.05.16.1.01.06,0,.06.21.14.21.09,0,.11.14.28.04.05.1.03.17,0,.08-.01.1-.01.39.07.29.08.08.12.22.18.05.02.05.04.25.02.2-.02.08.07.25.35.15-.06,0,0,.15-.07.15-.08.12-.03.26-.05.15-.02.16-.02.29-.02.13,0,.04.09.1.13.06.04.25.02.36,0,.12-.02.2-.04.29-.05.09-.02.2,0,.28.07.08.06.01.01,0,.08.01.02.02.04.04.07.16.25.04.15.02.2-.02.06-.09.14-.14.17-.05.03-.07.17-.08.22-.01.05.09.13.09.13-.01.05-.03.1-.04.15,0,0-.03.18.05.27.09.09-.01.09-.03.16-.01.07,0,.07-.06.21-.05.14-.06.08-.07.13-.03.04,0,.05.05.11.04.06,0,.12.09.13.08,0,.04.05.12.06.08,0,.03.07.19.19.02,0,.03,0,.02.01.08.07.03.03,0,0-.02.02-.08.06-.17.16-.15.18,0,0,.18.01.06,0,.07.11.25.15.17.05.02.07.08.11.06.04.1.09.16.1.06.02,0,.07-.02.19-.02.12,0,0-.07.11,0,0-.04.07-.13.14-.09.07-.11.11-.11.11.06-.05.12-.06.35-.17.05-.03.19-.07.31,0,.12.07.26.36.22.23-.03-.14-.11-.08-.09-.21.02-.14,0-.06.13-.19.11-.13.09-.06.22,0,.04.02.15.08.17.13.02.05.16-.14.2-.21.04-.07-.02-.1-.14-.22-.04-.04.02-.08.07-.14.05-.05.09-.14.14-.18.05-.04.13-.02.15-.07.02-.05-.05-.12-.05-.24,0-.12-.14-.04-.16-.09-.02-.05-.05-.2-.02-.36.04-.15-.03-.18.02-.3.05-.13,0-.11.08-.21.08-.1-.09-.12-.11-.19-.01-.07-.03-.08-.01-.24.01-.17.01-.14.03-.18.02-.04-.21-.17-.19-.28.02-.11.03-.1.17-.2.14-.1.09.08.2.03.12-.04.26-.02.32-.04.06-.01.21-.1.28-.15.06-.04,0,0,.13-.1.13-.1.19-.16.28-.24.08-.09.2-.12.42-.22.21-.1.19-.23.24-.26.05-.03.08-.17.08-.17,0,0,0-.12-.02-.22-.01-.09.09-.3.09-.3.18-.32.08-.24.09-.37.01-.14,0-.07.01-.14.01-.07-.03-.08-.04-.17-.01-.1-.1-.16-.14-.3-.05-.13-.12-.12-.11-.17.01-.06-.23-.02-.36-.15-.13-.13-.37-.15-.47-.16-.1,0,.15-.19.2-.26.05-.06.1-.15.1-.15,0,0,.12-.03.25-.16.14-.13.11-.13.19-.33.03-.07.21-.05.27-.1.07-.04.04-.21.04-.26,0-.06-.08-.12-.06-.19.03-.07,0-.1.03-.19.01-.1-.07-.18-.12-.28-.05-.11-.05-.1,0-.18.05-.08.06-.11.11-.19.06-.08,0-.23.14-.39.13-.16,0,0-.02-.11-.02-.11-.05-.14-.05-.3,0-.16-.12-.07-.08-.27.04-.19.04-.11.13-.21.09-.1.21-.08.32-.15.11-.07.15-.06.27-.11.12-.05.13.09.18.13.04.04.1.05.37-.06.27-.11.08.05.16.06.08.01.01.07.05.16.03.09.04.08.17-.02.13-.1.05.02.13-.02.08-.05.09,0,.16,0,.06.02.05.05.14.13.08.08,0,0,.13-.06.14-.06.11-.06.21-.1.11-.04.23-.06.43,0,0,0-.02-.05.25-.08.26-.03.1.12.21.17.11.05.06.13.08.17.02.04-.03.17,0,.15.04-.01.16.04.26.03.09,0,.08.12.15.15.06.02,0,.07,0,.23,0,.05.08.16.08.16.07.01.16,0,.27.1.04,0,.08.01.12.02,0,0,.24-.05.29-.07.04-.01-.1.14.09.12.18-.02.15-.08.25-.08.1,0,.05.01.22.06,0,0-.02.11-.27.38-.25.27-.04.15-.06.24-.01.08.04.07.02.22-.03.15-.11.18-.11.23,0,.04.01.08,0,.18,0,.1.12.05.12.36s.04-.13.05.09c0,.08,0,.11.01.11,0,0,0-.02-.02.01-.02.07-.07.03-.15.06-.08.03-.1-.02-.2-.05-.1-.03-.07.18.08.3.16.12,0,0,.2-.12.03-.02.37-.18.52-.19.15,0,0,0,.08.08.08.08,0,.27.05.29.03.01-.05.09-.15.23-.1.15-.02.21.12.14.14-.07,0,0,.18-.16.18-.16.06-.06.16-.05.1.01-.07.27.1.15.09-.13,0,0,.24-.11.09-.04.17,0,.18-.1,0-.03,0-.04,0-.04,0,0,.03-.02.07-.07.12-.14,0,0,.17-.13.17-.13,0,0,.12-.06.12-.06.06.22.21.24.1.01,0-.21.28-.41.27-.2-.03-.05-.05-.11-.01-.06.12-.1.14-.26.02-.15.11,0,.18-.06.06-.06,0-.08-.03-.17-.03-.08-.07-.1-.04-.19.03-.1.21.02.27-.17h0c.06-.17,0,0,.08-.1.09-.1.02-.08.33-.37.07-.07.03.07.04.18,0,.11-.03.17.06.18.1.01.04.18.09.26.05.08.14.09.18.12.04.02.01.08.02.14,0,.06-.18-.24.05.12.06.1.09.15.11.18.02.02.04.04.06.04.04,0-.08.31-.02.4.05.1.09.04.16.03.07,0,.05.05.1.15.05.09-.04.15.04.16.08.01.08.05.18.11.11.05.18.12.28.2.1.08-.09.13-.13.14-.04.02-.06.12.02.18.07.07.07.15.16.18.08.02.03.26.1.26.07,0-.07.2-.07.2,0,0-.1.03-.29.07-.19.03,0,.12,0,.12,0,0,.04.14.14.11.1-.03.06.12.12.12.06,0,.05.21.12.22.07.01.09.18.14.18.06,0-.11-.11.07-.08.18.02,0,0,.08.02.08.03,0,0,.06.08.05.08.09.15.09.15,0,0,0,.31.05.28.05-.03.09.04.15.04.06,0,.19.04.19.08,0,.04-.1.2-.1.2,0,0,.12,0,.21-.09.08-.1.11-.09.19-.17.08-.09.12.08.16.12.04.04-.01.11.05.21s.07.03.2-.03c.13-.06.22-.06.36-.08.14-.02,0,.14.08.28.02.03.27.12.27.12-.07.03-.14.07-.21.1-.07.03-.16.06-.23.09,0,0-.22.04-.27.08-.04.04-.29.05-.33.02-.04-.03-.11.03-.17.1-.05.07-.12.06-.14.1-.02.04-.2.1-.22.17-.02.07-.36.04-.43.05-.07.02-.1.1-.03.17.06.07.16.08.2.08.04,0,.25-.12.41-.21.16-.09.17-.13.17-.13.07-.04.15-.07.22-.11,0,0,.21-.13.29-.16.07-.03.29-.08.41-.08.11,0,.17-.02.17.22,0,.24-.11.35,0,.32.1-.03.06-.14.07-.19.02-.04.1-.15.19-.14.08.01.28.02.37.06.09.04.27.13.37.2.11.07-.03.13-.05.24-.03.11.05.14.05.27s-.16.16-.25.33c.02.06.03.11.05.17.05.07.11.14.16.21-.04.07-.08.13-.12.2-.08.07-.17.13-.26.2,0,0-.36.15-.39.12-.04-.02-.23.05-.34.1-.1.06-.33.06-.4.07-.07.01-.23.02-.26.06-.03.04-.25.17-.26.27-.01.1-.44.24-.53.35-.1.11-.22.07-.27.09-.04.02-.45.23-.52.22-.07-.01-.3.06-.3.06-.18,0-.35,0-.53.01-.05-.03-.09-.06-.13-.1,0,0-.36.07-.42.04-.05-.02-.2.03-.24,0-.02,0-.05-.03-.08-.05-.04-.03-.08-.07-.11-.08-.04-.02-.26.06-.38.08-.12.02-.18.05-.23.05-.06,0-.78.04-.78.04-.07.02-.13.04-.19.06,0,0-.33.15-.37.16-.05.02-.29.28-.29.28-.06.06-.13.13-.19.2,0,0-.26.14-.3.17-.05.03-.16.02-.2.02s-.13.03-.13.03c0,0-.15.08-.2.11-.05.03-.17.19-.21.26-.05.07-.21.13-.32.16-.1.03-.08.06-.13.14-.05.09-.11.14-.16.2-.05.06-.2.2-.27.24-.06.04-.35.23-.35.23,0,0-.23.43-.16.31,0,0,.17-.15.51-.4.35-.26.11-.07.23-.16.12-.09.3-.26.53-.4.23-.14.14-.11.28-.17.13-.06.32-.17.41-.24.09-.07.11-.03.32-.09.21-.06.23-.06.29-.08.08-.02.11-.06.25-.12.15-.06.11-.04.15-.07.04-.03.38-.1.44-.13.06-.03.21.01.21.01,0,0,.31.02.39.09.08.07.14.15.19.22.05.07.25.1.22.19-.02.08-.18.17-.27.26-.09.09-.19.1-.29.18-.09.07-.61.07-.61.07,0,0,.09.09.13.12.04.03.08.07.06.12-.02.06.35-.14.41-.1.06.04.08.1.1.18.02.08-.32.32-.32.32,0,0,.06.1.12.21.02.04.11.18.15.18s.05.12.05.12c0,0-.02.11,0,.15.02.04.12.11.12.11,0,0,.08,0,.21.08,0,0,.07.16.21.18.09,0,.18-.01.26-.02,0,0,.05.23.15.21.1-.02.34-.12.44-.12.1,0,.1.17.15.11.04-.06.1-.08.27-.16.16-.07.23.02.31,0,.09-.03-.04.14,0,.21.04.07.18.15.18.15-.08,0-.16.01-.25.02,0,0-.15.1-.2.16-.05.06-.36.17-.49.2-.13.03-.35.09-.45.12-.1.03-.36.1-.5.12-.14.02-.26.1-.33.12-.06.01-.14.1-.17.21-.04.11-.34.27-.4.34-.06.07-.3.1-.41.14-.12.03-.19-.06-.3-.05-.12,0-.1-.09-.04-.2.05-.11-.08-.14.03-.21.11-.07.13-.17.27-.28.14-.11.2-.18.4-.31.2-.13.1-.02.19-.03.09-.01,0,.06.37-.1.35-.16.13,0,.28,0,.16,0,.12-.06.14-.13.02-.07-.08-.11-.14-.12-.06-.01-.22.05-.32.07-.1.03-.13-.02-.06-.12,0,0,.04-.15-.05-.14-.08.02,0,0-.06,0-.06,0-.06.14-.11.16-.06.01-.21.07-.27.07-.06,0-.28.09-.33.12-.05.03-.18-.12-.18-.12,0,0,0,0-.16.17-.07.08-.25.04-.38.02-.01,0-.01.01-.01.03.06-.02.08-.03,0,.24-.01.14-.16.06-.2.01-.04-.04-.1.08-.12.13-.02.04-.09.06-.09.06-.12.04-.25.08-.38.12,0,0-.22.03-.26.03-.05,0-.17-.03-.26.1,0,0-.11.16-.12.21,0,.06-.18.03-.28.08-.1.04.08-.09-.23-.01-.31.07-.05.06-.2.17-.15.11-.13.18-.28.26-.15.07-.16.15-.17.31,0,.15-.02.08-.12.26-.1.18,0,0,.06.14.06.14-.03.11.03.21.05.1.08.14.1.19.03.06-.18.12-.24.17-.06.06-.16.05-.16.05,0,0-.1.15-.18.21-.08.06,0,0-.15.04-.06.02-.18-.11-.47.07-.29.18-.09.04-.17.03-.09,0-.19.02-.29,0-.1-.01-.12.1-.21.13-.09.03-.12.07-.12.07-.08.05-.15.11-.23.16.02-.09.04-.18.06-.27,0,0-.14.04-.19.08-.05.04-.08.14-.09.25,0,.11.15.05.19.14.04.08-.05.17-.07.26-.02.1-.11.14-.06.24.05.1-.31.32-.41.39-.11.07-.07.02-.12.03-.04,0-.08,0-.17.01-.06.01-.12-.07-.15-.14,0,.04,0,.1.01.17,0,.16.05.05.05.14,0,.08.09.12.12.23.02.11-.06.17-.07.21,0,.04-.04.07-.15.14-.11.07-.07.13-.09.24-.02.11-.14.18-.27.07-.14-.11.09-.16.08-.27-.01-.11-.11-.08-.18-.22-.07-.14,0,0,0-.22,0-.22.16-.53.05-.48-.1.04-.02.18-.26.58-.24.4-.06.01-.2.06-.15.04.02.1.03.36,0,.1.1.2.1.2,0,0,.1.06.1.17,0,.11-.15,0-.25.03-.1.02.04.07.15.15.11.08.08.11.22.09.13-.01.13.05.12.12,0,.07-.03.14-.01.27.02.14-.09.11-.09.11,0,0-.05.08-.03.18.01.1.05.03.27.12,0,0-.03.1-.04.15-.02.06-.17.12-.33.23-.07.04-.06-.02-.23,0-.17.01-.05.05-.11.11-.06.06,0,.1.28.22.03.01-.1.1-.21.15-.1.06-.1.01-.13-.03-.03-.04-.25.1-.28.15-.03.05-.12.06-.35.32-.22.27-.11.13-.16.14-.06.01-.16.04-.32-.01-.16-.05-.1.03-.22.11-.12.08-.12.15-.19.24-.07.08-.1.11-.18.16-.07.06-.06.07-.31.22-.09.05-.33.24-.52.4-.19.16-.11.1-.16.22-.04.12-.15.21-.24.35-.08.13-.02.07-.01.29,0,.22.1.08-.01.25-.12.16,0,.12.01.25.01.12,0,.12.06.29.04.16.19.18.23.23.05.05.13.14.16.22.03.08-.01.09-.07.22-.06.12,0,.1.08.41.07.31,0,0,.04.14.04.14,0,.17.11.22.1.05.03.12.12.2.09.09.06.06.09.14.03.08,0,.06-.01.12-.01.07-.03.08,0,.28.04.19,0,.21.06.22.06.02-.02.19-.02.19,0,0-.08.12-.13.2-.04.08-.05.17-.05.17-.05.05-.11.11-.17.16,0-.06-.12-.06-.16-.07-.04-.01-.13-.04-.14-.08-.02-.04-.06-.19-.08-.3-.02-.11-.1-.07-.16-.06-.06.01-.13,0-.13,0-.07-.07-.14-.15-.21-.22-.07.05.03-.1.03-.18,0-.08-.06-.16-.08-.2-.02-.04-.08-.14-.08-.14,0,0-.06-.15-.18-.2-.12-.04-.04-.09-.24-.27-.03-.03.01-.14.01-.22s-.01-.19.08-.37c0-.05,0-.09-.01-.14,0,0-.1-.15-.12-.19-.01-.04-.1-.13-.15-.22-.05-.08-.13-.05-.17-.13-.04-.08-.15-.11-.23-.15-.09-.04-.07-.04-.13-.11-.06-.07,0-.05-.23.02,0,0-.16.08-.2.09-.04.01-.2.05-.36.08,0,0-.21-.07-.19-.12,0-.05-.16-.16-.16-.16-.02-.05-.04-.09-.06-.14-.1-.02-.19-.04-.29-.05,0,0-.31-.02-.35-.03-.05-.02-.17-.02-.25-.02s-.14.04-.19.09c-.05.06-.19.06-.32-.12-.04-.05-.12.05-.13.11-.02.06-.06.11-.06.11,0,0-.26-.07-.38-.15-.12-.08-.07,0-.22.04-.14.04-.1.04-.17.01-.07-.03-.2.04-.27,0-.07-.04-.03-.09-.25.06-.09.07.21.04.32.05.12.02.09.1.09.1.05.02.1.05.14.07,0,0,0,.07,0,.15,0,.08.07.18.14.22.07.04-.01.11-.11.16-.1.05-.13-.02-.16-.12-.03-.11-.16-.07-.16-.07.06.04-.07.17-.27.17s-.02-.11-.02-.11h-.08c-.09.03,0,.01-.12.07-.11.05-.13.02-.23-.03-.1-.05-.01-.07-.09-.15-.07-.08-.09-.01-.22-.08-.07-.03-.14-.08-.38-.05-.06,0-.14.04-.19.04-.04,0-.06.01-.3-.04-.25-.06-.14-.01-.23-.07-.08-.06-.1-.07-.19-.09-.09-.03-.32.07-.5.23,0,0-.15.03-.29-.01-.15-.04-.19-.04-.18.06.02.11,0,0-.01.14-.02.13-.12.08-.22.16-.1.08-.1.08-.1.12,0,.04-.28.1-.42.14-.14.04-.07-.01-.23,0-.07,0-.1.14-.14.15-.04.01-.09.03-.17.04-.09.01-.04.16-.16.31,0,0-.12.07-.17.12-.06.05-.07.16-.11.26-.05.1.06.1.18.24.12.14.08.19.11.35.03.17.02.14.02.31,0,.06,0,.11-.01.16h0c-.01.08-.03.13-.03.17,0,.05-.22.25-.27.29-.05.04.15.4.16.46.01.06-.19.19-.19.19-.03.04.02.14.05.19.03.05.05.16.04.26-.01.09-.04.09-.08.19-.03.09-.01.28.01.45.03.17.11.23.15.3.05.07.06-.09.31.37.25.46,0,0,.1.23.11.23.16.16.27.27.11.11.13.2.2.19.07-.01.08.26.15.29.07.03.17.28.17.33,0,.04.02.05.19.14.04.02.11.04.28.07.17.03,0,0,.14,0,.15,0,.08.12.22.17.14.04.08.14.16.15.07.01.13,0,.25-.09.12-.09,0,0,.2-.08.2-.08.15.04.22.03.07-.01.19.02.35-.03.15-.05.13-.04.13-.04,0,0,.17-.09.34-.16.17-.07.06.07.15.04.08-.02.08.11.27.05.11-.04,0-.09.11-.13.06-.02.1-.08.2-.16.1-.08,0-.11.04-.22.04-.1.02-.05.09-.12.07-.07.04-.05.03-.53,0-.47,0-.12.17-.32.17-.2,0,0,.08-.12.08-.12.11-.04.27-.03.04,0,.33.02.51-.17.05-.05.15-.01.22,0,.08.02.4.11.46.09.05-.02.07-.02.24-.12.17-.1.14-.01.28,0,.13.02.09.08.24.22.15.14,0,.08-.06.23-.06.15-.06.05-.27.27-.22.21-.1.13-.16.23-.05.09-.01.19.03.34.04.15.02.11.01.2,0,.1-.04.07-.06.16-.02.1,0,.19,0,.23.02.04-.08.2-.08.2-.01-.05-.1-.26-.11-.36,0-.09-.07-.02-.14.04-.07.05.04.16.06.25,0,.04.07.1.08.16.01.05,0,.09-.12.11-.24.04.02.12.05.24.03.12.04.33.05.38,0,.06,0,.11,0,.18,0,.07-.12.12-.14.16-.02.04-.16.13-.18.34v.05c.01.25.22.06.33-.03.08-.07.12-.04.19-.05.03,0,.05-.01.09-.03.15-.07.09.01.26-.03.17-.04.12.06.28.03.16-.03.23.11.38.09.16-.02.14-.05.28-.08.14-.03.36-.05.45-.08.1-.02.17.06.32.08.14.02.08.1.11.14s.37.15.52.32c.04.04.08.11.16.22,0,0,0,0,0,0,.08.1.12.08.17.15.05.07.08.1.09.18,0,.08-.07.26-.07.3,0,.04-.07.22-.06.4,0,.18-.03.09-.07.16-.03.07-.02.19,0,.33.03.14-.03.15,0,.29.01.13,0,.2.03.29.04.08-.04.22,0,.25.04.02.05.08.27.3.03.02.05.04.07.06.04.04.04.07.1.18.06.11.07.15.16.26.09.11.13.14.19.18.06.04.1.1.15.16.05.05.2.1.29.15.09.06.13.13.37.13.25,0,.27-.03.27-.03.06,0,.13,0,.2-.02,0,0,.12.04.31-.02.19-.07.22-.04.29-.09.06-.05,0,0,.03-.18.03-.18.08.07.19-.1.1-.17.12.05.18.03.05,0,.11.04.3.12,0,0,.03.01.05.01h0c.02-.05,0-.04.03-.11.03-.06.03-.04.08-.07.05-.03.07-.12.12-.21.05-.09.06-.03.12-.03.05,0,.04,0,.09-.05.05-.05,0-.17,0-.29,0-.12-.03-.05.02-.1.05-.04.06-.1.11-.14.05-.03.09-.02.23-.03.13,0,.02.07.16-.1.14-.16,0,0,.07-.03.07-.03.06.02.18.04.11.02,0,0,.08,0,.09,0,0,0,.07-.06.07-.06.05-.04.13-.09.09-.05.08-.07.09-.1.01-.04.06-.09.13-.13.07-.04.08-.04.18-.04q.09-.01.17,0c.08,0,.07.07.08.11.01.04.03.06,0,.06-.03,0-.06-.01-.06-.01,0,0-.06-.07-.03-.03.03.03-.04.09-.07.12-.03.03-.11.01-.17.01-.07,0-.05.02-.05.08h0c0,.06.06.05.07.08.01.02.13.27.01.43-.11.15-.02.11,0,.17.01.06.12.2.17.22.05.02.09.07.17,0,.09-.07,0-.05,0-.19,0-.14-.04-.07-.05-.17-.01-.1-.15-.11-.17-.17q-.01-.07,0-.11s.03-.06.12-.1c.09-.04.15-.01.24-.09.1-.07,0-.04,0-.09,0-.05.05-.12.1-.2.05-.08.07,0,.15.01.09.01.03.09.07.14.04.05.01.09.05.1.04,0,.07.05.13.05s.18.03.25.04c.07,0,.06.11.06.11,0,0,.07.08.11.15,0,0,0,0,0,0,0,0,.02-.01.03,0,.07,0,0,0,.12.07.12.07.06,0,.26-.06.21-.06.05,0,.15,0,.09,0,.08,0,.15-.03.07-.03.04.04.12.07.08.03.02.06.12.08.1.02.13.06.18.05.05-.02.21.02.21.02l.11-.12c.12-.12.1-.02.2-.05.1-.02.09,0,.13.01.04,0,.16,0,.18-.03.01-.02.13,0,.22,0-.03.02-.07.05-.14.08-.16.09,0,0-.02.03-.02.03-.02.05,0,.11.02.06.15-.01.15-.01,0,0,0,.08.02.11.01.03.07.03.12,0,.05-.04.09-.08.12-.07.02,0,0,.05.02.09.02.04.03.06.1.03.06-.02.07,0,.12.01.05,0,.04.04.14.13,0,0-.03.08-.08.13-.04.06-.04.06-.05.11-.02.05.03.04.17-.04.04-.03.09,0,.17,0,.08,0,.1.07.16.09.05.03.04.08.07.08.01,0,.03,0,.04.01.03,0,.06.03.1.05.05.02.1.04.13.08.03.04.05.05.12.07.07.02.06.06.09.1.02.04.07.06.08.13.02.07,0,.03.03.13.02.06.09.02.15.01.06,0,.06.04.07.03,0,0,.2.11.25.17.05.06.06.09.17.15.02,0,.03.02.04.04.01.01.02.02.05.01.05-.02.04.01.13-.03.1-.05.08.04.12.03.03-.01.01-.05.07-.07.06-.02.07,0,.18,0,.11,0,.05.05.09.02.05-.03.09.06.16.03.07-.02.06,0,.1-.02.03-.02.1,0,.14.01.01,0,.02,0,.02,0,.05,0,.04.06.09.06.05,0,.02.04.09.04.07,0,.03.08.1.07.07-.01.09.05.15.08.06.03.11.05.16.07.05.02.2.15.25.17.02.01.08.07.11.12.02.03.04.05.04.05,0,0,.08-.01.16.09.08.11,0,.08.05.14.04.06.01.1.08.16.06.06.05.1.05.14,0,.04,0,.09,0,.12.01.03.01.11.05.1.03,0,.09.06.12.06.02,0,.11.07.14.08.02,0,.05.06.05.09,0,.03.02.12.02.12.06.21.01.03-.02.09-.03.06,0,.08-.01.12-.02.05-.04.05-.1.09-.05.04-.05.03-.16.08-.12.05-.03.03-.07.08-.04.06-.03.05-.06.1-.03.05.01.04.08.18.01.03.07.07.07.08-.01.02.04.07.08.08.03,0,.02-.07,0-.18-.02-.1-.05-.06-.05-.09,0-.03.05-.04.14-.12.09-.08.03,0,.16.02.12.03.12.05.17.03.06-.02.07,0,.12.01.04,0,.14,0,.22,0,.07,0,.04.06.04.1,0,.04,0,.09,0,.14-.01.05,0,.06-.01.11,0,.05-.02.07-.02.07,0,0-.12.07-.18.08-.06,0-.08,0-.2,0-.12,0-.07,0-.11,0-.04,0-.27-.09-.18-.01.06.04.06.06.09.06.03,0,.13.09.13.09,0,0,.09-.02.17-.04.07-.02.07.15.07.15v-.06c0-.06,0,0,.05-.04.04-.04.04,0,.06-.07.03-.07,0,0,.07-.08.08-.07.08-.03.14-.13.04-.07.05-.08.08-.16.03-.08.04-.02.08-.07.04-.05.1.01.14,0,.04-.01.03.05.07.01.03-.04.05-.02.09-.02.05,0,.04.08.09.07.05-.02.06.07.1.06.04-.01.08.07.12.06.03,0,.11.06.14.05.04-.02.11,0,.14.04.03.03.06.02.09.05.03.03.11.03.15.06.04.02.07,0,.13.05.07.06.08.04.12.18,0,.04,0,.03-.04.11-.04.08-.02.12.07.11.08,0,0-.03.05-.09.05-.06,0,0,.09.01,0,0,.09,0,.17-.06.09-.06,0,0,.07-.06.07-.06.05,0,.15.03.09.03.08.09.12.09.03.01.04.03.12.02.08-.01.12.08.2.09.07,0,.06.05.14.03.07-.03.08.02.15-.03.07-.05.08-.01.15-.04.07-.02.13,0,.18.03.05.02.08.02.1.05.02.03.15,0,.18.02.03.02.12.07.17.09.04.03.11.08.13.09.03,0,.11.1.17.13.06.03.1.07.12.08.03,0,.1.03.16.07.06.03.09.13.11.2.03.06.06.08.14.14.07.06.09.03.09.03,0,0,.12,0,.18,0,.06,0,.05.03.11.04.06,0,.13,0,.19,0,.06,0,.04.04.23.35.02.03.04.06.05.08h0s.02.03.02.04c.03.03.02.03,0,.01.01.03.01.07.03.12.02.07.01.12-.02.16-.03.04.01.12.03.18.01.06.02.07.03.1,0,.02,0,.12.02.16.01.04-.02.1-.04.15-.02.04-.02.1-.03.13-.01.03-.04.03-.08.11-.04.07-.04.07-.08.15-.03.08-.06.04-.12.1-.06.06-.28.26-.33.35-.06.09-.07.07-.1.08-.02,0,0,.09-.01.12,0,.03,0,.08,0,.08,0,0-.02.05-.03.07,0,.03-.06.09-.06.16,0,.07-.06.08-.13.13-.07.05,0,0-.07-.02-.07-.02-.03,0-.12,0-.09,0-.07.03-.07.03,0,0,.04.02.14.05.1.04.04.01-.06.03-.1.02,0,0-.08.02-.08.02.01.05.05.15.04.1.01.08.03.11.01.03,0,.09.03.17.03.09-.01.12.02.17.02.05-.01.17,0,.24,0,.07.08.17.1.24.02.07,0,.06-.02.19,0,.02-.02.09.02.15.05.06.01.19.02.22,0,.03-.02.13-.03.15,0,.02-.02.06-.09.08-.07.02-.03.06-.04.11,0,.04,0,.04.03.11.03.07,0,.04.03.33.02.28,0,.06-.05.1-.04.04,0,.05-.07.19-.08.14-.09.13-.09.2,0,.06-.07.1-.12.15-.04.05.01.16.02.21.01.05,0,.06-.13.19-.12.14-.05.02-.14.1-.02.02-.04.08-.05.14,0,.06-.07.07-.09.06-.02-.01-.06,0-.09-.03-.03-.04-.05.02-.11.05-.05.03-.1.01-.13-.02-.03-.03-.06.01-.08-.01-.02-.03-.06.02-.1.01-.04-.01-.12.03-.17.02-.06,0-.07.02-.11-.05-.04-.06,0,0,0,.08-.01.08-.05.05-.12.1-.07.06-.08-.01-.16.05-.08.06.11.11.11.11,0,0-.1,0-.15.02-.06,0-.04.04-.08,0-.04-.04-.1-.06-.1-.06-.04.01-.08.04-.12.03-.04,0-.07.03-.1.03-.03,0,0,.04-.07.12,0,0-.12.05-.25.21-.05.06-.06.08-.06.09,0,0,0,0,0,0-.04.02-.03.02-.07.03-.04.01-.13-.02-.19,0-.06.01.03.06.08.16.05.1-.01.04-.06.08-.05.04.01.06.06.12.04.06,0,.07.05.11.04.04.08.12.08.12,0,0-.01.12.02.15.03.04,0,.17.02.22,0,.04,0,.13-.01.17-.01.04-.03.03-.05.09-.02.05-.12.28-.12.28-.13.1-.11.17-.16.24-.05.07-.02.07-.03.2,0,.12-.02.08-.04.1-.02.03-.03.07,0,.14.02.08-.04.13-.07.16-.02.03-.05.07-.07.08-.02,0-.06.06-.12.09-.06.03-.08.1-.08.1,0,0-.11.09-.16.1.03.1-.03,0-.06.02-.03.02-.02.05-.03.09,0,.04-.02.11,0,.15.02.05-.02.14-.02.14,0,0-.08.07-.11.11-.04.04-.06.08-.09.15-.03.07-.05.09-.07.1-.02.02-.04.12-.07.2-.04.08-.06.07-.09.08-.02,0-.07.1-.07.1,0,0-.15.07-.27,0-.04-.01-.08,0-.15-.02-.07-.02-.04.01-.08.03-.03.01-.09-.01-.13,0-.03,0-.03,0-.12-.03-.03-.01-.12-.01-.17-.04-.05-.02-.12-.06-.14-.12-.02-.06-.08,0-.19-.06-.06-.03-.03,0-.08.01-.05.01-.13-.11-.16-.13-.03-.03,0-.05.02-.17,0-.02-.03-.19-.05-.25-.01-.06,0-.06-.01-.15,0-.08-.08-.23-.08-.23,0,.01,0,.07.03.15.04.08.02.08-.02.12-.04.04,0,.03,0,.09-.01.06.02.07.04.1.02.02-.03.06.02.21.05.14-.02.05-.02.11,0,.07.02.09.05.13.03.03.05.06.09.08.04.02.24.13.32.11.06-.01.07.1.1.11.03,0,.02.1.06.17.02.04-.03.07.02.18.04.11,0,0,.03.04.03.04.04.09.12.11.08.03.05.03.08.13.04.1.01.03.02.15.01.11.02.07.02.1s0,.06-.03.08c-.03.02-.04.08-.04.08,0,0-.02.1-.06.18,0,0-.04.05-.06.06-.03.02-.02.04-.04.07-.02.02-.07.07-.09.06-.03-.02-.06.08-.07.05-.02-.03-.07.02-.07.02,0,0-.09.01-.12,0-.03,0-.42.09-.54.11-.12.02-.17,0-.17,0,0,0-.05,0-.16,0-.11,0,0,0-.08-.02-.08-.01-.07-.05-.22,0-.03.02.05.07.11.17.08.1.01.09.03.14.01.05-.02.07-.02.22,0,0-.06.07-.06.11,0,.04.01.06.15.12.14.06-.05.07-.07.1-.01.03-.09.05-.1.06-.02,0-.09.01-.13,0-.04-.01-.09.01-.17,0-.08,0-.13-.08-.13-.14,0-.06-.1-.03-.24-.07-.14-.04-.1-.04-.12.01-.03.05.1.11.1.17,0,.06.01.07.01.12,0,.04,0,.09,0,.15,0,.06.04.05.07.15.01.03.09.07.18.1,0,0,.02-.08.06-.14.04-.06.1.04.19.05.08,0,.04.06.05.3,0,.23-.06.02-.11.02-.05,0-.02-.06-.14-.17-.05-.05-.04,0-.09,0-.04-.01-.05.02-.05.05,0,.03.17.18.17.18,0,0-.02.05-.12.09-.03.01-.01.2-.01.2-.01.03-.02.06-.03.1.02.03.05.06.07.08,0,0,.02.13.02.3,0,.17-.1.03-.12,0-.02-.02-.1.09-.2.15-.1.06-.08.01-.08.01,0,0-.08.05-.1.07-.02.02-.01.04,0,.07,0,.03,0,.14-.02.18-.02.04-.03.11,0,.2.03.09.1.11.14.17.03.06.13.07.16.08.04.01.12.02.16.01.04,0,.08.02.11.02.04,0,.05.06.1.15.05.09.02.06-.02.1-.04.03-.07.11.02.13.09.02.07.04.1.07.02.04,0,.08,0,.12,0,.04-.07.07-.13.16-.06.08-.13.08-.18.12-.04.04-.1.02-.12.08-.01.06-.04.3-.05.33,0,.03.07.18.07.2,0,.02-.07.03-.14,0-.07-.02-.07.04-.13.13-.05.09,0,.16-.05.15-.05-.01.02.08.04.13.02.05.03.16.05.18.02.03.08.12.14.18.06.06.15.19.21.23.06.04.05.08,0,.09-.05,0-.11-.02-.19-.07-.08-.04-.13-.05-.16-.04-.02,0-.03.02-.02.04,0,.01,0,.03,0,.05.02.05.05.06.14.09.08.03.11.1.15.12.04,0,.05,0,.1-.03.06-.04.1.08.14.09.04,0,.03.06.03.13,0,.07.03.08.06.1.03.03.15.18.2.2.04.02.1.07.14.05.04-.02.06.07.1.13.03.05.03.04.1.08.06.05.14.13.14.13,0,0,.11.05.18.05.08,0,.18.06.25.06.07,0,.05.08.05.08.02.01.03.03.05.04,0,0-.11.05-.14.08-.03.02-.15,0-.14-.03.01-.04-.09,0-.09,0,0,0-.08.02-.13,0-.04-.02-.07.02-.11,0-.05-.03-.07,0-.19-.07-.03-.02-.13.03-.18,0-.04-.03-.04.02-.16-.02,0,0-.02,0-.04-.01-.16-.05-.05-.02-.07,0-.02.01-.1,0-.16-.05-.06-.04-.08-.08-.08-.08,0,0-.1,0-.14,0-.04,0-.12-.02-.14,0-.01.03-.18-.08-.23-.06-.05.01-.06-.07-.02-.11.03-.04.09-.03.1-.05.01-.03.24.02.24.02,0,0,.07.04.14.01.07-.02-.02-.03-.03-.07-.01-.04-.16-.06-.18-.13-.02-.07-.04-.07-.06-.17-.03-.1.1,0,.1,0,0,0,.03-.05.02-.09,0-.04-.08-.02-.11-.04-.02,0-.15-.02-.2-.05-.04-.03.03-.15.15-.19.12-.04.02-.1.02-.1h0s-.08-.04-.16-.03c-.09.02-.02.07-.02.07-.02.02-.04.04-.06.05-.02.01-.04.03-.06.05,0,0-.05.09-.02.15.04.06.05.11.07.16.02.05-.04.13-.07.11-.03-.02-.14-.02-.24-.06-.1-.03-.04-.05-.08-.12-.04-.08-.04-.02-.05-.1,0-.08.02-.03.06-.09.04-.05.12.04.17.03.06-.01-.05-.09-.06-.12-.02-.02-.04-.05-.07-.13-.04-.08-.08-.04-.13-.07-.05-.04-.1-.02-.18-.11-.07-.09-.13.13-.14.01,0-.11-.05,0-.06-.07-.01-.07-.06-.04-.05-.09,0-.05.11,0,.08-.06-.02-.06-.03-.11-.03-.16,0-.05-.03.02-.05.04-.02.01-.07-.04-.1-.06-.03-.02-.08,0-.1-.03-.02-.01,0,.04,0,.12,0,.08-.05.02-.07.03-.02,0-.06-.02-.1-.09-.03-.06,0-.04-.03-.12-.02-.07-.08-.1-.16-.19-.08-.09-.03.01-.1,0-.07,0-.11-.03-.21-.1-.09-.07-.06-.03-.03-.07.03-.05.05.02.14-.06.05-.04.03-.06.03-.08,0-.03-.14-.1-.16-.12-.03-.03-.05-.08-.04-.14.01-.06.06-.01.06-.05,0-.04-.05-.06-.05-.06,0,0-.01-.11.01-.17.02-.06-.13-.14-.16-.2-.03-.06-.14-.08-.14-.08.03-.05.05-.11.08-.16-.03-.02-.03-.05-.03-.11,0-.07.09,0,.09,0,0,0,.11.02.19-.03.03-.02-.1-.07-.16-.13-.06-.05-.03,0-.09.03-.06.04,0-.04-.02-.09-.01-.05-.09.04-.16-.03-.07-.07-.07-.06-.08-.12,0-.06.12,0,.11-.08v-.09c-.02-.09-.04-.04-.04-.09-.01-.06-.09.1-.14.07-.04-.02-.03-.03-.03-.07,0-.04-.09-.05-.09-.05,0,0-.06.1-.08.12-.02.01-.14-.05-.2-.12-.06-.07.1-.04.14-.08.05-.04.05-.02.05-.07s-.03-.04-.05-.08c-.02-.03,0-.06.09-.14.03-.03.14.1.14.1-.05.01.02.07.14.1.05.02.05.07.05.12s.06-.02.06-.02c0,0,0,0,.05-.12,0,0,.04-.07.03-.13,0-.06-.06-.09-.07-.12,0-.03,0-.05.04-.11.04-.06.08.05.12.05.04,0-.1-.14-.13-.14-.03,0,0,0-.03-.19-.01-.08.1-.05.1-.05.01-.03.04-.07-.06-.16-.03-.03-.07-.04-.1-.1-.02-.06,0-.04-.02-.07,0-.03-.03-.09-.02-.12,0-.03,0,0-.04-.19-.04-.19,0,0,0-.04.01-.04,0,0,0-.06,0-.05-.01-.07-.03-.11,0-.04.07-.04.04-.08-.02-.04-.05-.05-.03-.1.02-.05,0,0,0-.08-.01-.08-.03-.04-.08-.12-.05-.07.04-.01.06-.07.02-.06-.02-.05-.09-.09-.07-.04-.06,0-.1.02-.03.02-.04.02-.15-.02-.03-.01-.06-.02-.1-.05-.04-.03-.06-.05-.09-.09-.04-.05-.05-.09-.07-.16-.02-.06,0,0,.03-.07.03-.07.01-.05.03-.14.02-.08-.03-.17-.03-.17v-.06c0-.07,0,0,.03-.07.02-.07.01-.05.01-.08,0-.02-.04-.08-.04-.08,0,0-.05-.14-.06-.17-.02-.03-.03-.08-.11-.18-.09-.09,0,0-.06-.13-.06-.13-.03-.05-.06-.16-.03-.12-.07-.12.03-.28.03-.05.04-.06.05-.13,0-.08.04-.02.05-.09.03-.06,0-.07,0-.17,0-.09-.03-.13-.02-.18.02-.05.04-.12.06-.21.02-.09.05-.06.04-.16,0-.11-.05-.08-.07-.16-.02-.08,0-.04.02-.12.02-.08.05-.08.05-.17s-.03-.03-.02-.07c.02-.04.02-.08.03-.15,0-.07.01-.07.01-.14,0-.06-.03-.08-.05-.16-.02-.07-.05-.08-.07-.16-.02-.07-.02-.16-.06-.23-.03-.07,0-.16-.06-.39l.02-.12s.02-.06.03-.16c0-.1-.03-.06-.07-.14-.04-.08-.06-.08-.07-.26h0s.01-.01.02-.03c.03-.1,0,0,0-.15-.01-.15,0-.04,0-.19.01-.15,0,0,0-.08,0-.08-.01-.08-.01-.2,0-.11,0,0,0-.09,0-.1-.02-.08,0-.16.01-.08-.04-.1-.06-.17-.02-.07.01-.09.04-.16.02-.07-.04-.5-.08-.67,0-.03,0-.05-.07-.23-.01-.06,0,0,.02-.22.02-.22,0-.04-.02-.14-.02-.1,0-.05,0-.2,0-.04.01-.07.03-.13,0-.06,0-.07-.05-.2-.05-.12-.03-.04-.07-.1-.03-.06-.03-.05-.04-.1-.02-.06,0-.07-.01-.14,0-.06,0-.07-.02-.1-.01-.03-.03-.07-.05-.12-.01-.04-.04-.13-.07-.19-.03-.06-.03-.12-.01-.15,0-.02,0,0-.08-.09-.01-.02-.03-.03-.05-.06-.13-.14,0,0-.12-.09-.03-.02-.11-.05-.18-.18-.01-.02-.06-.08-.14-.17-.07-.08-.14-.09-.17-.11-.02-.01-.07,0-.1-.02-.04-.02-.07-.01-.1-.04-.03-.03-.09-.05-.14-.09-.04-.05-.08,0-.13-.02-.05-.02-.09-.06-.14-.07-.05-.01-.27-.16-.32-.21-.04-.04-.08-.02-.2-.08-.03-.02-.07-.04-.08-.08,0-.03-.07-.07-.09-.09-.01-.03-.11-.01-.14-.06-.03-.05-.03,0-.08-.05-.05-.05-.04-.12-.04-.12-.06-.04-.12-.08-.17-.12-.04-.04-.05-.04-.07-.07-.03-.04-.01-.02-.02-.07,0-.04.02-.05.02-.11,0-.06-.03-.05-.04-.08-.01-.04-.05-.08-.06-.13-.01-.05-.05-.04-.12-.11-.07-.07-.03-.06-.08-.14-.05-.07-.06-.06-.08-.08-.01-.02-.07-.07-.09-.11-.02-.04-.04-.09-.07-.14-.02-.05-.06-.05-.1-.08-.04-.04-.11-.14-.14-.18-.03-.04-.02-.01-.04-.06-.02-.05-.08-.12-.13-.22-.05-.1-.07-.11-.09-.16-.02-.06-.05-.09-.06-.14-.01-.05-.05-.05-.07-.07-.02-.03-.05-.03-.07-.05-.01-.01-.03-.02-.05-.04-.02-.02-.03-.03-.05-.06-.02-.03-.03-.05-.07-.08-.02-.03-.02-.03-.03-.05-.01-.02-.1-.13-.11-.18,0-.04-.07-.07-.08-.08,0-.01-.05-.07-.07-.09-.01-.03-.02-.04-.03-.08,0-.03-.07-.06-.09-.09-.03-.02-.08-.07-.08-.09,0-.02-.06-.02-.08-.03-.02,0-.03,0-.04,0-.01,0-.1-.02-.16-.07-.06-.06-.1-.05-.1-.09,0-.04,0-.02,0-.06s0,0,.04-.03c.04-.03.01-.02.01-.06,0-.04-.01-.02-.04-.09-.02-.06-.03-.03-.08-.06-.05-.03-.03-.03-.06-.08-.03-.06-.03-.03-.05-.11-.02-.08-.01-.03-.01-.06,0-.04.01-.07.02-.1,0-.03,0-.12.02-.15.01-.03.04-.04.1-.1.06-.05.02,0,.06-.04.03-.03.07-.03.09-.04.01-.01.05-.03.06-.04h0s.09-.07.11-.13c.02-.06-.02-.06-.02-.06,0,0,.03-.15,0-.19-.01-.02-.03.07-.05.11-.01.03-.03.06-.04.09-.01.03-.07,0-.07,0,0,0-.04-.02-.05-.07,0-.05-.06-.04-.1-.07-.04-.03-.04-.04-.04-.06,0-.03,0-.02.03-.04.02-.02-.06-.03-.09-.08-.03-.05,0,0,.02-.04.02-.04-.02-.03-.03-.08,0-.05,0-.02.02-.07.01-.05.05-.08.06-.1.01-.02,0-.12,0-.16,0-.04,0-.04-.02-.08,0-.03-.02-.03-.01-.06,0-.03.03-.04.09-.09.05-.06.04,0,.03-.04,0-.04-.01-.02-.02-.04-.01-.03,0-.03-.04-.07-.04-.03-.01-.05-.02-.09,0-.04,0-.02.03-.05.03-.03.03,0,.04-.01.02-.01.08,0,.1-.01.02,0,.02-.02.03-.03.01-.02.08-.05.1-.05.03-.01.06,0,.09,0s.06,0,.06-.02c0-.03-.04-.05-.04-.09,0,0,0-.01,0-.02,0-.02.02-.05.02-.06,0-.01-.01-.06.01-.06.02,0,.02,0,.02-.03,0-.03,0-.08,0-.13,0-.05.06-.07.09-.08.03-.01.02,0,.05-.02.03-.01.07.02.12-.02.06-.04,0,0,.02-.04.02-.04,0,0,.04-.02.03-.02.03-.02.04-.06.02-.04.02-.03.03-.07.02-.04.01-.04.04-.08.02-.03.05-.04.07-.1.03-.06,0-.02-.01-.04-.02-.02-.06-.12-.05-.17,0-.04,0-.08,0-.12,0-.05,0-.08,0-.12,0-.03-.03-.06-.06-.11-.03-.05-.04-.02-.05-.07,0-.05.03-.08.03-.12,0-.03-.03-.12-.03-.15,0-.03-.02-.06,0-.11.02-.04-.03-.05-.03-.08,0-.03-.05-.04-.07-.08-.02-.04-.03-.03-.03-.05,0-.03,0-.04,0-.04,0,0-.01,0-.03-.02-.01,0-.03.02-.04.02-.05.04-.09.09-.13.05-.05-.04-.06-.12-.08-.17-.02-.04-.11.05-.11.05,0,0-.02.02-.06.05-.04.03-.02.06-.03.09,0,.04-.01.04-.03.12-.02.08-.07.09-.09.08-.02,0-.2.09-.19.11,0,.01.05.13.06.16.01.03.1.12.13.14.03.02,0,.07-.06.19-.03.01-.06.03-.09.04-.04.01-.07.02-.11.04,0,0-.19-.03-.21-.05,0-.02-.01-.05,0-.08,0-.03-.12-.14-.14-.18-.02-.04-.07-.02-.09-.02-.02,0-.07.02-.09.01-.02-.02-.11,0-.1-.05,0-.04-.04-.12-.04-.12,0,0-.07,0-.08-.02,0-.03-.09-.07-.12-.11-.02-.03-.12-.05-.17-.06-.06-.01-.19-.02-.39-.05,0,0-.06-.06-.18-.1-.11-.04-.05-.02-.09-.04-.04-.02-.03.04-.03.07,0,.03-.1,0-.15.01-.05.02,0-.07-.07-.1-.02-.01-.09,0-.1-.06-.01-.04-.03-.03-.05-.07-.02-.04-.06-.03-.05-.08,0-.05.03-.03.02-.1,0-.06-.03-.03-.03-.05,0-.02-.1-.07-.1-.12,0-.05-.09-.03-.12-.06-.03-.03-.1-.03-.13-.05-.04-.02-.06,0-.09.01-.03.01-.07-.05-.08-.08-.01-.03-.07,0-.09-.02-.02-.01-.04-.04-.06-.07-.02-.02-.03-.06-.06-.14,0-.03-.17-.15-.14-.08.04.07.1.1.1.12,0,.02,0,.13,0,.13v.05s-.14-.05-.16-.07c0-.02-.17-.1-.17-.1l-.08-.02s-.07-.03-.1-.02c-.03,0-.08-.08-.12-.12-.03-.03-.04-.09-.05-.15,0-.05-.01-.13-.03-.15,0-.02-.03-.23,0-.25,0,0,0-.01,0-.02,0-.03-.04-.06-.04-.09,0-.04-.08-.08-.09-.1-.01-.02-.07-.07-.08-.09,0-.02-.14-.05-.21-.1q-.07-.06-.09-.08s-.12-.09-.15-.16c-.03-.08-.08-.08-.07-.09.01-.01-.12-.11-.13-.16-.01-.05-.21-.13-.26-.16-.02-.02-.05-.04-.08-.06-.02-.02-.05-.05-.04-.07,0-.04.01-.1,0-.16,0-.06-.08-.03-.12-.05-.03-.02-.28-.03-.37-.02-.09,0-.26-.03-.28-.04-.02,0-.23-.02-.23-.02,0,0-.19-.04-.24-.08-.05-.04-.11,0-.15-.02-.04-.03-.19-.05-.28-.13-.09-.07-.09-.05-.14-.08t0,0c-.06-.04-.16-.06-.21-.07-.05-.01-.17,0-.19.02-.02.02-.1-.04-.1-.04,0,0-.59-.23-.67-.23-.04,0-.09-.03-.12-.06-.02-.02-.04-.05-.04-.06,0-.03-.09-.14-.1-.16,0-.03-.1-.1-.17-.23-.08-.13-.05,0-.15-.05-.09-.04-.08-.04-.1-.07-.02-.03-.11-.08-.13-.1-.03-.02-.13-.08-.15-.09-.03,0-.27-.2-.31-.21-.05-.02-.14-.05-.26-.1,0,0-.18-.06-.26-.09-.08-.02-.06-.02-.15-.01-.08,0-.03,0-.06.04-.02.03-.08.04-.1.05-.02,0-.08.02-.24.1-.16.09-.19.06-.24.08-.06.02-.04.01-.07.03-.03.02-.17.03-.19.03s-.15-.03-.18-.03c-.03-.01-.19-.07-.23-.05-.03.03-.22-.03-.22-.03,0,0-.54-.19-.63-.23-.09-.05-.12-.03-.17-.06-.05-.03-.09-.03-.15-.05-.05-.02-.09-.04-.11-.07-.01-.03-.1-.05-.1-.05,0,0-.14-.05-.17-.06-.03-.01-.14.02-.2-.01-.06-.03-.07-.03-.07-.03-.05-.02-.1-.04-.15-.06-.06,0-.11,0-.17,0,0,0-.11-.07-.14-.08-.03,0-.07-.07-.24-.1-.17-.03-.12-.05-.15-.07-.03-.02-.08-.04-.08-.04,0,0-.18-.09-.18-.12,0-.02-.13-.08-.14-.11-.01-.03-.15-.1-.18-.14-.03-.03-.15-.02-.15-.02,0,0-.16-.06-.18-.09-.02-.02-.25.05-.36-.02-.1-.06-.11-.06-.18-.09-.06-.02-.06,0-.1-.02-.04-.02-.14-.05-.17-.09-.04-.04-.06-.05-.09-.1-.03-.05-.08-.03-.08-.06,0-.03-.12-.12-.18-.14-.05-.02-.13-.09-.15-.12-.02-.03-.13-.04-.18-.05-.04-.01-.1.03-.13.02-.02,0-.1-.1-.13-.12-.03-.02-.14-.11-.17-.12-.03-.01-.04-.15-.07-.2-.03-.06-.14-.17-.16-.2-.02-.03-.07-.11-.1-.17-.04-.07,0-.03.04-.07.04-.04.05-.05.11-.15.03-.05,0-.05-.02-.08-.01-.02-.02-.11-.01-.17,0-.07,0-.03.02-.07.03-.04-.01-.08-.02-.1,0-.02-.04-.06-.05-.09,0-.04-.07-.08-.12-.13-.04-.05-.04-.01,0-.06.05-.05,0-.05,0-.09,0-.04-.06-.11-.07-.21-.02-.1-.08-.1-.11-.12-.01-.02-.07-.12-.07-.14,0-.03-.31-.2-.31-.22,0-.02-.14-.15-.12-.18.01-.03-.11-.12-.27-.2-.16-.08-.06-.05-.08-.11-.03-.06-.08-.05-.1-.11-.02-.07-.1-.05-.14-.08-.04-.03-.09-.03-.1-.05-.02-.02-.08-.02-.1-.06-.01-.03-.15-.08-.17-.13-.02-.05-.09-.07-.1-.11,0-.04-.01-.03,0-.09.01-.06,0-.07,0-.11,0-.04-.04-.05-.08-.08-.03-.03-.1,0-.1,0-.03,0-.06,0-.09-.01,0,0-.11-.12-.14-.15-.03-.03-.09-.03-.09-.03,0,0-.13-.06-.15-.08-.02-.01-.09-.02-.1-.04-.02-.02-.12-.06-.12-.06,0,0-.08-.09-.08-.14,0-.05,0-.04.03-.09.04-.05.03-.06.07-.14.04-.08-.03-.07-.04-.1-.01-.04-.07-.03-.07-.03,0,0-.11-.05-.19-.13,0,0-.07-.03-.11-.11-.05-.09-.09-.08-.1-.1,0-.02-.09,0-.12-.04-.03-.03-.06,0-.08,0-.02-.01-.08-.03-.09-.05,0-.02-.04-.22-.03-.24,0-.02-.05-.09-.05-.09-.03,0-.06-.02-.08-.02,0,0-.13-.04-.18-.06-.05-.02.05,0-.05-.07-.1-.07-.12-.04-.15-.05h0c-.04.26-.07.53-.1.8h0c.07.03.06.1.14.17.08.07.06.08.11.15.04.06-.07,0-.07,0,0,0,.22.19.22.23s-.04.02-.16.08c-.12.06-.03.05.06.08.09.03.06.07.13.08.07.01.02.1.02.1,0,0,.08.1.11.11.03,0,.09.07.1.1,0,.03.03.09-.05.16-.03.03-.01.05-.03.09-.01.04.02.07.06.14.04.07.08.06.1.05.02,0,.12.07.14.1.02.03.15.03.19.03.03,0,.12-.02.15.05.03.08.02.03.06.11.04.07,0,.05.02.1,0,.05.02.06.05.1.03.03.07.09.09.11.02.02.06.08.06.08,0,.03,0,.07.01.1,0,0-.16.13-.18.13-.03,0-.1.02-.21-.02-.03-.01-.04-.05-.05-.17-.02-.12-.03-.04-.09-.1-.05-.06-.07-.03-.1-.07-.03-.04-.09-.07-.12-.1-.02-.03-.12-.05-.16-.06-.04-.01-.06-.09-.08-.12-.02-.02-.22-.14-.29-.2-.06-.06-.11-.1-.22-.15-.11-.05-.1-.04-.19-.07-.09,1.05-.15,2.11-.15,3.18,0,19.42,15.75,35.18,35.17,35.18,13.3,0,24.88-7.39,30.86-18.29,0,0,0-.01,0-.01-.01-.04-.02-.14-.02-.22,0-.05,0-.1,0-.12,0-.04,0-.32-.17-.46,0,0-.01-.02-.02-.02-.18-.14-.33-.46-.41-.47-.05,0-.08-.03-.15-.12-.05-.06-.12-.16-.22-.32-.26-.38-.64-.85-.69-.82-.05.03-.12-.26-.2-.27-.08,0-.23-.35-.26-.42-.02-.07,0-.27-.03-.41-.01-.13-.02-.37.05-.45.08-.08.25-.1.22-.3-.03-.2,0-.25,0-.41-.02-.15,0-.24-.03-.33-.03-.09,0-.19.03-.24,0-.01.01-.02.02-.04.06-.09.16-.27.13-.27-.04,0,0-.41-.06-.45-.05-.03-.15-.38-.19-.39-.04-.01-.09-.22-.17-.19-.08.03-.18.11-.23.09-.05-.01-.11-.13-.16-.17-.04-.03-.09-.08-.11-.15,0-.03,0-.06,0-.09.02-.11.12-.19.02-.16-.09.03-.3.11-.37.15-.08.04-.23.09-.3.12-.07.03-.17.05-.29,0-.12-.04-.58-.06-.62-.02-.03.04-.09-.07-.2-.13-.11-.05-.18-.18-.2-.28-.03-.1.05-.28-.03-.3-.07-.02-.05-.26-.2-.23-.15.03-.19-.14-.28-.16-.1-.02-.09-.15-.25-.2-.16-.05-.29,0-.46,0-.09,0-.16.01-.22.02-.05,0-.08.01-.08.01,0,0-.03-.16-.17-.05-.13.11-.54.13-.54.13,0,0-.03.02-.14.04-.01,0-.02,0-.03,0-.08.02-.11.02-.2.07-.09.05-.24.12-.33.12-.09,0-.13.04-.19.1-.01,0-.02.02-.03.02-.06.05-.12.07-.19.1-.08.03-.08,0-.24.04-.16.04-.19,0-.24.02-.05.02-.06.03-.15.12-.09.09-.19.12-.34.17-.15.06-.33.2-.33.2,0,0-.05.07-.11,0-.05-.06-.05-.24-.25-.27-.12-.02-.23-.04-.31-.06-.05-.01-.09-.02-.12-.03-.07-.02-.14-.05-.29-.02-.15.03-.56-.02-.65.02-.08.04-.19-.05-.37.02-.18.06-.25,0-.38.08-.12.09-.27.08-.34.12-.07.04-.07-.05-.18.07-.1.11-.2.15-.43.26,0,0-.02,0-.02.01,0,0-.19-.02-.24-.03-.05-.01-.29-.12-.34-.15-.05-.03-.25-.07-.28-.1-.03-.02-.19-.14-.22-.16-.03-.02-.15-.09-.17-.13,0-.04-.17-.14-.17-.14,0,0-.15-.05-.19-.1-.03-.06-.14-.15-.2-.21-.06-.05-.19-.15-.29-.28-.1-.13-.4-.23-.4-.23,0,0-.15-.04-.25-.1-.01-.01-.03-.02-.04-.03-.09-.06-.17-.25-.2-.27-.03,0-.21-.11-.24-.12-.03,0-.03-.11-.08-.11s-.18-.01-.18-.01c-.03-.04-.05-.08-.07-.12,0,0,.01-.14,0-.19,0-.05-.12-.29-.16-.33-.04-.03-.11-.15-.16-.19,0,0,0,0,0-.01-.02-.03-.05-.09-.14-.21-.26-.35-.53-.59-.53-.59,0,0-.1-.05-.15-.08-.05-.03-.13-.14-.18-.18-.05-.04-.12-.18-.12-.18-.02-.01-.04-.03-.06-.05-.08-.07-.13-.15-.16-.15-.03,0-.08-.06-.09-.09,0-.03,0-.14,0-.14,0-.05,0-.11,0-.17,0,0-.11-.11-.16-.1-.05.01-.17-.07-.21-.02-.04.05-.09.01-.13.03-.04.02-.12-.02-.15-.06-.04-.04-.01-.13-.05-.13-.04,0-.14-.04-.14-.04,0,0-.03-.06-.05-.1-.01-.02-.02-.03-.03-.04-.01-.02,0-.11,0-.11-.01-.07-.02-.14-.03-.22,0,0-.05-.08-.04-.14.02-.06.03-.11.07-.17.05-.06.11-.11.08-.1-.03,0-.03-.23-.03-.23,0,0-.15-.22-.22-.21-.06,0-.06-.12-.1-.15-.04-.03-.09-.2-.13-.21-.04-.01-.03-.14.04-.19.07-.05.22-.22.24-.25.02-.03-.03-.14.04-.19.07-.05.1-.34.1-.34,0,0,.01-.06.03-.11,0-.03.02-.07.03-.07.03-.02.03-.1.03-.31,0-.21.15-.37.15-.37,0,0,.09-.16.09-.19,0-.03-.09-.34-.09-.34-.03-.09-.05-.18-.08-.27,0,0-.04-.12-.07-.15-.04-.03-.1-.15-.1-.15,0,0-.03-.11.05-.16.06-.05.14-.16.13-.19,0-.03-.18-.45-.23-.45-.04,0-.18-.33-.28-.27-.1.07-.11.06-.14.05-.03-.01-.07-.11-.02-.27.01-.03.02-.06.03-.1h0c.04-.15.08-.3.08-.33,0-.05.05-.12.07-.18.03-.06.09-.13.2-.22.11-.09.24-.43.26-.48.03-.06.05-.17.07-.26.02-.09,0-.13.04-.18.03-.05.07-.17.12-.21.05-.04.12-.11.15-.14.03-.03.13-.15.15-.18.02-.03.18-.22.18-.22,0,0,.1-.24.12-.27.02-.03.08-.24.08-.24,0,0,.01-.22.05-.23.04,0,.2-.18.2-.18,0,0,.18-.12.21-.13.03,0,.22-.19.22-.19.03-.06.06-.11.1-.17,0,0,.04-.27.09-.33h0c.05-.07.16-.23.21-.23.05-.01.67-.25.71-.24.04,0,.16-.05.23-.1.07-.05.14-.12.19-.15.05-.03.13-.13.13-.13.03-.04.05-.08.08-.12,0,0,.02-.07.09-.1.07-.03.13-.02.2-.1.07-.08.09-.13.13-.16.04-.03.11-.15.14-.18.03-.03.1-.16.13-.2.03-.04.06-.07.05-.12-.01-.05.02-.25-.02-.25-.05,0-.05-.1-.04-.17.01-.07.18-.83.18-.83,0,0,0-.12.02-.16.03-.04.15-.21.16-.24.02-.03.09-.16.16-.21.06-.05.08-.11.2-.21.11-.1.19-.23.22-.23.03,0,.15-.11.17-.08.03.03.26-.07.26-.07.1-.04.2-.07.3-.11,0,0,.12-.17.15-.15.04.02.14-.13.17-.14.03-.01.08-.12.09-.15.01-.03.05-.12.07-.16.02-.04.06-.13.06-.13,0,0,.16-.3.18-.37.02-.07-.02-.07.03-.16.05-.09.09-.16.12-.18.03-.02.09-.11.09-.08s.12.03.13.09c.01.06.09.05.09.12,0,.07.31.1.33.18.02.08.26.02.26.06,0,.04.16.08.21.08s.28-.04.28-.04c.03-.02.07-.03.11-.05,0,0,.1-.04.15-.03.05.01.1-.08.16,0,.06.07.04.05.08.11.04.06.2-.04.22,0,.02.04.09,0,.11.08.02.07.04.01.12.04.08.03.15-.01.18,0,.03.02.14-.03.14-.03.05-.04.1-.08.15-.12,0,0,.1-.12.13-.15.03-.03.11-.1.15-.12.04-.02.1-.12.14-.11.03.01.52-.16.52-.16,0,0-.01.07.04.08.05.01.21-.13.27-.15.05-.02.12-.08.17-.11.05-.03.09-.13.14-.12.05.01.11-.12.25-.1.14.02.62-.03.66-.03s.24-.1.32-.11c.07,0,.17-.12.21-.1.04.02,0,0,.1-.02.11-.01.27-.04.3-.02.03.02.27-.03.27-.03.18.02.37.04.56.05.02.03.05.07.08.1,0,0,.1.08.13.09.14.02.41-.16.41-.16,0,0,.1-.1.14-.11.04-.01.12-.07.16-.07.04,0,.18,0,.21.05.03.04.08,0,.12.03.04.03.19-.06.22-.03.03.03.09-.05.11-.02.02.03.07-.1.14.02.07.12.14.07.19.11.04.04.19-.04.22-.02.01,0,.02,0,.05,0,.14-.03.55-.18.55-.18,0,0,.09-.07.12-.08.03-.01.17-.12.21-.1.03.02.06-.06.15.02.09.08.2.06.21.13s.03.17.04.24c0,.07-.12.09,0,.07.12-.02.29-.19.31-.2.03-.01.12.06.12.06-.03.16-.11.19-.16.29-.05.09-.08.1-.11.17-.03.07-.07.06-.07.13s.06.11.11.16c.05.05.25.35.25.39v.15c0,.07,0,.08-.02.14-.03.06-.06.15-.12.21-.06.06-.16.11-.18.14-.02.03-.16.06-.18.11-.02.05-.05.09-.11.14-.05.05-.11,0-.07.09.04.08.08.07.14.15.06.08.11.09.17.11.06.02.11-.08.11-.08,0,0,.13-.03.17.01.04.04.08.14.11.18.03.04.09.1.15.15.02.02.05.04.08.05.05.03.11.06.16.08.06.03.12.02.17.08.05.06.15.11.15.11,0,0,.04.03.12.03s.19-.06.22-.02.41-.04.41-.04c.13.03.27.05.4.08,0,0,.36.25.42.26.06.01.2-.04.24-.02.05.02.09.07.11.11.02.04.01.05.06.16.05.11.15.17.16.28.01.1-.04.18.03.2.07.02.18-.02.2.05.02.07.01.06.11.06.1,0,.27-.08.28-.04.01.04.45.12.45.12,0,0,.16,0,.19.04.03.03.19.02.26.1.07.08.15.06.2.1.04.03.09.06.15.1-.42-1.91-.99-3.76-1.7-5.54-.05.01-.1.02-.1,0ZM23.08,4.31c-.15.14-.22.24-.44.33-.22.1-.19.13-.39.03-.2-.1-.18-.09-.16-.2.03-.11.2-.18.31-.3.1-.12.23-.04.29-.12.02-.03.3-.08.49-.13.19-.06.09,0,.21.14.12.14-.17.11-.31.25Zm1.65.42c-.09.16-.14.28-.27.44-.13.16-.08.03-.17-.09-.09-.12-.07-.14-.05-.32.02-.18.07-.21.19-.27.2-.1.34-.13.42-.07.08.06-.03.15-.12.31Zm1.37-1.14c-.06.13-.04.03-.14.02-.09,0-.1-.04-.27-.06-.16-.02-.08-.12,0-.19.07-.05.21-.09.28-.1.07-.01.1.03.17.08.06.04.01.11-.05.25Zm.53-.23c-.1.05-.35-.07-.27-.2.02-.03.12-.09.21-.11.08-.03.12.03.2.16.08.13-.03.1-.14.16Zm5.65,14.4c-.11-.04-.08-.14-.12-.2-.03-.06.11-.17.2-.19.03,0,.07.07.05.12-.02.06.02.07.05.14.02.07.08.16.06.23-.02.08-.12-.06-.23-.1Zm-6.07,17c.07-.03.13-.05.19.03.06.07-.03.06-.03.06,0,0-.12.02-.18,0-.06-.02-.02-.08.02-.1Zm-.42.77c.11-.04.49.04.42.1-.08.06,0,0-.05.07-.05.07-.15.06-.24.05-.09,0-.12-.02-.16-.07-.05-.04-.02-.12.04-.15Zm-.41-.98c.34-.06.21.21.21.21,0,0,.02.14-.11.19-.13.05-.06,0-.05-.11,0-.11.1-.08.08-.17-.02-.08-.22-.11-.14-.13Zm-.53-.5c.09.02.04.08.07.15.03.08.01.13-.03.17-.04.03-.05-.03-.13-.12-.08-.08-.03-.08-.12-.11-.09-.02-.03-.11,0-.15.05-.06.11.04.2.06Zm-.41-.76c.05-.03.09.06.16.1.06.04.02.04.02.12,0,.08-.02.16-.08.18-.06.01,0-.04,0-.15-.01-.11-.03-.11-.07-.15-.05-.03-.06-.08-.02-.11Zm-.15.73s-.07.02-.14-.02c-.07-.04,0,0,0-.07,0,0,.16,0,.13.09Zm-.33-1.24c.08,0,.09.08.14.14.04.06.06.09.07.19,0,.1-.03.06-.11.04-.07-.02-.06-.14-.09-.21-.03-.06-.25-.06-.23-.12.04-.12.14-.05.22-.05Zm-.76-.86c.17-.05.24-.04.27.01.03.05-.01.04,0,.12.01.08.02.14,0,.21-.03.07-.12.12-.12.18,0,.08-.08-.11-.03-.19.04-.08,0-.12.01-.18.02-.05-.21-.13-.13-.15Zm.03,1.71c.09-.03.03.07-.1.22-.06.06-.09-.06-.11-.16,0,0,.13-.04.21-.06Zm-.14-.4c.05.08.05.11,0,.28-.05.17-.07.04-.15-.03-.08-.07-.03-.06-.15-.1-.12-.04,0-.1-.02-.21-.02-.11.02-.23.06-.32.03.03.07.07.1.1,0,0,.11.19.15.28Zm-.65-1.32c.05-.15.22-.05.32-.06.1-.01.19.07.14.1-.06.03-.13-.02-.23.04-.11.07-.24.16-.28.08-.01-.04,0,0,.05-.15Zm-2.55,3.41c-.15.02-.09-.03-.15-.11-.06-.08-.05-.18.08-.22.14-.04.27.14.28.28,0,.14-.06.04-.2.05Zm4.4,2.29c-.12.05-.3.05-.4.06-.1.01-.09-.06-.23,0-.14.07-.11.15-.22.08-.12-.07-.15-.06-.26-.14-.1-.09-.21-.13-.23-.27,0-.04.27-.12.38-.12.12,0,.29-.03.46.06.18.09.12-.05.31.13.19.19.31.13.19.19Zm.89-1.18s-.21-.09-.21-.09c0,0-.18.21-.22.12-.04-.08-.17-.11-.25-.11-.08,0-.4.05-.48.05s-.18-.03-.39.02c-.21.05-.39,0-.32-.05.07-.05.19-.15.24-.25.04-.1-.04-.15-.1-.18-.06-.03-.25-.02-.31-.05-.06-.03-.34-.21-.38-.27-.03-.06-.08-.26-.2-.3-.12-.04-.12-.1-.29-.06-.17.04-.06.22-.31-.03-.24-.25-.22-.26-.36-.25-.14.01-.37-.02-.61-.05-.24-.03-.25-.07-.35-.11-.1-.04-.19.05-.18-.07,0-.13.05-.17-.02-.21-.08-.04-.16-.11-.31-.05-.15.05-.21,0-.26.12-.05.12-.17.14-.27.16-.32.07-.35-.1-.46.04-.11.14-.23.22-.23.22-.05-.08-.16-.35-.11-.37.06-.03.07-.09.24-.15.17-.05.16-.12.26-.16.1-.04.08-.08.22-.07.13.01.17-.04.24-.02.07.02.19-.03.31-.03.11,0,.07-.01.19-.01.12,0,.08-.06.27-.03.19.01.29.01.38.03.09.01.29.04.42.08.13.04.25-.05.43,0,.18.06.14.04.19.14.04.1.09.16.15.19.06.03.16,0,.22.03.06.03.25.03.25.03.14.16.21.1.28.21.08.11.18-.04.26.01.09.06.14.1.3.2.16.1.17.03.31.13.14.09.19.06.24.16.05.1-.04.05.13.08.17.03.24.07.3.09.06.01.19-.04.2.04.02.08-.02.22.07.24.08.02.11-.07.26,0,.15.07.19.03.29.11.09.09.02.04.13.16.11.11.11-.06.11.11,0,.17-.25.24-.29.19Zm3.77.85c-.13,0-.31,0-.41.03-.1.02-.27,0-.35.03-.07.03-.23-.02-.27.03,0,0-.26-.02-.3.02-.04.04-.17.11-.17.22,0,.11.12.25,0,.18-.12-.07-.26-.13-.33-.19-.08-.06-.03-.07-.15-.09-.12-.01-.19-.03-.3-.02-.12.01-.19-.01-.28-.02-.09,0-.23.05-.33.01-.1-.05-.12-.07-.18,0-.07.08-.16.07-.16.07-.04-.04-.09-.08-.14-.13-.06-.07-.18-.17-.1-.22.09-.06.36-.15.46-.09.11.06.31.09.4.13.09.05.12.07.24.06.11-.01.29-.01.24-.09-.05-.08-.18-.06-.24-.17-.06-.11-.15-.11-.11-.21.04-.1-.02-.2-.07-.23-.04-.03-.16.01-.19-.07-.03-.08-.17-.13-.07-.19.1-.07.15-.18.35-.12.19.06.2.18.34.21.14.03.19.02.27.05.09.03.09,0,.29-.02.2-.03.18-.06.3-.01.12.04.3-.11.36.03.07.14.07.14.17.21.02.01.02.01.03.02-.01,0-.05-.05.26.08.44.19.63.21.64.3.03.21-.06.18-.19.18Zm2.07.36c-.11.04-.17-.01-.23.03-.06.04-.09,0-.24.05-.15.05-.24.04-.29.04-.04,0-.13-.11-.13-.11-.04-.1-.17-.21-.03-.25.14-.04.36-.05.51-.03.14.02.17,0,.3.02.13.02.12,0,.17.1.05.1.07.12-.05.16Zm.83.59s-.12.02-.21,0c-.08-.01,0-.07.06-.11,0,0,.12,0,.17.03.04.04-.01.04-.01.08Zm1.04-.29c0,.06-.04.09-.1.09-.07,0-.05-.13-.02-.18.04-.07.13,0,.13,0,0,0,0,.03,0,.09Zm.15.55c-.05-.03-.12-.1-.05-.13.09-.04.2.05.19.11-.01.06-.09.05-.14.02Zm.48-20.7s-.04.06-.12.17c-.07.11-.07.1-.15.14-.07.04-.14.03-.18-.03-.04-.05-.15-.06-.19-.04-.04.02-.2,0-.27-.09-.07-.09-.02-.17.02-.2.05-.03.51.05.74,0,.24-.06.1.02.14.06Zm.38-2.08c-.09.02-.21-.04-.31-.05-.1-.01-.27-.07-.32-.09-.06-.03-.2-.12-.26-.16-.05-.04-.19-.15-.38-.17-.18-.03-.25-.19-.25-.19.08-.09.4-.08.55-.06.15.03.22.04.3.04.07,0,.26.06.33.1.07.04.41.28.5.31.08.02,0,.17,0,.17,0,0-.06.08-.15.1Zm.47,2.38c-.14.05-.12.06-.22.04-.09-.01-.17-.05-.15-.12,0,0,0-.01.03-.07.05-.05.32-.4.43-.46.11-.06.13-.23.22-.07.09.16.23.05.1.26-.12.21-.26.37-.41.42Zm-.04,22.69c-.1,0-.09-.23-.02-.25.25-.07.12.26.02.25Zm0,.32s-.17-.03-.1-.1c.07-.05.12.06.1.1Zm0-1.06s.12.14.11.24c-.02.1-.1.04-.17,0-.07-.03-.09-.1-.09-.25,0,0,.11-.03.16,0Zm-.51-.79c.02-.07.02-.17.04-.22v.05s.06-.04.11-.02c0,.06-.02.14-.05.19-.04,0-.07,0-.11,0Zm.17,2.61c-.09,0-.07-.24-.02-.19.14.11.1.2.02.19Zm0-2.07s-.05-.19-.02-.23h0s.06-.03.11,0c.05.04.08.08.08.13,0,.04,0,.09-.05.11-.03,0-.08.02-.11,0Zm.37,3.25c-.15,0-.11.01-.22,0-.11,0-.02-.07.02-.15.04-.09.07-.23.18-.29.14-.08.2.09.2.3,0,.21-.04.13-.18.13Zm.61-24.86c-.13.08-.16.08-.25.15-.09.07-.22.07-.22.02-.01-.06-.03-.07.03-.14.04-.06.02-.23.19-.27.17-.04.27-.16.3,0,.03.15.09.18-.04.24Zm4.77-1.28c-.03.07-.07.03-.11.13-.03.1-.05.12-.07.19-.02.07.07.03-.05.14-.12.11-.26.12-.26.12-.05-.09-.1-.18-.15-.28-.1.04-.19.08-.28.12-.03-.24,0-.25,0-.34v-.08c-.2-.06-.3-.11-.27-.04.02.07-.1.13-.2.17-.1.04-.18.1-.23.17-.04.07-.11.11-.2.13-.09.02-.12.02-.19,0-.07-.01-.16,0-.12-.05.03-.06.05-.07.15-.12.1-.04.12-.07.16-.1,0,0-.04-.13-.1-.17-.06-.04-.07-.02-.07-.11,0-.09.08-.18-.01-.18-.1,0-.11.04-.27.1-.16.06-.23.09-.28.09-.04,0-.06.02-.23.02-.17,0-.07-.04-.27-.02-.2.02-.45.02-.52.03-.07,0-.23-.07-.38-.04-.15.03-.26,0-.26,0,0,0,0-.14.08-.23.08-.09.11-.11.17-.16.06-.04.15-.11.15-.11,0,0,.14-.15.02-.14-.11,0-.2-.02-.2-.02,0,0,.07-.1.14-.14.08-.05.15-.06.19-.14.03-.08.06-.08.07-.17,0-.08.03-.14.09-.16.05-.06.11-.12.16-.17.06-.05.12-.11.17-.16,0,0,.06-.11.03-.18-.02-.07,0-.11.06-.17.12-.14.15-.24.23-.34.08-.1.14-.14.19-.22.05-.07.24-.13.3-.23.05-.1.08-.28.2-.34.12-.06.11-.1.23-.12.11-.02.04,0,.21-.02.18-.02.08-.06.17-.02-.03-.09,0-.08.01-.05-.02-.03-.04-.04-.01.05.05.18.06.14-.08.2-.14.06-.24,0-.19.1.04.11.15.05.06.23-.09.17-.25.26-.38.36-.12.1-.18.13-.19.23,0,.1-.04.14-.05.2,0,.06,0,.02-.08.16-.08.14-.09.2-.09.2,0,0,.11-.13.28-.27.17-.14.1-.14.17-.14.08,0,.08.04.17.05.08.01.18-.01.23,0,0,0,.05.06-.09.16-.13.1-.09.04-.13.1-.05.06-.07.1-.09.15-.02.06.05.05.15.05s.23-.04.24,0c.08.12.06.29.06.29,0,0,.09-.01.13-.05.05-.03.06-.13.13-.17.08-.04.16-.14.16-.14,0,0,.14-.15.14-.1.01.15.17.19.22.16.04-.03.07.03.12.04.05.01.25.07.24.14,0,.07-.08.08-.11.16-.04.07-.1-.02-.16.08-.12.18-.03.14-.02.24,0,.1.14-.01,0,.1-.14.12-.03.06-.03.06,0,0,.13.08.21.05.07-.03.14-.12.2-.13.06-.01.21-.12.19-.05-.02.08,0,.03-.14.16-.15.13-.21.1-.29.19-.22.25-.24.23-.22.3,0,0,.1.15.19.1.09-.06.1-.2.2-.26.09-.05.21-.09.21-.09.04.18,0,.26-.04.31-.05.05-.07.11-.07.11.09-.03.18-.06.28-.09,0,0,.04.14,0,.21Zm-6.62,50.55s0,.07.02.09c-.01-.01-.02-.07-.02-.09Zm-16.45-18.13c-.04.06-.16.07-.23.07-.09,0-.18-.06-.22-.17-.05-.12.09-.05.1-.09.01-.05,0-.12-.06-.15-.06-.03-.1-.04-.15-.07-.05-.03.09-.15.12-.19,0,0,.06-.01.08-.04.02-.03.15.1.19.14.04.05.03.07.04.14.02.07.13.16.17.21.05.06,0,.1-.04.16Zm.03-.47s.08-.02.06.08c.02-.09-.06-.08-.06-.08Zm.35.39c-.04.05-.05.02-.12,0-.07-.02-.07-.15-.08-.2,0-.08.04-.02.08-.03.04,0,.07-.02.16.06.09.08-.01.12-.04.17Zm.47.1c-.06-.02-.08-.09-.01-.12.04-.02.14.07.14.11s-.07.03-.13.01Z"/><path class="cls-2" d="m63,30.91s-.15.05-.15.05c-.07.02-.08.09-.13.06-.05-.03-.09.04-.09.08,0,.04-.05.16,0,.2.06.04.05.07.11.06.06,0,.2-.14.19-.15-.02,0-.05-.09,0-.11.05-.02.08-.03.12-.08.03-.06-.03-.09-.06-.11Z"/><path class="cls-2" d="m62.33,31.09s-.09.09-.05.15c.04.05.09.11.12.08.02-.02.02-.12.02-.16,0-.05-.09-.07-.09-.07Z"/><path class="cls-2" d="m62.05,30.63s-.14,0-.14.06c0,.06-.02.09-.04.13-.03.04.1.09.13.11.05.02.15-.08.15-.14,0-.06-.04-.14-.09-.15Z"/><path class="cls-2" d="m63.53,31.15c-.1,0-.2,0-.2,0-.04.06-.12.02-.12.09,0,.07-.03.11.05.13.08.02.06.02.1.08.05.05.12.04.16,0,.05-.05.06-.08.07-.11.01-.04.01-.06,0-.09-.02-.03.04-.1-.06-.1Z"/><path class="cls-2" d="m64.48,30.79c-.05.05-.11.07-.1.12,0,.05.02.06-.07.09l-.09.03s-.05.08,0,.13c.05.06-.11.1-.06.13t.08.05s.08-.06.12-.08c.11-.07.14-.06.19-.1.05-.05.14-.09.13-.16,0-.08-.02-.08-.05-.12-.03-.03-.08-.15-.16-.08Z"/><path class="cls-2" d="m64.85,30.36c-.07.06-.08.08-.14.08s-.12,0-.11.06c0,.06-.06,0-.07.06-.02.06-.02.1.04.12.07.02.11.05.14,0,.03-.04.02-.08.06-.09.04-.01.1,0,.11-.05.02-.06.04-.12.03-.14,0-.02,0-.1-.06-.04Z"/><path class="cls-2" d="m61.85,31.39s-.07.02-.05.06c.02.04.05-.02.06.07,0,.08.01.09.06.08.05,0,.11-.1.12-.13,0-.03.01-.13-.04-.13s-.11,0-.15.05Z"/><path class="cls-2" d="m62.51,27.79s-.13.05-.09.12c.04.07-.05.11,0,.13.05.03.08.03.12.01.04-.02.05-.05.09-.07.04-.02.09,0,.09,0,0,0,.04-.02.05-.08,0-.05,0-.12-.05-.12-.05,0-.21.02-.21.02Z"/></g></svg>