<?xml version="1.0" encoding="UTF-8"?><svg id="Layer_2" xmlns="http://www.w3.org/2000/svg" viewBox="0 0 91.21 45.65"><defs><style>.cls-1{fill:#4d4e50;}</style></defs><g id="Object"><path class="cls-1" d="m72.26,16.78h-1.63c-1.32-2.87-5.29-10.74-10.14-13.28C58.86,2.64,52.93-.16,45.36,0c-5.94.13-13.79,1.82-17.3,4.82-2.76,2.36-6.34,8.81-7.51,11.96h-1.6c-.13.21-12.25,2.51-15.81,6.14-3.78,3.84-4.29,14.14-.7,14.14h11.41c-.02.23-.03.47-.03.7,0,4.35,3.53,7.88,7.88,7.88s7.88-3.53,7.88-7.88c0-.24-.01-.47-.03-.7h32.62c-.02.23-.04.47-.04.7,0,4.35,3.53,7.88,7.88,7.88s7.88-3.53,7.88-7.88c0-.24-.02-.47-.03-.7h10.91c3.6,0,3.08-10.3-.7-14.14-3.56-3.63-15.68-5.93-15.81-6.14Zm-30.19,0h-14.26c1.29-2.51,3.33-5.86,4.55-6.91,1.34-1.14,5.3-2.43,9.71-2.98v9.89Zm10.61,0h-3.97V6.78c4.39.48,7.66,2.04,8.7,2.6,1.73.91,4.03,4.21,5.79,7.41h-10.52Z"/></g></svg>