<?xml version="1.0" encoding="UTF-8"?><svg id="Layer_2" xmlns="http://www.w3.org/2000/svg" viewBox="0 0 80.67 77.1"><defs><style>.cls-1{fill:#4d4e50;}</style></defs><g id="Object"><path class="cls-1" d="m62.97,5.81c-4.19,0-7.6,3.41-7.6,7.6s3.41,7.6,7.6,7.6,7.6-3.41,7.6-7.6-3.41-7.6-7.6-7.6Z"/><path class="cls-1" d="m63.11,0c-9.68,0-17.56,7.88-17.56,17.56,0,1.8.27,3.54.78,5.18l-5.24,2.51c-4-6.11-10.89-10.16-18.73-10.16C10.03,15.09,0,25.12,0,37.45s10.03,22.36,22.36,22.36c5.74,0,10.98-2.17,14.94-5.74l3.22,2.67c-2.2,3.68-2.61,8.34-.69,12.52,3.09,6.73,11.08,9.69,17.81,6.6,6.73-3.09,9.69-11.08,6.6-17.81-3.09-6.73-11.08-9.69-17.82-6.6-1.04.48-1.99,1.08-2.85,1.77l-3.15-2.62c2.7-3.69,4.3-8.24,4.3-13.16,0-2.64-.46-5.18-1.31-7.54l5.18-2.49c3.16,4.64,8.49,7.69,14.52,7.69,9.68,0,17.56-7.88,17.56-17.56S72.79,0,63.11,0Zm-15.38,54.31c5.16-2.37,11.29-.1,13.66,5.06,1.87,4.07.86,8.73-2.18,11.68-.81-3.85-2.55-5.25-3.05-5.58-.05.05-.1.09-.15.13-.05.05-.1.09-.16.14-.11.09-.22.17-.34.26l-2.34,4.94-.51-2.82.69-1.14c-.09.02-.17.04-.26.05-.22.04-.45.07-.68.09-.13.01-.25.02-.38.02-.49,0-.97-.05-1.43-.16l.73,1.15-.42,2.88-2.7-5.17c-.12-.1-.24-.2-.36-.3l-.05.04c-1.76,1.55-2.61,3.68-3.02,5.43-.87-.85-1.6-1.87-2.14-3.04-2.37-5.16-.1-11.29,5.06-13.66Zm-18.96-10.26c-.15.18-3.03,2.07-3.03,2.07l1.42,1.94-4.5,3.53v.02s0-.01,0-.01h-.01s0,0,0,0l-4.5-3.53,1.42-1.94s-2.89-1.88-3.03-2.07c-.26-.32,1.29-1.81,1.29-1.81l4.83,9.33,4.83-9.33s1.55,1.48,1.29,1.81Zm5.35,5.86c-.58-2.84-1.49-4.87-2.37-6.27.68-3.14,1.23-7.13.84-9.93-.06-.43-.12-.84-.19-1.23-.02-.32-.05-.64-.11-.98-.21-1.21-.57-2.37-1.07-3.44-.77-1.9-1.79-3.21-3.17-4.08-1.45-1.12-3.22-1.79-5.24-1.79-1.01,0-1.98.16-2.89.46-2.83.58-4.07,2.33-4.53,2.98-.42.6-.77,1.3-1.07,2.07-.28.62-.49,1.28-.63,1.97-.42,1.58-.72,3.35-1.03,5.17-.51,2.97-1.04,6.05-2.1,8.64-.03.08-.02.18.04.24.06.07.14.1.23.09,1.12-.21,1.97-.5,2.69-1.21-.54,1.43-2.59,2.49-2.62,2.5-.08.04-.12.12-.13.2,0,.09.03.17.1.21.04.03.42.28,1.04.59-.6,1.31-1.01,2.62-1.29,3.83-3.32-3.13-5.4-7.57-5.4-12.48,0-9.46,7.69-17.15,17.15-17.15s17.15,7.69,17.15,17.15c0,4.9-2.07,9.33-5.38,12.46Zm38.39-22.73c-.99-5.35-3.37-7.31-4.04-7.77-.07.06-.13.12-.2.18-.07.06-.14.12-.21.18-.15.12-.3.23-.45.34l-3.19,6.55-.63-3.78.94-1.52c-.12.02-.23.05-.35.07-.3.05-.6.09-.91.11-.17.01-.34.02-.51.02-.65,0-1.29-.08-1.9-.23l.96,1.55-.6,3.84-3.53-6.94c-.16-.13-.32-.26-.47-.41l-.07.06c-2.39,2.07-3.56,4.92-4.12,7.27-2.23-2.4-3.59-5.62-3.59-9.14,0-7.42,6.04-13.47,13.47-13.47s13.47,6.04,13.47,13.47c0,3.77-1.55,7.17-4.05,9.62Z"/><path class="cls-1" d="m51.93,55.32c-3.14.03-5.67,2.62-5.63,5.76.03,3.14,2.61,5.67,5.75,5.63,3.14-.03,5.67-2.61,5.63-5.75-.03-3.14-2.61-5.67-5.75-5.63Z"/><polygon class="cls-1" points="22.65 51.58 22.66 51.59 22.66 51.58 22.66 51.57 22.65 51.58"/></g></svg>