<?xml version="1.0" encoding="UTF-8"?><svg id="Layer_2" xmlns="http://www.w3.org/2000/svg" viewBox="0 0 75.16 75.16"><defs><style>.cls-1{fill:#4d4e50;}</style></defs><g id="Object"><path class="cls-1" d="m0,37.58c0,20.75,16.82,37.58,37.58,37.58s37.58-16.82,37.58-37.58S58.33,0,37.58,0,0,16.82,0,37.58Zm66.6,0c0,16.03-12.99,29.02-29.02,29.02s-29.02-12.99-29.02-29.02,12.99-29.02,29.02-29.02,29.02,12.99,29.02,29.02Z"/><path class="cls-1" d="m36.25,15.42v22.02c0,.64.52,1.17,1.17,1.17s1.17-.52,1.17-1.17V15.42c0-.65-.52-1.17-1.17-1.17s-1.17.52-1.17,1.17Z"/><path class="cls-1" d="m16.94,45.97c-.59.25-1.04.54-.99.66.05.11.57,0,1.16-.24l20.33-8.47c.59-.25,1.04-.54.99-.66-.05-.11-.57,0-1.16.24l-20.33,8.47Z"/><path class="cls-1" d="m37.97,35.89c-.94,0-1.71.76-1.71,1.71s.76,1.71,1.71,1.71h14.44c.94,0,1.71-.76,1.71-1.71s-.77-1.71-1.71-1.71h-14.44Z"/><path class="cls-1" d="m34.85,37.38c0,1.61,1.3,2.91,2.91,2.91s2.91-1.3,2.91-2.91-1.3-2.91-2.91-2.91-2.91,1.3-2.91,2.91Z"/></g></svg>