<?xml version="1.0" encoding="UTF-8"?><svg id="Layer_2" xmlns="http://www.w3.org/2000/svg" viewBox="0 0 75 74.83"><defs><style>.cls-1{fill:#4d4e50;}</style></defs><g id="Object"><path class="cls-1" d="m4.99,25.33c-1.32-.3-2.76.06-3.79,1.09-1.6,1.6-1.6,4.19,0,5.8.01.01.04.02.06.04-.01,0-.02.01-.02.01l7.71,7.71,12.14-12.14-16.08-2.56s0,.04,0,.06Z"/><path class="cls-1" d="m49.3,69.18s.05,0,.08,0l-2.44-15.39-12.09,12.09,7.4,7.4s.04-.03.05-.05c.11.13.19.27.31.39,1.6,1.6,4.19,1.59,5.79,0,1.2-1.2,1.5-2.96.9-4.44Z"/><path class="cls-1" d="m35.58,42.62l-3.37-3.37c-.57-.57-1.32-.86-2.07-.86-.75,0-1.5.29-2.08.86l-6.2,6.2-.94.94c-.57.57-.86,1.32-.86,2.08,0,.75.29,1.5.86,2.07l3.37,3.37c.57.57,1.32.86,2.07.86.76,0,1.5-.29,2.08-.86l7.15-7.15c.57-.57.86-1.32.86-2.08,0-.75-.29-1.5-.86-2.07Z"/><path class="cls-1" d="m65.84,31.86l.03.03,8.76-26.28c.13-.28.22-.57.28-.87h0c.25-1.27-.1-2.62-1.08-3.59-1.01-1.01-2.43-1.35-3.73-1.04h0s-.05,0-.05,0c-.2.05-.38.11-.57.19l-25.61,8.44c-.89.2-1.75.56-2.45,1.25l-18.17,18.17-13.07,13.07-2.21,2.21c-1.93,1.93-1.93,5.07,0,7.01l3,3-.76,1.48,9.56,9.56,1.48-.75,3.09,3.09c1.94,1.94,5.08,1.94,7.01,0l2.21-2.21,13-13,18.23-18.23c.45-.45.77-.98,1.01-1.53Zm-36.49,22.97c-1.65,1.65-4.33,1.65-5.98,0l-3.37-3.37c-1.65-1.65-1.65-4.34,0-5.98l.94-.94,6.2-6.2c1.65-1.65,4.33-1.65,5.98,0l3.37,3.37c1.65,1.65,1.65,4.33,0,5.98l-7.15,7.14Zm12.8-22.14c-2.98-2.97-2.97-7.79,0-10.76,2.97-2.97,7.78-2.97,10.76,0,2.97,2.97,2.97,7.78,0,10.75-2.97,2.97-7.79,2.98-10.76,0Z"/></g></svg>