<?xml version="1.0" encoding="UTF-8"?><svg id="Layer_2" xmlns="http://www.w3.org/2000/svg" viewBox="0 0 40.29 79.59"><defs><style>.cls-1{fill:#4d4e50;}</style></defs><g id="Object"><path class="cls-1" d="m37.77,37.53c-1.39,0-2.52,1.13-2.52,2.52,0,4.17-1.69,7.94-4.43,10.68-2.74,2.74-6.51,4.43-10.68,4.43s-7.94-1.69-10.68-4.43c-2.74-2.74-4.43-6.51-4.43-10.68,0-1.39-1.13-2.52-2.52-2.52S0,38.66,0,40.05c0,10.25,7.7,18.71,17.63,19.96v12.77h-9.29c-1.88,0-3.4,1.52-3.4,3.4,0,1.88,1.52,3.4,3.4,3.4h11.81s11.81,0,11.81,0c1.88,0,3.4-1.52,3.4-3.4s-1.52-3.4-3.4-3.4h-9.29v-12.77c9.29-1.17,16.63-8.65,17.53-18.02l-.75-.07.75.07c.06-.64.09-1.29.09-1.94,0-1.39-1.13-2.52-2.52-2.52Z"/><rect class="cls-1" x="8.55" y="16.53" width="23.19" height="3.76"/><path class="cls-1" d="m20.15,0c-6.4,0-11.6,5.19-11.6,11.6v1.18h23.19v-1.18c0-6.4-5.19-11.6-11.6-11.6Z"/><path class="cls-1" d="m8.55,38.56c0,6.4,5.19,11.6,11.6,11.6,6.41,0,11.6-5.19,11.6-11.6v-6.98H8.55v6.98Z"/><rect class="cls-1" x="8.55" y="24.06" width="23.19" height="3.76"/></g></svg>