<?xml version="1.0" encoding="UTF-8"?><svg id="Layer_2" xmlns="http://www.w3.org/2000/svg" viewBox="0 0 71.6 67.79"><defs><style>.cls-1{fill:#4d4e50;}</style></defs><g id="Object"><path class="cls-1" d="m65.92,0H5.68C2.54,0,0,2.54,0,5.68v56.43c0,3.14,2.54,5.68,5.68,5.68h60.24c3.14,0,5.68-2.54,5.68-5.68V5.68c0-3.14-2.54-5.68-5.68-5.68Zm-11.36,4.02v28.59H17.04V4.02h37.52ZM13.58,59.15H3.31v-10.26h10.26v10.26Zm0-20.47H3.31v-10.26h10.26v10.26Zm0-20.47H3.31V7.96h10.26v10.26Zm3.46,45.55v-28.59h37.52v28.59H17.04Zm51.22-4.61h-10.26v-10.26h10.26v10.26Zm0-20.47h-10.26v-10.26h10.26v10.26Zm0-20.47h-10.26V7.96h10.26v10.26Z"/></g></svg>