<?xml version="1.0" encoding="UTF-8"?><svg id="Layer_2" xmlns="http://www.w3.org/2000/svg" viewBox="0 0 71.33 71.34"><defs><style>.cls-1{fill:#4d4e50;}</style></defs><g id="Object"><path class="cls-1" d="m14.44,35.67c0,11.7,9.52,21.23,21.23,21.23s21.23-9.52,21.23-21.23-9.52-21.23-21.23-21.23-21.23,9.52-21.23,21.23Zm36.02-1.29c.71,8.17-5.33,15.37-13.5,16.08-8.17.71-15.37-5.33-16.08-13.5-.71-8.17,5.33-15.37,13.5-16.08,8.17-.71,15.37,5.33,16.08,13.5Z"/><path class="cls-1" d="m64.78,47.4l3.51-.14c.82-.03,1.66-.7,1.88-1.49l1.15-5.56c.12-.81-.39-1.76-1.12-2.12l-3.16-1.53c-.74-.36-1.35-1.32-1.36-2.14,0,0,0-.41-.09-1.37l-.03-.33c-.05-.36.48-1.01,1.17-1.45l2.98-1.88c.69-.44,1.09-1.44.88-2.23l-1.76-5.39c-.3-.76-1.22-1.33-2.03-1.27l-3.52.25c-.82.06-1.78-.39-2.15-.99-.37-.61-1.13-2.72-.75-3.44l1.64-3.11c.38-.72.22-1.79-.36-2.37l-4.23-3.78c-.64-.51-1.72-.55-2.4-.09l-2.91,1.98c-.68.46-1.74.56-2.36.22-.62-.34-2.34-1.8-2.37-2.61l-.14-3.51c-.03-.82-.7-1.66-1.49-1.88L40.22.02c-.81-.12-1.76.39-2.12,1.12l-1.53,3.16c-.36.74-1.32,1.35-2.13,1.36,0,0-.41,0-1.37.09l-.33.03c-.36.04-1.01-.48-1.45-1.18l-1.88-2.98c-.44-.69-1.44-1.09-2.23-.88l-5.39,1.76c-.76.3-1.33,1.21-1.27,2.03l.26,3.52c.06.82-.39,1.78-.99,2.15-.6.37-2.71,1.13-3.44.75l-3.11-1.64c-.72-.38-1.79-.22-2.37.35l-3.78,4.23c-.51.64-.55,1.72-.09,2.4l1.98,2.91c.46.68.56,1.74.22,2.35-.34.62-1.8,2.33-2.61,2.37l-3.51.14c-.82.03-1.66.7-1.88,1.49L.02,31.12c-.12.81.39,1.76,1.12,2.12l3.16,1.53c.74.36,1.35,1.32,1.36,2.13,0,0,0,.41.09,1.37l.03.33c.04.36-.48,1.01-1.18,1.45l-2.98,1.88c-.69.44-1.09,1.44-.88,2.23l1.76,5.39c.3.76,1.22,1.33,2.03,1.27l3.52-.26c.82-.06,1.78.39,2.15.99.37.6,1.13,2.71.75,3.44l-1.64,3.11c-.38.72-.22,1.79.36,2.37l4.23,3.78c.64.51,1.72.55,2.4.09l2.91-1.98c.68-.46,1.74-.56,2.35-.22.62.34,2.33,1.8,2.37,2.61l.14,3.51c.03.82.7,1.66,1.49,1.88l5.55,1.15c.81.12,1.76-.39,2.12-1.12l1.54-3.17c.36-.73,1.32-1.35,2.14-1.36,0,0,.41,0,1.37-.09l.33-.03c.36-.05,1.01.48,1.45,1.17l1.88,2.98c.44.69,1.44,1.09,2.23.88l5.39-1.76c.76-.3,1.33-1.21,1.27-2.03l-.25-3.52c-.06-.82.39-1.78.99-2.15.6-.37,2.71-1.13,3.44-.75l3.11,1.64c.72.38,1.79.22,2.37-.36l3.78-4.23c.51-.64.55-1.72.09-2.4l-1.98-2.91c-.46-.68-.56-1.74-.22-2.35.34-.62,1.8-2.34,2.61-2.37Zm-29.11,12.46c-13.34,0-24.19-10.85-24.19-24.19s10.85-24.19,24.19-24.19,24.19,10.85,24.19,24.19-10.85,24.19-24.19,24.19Z"/></g></svg>