<?xml version="1.0" encoding="UTF-8"?><svg id="Layer_2" xmlns="http://www.w3.org/2000/svg" viewBox="0 0 61.48 73.24"><defs><style>.cls-1{fill:#4d4e50;}</style></defs><g id="Object"><path class="cls-1" d="m0,0v73.12l61.48.12V.12L0,0Zm53.73,41.58v-.16,14.75H7.76v-10.18.05V7.76h45.96v.1h0v33.73Z"/><path class="cls-1" d="m14.67,14.64c-2.5,0-4.54,2.02-4.54,4.53,0,2.5,2.02,4.54,4.53,4.54,2.5,0,4.54-2.02,4.54-4.53,0-2.5-2.02-4.54-4.53-4.54Z"/><polygon class="cls-1" points="26.2 42.83 17.52 34.55 10.13 44.8 10.13 54.13 51.05 54.13 51.05 40.61 37.63 26.01 26.2 42.83"/><polygon class="cls-1" points="53.73 7.76 7.76 7.76 53.73 7.85 53.73 7.76"/></g></svg>