<?xml version="1.0" encoding="UTF-8"?><svg id="Layer_2" xmlns="http://www.w3.org/2000/svg" viewBox="0 0 47.46 61.42"><defs><style>.cls-1{fill:#4d4e50;}</style></defs><g id="Object"><path class="cls-1" d="m19.89,3.9C10.89,4.78,2.39,8.85,2.01,18.69c-.43,11.07,8.79,14.31,17.88,16.52v12.28c-4.48-1.96-4.63-7.19-4.63-7.19l-15.26,1.73c1.18,10.72,10.42,14.67,19.89,15.3v4.1h3.18V0h-3.19v3.9Zm0,17.93c-.31-.13-.61-.26-.88-.4-3.96-2.04-3.42-6.18.88-7.67v8.07Z"/><path class="cls-1" d="m43.21,31.07c-4.56-4.03-10.77-5.82-16.01-7.16v-9.93c3.13,1.48,3.76,4.56,3.76,4.56l14.84-2.45c-1.68-6.84-8.91-11.39-18.6-12.24V0h-2.57v61.42h2.58v-4.23c5.26-.52,9.91-1.86,12.4-3.36,7.92-4.75,11.09-16.13,3.6-22.76Zm-16,16.81v-10.67c3.64,1.26,4.9,2.47,5.49,4.52.7,2.46-1.07,5.21-5.49,6.15Z"/></g></svg>