<?xml version="1.0" encoding="UTF-8"?><svg id="Layer_2" xmlns="http://www.w3.org/2000/svg" viewBox="0 0 49.85 63.1"><defs><style>.cls-1{fill:#4d4e50;}</style></defs><g id="Object"><path class="cls-1" d="m34.37,18.56c1.57,1.02,3.43,1.62,5.43,1.62,5.54,0,10.04-4.52,10.04-10.09S45.34,0,39.81,0s-10.05,4.52-10.05,10.09c0,.93.14,1.84.38,2.7l-5.95,4.25-9.43,6.72c-1.41-.75-3.01-1.18-4.71-1.18-5.54,0-10.04,4.52-10.04,10.09s4.51,10.08,10.04,10.08c2.39,0,4.58-.85,6.31-2.25l7.83,5.58,5.95,4.24c-.24.86-.38,1.76-.38,2.7,0,5.56,4.51,10.09,10.05,10.09s10.04-4.52,10.04-10.09-4.51-10.08-10.04-10.08c-2,0-3.87.6-5.44,1.62l-8.52-6.08-5.89-4.2c.08-.53.14-1.06.14-1.61,0-1.22-.23-2.39-.63-3.47l6.38-4.55,8.53-6.08Zm-14.82,17.32l5.46,3.89,8.08,5.77c-1.01.92-1.84,2.03-2.42,3.29l-5.67-4.04-7.53-5.37c.92-1.01,1.63-2.21,2.07-3.54Zm-.74-8.11c-.67-1.21-1.59-2.27-2.69-3.11l8.88-6.33,5.67-4.04c.58,1.26,1.41,2.38,2.42,3.3l-8.09,5.77-6.19,4.42Z"/></g></svg>