<?xml version="1.0" encoding="UTF-8"?><svg id="Layer_2" xmlns="http://www.w3.org/2000/svg" viewBox="0 0 67.76 67.45"><defs><style>.cls-1{fill:#4d4e50;}</style></defs><g id="Object"><path class="cls-1" d="m55.75,7.34C51.22,3.15,44.47.32,37.33.18l-.17,26.31L55.75,7.34Z"/><path class="cls-1" d="m32.39,0C13.76,0,0,15.1,0,33.73s15.1,33.73,33.73,33.73c13.06,0,25.21-7.71,29.68-17.66l-30.34-16.06V.02c-.23,0-.45-.02-.68-.02Z"/><polygon class="cls-1" points="49.77 19.43 44.89 34.99 47.71 36.5 54.63 14.43 49.77 19.43"/><polygon class="cls-1" points="43.48 25.9 41.24 33.03 44.06 34.54 48.34 20.9 43.48 25.9"/><path class="cls-1" d="m63.48,16.53l-7.64,24.33,2.82,1.51,6.83-21.77c-.58-1.41-1.25-2.77-2.01-4.07Z"/><path class="cls-1" d="m66.03,22l-6.53,20.81,2.82,1.51,5.16-16.43c-.28-2.02-.77-3.99-1.44-5.89Z"/><path class="cls-1" d="m67.76,31.81c0-.53-.02-1.06-.05-1.58l-4.56,14.54,1.65.89c2.11-4.1,2.95-8.91,2.95-13.84Z"/><path class="cls-1" d="m58.68,10.27l-2.61,2.68-7.53,23.99,2.82,1.51,8.47-26.97c-.37-.42-.75-.82-1.14-1.21Z"/><polygon class="cls-1" points="38.15 31.37 40.4 32.58 42.04 27.38 38.15 31.37"/><path class="cls-1" d="m60.54,12.31l-8.35,26.59,2.82,1.51,7.83-24.94c-.71-1.11-1.47-2.17-2.3-3.16Z"/></g></svg>