<?xml version="1.0" encoding="UTF-8"?><svg id="Layer_2" xmlns="http://www.w3.org/2000/svg" viewBox="0 0 55.08 63.1"><defs><style>.cls-1{fill:#4d4e50;}</style></defs><g id="Object"><path class="cls-1" d="m51.87.74c-.71-.39-1.48-.63-2.29-.71-.2-.02-.41-.03-.62-.03H9.56C6.18,0,3.44,2.75,3.44,6.12v3.05H1.12c-.62,0-1.12.5-1.12,1.12v5.62c0,.62.5,1.12,1.12,1.12h2.32v4.22H1.12c-.62,0-1.12.5-1.12,1.12v5.62c0,.62.5,1.12,1.12,1.12h2.32v4.22H1.12c-.62,0-1.12.5-1.12,1.12v5.62c0,.62.5,1.12,1.12,1.12h2.32v4.22H1.12c-.62,0-1.12.5-1.12,1.12v5.62c0,.62.5,1.12,1.12,1.12h2.32v3.67c0,3.38,2.75,6.12,6.12,6.12h39.39c.21,0,.42-.01.62-.03.81-.08,1.58-.32,2.29-.71.51-.28.99-.63,1.41-1.06,1.16-1.16,1.79-2.69,1.79-4.33V6.12c0-1.63-.64-3.17-1.79-4.33-.42-.42-.9-.77-1.41-1.05Zm-7.28,12.22c-.25-.26-.55-.42-.96-.4-.36,0-.7.14-.95.4l-4.49,4.52-.03-15.23h10.87l.03,15.25-4.47-4.54Z"/></g></svg>