<?xml version="1.0" encoding="UTF-8"?><svg id="Layer_2" xmlns="http://www.w3.org/2000/svg" viewBox="0 0 74.11 61.73"><defs><style>.cls-1{fill:#4d4e50;}</style></defs><g id="Object"><path class="cls-1" d="m58.56,61.73h0s9.49,0,9.49,0c3.34,0,6.06-2.72,6.06-6.06V17.94c0-3.34-2.72-6.06-6.06-6.06h-12.62v-3.8c0-4.45-3.62-8.08-8.08-8.08h-20.59c-4.45,0-8.08,3.62-8.08,8.08v3.8H6.06c-3.34,0-6.06,2.72-6.06,6.06v37.73c0,3.34,2.72,6.06,6.06,6.06h14.15s38.35,0,38.35,0Zm-27.61-1.69h-1.02V13.56h1.02v46.49Zm10.44,0h-8.66V13.56h8.66v46.49Zm2.8,0h-1.02V13.56h1.02v46.49ZM24.74,8.08c0-1.11.91-2.01,2.02-2.01h20.59c1.11,0,2.01.9,2.01,2.01v3.8h-24.62v-3.8Z"/></g></svg>