<?xml version="1.0" encoding="UTF-8"?><svg id="Layer_2" xmlns="http://www.w3.org/2000/svg" viewBox="0 0 66.64 66.64"><defs><style>.cls-1{fill:#4d4e50;}</style></defs><g id="Object"><path class="cls-1" d="m59.27,0H7.38C3.3,0,0,3.3,0,7.38v51.89c0,4.07,3.3,7.38,7.38,7.38h51.89c4.07,0,7.37-3.3,7.37-7.38V7.38c0-4.07-3.3-7.38-7.37-7.38Zm-29.69,56.86c0,1.36-1.1,2.46-2.46,2.46H9.77c-1.36,0-2.46-1.1-2.46-2.46v-17.34c0-1.36,1.1-2.46,2.46-2.46h17.34c1.36,0,2.46,1.1,2.46,2.46v17.34Zm0-29.75c0,1.36-1.1,2.46-2.46,2.46H9.77c-1.36,0-2.46-1.1-2.46-2.46V9.78c0-1.36,1.1-2.47,2.46-2.47h17.34c1.36,0,2.46,1.1,2.46,2.47v17.34Zm29.76,29.75c0,1.36-1.1,2.46-2.46,2.46h-17.34c-1.36,0-2.46-1.1-2.46-2.46v-17.34c0-1.36,1.1-2.46,2.46-2.46h17.34c1.36,0,2.46,1.1,2.46,2.46v17.34Zm0-29.75c0,1.36-1.1,2.46-2.46,2.46h-17.34c-1.36,0-2.46-1.1-2.46-2.46V9.78c0-1.36,1.1-2.47,2.46-2.47h17.34c1.36,0,2.46,1.1,2.46,2.47v17.34Z"/><rect class="cls-1" x="40.89" y="17.01" width="14.6" height="4"/><rect class="cls-1" x="40.89" y="46.08" width="14.6" height="4"/><rect class="cls-1" x="46.62" y="41.23" width="3.13" height="3.01"/><rect class="cls-1" x="46.62" y="51.91" width="3.13" height="3.01"/><polygon class="cls-1" points="22.2 41.78 18.46 45.52 14.71 41.78 11.88 44.61 15.63 48.35 11.88 52.1 14.71 54.93 18.46 51.18 22.2 54.93 25.03 52.1 21.28 48.35 25.03 44.61 22.2 41.78"/><polygon class="cls-1" points="20.46 11.72 16.45 11.72 16.45 17.01 11.16 17.01 11.16 21.01 16.45 21.01 16.45 26.31 20.46 26.31 20.46 21.01 25.75 21.01 25.75 17.01 20.46 17.01 20.46 11.72"/></g></svg>