<?xml version="1.0" encoding="UTF-8"?><svg id="Layer_2" xmlns="http://www.w3.org/2000/svg" viewBox="0 0 49.38 60.6"><defs><style>.cls-1{fill:#4d4e50;}</style></defs><g id="Object"><path class="cls-1" d="m3.61,0C1.62,0,0,1.62,0,3.61v53.37c0,1.99,1.62,3.61,3.61,3.61h32.23v-7.09c0-3.13,2.54-5.67,5.67-5.67h7.87V3.61c0-1.99-1.62-3.61-3.61-3.61H3.61Zm36.36,33.06H9.41v-2.49h30.55v2.49Zm0-8.7H9.41v-2.49h30.55v2.49Zm0-8.7H9.41v-2.49h30.55v2.49Z"/><path class="cls-1" d="m37.9,53.5v5.73l9.91-9.35h-6.3c-1.99,0-3.61,1.62-3.61,3.61Z"/></g></svg>