<?xml version="1.0" encoding="UTF-8"?><svg id="Layer_2" xmlns="http://www.w3.org/2000/svg" viewBox="0 0 60.2 77.26"><defs><style>.cls-1{fill:#4d4e50;}</style></defs><g id="Object"><path class="cls-1" d="m.14,17.63h.02l3.28,2.75v52.24c0,2.56,2.07,4.63,4.63,4.63h44.05c2.56,0,4.63-2.07,4.63-4.63V20.38l3.28-2.75h.02v-4.59H.14v4.59Zm40.43,7.24h5.59v44.93h-5.59V24.87Zm-13.26,0h5.59v44.93h-5.59V24.87Zm-13.26,0h5.59v44.93h-5.59V24.87Z"/><path class="cls-1" d="m59.07,6.45h-19.51V1.88c0-1.04-.84-1.88-1.89-1.88h-15.15c-1.04,0-1.88.84-1.88,1.88v4.57H1.13c-.62,0-1.13.5-1.13,1.13v3.6h60.2v-3.6c0-.62-.5-1.13-1.13-1.13Zm-22.95-1.15h-12.04v-1.26c0-.33.27-.6.6-.6h10.84c.33,0,.6.27.6.6v1.26Z"/></g></svg>