<?xml version="1.0" encoding="UTF-8"?><svg id="Layer_2" xmlns="http://www.w3.org/2000/svg" viewBox="0 0 84.82 46.23"><defs><style>.cls-1{fill:#4d4e50;}</style></defs><g id="Object"><path class="cls-1" d="m57.21,7.29h-8.2v31.66h8.2c5.68,0,10.28-4.16,10.28-9.29v-13.08c0-5.13-4.6-9.29-10.28-9.29Z"/><rect class="cls-1" x="29.37" y="7.29" width="18.27" height="31.66"/><path class="cls-1" d="m7.74,16.58v13.08c0,5.13,4.6,9.29,10.28,9.29h9.99V7.29h-9.99c-5.68,0-10.28,4.16-10.28,9.29Z"/><path class="cls-1" d="m81,9.72h-6.77s-.06,0-.1.01c-2.04-5.67-7.45-9.73-13.81-9.73H14.69C6.59,0,0,6.59,0,14.69v16.85c0,8.11,6.59,14.69,14.69,14.69h45.63c6.36,0,11.77-4.07,13.81-9.73.03,0,.06.01.1.01h6.77c3.45,0,3.82-6.09,3.82-8.71v-9.38c0-2.62-.37-8.71-3.82-8.71Zm-11.45,21.82c0,5.09-4.14,9.23-9.23,9.23H14.69c-5.09,0-9.23-4.14-9.23-9.23V14.69c0-5.09,4.14-9.23,9.23-9.23h45.63c5.09,0,9.23,4.14,9.23,9.23v16.85Zm11.17-3.73c0,2.29-.32,3.86-.58,4.61h-5.06c-.03-.09-.06-.24-.1-.35,0-.18.03-.35.03-.52V14.69c0-.18-.02-.35-.03-.53.03-.12.07-.26.1-.35h5.06c.26.75.58,2.32.58,4.61v9.38Z"/></g></svg>