<?xml version="1.0" encoding="UTF-8"?><svg id="Layer_2" xmlns="http://www.w3.org/2000/svg" viewBox="0 0 61.05 79.66"><defs><style>.cls-1{fill:#4d4e50;}</style></defs><g id="Object"><path class="cls-1" d="m39.4,23.81l-18.87,18.87c-.31.31-.31.81,0,1.13.31.31.82.31,1.13,0l18.87-18.87c.31-.31.31-.82,0-1.13-.31-.31-.82-.31-1.13,0Z"/><path class="cls-1" d="m37,36.07l-9.59,9.59c-.16.16-.12.45.08.65.2.2.49.24.65.08l9.59-9.59c.16-.16.12-.45-.08-.65-.2-.2-.49-.24-.65-.08Z"/><path class="cls-1" d="m3.69,0C1.65,0,0,1.65,0,3.69v72.27c0,2.04,1.65,3.69,3.69,3.69h53.66c2.04,0,3.69-1.65,3.69-3.69V3.69c0-2.04-1.65-3.69-3.69-3.69H3.69Zm27.24,1.76c.47,0,.85.38.85.85s-.38.85-.85.85-.85-.38-.85-.85.38-.85.85-.85Zm-2.93,3.22h5.87c.41,0,.74.34.74.77s-.33.76-.74.76h-5.87c-.41,0-.74-.34-.74-.76s.33-.77.74-.77Zm-2.61.1c.37,0,.67.3.67.67s-.3.67-.67.67-.67-.3-.67-.67.3-.67.67-.67Zm5.14,71.74c-2.09,0-3.79-1.7-3.79-3.79,0-2.09,1.7-3.79,3.79-3.79s3.79,1.7,3.79,3.79c0,2.09-1.7,3.79-3.79,3.79Zm24.42-9.49H6.1V9.01h48.85v58.32Z"/></g></svg>