<?xml version="1.0" encoding="UTF-8"?><svg id="Layer_2" xmlns="http://www.w3.org/2000/svg" viewBox="0 0 72.25 72.12"><defs><style>.cls-1{fill:#4d4e50;}</style></defs><g id="Object"><path class="cls-1" d="m3.36,63.24L.08,70.71c-.16.38-.08.82.21,1.11.19.19.45.29.71.29.14,0,.27-.03.4-.08l7.46-3.28c.11-.05.22-.12.31-.21l20.76-20.76-5.61-5.61L3.57,62.94c-.09.09-.16.19-.21.31Zm20.97-18.03l2.57,2.57-19.09,19.09-4.58,2.01,2.01-4.58,19.09-19.09Z"/><path class="cls-1" d="m39.75,10.27l-15.24,15.24c-.91-.27-1.91-.4-3-.4-3.34,0-7.23,1.25-11.57,3.73-.27.15-.46.43-.5.74-.04.31.06.62.29.84l13.18,13.18h0s5.61,5.62,5.61,5.62h0s14.17,14.17,14.17,14.17c.19.19.45.29.71.29.04,0,.09,0,.13,0,.31-.04.58-.23.74-.5,5.2-9.11,3.73-14.13,2.78-15.97l14.83-14.83-22.13-22.11Z"/><path class="cls-1" d="m65.59,34.64c.39.3.98.29,1.33-.06l5.03-5.03c.39-.39.39-1.03,0-1.42L44.11.28c-.38-.38-1.05-.38-1.42,0l-5.03,5.03c-.39.39-.39,1.03,0,1.42l2.81,2.82h-.01s25.13,25.09,25.13,25.09Z"/></g></svg>