<?xml version="1.0" encoding="UTF-8"?><svg id="Layer_2" xmlns="http://www.w3.org/2000/svg" viewBox="0 0 60.28 70"><defs><style>.cls-1{fill:#fff;}.cls-2{fill:none;}.cls-3{fill:#4d4e50;}</style></defs><g id="Object"><path class="cls-2" d="m12.13,16.66l-.59-6.92c-1.93-.43-4.98-.53-6.04.62-.8.86-.75,2.79.14,5.46,1.21,3.61,4.7,5.64,8.06,6.78-.83-1.83-1.39-3.82-1.57-5.94Z"/><path class="cls-2" d="m48.74,9.74l-.59,6.92c-.18,2.11-.73,4.1-1.57,5.94,3.36-1.13,6.85-3.16,8.06-6.78.89-2.67.94-4.6.14-5.46-1.06-1.14-4.11-1.05-6.04-.62Z"/><path class="cls-3" d="m58.38,6.97c-2.54-2.71-6.72-2.66-9.21-2.33l.4-4.65H10.72l.4,4.65c-2.5-.33-6.67-.38-9.21,2.33C-.26,9.28-.58,12.78.95,17.38c2.77,8.31,12.52,10.66,17.28,11.32,3.19,2.8,7.36,4.49,11.9,4.49s8.71-1.7,11.9-4.49c4.76-.66,14.51-3.02,17.28-11.32,1.53-4.6,1.22-8.1-.95-10.41ZM5.64,15.82c-.89-2.67-.94-4.6-.14-5.46,1.07-1.14,4.11-1.05,6.04-.62l.59,6.92c.18,2.11.73,4.1,1.57,5.94-3.36-1.13-6.85-3.16-8.06-6.78Zm31.36,9.64h-12.21v-2.92h4.34v-12.76l-4.03,2.42v-3.2l5.51-3.34h2.09v16.88h4.31v2.92Zm17.64-9.64c-1.2,3.61-4.7,5.64-8.06,6.78.83-1.83,1.39-3.82,1.57-5.94l.59-6.92c1.93-.43,4.98-.52,6.04.62.8.86.75,2.79-.14,5.46Z"/><path class="cls-3" d="m30.14,35.36c-1.23,0-2.44-.07-3.62-.2v14.83h7.23v-14.83c-1.17.13-2.39.2-3.62.2Z"/><path class="cls-3" d="m41.24,52.32h-23c-1.25,0-2.33.9-2.55,2.13l-2.83,15.55h33.76l-2.83-15.55c-.22-1.23-1.3-2.13-2.55-2.13Z"/><polygon class="cls-1" points="32.69 5.65 30.6 5.65 25.1 8.99 25.1 12.19 29.13 9.77 29.13 22.53 24.79 22.53 24.79 25.45 37 25.45 37 22.53 32.69 22.53 32.69 5.65"/></g></svg>