<?xml version="1.0" encoding="UTF-8"?><svg id="Layer_2" xmlns="http://www.w3.org/2000/svg" viewBox="0 0 72.33 72.33"><defs><style>.cls-1{fill:#4d4e50;}</style></defs><g id="Object"><path class="cls-1" d="m36.16,0C16.19,0,0,16.19,0,36.17s16.19,36.16,36.16,36.16,36.16-16.19,36.16-36.16S56.14,0,36.16,0Zm-4.46,4.35h8.76v26.54h-8.76V4.35Zm4.46,60.65c-15.88,0-28.81-12.92-28.81-28.81,0-12.65,8.19-23.41,19.55-27.27v7.84c-7.25,3.47-12.27,10.88-12.27,19.43,0,11.87,9.66,21.53,21.53,21.53s21.53-9.66,21.53-21.53c0-8.56-5.02-15.97-12.27-19.43v-7.84c11.36,3.86,19.55,14.63,19.55,27.27,0,15.88-12.92,28.81-28.81,28.81Z"/></g></svg>