<?xml version="1.0" encoding="UTF-8"?><svg id="Layer_2" xmlns="http://www.w3.org/2000/svg" viewBox="0 0 70.27 52.53"><defs><style>.cls-1{fill:#4d4e50;}</style></defs><g id="Object"><path class="cls-1" d="m26.27,0h17.74C44.57,0,45.03.46,45.03,1.02v13.64c0,.56-.46,1.02-1.02,1.02h-17.74c-.56,0-1.02-.46-1.02-1.02V1.02C25.24.46,25.7,0,26.27,0Z"/><path class="cls-1" d="m51.51,36.84h17.74c.57,0,1.02.46,1.02,1.02v13.64c0,.57-.46,1.02-1.02,1.02h-17.74c-.56,0-1.02-.46-1.02-1.02v-13.65c0-.57.46-1.02,1.02-1.02Z"/><path class="cls-1" d="m26.27,36.84h17.74c.57,0,1.02.46,1.02,1.02v13.64c0,.57-.46,1.02-1.02,1.02h-17.74c-.56,0-1.02-.46-1.02-1.02v-13.65c0-.57.46-1.02,1.02-1.02Z"/><path class="cls-1" d="m1.02,36.84h17.74c.56,0,1.02.46,1.02,1.02v13.65c0,.57-.46,1.02-1.02,1.02H1.02c-.56,0-1.02-.46-1.02-1.02v-13.65c0-.57.46-1.02,1.02-1.02Z"/><path class="cls-1" d="m62.53,25.07c0-.57-.46-1.02-1.02-1.02h-24.32v-5.63c0-.56-.46-1.02-1.02-1.02h-2.05c-.56,0-1.02.46-1.02,1.02v5.63H8.7c-.56,0-1.02.46-1.02,1.02v.37s-.03.08-.03.12v8.21c0,.56.46,1.02,1.02,1.02h2.05c.56,0,1.02-.46,1.02-1.02v-5.63h21.34v5.63c0,.56.46,1.02,1.02,1.02h2.05c.56,0,1.02-.46,1.02-1.02v-5.63h21.26v5.82c0,.56.46,1.02,1.02,1.02h2.05c.56,0,1.02-.46,1.02-1.02v-8.59s0-.02,0-.04v-.26Z"/></g></svg>