<?xml version="1.0" encoding="UTF-8"?><svg id="Layer_2" xmlns="http://www.w3.org/2000/svg" viewBox="0 0 78.12 53.38"><defs><style>.cls-1{fill:none;}.cls-2{fill:#4d4e50;}</style></defs><g id="Object"><path class="cls-2" d="m10.42.68c-1.68,0-3.03,1.36-3.03,3.04v1.12h14.01v-1.12c0-1.68-1.36-3.04-3.04-3.04h-7.94Z"/><path class="cls-1" d="m24.76,30.32c0,7.93,6.42,14.35,14.35,14.35s14.36-6.42,14.36-14.35-6.43-14.36-14.36-14.36-14.35,6.43-14.35,14.36Zm26.17,0c0,3.27-1.33,6.21-3.46,8.35-2.14,2.14-5.08,3.46-8.35,3.46-3.27,0-6.21-1.32-8.35-3.46-2.14-2.14-3.46-5.08-3.46-8.35s1.32-6.21,3.46-8.35c2.14-2.14,5.08-3.46,8.35-3.46s6.21,1.32,8.35,3.46c2.14,2.14,3.46,5.09,3.46,8.35Z"/><path class="cls-2" d="m30.76,21.97c-2.14,2.14-3.46,5.09-3.46,8.35s1.32,6.21,3.46,8.35c2.14,2.14,5.08,3.46,8.35,3.46,3.27,0,6.21-1.32,8.35-3.46,2.14-2.14,3.46-5.08,3.46-8.35,0-3.26-1.33-6.21-3.46-8.35-2.14-2.14-5.08-3.46-8.35-3.46s-6.21,1.32-8.35,3.46Z"/><path class="cls-2" d="m53.81,7.27c-.96-4.16-4.68-7.27-9.13-7.27h-11.23c-4.45,0-8.17,3.11-9.13,7.27H6.37c-3.52,0-6.37,2.85-6.37,6.36v33.38c0,3.52,2.85,6.37,6.37,6.37h65.39c3.51,0,6.36-2.85,6.36-6.37V13.63c0-3.51-2.85-6.36-6.36-6.36h-17.94Zm-14.7,37.41c-7.93,0-14.35-6.42-14.35-14.35s6.42-14.36,14.35-14.36,14.36,6.43,14.36,14.36-6.43,14.35-14.36,14.35Zm29.58-30.71h-6.69c-.67,0-1.22-.54-1.22-1.22s.55-1.21,1.22-1.21h6.69c.67,0,1.22.54,1.22,1.21s-.54,1.22-1.22,1.22Z"/></g></svg>