<?xml version="1.0" encoding="UTF-8"?><svg id="Layer_2" xmlns="http://www.w3.org/2000/svg" viewBox="0 0 51.58 64.16"><defs><style>.cls-1{fill:#4d4e50;}</style></defs><g id="Object"><path class="cls-1" d="m45.92,25.66h-1.53v-6.92C44.39,8.41,36.04,0,25.79,0S7.19,8.41,7.19,18.75v6.92h-1.53c-3.13,0-5.66,2.56-5.66,5.71v27.08c0,3.15,2.54,5.71,5.66,5.71h40.25c3.12,0,5.66-2.56,5.66-5.71v-27.08c0-3.15-2.54-5.71-5.66-5.71Zm-17.76,19.62v3.54c0,.53-.42.96-.95.96h-2.85c-.52,0-.95-.43-.95-.96v-3.54c-1.3-.81-2.17-2.24-2.17-3.89,0-2.53,2.03-4.58,4.54-4.58s4.54,2.05,4.54,4.58c0,1.65-.87,3.08-2.17,3.89Zm8.07-19.62H15.34v-6.92c0-5.81,4.68-10.53,10.44-10.53s10.44,4.72,10.44,10.53v6.92Z"/></g></svg>