<?xml version="1.0" encoding="UTF-8"?><svg id="Layer_2" xmlns="http://www.w3.org/2000/svg" viewBox="0 0 74.66 72.65"><defs><style>.cls-1{fill:#4d4e50;}</style></defs><g id="Object"><path class="cls-1" d="m17.85,10.54c-1.09,1.43-2.1,2.98-3,4.63,2.82,1.69,5.98,3.07,9.38,4.07.11-.58.21-1.15.33-1.72,1.16-5.55,2.81-10.24,4.86-13.67.71-1.2,1.47-2.24,2.3-3.1-1.75.47-3.44,1.16-5.06,2.06-3.29,1.81-6.28,4.45-8.8,7.73Z"/><path class="cls-1" d="m25.91,21.56c-.67,4.22-1.06,8.86-1.11,13.74h25.04c-.05-4.88-.44-9.52-1.11-13.74-3.61.87-7.44,1.34-11.41,1.34s-7.81-.47-11.41-1.34Z"/><path class="cls-1" d="m36.96,49.64c4.11,0,8.07.5,11.79,1.43.67-4.21,1.06-8.85,1.1-13.72h-25.04c.05,4.81.43,9.38,1.08,13.55,3.51-.82,7.23-1.27,11.07-1.27Z"/><path class="cls-1" d="m9.68,35.3h13.08c.05-5.07.46-9.88,1.17-14.27-2.8-.81-5.45-1.86-7.9-3.13-.69-.35-1.35-.73-2.01-1.12-2.62,5.37-4.2,11.71-4.34,18.52Z"/><path class="cls-1" d="m13.89,55.63c3.02-1.76,6.38-3.2,9.99-4.22-.68-4.33-1.08-9.08-1.13-14.06h-13.08c.14,6.71,1.67,12.96,4.22,18.28Z"/><path class="cls-1" d="m39.56.62c-.75-.42-1.49-.62-2.23-.62s-1.47.2-2.23.62c-.75.42-1.52,1.08-2.27,1.95-1.5,1.75-2.93,4.39-4.12,7.69-1,2.75-1.84,5.97-2.49,9.51,3.5.85,7.23,1.32,11.11,1.32s7.61-.47,11.11-1.32c-.11-.62-.23-1.24-.35-1.84-1.13-5.39-2.74-9.91-4.61-13.04-1.24-2.09-2.6-3.54-3.92-4.28Z"/><path class="cls-1" d="m26.57,54.71c1.12,5.4,2.74,9.91,4.6,13.04,1.25,2.09,2.61,3.54,3.92,4.28.75.43,1.48.63,2.23.63.74,0,1.48-.2,2.23-.63.75-.42,1.52-1.08,2.27-1.95,1.5-1.75,2.92-4.39,4.12-7.69,1-2.76,1.85-5.98,2.49-9.53-3.61-.92-7.46-1.42-11.48-1.42-3.75,0-7.37.43-10.78,1.24.12.69.25,1.36.39,2.02Z"/><path class="cls-1" d="m16.22,63.36c-1.19-1.55-2.28-3.24-3.25-5.04-1.28.86-2.48,1.78-3.6,2.76,4.53,5.12,10.44,8.97,17.16,11-.29-.14-.58-.29-.87-.44-3.58-1.97-6.77-4.8-9.44-8.28Z"/><path class="cls-1" d="m45.24,68.8c-.72,1.2-1.48,2.24-2.3,3.1,1.75-.47,3.44-1.16,5.06-2.06,3.3-1.81,6.29-4.45,8.8-7.73,1.08-1.4,2.07-2.93,2.95-4.55-2.8-1.71-5.94-3.12-9.33-4.15-.11.58-.22,1.15-.33,1.72-1.16,5.55-2.82,10.25-4.85,13.67Z"/><path class="cls-1" d="m11.46,12.88c.53.41,1.08.8,1.65,1.18,3.14-5.69,7.46-10.25,12.55-13.05.28-.16.57-.3.87-.45-6.6,1.99-12.44,5.76-16.94,10.75.6.54,1.22,1.06,1.88,1.56Z"/><path class="cls-1" d="m8.21,59.72c.58-.51,1.17-1.01,1.79-1.48.69-.53,1.41-1.03,2.14-1.51-2.75-5.65-4.38-12.27-4.52-19.37H0c.23,8.46,3.26,16.21,8.21,22.36Z"/><path class="cls-1" d="m48.99,1.01c3.57,1.97,6.77,4.8,9.44,8.28,1.13,1.48,2.17,3.08,3.1,4.78,1.26-.86,2.44-1.77,3.53-2.75-4.5-5-10.34-8.76-16.94-10.76.29.15.58.29.87.45Z"/><path class="cls-1" d="m24.19,53.21c-2.74.78-5.32,1.8-7.7,3.04-.6.31-1.2.65-1.78.99,3,5.57,7.14,9.97,11.94,12.61,1.62.89,3.32,1.59,5.07,2.06-.15-.16-.31-.32-.45-.49-1.74-2.03-3.24-4.87-4.49-8.33-1.05-2.89-1.92-6.22-2.59-9.88Z"/><path class="cls-1" d="m62.37,15.67c2.83,5.7,4.51,12.42,4.66,19.63h7.63c-.24-8.57-3.35-16.43-8.42-22.62-.63.56-1.28,1.11-1.95,1.63-.62.47-1.26.92-1.92,1.36Z"/><path class="cls-1" d="m66.14,60.1c5.13-6.21,8.28-14.11,8.51-22.74h-7.62c-.15,7.25-1.85,14.01-4.7,19.73,1.36.93,2.63,1.94,3.81,3.01Z"/><path class="cls-1" d="m7.62,35.3c.15-7.21,1.83-13.93,4.65-19.63-1.37-.92-2.67-1.93-3.86-2.99C3.34,18.88.23,26.73,0,35.3h7.62Z"/><path class="cls-1" d="m58.26,54.65c.8.41,1.58.85,2.33,1.31,2.65-5.38,4.24-11.75,4.39-18.6h-13.08c-.05,5.06-.45,9.88-1.16,14.27,2.67.79,5.19,1.81,7.53,3.03Z"/><path class="cls-1" d="m48.99,71.65c-.28.15-.57.3-.87.44,6.55-1.98,12.35-5.7,16.84-10.63-.68-.62-1.39-1.22-2.14-1.8-.43-.33-.88-.66-1.34-.97-3.14,5.64-7.44,10.17-12.5,12.96Z"/><path class="cls-1" d="m42.94.75c.15.16.3.32.45.49,1.74,2.03,3.24,4.87,4.5,8.33,1.03,2.83,1.89,6.1,2.55,9.68,2.61-.77,5.09-1.76,7.37-2.94.69-.36,1.36-.73,2.02-1.13-2.99-5.46-7.08-9.76-11.81-12.36-1.62-.89-3.31-1.58-5.07-2.06Z"/><path class="cls-1" d="m51.9,35.3h13.08c-.15-6.82-1.72-13.16-4.35-18.53-2.99,1.78-6.32,3.22-9.9,4.26.7,4.39,1.12,9.21,1.17,14.27Z"/></g></svg>