<?xml version="1.0" encoding="UTF-8"?><svg id="Layer_2" xmlns="http://www.w3.org/2000/svg" viewBox="0 0 65.75 66.56"><defs><style>.cls-1{fill:#4d4e50;}</style></defs><g id="Object"><path class="cls-1" d="m1.02,48.3h6.27c.56,0,1.01.45,1.01,1.02v8.92h49.15v-8.92c0-.56.45-1.02,1.01-1.02h6.27c.56,0,1.01.45,1.01,1.02v16.22c0,.56-.45,1.02-1.01,1.02H1.02c-.56,0-1.02-.45-1.02-1.02v-16.22c0-.56.45-1.02,1.02-1.02Z"/><path class="cls-1" d="m23.04,43.88h19.68c.65,0,1.19.53,1.19,1.19v5.35c0,.66-.53,1.19-1.19,1.19h-19.68c-.66,0-1.19-.53-1.19-1.19v-5.35c0-.65.53-1.19,1.19-1.19Z"/><path class="cls-1" d="m19.44,14.15L30.83.8c.91-1.07,3.18-1.07,4.09,0l11.4,13.36,11.4,13.36c.91,1.06-.23,2.4-2.05,2.4h-11.95v11.03c0,.56-.46,1.02-1.02,1.02h-20c-.56,0-1.02-.46-1.02-1.02v-11.03h-11.6c-1.82,0-2.95-1.33-2.05-2.4l11.4-13.36Z"/></g></svg>