<?xml version="1.0" encoding="UTF-8"?><svg id="Layer_2" xmlns="http://www.w3.org/2000/svg" viewBox="0 0 80.68 73.47"><defs><style>.cls-1{fill:#4d4e50;}</style></defs><g id="Object"><path class="cls-1" d="m79.27,44.63l-29.95-29.42c-.98-1.02-2.36-1.65-3.89-1.64l-16.3.14c-1.9-2.41-4.36-4.8-7.19-6.95C16.44,2.59,10.36,0,6.05,0,3.17,0,1.71,1.14.98,2.09-.59,4.16-.27,7.35,1.89,11.06c1.96,3.37,5.25,6.91,9.26,9.95,3.08,2.34,6.34,4.17,9.37,5.34l.11,12.46c.01,1.48.63,2.81,1.6,3.76.02.03.04.06.07.09l29.96,29.44c2.67,2.62,5.43,1.1,8.05-1.57l17.53-17.84c2.62-2.66,4.09-5.45,1.42-8.08ZM30.02,24.1c-.62.82-1.84,1.03-2.81,1.05-.03-.2-.06-.39-.06-.59,0-1.86,1.28-3.41,3-3.85.46,1.47.43,2.67-.12,3.4Zm-17.29-5.18c-3.74-2.84-6.79-6.09-8.57-9.17-1.54-2.66-1.95-4.93-1.08-6.07.66-.87,1.98-1.05,2.98-1.05,3.76,0,9.24,2.39,14.31,6.23,2.03,1.54,3.84,3.2,5.37,4.89-2.94.03-5.3,2.43-5.27,5.37l.04,4.41c-2.51-1.08-5.19-2.65-7.76-4.6Zm18.41,9.62c-.96,0-1.82-.35-2.51-.91,1.85-.33,2.91-1.19,3.48-1.95.92-1.22,1.17-2.82.81-4.69,1.31.66,2.21,1.99,2.21,3.56,0,2.21-1.79,3.99-3.99,3.99Z"/></g></svg>