<?xml version="1.0" encoding="UTF-8"?><svg id="Layer_2" xmlns="http://www.w3.org/2000/svg" viewBox="0 0 78.61 52.53"><defs><style>.cls-1{fill:#4d4e50;}</style></defs><g id="Object"><path class="cls-1" d="m72.81.22L5.97,0C2.75-.01.14,2.58.13,5.79L0,46.48c-.01,3.21,2.58,5.82,5.79,5.83l66.85.22c3.21.01,5.82-2.58,5.83-5.79l.13-40.69c0-3.21-2.58-5.82-5.79-5.83ZM10.66,31.93l21.78-.02v1.64s-21.78.02-21.78.02v-1.64Zm0,7.77v-1.64s43.56-.05,43.56-.05v1.64s-43.56.05-43.56.05Zm43.25-11.46l-.02-20.36,16.25-.02.02,20.36-16.26.02Z"/></g></svg>