<?xml version="1.0" encoding="UTF-8"?><svg id="Layer_2" xmlns="http://www.w3.org/2000/svg" viewBox="0 0 55.17 80.69"><defs><style>.cls-1{fill:none;}.cls-2{fill:#4d4e50;}</style></defs><g id="Object"><polygon class="cls-1" points="18.35 66.3 37.4 62.63 37.49 60.03 18.26 63.73 18.35 66.3"/><polygon class="cls-1" points="18.52 70.65 37.25 67.04 37.34 64.43 18.42 68.08 18.52 70.65"/><path class="cls-1" d="m18.59,72.53s.06.09.11.09h18.28s.09-.06.09-.08l.12-3.71-18.61,3.59v.11Z"/><polygon class="cls-1" points="31.12 58.51 31.15 57.91 24.02 57.91 22.05 57.91 18.03 57.91 18.19 61.96 37.54 58.23 37.56 57.91 33.12 57.91 33.09 58.51 31.12 58.51"/><path class="cls-2" d="m27.58,0C12.37,0,0,12.37,0,27.58c0,9.97,5.32,18.72,13.26,23.56l.82,20.38c.09,2.35,1.9,4.3,4.17,4.66.86,2.56,4.71,4.5,9.34,4.5s8.43-1.91,9.32-4.45c2.51-.13,4.58-2.2,4.67-4.73l.71-20.6c7.74-4.89,12.89-13.52,12.89-23.33C55.17,12.37,42.79,0,27.58,0Zm9.49,72.54s-.05.08-.09.08h-18.28s-.11-.06-.11-.09v-.11s18.6-3.59,18.6-3.59l-.12,3.71Zm.18-5.5l-18.73,3.61-.1-2.57,18.92-3.64-.09,2.61Zm.15-4.4l-19.05,3.67-.1-2.57,19.23-3.7-.09,2.61Zm4.5-32.16l-8.31,14.89-.47,12.55h4.44v.32s-19.37,3.73-19.37,3.73l-.15-4.05h4.01l-.47-12.55-8.31-14.89c-.22-.39-.13-.85.16-1.15.06-.07.12-.12.19-.17,0,0,.01-.01.02-.02,0,0,0,0,.01,0,.15-.09.32-.16.51-.16h26.59c.1,0,.19.03.27.06.16,0,.33.02.48.11.47.26.64.86.38,1.34Z"/><path class="cls-2" d="m31.63,45.05c0-.16.05-.31.12-.44l5.42-9.7h0l.62-1.09,1.61-2.89H15.77l1.62,2.9h0s.6,1.06.6,1.06h-.01l5.43,9.73c.08.14.12.29.12.44l.48,12.86h7.13l.48-12.86Z"/></g></svg>