<?xml version="1.0" encoding="UTF-8"?><svg id="Layer_2" xmlns="http://www.w3.org/2000/svg" viewBox="0 0 92.49 51.7"><defs><style>.cls-1{fill:#4d4e50;}</style></defs><g id="Object"><path class="cls-1" d="m76.61,21.17c-.59,0-1.18.03-1.75.09.03-.45.05-.91.05-1.37,0-10.99-8.83-19.9-19.72-19.9-10.27,0-18.71,7.93-19.63,18.05,3.51,2.76,5.78,7.04,5.84,11.85.05,0,.09,0,.14,0,6.82,0,12.36,5.35,12.36,11.93,0,4.08-2.15,7.7-5.41,9.86h28.2c8.73-.05,15.79-6.86,15.79-15.26s-7.11-15.26-15.87-15.26Z"/><path class="cls-1" d="m51.76,41.84c0-5.39-4.59-9.78-10.23-9.78-.37,0-.75.02-1.13.06l-1.26.13.09-1.28c.02-.31.03-.61.03-.9,0-7.21-5.81-13.07-12.96-13.07-3.28,0-6.41,1.24-8.81,3.49-2.39,2.24-3.85,5.26-4.11,8.53l-.09,1.13-1.12-.15c-.47-.06-.95-.09-1.43-.09-5.93,0-10.76,4.87-10.76,10.86s4.8,10.82,10.7,10.86h.19s30.54,0,30.54,0h.16c5.61-.03,10.17-4.42,10.17-9.78Z"/></g></svg>