<?xml version="1.0" encoding="UTF-8"?><svg id="Layer_2" xmlns="http://www.w3.org/2000/svg" viewBox="0 0 68.92 72.77"><defs><style>.cls-1{fill:#4d4e50;}</style></defs><g id="Object"><path class="cls-1" d="m58.13,13.57c-4.12,2.35-7.06,3.79-9.4,3.41,2.52-1.08,6.93-3.4,9.25-8.84.17-.41-1.08-.99-1.49-1.17-.41-.18-.89.02-1.06.43-1.79,4.2-4.22,6.39-6.26,7.55,2.38-4.36,3.8-10.43,3.8-14.96H15.95c0,5.84,2.36,14.25,6.09,18.24h24.84s0-.01.02-.02c1,.3,2.24.53,3.71.53,2.39,0,5.35-.61,8.75-2.55.39-.22.1-1.94-.12-2.33-.22-.39-.72-.52-1.11-.3Z"/><path class="cls-1" d="m47.17,20.07h-25.42C9.01,25.13,0,37.55,0,52.09c0,19.03,15.43,20.67,34.46,20.67s34.46-1.64,34.46-20.67c0-14.54-9.01-26.97-21.75-32.03Zm-3.28,31.23c-.39,4.19-3.95,6.72-7.09,6.98l.02,4.41h-4.25v-4.06s-4.83-.25-7.58-1.95l1.6-4.97s1.92,1.04,4.14,1.49c2.23.46,6.08.34,6.56-1.76.46-2.03-.86-2.83-3.61-3.61-2.75-.79-7.55-3.03-7.98-6.74-.47-4.03,1.35-7.16,6.81-8.31v-4.25h4.25v3.73s4.36.34,6,1.39l-1.03,4.57s-4.12-1.37-6.94-1.18c-2.82.2-3,3.05-1,4.33,2.36,1.51,5.85,2.61,6.96,3.2,1.11.59,3.53,2.55,3.14,6.74Z"/></g></svg>