<?xml version="1.0" encoding="UTF-8"?><svg id="Layer_2" xmlns="http://www.w3.org/2000/svg" viewBox="0 0 73.1 67.59"><defs><style>.cls-1{fill:#4d4e50;}</style></defs><g id="Object"><path class="cls-1" d="m63.35,23.08c1.03-.89.82-1.98-.48-2.41l-4.62-1.54c-1.29-.43-1.94-1.82-1.44-3.09l1.78-4.53c.5-1.27-.19-2.13-1.54-1.91l-4.81.78c-1.35.22-2.57-.71-2.72-2.07l-.53-4.84c-.15-1.36-1.16-1.79-2.25-.98l-3.89,2.92c-1.09.82-2.61.56-3.37-.57l-2.72-4.04c-.76-1.13-1.86-1.05-2.45.18l-2.09,4.4c-.58,1.23-2.05,1.71-3.25,1.06l-4.28-2.32c-1.2-.65-2.14-.06-2.08,1.3l.19,4.87c.06,1.36-1.02,2.46-2.38,2.45l-4.87-.06c-1.36-.02-1.92.94-1.24,2.12l2.43,4.22c.68,1.18.24,2.65-.97,3.27l-4.34,2.21c-1.22.62-1.27,1.72-.12,2.45l4.12,2.6c1.15.73,1.45,2.24.66,3.35l-2.82,3.97c-.79,1.11-.32,2.11,1.04,2.22l4.85.39c1.36.11,2.32,1.31,2.14,2.66l-.65,4.83c-.18,1.35.7,2.02,1.95,1.49l4.48-1.91c1.25-.53,2.67.08,3.13,1.36l1.67,4.57c.47,1.28,1.56,1.47,2.42.41l3.08-3.77c.86-1.06,2.4-1.17,3.41-.25l3.61,3.27c1.01.92,2.06.57,2.33-.76l.98-4.77c.27-1.34,1.58-2.15,2.9-1.81l4.71,1.22c1.32.34,2.09-.45,1.71-1.76l-1.35-4.68c-.38-1.31.4-2.64,1.73-2.95l4.74-1.11c1.33-.31,1.64-1.37.7-2.35l-3.37-3.51c-.94-.99-.87-2.52.16-3.41l3.68-3.18Z"/><path class="cls-1" d="m57.44,41.19l1.35,4.68c.38,1.31-.39,2.1-1.71,1.76l-4.71-1.22c-1.32-.34-2.63.47-2.9,1.81l-.84,4.1,13.79,15.28,1.09-9.31,9.59-.32-15.75-17.47c0,.23.02.46.09.7Z"/><path class="cls-1" d="m25.38,48.44l-4.48,1.91c-1.26.53-2.13-.14-1.95-1.49l.65-4.83c.18-1.35-.78-2.55-2.14-2.66l-.7-.06L0,56.42l9.31,1.09.32,9.59,18.96-17.1-.08-.21c-.47-1.28-1.88-1.89-3.13-1.36Z"/></g></svg>