<?xml version="1.0" encoding="UTF-8"?><svg id="Layer_2" xmlns="http://www.w3.org/2000/svg" viewBox="0 0 57.84 86.28"><defs><style>.cls-1{fill:#4d4e50;}</style></defs><g id="Object"><path class="cls-1" d="m21.57,0v3.41h-6.92c-.81,0-1.47.66-1.47,1.47v18.39c0,.81.66,1.47,1.47,1.47h28.38c.81,0,1.47-.66,1.47-1.47V4.88c0-.81-.66-1.47-1.47-1.47h-6.92V0h-1.5v3.41h-11.53V0h-1.5Zm16.37,20.95h-18.21v-1.96h18.21v1.96Zm-1.84-12.96c1.5,0,2.71,1.21,2.71,2.71s-1.21,2.7-2.71,2.7-2.71-1.21-2.71-2.7,1.21-2.71,2.71-2.71Zm-11.83,2.71c0,1.49-1.21,2.7-2.7,2.7s-2.7-1.21-2.7-2.7,1.21-2.71,2.7-2.71,2.7,1.21,2.7,2.71Z"/><rect class="cls-1" x="3.43" y="26.56" width="5.62" height="15.83"/><rect class="cls-1" x="3.43" y="43.54" width="5.62" height="15.84"/><path class="cls-1" d="m8.2,69.78v2.13c2.49-.82,4.29-3.16,4.29-5.93,0-3.45-2.8-6.25-6.25-6.25s-6.25,2.8-6.25,6.25c0,2.77,1.8,5.11,4.29,5.93v-2.13c-1.38-.71-2.33-2.14-2.33-3.8,0-2.37,1.92-4.29,4.29-4.29s4.29,1.92,4.29,4.29c0,1.66-.95,3.09-2.34,3.8Z"/><rect class="cls-1" x="48.77" y="26.56" width="5.63" height="15.83"/><rect class="cls-1" x="48.77" y="43.54" width="5.63" height="15.84"/><path class="cls-1" d="m53.55,69.78v2.13c2.49-.82,4.29-3.16,4.29-5.93,0-3.45-2.8-6.25-6.25-6.25s-6.25,2.8-6.25,6.25c0,2.77,1.8,5.11,4.29,5.93v-2.13c-1.38-.71-2.34-2.14-2.34-3.8,0-2.37,1.92-4.29,4.29-4.29s4.29,1.92,4.29,4.29c0,1.66-.95,3.09-2.33,3.8Z"/><path class="cls-1" d="m11.55,25.71c-.81,0-1.47.66-1.47,1.47v26.11c0,.81.66,1.47,1.47,1.47h34.56c.81,0,1.47-.66,1.47-1.47v-26.11c0-.81-.66-1.47-1.47-1.47H11.55Zm29.03,20.31c0,1.2-.98,2.19-2.19,2.19h-6.85l4.65-4.65c.53-.53.53-1.4,0-1.93-.54-.53-1.4-.53-1.93,0l-6.58,6.58h-8.41c-1.21,0-2.19-.98-2.19-2.19v-7.65c0-1.21.98-2.19,2.19-2.19h19.12c1.21,0,2.19.98,2.19,2.19v7.65Z"/><rect class="cls-1" x="17.42" y="56.35" width="9.28" height="14.48"/><rect class="cls-1" x="17.42" y="72.33" width="9.28" height="6.86"/><path class="cls-1" d="m15.02,80.13c-1.47,0-2.66,1.38-2.66,3.07s1.19,3.08,2.66,3.08h10.52c1.47,0,2.67-1.38,2.67-3.08s-1.19-3.07-2.67-3.07h-10.52Z"/><rect class="cls-1" x="31.13" y="56.35" width="9.28" height="14.48"/><rect class="cls-1" x="31.13" y="72.33" width="9.28" height="6.86"/><path class="cls-1" d="m32.3,80.13c-1.47,0-2.67,1.38-2.67,3.07s1.19,3.08,2.67,3.08h10.52c1.47,0,2.67-1.38,2.67-3.08s-1.2-3.07-2.67-3.07h-10.52Z"/></g></svg>