<svg id="Capa_1" enable-background="new 0 0 512 512" height="512" viewBox="0 0 512 512" width="512" xmlns="http://www.w3.org/2000/svg"><g><path d="m370.894 202.592c54.142 0 102.402 25.706 133.296 65.578 5.123-13.596 7.81-28.121 7.81-42.929 0-66.921-54.272-121.365-120.983-121.365h-8.753v-6.928c-.001-53.457-43.356-96.948-96.645-96.948-.001 0 .001 0-.001 0-25.813 0-50.083 10.085-68.337 28.395-18.254 18.311-28.306 42.657-28.306 68.552v.533c-6.275-1.21-12.676-1.82-19.167-1.82-55.773 0-101.146 45.517-101.146 101.464 0 2.849.121 5.695.36 8.532-38.172.665-69.022 32.022-69.022 70.469 0 38.863 31.518 70.48 70.258 70.48h133.779c12.152-81.392 82.345-144.013 166.857-144.013z"/><path d="m474.963 387.646v-30h37.037c-6.958-65.333-58.844-117.384-123.971-124.367v37.223h-29.906v-37.223c-65.127 6.983-117.012 59.034-123.97 124.367h37.037v30h-37.036c6.963 65.327 58.846 117.371 123.969 124.354v-37.21h29.906v37.21c65.123-6.983 117.006-59.027 123.97-124.354zm-53.182-.006h-63.658v-79.478h29.906v49.478h33.752z"/></g></svg>