<svg id="Capa_1" enable-background="new 0 0 512 512" height="512" viewBox="0 0 512 512" width="512" xmlns="http://www.w3.org/2000/svg"><g><path d="m63.219 377.313h-62.815v134.687h148.689v-106.926h-68.752z"/><path d="m244.066 377.313h-62.814v134.687h148.689v-106.926h-68.752z"/><path d="m442.844 405.074-17.122-27.761h-62.815v134.687h148.689v-106.926z"/><path d="m89.7 292.958h150.945v52.267h29.902v-52.267h150.946v52.267h29.902v-82.17h-180.848v-50.506h-29.902v50.506h-180.848v82.17h29.903z"/><path d="m356.811 183.549c21.702 0 39.294-17.608 39.294-39.328 0-21.72-17.593-39.328-39.294-39.328h-1.582c9.322-16.925 6.825-38.627-7.513-52.978-14.308-14.32-35.931-16.839-52.825-7.58v-5.008c0-21.719-17.593-39.327-39.295-39.327-21.702 0-39.295 17.608-39.295 39.328v5.008c-16.895-9.259-38.517-6.741-52.825 7.58-14.339 14.351-16.835 36.053-7.513 52.978h-1.582c-21.702 0-39.294 17.608-39.294 39.328 0 21.72 17.593 39.328 39.294 39.328h86.264 29.902 86.264z"/></g></svg>