<svg id="Capa_1" enable-background="new 0 0 512 512" height="512" viewBox="0 0 512 512" width="512" xmlns="http://www.w3.org/2000/svg"><g><path d="m271.064 392.958v-53.982c-4.942.401-9.937.614-14.98.614-5.044 0-10.038-.213-14.98-.614v54.036c4.884-1.01 9.94-1.542 15.118-1.542 5.081 0 10.044.515 14.842 1.488z"/><g><path d="m258.938 167.294c17.567-1.458 31.42-16.231 31.42-34.192 0-18.924-15.375-34.319-34.274-34.319s-34.274 15.396-34.274 34.319c0 17.953 13.84 32.72 31.396 34.19.929-.02 1.86-.035 2.794-.035.982-.001 1.961.015 2.938.037z"/><path d="m158.11 275.255c26.712 21.902 60.836 35.063 97.974 35.063 37.073 0 71.14-13.115 97.831-34.948-9.917-43.559-48.236-76.434-94.37-78.044-1.147.061-2.3.096-3.461.096-1.181 0-2.352-.037-3.517-.1-46.143 1.558-84.491 34.395-94.457 77.933z"/><path d="m208.469 176.225c-10.322-11.417-16.619-26.547-16.619-43.123 0-35.466 28.815-64.319 64.234-64.319s64.234 28.854 64.234 64.319c0 16.599-6.313 31.749-16.66 43.171 33.982 13.387 61.027 40.652 74.134 74.773 20.771-26.396 33.178-59.683 33.178-95.819 0-85.517-69.482-155.091-154.886-155.091s-154.885 69.574-154.885 155.091c0 36.07 12.361 69.304 33.065 95.677 13.142-34.096 40.211-61.328 74.205-74.679z"/></g><path d="m183.098 451.167h-64.338c.991 4.847 1.513 9.864 1.513 15s-.521 10.153-1.513 15h64.338c-.991-4.847-1.513-9.864-1.513-15s.522-10.153 1.513-15z"/><path d="m393.24 451.167h-63.894c.991 4.847 1.513 9.864 1.513 15s-.521 10.153-1.513 15h63.894c-.991-4.847-1.513-9.864-1.513-15s.521-10.153 1.513-15z"/><ellipse cx="45.636" cy="466.167" rx="45.636" ry="45.697"/><ellipse cx="256.222" cy="466.167" rx="45.636" ry="45.697"/><ellipse cx="466.363" cy="466.167" rx="45.636" ry="45.697"/></g></svg>