<svg id="Capa_1" enable-background="new 0 0 512 512" height="512" viewBox="0 0 512 512" width="512" xmlns="http://www.w3.org/2000/svg"><g><path d="m126.571 185.683c-5.733 8.243-12.877 15.425-21.083 21.207l65.535 64.741c2.787-10.438 7.387-20.142 13.445-28.753z"/><circle cx="56.416" cy="137.04" r="56.416"/><path d="m383.826 184.795-55.283 51.924c6.561 7.822 11.832 16.759 15.483 26.484l60.628-56.944c-8.129-5.884-15.198-13.145-20.828-21.464z"/><ellipse cx="454.612" cy="137.04" rx="56.416" ry="56.416" transform="matrix(.383 -.924 .924 .383 154.031 504.604)"/><path d="m119.079 438.152c-5.66 1.255-11.533 1.938-17.566 1.938-26.638 0-50.315-12.912-65.11-32.802-22.223 18.416-36.403 46.215-36.403 77.265v27.262h112.05v-28.768c0-15.654 2.471-30.738 7.029-44.895z"/><circle cx="101.513" cy="358.981" r="52.109"/><path d="m415.594 440.09c-5.786 0-11.428-.62-16.874-1.778 4.524 14.111 6.977 29.14 6.977 44.734v28.768h106.303v-27.262c0-29.604-12.892-56.25-33.353-74.629-14.882 18.384-37.612 30.167-63.053 30.167z"/><path d="m203.647 88.637 22.353 19.864c7.536-8.48 18.324-13.344 29.599-13.344s22.063 4.863 29.598 13.344l22.354-19.864c-13.205-14.86-32.141-23.383-51.951-23.383s-38.748 8.523-51.953 23.383z"/><path d="m255.598 30.089c29.762 0 58.22 12.816 78.077 35.161l22.354-19.864c-25.527-28.725-62.132-45.201-100.43-45.201s-74.904 16.475-100.43 45.201l22.353 19.864c19.855-22.345 48.314-35.161 78.076-35.161z"/><path d="m303.753 374.112c-13.249 7.552-28.568 11.872-44.879 11.872s-31.63-4.321-44.879-11.873c-42.771 17.686-72.945 59.85-72.945 108.934v28.768h235.648v-28.768c-.001-49.083-30.175-91.247-72.945-108.933z"/><ellipse cx="258.874" cy="295.066" rx="61.919" ry="61.919" transform="matrix(.707 -.707 .707 .707 -132.821 269.474)"/><circle cx="415.595" cy="358.981" r="52.109"/></g></svg>