<svg id="Capa_1" enable-background="new 0 0 512 512" height="512" viewBox="0 0 512 512" width="512" xmlns="http://www.w3.org/2000/svg"><g><path d="m436.878 146.699c-3.759-37.16-35.226-66.26-73.361-66.26-6.813 0-13.49.918-19.901 2.709-2.416-46.233-40.791-83.104-87.616-83.104s-85.2 36.871-87.616 83.104c-6.411-1.791-13.088-2.709-19.901-2.709-38.135 0-69.602 29.1-73.361 66.26-42.55 6.979-75.122 44.011-75.122 88.505 0 49.627 40.233 90.002 89.686 90.002h3.289c-.156 1.179-.321 2.357-.451 3.542-3.229 29.428 1.716 59.141 14.3 85.928 2.21 4.703 4.633 9.263 7.218 13.701 6.253-8.122 14.244-14.832 23.415-19.579-1.209-2.258-2.382-4.542-3.481-6.88-10.236-21.789-14.259-45.96-11.632-69.898.251-2.285.58-4.554.949-6.814h-30.318c3.728-28.193 14.833-54.814 32.274-77.188 18.108-23.228 40.559-40.635 66.728-51.74 19.175-8.137 39.908-12.489 60.787-12.872v29.993c-16.866.375-33.592 3.927-49.068 10.495-21.419 9.09-39.852 23.412-54.787 42.569-13.342 17.113-22.113 37.303-25.615 58.743h265.078c-1.459-8.115-3.699-16.154-6.761-24.002-4.411-11.309-10.009-21.763-16.723-31.258-8.466 4.84-18.254 7.621-28.685 7.621-31.981 0-58-26.019-58-58s26.019-58 58-58 58 26.019 58 58c0 10.554-2.848 20.45-7.794 28.985 9.453 12.548 17.211 26.522 23.151 41.749 4.441 11.385 7.486 23.096 9.198 34.905h-30.386c5.896 32.793-1.173 66.84-20.382 94.713-26.837 38.942-68.86 61.024-113.904 60.398v30.009c.656.008 1.312.022 1.967.022 54.2-.001 104.483-26.745 136.64-73.405 22.713-32.958 31.698-72.881 26.066-111.737h3.556c49.453 0 89.686-40.375 89.686-90.003-.001-44.494-32.573-81.525-75.123-88.504z"/><circle cx="169.508" cy="470.975" r="40.981"/><circle cx="336.204" cy="219.566" r="29"/></g></svg>