<svg id="Capa_1" enable-background="new 0 0 512 512" height="512" viewBox="0 0 512 512" width="512" xmlns="http://www.w3.org/2000/svg"><g><path d="m424.507 160.32c-9.22 26.198-34.201 45.035-63.513 45.035h-76.178v61.606h75.438l-15.4-15.4 21.211-21.211 51.882 51.88-51.882 51.881-21.211-21.211 15.943-15.944h-75.982v131.762h227.185v-268.398z"/><path d="m284.816 458.718h227.184v53.282h-227.184z"/><path d="m427.861 130.323h84.139v-41.065h-104.671c11.157 10.604 18.689 24.979 20.532 41.065z"/><path d="m227.239 326.546h28.761v29.997h-28.761z"/><path d="m256 266.962h28.816v29.997h-28.816z"/><path d="m0 458.718h227.184v53.282h-227.184z"/><path d="m93.404 160.32h-93.404v268.401h227.184v-72.178h-76.982l15.944 15.944-21.211 21.211-51.882-51.88 51.882-51.881 21.211 21.211-15.4 15.4h76.438v-121.193h-59.244c-32.303 0-60.403-18.283-74.536-45.035z"/><path d="m83.686 121.101c0-11.265 2.239-22.012 6.268-31.843h-89.954v41.065h84.2c-.331-3.031-.514-6.105-.514-9.222z"/><path d="m399.292 138.035c0-21.151-17.147-38.298-38.298-38.298h-15.697c6.895-13.596 4.669-30.631-6.697-41.997-12.691-12.691-32.451-13.989-46.598-3.911-.747-29.853-25.163-53.829-55.197-53.829-30.504 0-55.233 24.728-55.233 55.232v10.636h-13.632c-30.504 0-55.232 24.728-55.232 55.232 0 30.504 24.728 55.232 55.232 55.232h193.054c21.152.001 38.298-17.146 38.298-38.297z"/></g></svg>