<svg id="Capa_1" enable-background="new 0 0 512 512" height="512" viewBox="0 0 512 512" width="512" xmlns="http://www.w3.org/2000/svg"><g><path d="m35.298 389.754v-263.634h-35.298v385.88l97.341-85.281h281.259l-44.76-36.965z"/><path d="m226.726 195.541h142.207c11.61 0 21.055-9.446 21.055-21.055 0-11.61-9.445-21.056-21.055-21.056h-20.302c.161-1.215.252-2.452.252-3.711 0-15.491-12.558-28.05-28.05-28.05-8.061 0-15.323 3.406-20.439 8.85v-30.85c0-13.067-10.631-23.699-23.698-23.699s-23.698 10.632-23.698 23.699v25.395h-26.271c-19.43 0-35.238 15.809-35.238 35.239s15.807 35.238 35.237 35.238z"/><path d="m64.298 360.754h279.968l126.283 104.291v-104.291h41.451v-360.754h-447.702zm158.829-265.655c2.328-27.513 25.465-49.192 53.569-49.192 25.969 0 47.697 18.51 52.685 43.03 1.508-.147 3.031-.221 4.564-.221 21.867 0 40.243 15.237 45.07 35.65 23.376 4.693 41.037 25.383 41.037 50.12 0 28.186-22.932 51.118-51.118 51.118h-62.753v30.784h107.232v30.063h-245.35v-30.063h108.055v-30.784h-49.392c-36.007 0-65.301-29.294-65.301-65.301 0-34.801 27.361-63.331 61.702-65.204z"/></g></svg>