<svg id="Capa_1" enable-background="new 0 0 512 512" height="512" viewBox="0 0 512 512" width="512" xmlns="http://www.w3.org/2000/svg"><g><g><path d="m412.434 337.884 99.27-99.354c-1.066-16.045-3.589-31.691-7.473-46.793l-71.763 71.825c-1.159 26.75-8.267 51.952-20.034 74.322z"/><path d="m79.942 255.783c0-92.335 70.846-168.098 161.101-175.838v-79.913c-134.282 7.9-240.748 119.373-240.748 255.751 0 54.553 17.048 105.115 46.085 146.666l61.767-50.892c-17.84-27.586-28.205-60.467-28.205-95.774z"/><path d="m256.295 432.286c-51.331 0-97.532-21.956-129.76-56.988l-61.55 50.713c46.891 52.749 115.217 85.989 191.31 85.989 79.428 0 150.405-36.206 197.361-93.025l-62.072-49.98c-32.35 38.682-80.945 63.291-135.289 63.291z"/><path d="m337.719 12.807c-21.13-7.09-43.49-11.489-66.676-12.807v79.54z"/><path d="m429.755 223.815 63.955-64.009c-5.27-13.045-11.572-25.56-18.822-37.435l-58.743 58.792c6.25 13.389 10.875 27.689 13.61 42.652z"/><path d="m348.721 105.446 57.383-57.431c-12.012-8.691-24.802-16.372-38.255-22.901l-61.376 61.428c15.016 4.453 29.196 10.849 42.248 18.904z"/><path d="m400.578 154.282 56.901-56.949c-8.518-10.818-17.894-20.926-28.015-30.236l-56.392 56.439c10.316 9.131 19.558 19.448 27.506 30.746z"/><path d="m430.759 362.005 40.646 32.728c21.448-33.192 35.441-71.659 39.594-113.035z"/></g><path d="m336.755 255.783h-1.258c7.41-13.454 5.426-30.706-5.972-42.114-11.374-11.384-28.563-13.386-41.993-6.025v-3.981c0-17.266-13.985-31.263-31.237-31.263-17.251 0-31.237 13.997-31.237 31.263v3.981c-13.43-7.361-30.619-5.358-41.993 6.025-11.398 11.408-13.383 28.66-5.972 42.114h-1.258c-17.252 0-31.237 13.997-31.237 31.263 0 17.266 13.985 31.263 31.237 31.263h160.92c17.252 0 31.237-13.997 31.237-31.263 0-17.266-13.985-31.263-31.237-31.263z"/></g></svg>