<svg id="Capa_1" enable-background="new 0 0 512 512" height="512" viewBox="0 0 512 512" width="512" xmlns="http://www.w3.org/2000/svg"><g><path d="m342.166 188.042c4.405 1.849 9.243 2.873 14.32 2.873 20.45 0 37.028-16.578 37.028-37.028s-16.578-37.028-37.028-37.028-37.028 16.578-37.028 37.028c0 4.269.731 8.365 2.061 12.181l-22.183 22.182 21.31 21.31z"/><path d="m101.096 371.054-64.635 110.809h-36.461v30.137h235.964v-30.137h-42.319l-4.338-46.948c-26.393-8.659-50.56-23.441-70.744-43.625-6.368-6.368-12.198-13.131-17.467-20.236z"/><path d="m387.247 57.708 1.774 30.085c9.513-.557 18.825 2.959 25.527 9.661 6.7 6.7 10.221 16.004 9.66 25.525l30.084 1.775c1.068-18.109-5.651-35.827-18.435-48.61-12.784-12.784-30.506-19.498-48.61-18.436z"/><path d="m476.642 35.358c-24.372-24.372-58.153-37.184-92.672-35.147l1.774 30.085c25.941-1.53 51.299 8.083 69.588 26.373 18.289 18.288 27.902 43.652 26.373 69.588l30.084 1.774c2.036-34.524-10.775-68.302-35.147-92.673z"/><path d="m139.068 370.784c29.385 29.385 67.971 44.072 106.57 44.072 33.923 0 67.853-11.36 95.521-34.064l-212.099-212.1c-48.535 59.144-45.202 146.882 10.008 202.092z"/><path d="m249.472 85.948h47.437v301.425h-47.437z" transform="matrix(.707 -.707 .707 .707 -87.329 262.493)"/></g></svg>