<svg id="Capa_1" enable-background="new 0 0 512 512" height="512" viewBox="0 0 512 512" width="512" xmlns="http://www.w3.org/2000/svg"><g><path d="m304.983 330.165c-7.532 0-13.66 6.128-13.66 13.66s6.128 13.66 13.66 13.66 13.659-6.128 13.659-13.66-6.127-13.66-13.659-13.66z"/><g><path d="m180.639 249.482-69.797-.254c-61.119 0-110.842 49.723-110.842 110.841v87.184c0 35.701 29.046 64.747 64.748 64.747 21.076 0 40.889-10.3 52.998-27.552l48.243-68.74c3.751-5.345 8.839-9.483 14.65-12.093v.121 31.625h30.011v-31.491c5.589 2.627 10.494 6.676 14.132 11.875l48.042 68.636c12.105 17.294 31.935 27.619 53.044 27.619h.169c35.702 0 64.747-29.046 64.747-64.747v-87.184c0-61.118-49.723-110.841-110.841-110.841h-69.294v-29h-30.011v29.254zm-49.739 109.348h-27.401v27.402h-30.011v-27.402h-27.401v-30.011h27.401v-27.401h30.011v27.401h27.401zm174.083-58.675c24.08 0 43.67 19.59 43.67 43.67s-19.59 43.67-43.67 43.67-43.671-19.59-43.671-43.67 19.591-43.67 43.671-43.67z"/><path d="m442.969 133.689c-4.325-33.815-33.288-60.037-68.26-60.037-5.826 0-11.545.719-17.065 2.126-3.017-42.29-38.388-75.778-81.432-75.778-45.017 0-81.64 36.624-81.64 81.641v2.826h-4.332c-55.964 0-101.495 45.53-101.495 101.495 0 12.124 2.174 24.008 6.294 35.165 5.189-.586 10.46-.898 15.803-.898h69.797v-19.38c0-29.49 23.992-53.482 53.482-53.482 12.942 0 23.471-10.529 23.471-23.471v-25.38h30.01v25.38c0 29.49-23.992 53.482-53.482 53.482-12.942 0-23.471 10.529-23.471 23.471v19.38h69.294c50.537 0 94.897 26.948 119.47 67.228h35.494c42.509 0 77.093-34.583 77.093-77.093 0-39.789-30.297-72.633-69.031-76.675z"/></g></g></svg>