<svg id="Capa_1" enable-background="new 0 0 512 512" height="512" viewBox="0 0 512 512" width="512" xmlns="http://www.w3.org/2000/svg"><g><path d="m102.952 126.854c0-21.171 17.224-38.394 38.394-38.394h20.746l-15.618 15.618 21.137 21.137 51.703-51.702-51.703-51.702-21.137 21.137 15.618 15.618h-20.747c-37.654 0-68.288 30.634-68.288 68.288v191.618c8.597-7.752 18.738-13.813 29.893-17.694v-173.924z"/><path d="m413.399 355.457c0 21.171-17.224 38.394-38.394 38.394h-20.746l15.618-15.618-21.137-21.137-51.702 51.702 51.702 51.702 21.137-21.137-15.618-15.618h20.746c37.654 0 68.287-30.634 68.287-68.288v-138.956h-29.893z"/><path d="m263.407 430.74h-16.653c7.315-14.424 4.953-32.497-7.104-44.554-13.464-13.464-34.427-14.841-49.436-4.149-.792-31.672-26.696-57.107-58.558-57.107-32.362 0-58.596 26.234-58.596 58.596v11.283h-14.464c-32.362-.001-58.596 26.233-58.596 58.595 0 32.362 26.234 58.596 58.596 58.596h204.811c22.439 0 40.63-18.191 40.63-40.63 0-22.44-18.191-40.63-40.63-40.63z"/><path d="m453.404 69.879h-14.462v-11.283c0-32.362-26.235-58.596-58.596-58.596-31.862 0-57.766 25.436-58.558 57.107-15.009-10.692-35.972-9.315-49.436 4.149-12.057 12.057-14.419 30.13-7.104 44.554h-16.653c-22.439 0-40.63 18.191-40.63 40.63 0 22.439 18.191 40.63 40.63 40.63h204.811c32.362 0 58.596-26.234 58.596-58.596-.002-32.361-26.236-58.595-58.598-58.595z"/></g></svg>