<svg id="Capa_1" enable-background="new 0 0 512 512" height="512" viewBox="0 0 512 512" width="512" xmlns="http://www.w3.org/2000/svg"><g><path d="m432.631 139.721c-4.04-35.235-34.048-62.693-70.347-62.693-6.473 0-12.82.863-18.918 2.548-2.419-44.288-39.214-79.576-84.096-79.576-46.44 0-84.222 37.782-84.222 84.222v4.116h-5.692c-57.89 0-104.987 47.097-104.987 104.987 0 16.523 3.886 32.595 11.16 47.078 18.527-16.96 42.537-28.024 69.038-30.147 5.258-18.593 15.295-35.604 29.45-49.504 21.161-20.778 49.115-32.221 78.713-32.221 54.429 0 99.945 38.885 110.223 90.337 42.844 6.565 79.025 33.635 98.179 70.843 25.828-13.135 43.576-39.958 43.576-70.865-.001-41.325-31.712-75.384-72.077-79.125z"/><path d="m342.711 245.506h-5.759v-4.578c0-46.44-37.782-84.222-84.222-84.222-45.882 0-83.313 36.882-84.206 82.554-4.79-.8-9.662-1.203-14.592-1.203-48.558 0-88.063 39.505-88.063 88.063 0 1.849.059 3.697.175 5.541-32.659 1.551-58.751 28.608-58.751 61.643 0 34.023 27.676 61.704 61.696 61.714l69.067.083c-4.05-12.284-6.249-25.401-6.249-39.024 0-68.883 56.04-124.923 124.923-124.923s124.924 56.04 124.924 124.923c0 11.612-1.598 22.856-4.577 33.531 14.802-5.115 28.372-13.554 39.78-24.948 19.846-19.822 30.775-46.185 30.775-74.234-.001-57.854-47.068-104.92-104.921-104.92z"/><path d="m352.653 416.077c0-52.977-42.946-95.923-95.923-95.923s-95.923 42.946-95.923 95.923 42.946 95.923 95.923 95.923 95.923-42.946 95.923-95.923zm-144.018 5.801 21.155-21.154 16.6 16.6 37.822-37.821 21.154 21.154-58.976 58.976z"/></g></svg>