<svg id="Capa_1" enable-background="new 0 0 512 512" height="512" viewBox="0 0 512 512" width="512" xmlns="http://www.w3.org/2000/svg"><g><path d="m.425 387.197h366.539v35.67h-366.539z"/><path d="m58.925 186.045c0-14.786 2.484-29.001 7.045-42.259h-65.545v213.384h366.539v-40.92h-177.835c-71.795 0-130.204-58.41-130.204-130.205z"/><path d="m442.316 134.218c-4.038-33.881-32.948-60.24-67.899-60.24-6.093 0-12.069.791-17.82 2.338-2.564-42.515-37.966-76.316-81.114-76.316-44.808 0-81.263 36.454-81.263 81.262v3.578h-5.091c-55.804 0-101.205 45.4-101.205 101.206 0 49.439 35.636 90.705 82.568 99.478 4.968-31.832 26.035-58.399 54.584-71.091-4.694-7.139-7.435-15.67-7.435-24.834 0-24.997 20.336-45.333 45.334-45.333 24.997 0 45.333 20.336 45.333 45.333 0 9.164-2.741 17.695-7.435 24.834 29.063 12.921 50.369 40.222 54.833 72.818h79.174c42.29 0 76.695-34.406 76.695-76.695 0-39.782-30.446-72.586-69.259-76.338z"/><path d="m262.976 174.292c-8.44 0-15.307 6.866-15.307 15.307 0 8.44 6.867 15.307 15.307 15.307s15.307-6.867 15.307-15.307c-.001-8.441-6.867-15.307-15.307-15.307z"/><path d="m200.658 287.25h124.636c-5.926-28.976-31.616-50.842-62.318-50.842s-56.392 21.866-62.318 50.842z"/><path d="m238.306 453.261h-106.582c-7.471 17.265-24.727 28.712-43.668 28.712h-.944v30.027h194.862v-30.027c-18.94 0-36.196-11.447-43.668-28.712z"/></g></svg>