<svg id="Capa_1" enable-background="new 0 0 512 512" height="512" viewBox="0 0 512 512" width="512" xmlns="http://www.w3.org/2000/svg"><g><path d="m146.681 220.525c36.781-15.657 73.561-23.595 109.319-23.595s72.538 7.938 109.32 23.595c28.299 12.045 56.69 28.689 84.382 49.47 12.334 9.255 24.029 19.234 34.572 28.919 1.749-1.727 3.435-3.527 5.046-5.406 13.952-16.263 21.635-37.01 21.635-58.419 0-44.313-32.439-81.193-74.815-88.144-3.744-37.009-35.082-65.99-73.062-65.99-6.785 0-13.435.914-19.82 2.698-2.405-46.045-40.624-82.765-87.258-82.765s-84.853 36.72-87.259 82.766c-6.385-1.784-13.035-2.698-19.82-2.698-37.98 0-69.318 28.981-73.062 65.99-42.376 6.951-74.815 43.831-74.815 88.144 0 21.589 7.798 42.47 21.958 58.793 1.514 1.745 3.1 3.411 4.731 5.024 10.541-9.683 22.233-19.659 34.564-28.912 27.693-20.781 56.084-37.425 84.384-49.47z"/><path d="m432.297 293.19c-25.825-19.379-52.18-34.85-78.335-45.982-18.651-7.939-37.235-13.677-55.589-17.179 59.981 17.759 103.871 73.355 103.871 139.018 0 68.427-47.66 125.925-111.526 141.06 20.835-3.28 41.995-9.453 63.244-18.498 26.154-11.132 52.51-26.603 78.335-45.981 43.747-32.828 79.703-76.219 79.703-76.219s-35.956-43.391-79.703-76.219z"/><path d="m112.327 369.047c0-67.207 45.977-123.873 108.127-140.212-20.567 3.313-41.449 9.448-62.416 18.373-26.154 11.132-52.51 26.603-78.335 45.982-43.747 32.828-79.703 76.219-79.703 76.219s35.956 43.391 79.703 76.219c25.825 19.379 52.18 34.849 78.335 45.981 23.674 10.077 47.238 16.588 70.364 19.502-66.14-13.425-116.075-72.021-116.075-142.064z"/><path d="m257.285 254.248c-63.301 0-114.8 51.499-114.8 114.8s51.499 114.8 114.8 114.8 114.8-51.499 114.8-114.8-51.499-114.8-114.8-114.8zm69.125 98.508v29.877h-41.022l24.176 33.141-24.137 17.607-29.427-40.338-29.428 40.339-24.137-17.607 24.176-33.141h-41.021v-29.877h41.021l-24.176-33.14 24.137-17.608 29.428 40.339 29.428-40.339 24.137 17.608-24.176 33.14h41.021z"/></g></svg>