<svg id="Capa_1" enable-background="new 0 0 512 512" height="512" viewBox="0 0 512 512" width="512" xmlns="http://www.w3.org/2000/svg"><g><path d="m512 246.915c0-42.537-32.642-77.595-74.19-81.446-4.158-36.268-35.046-64.531-72.41-64.531-6.663 0-13.196.888-19.472 2.623-2.49-45.587-40.364-81.909-86.562-81.909-47.802 0-86.692 38.89-86.692 86.692v4.237h-5.859c-59.587 0-108.065 48.478-108.065 108.066 0 17.007 4 33.551 11.487 48.458 19.07-17.457 43.785-28.846 71.062-31.031 5.412-19.138 15.744-36.648 30.313-50.955 21.782-21.388 50.556-33.166 81.021-33.166 56.025 0 102.875 40.025 113.455 92.985 44.1 6.758 81.342 34.621 101.058 72.92 26.586-13.521 44.854-41.13 44.854-72.943z"/><path d="m345.254 274.355h-5.928v-4.712c0-47.802-38.89-86.692-86.692-86.692-47.227 0-85.756 37.964-86.675 84.975-4.931-.824-9.945-1.238-15.02-1.238-49.982 0-90.645 40.663-90.645 90.645 0 1.903.06 3.805.181 5.703-33.618 1.597-60.475 29.447-60.475 63.452 0 35.021 28.488 63.513 63.505 63.523l281.62.337h.132c28.819-.001 55.921-11.215 76.315-31.586 20.427-20.403 31.677-47.54 31.677-76.411.001-59.549-48.446-107.996-107.995-107.996zm-64.556 159.695c-6.289-7.078-15.291-11.137-24.698-11.137s-18.409 4.059-24.698 11.137l-22.363-19.872c11.961-13.461 29.115-21.181 47.061-21.181s35.099 7.72 47.061 21.181zm42.659-38.059c-17.131-19.278-41.682-30.335-67.357-30.335s-50.226 11.057-67.358 30.335l-22.363-19.872c22.804-25.661 55.506-40.379 89.72-40.379s66.916 14.717 89.72 40.379z"/></g></svg>