<svg id="Capa_1" enable-background="new 0 0 512 512" height="512" viewBox="0 0 512 512" width="512" xmlns="http://www.w3.org/2000/svg"><g><path d="m436.789 145.816c-4.146-36.758-35.424-65.42-73.272-65.42-6.813 0-13.49.917-19.901 2.709-2.416-46.234-40.791-83.105-87.616-83.105s-85.2 36.871-87.616 83.105c-6.411-1.792-13.088-2.709-19.901-2.709-37.848 0-69.126 28.663-73.272 65.42-42.11 3.832-75.211 39.339-75.211 82.431 0 45.641 37.132 82.773 82.773 82.773h78.74c16.737 28.147 45.684 48.217 79.487 52.853v37.19h-29.843v66.094c0 24.726 20.116 44.843 44.843 44.843s44.843-20.117 44.843-44.843v-66.094h-29.843v-37.19c33.803-4.636 62.75-24.706 79.487-52.853h78.74c45.641 0 82.773-37.132 82.773-82.773 0-43.092-33.101-78.599-75.211-82.431zm-180.789 189.085c-22.247 0-42.389-9.153-56.883-23.881h113.765c-14.493 14.728-34.635 23.881-56.882 23.881zm-45.254-63.901v-30h30.001v30zm60.507 0v-30h30.001v30zm79.234 40.02h-37.605c14.192-14.421 22.969-34.187 22.969-55.971 0-44.031-35.821-79.852-79.852-79.852s-79.852 35.821-79.852 79.852c0 21.784 8.777 41.549 22.969 55.971h-37.605c-9.753-16.402-15.365-35.542-15.365-55.971 0-60.573 49.279-109.852 109.852-109.852s109.852 49.279 109.852 109.852c.002 20.429-5.61 39.569-15.363 55.971z"/></g></svg>