<svg id="Capa_1" enable-background="new 0 0 512 512" height="512" viewBox="0 0 512 512" width="512" xmlns="http://www.w3.org/2000/svg"><g><path d="m271 399.579v-39.536h-30v39.536c4.839-1.041 9.854-1.602 15-1.602s10.161.562 15 1.602z"/><path d="m186.331 454.248h-186.331v30h186.332c-1.041-4.839-1.602-9.854-1.602-15s.561-10.161 1.601-15z"/><path d="m512 454.248h-186.332c1.041 4.839 1.602 9.854 1.602 15s-.561 10.161-1.602 15h186.332z"/><g><path d="m134.304 219.523h243.392v32.52h-243.392z"/><path d="m134.304 79.002h243.392v32.52h-243.392z"/><path d="m104.338 0h303.324v50.002h-303.324z"/><path d="m104.338 140.521h303.324v50.002h-303.324z"/><path d="m407.662 331.044v-50.002h-303.324v50.002h136.662 30z"/></g><circle cx="256" cy="469.73" r="42.27"/></g></svg>