<svg id="Capa_1" enable-background="new 0 0 511.518 511.518" height="512" viewBox="0 0 511.518 511.518" width="512" xmlns="http://www.w3.org/2000/svg"><g><path d="m427.422 164.244c-3.826-41.207-38.413-73.569-80.375-73.569-8.277 0-16.371 1.244-24.088 3.667-1.429-52.212-44.112-94.243-96.375-94.243-53.161 0-96.412 43.491-96.412 96.948v6.929h-8.733c-66.551 0-120.693 54.444-120.693 121.365 0 15.393 2.93 30.553 8.488 44.677 30.293-36.01 75.663-58.939 126.293-58.939 80.96 0 148.487 58.609 162.387 135.626h122.753c50.094 0 90.85-40.982 90.85-91.355.001-48.09-37.142-87.62-84.095-91.106z"/><path d="m151.721 380.102.081 131.023c67.442-8.043 119.735-65.429 119.735-135.037 0-25.647-7.103-49.634-19.443-70.107z"/><path d="m0 387.515c5.43 65.263 56.933 117.44 121.897 123.905l-.074-123.905z"/><path d="m233.947 282.214c-24.769-25.961-59.705-42.136-98.419-42.136-68.847 0-125.738 51.157-134.755 117.531h131.076z"/></g></svg>