<svg id="Capa_1" enable-background="new 0 0 512 512" height="512" viewBox="0 0 512 512" width="512" xmlns="http://www.w3.org/2000/svg"><g><path d="m423.265 270.779c6.22 17.817 23.184 30.639 43.095 30.639 25.166 0 45.64-20.474 45.64-45.64s-20.474-45.64-45.64-45.64c-19.912 0-36.875 12.822-43.095 30.639h-57.841v30.002z"/><path d="m387.053 329.355 33.887 57.633c2.249 23.081 21.758 41.181 45.419 41.181 25.166 0 45.64-20.474 45.64-45.64s-20.474-45.64-45.64-45.64c-12.566 0-23.961 5.106-32.223 13.35l-29.92-50.885h-38.792v30.002h21.629z"/><path d="m404.194 212.299 29.896-50.584c8.265 8.272 19.681 13.396 32.27 13.396 25.166 0 45.64-20.474 45.64-45.64s-20.474-45.64-45.64-45.64c-23.655 0-43.161 18.091-45.418 41.163l-33.866 57.302h-21.652v30.002h38.77z"/><path d="m88.735 240.777c-6.22-17.817-23.184-30.639-43.095-30.639-25.166 0-45.64 20.474-45.64 45.64s20.474 45.64 45.64 45.64c19.912 0 36.875-12.822 43.095-30.639h57.841v-30.002z"/><path d="m107.784 299.352-29.92 50.885c-8.262-8.245-19.657-13.35-32.223-13.35-25.166 0-45.64 20.474-45.64 45.64s20.474 45.64 45.64 45.64c23.661 0 43.17-18.1 45.419-41.181l33.887-57.633h21.629v-30.002h-38.792z"/><path d="m124.925 182.297-33.866-57.302c-2.257-23.072-21.763-41.163-45.418-41.163-25.167 0-45.641 20.474-45.641 45.64s20.474 45.64 45.64 45.64c12.59 0 24.005-5.124 32.271-13.396l29.896 50.584h38.77v-30.002h-21.652z"/><path d="m241.221 423.265c-17.817 6.22-30.639 23.184-30.639 43.095 0 25.166 20.474 45.64 45.64 45.64s45.64-20.474 45.64-45.64c0-19.911-12.822-36.875-30.639-43.095v-58.305h-30.002z"/><path d="m182.645 387.053-57.633 33.887c-23.081 2.249-41.181 21.758-41.181 45.419 0 25.166 20.474 45.64 45.64 45.64s45.64-20.474 45.64-45.64c0-12.566-5.106-23.961-13.35-32.223l50.885-29.92v-39.257h-30.002v22.094z"/><path d="m299.701 404.194 50.584 29.896c-8.272 8.265-13.396 19.681-13.396 32.27 0 25.166 20.474 45.64 45.64 45.64s45.64-20.474 45.64-45.64c0-23.655-18.091-43.161-41.163-45.418l-57.302-33.866v-22.116h-30.002v39.234z"/><path d="m271.223 88.735c17.817-6.22 30.639-23.184 30.639-43.095 0-25.166-20.474-45.64-45.64-45.64s-45.64 20.474-45.64 45.64c0 19.911 12.822 36.875 30.639 43.095v57.376h30.002z"/><path d="m212.648 107.784-50.885-29.92c8.245-8.262 13.35-19.657 13.35-32.223 0-25.166-20.474-45.64-45.64-45.64s-45.64 20.474-45.64 45.64c0 23.661 18.1 43.17 41.181 45.419l57.633 33.887v21.165h30.002v-38.328z"/><path d="m329.703 124.925 57.302-33.866c23.072-2.257 41.163-21.763 41.163-45.418 0-25.166-20.474-45.64-45.64-45.64s-45.64 20.474-45.64 45.64c0 12.59 5.124 24.005 13.396 32.27l-50.584 29.896v38.306h30.002v-21.188z"/><path d="m244.707 244.242h22.586v22.587h-22.586z"/><path d="m175.576 335.959h160.848v-160.847h-160.848zm39.129-121.719h82.59v82.591h-82.59z"/></g></svg>