<svg id="Capa_1" enable-background="new 0 0 512 512" height="512" viewBox="0 0 512 512" width="512" xmlns="http://www.w3.org/2000/svg"><g><path d="m130.126 131.049v139.691h-45.086v29.919h342.088v-29.919h-45.255v-139.723l41.367 30.779 17.86-24.003-94.965-70.658v-66.999h-29.919v44.738l-60.128-44.738-184.544 137.182 17.848 24.011zm125.958 30.3c-25.677 0-50.23 11.057-67.361 30.337l-22.365-19.874c22.805-25.663 55.509-40.382 89.727-40.382s66.921 14.719 89.727 40.382l-22.365 19.874c-17.133-19.28-41.685-30.337-67.363-30.337zm47.065 48.525-22.365 19.874c-6.29-7.078-15.292-11.138-24.7-11.138-9.407 0-18.41 4.059-24.7 11.138l-22.365-19.874c11.963-13.462 29.117-21.183 47.065-21.183s35.102 7.721 47.065 21.183z"/><path d="m256.222 391.47c5.081 0 10.044.515 14.842 1.488v-64.74h-29.96v64.795c4.884-1.011 9.94-1.543 15.118-1.543z"/><path d="m118.76 451.167c.991 4.847 1.513 9.864 1.513 15s-.521 10.153-1.513 15h64.338c-.991-4.847-1.513-9.864-1.513-15s.521-10.153 1.513-15z"/><path d="m329.346 451.167c.991 4.847 1.513 9.864 1.513 15s-.521 10.153-1.513 15h63.894c-.991-4.847-1.513-9.864-1.513-15s.521-10.153 1.513-15z"/><ellipse cx="45.636" cy="466.167" rx="45.636" ry="45.697"/><ellipse cx="256.222" cy="466.167" rx="45.636" ry="45.697"/><ellipse cx="466.363" cy="466.167" rx="45.636" ry="45.697"/></g></svg>