<svg id="Capa_1" enable-background="new 0 0 512 512" height="512" viewBox="0 0 512 512" width="512" xmlns="http://www.w3.org/2000/svg"><g><g><path d="m263.764 148.278v-43.85h-38.419-14.966v43.85z"/><path d="m512 74.495v-74.495h-301.621v74.495h14.966z"/><path d="m458.131 104.428h53.869v43.851h-53.869z"/><path d="m0 388.672v36.122h282.171v-36.122h-15.686z"/><path d="m282.171 358.739v-117.269h-282.171v117.269h266.485z"/><path d="m96.511 463.563c-2.767 10.895-12.55 18.503-23.792 18.503h-13.972v29.934h164.676v-29.933h-13.304c-11.24 0-21.024-7.609-23.792-18.503l-2.244-8.836h-85.327z"/><path d="m163.955 104.428h46.424v-29.933h-46.361c1.017 4.798 1.563 9.77 1.563 14.869 0 5.136-.563 10.176-1.626 15.064z"/><path d="m109.959 157.835c-4.865 1.031-9.873 1.577-14.967 1.577-5.136 0-10.139-.566-14.966-1.612v53.737h29.933z"/><path d="m326.8 358.739h-44.629v29.933h44.29c-.946-4.599-1.443-9.36-1.443-14.234.001-5.397.63-10.646 1.782-15.699z"/><path d="m376.871 306.393c5.971-1.646 12.25-2.544 18.737-2.544 3.81 0 7.548.316 11.196.904v-68.658h-29.933z"/><path d="m292.764 104.428h136.367v102.667h-136.367z"/></g><circle cx="94.992" cy="88.823" r="41.59"/><circle cx="395.608" cy="373.706" r="41.59"/></g></svg>