<svg id="Capa_1" enable-background="new 0 0 512 512" height="512" viewBox="0 0 512 512" width="512" xmlns="http://www.w3.org/2000/svg"><g><path d="m100.236 449.025h311.528v62.975h-311.528z"/><path d="m309.891 205.362h-18.58v-15c0-7.903-6.43-14.333-14.333-14.333h-19.586l-.859-14.086c-.402-6.597-5.903-11.764-12.522-11.764-6.921 0-12.552 5.631-12.552 12.552v22.373h-22.996c-11.448 0-20.761 9.313-20.761 20.761s9.313 20.762 20.761 20.762h101.165c5.884 0 10.671-4.788 10.671-10.672-.001-5.82-4.564-10.455-10.408-10.593z"/><path d="m100.236 73.122v345.903h311.528v-345.903zm209.391 183.505h-38.899v63.468l15.946-15.946 21.213 21.213-51.887 51.887-51.887-51.887 21.213-21.213 15.401 15.401v-62.923h-32.265c-27.99 0-50.761-22.771-50.761-50.761 0-25.826 19.387-47.208 44.371-50.361 3.442-20.033 20.938-35.325 41.938-35.325 17.626 0 32.913 10.817 39.328 26.305 16.779 2.421 30.55 14.275 35.747 29.994 17.846 4.298 31.213 20.461 31.213 39.477 0 22.425-18.245 40.671-40.671 40.671z"/><path d="m100.236 0h311.528v43.122h-311.528z"/></g></svg>