<svg id="Capa_1" enable-background="new 0 0 512 512" height="512" viewBox="0 0 512 512" width="512" xmlns="http://www.w3.org/2000/svg"><g><path d="m97.074 461.447-.534 2.101c-2.768 10.898-12.554 18.51-23.798 18.51h-13.977v29.942h164.726v-29.942h-13.308c-11.244 0-21.031-7.612-23.798-18.51l-.534-2.101z"/><path d="m0 398.064h282.255v33.441h-282.255z"/><path d="m512 299.801h-64.3v-116.704h-175.574v-40.177h68.973c17.143 0 31.041-13.897 31.041-31.041 0-17.143-13.897-31.041-31.041-31.041h-12.723c5.589-11.02 3.784-24.827-5.428-34.039-10.286-10.286-26.302-11.338-37.768-3.17-.605-24.196-20.395-43.629-44.738-43.629-24.724 0-44.767 20.043-44.767 44.766v8.62h-11.049c-24.724 0-44.766 20.043-44.766 44.766 0 24.724 20.043 44.766 44.766 44.766h57.557v40.177h-115.271v59.785l-126.912-.274v125.516h282.255v-124.902l-125.401-.273v-29.908h260.904v86.762h-62.789v144.072h157.031z"/><path d="m354.969 473.815h157.031v38.185h-157.031z"/></g></svg>