<svg id="Capa_1" enable-background="new 0 0 512 512" height="512" viewBox="0 0 512 512" width="512" xmlns="http://www.w3.org/2000/svg"><g><path d="m72.096 512h367.809v-99.115h-367.809zm199.362-64.34v30h-30.916v-30z"/><path d="m319.509 235.061h-26.269v-25.392c0-13.14-10.69-23.83-23.831-23.83s-23.831 10.69-23.831 23.83v32.653l-20.944-9.041c-3.75-1.618-7.745-2.313-11.889-2.066-12.439.746-22.843 10.657-24.199 23.056-.367 3.354-.09 6.696.825 9.937l5.387 19.076h-27.719c-6.225 0-11.289 5.064-11.289 11.29 0 6.225 5.064 11.289 11.289 11.289h152.47c19.52 0 35.4-15.881 35.4-35.401 0-19.521-15.881-35.401-35.4-35.401z"/><path d="m439.904 0h-367.808v382.885h367.809v-382.885zm-120.395 335.862h-152.47c-22.767 0-41.289-18.522-41.289-41.289 0-19.828 14.05-36.438 32.716-40.395.057-1.058.143-2.115.258-3.174 1.428-13.042 7.461-25.275 17.06-34.369 18.387-17.42 38.175-15.477 39.667-15.449v-85.468l-15.945 15.945-21.213-21.213 51.887-51.886 51.886 51.886-21.213 21.213-15.401-15.401v45.219c7.221-3.605 15.355-5.643 23.959-5.643 28.162 0 51.344 21.738 53.644 49.316 34.421 1.847 61.856 30.433 61.856 65.306-.002 36.063-29.341 65.402-65.402 65.402z"/></g></svg>