<svg id="Capa_1" enable-background="new 0 0 512 512" height="512" viewBox="0 0 512 512" width="512" xmlns="http://www.w3.org/2000/svg"><g><g><g><path d="m404.152 311.151h-269.433c-59.992 0-108.799-48.872-108.799-108.944s48.807-108.945 108.8-108.945h7.738v-6.087c0-48.001 38.999-87.052 86.935-87.052 47.07 0 85.524 37.652 86.898 84.458 6.913-2.144 14.16-3.244 21.569-3.244 37.814 0 68.987 29.009 72.487 65.972 42.291 3.182 75.732 38.657 75.732 81.805 0 45.236-36.752 82.037-81.927 82.037z"/></g></g><path d="m241.104 338.899v54.125c4.884-1.01 9.94-1.542 15.118-1.542 5.081 0 10.044.515 14.842 1.488v-54.071z"/><path d="m183.098 451.18h-64.338c.991 4.847 1.513 9.864 1.513 15s-.521 10.153-1.513 15h64.338c-.991-4.847-1.513-9.864-1.513-15s.522-10.153 1.513-15z"/><path d="m393.24 451.18h-63.894c.991 4.847 1.513 9.864 1.513 15s-.521 10.153-1.513 15h63.894c-.991-4.847-1.513-9.864-1.513-15s.521-10.153 1.513-15z"/><ellipse cx="45.636" cy="466.18" rx="45.636" ry="45.697"/><ellipse cx="256.222" cy="466.18" rx="45.636" ry="45.697"/><ellipse cx="466.363" cy="466.18" rx="45.636" ry="45.697"/></g></svg>