<svg id="Capa_1" enable-background="new 0 0 512 512" height="512" viewBox="0 0 512 512" width="512" xmlns="http://www.w3.org/2000/svg"><g><path d="m289.543 212.57h-82.79v53.93c21.352 6.451 36.947 26.298 36.947 49.726 0 28.64-23.301 51.942-51.942 51.942s-51.942-23.301-51.942-51.942c0-23.428 15.595-43.275 36.947-49.726v-53.93h-145.619v200.95h321.229v-163.472c-24.128-6.949-45.672-20.047-62.83-37.478z"/><path d="m169.805 316.226c0 12.104 9.848 21.952 21.953 21.952s21.952-9.848 21.952-21.952-9.848-21.952-21.952-21.952-21.953 9.848-21.953 21.952z"/><path d="m206.753 127.279h42.195c-.565-5.175-.864-10.429-.864-15.752 0-4.804.241-9.552.703-14.237h-72.023v115.28h29.99v-85.291z"/><path d="m4.669 442.519v16.129c0 29.418 23.934 53.352 53.352 53.352h265.707c29.418 0 53.352-23.934 53.352-53.352v-16.129z"/><path d="m370.827 55.799h42.765c-4.864-17.78-12.083-33.903-21.383-47.499-9.299 13.596-16.518 29.719-21.382 47.499z"/><path d="m444.483 55.799h48.43c-14.862-26.75-40.069-47.509-70.181-55.799 9.649 16.356 16.998 35.585 21.751 55.799z"/><path d="m444.839 165.765c-4.739 20.787-12.22 40.011-22.107 56.769 30.668-8.443 56.25-29.282 70.995-56.769z"/><path d="m333.609 111.527c0-8.713.445-17.309 1.309-25.738h-54.931c-1.898 8.278-2.903 16.893-2.903 25.738 0 8.317.895 16.428 2.578 24.249h55.112c-.767-7.952-1.165-16.048-1.165-24.249z"/><path d="m339.935 55.799c4.754-20.215 12.102-39.443 21.752-55.799-30.115 8.289-55.323 29.047-70.186 55.799z"/><path d="m339.579 165.765h-48.893c14.746 27.489 40.33 48.329 71.001 56.771-9.887-16.758-17.369-35.983-22.108-56.771z"/><path d="m450.809 111.527c0 8.201-.398 16.297-1.164 24.249h55.107c1.683-7.821 2.578-15.932 2.578-24.249 0-8.845-1.005-17.46-2.903-25.738h-54.927c.864 8.429 1.309 17.024 1.309 25.738z"/><path d="m364.909 135.776h54.6c.861-7.908 1.311-16.007 1.311-24.249 0-8.759-.5-17.361-1.47-25.738h-54.281c-.971 8.377-1.47 16.979-1.47 25.738 0 8.242.45 16.341 1.31 24.249z"/><path d="m413.999 165.765h-43.579c4.864 18.372 12.23 35.013 21.79 48.989 9.558-13.975 16.925-30.617 21.789-48.989z"/></g></svg>