<svg id="Capa_1" enable-background="new 0 0 512 512" height="512" viewBox="0 0 512 512" width="512" xmlns="http://www.w3.org/2000/svg"><g><path d="m49.603 466.57v45.43h69.955c-10.385-12.514-17.017-28.234-18.213-45.43z"/><path d="m142.156 391.113h-92.553v45.43h55.344c6.237-19.415 19.7-35.615 37.209-45.43z"/><path d="m220.034 183.525h49.603l-134.819-183.525-134.818 183.525h49.603v102.102h170.431z"/><path d="m190.492 333.469c7.99-7.99 17.429-13.999 27.716-17.814h-168.605v45.43h123.117c3.792-10.138 9.743-19.586 17.772-27.616z"/><path d="m438.403 364.805h-18.165v-14.172c0-40.647-32.951-73.597-73.597-73.597-40.019 0-72.555 31.948-73.55 71.727-18.851-13.429-45.182-11.699-62.092 5.211-15.144 15.144-18.111 37.843-8.923 55.96h-20.917c-28.184 0-51.032 22.848-51.032 51.032 0 28.184 22.848 51.032 51.032 51.032h257.245c40.645.002 73.596-32.948 73.596-73.595 0-40.647-32.951-73.598-73.597-73.598z"/></g></svg>