<svg id="Capa_1" enable-background="new 0 0 512 512" height="512" viewBox="0 0 512 512" width="512" xmlns="http://www.w3.org/2000/svg"><g><path d="m209.642 292.155v-32.52h-29.966v-108.001h290.146c-21.09-32.008-57.015-52.657-96.555-52.657h-7.604v-5.844c0-51.176-41.635-92.81-92.81-92.81-51.048 0-92.603 41.43-92.81 92.43-5.744-1.049-11.596-1.578-17.526-1.578-53.541 0-97.1 43.559-97.1 97.1 0 2.465.095 4.929.283 7.385-36.407 1.048-65.7 30.99-65.7 67.644 0 37.315 30.358 67.673 67.673 67.673h112.002v-38.823h29.967z"/><path d="m238.642 400.156h243.392v32.52h-243.392z"/><path d="m238.642 259.635h243.392v32.52h-243.392z"/><path d="m208.676 180.634h303.324v50.002h-303.324z"/><path d="m208.676 321.155h303.324v50.002h-303.324z"/><path d="m208.676 461.676h303.324v50.002h-303.324z"/></g></svg>