<svg id="Capa_1" enable-background="new 0 0 512 512" height="512" viewBox="0 0 512 512" width="512" xmlns="http://www.w3.org/2000/svg"><g><path d="m512 225.264c0-42.537-32.642-77.595-74.19-81.446-4.158-36.268-35.046-64.531-72.41-64.531-6.663 0-13.196.888-19.472 2.623-2.49-45.587-40.365-81.91-86.562-81.91-47.802 0-86.692 38.89-86.692 86.692v4.237h-5.859c-59.587 0-108.065 48.478-108.065 108.066 0 17.007 4 33.551 11.487 48.458 19.07-17.457 43.785-28.846 71.062-31.031 5.412-19.138 15.744-36.648 30.313-50.955 21.782-21.388 50.556-33.166 81.021-33.166 56.025 0 102.875 40.025 113.455 92.985 44.1 6.758 81.342 34.621 101.058 72.92 26.586-13.52 44.854-41.129 44.854-72.942z"/><path d="m345.254 252.704h-5.928v-4.712c0-47.802-38.89-86.692-86.692-86.692-47.227 0-85.755 37.964-86.675 84.975-4.931-.824-9.946-1.238-15.02-1.238-49.982 0-90.645 40.663-90.645 90.645 0 1.903.06 3.805.181 5.703-33.618 1.597-60.475 29.447-60.475 63.452 0 35.021 28.488 63.513 63.505 63.523l102.611.123-27.882-27.883c-16.779-16.777-26.02-39.11-26.02-62.883s9.24-46.105 26.02-62.884 39.112-26.019 62.884-26.019c17.997 0 35.169 5.297 49.73 15.15 14.562-9.854 31.736-15.15 49.732-15.15h.001c23.773 0 46.105 9.24 62.884 26.021 16.777 16.776 26.018 39.109 26.018 62.882s-9.24 46.105-26.02 62.884l-28.085 28.084 9.747.012h.132c28.819-.001 55.921-11.215 76.315-31.586 20.428-20.403 31.678-47.54 31.678-76.411 0-59.549-48.447-107.996-107.996-107.996z"/><path d="m342.958 420.094c23.367-23.366 23.367-61.387 0-84.753-23.364-23.367-61.386-23.368-84.754 0l-7.355 7.354-7.354-7.354c-23.367-23.368-61.387-23.366-84.754 0s-23.367 61.387 0 84.753l91.904 91.906.205-.204.203.204z"/></g></svg>