<svg id="Capa_1" enable-background="new 0 0 512 512" height="512" viewBox="0 0 512 512" width="512" xmlns="http://www.w3.org/2000/svg"><g><path d="m376.856 173.466v-30.546h-174.391l18.841 30.546z"/><path d="m512 66.061h-221.351l-62.802-66.061h-158.472v83.816h96.636l17.934 29.076h222.852v60.574h50.403v200.766h54.8z"/><path d="m294.879 342.371h-27.799v-26.799c0-16.12-13.114-29.235-29.235-29.235-16.12 0-29.235 13.114-29.235 29.235v33.969l-20.903-9.022c-4.575-1.975-9.449-2.819-14.495-2.52-15.172.909-27.861 12.998-29.516 28.119-.447 4.086-.109 8.163 1.007 12.115l5.372 19.037h-28.769c-8.247 0-14.957 6.709-14.957 14.957s6.709 14.957 14.957 14.957h173.571c23.383 0 42.406-19.023 42.406-42.406.002-23.384-19.021-42.407-42.404-42.407z"/><path d="m428.2 202.466h-223.08l-55.295-89.65h-149.825v399.184h428.2zm-133.321 254.658h-173.571c-24.757 0-44.898-20.142-44.898-44.899 0-22.125 16.085-40.563 37.176-44.234.045-1.709.162-3.42.349-5.133 1.572-14.357 8.242-27.793 18.781-37.833 10.544-10.044 24.291-16.052 38.708-16.916 2.594-.155 5.167-.153 7.714.007 3.675-29.125 28.603-51.722 58.709-51.722 31.586 0 57.472 24.874 59.095 56.063 38.944 1.095 70.286 33.115 70.286 72.318-.001 39.894-32.456 72.349-72.349 72.349z"/></g></svg>