<svg id="Capa_1" enable-background="new 0 0 512 512" height="512" viewBox="0 0 512 512" width="512" xmlns="http://www.w3.org/2000/svg"><g><path d="m418.679 128.685c-3.721-32.452-31.358-57.741-64.791-57.741-5.962 0-11.807.795-17.423 2.347-2.228-40.79-36.117-73.291-77.453-73.291-42.772 0-77.57 34.798-77.57 77.57v3.791h-5.242c-53.317 0-96.694 43.377-96.694 96.695 0 14.131 3.09 27.901 8.895 40.477 16.962-15.27 38.662-25.373 62.61-27.755 5.129-16.84 14.425-32.24 27.331-44.913 20.067-19.704 46.577-30.556 74.648-30.556 50.874 0 93.539 35.829 104.088 83.577 39.507 6.744 72.777 31.999 90.553 66.488 22.314-12.551 37.433-36.44 37.433-63.813-.001-38.062-29.208-69.43-66.385-72.876z"/><path d="m335.862 226.114h-5.304v-4.216c0-42.772-34.798-77.57-77.57-77.57-42.258 0-76.732 33.969-77.555 76.034-4.412-.737-8.899-1.108-13.44-1.108-44.723 0-81.107 36.384-81.107 81.107 0 1.703.054 3.405.162 5.103-30.08 1.428-54.111 26.348-54.111 56.775 0 31.336 25.49 56.83 56.823 56.839l45.712.055c-.01-.635-.024-1.269-.024-1.906 0-33.635 13.489-64.173 35.334-86.507l-19.869-19.868 21.155-21.155 22.202 22.201c14.862-9.202 31.804-15.346 49.946-17.552v-31.43h-24.388v-29.918h78.694v29.918h-24.388v31.415c18.249 2.198 35.286 8.382 50.218 17.653l22.288-22.288 21.155 21.155-19.983 19.982c20.275 20.781 33.321 48.642 35.027 79.481 10.018-4.695 19.251-11.145 27.312-19.197 18.278-18.256 28.344-42.537 28.344-68.371 0-53.283-43.35-96.632-96.633-96.632z"/><path d="m253.241 322.451c-52.258 0-94.774 42.515-94.774 94.775 0 52.258 42.516 94.774 94.774 94.774 52.259 0 94.775-42.516 94.775-94.774-.001-52.259-42.516-94.775-94.775-94.775zm0 152.039c-32.917 0-59.698-26.781-59.698-59.698h29.918c0 16.421 13.36 29.78 29.78 29.78 16.422 0 29.781-13.36 29.781-29.78 0-16.422-13.36-29.781-29.781-29.781v-29.918c32.918 0 59.699 26.781 59.699 59.699 0 32.917-26.781 59.698-59.699 59.698z"/></g></svg>