<svg id="Capa_1" enable-background="new 0 0 512 512" height="512" viewBox="0 0 512 512" width="512" xmlns="http://www.w3.org/2000/svg"><g><path d="m512 235.693c0-44.494-32.572-81.524-75.122-88.504-3.759-37.161-35.226-66.26-73.361-66.26-6.813 0-13.49.917-19.901 2.709-2.416-46.234-40.791-83.105-87.616-83.105s-85.2 36.871-87.616 83.105c-6.411-1.792-13.088-2.709-19.901-2.709-38.135 0-69.602 29.1-73.361 66.26-42.55 6.98-75.122 44.01-75.122 88.504 0 38.629 24.378 71.648 58.505 84.388v-37.631h46.317c.482-1.198.979-2.388 1.49-3.574l-32.758-32.758 85.591-85.591 32.905 32.905c1.137-.485 2.279-.957 3.427-1.416v-46.538h121.045v46.538c1.148.459 2.29.931 3.427 1.416l32.905-32.905 85.591 85.591-32.758 32.758c.511 1.185 1.008 2.377 1.49 3.574h46.317v37.631c34.128-12.739 58.506-45.759 58.506-84.388z"/><path d="m424.495 311.45h-38.373c-3.333-13.644-8.751-26.468-15.905-38.115l27.217-27.217-44.579-44.579-27.304 27.304c-11.63-7.079-24.426-12.428-38.028-15.709v-38.656h-63.045v38.656c-13.603 3.281-26.399 8.63-38.028 15.709l-27.304-27.304-44.579 44.579 27.217 27.218c-7.154 11.646-12.572 24.471-15.905 38.115h-38.374v63.044h38.191c3.273 13.742 8.657 26.666 15.801 38.402l-26.93 26.93 44.579 44.579 26.844-26.844c11.753 7.219 24.705 12.672 38.488 15.997v37.909h63.045v-37.909c13.783-3.325 26.735-8.777 38.488-15.997l26.844 26.844 44.579-44.579-26.93-26.93c7.144-11.736 12.528-24.66 15.801-38.402h38.191v-63.045zm-168.495 98.336c-36.841 0-66.814-29.973-66.814-66.814s29.973-66.814 66.814-66.814c36.842 0 66.814 29.973 66.814 66.814 0 36.842-29.972 66.814-66.814 66.814z"/><ellipse cx="256" cy="342.972" rx="36.814" ry="36.814" transform="matrix(.973 -.23 .23 .973 -71.951 67.992)"/></g></svg>