<svg id="Capa_1" enable-background="new 0 0 512 512" height="512" viewBox="0 0 512 512" width="512" xmlns="http://www.w3.org/2000/svg"><g><path d="m436.879 145.999c-3.76-37.16-35.227-66.26-73.361-66.26-6.813 0-13.49.917-19.901 2.709-2.416-46.234-40.792-82.448-87.617-82.448s-85.201 36.214-87.616 82.448c-6.411-1.792-13.089-2.709-19.901-2.709-38.135 0-69.602 29.1-73.361 66.26-42.55 6.98-75.122 44.011-75.122 88.505 0 38.859 25.158 73.158 61.156 85.315v-114.511h58.852v28.701h30v-28.701h30.004v28.701h30v-28.701h30.003v28.701h30v-28.701h30.004v28.701h30v-28.701h30.004v28.701h30v-28.701h60.821v114.499c15.35-5.195 29.177-14.529 39.815-27.094 13.762-16.254 21.341-36.927 21.341-58.209 0-44.494-32.572-81.525-75.121-88.505zm-286.871 42.137v16.71h-30v-16.71-16.709h30zm60.004 0v16.71h-30v-16.71-16.709h30zm60.003 0v16.71h-30v-16.71-16.709h30zm60.004 0v16.71h-30v-16.71-16.709h30zm60.003 0v16.71h-30v-16.71-16.709h30z"/><path d="m390.248 329.985v145.854h-268.496v-145.854h-31.596v182.015h331.688v-182.015z"/><path d="m360.248 329.985h-208.496v115.854h208.496zm-150.058 70.927h-28.96v-30h28.96zm59.305 0h-28.96v-30h28.96zm59.305 0h-28.96v-30h28.96z"/><path d="m90.156 299.985h331.688v-65.976h-31.822v33.419h-30v-33.419h-30.003v33.419h-30v-33.419h-30.004v33.419h-30v-33.419h-30.003v33.419h-30v-33.419h-30.004v33.419h-30v-33.419h-29.852z"/></g></svg>