<svg id="Capa_1" enable-background="new 0 0 512 512" height="512" viewBox="0 0 512 512" width="512" xmlns="http://www.w3.org/2000/svg"><g><path d="m380.672 95.782h-6.94v-5.667c-.001-49.69-40.427-90.115-90.116-90.115-49.377 0-89.607 39.919-90.111 89.179-5.397-.953-10.891-1.431-16.456-1.431-51.974 0-94.259 42.284-94.259 94.258 0 2.227.079 4.453.238 6.674-35.188 1.276-63.419 30.299-63.419 65.793 0 24.144 13.071 45.28 32.499 56.739l145.681-145.68 154.91 154.91 27.736.221h.101.139c30.006-.001 58.221-11.677 79.456-32.885 21.268-21.242 32.981-49.496 32.981-79.555 0-62-50.44-112.441-112.44-112.441z"/><path d="m201.84 355.357-3.625 36.989-39.598 5.132-13.66 114.522 166.37-166.717z"/><path d="m115.246 508.362 12.791-106.921-105.978 13.735z"/><path d="m170.786 365.759 14.366-146.578-166.264 166.264z"/><path d="m204.81 325.065 102.106-9.395-92.153-92.153z"/></g></svg>