<svg id="Capa_1" enable-background="new 0 0 512 512" height="512" viewBox="0 0 512 512" width="512" xmlns="http://www.w3.org/2000/svg"><g><path d="m190.664 436.188c-10.151 27.068-36.395 45.254-65.303 45.254h-1.277v30h263.833v-30c-28.908 0-55.151-18.186-65.303-45.253l-1.508-4.02h-128.935z"/><path d="m512 .558h-512v320.178h512zm-143.793 270.634h-224.414c-36.056 0-65.389-29.429-65.389-65.602 0-31.183 21.943-57.339 51.198-63.838 4.375-25.771 26.862-45.457 53.859-45.457 3.081 0 6.123.253 9.107.752 4.423-31.046 31.183-54.993 63.432-54.993s59.009 23.947 63.432 54.993c2.984-.499 6.026-.752 9.107-.752 26.997 0 49.483 19.687 53.859 45.457 29.255 6.499 51.198 32.654 51.198 63.837 0 36.173-29.333 65.603-65.389 65.603z"/><path d="m0 350.736h512v51.432h-512z"/><path d="m368.207 170.201h-16.969s1.93-9.049 1.93-19.277c0-13.581-11.048-24.629-24.629-24.629-5.287 0-10.326 1.652-14.573 4.778l-23.892 17.586v-42.532c0-18.788-15.285-34.073-34.073-34.073s-34.073 15.285-34.073 34.074v42.532l-23.892-17.586c-4.247-3.126-9.286-4.778-14.573-4.778-13.581 0-24.629 11.048-24.629 24.628 0 9.508 1.93 19.278 1.93 19.278h-16.969c-19.513 0-35.389 15.875-35.389 35.388 0 19.631 15.875 35.602 35.389 35.602h224.414c19.513 0 35.389-15.971 35.389-35.602-.002-19.513-15.878-35.389-35.391-35.389z"/></g></svg>