<svg id="Capa_1" enable-background="new 0 0 512 512" height="512" viewBox="0 0 512 512" width="512" xmlns="http://www.w3.org/2000/svg"><g><path d="m436.789 145.816c-4.145-36.759-35.424-65.421-73.271-65.421-6.813 0-13.49.917-19.901 2.709-2.417-46.234-40.792-83.104-87.617-83.104s-85.2 36.87-87.616 83.104c-6.411-1.792-13.088-2.709-19.901-2.709-37.848 0-69.126 28.662-73.271 65.421-42.111 3.831-75.212 39.338-75.212 82.431 0 45.641 37.132 82.772 82.773 82.772h16.89c-.217-4.414-.331-81.643-.331-81.643h43.141c5.696 0 10.33-4.634 10.33-10.33v-43.14h206.394v43.14c0 5.696 4.634 10.33 10.33 10.33h43.141s-.114 77.229-.331 81.643h16.89c45.641 0 82.773-37.132 82.773-82.772 0-43.093-33.101-78.6-75.211-82.431z"/><path d="m241 204.906h-59.197v14.141c0 21.687-17.643 39.33-39.33 39.33h-14.141v39.35c0 79.739 39.35 164.352 105.261 209.23l7.407 5.043z"/><path d="m383.667 258.376h-14.141c-21.687 0-39.33-17.643-39.33-39.33v-14.141h-59.196v307.095l7.407-5.043c65.911-44.878 105.261-129.491 105.261-209.23v-39.351z"/></g></svg>