<svg id="Capa_1" enable-background="new 0 0 512 512" height="512" viewBox="0 0 512 512" width="512" xmlns="http://www.w3.org/2000/svg"><g><path d="m462.397 328.475v-102.102h-63.751c-14.17 22.556-39.258 37.591-67.805 37.591h-38.875v64.512h-49.603l134.819 183.524 134.818-183.525z"/><path d="m410.874 183.931c0 4.222-.334 8.366-.967 12.413h52.49v-45.43h-58.676c4.583 10.075 7.153 21.249 7.153 33.017z"/><path d="m462.397 45.429v-45.429h-170.43v37.97c5.486 1.878 10.739 4.377 15.681 7.459z"/><path d="m343.941 104.97c13.468 2.227 25.801 7.842 36.121 15.917h82.335v-45.43h-126.934c4.804 9.225 7.67 19.267 8.478 29.513z"/><path d="m381.874 183.932c0-28.184-22.848-51.032-51.032-51.032h-20.917c9.188-18.117 6.221-40.816-8.923-55.96-16.911-16.911-43.241-18.64-62.092-5.211-.996-39.781-33.531-71.729-73.55-71.729-40.646 0-73.597 32.951-73.597 73.597v14.172h-18.166c-40.646 0-73.597 32.951-73.597 73.597 0 40.646 32.951 73.597 73.597 73.597h257.245c28.184.001 51.032-22.847 51.032-51.031z"/></g></svg>