<svg id="Capa_1" enable-background="new 0 0 512 512" height="512" viewBox="0 0 512 512" width="512" xmlns="http://www.w3.org/2000/svg"><g><path d="m512 360.721h-512v123.538h30.99v27.741h30v-27.741h390.02v27.741h30v-27.741h30.99zm-422.213 76.063h-33.997v-30h33.997zm75.756 0h-33.996v-30h33.996zm277.454 0h-110.43v-30h110.43z"/><path d="m204.371 324.478h103.258v-65.207h-36.629v-131.854h-30v131.854h-36.629z"/><path d="m256 87.416c9.433 0 18.46 4.07 24.768 11.168l22.424-19.928c-11.995-13.499-29.196-21.24-47.191-21.24s-35.196 7.741-47.191 21.24l22.424 19.928c6.306-7.098 15.333-11.168 24.766-11.168z"/><path d="m256 30c25.746 0 50.365 11.087 67.545 30.419l22.425-19.928c-22.868-25.732-55.66-40.491-89.97-40.491s-67.102 14.759-89.97 40.491l22.425 19.928c17.18-19.332 41.799-30.419 67.545-30.419z"/></g></svg>