<svg id="Capa_1" enable-background="new 0 0 512 512" height="512" viewBox="0 0 512 512" width="512" xmlns="http://www.w3.org/2000/svg"><g><path d="m427.904 164.146c-3.826-41.207-38.413-73.569-80.375-73.569-8.277 0-16.371 1.244-24.088 3.667-1.428-52.213-44.112-94.244-96.375-94.244-53.161 0-96.412 43.491-96.412 96.948v6.929h-8.733c-66.551 0-120.693 54.444-120.693 121.365 0 15.393 2.93 30.553 8.488 44.677 30.294-36.011 75.664-58.939 126.294-58.939 80.96 0 148.487 58.609 162.387 135.626h122.753c50.094 0 90.85-40.982 90.85-91.355 0-48.089-37.143-87.619-84.096-91.105z"/><g><path d="m148.181 337.168c0-6.748-5.46-12.238-12.172-12.238-6.711 0-12.171 5.49-12.171 12.238v21.693h24.342v-21.693z"/><path d="m136.01 239.98c-75.116 0-136.01 60.894-136.01 136.01s60.894 136.01 136.01 136.01 136.01-60.894 136.01-136.01-60.894-136.01-136.01-136.01zm61.614 205.07h-123.228v-86.189h19.61v-21.693c0-23.29 18.843-42.238 42.005-42.238s42.006 18.948 42.006 42.238v21.693h19.609v86.189z"/><path d="m104.23 388.861h63.561v26.189h-63.561z"/></g></g></svg>