<svg id="Capa_1" enable-background="new 0 0 512 512" height="512" viewBox="0 0 512 512" width="512" xmlns="http://www.w3.org/2000/svg"><g><path d="m273.358 219.523h-243.392v32.52h237.224c2.014-1.77 4.07-3.492 6.169-5.163v-27.357z"/><path d="m29.966 79.001h243.392v32.52h-243.392z"/><path d="m0 0h303.324v50.001h-303.324z"/><path d="m0 140.521h303.324v50.001h-303.324z"/><path d="m0 281.042v50.001h136.662 30 50.541c5.136-18.121 13.302-34.981 23.907-50.001z"/><path d="m179.556 406.815v-47.954h-29.978v47.425c4.472-.928 9.102-1.419 13.845-1.419 5.558 0 10.958.685 16.133 1.948z"/><ellipse cx="163.423" cy="472.933" rx="39.067" ry="39.066" transform="matrix(.017 -1 1 .017 -312.256 628.181)"/><path d="m406.815 150.371h-74.382v29.978h73.853c-.928-4.472-1.419-9.103-1.419-13.846 0-5.558.685-10.957 1.948-16.132z"/><circle cx="472.934" cy="166.503" r="39.067"/><path d="m388.162 337.168c0-6.748-5.46-12.238-12.172-12.238-6.711 0-12.171 5.49-12.171 12.238v21.693h24.342v-21.693z"/><path d="m375.99 239.98c-75.116 0-136.01 60.894-136.01 136.01s60.894 136.01 136.01 136.01 136.01-60.894 136.01-136.01-60.894-136.01-136.01-136.01zm61.614 205.07h-123.228v-86.189h19.61v-21.693c0-23.29 18.843-42.238 42.005-42.238s42.006 18.948 42.006 42.238v21.693h19.609v86.189z"/><path d="m344.21 388.861h63.561v26.189h-63.561z"/></g></svg>