<svg id="Capa_1" enable-background="new 0 0 512 512" height="512" viewBox="0 0 512 512" width="512" xmlns="http://www.w3.org/2000/svg"><g><path d="m199.642 146.394c14.895-14.914 34.765-23.126 55.954-23.126h130.17c-6.677-10.173-15.25-19.037-25.4-26.148-16.308-11.425-35.489-17.464-55.471-17.464h-3.261v-1.836c.001-42.91-34.957-77.82-77.926-77.82-41.733 0-75.91 32.933-77.841 74.141-3.743-.523-7.537-.786-11.369-.786-44.882 0-81.396 36.463-81.396 81.282 0 1.081.021 2.163.065 3.243-29.598 2.371-52.956 27.181-52.956 57.337 0 31.719 25.841 57.523 57.603 57.523h118.429v-69.257c-.061-21.612 8.249-41.916 23.399-57.089z"/><path d="m205.243 425.801c9.687-6.175 21.172-9.771 33.487-9.771h17.481v-263.764h-.615c-13.436 0-26.019 5.191-35.432 14.617-9.662 9.677-14.962 22.689-14.922 36.601v222.317z"/><path d="m399.591 269.168c-9.555 0-16.427 6.864-16.427 19.082 0 12.387 6.872 19.25 16.427 19.25 9.554 0 16.594-6.696 16.594-19.25-.001-12.386-7.041-19.082-16.594-19.082z"/><path d="m286.211 152.266v263.764h225.577v-263.764zm157.966 177.998c-11.901 0-20.617-5.021-24.64-14.563-5.196 9.207-14.08 14.563-27.154 14.563-19.779 0-37.211-16.571-37.211-42.014 0-25.442 17.097-41.846 37.211-41.846 10.057 0 17.768 3.348 23.299 9.542v-8.202h27.321v51.053c0 7.533 3.353 10.043 7.376 10.043 6.201 0 10.56-6.862 10.56-25.944 0-32.138-23.97-54.568-59.84-54.568s-60.007 24.773-60.007 58.25c0 34.147 23.634 58.585 59.337 58.585 10.895 0 22.461-2.176 33.355-7.365l6.202 17.91c-10.057 5.022-25.478 8.035-39.558 8.035-49.447 0-81.63-33.142-81.63-77.164 0-43.521 32.35-76.83 82.3-76.83 47.604 0 79.954 31.636 79.954 72.645 0 30.964-15.755 47.87-36.875 47.87z"/><path d="m205.243 478.514c0 18.494 14.993 33.486 33.487 33.486h9.417 263.642v-66.971h-273.059c-18.494 0-33.487 14.992-33.487 33.485z"/></g></svg>