<svg id="Layer_1" height="512" viewBox="0 0 120 120" width="512" xmlns="http://www.w3.org/2000/svg"><g><path d="m84.82 109h-72.87l10.12-17.31 7.69 1.07 7.04.98c.35.05.69-.08.93-.35l6.67-7.78.01-.01 6.13-7.15s0-.01.01-.01l10.42-12.16 8.21 14.7c.01.01.02.03.03.04z"/><path d="m90.2 73.12c-.2.26-.49.4-.81.4s-.61-.14-.8-.39l-5.52-7-11.74 14.48 15.85 28.39h20.87v-58.87z"/><path d="m67.44 43.31-7.59 4.76c-2.13 1.33-4.53 1.99-6.94 1.99-2 0-4-.47-5.83-1.39l-.28 8.72.35.16c3.88 1.77 6.11 5.95 5.4 10.17l-1.77 10.23c-.04.19-.12.34-.23.49-.01 0-.01.01-.01.01l-6.13 7.15-.01.01c-.29.33-.76.44-1.18.27-.41-.18-.67-.6-.63-1.05l1.01-11.37c.23-2.68-1.25-5.16-3.61-6.29l-1.66 8.44c-.02.08-.04.16-.07.23l-7.42 16.32c-.17.37-.54.61-.94.61-.04 0-.09 0-.14-.01l-6.19-.87c-.31-.04-.59-.22-.75-.49-.15-.27-.19-.6-.07-.9l5.21-13.52c1.09-2.84 1.42-5.93.96-8.94l-.63-4.05-.25-1.57c-.03-.22-.06-.44-.08-.67-.16-1.35-.18-2.73-.06-4.09l1.55-16.98c.03-.35.08-.69.15-1.03.6-3.34 2.68-6.1 5.52-7.63 1.56-.85 3.35-1.33 5.26-1.33 4.17 0 8.05 2.43 9.87 6.2l.6 1.23c.44.92 1.23 1.61 2.19 1.93.98.33 2.01.25 2.93-.22l7.35-3.77c1.05-.53 2.29-.61 3.39-.18 1.11.42 1.99 1.28 2.41 2.39.72 1.86.01 3.97-1.68 5.04z"/><path d="m49.76 20.1c0 5.01-4.07 9.09-9.09 9.09-5.01 0-9.09-4.08-9.09-9.09 0-5.02 4.08-9.1 9.09-9.1 5.02 0 9.09 4.08 9.09 9.1z"/><path d="m35.12 32.02c-2.84 1.53-4.92 4.29-5.52 7.63-.32.43-.58.82-.79 1.13l-1.45 16.83c-.08 1.05-.47 2.02-1.09 2.85.42.46 1.02.99 1.69 1.29.02.23.05.45.08.67l.25 1.57c-1.55-.26-2.81-1.35-3.53-2.14-.89.56-1.89.86-2.94.86-.19 0-.38-.01-.57-.03-2.86-.28-5.03-2.72-5.03-5.54 0-.16.01-.32.03-.48l1.46-17.08c.12-1.51.83-2.86 1.99-3.83 1.16-.96 2.63-1.4 4.12-1.25 2.07.21 3.78 1.54 4.56 3.34 1.55-2.02 4.13-4.92 6.74-5.82z"/></g></svg>