<svg id="Layer_1" enable-background="new 0 0 512 512" height="512" viewBox="0 0 512 512" width="512" xmlns="http://www.w3.org/2000/svg"><g><path d="m298.5 400.6h-237c-2.3 0-4.3-1.9-4.3-4.3s1.9-4.3 4.3-4.3h236.9c2.3 0 4.3 1.9 4.3 4.3s-1.9 4.3-4.2 4.3z"/><path d="m298.5 433.2h-95c-2.3 0-4.3-1.9-4.3-4.3s1.9-4.3 4.3-4.3h95c2.3 0 4.3 1.9 4.3 4.3s-2 4.3-4.3 4.3z"/><path d="m149.5 433.2h-88c-2.3 0-4.3-1.9-4.3-4.3s1.9-4.3 4.3-4.3h88c2.3 0 4.3 1.9 4.3 4.3s-1.9 4.3-4.3 4.3z"/><path d="m161.8 364.6c0 19.8-16.1 35.9-35.9 35.9s-35.9-16.1-35.9-35.9 16.1-36 35.9-36c19.8.1 35.9 16.2 35.9 36z"/><path d="m333.4 368.9v-36.4c-16.5-3.3-29-18-29-35.4v-4.3h-43.1v-39h43.1v-8.5h-105c-5.3 0-10.3 2.3-13.8 6.3l-33.7 38.9c-1 1.2-2.3 2-3.7 2.6-.2.1-.4.1-.6.3-.5.1-1 .3-1.5.3l-76.6 12.5c-8.8 1.4-15.2 9-15.2 18v3.2c0 2.5-.9 4.8-2.6 6.6-3.1 3.4-4.8 7.9-4.8 12.4v4.3c0 10 8.1 18.2 18.2 18.2h16.6c-.1-1.4-.2-2.8-.2-4.3 0-24.5 19.9-44.5 44.5-44.5s44.5 20 44.5 44.5c0 1.5-.1 2.9-.2 4.3zm-61.4-54.2c2.3 0 4.3 1.9 4.3 4.3s-1.9 4.3-4.3 4.3h-29.7c-2.3 0-4.3-1.9-4.3-4.3s1.9-4.3 4.3-4.3zm-110.8-21.8 30.8-35.6c1.8-2.1 4.5-3.4 7.3-3.4h53.5v39z"/><path d="m424.4 157.1h-8.2c-1.1 0-2.2.4-3 1.2l-24.2 24.2-24.1-24.1c-.8-.8-1.9-1.2-3-1.2h-8.2c-22.4 0-40.7 18.2-40.7 40.7v99.3c0 15.2 12.4 27.6 27.6 27.6h1.4v105.9c0 14.1 11.5 25.6 25.7 25.6 8.9 0 16.8-4.6 21.4-11.5 4.6 6.9 12.5 11.5 21.4 11.5 14.1 0 25.6-11.5 25.6-25.6v-106h1.4c15.2 0 27.6-12.4 27.6-27.6v-99.3c0-22.4-18.3-40.7-40.7-40.7z"/><path d="m343.9 100.7c0-24.8 20.2-45.1 45.1-45.1 24.8 0 45.1 20.2 45.1 45.1s-20.2 45.1-45.1 45.1c-24.8 0-45.1-20.1-45.1-45.1z"/></g></svg>