<svg id="Layer_1" enable-background="new 0 0 512 512" height="512" viewBox="0 0 512 512" width="512" xmlns="http://www.w3.org/2000/svg"><g><path d="m465.1 203.4c0 3.2-1 6.4-3 9.1-14.3 19.5-51.5 64.2-89.3 57-23.5-4.5-38.1-16.6-47-27.9-7 16.8-7.7 28.1-7.6 32.2l26.9 19.8c17.6 13 29.1 32.9 31.4 54.6l6.1 55.9c.7 6.1-1.2 12.3-5.3 17s-9.9 7.5-16.2 7.6c-11.1.2-21-8.1-22.7-19.7l-5.2-34.9c-2.2-15.1-10-28.6-21.8-38.2l-27.8-22.6c-2 25.6-12.7 49.5-30.8 68.2l-52.5 54.5c-4 4.1-9.3 6.2-14.7 6.2-4.7 0-9.4-1.6-13.2-4.8-4.2-3.5-6.7-8.5-7-14-.3-5.8 1.7-11.6 5.6-15.8l37.6-41.1c15.6-16.9 19-41.3 8.5-60.7-7.4-13.7-9.4-29.4-5.5-44.3 4.2-16.2 11.9-39.7 25.2-64.5-19.7 12-40.2 34.4-49.3 44.8-5.4 6.2-14.3 7.9-21.5 4.1-4.4-2.3-7.7-6.4-9-11.2-1.3-4.9-.4-10.1 2.3-14.4 49.8-76.6 118.3-89.4 160.2-62.5 3.5 2.3 6.8 5 9.6 8.2.2.1 1.2 1.4 1.2 1.4 5.8 6.9 11.2 15.8 16.9 25.3 10.7 17.9 21.8 36.4 34.6 38.1 10.5 1.5 31.7-12.8 56.8-38.2 2.9-2.9 6.7-4.5 10.9-4.6 4.2-.2 8 1.6 11 4.5 3 3 4.6 6.9 4.6 10.9z"/><path d="m307.4 113.2c0-23.9 19.4-43.3 43.3-43.3s43.3 19.5 43.3 43.3-19.4 43.3-43.3 43.3-43.3-19.4-43.3-43.3z"/><path d="m147.9 201.9h-44.9c-2.3 0-4.3 1.9-4.3 4.3s1.9 4.3 4.3 4.3h45c2.3 0 4.3-1.9 4.3-4.3s-2-4.3-4.4-4.3z"/><path d="m75.7 210.4h9.3c2.3 0 4.3-1.9 4.3-4.3s-1.9-4.3-4.3-4.3h-9.3c-2.3 0-4.3 1.9-4.3 4.3s1.9 4.3 4.3 4.3z"/><path d="m76.1 232.4c0 2.3 1.9 4.3 4.3 4.3h43c2.3 0 4.3-1.9 4.3-4.3s-1.9-4.3-4.3-4.3h-43c-2.4 0-4.3 1.9-4.3 4.3z"/><path d="m61.9 228.1h-10.7c-2.3 0-4.3 1.9-4.3 4.3s1.9 4.3 4.3 4.3h10.7c2.3 0 4.3-1.9 4.3-4.3s-1.9-4.3-4.3-4.3z"/><path d="m147.9 254.3h-42.9c-2.3 0-4.3 1.9-4.3 4.3 0 2.3 1.9 4.3 4.3 4.3h42.8c2.3 0 4.3-1.9 4.3-4.3 0-2.3-1.8-4.3-4.2-4.3z"/><path d="m85.1 254.3h-9.3c-2.3 0-4.3 1.9-4.3 4.3 0 2.3 1.9 4.3 4.3 4.3h9.3c2.3 0 4.3-1.9 4.3-4.3-.1-2.3-2-4.3-4.3-4.3z"/></g></svg>