<svg id="Layer_1" height="512" viewBox="0 0 120 120" width="512" xmlns="http://www.w3.org/2000/svg"><g><path d="m12.32 109c-.1 0-.2-.01-.3-.05-.53-.17-.82-.73-.65-1.26l8.72-27.31-7.5-43.47c-.09-.54.27-1.06.82-1.16.54-.09 1.06.27 1.16.82l7.54 43.71c.03.16.02.32-.03.47l-8.79 27.54c-.15.44-.54.71-.97.71z"/><path d="m23.6 79.46c1.31 1.25 3.09 2 5.06 2h-7.54c-.55 0-1-.45-1-1s.45-1 1-1z"/><path d="m50.09 107.85c.09.54-.28 1.05-.83 1.14-.05.01-.11.01-.16.01-.48 0-.91-.35-.98-.84l-2.97-18.75-.32-2-.1-.63c-.49-3.08-3.11-5.32-6.23-5.32h5.42c1.45 1.25 2.46 2.99 2.78 5.01z"/><path d="m45.66 89.41h-27.08c-.55 0-1-.45-1-1s.45-1 1-1h27.08c.55 0 1 .45 1 1s-.45 1-1 1z"/><path d="m108.68 60.98v4.66c0 .55-.45 1-1 1h-2.51v41.36c0 .56-.45 1-1 1h-38.07c-.55 0-1-.44-1-1v-41.36h-14.33c-.56 0-1-.45-1-1v-4.66c0-.55.44-1 1-1h56.91c.55 0 1 .45 1 1z"/><path d="m51.12 20.76c0 5.38-4.38 9.75-9.76 9.75s-9.75-4.37-9.75-9.75 4.37-9.76 9.75-9.76 9.76 4.38 9.76 9.76z"/><path d="m42.9 49.84c-3.52 5.88-3.35 16.21-3.2 19.34h6.83c2.96 0 5.6 1.87 6.58 4.66l10.98 31.3c.18.5-.07 1.05-.56 1.26l-6.1 2.53c-.12.05-.25.07-.38.07-.14 0-.27-.02-.4-.08-.24-.11-.44-.31-.53-.56l-10.29-26.9h-17.17c-1.97 0-3.75-.75-5.06-2-1.35-1.27-2.21-3.05-2.29-5.05-.77-19.5 2.98-31.9 5.29-37.56.91-2.25 3.08-3.71 5.51-3.71h11.72c2.46 0 4.7 1.55 5.57 3.85l2.8 7.44c.66 1.75 2.36 2.92 4.23 2.92h6.24c2.45 0 4.43 1.99 4.43 4.43s-1.98 4.43-4.43 4.43h-11.9c-.24 0-.47-.08-.65-.24z"/><g><path d="m76.82 50.33h-2.55c-1.42 0-2.57 1.16-2.57 2.58v3.5c0 1.42 1.15 2.57 2.57 2.57h2.55c-.01-.05-.01-.1-.01-.16v-8.32c0-.06 0-.11.01-.17z"/><path d="m97.58 56.98c-.49 0-.92-1.08-.92-2.32s.43-2.33.92-2.33c.55 0 1-.45 1-1s-.45-1-1-1h-18.78c.01.06.01.11.01.17v8.32c0 .06 0 .11-.01.16h18.78c.55 0 1-.44 1-1 0-.55-.45-1-1-1z"/></g><g><path d="m76.04 41.68c0 .55.45 1 1 1 .49 0 .92 1.09.92 2.33 0 1.23-.43 2.32-.92 2.32-.55 0-1 .45-1 1s.45 1 1 1h18.76v-8.65h-18.76c-.55 0-1 .45-1 1z"/><path d="m100.34 40.68h-2.54v8.65h2.54c1.42 0 2.58-1.15 2.58-2.57v-3.5c0-1.43-1.16-2.58-2.58-2.58z"/></g><g><path d="m71.7 33.6v3.5c0 1.42 1.15 2.58 2.57 2.58h2.54v-8.65h-2.54c-1.42 0-2.57 1.15-2.57 2.57z"/><path d="m97.58 37.68c-.49 0-.92-1.09-.92-2.33s.43-2.32.92-2.32c.55 0 1-.45 1-1 0-.56-.45-1-1-1h-18.77v8.65h18.77c.55 0 1-.45 1-1s-.45-1-1-1z"/></g></g></svg>