<svg id="Layer_1" height="512" viewBox="0 0 120 120" width="512" xmlns="http://www.w3.org/2000/svg"><g><ellipse cx="27.79" cy="25.01" rx="10.98" ry="10.98" transform="matrix(.383 -.924 .924 .383 -5.954 41.109)"/><path d="m64.66 31.44-14.12 18.82c-.17.23-.43.37-.71.4l-11.54 1.03v51.56c0 3.17-2.59 5.75-5.76 5.75-1.97 0-3.72-1-4.75-2.52-1.04 1.52-2.77 2.52-4.75 2.52-3.17 0-5.75-2.58-5.75-5.75v-25.35h-.65c-2.86 0-5.18-2.32-5.18-5.18v-25.81c0-4.24 3.45-7.68 7.69-7.68h28.15l10.8-12.98c.74-.9 1.84-1.45 3.01-1.5 1.17-.06 2.32.38 3.15 1.2 1.48 1.47 1.66 3.83.41 5.49z"/><path d="m103.67 11h-46.19c-2.7 0-4.89 2.19-4.89 4.89v13.83l3.95-4.75c.59-.72 1.34-1.28 2.18-1.66v-4.62c0-.55.45-1 1-1h41.7c.55 0 1 .45 1 1v21.79c0 .55-.45 1-1 1h-41.7c-.03 0-.06-.01-.08-.02l-7.05 9.4v35.92c0 .55.45 1 1 1h53.96c.55 0 1-.45 1-1v-70.89c0-2.7-2.19-4.89-4.88-4.89zm-30.44 48h-7.46c-.23.98-.77 1.85-1.57 2.49-.8.63-1.78.97-2.78.97-.35 0-.69-.04-1.04-.12-1.63-.37-2.92-1.67-3.3-3.3-.31-1.36 0-2.75.86-3.81.85-1.07 2.12-1.68 3.48-1.68h11.81c1.5 0 2.72 1.22 2.72 2.72.01 1.51-1.22 2.73-2.72 2.73z"/></g></svg>