<svg id="Layer_1" height="512" viewBox="0 0 120 120" width="512" xmlns="http://www.w3.org/2000/svg"><g><g><ellipse cx="47.65" cy="37.38" rx="10.21" ry="10.21" transform="matrix(.23 -.973 .973 .23 .325 75.17)"/><path d="m81.8 40.02c-.59 1.52-1.42 3.35-2.46 5.27-.6 1.1-1.27 2.24-2 3.36-3.02 4.65-7.14 9.1-11.93 10.44-3.72 1.05-6.63.73-8.52.22v17.12l3.64 27.98c.29 2.21-1.2 4.2-3.4 4.54-.21.04-.42.05-.63.05-1.91 0-3.59-1.33-3.98-3.26l-4.87-24.18-4.88 24.18c-.39 1.93-2.07 3.26-3.97 3.26-.21 0-.43-.01-.64-.05-2.19-.34-3.69-2.33-3.4-4.54l3.64-27.98v-15.15c-1.9 2.12-3.8 7.09-5.28 13.96-.22 1.02-.83 1.87-1.72 2.42-.6.36-1.27.55-1.96.55-.33 0-.66-.04-.99-.13-1.82-.49-3.01-2.27-2.77-4.13 1.48-11.53 6.41-23.94 13.72-23.94h16.22c.21 0 .42.01.63.02 11.44.87 16.28-7.55 18.15-12.65.5-1.36 1.63-2.32 2.94-2.61.43-.1.88-.12 1.34-.06.23.03.45.08.66.16.92.28 1.7.9 2.19 1.75.6 1.04.7 2.27.27 3.4z"/></g><path d="m90.56 14.12v2.71c0 1.72-1.39 3.11-3.11 3.11h-18.22c-1.72 0-3.11-1.39-3.11-3.11v-2.71c0-1.72 1.39-3.12 3.11-3.12h18.22c1.72 0 3.11 1.4 3.11 3.12z"/><path d="m91.46 24.54h-26.23c-1.59 0-2.89-1.3-2.89-2.89v-4.29c0-1.59 1.3-2.89 2.89-2.89h1.89c.55 0 1 .45 1 1s-.45 1-1 1h-1.89c-.49 0-.89.4-.89.89v4.29c0 .49.4.89.89.89h26.23c.49 0 .89-.4.89-.89v-4.29c0-.49-.4-.89-.89-.89h-1.89c-.55 0-1-.45-1-1s.45-1 1-1h1.89c1.59 0 2.89 1.3 2.89 2.89v4.29c0 1.6-1.3 2.89-2.89 2.89z"/><path d="m79.34 45.29v41.22c0 .55-.45 1-1 1s-1-.45-1-1v-37.86c.73-1.12 1.4-2.26 2-3.36z"/><path d="m79.34 23.54v11.33c-.21-.08-.43-.13-.66-.16-.46-.06-.91-.04-1.34.06v-11.23c0-.55.45-1 1-1s1 .45 1 1z"/></g></svg>