<svg id="Layer_1" enable-background="new 0 0 512 512" height="512" viewBox="0 0 512 512" width="512" xmlns="http://www.w3.org/2000/svg"><g><path d="m280.7 239.6.5-2.3c-7.5 6.2-15.1 10.6-22.7 13.2v.2h25.7c-3.1-2.6-4.5-6.9-3.5-11.1z"/><path d="m338.8 122.2c4.3-15.8-.4-28.2-4.7-35.5-1.5 5-4.2 11.1-8.6 16.5-2.5 3.2-5.5 4.9-8.2 6.5-3.2 1.9-4.9 3-5.5 5.2-.9 3.4-.4 7 1.2 10.2l19.7 5.3c3-1.9 5.2-4.9 6.1-8.2z"/><path d="m289.4 241.6c-.3 1.5.6 2.9 2 3.3 1.5.3 2.9-.4 3.4-1.9l32.9-104.8-14.3-3.8-3.5 15.7z"/><path d="m424.6 46.9h-166.2v155.3c21.1-11.8 32.1-32.9 37.5-47.7 1.1-3.1 3.1-5.8 5.6-8l3.8-16.9c-2.9-5.2-3.8-11.3-2.2-17.1 1.6-5.9 6.1-8.5 9.6-10.6 2.2-1.3 4.3-2.5 5.8-4.4 7.5-9.3 8.9-21.6 9-21.7.2-1.7 1.3-3.1 2.9-3.7s3.4-.2 4.6 1c.9.8 20.6 20.4 12.3 51.2-1.5 5.7-5.3 10.6-10.5 13.7l-35.3 112.7h.9l-21 115.8c-.4 2.4 1.2 4.7 3.6 5.2.3 0 .6.1.8.1 2.1 0 4-1.5 4.4-3.7l11.7-64.6h90.6l11.7 64.6c.4 2.1 2.3 3.7 4.4 3.7.3 0 .5 0 .8-.1 2.4-.4 4-2.8 3.6-5.2l-21-115.8h32.6zm-33.6 247.7h-87.4l7.9-43.8h71.5z"/><path d="m143.7 333.4h27.4l-25 124.3c-.9 4.4-4.7 7.4-9 7.4-.5 0-1 0-1.5-.1-5-.8-8.4-5.3-7.8-10.3z"/><path d="m294.3 178.5s-9.9 43.6-9.9 43.6c-10.1 8.1-17.5 11.9-30.5 15.2-36.1 7.6-43.4-2.7-44.9 8.8v78.4h-64.7v-72.1c0-1.5-.7-2.9-1.9-3.7s-2.7-1-4.1-.5c-17.4 6.5-28.7 43.4-35.2 73.2-.5 2.1-1.7 3.9-3.6 5-1.8 1.2-4.1 1.5-6.2.9-3.8-1-6.4-4.7-5.8-8.7 7.3-56.4 29.8-99 52.4-99h72.4c20.3 1.7 41.8-6 41.8-6 16.9-6 30.9-19.7 40.2-35.1z"/><path d="m225.3 454.7c0 .4.1.9.1 1.2 0 4.4-3.2 8.3-7.9 9-4.8.8-9.5-2.4-10.5-7.3l-25-124.3h27.4z"/><path d="m140 154.5c0-20.2 16.4-36.7 36.6-36.7s36.7 16.5 36.7 36.7-16.5 36.7-36.7 36.7-36.6-16.5-36.6-36.7z"/></g></svg>