<svg id="Layer_1" height="512" viewBox="0 0 120 120" width="512" xmlns="http://www.w3.org/2000/svg"><g><path d="m46.15 79.94v21.78c0 .55-.45 1-1 1h-6.09c-.55 0-1-.45-1-1v-20.78h-18.98v20.78c0 .55-.45 1-1 1h-6.08c-.56 0-1-.45-1-1v-61.35c0-.55.44-1 1-1 3.9 0 7.08 3.18 7.08 7.09v28.56c1.29-1.34 3.09-2.17 5.09-2.17h2.54c1.51 1.25 3.44 2 5.54 2h8.69c1.34 0 2.64.31 3.8.87.89 1.18 1.41 2.64 1.41 4.22z"/><path d="m109 58.45v6.64c0 .55-.45 1-1 1h-3.27v35.63c0 .55-.45 1-1 1h-31.52c-.55 0-1-.45-1-1v-35.63h-18.09c-1.32-1.15-3.03-1.83-4.86-1.83h-.37v-5.29l.43.3c.16.12.36.18.57.18h15.41c1.61 0 3.03-.79 3.9-2h39.8c.55 0 1 .45 1 1z"/><path d="m25.25 27.13c0-5.43 4.42-9.85 9.85-9.85 5.44 0 9.85 4.42 9.85 9.85 0 5.44-4.41 9.86-9.85 9.86-5.43 0-9.85-4.42-9.85-9.86z"/><path d="m69.13 54.62c0 1.05-.34 2.03-.93 2.83-.87 1.21-2.29 2-3.9 2h-15.41c-.21 0-.41-.06-.57-.18l-.43-.3-4.79-3.36v8.65h5.16c1.83 0 3.54.68 4.86 1.83.95.83 1.7 1.9 2.13 3.14l8.8 25.21c.79 2.27-.32 4.8-2.53 5.76-.58.26-1.21.39-1.85.39-.62 0-1.25-.13-1.83-.38-1.17-.5-2.09-1.48-2.52-2.68l-6.05-16.81c-.81-2.24-2.47-4.02-4.53-5-1.16-.56-2.46-.87-3.8-.87h-8.69c-2.1 0-4.03-.75-5.54-2-1.93-1.59-3.16-4-3.16-6.7v-20.68c0-3.34 2.72-6.06 6.06-6.06h10.44c1.59 0 3.08.61 4.22 1.71l8.94 8.67h11.09c2.66 0 4.83 2.17 4.83 4.83z"/><path d="m76.21 47.24h18.15v9.21h-18.15c-.55 0-1-.44-1-1 0-.55.45-1 1-1 .16-.09.62-.98.62-2.6 0-1.59-.44-2.48-.64-2.61-.07 0-.14-.01-.21-.02-.45-.1-.79-.5-.79-.98 0-.55.47-1 1.02-1z"/><path d="m101.98 49.95v3.8c0 1.49-1.22 2.7-2.71 2.7h-2.91v-9.21h2.91c1.49 0 2.71 1.22 2.71 2.71z"/><g><path d="m84.83 37.03h-2.92c-1.49 0-2.7 1.22-2.7 2.71v3.8c0 1.49 1.21 2.7 2.7 2.7h2.92z"/><path d="m105.21 44.27c-.07-.02-.14-.02-.21-.03-.2-.12-.64-1.01-.64-2.6 0-1.63.46-2.52.62-2.61.55 0 1-.44 1-1 0-.55-.45-1-1-1h-18.15v9.21h18.15c.55 0 1.01-.44 1.01-.99 0-.49-.33-.89-.78-.98z"/></g><path d="m76.21 26.82h18.15v9.21h-18.15c-.55 0-1-.44-1-1 0-.55.45-1 1-1 .16-.09.62-.98.62-2.6 0-1.59-.44-2.48-.64-2.61-.07 0-.14-.01-.21-.02-.45-.1-.79-.5-.79-.98 0-.55.47-1 1.02-1z"/><path d="m101.98 29.53v3.8c0 1.49-1.22 2.7-2.71 2.7h-2.91v-9.21h2.91c1.49 0 2.71 1.22 2.71 2.71z"/></g></svg>