<svg id="Layer_1" height="512" viewBox="0 0 120 120" width="512" xmlns="http://www.w3.org/2000/svg"><g><ellipse cx="31.52" cy="40.49" rx="7.97" ry="7.97" transform="matrix(.23 -.973 .973 .23 -15.127 61.867)"/><ellipse cx="88.47" cy="40.49" rx="7.97" ry="7.97" transform="matrix(.23 -.973 .973 .23 28.739 117.293)"/><path d="m75.77 63.77v4.91c0 .55-.45 1-1 1h-11.75v30.23c0 .55-.45 1-1 1h-4.05c-.55 0-1-.45-1-1v-30.23h-11.75c-.55 0-1-.45-1-1v-4.91c0-.55.45-1 1-1h29.55c.55 0 1 .45 1 1z"/><path d="m60 19.09c-8.25 0-14.96 6.71-14.96 14.95 0 8.25 6.71 14.96 14.96 14.96 8.24 0 14.95-6.71 14.95-14.96 0-8.24-6.71-14.95-14.95-14.95zm.29 14c2.84.86 4.28 2.38 4.28 4.52 0 2.17-1.53 3.99-3.57 4.45v1.08c0 .55-.45 1-1 1s-1-.45-1-1v-1.08c-2.04-.46-3.57-2.28-3.57-4.45 0-.55.45-1 1-1s1 .45 1 1c0 1.42 1.15 2.57 2.57 2.57s2.57-1.15 2.57-2.57c0-.81-.32-1.84-2.86-2.61-3.53-1.07-4.28-3.05-4.28-4.52 0-2.17 1.53-3.99 3.57-4.45v-1.08c0-.55.45-1 1-1s1 .45 1 1v1.08c2.04.46 3.57 2.28 3.57 4.45 0 .55-.45 1-1 1s-1-.45-1-1c0-1.42-1.15-2.57-2.57-2.57s-2.57 1.15-2.57 2.57c0 .43 0 1.74 2.86 2.61z"/><path d="m39.33 64.62c.16.1.35.16.53.16h9.63c1.54 0 2.95-1.04 3.26-2.56.43-2.08-1.16-3.92-3.17-3.92h-7.46l-3.54-5.94c-.93-1.57-2.62-2.52-4.44-2.52h-6.96c-2.2 0-4.15 1.39-4.88 3.46-1.26 3.57-2.3 7.1-2.3 14.05 0 10.91 5.37 12.24 5.6 12.29.07.02.15.02.22.02s.15-.01.22-.02c1.3-.3 2.59-.63 3.93-.55l9.07-.02c-.11.02.1-.05 0 0-.49.25-1 1.52-.75 2.01l7.32 14.2c.51 1 1.54 1.58 2.6 1.58.33 0 .67-.06.99-.17.92-.33 1.6-1.08 1.85-2.06.15-.61.07-1.26-.16-1.85l-6.1-15.44c-1.25-3.17-4.32-5.26-7.73-5.26h-1.97c-.17-1.76-.39-5.94.67-9.73z"/><path d="m40.63 82.52c0 .55-.45 1-1 1h-7.84v15.39h1.01c.55 0 1 .45 1 1s-.45 1-1 1h-10.06c-.55 0-1-.45-1-1s.45-1 1-1h1.01v-15.39h-6.54c-.28 0-.54-.11-.73-.32-.19-.2-.29-.47-.27-.74.98-15.14-5.1-33.21-5.16-33.39-.09-.28-.06-.58.08-.83.15-.25.39-.42.67-.48 3.4-.65 6.76 1.45 7.64 4.8 1.42 5.35 3.55 15.62 2.45 25.75 2.83-.56 9.35-1.65 14.37-.89 2.53.39 4.37 2.53 4.37 5.1z"/><path d="m97.69 53.3c-.73-2.07-2.69-3.46-4.88-3.46h-6.96c-1.82 0-3.51.96-4.45 2.52l-3.54 5.94h-7.33c-1.57 0-3 1.06-3.3 2.59-.4 2.07 1.18 3.88 3.17 3.88h9.73c.19 0 .38-.05.54-.16l3.58-2.27c1.06 3.78.84 7.97.67 9.73h-1.97c-3.41 0-6.48 2.08-7.73 5.26l-6.1 15.44c-.23.59-.31 1.23-.16 1.85.25.98.93 1.73 1.85 2.06.33.12.66.17.99.17 1.07 0 2.09-.59 2.6-1.58l7.32-14.2s.01-.01.01-.01c.41-.82 1.11-1.44 2.02-1.51l6.28-.44c1.33-.09 2.63.23 3.93.53.07.02.15.03.22.03s.15-.01.22-.02c.23-.05 5.6-1.38 5.6-12.29 0-6.95-1.05-10.48-2.31-14.06z"/><path d="m108.94 49.07c-.06.18-6.14 18.25-5.16 33.39.02.27-.08.54-.27.74-.18.21-.45.32-.73.32h-6.54v15.39h1.01c.55 0 1 .45 1 1s-.45 1-1 1h-10.06c-.55 0-1-.45-1-1s.45-1 1-1h1.01v-15.39h-7.84c-.55 0-1-.45-1-1 0-2.57 1.84-4.71 4.37-5.1 5.03-.76 11.54.33 14.37.89-1.1-10.13 1.03-20.4 2.45-25.75.88-3.35 4.24-5.46 7.64-4.8.28.06.52.23.67.48.14.25.18.55.08.83z"/></g></svg>