<svg id="Layer_1" height="512" viewBox="0 0 120 120" width="512" xmlns="http://www.w3.org/2000/svg"><g><path d="m100.83 20.33h-29.39l7.62-7.62c.39-.39.39-1.02 0-1.41s-1.02-.39-1.41 0l-8.62 8.62-4.61-4.62c-.39-.39-1.02-.39-1.41 0s-.39 1.02 0 1.41l3.61 3.62h-28.39c-2.51 0-4.56 2.04-4.56 4.55v20.81c1.48-.48 3.06-.74 4.7-.75v-18.91c0-.55.45-1 1-1h50.56c.55 0 1 .45 1 1v40.97c0 .55-.45 1-1 1h-36.98c-.87 1.78-2.05 3.36-3.49 4.7h51.36c2.51 0 4.56-2.04 4.56-4.55v-43.27c.01-2.51-2.04-4.55-4.55-4.55zm-3.68 46.71c-1.79 0-3.25-1.45-3.25-3.25 0-1.79 1.46-3.25 3.25-3.25 1.8 0 3.25 1.46 3.25 3.25 0 1.8-1.45 3.25-3.25 3.25zm0-9.69c-1.79 0-3.25-1.46-3.25-3.25s1.46-3.25 3.25-3.25c1.8 0 3.25 1.46 3.25 3.25s-1.45 3.25-3.25 3.25zm2.53-18.4h-5.04c-.55 0-1-.45-1-1s.45-1 1-1h5.04c.55 0 1 .45 1 1s-.45 1-1 1zm0-4.44h-5.04c-.55 0-1-.45-1-1s.45-1 1-1h5.04c.55 0 1 .45 1 1s-.45 1-1 1zm0-4.43h-5.04c-.55 0-1-.45-1-1s.45-1 1-1h5.04c.55 0 1 .45 1 1s-.45 1-1 1z"/><path d="m88.93 66v-38.97h-48.56v18.02c7.99.91 14.22 7.71 14.22 15.94 0 1.75-.29 3.44-.82 5.02h35.16z"/><path d="m24.5 60.98c0-7.75 6.3-14.05 14.04-14.05 7.75 0 14.05 6.3 14.05 14.05 0 7.74-6.3 14.04-14.05 14.04-7.74 0-14.04-6.3-14.04-14.04z"/><path d="m62.48 88.73v19.27c0 .56-.45 1-1 1h-36.59c-.01 0-.01 0-.01 0-.01 0-.01 0-.01 0h-9.26c-.56 0-1-.44-1-1v-19.27c0-6.96 5.66-12.63 12.63-12.63h2.63c.27 0 .52.1.71.29l7.96 7.98 7.96-7.98c.19-.19.45-.29.71-.29h2.63c6.97 0 12.64 5.67 12.64 12.63z"/></g></svg>