<svg id="Layer_1" height="512" viewBox="0 0 120 120" width="512" xmlns="http://www.w3.org/2000/svg"><g><g><path d="m77.73 77.33c-.05 1.07-.59 2.02-1.47 2.61-1.18.79-2.73.76-3.87-.1l-19.94-14.96c-.17-.13-.3-.31-.36-.52l-1.29-4.45c-1.13 2.57-2.05 5.12-2.73 7.59l12.4 5.96c2.79 1.34 4.81 3.96 5.4 7l3.35 17.28c.24 1.23-.08 2.48-.87 3.44-.8.97-1.97 1.52-3.21 1.52-1.95 0-3.62-1.33-4.06-3.22l-3.37-14.53c-.45-1.98-2.05-3.48-4.06-3.8l-9.08-1.47 2.81 8.22c.76 2.21 1.14 4.51 1.14 6.85 0 4.38-3.56 7.95-7.95 7.95h-25.23c-2.4 0-4.34-1.95-4.34-4.35 0-2.26 1.69-4.11 3.94-4.32l22.56-2.07-5.57-10.49c-3.09-5.83-4.57-12.34-4.27-18.81.32-6.98 1.89-16.76 7.54-23.72 3.53-4.35 9.68-5.5 14.61-2.72l.24.14c2.47 1.39 4.37 3.63 5.34 6.29.02.04.03.08.04.12l4.18 17.96 16.9 13.87c.82.67 1.27 1.67 1.22 2.73z"/><path d="m73.95 28.69c0 6.28-5.11 11.39-11.4 11.39-6.28 0-11.39-5.11-11.39-11.39s5.11-11.39 11.39-11.39c6.29 0 11.4 5.1 11.4 11.39z"/></g><path d="m108.84 102.12c-.16.36-.52.59-.91.59h-34.49c-.39 0-.75-.23-.91-.59s-.1-.78.16-1.07l.29-.33c.7-.79 1.26-1.72 1.84-2.69l.29-.48c1.92-3.17 9.31-4.3 15.58-4.3 3.13 0 6.55.28 9.42.96s5.19 1.76 6.15 3.34l.29.49c.59.97 1.14 1.89 1.84 2.68l.29.33c.26.28.32.71.16 1.07z"/><path d="m108.78 59.19-.47.61c-1.69 2.16-2.26 2.88-3.22 7.06-.64 2.78-2.56 5.06-5.14 6.11-1.03.42-2.13.63-3.26.63-1.62 0-3.32-.43-5-1.27v21.93c0 .55-.45 1-1 1-.56 0-1-.45-1-1v-5.07c-.9.36-1.79.57-2.65.57-.73 0-1.45-.14-2.13-.41-1.68-.69-2.94-2.18-3.35-3.99-.56-2.45-.87-2.84-1.88-4.13l-.29-.37c-.22-.28-.27-.66-.13-1 .14-.33.44-.56.8-.61.24-.02 5.81-.66 9.17 2.33.16.14.31.29.46.45v-9.26c-1.2.54-2.39.83-3.53.83-.89 0-1.75-.17-2.56-.5-2.02-.82-3.52-2.6-4.02-4.77-.71-3.11-1.13-3.64-2.39-5.24l-.35-.45c-.23-.29-.28-.67-.14-1 .14-.34.45-.57.8-.61.29-.04 7.11-.81 11.22 2.83.69.61 1.25 1.31 1.7 2.09.63-1.84 1.65-3.42 3.09-4.7 5.33-4.72 14.23-3.71 14.61-3.66.35.04.66.27.8.6s.09.71-.14 1z"/></g></svg>