<svg id="Layer_1" height="512" viewBox="0 0 120 120" width="512" xmlns="http://www.w3.org/2000/svg"><g><path d="m58.69 44.91c.35 2.17-1.56 4.3-4.27 4.74-.33.05-.66.08-.98.08-2.3 0-4.25-1.32-4.56-3.23-.17-1.09.22-2.23 1.07-3.13.8-.83 1.94-1.4 3.2-1.61 2.69-.44 5.18.97 5.54 3.15z"/><path d="m73.75 35.96c.18 1.09-.1 2.19-.81 3.17-.98 1.37-2.66 2.33-4.61 2.63-.42.07-.84.1-1.25.1-2.9 0-5.36-1.6-5.75-3.92-.18-1.09.1-2.19.81-3.17.98-1.37 2.66-2.33 4.6-2.64 3.42-.54 6.57 1.18 7.01 3.83z"/><path d="m104.66 26.54c-.3 1.98-2.06 3.56-4.45 4.09-.65 2.12-2.87 3.82-5.68 4.26-.45.07-.91.11-1.35.11-1.93 0-3.72-.66-4.88-1.79-.95.48-2.03.78-3.17.86-2.06.16-4.02-.42-5.39-1.54-.51.13-1.04.22-1.57.26-3.7.29-6.91-1.84-7.13-4.7-.11-1.42.53-2.8 1.72-3.86-1.02-.84-1.63-1.93-1.72-3.14-.09-1.18.3-2.32 1.15-3.3 1.13-1.32 2.91-2.18 4.92-2.38 1-1.81 3.23-3.09 5.78-3.28 1.2-.09 2.38.07 3.44.45 1.15-.89 2.65-1.44 4.27-1.55 2.84-.22 5.39.93 6.53 2.83.55-.02 1.09 0 1.63.08 2.1.3 3.92 1.31 5 2.77.77 1.04 1.08 2.2.9 3.37-.15.96-.62 1.83-1.37 2.53 1.08 1.14 1.59 2.54 1.37 3.93z"/><ellipse cx="34.82" cy="51.26" rx="11.54" ry="11.54" transform="matrix(.16 -.987 .987 .16 -21.35 77.423)"/><path d="m54.35 76.32v25.66c0 3.87-3.15 7.02-7.03 7.02h-23.54s0 0-.01 0h-1.46c-3.88 0-7.03-3.15-7.03-7.02v-25.66c0-5.73 4.67-10.4 10.4-10.4h2.13c.27 0 .52.11.71.29l6.3 6.32 6.29-6.32c.19-.18.45-.29.71-.29h2.13c5.73 0 10.4 4.67 10.4 10.4z"/></g></svg>