<svg id="Layer_1" height="512" viewBox="0 0 120 120" width="512" xmlns="http://www.w3.org/2000/svg"><g><path d="m41.35 22.75c0-6.48 5.27-11.75 11.75-11.75 6.47 0 11.74 5.27 11.74 11.75 0 6.47-5.27 11.74-11.74 11.74-6.48 0-11.75-5.27-11.75-11.74z"/><path d="m93.51 27.13-6.84 11.45c-4.52 7.57-11.99 12.94-20.57 14.83v49c0 3.64-2.96 6.59-6.59 6.59h-.82c-3.64 0-6.59-2.95-6.59-6.59v-22.83l-9.86 25.23c-.99 2.55-3.4 4.19-6.14 4.19-2.18 0-4.21-1.07-5.44-2.87s-1.49-4.09-.69-6.11l10.13-25.93v-19.79c-2.22 2.19-3.62 5.08-3.99 8.19l-1.01 8.66c-.28 2.35-2.27 4.13-4.64 4.13-1.33 0-2.6-.57-3.48-1.56-.89-.99-1.31-2.32-1.16-3.64l1.34-11.97c.69-6.07 3.52-11.71 7.99-15.88 3.58-3.35 8.25-5.19 13.15-5.19h16.8l6.93-.5c2.22-.15 4.2-1.3 5.45-3.15l7.67-11.37c1.42-2.12 4.15-2.88 6.33-1.79 1.24.62 2.14 1.68 2.53 3.01.38 1.3.2 2.72-.5 3.89z"/></g></svg>