<svg id="Layer_1" height="512" viewBox="0 0 120 120" width="512" xmlns="http://www.w3.org/2000/svg"><g><path d="m55.94 44.38c.52.59.78 1.37.7 2.15-.07.78-.47 1.51-1.08 1.99l-13.69 10.64c-.34.27-.82.29-1.18.04l-4.01-2.75-.66 6.7 5.64 6.1c.16.17.25.39.26.62l1.2 19.85c.06.98-.29 1.95-.97 2.66-.67.72-1.61 1.12-2.59 1.12-1.82 0-3.34-1.35-3.55-3.16l-1.87-16.22-6.24-3.28-.5 7.41c-.02.2-.09.39-.21.55l-10.13 13.13c-.65.84-1.65 1.32-2.69 1.32-.23 0-.45-.02-.68-.07-1.04-.22-1.91-.89-2.36-1.86-.46-.96-.45-2.05.04-3l7.51-14.56v-8.27c0-.01.01-.03.01-.04 0-.02-.01-.04-.01-.06l1.52-15.36c.22-2.24 1.3-4.25 3.04-5.68 1.73-1.43 3.93-2.09 6.16-1.87 1.68.17 3.26.82 4.55 1.9l8.02 6.53 10.01-6.98c1.19-.83 2.8-.63 3.76.45z"/><path d="m108.67 91.32c-.46.97-1.33 1.64-2.37 1.86-.22.05-.45.07-.68.07-1.03 0-2.04-.48-2.69-1.31l-10.13-13.14c-.12-.16-.19-.35-.21-.55l-.5-7.41-6.24 3.28-1.87 16.23c-.21 1.8-1.73 3.15-3.55 3.15-.97 0-1.92-.4-2.59-1.12-.68-.71-1.03-1.68-.97-2.66l1.2-19.85c.01-.23.1-.45.26-.62l5.64-6.1-.66-6.7-4.01 2.75c-.36.25-.84.23-1.18-.04l-13.69-10.64c-.61-.48-1.01-1.21-1.08-1.99-.08-.78.18-1.56.7-2.15.96-1.08 2.58-1.28 3.76-.45l10.01 6.98 8.03-6.54c1.28-1.07 2.86-1.72 4.54-1.89 4.61-.45 8.75 2.93 9.2 7.55l1.52 15.36c0 .02-.01.04-.01.06 0 .01.01.03.01.04v8.27l7.51 14.56c.49.95.5 2.04.05 3z"/><path d="m80.65 34.29c0-4.29 3.5-7.79 7.8-7.79 4.29 0 7.79 3.5 7.79 7.79 0 4.3-3.5 7.8-7.79 7.8-4.3 0-7.8-3.5-7.8-7.8z"/><path d="m23.75 34.29c0-4.29 3.5-7.79 7.8-7.79 4.29 0 7.79 3.5 7.79 7.79 0 4.3-3.5 7.8-7.79 7.8-4.3 0-7.8-3.5-7.8-7.8z"/></g></svg>