<svg id="Layer_1" height="512" viewBox="0 0 120 120" width="512" xmlns="http://www.w3.org/2000/svg"><g><path d="m22.13 88.12h23.89v20.88h-23.89z"/><path d="m73.98 88.12h23.89v20.88h-23.89z"/><path d="m68.77 19.78c0 4.84-3.93 8.78-8.77 8.78-4.85 0-8.78-3.94-8.78-8.78s3.93-8.78 8.78-8.78 8.77 3.94 8.77 8.78z"/><path d="m62.46 31.15c-.11.32-.18.66-.18 1.02 0 1.25-1.41 3.24-2.28 3.96-.88-.72-2.29-2.7-2.29-3.96 0-.36-.07-.7-.18-1.02z"/><path d="m85.64 18.29c0 .33-.04.65-.13.98l-1.86 6.46c-1.87 6.53-6.4 12.06-12.45 15.15l-2.43 1.25v12.03h-17.54v-12.03l-2.43-1.25c-6.05-3.09-10.58-8.62-12.45-15.15l-1.86-6.46c-.54-1.9.56-3.88 2.45-4.43 1.86-.53 3.84.53 4.41 2.38l2.26 7.2c.63 2.04 2.11 3.7 4.05 4.58l4.22 1.9c-.17.38-.28.81-.28 1.27 0 2.63 1.51 5.46 3.25 7.41-.34.75-.53 1.57-.53 2.4 0 3.14 2.56 5.69 5.69 5.69s5.68-2.55 5.68-5.69c0-.85-.19-1.66-.53-2.4 1.74-1.95 3.25-4.79 3.25-7.41 0-.46-.11-.89-.28-1.27l4.22-1.9c1.94-.88 3.42-2.54 4.05-4.58l2.26-7.2c.57-1.85 2.55-2.91 4.41-2.38 1.55.46 2.57 1.89 2.57 3.45z"/><path d="m51.23 56.2h7.76v21.61h-7.76z"/><path d="m61.02 56.2h7.75v21.61h-7.75z"/><path d="m66.36 32.17c0-.56-.46-1.02-1.02-1.02s-1.02.46-1.02 1.02c0 2.58-3 6.17-4.32 6.17-1.33 0-4.33-3.58-4.33-6.17 0-.56-.46-1.02-1.02-1.02s-1.02.46-1.02 1.02c0 2.45 1.86 5.55 3.9 7.15-.71.67-1.17 1.61-1.17 2.66 0 2.01 1.63 3.64 3.64 3.64 2 0 3.63-1.63 3.63-3.64 0-1.05-.45-1.99-1.17-2.66 2.05-1.59 3.9-4.7 3.9-7.15z"/><path d="m48.06 79.86h23.88v29.14h-23.88z"/></g></svg>