<svg id="Layer_1" height="512" viewBox="0 0 120 120" width="512" xmlns="http://www.w3.org/2000/svg"><g><path d="m93.16 47.59h-12.12c-.55 0-1 .45-1 1s.45 1 1 1h12.12c.56 0 1-.45 1-1s-.44-1-1-1z"/><path d="m93.16 41.63h-12.12c-.55 0-1 .45-1 1 0 .56.45 1 1 1h12.12c.56 0 1-.44 1-1 0-.55-.44-1-1-1z"/><path d="m93.16 35.68h-12.12c-.55 0-1 .44-1 1 0 .55.45 1 1 1h12.12c.56 0 1-.45 1-1 0-.56-.44-1-1-1z"/><path d="m93.16 29.72h-12.12c-.55 0-1 .45-1 1s.45 1 1 1h12.12c.56 0 1-.45 1-1s-.44-1-1-1z"/><path d="m108 11h-79.58c-.55 0-1 .45-1 1v1.48c.33-.02.66-.04 1-.04 6.75 0 12.54 4.86 13.87 11.33 1.18.41 2.03 1.53 2.03 2.84 0 1.65-1.35 3-3 3h-.86l-.1.45c-.71 3.04-2.28 5.62-4.38 7.44 2.08.03 4.11.64 5.89 1.77l4.01 2.55c.75.48 1.62.74 2.51.74 1.28 0 2.53-.54 3.41-1.47l11.49-12.15c1.17-1.25 2.83-1.97 4.54-1.97 1.07 0 2.1.28 2.99.82 1.55.92 2.6 2.46 2.88 4.22.3 1.76-.2 3.55-1.38 4.91l-12.98 15.03c-2.9 3.36-7.13 5.29-11.6 5.29-2.26 0-4.49-.5-6.53-1.46v16.87h66.79c.55 0 1-.45 1-1v-60.65c0-.55-.45-1-1-1zm-6 52.48h-10.78v-8.01c0-.55-.44-1-1-1h-6.24c-.55 0-1 .45-1 1v8.01h-10.77c-.55 0-1-.45-1-1s.45-1 1-1h2.87v-37.64c0-.55.45-1 1-1h2.57v-2.83c0-.55.45-1 1-1h14.9c.55 0 1 .45 1 1v2.83h2.57c.56 0 1 .45 1 1v37.64h2.88c.55 0 1 .45 1 1s-.45 1-1 1z"/><path d="m18.43 30.61h19.98c-1.17 5.05-5.2 8.78-9.99 8.78s-8.82-3.73-9.99-8.78z"/><path d="m14.52 27.61c0-.55.45-1 1-1h.77c.52-6.24 5.75-11.17 12.13-11.17 6.37 0 11.61 4.93 12.12 11.17h.78c.56 0 1 .45 1 1s-.44 1-1 1h-25.8c-.55 0-1-.45-1-1z"/><path d="m70.81 36.61-12.98 15.03c-4.14 4.8-11.14 6-16.65 2.87l-1.97-1.13v49.73c0 3.25-2.65 5.89-5.9 5.89-2.03 0-3.83-1.04-4.89-2.61-1.06 1.57-2.86 2.61-4.89 2.61-3.25 0-5.9-2.64-5.9-5.89v-24.21h-.29c-3.5 0-6.34-2.85-6.34-6.34v-22.74c0-5.14 4.18-9.33 9.33-9.33h1.88c.27 0 .52.11.71.3l5.5 5.51 4.69-4.7c.71-.72 1.66-1.11 2.67-1.11 1.78 0 3.51.51 5.02 1.47l4 2.55c2.7 1.72 6.25 1.28 8.45-1.04l11.49-12.16c.83-.88 1.97-1.34 3.09-1.34.68 0 1.36.17 1.96.53 1.04.62 1.75 1.65 1.94 2.83.2 1.18-.14 2.38-.92 3.28z"/></g></svg>