<svg id="Layer_1" height="512" viewBox="0 0 120 120" width="512" xmlns="http://www.w3.org/2000/svg"><g><path d="m72.27 32.29c0-5.41 4.4-9.81 9.81-9.81s9.81 4.4 9.81 9.81c0 5.42-4.4 9.82-9.81 9.82s-9.81-4.4-9.81-9.82z"/><path d="m107.31 53.99-10.99 5.67c-4.3 2.22-9.55 1.24-12.76-2.37l-.16-.17-4.28 13.54 1.63.37c4.85 1.09 8.58 5.15 9.25 10.08l1.64 11.87c.14 1.09-.16 2.2-.85 3.05-.7.87-1.69 1.39-2.81 1.48-.1.01-.2.01-.3.01-1.85 0-3.51-1.35-3.93-3.26l-2.24-10.18c-.31-1.42-1.29-2.62-2.63-3.2l-5.4-2.35c-3.5 5.3-9.03 8.99-15.29 10.19l-7.18 1.38c-2.13.41-4.2-.92-4.74-3.02-.55-2.18.84-4.42 3.1-5l8.01-2.04c2.92-.75 5.03-3.37 5.15-6.38.16-4.23.81-8.43 1.95-12.51l2.64-9.45-4.4.46c-1.7.17-3.24 1.16-4.12 2.63l-4.79 8.04c-.72 1.23-2.15 1.83-3.53 1.52-1-.23-1.83-.89-2.26-1.83-.42-.94-.39-2 .1-2.9l4.76-8.91c2.11-3.95 6.01-6.75 10.43-7.49l5.08-.86c1.48-.25 2.97-.2 4.44.13l8.93 2.01c2.97.67 5.51 2.45 7.15 5l1.02 1.58c1.08 1.69 3.2 2.32 5.03 1.52l9.67-4.24c.78-.33 1.64-.35 2.42-.03.79.32 1.4.92 1.72 1.7.61 1.49-.03 3.23-1.46 3.96z"/><path d="m38.52 63.25c-.02-.31-.2-.6-.46-.76-.27-.17-.61-.2-.9-.09-1.75.69-3.11 1.83-4.29 3.07-3.75-4.83-4.07-13.7-4.08-13.79-.01-.39-.24-.74-.6-.89s-.77-.09-1.06.17c-.52.46-11.93 10.82-10.66 24.16-1.23-.93-2.46-2.05-2.79-2.9-.17-.41-.59-.65-1.02-.62-.44.04-.81.36-.89.8-.05.23-1.13 5.7-.64 10.36.45 7.01 5.54 13.07 12.38 14.72.5.12 1.01-.16 1.18-.65.17-.48-.06-1.02-.53-1.23-2.59-1.18-4.3-3.65-4.48-6.5-.12-1.11-.06-2.33.03-3.33.72.6 1.44 1.05 1.67 1.18.34.21.77.19 1.1-.04.32-.23.48-.62.4-1.01-1.05-5.14 2-9.72 3.92-12.01.32 2.1 1.09 5.19 2.92 7.08.19.2.45.3.74.3.28 0 .54-.12.73-.33.33-.38.7-.78 1.13-1.12.32 1.53.87 2.87 1.37 4.09.65 1.59 1.26 3.1 1.26 4.74 0 2.99-1.77 5.73-4.51 6.96-.47.21-.7.75-.54 1.24.14.41.53.67.95.67.08 0 .15-.01.23-.02 7.35-1.74 12.48-8.23 12.48-15.79 0-3.42-1.18-6.32-2.44-9.38-1.14-2.79-2.31-5.66-2.6-9.08z"/></g></svg>