<svg id="Layer_1" height="512" viewBox="0 0 120 120" width="512" xmlns="http://www.w3.org/2000/svg"><g><path d="m108 56.74h-50.32c-.56 0-1 .44-1 1 0 .55.44 1 1 1h2.18v4.66c0 5.7 4.64 10.34 10.34 10.34h.16l-8.59 28.99c-.15.52.15 1.08.68 1.24.09.03.19.04.28.04.43 0 .83-.28.96-.72l2.57-8.66h33.15l.22.73c-1.43.79-2.42 2.29-2.42 4.04 0 2.54 2.07 4.61 4.61 4.61s4.61-2.07 4.61-4.61c0-2.55-2.07-4.61-4.61-4.61-.09 0-.18.02-.26.02l-6.25-21.07h.16c5.7 0 10.34-4.64 10.34-10.34v-4.66h2.19c.55 0 1-.45 1-1 0-.56-.45-1-1-1zm-9.18 35.89h-31.97l5.6-18.89h20.78z"/><path d="m88.57 48.89c.55 0 1-.45 1-1v-11.56c0-.56-.45-1-1-1-.56 0-1 .44-1 1v11.56c0 .56.44 1 1 1z"/><path d="m72.7 37.75c.02 1.18-.47 2.32-1.35 3.11l-12.87 11.58c-3.56 3.2-8.67 3.95-12.96 2.04v14.3c0 1.21 2.25 13.17 5.86 31.21.43 2.12-.81 4.18-2.89 4.8-1.14.35-2.38.18-3.39-.45s-1.71-1.66-1.91-2.83l-1.86-10.95c-.95-5.57-3.32-10.83-6.85-15.24l-.67-.84-3.61 9.71c-1.31 3.54-2.91 7.01-4.74 10.32l-5.69 10.24c-.85 1.53-2.42 2.41-4.08 2.41-.54 0-1.1-.1-1.65-.3-1.24-.46-2.23-1.43-2.71-2.66-.49-1.22-.43-2.6.15-3.78 2.68-5.46 7.25-15.43 7.67-20.9l.54-7.12v-21.61c0-7.52 6.12-13.64 13.65-13.64h4.73c4.39 0 8.57 1.89 11.46 5.2 1.5 1.7 4.07 1.95 5.86.56l10.61-8.22c1.57-1.22 3.76-1.23 5.21-.02.92.77 1.47 1.89 1.49 3.08z"/><path d="m23.34 23.7c0-5.98 4.87-10.85 10.86-10.85 5.98 0 10.85 4.87 10.85 10.85 0 5.99-4.87 10.85-10.85 10.85-5.99 0-10.86-4.86-10.86-10.85z"/><path d="m77.11 48.89c.55 0 1-.45 1-1v-11.56c0-.56-.45-1-1-1-.56 0-1 .44-1 1v11.56c0 .56.44 1 1 1z"/><path d="m82.84 44.01c.55 0 1-.45 1-1v-11.56c0-.55-.45-1-1-1-.56 0-1 .45-1 1v11.56c0 .56.44 1 1 1z"/></g></svg>