<svg id="Layer_1" height="512" viewBox="0 0 120 120" width="512" xmlns="http://www.w3.org/2000/svg"><g><path d="m19.55 78.9h19.66v24.21c0 3.25-2.41 5.89-5.38 5.89-1.84 0-3.48-1.04-4.45-2.62-.96 1.58-2.6 2.62-4.45 2.62-2.97 0-5.38-2.64-5.38-5.89z"/><circle cx="28.42" cy="27.61" r="10.34"/><path d="m70.81 36.61-12.98 15.03c-4.14 4.8-11.14 6-16.65 2.87l-1.97-1.13v23.52h-19.58v-25.24c0-.55-.44-1-1-1-.55 0-1 .45-1 1v25.99c-3.5 0-6.63-1.6-6.63-5.09v-22.74c0-5.14 4.18-9.33 9.33-9.33h1.88c.27 0 .52.11.71.3l5.5 5.51 4.69-4.7c.7-.71 1.67-1.11 2.67-1.11 1.78 0 3.51.51 5.02 1.47l4 2.55c2.7 1.72 6.25 1.28 8.45-1.04l11.49-12.16c1.33-1.41 3.45-1.75 5.05-.81 1.04.62 1.75 1.65 1.94 2.83.2 1.18-.14 2.38-.92 3.28z"/><path d="m108 11h-79.58c-.55 0-1 .45-1 1v3.32c.33-.03.66-.05 1-.05 6.8 0 12.34 5.54 12.34 12.34 0 5.65-3.82 10.41-9.01 11.87l.09.57c1.05-.99 2.47-1.56 3.94-1.56 2.15 0 4.26.62 6.09 1.78l4.01 2.55c.75.48 1.62.74 2.51.74 1.28 0 2.53-.54 3.41-1.47l11.49-12.15c1.17-1.25 2.83-1.97 4.53-1.97 1.06 0 2.09.28 2.98.81 1.57.93 2.62 2.47 2.9 4.23.3 1.76-.2 3.55-1.38 4.91l-12.98 15.03c-2.9 3.36-7.13 5.29-11.6 5.29-2.26 0-4.49-.5-6.53-1.46v16.87h66.79c.55 0 1-.45 1-1v-60.65c0-.55-.45-1-1-1zm-38.15 53.25c0 .55-.45 1-1 1h-6.9c-.55 0-1-.45-1-1v-10.05c0-.55.45-1 1-1h6.9c.55 0 1 .45 1 1zm13.02 0c0 .55-.45 1-1 1h-6.89c-.56 0-1-.45-1-1v-15.32c0-.56.44-1 1-1h6.89c.55 0 1 .44 1 1zm13.02 0c0 .55-.45 1-1 1h-6.89c-.56 0-1-.45-1-1v-24.3c0-.55.44-1 1-1h6.89c.55 0 1 .45 1 1z"/></g></svg>