<svg id="Layer_1" height="512" viewBox="0 0 120 120" width="512" xmlns="http://www.w3.org/2000/svg"><g><path d="m70.74 79.88v24.09c0 1.62-.82 3.16-2.2 4.01-.06.03-.12.07-.18.1-3.27 1.9-7.36-.66-7.36-4.44v-23.76z"/><path d="m60 19.17c.55 0 1-.45 1-1v-6.09c0-.55-.45-1-1-1s-1 .45-1 1v6.09c0 .56.45 1 1 1z"/><path d="m48.02 23.55c.2.2.45.29.71.29s.51-.1.71-.29c.39-.39.39-1.02 0-1.41l-4.31-4.31c-.39-.39-1.02-.39-1.41 0s-.39 1.02 0 1.41z"/><path d="m71.28 23.84c.26 0 .51-.1.71-.29l4.31-4.31c.39-.39.39-1.02 0-1.41s-1.02-.39-1.41 0l-4.31 4.31c-.39.39-.39 1.02 0 1.41.18.2.44.29.7.29z"/><path d="m49.26 79.88h9.75v24.28c0 3.25-3.26 5.66-6.27 4.44-.06-.02-.11-.04-.17-.07-2.03-.88-3.31-2.93-3.31-5.15z"/><path d="m49.26 34.12c0-5.92 4.82-10.74 10.75-10.74 5.92 0 10.74 4.82 10.74 10.74 0 5.93-4.82 10.75-10.74 10.75-5.93 0-10.75-4.82-10.75-10.75z"/><path d="m89.9 46.9c0 3.6-2.41 6.8-5.87 7.8l-13.28 3.81v19.37h-21.49v-19.37l-13.28-3.81c-3.46-1-5.87-4.2-5.87-7.8 0-2.17.89-4.29 2.44-5.81l12.55-12.25c.74-.72 1.75-1.07 2.77-.97.31.03.61.12.9.23-.97 1.79-1.52 3.84-1.52 6.02 0 .95.11 1.88.31 2.77l-7.6 9.57 10.37 1.77h19.33l10.37-1.77-7.6-9.57c.2-.89.31-1.82.31-2.77 0-2.18-.55-4.23-1.52-6.03.29-.1.59-.19.9-.22 1.02-.1 2.03.25 2.77.97l12.56 12.25c.77.76 1.39 1.67 1.8 2.66.42.99.65 2.06.65 3.15z"/></g></svg>