<svg id="Layer_1" height="512" viewBox="0 0 120 120" width="512" xmlns="http://www.w3.org/2000/svg"><g><path d="m36.42 74.13.17-2.19-.01-32.01c0-.53.08-1.05.21-1.54-5.39.46-9.65 4.99-9.65 10.5v19.16c0 3.35 2.73 6.08 6.08 6.08z"/><ellipse cx="53.42" cy="22.1" rx="11.1" ry="11.1" transform="matrix(.23 -.973 .973 .23 19.641 69.018)"/><path d="m92.86 36.5c.02 1.21-.48 2.36-1.38 3.17l-13.18 11.87c-3.65 3.28-8.91 4.04-13.3 2.07v14.7c0 2.13.79 4.18 2.21 5.76 1.64 1.85 2.64 3.99 2.87 6.2l2.14 20.03c.25 2.31-1.27 4.45-3.53 4.98l-.46.11c-1.23.28-2.55.05-3.6-.65s-1.78-1.82-1.99-3.07l-1.89-11.05c-.97-5.7-3.4-11.11-7.02-15.63l-.72-.9-3.71 10c-1.34 3.63-2.98 7.18-4.86 10.57l-6.58 11.84c-.86 1.56-2.45 2.5-4.1 2.5-.27 0-.53-.02-.79-.07-1.54-.28-2.78-1.25-3.41-2.65-.62-1.38-.52-2.98.26-4.28 4.98-8.27 7.68-15.84 8.24-23.17l.52-6.81-.01-32.09c0-2.22 1.81-4.02 4.03-4.02h18.12c2.38 0 4.64 1.02 6.2 2.81l2.2 2.51c1.54 1.75 4.19 2.01 6.04.58l10.87-8.43c1.6-1.24 3.83-1.25 5.31-.02.94.79 1.49 1.93 1.52 3.14z"/></g></svg>