<svg id="Layer_1" height="512" viewBox="0 0 120 120" width="512" xmlns="http://www.w3.org/2000/svg"><g><path d="m49.23 20.49c0-5.23 4.26-9.49 9.49-9.49s9.48 4.26 9.48 9.49-4.25 9.48-9.48 9.48-9.49-4.25-9.49-9.48z"/><path d="m83.03 72.1c-.43.17-.88.25-1.33.25-.59 0-1.18-.14-1.71-.42-.95-.51-1.63-1.4-1.87-2.45-2.85-12.66-6.81-19.74-9.04-22.95v22.66l2.59 34.38c.09 1.25-.34 2.49-1.19 3.41s-2.06 1.44-3.31 1.44c-2.23 0-4.15-1.67-4.46-3.88l-3.99-28.18-1.42 10.05c-.36 2.5-2.53 4.39-5.07 4.39-1.41 0-2.78-.59-3.74-1.63-.97-1.04-1.46-2.45-1.35-3.86l1.21-16.09v-22.7c-1.18 1.7-2.84 4.49-4.57 8.61v-18.13c.71-.84 1.45-1.6 2.19-2.25 1.59-1.38 3.64-2.14 5.79-2.14h13.92c2.15 0 4.2.76 5.78 2.14 8.74 7.64 12.6 25.86 13.85 33.35.28 1.69-.68 3.37-2.28 4z"/><path d="m40.78 37.36h-5.13c-.55 0-1 .44-1 1v69.64c0 .56.45 1 1 1h5.13c.55 0 1-.44 1-1v-69.64c0-.56-.45-1-1-1z"/></g></svg>