<svg id="Layer_1" height="512" viewBox="0 0 120 120" width="512" xmlns="http://www.w3.org/2000/svg"><g><circle cx="38.58" cy="40.79" r="12.74"/><path d="m62.69 61.32c2.31-2.25 4.99-3.97 7.95-5.17h-32.29c-15.36.17-24.81 11.06-27.32 31.48-.13 1.09.21 2.19.94 3.01.73.83 1.79 1.3 2.89 1.3 1.82 0 3.37-1.24 3.76-3.02.83-3.82 3.12-12.45 7.36-16.33l-.06 13.5c-.01 1.56.6 3.03 1.7 4.13 1.1 1.11 2.57 1.71 4.13 1.71h13.28c3.2 0 5.81-2.6 5.82-5.8l.06-21.85h9.15c.82-1.05 1.7-2.05 2.63-2.96z"/><path d="m108.03 90.64c-.74.83-1.79 1.31-2.89 1.31-1.85 0-3.39-1.22-3.8-2.97-.9-3.86-3.34-12.6-7.62-16.48l-.06 13.65c-.01 3.2-2.62 5.8-5.82 5.8h-13.28c-1.56 0-3.03-.61-4.13-1.72-1.1-1.1-1.7-2.57-1.7-4.13l.06-13.5c-4.24 3.88-6.53 12.51-7.36 16.33-.39 1.78-1.94 3.02-3.76 3.02-1.11 0-2.16-.48-2.9-1.31-.73-.82-1.07-1.92-.93-3.01 1.38-11.25 4.82-19.62 10.24-24.88 2.21-2.15 4.75-3.78 7.6-4.88 2.63-1.03 5.55-1.57 8.7-1.68.07-.01.15-.02.23-.01.18-.01.36-.03.54-.03 14.92-.17 25.35 11.59 27.82 31.47.13 1.09-.21 2.2-.94 3.02z"/><path d="m68.65 40.79c0-7.03 5.72-12.74 12.75-12.74 7.02 0 12.74 5.71 12.74 12.74 0 7.02-5.72 12.74-12.74 12.74-7.03-.01-12.75-5.72-12.75-12.74z"/></g></svg>