<svg id="Layer_1" height="512" viewBox="0 0 120 120" width="512" xmlns="http://www.w3.org/2000/svg"><g><path d="m49 21.99c0-6.06 4.93-10.99 11-10.99 6.06 0 10.99 4.93 10.99 10.99 0 6.07-4.93 11-10.99 11-6.07 0-11-4.93-11-11z"/><path d="m78.57 45.76v24.32c0 3.7-3.02 6.71-6.72 6.71h-.38v25.98c0 3.44-2.8 6.23-6.24 6.23-2.19 0-4.12-1.14-5.23-2.86-1.12 1.72-3.05 2.86-5.24 2.86-3.44 0-6.24-2.79-6.24-6.23v-25.98h-.38c-3.71 0-6.72-3.01-6.72-6.71v-24.32c0-5.47 4.45-9.91 9.92-9.91h2.01c.27 0 .52.1.71.29l5.93 5.95 5.94-5.95c.19-.19.44-.29.71-.29h2.01c5.47 0 9.92 4.44 9.92 9.91z"/><path d="m101.07 61.51c-.05-.12-.12-.23-.22-.33l-3.85-3.84c-.39-.39-1.02-.39-1.41 0s-.39 1.02 0 1.41l2.14 2.14h-13.03c-.55 0-1 .45-1 1s.45 1 1 1h13.03l-2.14 2.14c-.39.39-.39 1.02 0 1.41.2.2.45.29.71.29s.51-.1.71-.29l3.85-3.85c.09-.09.17-.2.22-.33.09-.23.09-.5-.01-.75z"/><path d="m35.3 60.89h-13.03l2.14-2.14c.39-.39.39-1.02 0-1.41s-1.02-.39-1.41 0l-3.85 3.85c-.09.09-.17.2-.22.33-.1.24-.1.52 0 .76.05.12.12.23.22.33l3.85 3.84c.2.2.45.29.71.29s.51-.1.71-.29c.39-.39.39-1.02 0-1.41l-2.14-2.14h13.02c.55 0 1-.45 1-1s-.45-1.01-1-1.01z"/></g></svg>