<svg id="Layer_1" height="512" viewBox="0 0 120 120" width="512" xmlns="http://www.w3.org/2000/svg"><g><g><path d="m65.15 59.32c-.61 5.58-2.17 12.47-6.15 13.58-2.53.71-4.56.57-5.96.25v12.01l2.63 20.21c.23 1.74-.95 3.32-2.69 3.59-.17.03-.33.04-.5.04-1.51 0-2.84-1.05-3.14-2.58l-3.26-16.14-3.25 16.14c-.31 1.53-1.64 2.58-3.15 2.58-.16 0-.33-.01-.5-.04-1.74-.27-2.92-1.85-2.69-3.59l2.63-20.21v-10.13c-1.17 1.74-2.35 5.05-3.27 9.34-.18.81-.66 1.49-1.37 1.92-.48.29-1.02.44-1.57.44-.26 0-.53-.03-.78-.1-1.45-.39-2.4-1.81-2.21-3.3 1.09-8.45 4.75-17.54 10.2-17.54h11.73c.16 0 .32.01.48.02 1.4.11 2.59-.29 3.63-1.21 3.5-3.09 3.9-10.81 3.91-10.89.01-.32.19-.62.46-.79.27-.18.61-.21.91-.09.22.09.43.19.63.3 2.23 1.19 3.55 3.64 3.28 6.19z"/><path d="m53.74 56.93c0 4.23-3.43 7.67-7.66 7.67-4.22 0-7.66-3.44-7.66-7.67 0-4.22 3.44-7.66 7.66-7.66 4.23 0 7.66 3.44 7.66 7.66z"/></g><g><path d="m60.49 15.49c.06-.02.13-.03.19-.05.07-.01.13-.03.19-.02.06 0 .11.01.17.02.07.01.14.02.21.05.01.01.03.01.05.02.06.03.26.13.57.31v-3.82c0-.55-.45-1-1-1-.56 0-1 .45-1 1v3.82c.31-.18.51-.28.57-.31.01-.01.03-.01.05-.02z"/><path d="m61.87 40.91v12.22c-.2-.11-.41-.21-.63-.3-.3-.12-.64-.09-.91.09-.27.17-.45.47-.46.79v-12.8c.33-.03.66-.04 1-.04s.67.01 1 .04z"/><path d="m65.18 15.73c.16.13.32.27.48.41 3.64 3.19 9.54 10.7 8.12 25.13-.03.34-.08.68-.12 1.02 1.5-.79 3.6-1.42 6.04-1.42 4.86 0 8.41 2.49 8.41 3.78 0 .56.45 1 1 1 .56 0 1-.44 1-1 0-14.65-10.85-26.83-24.93-28.92z"/><path d="m56.08 16.14c.16-.14.32-.28.48-.41-14.09 2.09-24.94 14.26-24.94 28.92 0 .56.45 1 1 1s1-.44 1-1c0-1.29 3.56-3.78 8.42-3.78 2.44 0 4.54.63 6.04 1.41-.04-.34-.09-.69-.12-1.03-1.44-14.4 4.47-21.92 8.12-25.11z"/><path d="m57.4 17.64c-3.55 3.11-8.78 10.07-7.45 23.43.1 1.05.25 2.14.44 3.27.02.15.05.3.07.45.01.01.01.03.01.04.01.06.03.12.05.17.02.06.04.11.07.16s.06.1.1.14c.03.04.06.08.11.11.01.01.02.03.04.04.03.03.07.05.11.07.15.09.32.14.5.14.06 0 .12-.01.18-.02h.02c.46-.09.8-.5.8-.98 0-1.21 3.08-3.45 7.42-3.75v-25.09c-.55.32-1.44.91-2.47 1.82z"/><path d="m64.34 17.64c-1.03-.91-1.92-1.5-2.47-1.82v25.09c4.34.3 7.41 2.54 7.41 3.75 0 .55.45 1 1 1 .18 0 .35-.05.5-.14.04-.02.08-.04.11-.07.02-.01.04-.03.04-.04.05-.03.08-.07.11-.11.04-.04.08-.09.1-.14.06-.09.1-.19.12-.3.01-.01.01-.02.01-.03.03-.18.06-.36.09-.53 0-.01 0-.02.01-.03.18-1.11.32-2.17.42-3.2 1.32-13.35-3.9-20.32-7.45-23.43z"/></g></g></svg>