<svg id="Layer_1" height="512" viewBox="0 0 120 120" width="512" xmlns="http://www.w3.org/2000/svg"><g><path d="m71.68 26.68c.33-1.1.51-2.27.51-3.48s-.18-2.37-.51-3.47h-23.36c-.33 1.1-.51 2.27-.51 3.47 0 1.21.18 2.37.51 3.48zm-6.82-3.86c.05-.12.12-.23.21-.33.28-.27.72-.36 1.09-.21.13.05.24.12.33.21.09.1.16.21.21.33s.08.25.08.38-.03.26-.08.38c-.05.13-.12.24-.21.33-.1.09-.21.16-.33.21-.12.06-.25.08-.38.08-.26 0-.52-.11-.71-.29-.09-.09-.16-.2-.21-.33-.05-.12-.08-.25-.08-.38s.03-.26.08-.38zm-11.25-.33c.09-.09.2-.16.33-.21.18-.08.38-.1.58-.06.06.01.12.03.18.06.06.02.12.05.17.09.06.04.11.08.15.12.1.1.17.21.22.33s.08.25.08.38-.03.26-.08.38c-.05.13-.12.24-.22.33-.04.04-.09.09-.15.12-.05.04-.11.07-.17.09-.06.03-.12.05-.18.06-.07.01-.13.02-.2.02-.13 0-.26-.03-.38-.08-.13-.05-.24-.12-.33-.21-.18-.19-.29-.45-.29-.71s.11-.52.29-.71z"/><path d="m70.88 28.68c-2.01 3.98-6.13 6.72-10.88 6.72-4.76 0-8.88-2.74-10.89-6.72z"/><path d="m76.24 15.01-5.14 2.61c-.08.04-.16.04-.25.06l-.2.05h-21.54c2.01-3.99 6.13-6.73 10.89-6.73 3.96 0 7.47 1.91 9.7 4.84l.17-3.17c.03-.55.51-.98 1.05-.95.55.03.97.5.95 1.06l-.13 2.27 3.6-1.82c.49-.25 1.09-.05 1.34.44s.05 1.09-.44 1.34z"/><path d="m71.38 33.35c-.24-.1-.52-.11-.77-.02-.24.09-.45.28-.56.52l-.57 1.26c3.91.89 7.43 3.11 9.91 6.33l1.25-2.75c.23-.5.01-1.1-.49-1.33l-1.2-.55 4.36-9.55c.8-1.75.03-3.83-1.72-4.63-.86-.39-1.81-.43-2.68-.1-.88.33-1.57.97-1.96 1.82l-4.37 9.56z"/><path d="m84.88 73.71c-1.25.33-2.5.16-3.57-.47-1.07-.62-1.83-1.63-2.15-2.83-1.22-4.63-3.76-12.73-7.81-18.76v19.33l3.79 32.88c.02.18.03.36.03.53 0 2.18-1.57 4.12-3.76 4.53-.28.06-.56.08-.84.08-2.14 0-4.08-1.51-4.53-3.68l-6.04-29.33-6.05 29.33c-.45 2.17-2.39 3.68-4.53 3.68-.28 0-.56-.02-.84-.08-2.37-.44-4-2.67-3.73-5.06l3.79-32.88v-19.33c-4.05 6.03-6.59 14.13-7.81 18.76-.32 1.2-1.08 2.21-2.15 2.83-.72.43-1.52.64-2.33.64-.4 0-.8-.05-1.19-.15-2.3-.61-3.78-2.8-3.47-5.09 1.03-7.81 5.38-18.76 10.11-25.47 2.87-4.07 7.56-6.5 12.54-6.5h11.31c4.98 0 9.67 2.43 12.54 6.5 4.73 6.71 9.08 17.66 10.11 25.46.31 2.3-1.16 4.49-3.42 5.08z"/></g></svg>