<svg id="Layer_1" height="512" viewBox="0 0 120 120" width="512" xmlns="http://www.w3.org/2000/svg"><g><circle cx="91.67" cy="42.05" r="7.68"/><path d="m50.31 29.21c0-5.34 4.34-9.68 9.69-9.68 5.34 0 9.68 4.34 9.68 9.68s-4.34 9.68-9.68 9.68-9.69-4.33-9.69-9.68z"/><path d="m77.77 70.63c0 1.11-.67 2.11-1.7 2.54-.79.33-1.67.29-2.42-.12-.75-.4-1.26-1.12-1.41-1.96-.49-2.73-1.59-8.41-3.12-13.42v13.05l1.87 24.98c.17 2.19-1.1 4.19-2.94 4.66-.27.07-.54.1-.81.1-.64 0-1.27-.19-1.83-.56-.96-.62-1.63-1.69-1.85-2.94l-3.56-20.38-3.56 20.38c-.22 1.25-.89 2.32-1.84 2.94-.57.37-1.2.56-1.84.56-.27 0-.54-.03-.81-.1-1.84-.47-3.11-2.47-2.94-4.66l1.87-24.98v-13.04c-1.53 5.02-2.63 10.69-3.12 13.42-.15.84-.66 1.56-1.41 1.96-.42.23-.87.34-1.33.34-.37 0-.73-.07-1.08-.22-1.04-.43-1.71-1.43-1.71-2.54-.03-11.91 4.84-25.78 8.01-28.96.56-.55 1.1-.83 1.64-.83h16.23c.54 0 1.08.28 1.64.83 3.17 3.19 8.04 17.05 8.02 28.95z"/><path d="m107.42 76.68c-.34.14-.69.21-1.05.21-.39 0-.77-.08-1.13-.26-.69-.33-1.2-.94-1.4-1.67-.65-2.37-2.14-7.37-4.03-10.78v11.1l.88 21.71c.07 1.59-1.01 3.01-2.56 3.39-.26.06-.52.09-.78.09-.66 0-1.31-.2-1.87-.57-.77-.52-1.3-1.35-1.44-2.28l-2.37-15.64-2.37 15.64c-.14.93-.66 1.76-1.44 2.28-.55.37-1.21.57-1.87.57-.26 0-.52-.03-.78-.09-1.55-.38-2.62-1.8-2.56-3.39l.88-21.71v-11.1c0-1.25-.51-2.44-1.4-3.24-3.66-3.33-7.13-13.89-7.78-21.11-.1-1.14.53-2.21 1.58-2.66.69-.3 1.49-.28 2.18.05.68.33 1.19.94 1.39 1.67.77 2.82 2.37 8.05 4.39 11.39.57.95 1.64 1.54 2.8 1.54h12.11c4.81 0 9.48 14.4 10.18 22.2.12 1.13-.52 2.19-1.56 2.66z"/><path d="m36.48 64.18v11.1l.88 21.71c.06 1.59-1.01 3.01-2.56 3.39-.26.06-.52.09-.78.09-.66 0-1.32-.2-1.87-.57-.78-.52-1.3-1.35-1.44-2.28l-2.37-15.64-2.37 15.64c-.14.93-.66 1.76-1.44 2.28-.56.37-1.21.57-1.87.57-.26 0-.52-.03-.78-.09-1.55-.38-2.63-1.8-2.56-3.39l.88-21.71v-11.1c-1.89 3.41-3.38 8.41-4.03 10.78-.2.73-.71 1.34-1.4 1.67-.36.18-.74.26-1.13.26-.36 0-.71-.07-1.05-.21-1.04-.46-1.68-1.52-1.57-2.66.7-7.8 5.37-22.2 10.18-22.2h12.12c1.16 0 2.23-.59 2.8-1.54 2.02-3.34 3.62-8.57 4.39-11.39.2-.73.71-1.34 1.39-1.67.69-.33 1.49-.35 2.19-.05 1.04.45 1.68 1.52 1.57 2.66-.65 7.22-4.12 17.78-7.78 21.11-.9.8-1.4 1.99-1.4 3.24z"/><circle cx="28.34" cy="42.05" r="7.68"/></g></svg>