<svg id="Layer_1" height="512" viewBox="0 0 120 120" width="512" xmlns="http://www.w3.org/2000/svg"><g><path d="m95.98 82.05v25.93c0 .56-.46 1.02-1.02 1.02h-69.92c-.56 0-1.02-.46-1.02-1.02v-17.56c0-.57.46-1.02 1.02-1.02h33.94v-7.35c0-.56.45-1.02 1.02-1.02h34.95c.56 0 1.03.46 1.03 1.02z"/><path d="m87.49 45.5v30.58c0 2.72-2.22 4.95-4.95 4.95h-10.98c-1.21 0-2.37-.44-3.28-1.25l-11.32-10.02c-.41-.36-1.02-.35-1.4.04l-19.36 19.41c-.11.12-.28.19-.45.19h-3.96c-.35 0-.52-.26-.58-.36-.05-.11-.15-.39.06-.67l20.27-27.76c1.03-1.42 2.56-2.27 4.19-2.49h1.66c.76.1 1.53.35 2.24.76l10.39 5.93c.32.18.71.18 1.03 0 .31-.19.51-.52.51-.89v-18.51c0-.44-.29-.83-.72-.97-.43-.13-.89.02-1.14.39l-7.88 11.25h-4.3c-.64-.08-1.29-.08-1.92 0h-14.11c-1.16 0-2.1-.95-2.1-2.11 0-.56.21-1.11.62-1.5.4-.4.89-.6 1.5-.61l14.69.16c.32-.02.62-.15.81-.38l10.67-13.16c2.12-2.62 5.27-4.13 8.65-4.13 6.16 0 11.16 5 11.16 11.15z"/><ellipse cx="70.2" cy="20.28" rx="9.28" ry="9.28" transform="matrix(.707 -.707 .707 .707 6.222 55.582)"/></g></svg>