<svg id="Layer_1" height="512" viewBox="0 0 120 120" width="512" xmlns="http://www.w3.org/2000/svg"><g><g><path d="m96.52 73.62c.07 1.06-.3 2.11-1.03 2.89-.72.78-1.76 1.23-2.82 1.23-1.96 0-3.61-1.47-3.84-3.41-.25-2.04-.68-5.05-1.36-7.92v12.87l1.89 24.64c.1 1.3-.36 2.61-1.25 3.57s-2.15 1.51-3.47 1.51c-2.32 0-4.33-1.73-4.67-4.03l-2.8-18.85-2.8 18.85c-.35 2.3-2.35 4.03-4.68 4.03-1.31 0-2.57-.55-3.46-1.51-.9-.96-1.35-2.27-1.25-3.57l1.89-24.64v-18.59c-2.15.29-3.87 1.53-6.13 3.17-1.29.93-2.74 1.98-4.51 3.02-2.29 1.33-5.46 1.98-7.67 2.13-.64.05-1.28-.08-1.85-.36-.31-.15-.6-.35-.86-.59-.72-.68-1.14-1.64-1.14-2.63v-.38c0-1.38.79-2.59 2-3.2.34-.18.72-.3 1.12-.37 4.74-.78 8.23-4.16 11.31-7.14 2.84-2.75 5.53-5.35 8.73-5.35h18.6c8.14 0 9.88 22.11 10.05 24.63z"/><path d="m67.04 34.84c0-5.59 4.54-10.14 10.13-10.14s10.13 4.55 10.13 10.14c0 5.58-4.54 10.13-10.13 10.13s-10.13-4.55-10.13-10.13z"/></g><path d="m59.97 11h-35.49c-.55 0-1 .45-1 1v35.49c0 .56.45 1 1 1h13.26v59.38c0 .55.45 1 1 1h6.97c.55 0 1-.45 1-1v-39.22c-.31-.15-.6-.35-.86-.59-.72-.68-1.14-1.64-1.14-2.63v-.38c0-1.38.79-2.59 2-3.2v-13.36h13.26c.55 0 1-.44 1-1v-35.49c0-.55-.45-1-1-1zm-17.75 29.35c-5.84 0-10.6-4.76-10.6-10.6 0-2.57.92-4.92 2.44-6.76l14.92 14.92c-1.84 1.52-4.19 2.44-6.76 2.44zm8.17-3.85-14.92-14.92c1.83-1.52 4.19-2.44 6.75-2.44 5.85 0 10.61 4.76 10.61 10.61 0 2.56-.92 4.91-2.44 6.75z"/></g></svg>