<svg id="Layer_1" height="512" viewBox="0 0 120 120" width="512" xmlns="http://www.w3.org/2000/svg"><g><g><path d="m90.56 70.82c-1.31.26-2.63 0-3.73-.75-1.09-.75-1.82-1.88-2.05-3.18l-1.56-8.86c-.39-2.27-1.51-4.37-3.13-5.97v20.28l2.67 30.58c.13 1.56-.4 3.11-1.45 4.27-1.06 1.15-2.56 1.81-4.13 1.81-2.84 0-5.23-2.13-5.56-4.95l-2.68-23.03-2.68 23.03c-.33 2.82-2.72 4.95-5.56 4.95-1.57 0-3.07-.66-4.13-1.81-1.06-1.16-1.59-2.71-1.45-4.27l2.67-30.58v-16.75c-3.78 3.13-8.33 5.16-13.19 5.89l-5.95.89-2 .3-1.61.24c-1.38.21-2.69-.15-3.69-1.01-.99-.86-1.54-2.1-1.54-3.49 0-2.95 2.36-5.74 5.28-6.22l10.3-1.71c1.88-.31 3.56-1.32 4.72-2.85l.64-.84c4.72-6.23 12.21-9.95 20.04-9.95 5.57 0 11.06 1.89 15.46 5.31 3.73 2.91 6.12 7.1 6.71 11.79l1.44 11.28c.34 2.64-1.35 5.1-3.84 5.6z"/><path d="m57.39 22.56c0-6.37 5.18-11.56 11.55-11.56s11.55 5.19 11.55 11.56-5.18 11.55-11.55 11.55-11.55-5.18-11.55-11.55z"/></g><g><path d="m43.57 81.51v14.63c-.33-.04-.66-.07-1-.07-4.12 0-7.47 3.35-7.47 7.46 0 1.39.39 2.69 1.06 3.81h-4.92c-3.14 0-5.69-2.55-5.69-5.69v-15.45c0-3.13 2.55-5.69 5.69-5.69h5.41v-17.84l2-.3v18.14h3.92c.55 0 1 .45 1 1z"/><path d="m42.57 98.07c-3.02 0-5.47 2.45-5.47 5.46 0 3.02 2.45 5.47 5.47 5.47 3.01 0 5.47-2.45 5.47-5.47 0-3.01-2.46-5.46-5.47-5.46z"/></g></g></svg>