<svg id="Layer_1" height="512" viewBox="0 0 120 120" width="512" xmlns="http://www.w3.org/2000/svg"><g><path d="m66.51 52.48v21.72l1.22 29.83c.06 1.31-.42 2.55-1.33 3.5-.9.95-2.13 1.47-3.44 1.47-2.37 0-4.41-1.77-4.74-4.11l-3.31-23.52-3.32 23.52c-.33 2.34-2.36 4.11-4.73 4.11-1.32 0-2.54-.52-3.45-1.47-.91-.94-1.38-2.19-1.33-3.5l1.23-29.84v-17.11c-1.74 5.56-3.82 13.62-4.85 17.69-.3 1.2-1.11 2.21-2.21 2.76-.61.31-1.27.47-1.94.47-.54 0-1.09-.11-1.61-.32-1.87-.76-2.94-2.68-2.61-4.67 2.17-12.82 6.89-34.33 14.22-34.33h21.2c1.12 0 2.65.37 4.41.8 2.5.61 6.27 1.53 7.13.51.31-.36.43-.8.37-1.37-.3-2.93-4.95-7.47-7.83-9.93l1.32-8.28c3.16 2.08 18.12 12.33 19.01 20.35.21 1.97-.39 3.69-1.8 5.09-4.77 4.78-15.09 6.71-21.61 6.63z"/><path d="m43.5 22.41c0-6.29 5.12-11.41 11.41-11.41 4.54 0 8.47 2.67 10.3 6.53l-2.03 12.72c-2.08 2.19-5.02 3.56-8.27 3.56-6.29 0-11.41-5.11-11.41-11.4z"/><path d="m70.91 20.41-1.32 8.28c-.51-.43-.96-.8-1.33-1.09-.29-.22-.43-.59-.38-.95l.95-5.91c.05-.34.27-.62.57-.76.31-.14.67-.11.95.07.07.04.26.16.56.36z"/><path d="m72.09 12.97-1.18 7.44-1.32 8.28-.84 5.26c-.04.26-.19.5-.4.65-.18.13-.38.2-.59.2-.05 0-.11-.01-.16-.02l-4.03-.64c-.54-.09-.91-.6-.83-1.14l.44-2.75 2.03-12.72.88-5.51c.04-.27.18-.5.4-.66.21-.15.48-.22.74-.17l4.03.64c.54.08.91.6.83 1.14z"/><path d="m66.31 22.41c0 3.03-1.19 5.8-3.13 7.84l2.03-12.72c.71 1.48 1.1 3.14 1.1 4.88z"/></g></svg>