<svg id="Layer_1" height="512" viewBox="0 0 120 120" width="512" xmlns="http://www.w3.org/2000/svg"><g><g><path d="m82.84 36.16c-.08.23-.17.42-.27.59-.05.09-.11.18-.17.28-1.74 2.96-5.42 8.03-11.14 10.48-3.95 1.68-8.08 2.63-11.52 2.66v20.73l4.28 32.91c.32 2.49-1.37 4.75-3.85 5.14-.24.03-.48.05-.72.05-2.16 0-4.06-1.51-4.5-3.69l-5.9-29.27-5.9 29.27c-.44 2.18-2.34 3.69-4.5 3.69-.23 0-.48-.02-.72-.05-2.48-.39-4.17-2.65-3.85-5.14l4.29-32.91v-18.22c-2.37 2.33-4.74 8.35-6.56 16.79-.42 1.94-2.18 3.35-4.17 3.35-.39 0-.76-.05-1.1-.15-2.05-.54-3.4-2.54-3.13-4.65 1.79-13.91 7.85-27.98 15.96-27.98h19.05c.13 0 .25 0 .37.01.09 0 .19.01.28.01 6.84 0 11.75-2.87 14.93-5.67.44-.39.84-.77 1.21-1.15.39-.39 1.02-.4 1.42-.01l5.61 1.66c.52.18.79.75.6 1.27z"/><path d="m37.23 25.02c0-6.52 5.3-11.82 11.82-11.82s11.83 5.3 11.83 11.82-5.31 11.82-11.83 11.82-11.82-5.3-11.82-11.82z"/></g><path d="m91.86 37.4c-.43 1.04-1.45 1.68-2.53 1.68-.27 0-.54-.04-.8-.12l-6.13-1.93c.06-.1.12-.19.17-.28.1-.17.19-.36.27-.59.19-.52-.08-1.09-.6-1.27l-5.61-1.66c-.4-.39-1.03-.38-1.42.01-.37.38-.77.76-1.21 1.15l-1.74-.55c-.92.48-1.91.74-2.91.74-.8 0-1.6-.16-2.36-.47-1.57-.64-2.8-1.85-3.45-3.41-.66-1.56-.67-3.28-.03-4.84 1.31-3.24 5.01-4.8 8.25-3.48 1.73.7 3.01 2.11 3.59 3.88l15.22 7.69c1.25.63 1.82 2.15 1.29 3.45z"/><path d="m96.18 19.8c-.45.31-1.08.2-1.39-.26l-3.41-4.98-1.89 10.12c-.2 1.05-.95 1.97-2.06 2.49-.7.34-1.5.51-2.34.51-.38 0-.77-.04-1.17-.11-1.23-.23-2.34-.82-3.12-1.64-.84-.89-1.21-2.01-1.01-3.07.4-2.13 2.84-3.4 5.56-2.89 1.06.19 2 .65 2.74 1.29l1.77-9.44c.08-.4.38-.71.78-.8.39-.08.8.08 1.03.42l4.77 6.97c.32.46.2 1.08-.26 1.39z"/></g></svg>