<svg id="Layer_1" height="512" viewBox="0 0 120 120" width="512" xmlns="http://www.w3.org/2000/svg"><g><path d="m24.49 33.72c5.52 0 10.01-4.49 10.01-10.01s-4.49-10.01-10.01-10.01-10.02 4.49-10.02 10.01c.01 5.52 4.51 10.01 10.02 10.01z"/><path d="m54.83 37.84-12.8 11.13-9.29-9.15c-2-2.57-5-4.04-8.24-4.04-5.76 0-10.45 4.68-10.45 10.45v21c0 4.34 1.59 8.51 4.47 11.76 2.55 2.88 3.96 6.58 3.96 10.43v14.33c0 2.89 2.36 5.25 5.26 5.25h11.71c.55 0 1-.45 1-1v-1.83c0-2.85-2.32-5.17-5.17-5.17h-.33v-42.03l5.57 4.28c.4.31.96.27 1.32-.09l18.84-19.1c.84-.85 1.28-2.02 1.22-3.22-.06-1.19-.63-2.32-1.55-3.08-1.62-1.33-3.94-1.3-5.52.08z"/><path d="m76.4 22c0-6.07 4.93-11 10.99-11s10.99 4.93 10.99 11c0 6.06-4.93 10.99-10.99 10.99s-10.99-4.93-10.99-10.99z"/><path d="m105.96 45.76v24.32c0 3.7-3.01 6.71-6.71 6.71h-.39v25.98c0 3.44-2.8 6.23-6.23 6.23-2.2 0-4.13-1.14-5.24-2.86-1.11 1.72-3.04 2.86-5.23 2.86-3.44 0-6.24-2.79-6.24-6.23v-25.98h-.39c-3.7 0-6.71-3.01-6.71-6.71v-24.32c0-5.47 4.45-9.91 9.91-9.91h2.02c.26 0 .52.1.71.29l5.93 5.95 5.93-5.95c.19-.19.45-.29.71-.29h2.02c5.46 0 9.91 4.44 9.91 9.91z"/></g></svg>