<svg id="Layer_1" height="512" viewBox="0 0 120 120" width="512" xmlns="http://www.w3.org/2000/svg"><g><path d="m49.3 21.7c0-5.9 4.8-10.7 10.7-10.7 5.89 0 10.69 4.8 10.69 10.7s-4.8 10.7-10.69 10.7c-5.9 0-10.7-4.8-10.7-10.7z"/><path d="m82.96 60.14h-7c-.92-3.5-2.74-9-5.6-11.84l-.06 11.84h-20.94l.05-11.75c-2.83 2.84-4.56 8.29-5.42 11.75h-6.93c1.39-13.4 5.01-25.72 22.74-25.92h.41c17.07 0 21.33 12.1 22.75 25.92z"/><path d="m92.29 62.53c-.19-.25-.48-.39-.79-.39h-1.73v-12.53c0-3.6-1.54-6.98-4.22-9.36.25-.62.33-1.33.19-2.04-.21-1.01-.79-1.96-1.64-2.67-1.82-1.51-4.36-1.48-5.65.07-1.29 1.56-.86 4.05.97 5.57.85.71 1.89 1.11 2.91 1.12h.06c.69 0 1.33-.19 1.87-.53 2.23 2.01 3.51 4.83 3.51 7.84v12.53h-55.54v-12.53c0-3.01 1.28-5.83 3.51-7.84.54.34 1.18.53 1.87.53h.06c1.03-.01 2.06-.41 2.91-1.12 1.83-1.52 2.26-4.01.97-5.57-1.29-1.55-3.82-1.58-5.65-.07-.85.71-1.43 1.66-1.64 2.67-.14.71-.06 1.42.19 2.04-2.68 2.38-4.22 5.76-4.22 9.36v12.53h-1.73c-.31 0-.6.14-.79.39s-.26.57-.17.87l1.92 7.24c.12.43.52.74.97.74h6.45l3.39 36.71c.04.52.48.91.99.91h37.49c.51 0 .95-.39.99-.91l3.4-36.71h6.44c.45 0 .85-.31.97-.74l1.92-7.24c.08-.3.01-.62-.18-.87z"/></g></svg>