<svg id="Layer_1" height="512" viewBox="0 0 120 120" width="512" xmlns="http://www.w3.org/2000/svg"><g><g><path d="m38.99 50.62c0-4.27 3.47-7.74 7.74-7.74s7.75 3.47 7.75 7.74-3.48 7.74-7.75 7.74-7.74-3.47-7.74-7.74z"/><path d="m67.61 46.29-1.53 9.79c-.65 4.19-3.11 7.84-6.74 10.03l-4 2.4v15.36l.5 21.09c.02 1.07-.38 2.09-1.13 2.85-.75.77-1.75 1.19-2.82 1.19-2.03 0-3.72-1.52-3.93-3.54l-1.23-11.86-1.23 11.86c-.2 2.02-1.89 3.54-3.92 3.54-1.07 0-2.08-.42-2.82-1.19-.75-.76-1.15-1.78-1.13-2.85l.48-20.07h-.55c-2.26 0-4.1-1.83-4.1-4.1v-14.18c0-3.84 3.12-6.96 6.96-6.96h13.72c3.73-1.55 6.45-4.82 7.29-8.79l1.16-5.42c.24-1.15 1.19-2.01 2.31-2.09.24-.02.48 0 .72.05.52.11.99.38 1.35.77.14.15.26.32.36.5.27.49.37 1.05.28 1.62z"/></g><path d="m86.5 17.93-4.41 16.4c-.07.25-.24.47-.47.61-.15.08-.32.13-.5.13-.09 0-.17-.01-.26-.03l-9.76-2.63-3.77 12.26c-.1-.18-.22-.35-.36-.5-.36-.39-.83-.66-1.35-.77l3.54-11.51-9.36-2.52c-.53-.14-.85-.69-.71-1.23l4.42-16.4c.07-.25.23-.47.46-.6.23-.14.5-.17.76-.1l21.06 5.66c.54.14.85.69.71 1.23z"/></g></svg>