<svg id="Layer_1" height="512" viewBox="0 0 120 120" width="512" xmlns="http://www.w3.org/2000/svg"><g><path d="m73.17 66.54c.3 1.07.12 2.21-.5 3.12-.62.92-1.6 1.51-2.7 1.63-1.78.18-3.45-.92-3.97-2.64l-3.38-11.21c-1.26 4.52-1.8 7.99-1.96 9.11 5.61 7.56 7.68 17.13 5.7 26.34l-2.7 12.51c-.45 2.09-2.33 3.6-4.46 3.6-1.32 0-2.58-.57-3.44-1.56-.87-.99-1.27-2.31-1.09-3.61l1.41-10.52c.85-6.33-1.26-12.67-5.68-17.21l-2.46 5.85c-2.55 6.09-6 11.74-10.25 16.8l-5.64 6.73c-1.28 1.52-3.39 2.09-5.25 1.41-1.36-.49-2.4-1.55-2.88-2.91-.47-1.36-.3-2.84.46-4.06l5.45-8.78c3.75-6.04 5.73-12.99 5.73-20.09 0-3.01.33-5.97.98-8.81 1.24-5.41 4.22-15.91 10.29-25.57 2.73-4.35 8.27-6.2 13.16-4.38 1.51.56 2.84 1.42 3.98 2.55.64.53 5.54 4.92 6.39 17.09.26 3.68.44 6.31 2.81 14.61z"/><path d="m81.13 22.3c0 6.22-5.06 11.29-11.29 11.29s-11.3-5.07-11.3-11.29c0-6.23 5.07-11.3 11.3-11.3s11.29 5.07 11.29 11.3z"/><path d="m84.94 32.81-6.96 1.46c.08.09 8.09 9.78 8.39 19.87.02.44.32.82.75.93.08.02.17.04.25.04.35 0 .67-.18.86-.48.07-.13 1.65-2.74 2.01-6.65 1.28.8 3.17 2.29 4.2 4.59.2.46.71.69 1.19.55s.78-.61.71-1.1c-.08-.51-1.97-12.41-11.4-19.21z"/></g></svg>