<svg id="Layer_1" height="512" viewBox="0 0 120 120" width="512" xmlns="http://www.w3.org/2000/svg"><g><path d="m70.05 15.67c-.11-.41.04-.85.39-1.09.29-.21 7.32-5.09 12.84-3.11.94.34 1.68 1.01 2.1 1.91.43.89.47 1.9.14 2.83-.35.98-1.1 1.79-2.06 2.2-.45.19-.93.29-1.4.29-.45 0-.91-.09-1.34-.28-3.6-1.57-9.72-2.02-9.78-2.02-.42-.03-.78-.33-.89-.73z"/><path d="m70.91 53.38v20.91l3.58 13.36c.01.06.02.12.03.19l1.19 16.38c.09 1.23-.34 2.45-1.18 3.35-.84.91-2.03 1.43-3.27 1.43-2.24 0-4.14-1.67-4.42-3.89l-1.99-15.44-4.85-12.49-4.85 12.49-1.99 15.44c-.28 2.22-2.18 3.89-4.42 3.89-1.24 0-2.43-.52-3.27-1.43-.84-.9-1.27-2.13-1.18-3.35l1.19-16.38c.01-.07.02-.13.03-.19l3.58-13.36v-20.91c-6.84.27-15.85-.03-20.19-4.35-1.15-1.15-1.64-2.56-1.48-4.19.69-6.57 12.83-15.42 20-20.12.03-.02.06-.03.09-.04-.01.03-.02.06-.02.09-.15.74-.22 1.49-.22 2.29 0 1.3.2 2.59.59 3.83.21.66.47 1.29.77 1.88-5.65 4.3-9.21 8.01-9.45 9.97-.05.4.07.59.17.71.79.93 4.29.08 6.6-.49 1.65-.4 3.08-.75 4.14-.75h19.82c1.06 0 2.49.35 4.14.75 2.31.57 5.81 1.43 6.6.49.1-.12.22-.31.17-.71-.25-1.96-3.8-5.67-9.45-9.96.3-.6.56-1.23.77-1.88.39-1.25.59-2.54.59-3.84 0-.8-.07-1.57-.21-2.24-.01-.05-.02-.09-.03-.14.03.02.06.03.09.05 7.17 4.69 19.31 13.54 19.99 20.11.02.21.03.42.03.62 0 1.37-.5 2.57-1.5 3.57-4.34 4.32-13.35 4.61-20.19 4.35z"/><path d="m49.77 30.29c-.33-1.04-.5-2.13-.5-3.23 0-.68.06-1.3.18-1.91.91-5.1 5.34-8.81 10.55-8.81s9.64 3.71 10.55 8.83c.12.59.18 1.22.18 1.89 0 1.1-.17 2.19-.5 3.23-1.42 4.49-5.53 7.5-10.23 7.5-4.66 0-8.74-2.97-10.19-7.4-.01-.01-.01-.02-.02-.03 0-.03-.01-.05-.02-.07z"/><path d="m34.48 16.21c-.33-.93-.29-1.94.14-2.83.42-.9 1.16-1.57 2.09-1.91 5.53-1.98 12.56 2.9 12.85 3.11.35.24.5.68.39 1.09-.11.4-.47.7-.89.73-.06 0-6.18.45-9.78 2.02-.43.19-.89.28-1.34.28-.47 0-.95-.1-1.4-.29-.96-.41-1.71-1.22-2.06-2.2z"/><path d="m34.63 28.72c-.7-.69-1.1-1.62-1.1-2.61-.01-.99.36-1.92 1.06-2.63 4.11-4.18 12.56-2.85 12.92-2.79.41.07.74.4.82.81.07.42-.12.84-.49 1.05-.05.03-5.37 3.1-7.92 6.08-.62.72-1.5 1.13-2.47 1.18h-.16c-.99 0-1.95-.39-2.66-1.09z"/><path d="m85.41 23.49c1.43 1.45 1.41 3.8-.04 5.23-.71.7-1.67 1.09-2.66 1.09h-.16c-.97-.05-1.85-.46-2.47-1.18-2.55-2.98-7.87-6.05-7.92-6.08-.37-.21-.56-.63-.49-1.05.08-.41.41-.74.82-.81.36-.05 8.82-1.39 12.92 2.8z"/></g></svg>