<svg id="Layer_1" height="512" viewBox="0 0 120 120" width="512" xmlns="http://www.w3.org/2000/svg"><g><path d="m37.46 26.56c0 .56-.45 1-1 1h-1.55v1.56c0 .55-.45 1-1 1-.56 0-1-.45-1-1v-1.56h-1.56c-.55 0-1-.44-1-1 0-.55.45-1 1-1h1.56v-1.55c0-.55.44-1 1-1 .55 0 1 .45 1 1v1.55h1.55c.55 0 1 .45 1 1z"/><path d="m88.63 81.52c0 1.9-1.54 3.43-3.43 3.43-1.9 0-3.44-1.53-3.44-3.43 0-1.89 1.54-3.43 3.44-3.43 1.89 0 3.43 1.54 3.43 3.43z"/><path d="m85.25 62.83 1.1-1.1c.39-.39 1.02-.39 1.41 0s.39 1.03 0 1.42l-1.1 1.1 1.1 1.09c.39.39.39 1.03 0 1.42-.2.19-.45.29-.71.29-.25 0-.51-.1-.7-.29l-1.1-1.1-1.1 1.1c-.2.19-.45.29-.71.29-.25 0-.51-.1-.7-.29-.4-.39-.4-1.03 0-1.42l1.09-1.09-1.09-1.1c-.4-.39-.4-1.03 0-1.42.39-.39 1.02-.39 1.41 0z"/><path d="m29.52 48.7c-1.89 0-3.43-1.54-3.43-3.43s1.54-3.43 3.43-3.43 3.43 1.54 3.43 3.43-1.54 3.43-3.43 3.43z"/><circle cx="45.27" cy="62.43" r="3.43"/><path d="m36.18 78.27c0 .55-.44 1-1 1h-1.55v1.55c0 .55-.45 1-1 1s-1-.45-1-1v-1.55h-1.55c-.56 0-1-.45-1-1 0-.56.44-1 1-1h1.55v-1.56c0-.55.45-1 1-1s1 .45 1 1v1.56h1.55c.56 0 1 .44 1 1z"/><ellipse cx="61.32" cy="25.33" rx="9.73" ry="9.73" transform="matrix(.924 -.383 .383 .924 -5.025 25.396)"/><path d="m72.53 45.2c-.85 1-.8 2.46.11 3.48 6.95 7.74 5.1 23.36 5.02 24.02-.82 11.18-6.36 27.09-8.7 33.41-.64 1.73-2.32 2.89-4.17 2.89h-.32c-1.42 0-2.73-.66-3.57-1.8-.85-1.16-1.1-2.61-.67-3.98 3.53-11.38 3.96-21.82 3.98-25.59-9.7 4.95-15.04 22.59-16.5 28.07-.51 1.95-2.28 3.3-4.29 3.3-1.32 0-2.56-.57-3.41-1.57-.84-.99-1.2-2.29-.99-3.56 2.17-13.22 6.83-22.57 10.36-28.08 3.5-5.48 3.68-12.38.48-18.02-3.11-5.47-6.82-12.47-7.97-18.03-2.45-11.86.27-21.47 2.1-26.15.4-1.03 1.18-1.84 2.2-2.27 1.01-.42 2.12-.43 3.13-.01 1.96.82 2.94 2.98 2.28 5.02-1.39 4.3-2.05 8.51-1.97 12.49.05 2.94 1.27 5.67 3.41 7.71 2.19 2.06 5.04 3.14 8.05 3.03 3.15-.11 6.09-1.53 8.06-3.91 5.09-6.11 7.79-13.11 8.95-16.74.36-1.14 1.2-2.06 2.29-2.54s2.34-.46 3.42.05c1.74.81 2.69 2.71 2.3 4.6-1.87 9.23-9.31 19.11-13.58 24.18z"/><path d="m86.4 35.96c0-.55.44-1 1-1h1.55v-1.55c0-.56.45-1 1-1s1 .44 1 1v1.55h1.55c.56 0 1 .45 1 1s-.44 1-1 1h-1.55v1.55c0 .56-.45 1-1 1s-1-.44-1-1v-1.55h-1.55c-.56 0-1-.45-1-1z"/><path d="m93.61 50c.39.39.39 1.03 0 1.42-.19.19-.45.29-.71.29-.25 0-.51-.1-.7-.29l-1.1-1.1-1.1 1.1c-.19.19-.45.29-.71.29-.25 0-.51-.1-.7-.29-.39-.39-.39-1.03 0-1.42l1.1-1.09-1.1-1.1c-.39-.39-.39-1.03 0-1.42s1.02-.39 1.41 0l1.1 1.1 1.1-1.1c.39-.39 1.02-.39 1.41 0s.39 1.03 0 1.42l-1.1 1.1z"/></g></svg>