<svg id="Layer_1" height="512" viewBox="0 0 120 120" width="512" xmlns="http://www.w3.org/2000/svg"><g><path d="m69.18 50.58-5.04 3.48c-5.26 3.62-11.93 4.35-17.85 1.96v22.75c0 .55-.45 1-1 1h-21.42c-.56 0-1-.45-1-1v-21.91c-2.4 1.34-4.1 7.52-4.56 16.81-.09 1.95-1.7 3.48-3.65 3.48-.99 0-1.92-.39-2.61-1.09-.7-.71-1.07-1.63-1.05-2.61.26-17.6 6.5-29.89 15.18-29.89h14.01c3.51 0 6.97.94 10.01 2.7l3.55 2.06c1.9 1.1 4.23 1.07 6.1-.07l5.59-3.43c1.56-.96 3.59-.52 4.63.99 1.06 1.56.67 3.7-.89 4.77z"/><path d="m24.18 31.14c0-5.74 4.66-10.4 10.4-10.4 5.73 0 10.39 4.66 10.39 10.4 0 5.73-4.66 10.39-10.39 10.39-5.74 0-10.4-4.66-10.4-10.39z"/><path d="m101.2 96.89c-1.13.58-2.4.91-3.75.91-1.34 0-2.61-.33-3.73-.9-2.59.37-4.34 1.15-5.5 2.22 1.38 2.11 1.7 4.76 1.7 7.51 0 .35-.07.69-.18 1h18.26c.55 0 1-.45 1-1 0-4.56-.67-8.71-7.8-9.74z"/><path d="m103.74 89.52c0-3.47-2.82-6.28-6.29-6.28-3.46 0-6.28 2.81-6.28 6.28 0 3.46 2.82 6.28 6.28 6.28 3.47 0 6.29-2.82 6.29-6.28z"/><path d="m80.12 96.89c-1.13.58-2.4.91-3.75.91s-2.62-.33-3.75-.91c-7.12 1.02-7.79 5.18-7.79 9.74 0 .55.45 1 1 1h21.08c.55 0 1-.45 1-1 0-4.56-.67-8.71-7.79-9.74z"/><ellipse cx="76.37" cy="89.52" rx="6.28" ry="6.28" transform="matrix(.987 -.16 .16 .987 -13.353 13.389)"/><path d="m59.03 96.9c-1.12.57-2.39.9-3.73.9-1.35 0-2.63-.33-3.75-.91-7.12 1.03-7.79 5.18-7.79 9.74 0 .55.44 1 1 1h18.26c-.11-.31-.18-.65-.18-1 0-2.74.32-5.4 1.7-7.51-1.17-1.07-2.92-1.85-5.51-2.22z"/><path d="m49 89.52c0 3.46 2.82 6.28 6.29 6.28 3.46 0 6.28-2.82 6.28-6.28 0-3.47-2.82-6.28-6.28-6.28-3.47 0-6.29 2.81-6.29 6.28z"/><path d="m104.07 12.37h-50.14c-2.72 0-4.93 2.21-4.93 4.93v26.12c.75.33 1.49.7 2.2 1.11l3.56 2.06c.6.35 1.28.54 1.98.54.72 0 1.44-.2 2.06-.59l5.59-3.42c.86-.53 1.84-.81 2.84-.81 1.8 0 3.48.89 4.49 2.38 1.69 2.46 1.06 5.84-1.4 7.54l-4.23 2.91h37.98c2.72 0 4.93-2.21 4.93-4.93v-32.91c0-2.72-2.21-4.93-4.93-4.93zm-41.1 3.41h21.58c.55 0 1 .45 1 1s-.45 1-1 1h-21.58c-.55 0-1-.45-1-1s.45-1 1-1zm0 7.98h32.81c.55 0 1 .45 1 1 0 .56-.45 1-1 1h-32.81c-.55 0-1-.44-1-1 0-.55.45-1 1-1zm40.05 17.98h-30.42c-.55 0-1-.45-1-1s.45-1 1-1h30.42c.56 0 1 .45 1 1s-.44 1-1 1zm0-7.99h-40.05c-.55 0-1-.45-1-1s.45-1 1-1h40.05c.56 0 1 .45 1 1s-.44 1-1 1z"/></g></svg>