<svg id="Layer_1" height="512" viewBox="0 0 120 120" width="512" xmlns="http://www.w3.org/2000/svg"><g><path d="m50.08 107.85c.09.54-.28 1.05-.83 1.14-.05.01-.11.01-.16.01-.48 0-.91-.35-.98-.84l-2.98-18.75h-25.82l-6.04 18.9c-.13.42-.53.69-.95.69-.1 0-.2-.01-.3-.05-.53-.16-.82-.73-.65-1.25l8.72-27.31-7.5-43.47c-.09-.55.27-1.06.82-1.16.54-.09 1.06.27 1.15.82l7.39 42.88h1.64c1.31 1.25 3.09 2 5.06 2h15.26c1.45 1.25 2.46 2.99 2.78 5.01z"/><path d="m108.67 60.98v4.66c0 .55-.45 1-1 1h-2.51v41.36c0 .56-.45 1-1 1h-38.07c-.55 0-1-.44-1-1v-41.36h-14.33c-.56 0-1-.45-1-1v-4.66c0-.55.44-1 1-1h56.91c.55 0 1 .45 1 1z"/><path d="m31.6 20.76c0-5.38 4.37-9.76 9.75-9.76s9.76 4.38 9.76 9.76-4.38 9.75-9.76 9.75-9.75-4.37-9.75-9.75z"/><path d="m60.6 107.61c-.54.22-1.1.33-1.67.33-.58 0-1.16-.12-1.71-.35-1.09-.47-1.92-1.34-2.34-2.44l-9.06-23.69h-17.17c-1.97 0-3.75-.75-5.06-2-1.35-1.27-2.21-3.05-2.29-5.05-.77-19.5 2.98-31.9 5.29-37.56.91-2.25 3.08-3.71 5.51-3.71h11.72c2.46 0 4.7 1.55 5.57 3.85l2.8 7.44c.66 1.75 2.36 2.92 4.23 2.92h2.02c.55 0 1 .45 1 1l2.47 6.19c.16.18.26.41.26.67v.04c-.02.53-.45.96-1 .96h-10.41c-.24 0-.47-.08-.65-.24l-7.21-6.12c-3.53 5.88-3.36 16.2-3.21 19.33h6.83c2.96 0 5.6 1.87 6.58 4.66l9.93 28.32c.77 2.17-.3 4.57-2.43 5.45z"/><path d="m61.32 37.04-7.27 2.99-1.45-3.63c-.39-.97-.37-2.04.04-3 .42-.97 1.18-1.71 2.16-2.1.97-.39 2.04-.38 3 .04.97.41 1.71 1.18 2.1 2.15z"/><path d="m62.17 55.25v-.04c0-.26-.1-.49-.26-.67l-2.47-6.19c0-.55-.45-1-1-1h-1.48l-2.17-5.46 7.27-2.99 5.63 14.15z"/><path d="m68.13 55.03-.5 6.04c-.04.37-.28.7-.63.84-.12.05-.24.07-.37.07-.24 0-.48-.08-.67-.25l-4.5-4.04z"/></g></svg>