<svg id="Layer_1" height="512" viewBox="0 0 120 120" width="512" xmlns="http://www.w3.org/2000/svg"><g><path d="m82.36 105.73c.16.81-.06 1.63-.58 2.27s-1.3 1-2.13 1c-1.28 0-2.39-.88-2.68-2.13l-4.03-17.43c-.76-3.27-3.39-5.73-6.71-6.26l-12.87-2.09c-.05-.01-.12-.01-.17-.01-.3 0-.59.14-.79.38-.24.27-.31.65-.2 1l4.04 11.76c.82 2.4 1.24 4.93 1.24 7.48 0 4.03-3.28 7.3-7.3 7.3h-30.28c-1.63 0-2.97-1.33-2.97-2.97 0-1.54 1.17-2.82 2.7-2.95l28.86-2.65c.35-.03.66-.24.82-.54.17-.31.17-.68 0-.99l-7.51-14.18c-3.53-6.64-5.21-14.04-4.87-21.42.37-8.03 2.16-19.27 8.55-27.14 3.54-4.37 9.71-5.53 14.69-2.72l.28.15c2.49 1.41 4.4 3.64 5.39 6.32l5.1 21.88c.02.12.07.23.13.34l8.43 12.91c.58.9.34 2.11-.55 2.7-.85.58-2.01.4-2.64-.4l-10.21-12.91-5.09-17.56c-.16-.55-.73-.86-1.29-.7-.55.16-.87.74-.71 1.29l2.6 8.94c-2.14 4.41-3.78 8.79-4.85 13-.13.48.1.98.55 1.2l15.77 7.58c2.71 1.31 4.68 3.86 5.26 6.81z"/><path d="m87.98 22.43c0 6.3-5.12 11.42-11.42 11.42s-11.43-5.12-11.43-11.42 5.13-11.43 11.43-11.43 11.42 5.13 11.42 11.43z"/><path d="m88.35 63.62c-.08-.3-.3-.55-.58-.68l-2.86-1.28 3.27-4.39c.34-.46.25-1.11-.21-1.46-.46-.34-1.11-.25-1.46.21l-4.05 5.44c-.19.25-.25.58-.17.89s.29.56.58.69l2.89 1.29-3.32 4.72c-.33.47-.22 1.12.25 1.45.18.13.39.19.6.19.33 0 .65-.15.85-.44l4.05-5.75c.19-.26.24-.58.16-.88z"/><path d="m94.38 81.08c-.16-.27-.44-.45-.75-.5-.31-.04-.63.06-.86.28l-2.29 2.19-3.11-4.86c-.31-.49-.95-.63-1.44-.32-.48.31-.63.95-.32 1.44l3.79 5.93c.17.26.44.44.75.47.31.04.62-.07.85-.28l2.27-2.16 2.83 4.69c.2.33.54.5.89.5.18 0 .37-.05.54-.15.49-.3.65-.94.36-1.43z"/><path d="m102.07 68.06-6.77-.26c-.31-.01-.62.12-.83.36s-.29.56-.24.87l.57 3.12-5.77-.07c-.58-.03-1.05.45-1.05 1.03-.01.58.46 1.05 1.03 1.05l7.04.08h.01c.31 0 .6-.14.8-.37.2-.24.28-.55.23-.86l-.57-3.08 5.47.21c.53.05 1.06-.43 1.08-1s-.42-1.06-1-1.08z"/></g></svg>