<svg id="Layer_1" height="512" viewBox="0 0 120 120" width="512" xmlns="http://www.w3.org/2000/svg"><g><path d="m44.63 91.76c.04.28-.04.57-.23.79s-.47.35-.76.35h-4.08c-.49 0-.91-.35-.99-.84l-2.92-17.67h-11.71l-6.19 17.84c-.14.4-.51.67-.94.67h-4.81c-.32 0-.61-.15-.8-.4s-.25-.57-.17-.87l6.35-22.48-6.35-30.45c-.11-.52.21-1.04.73-1.17 1.61-.42 3.28-.16 4.69.72 1.42.87 2.39 2.25 2.73 3.88l5.45 25.7h2.52c1.06 1.22 2.62 2 4.36 2h8.64c.14 0 .27.01.4.03.69.8 1.17 1.79 1.33 2.89z"/><g><path d="m26.47 33.74c0-3.66 2.97-6.64 6.63-6.64s6.63 2.98 6.63 6.64-2.97 6.63-6.63 6.63c-3.67 0-6.63-2.97-6.63-6.63z"/><path d="m55.03 91.09c-.43.18-.89.27-1.35.27-.47 0-.94-.1-1.39-.29-.89-.37-1.57-1.06-1.93-1.95l-6.92-17.07c-.5-1.22-1.6-2.05-2.89-2.19-.13-.02-.26-.03-.4-.03h-8.65c-1.74 0-3.3-.78-4.36-2-.88-1.01-1.41-2.33-1.41-3.78v-15.78c0-3.93 3.19-7.13 7.12-7.13 1.58 0 3.08.51 4.34 1.47 0 .01.01.02.01.02.01.01.02.01.02.01l5.84 4.92h9.1c1.85 0 3.37 1.51 3.37 3.37s-1.52 3.37-3.37 3.37h-11.22c-.23 0-.46-.08-.64-.24l-.32-.27v6.1l4.36.38c2.33.2 4.32 1.76 5.07 3.97l7.66 22.37c.61 1.8-.28 3.77-2.04 4.48z"/></g><path d="m94.27 48.27v15.78c0 1.45-.53 2.77-1.41 3.78-1.06 1.22-2.62 2-4.36 2h-8.64c-.14 0-.27.01-.4.02-1.28.15-2.39.98-2.89 2.2l-6.92 17.07c-.36.89-1.04 1.58-1.93 1.95-.44.19-.92.29-1.39.29-.46 0-.92-.09-1.35-.27-1.76-.71-2.66-2.68-2.05-4.48l7.66-22.37c.75-2.21 2.74-3.77 5.07-3.97l4.36-.38v-6.1l-.32.27c-.18.16-.41.24-.64.24h-11.22c-1.85 0-3.37-1.51-3.37-3.37s1.52-3.37 3.37-3.37h9.1l5.84-4.92c.01 0 .01 0 .02-.01 0 0 .01-.01.01-.02 1.26-.96 2.76-1.47 4.34-1.47 3.93 0 7.12 3.2 7.12 7.13z"/><path d="m80.28 33.74c0-3.66 2.98-6.64 6.63-6.64 3.66 0 6.64 2.98 6.64 6.64s-2.98 6.63-6.64 6.63-6.63-2.97-6.63-6.63z"/><path d="m108.79 92.5c-.19.25-.48.4-.79.4h-4.82c-.42 0-.8-.27-.94-.67l-6.19-17.84h-11.7l-2.92 17.67c-.08.49-.5.84-.99.84h-4.08c-.29 0-.57-.13-.76-.35s-.27-.51-.23-.79l2.76-19.01c.16-1.1.64-2.1 1.33-2.9.13-.01.26-.02.4-.02h8.64c1.74 0 3.3-.78 4.36-2h2.52l5.45-25.7c.34-1.63 1.31-3.01 2.73-3.88 1.42-.88 3.08-1.14 4.69-.72.52.13.84.65.73 1.17l-6.36 30.45 6.35 22.48c.07.3.01.62-.18.87z"/></g></svg>