<svg id="Layer_1" height="512" viewBox="0 0 120 120" width="512" xmlns="http://www.w3.org/2000/svg"><g><path d="m60.26 23.59c0-6.94 5.64-12.59 12.58-12.59s12.58 5.65 12.58 12.59c0 6.93-5.64 12.58-12.58 12.58s-12.58-5.65-12.58-12.58z"/><path d="m105.86 51.83-14.45 7.45c-5.52 2.84-12.26 1.59-16.39-3.05l-.57-.64-5.91 18.65 2.48.56c6.26 1.41 11.05 6.63 11.92 12.99l2.15 15.6c.18 1.34-.2 2.71-1.05 3.77-.86 1.07-2.09 1.72-3.47 1.83-.12.01-.25.01-.37.01-2.29 0-4.34-1.68-4.86-4.04l-2.94-13.38c-.43-1.97-1.79-3.62-3.64-4.43l-7.34-3.19c-4.55 7.01-11.8 11.9-20.03 13.48l-9.45 1.81c-2.62.51-5.2-1.14-5.86-3.73-.68-2.7 1.04-5.48 3.84-6.19l10.53-2.69c3.97-1.02 6.85-4.59 7.01-8.68.2-5.53 1.06-11.03 2.55-16.36l3.6-12.87-6.24.65c-2.34.24-4.46 1.59-5.66 3.61l-6.29 10.57c-.33.56-.78 1.01-1.3 1.33-.88.56-1.95.76-3.01.52-.29-.06-.57-.16-.83-.28l-.44-.24c-.63-.41-1.14-1-1.47-1.71-.23-.48-.35-.99-.36-1.5-.04-.7.12-1.4.47-2.04l6.26-11.7c2.73-5.11 7.77-8.73 13.48-9.69l6.68-1.12c1.9-.32 3.82-.27 5.71.16l11.75 2.65c3.81.86 7.08 3.14 9.19 6.43l1.34 2.08c1.5 2.34 4.45 3.23 7 2.11l12.72-5.57c.94-.41 1.98-.42 2.93-.04.96.38 1.69 1.12 2.09 2.07.75 1.83-.01 3.9-1.77 4.81z"/><path d="m28.29 74.52c2.22.96 6.17 2.12 9.13 2.78l-3.67 7c-.5.94-1.47 1.48-2.48 1.48-.43 0-.88-.1-1.29-.32l-16.41-8.63c-.66-.35-1.15-.93-1.37-1.64s-.15-1.47.2-2.13l3.69-7.02c2.17 2.05 5.32 4.65 7.45 5.98l-.37.71c-.26.48-.07 1.09.42 1.35l2.98 1.56c.15.08.31.12.47.12.1 0 .2-.01.29-.04.26-.08.47-.26.59-.49z"/><path d="m39.18 72.22c-.22-.71-.71-1.3-1.37-1.64l-3.13-1.65.45-.87c.6-1.14.16-2.56-.98-3.16l-.03-.01c-.88.56-1.95.76-3.01.52-.29-.06-.57-.16-.83-.28l2.94 1.54c.16.09.23.3.14.46l-.45.87-6.6-3.48.45-.86c.06-.11.15-.15.2-.17.05-.01.15-.03.26.03l2.62 1.37c-.63-.41-1.14-1-1.47-1.71-.23-.48-.35-.99-.36-1.5-.52-.23-1.1-.26-1.64-.1-.6.19-1.09.6-1.38 1.15l-.45.86-3.14-1.65c-1.36-.71-3.05-.19-3.77 1.17l-.57 1.08c2.03 1.97 5.3 4.72 7.42 6.05l.26-.5c.26-.48.86-.67 1.35-.42l2.98 1.57c.24.13.41.34.49.59s.05.53-.07.76l-.26.5c2.19.95 6.33 2.13 9.16 2.73l.59-1.13c.35-.66.42-1.41.2-2.12z"/></g></svg>