<svg id="Layer_1" height="512" viewBox="0 0 120 120" width="512" xmlns="http://www.w3.org/2000/svg"><g><path d="m34.69 30.67c0-5.93 4.82-10.75 10.75-10.75s10.75 4.82 10.75 10.75c0 5.92-4.82 10.74-10.75 10.74s-10.75-4.82-10.75-10.74z"/><path d="m70.54 51.7c-3.74 3.41-8.28 5.76-13.22 6.86v18.85.02 25.13c0 3.55-2.89 6.44-6.44 6.44-2.29 0-4.3-1.2-5.44-3.01-1.14 1.81-3.15 3.01-5.44 3.01-3.56 0-6.45-2.89-6.45-6.44v-25.15c0-.01 0-.01 0-.02v-17.88c-1.9 1.96-3.11 4.49-3.42 7.22l-.93 7.85c-.25 2.19-2.1 3.83-4.3 3.83-1.23 0-2.4-.53-3.22-1.44-.82-.92-1.22-2.15-1.08-3.37l1.22-10.86c.63-5.53 3.21-10.67 7.27-14.47 3.27-3.05 7.53-4.73 12-4.73h15.23l6.29-.45c1.98-.14 3.76-1.17 4.87-2.82l.01-.02c.56 3.41 1.32 7.3 2.34 10.76.1.35.37.6.71.69z"/><path d="m71.34 50.95c-.26.26-.53.51-.8.75-.34-.09-.61-.34-.71-.69-1.02-3.46-1.78-7.35-2.34-10.76l.22-.32c.31-.46.93-.58 1.39-.27.43.29.55.86.3 1.31l1.96 8.57c.39.39.38 1.02-.02 1.41z"/><path d="m94.25 11c-.95 0-1.9.23-2.75.65-.68.34-1.51.81-2.46 1.35-4.8 2.73-12.83 7.31-23.68 7.31-.55 0-1 .44-1 1v.37h-.56c-2.51 0-4.55 2.04-4.55 4.54 0 2.51 2.04 4.55 4.55 4.55h.56v.37c0 .55.45 1 1 1 .35 0 .69.02 1.04.03.15 1.44.5 4.49 1.09 8.08.56 3.41 1.32 7.3 2.34 10.76.1.35.37.6.71.69.08.02.16.03.25.03h5.91c1.66 0 3.01-1.35 3.01-3.01 0-1.34-.87-2.51-2.17-2.89-.82-.25-1.86-.73-2.21-1.69-1.48-4.01-.9-7.75-.44-10.75.01-.01.01-.02.01-.03 5.81 1.51 10.3 4.07 13.38 5.84 1 .58 1.86 1.07 2.62 1.45 1.05.53 2.18.79 3.35.79 3.55 0 5.17-7.89 5.17-15.22s-1.62-15.22-5.17-15.22zm0 28.44c-.82 0-2.13-2.72-2.78-7.4.13.07.26.12.41.12h.05c2.88-.15 5.13-2.76 5.13-5.93 0-3.18-2.25-5.79-5.13-5.95-.17-.01-.32.05-.46.13.64-4.69 1.96-7.41 2.78-7.41 1.12 0 3.17 5.02 3.17 13.22s-2.05 13.22-3.17 13.22z"/></g></svg>