<svg id="Layer_1" height="512" viewBox="0 0 120 120" width="512" xmlns="http://www.w3.org/2000/svg"><g><g><path d="m88.97 50.83-1.49 9.54c-.64 4.1-3.04 7.67-6.59 9.8l-3.89 2.33v12.93l1.35 20.39c.05.82-.24 1.63-.8 2.24-.57.6-1.36.94-2.19.94-1.4 0-2.6-.95-2.91-2.31l-3.87-16.75-3.86 16.75c-.31 1.36-1.51 2.31-2.91 2.31-.83 0-1.62-.34-2.18-.94-.57-.6-.86-1.42-.8-2.24l1.34-20.3c0-.01 0-.01 0-.02v-13l-3.88-2.33c-3.56-2.13-5.96-5.7-6.6-9.8l-1.49-9.54c-.11-.73.1-1.48.59-2.04.33-.37.76-.63 1.22-.76.23-.07.48-.1.72-.1.46.01.91.15 1.28.4.57.36.99.95 1.14 1.65l1.13 5.3c.81 3.86 3.46 7.04 7.09 8.54h14.43c3.63-1.5 6.28-4.68 7.1-8.54l1.12-5.3c.15-.71.58-1.3 1.15-1.66.38-.24.81-.38 1.27-.39.25 0 .5.03.73.1.47.13.89.39 1.21.77.49.56.7 1.3.59 2.03z"/><path d="m68.59 62.62c4.17 0 7.57-3.39 7.57-7.57s-3.4-7.57-7.57-7.57c-4.18 0-7.58 3.39-7.58 7.57s3.4 7.57 7.58 7.57z"/></g><path d="m94.45 12v25.25c0 .56-.45 1-1 1h-6.28v9.78c-.23-.07-.48-.1-.73-.1-.46.01-.89.15-1.27.39v-10.07h-33.16v10.08c-.37-.25-.82-.39-1.28-.4-.24 0-.49.03-.72.1v-9.78h-6.29c-.55 0-1-.44-1-1v-25.25c0-.55.45-1 1-1h49.73c.55 0 1 .45 1 1z"/></g></svg>