<svg id="Layer_1" height="512" viewBox="0 0 120 120" width="512" xmlns="http://www.w3.org/2000/svg"><g><path d="m71.79 12.71c-.39-.39-.39-1.02 0-1.41.39-.4 1.02-.4 1.41 0 4.71 4.7 4.71 12.36 0 17.07-.2.2-.45.29-.71.29-.25 0-.51-.09-.7-.29-.39-.39-.39-1.02 0-1.41 3.92-3.93 3.92-10.32 0-14.25z"/><path d="m68.77 23.95c2.27-2.27 2.27-5.96 0-8.23-.39-.39-.39-1.02 0-1.41.4-.39 1.03-.39 1.42 0 1.47 1.47 2.28 3.43 2.28 5.52s-.81 4.06-2.28 5.53c-.2.2-.45.29-.71.29-.25 0-.51-.09-.71-.29-.39-.39-.39-1.02 0-1.41z"/><path d="m89.58 49.59c-.52 2.05-1.88 3.79-3.74 4.79-6.45 3.46-13.03 5.25-19.57 5.31v43.34c0 3.29-2.68 5.97-5.97 5.97h-.74c-3.29 0-5.97-2.68-5.97-5.97v-19.74l-8.56 21.91c-.9 2.31-3.09 3.8-5.56 3.8-1.98 0-3.82-.97-4.94-2.6-1.11-1.63-1.35-3.71-.63-5.55l9.01-23.06v-17.32c-1.84 1.91-3.02 4.38-3.33 7.03l-.9 7.71c-.25 2.15-2.07 3.77-4.24 3.77-1.21 0-2.37-.51-3.18-1.42-.81-.9-1.19-2.11-1.06-3.32l1.2-10.65c.61-5.43 3.15-10.48 7.14-14.21 3.21-3 7.39-4.65 11.78-4.65h14.95l10.4.22c.44.01.83-.22 1.06-.6.22-.39.21-.84-.02-1.22l-4.26-6.93c-.59-.96-.74-2.12-.41-3.2.32-1.07 1.09-1.96 2.1-2.43 1.54-.71 3.35-.37 4.5.84 4.32 4.55 7.49 8.45 9.98 12.28 1.13 1.73 1.48 3.88.96 5.9z"/><circle cx="54.59" cy="32.12" r="10.56"/><path d="m65.76 20.93c.61-.6.61-1.59 0-2.2-.39-.39-.39-1.02 0-1.41s1.03-.39 1.42 0c1.38 1.39 1.38 3.64 0 5.03-.2.19-.45.29-.71.29s-.51-.1-.71-.29c-.39-.39-.39-1.03 0-1.42z"/></g></svg>