<svg id="Layer_1" height="512" viewBox="0 0 120 120" width="512" xmlns="http://www.w3.org/2000/svg"><g><path d="m70.81 50.1v15.5l7.67 42.22c.05.3-.03.6-.22.82-.19.23-.47.36-.77.36h-6.82c-.46 0-.86-.31-.97-.75l-9.7-38.47-9.71 38.47c-.11.44-.51.75-.97.75h-6.82c-.3 0-.58-.13-.77-.36-.19-.22-.27-.52-.22-.82l7.67-42.17v-15.55c0-3.28-.84-6.52-2.44-9.38l-13.8-24.69c-.89-1.59-.37-3.58 1.18-4.53 1.57-.96 3.59-.51 4.6 1.04l13.42 20.6c1.74 2.67 4.68 4.26 7.87 4.26 3.18 0 6.12-1.59 7.86-4.26l13.43-20.6c.65-1 1.72-1.54 2.82-1.54.6 0 1.21.16 1.77.5 1.55.95 2.07 2.94 1.18 4.53l-13.8 24.69c-1.6 2.86-2.46 6.1-2.46 9.38z"/><path d="m69.45 22.95c0 5.2-4.24 9.44-9.44 9.44-5.21 0-9.45-4.24-9.45-9.44 0-5.21 4.24-9.44 9.45-9.44 5.2 0 9.44 4.23 9.44 9.44z"/></g></svg>