<svg id="Layer_1" height="512" viewBox="0 0 120 120" width="512" xmlns="http://www.w3.org/2000/svg"><g><path d="m33.07 37.87c5.55 0 10.07-4.51 10.07-10.07 0-5.55-4.52-10.07-10.07-10.07-5.56 0-10.08 4.52-10.08 10.07 0 5.56 4.52 10.07 10.08 10.07z"/><path d="m51.55 60.89c-.27-.7-.42-1.46-.42-2.27 0-2.77 1.65-5.34 4.03-6.65l-1.82-.3c-1.58-.26-3-1.12-3.97-2.4l-.55-.72c-4.09-5.39-10.57-8.61-17.34-8.61-4.83 0-9.58 1.63-13.38 4.59-3.24 2.53-5.31 6.16-5.83 10.23l-1.24 9.7c-.3 2.35 1.2 4.53 3.42 4.97 1.16.24 2.34 0 3.31-.67.97-.66 1.62-1.67 1.82-2.83l1.34-7.61c.32-1.81 1.17-3.49 2.42-4.81v17.09l-2.29 26.29c-.13 1.38.34 2.76 1.28 3.78.93 1.02 2.26 1.61 3.65 1.61 2.51 0 4.63-1.88 4.92-4.38l2.17-18.61 2.16 18.61c.3 2.5 2.41 4.38 4.92 4.38 1.39 0 2.72-.59 3.66-1.61.93-1.02 1.4-2.4 1.28-3.78l-2.3-26.29v-14.1c2.59 2.07 5.57 3.56 8.76 4.39z"/><path d="m76.85 27.8c0-5.55 4.52-10.07 10.07-10.07 5.56 0 10.08 4.52 10.08 10.07 0 5.56-4.52 10.07-10.08 10.07-5.55 0-10.07-4.51-10.07-10.07z"/><path d="m105.54 69.44c-1.16.24-2.34 0-3.31-.67-.97-.66-1.62-1.67-1.82-2.83l-1.34-7.61c-.32-1.81-1.17-3.49-2.42-4.81v17.08l2.3 26.29c.12 1.38-.35 2.76-1.29 3.78-.93 1.02-2.26 1.61-3.65 1.61-2.51 0-4.63-1.88-4.92-4.38l-2.17-18.61-2.16 18.61c-.29 2.5-2.41 4.38-4.92 4.38-1.39 0-2.72-.59-3.66-1.61-.93-1.02-1.4-2.4-1.28-3.78l2.3-26.29v-14.1c-3.23 2.6-7.08 4.29-11.19 4.91l-8.22 1.23c-1.22.18-2.39-.13-3.28-.9-.89-.76-1.38-1.87-1.38-3.11 0-2.6 2.09-5.06 4.66-5.49l8.86-1.46c1.59-.26 3-1.12 3.97-2.4l.55-.72c4.09-5.39 10.57-8.61 17.34-8.61 4.83 0 9.58 1.63 13.38 4.59 3.24 2.53 5.31 6.16 5.83 10.23l1.24 9.7c.3 2.35-1.2 4.53-3.42 4.97z"/></g></svg>