<svg id="Layer_1" height="512" viewBox="0 0 120 120" width="512" xmlns="http://www.w3.org/2000/svg"><g><path d="m38.99 103.25c0 .55-.45 1-1 1h-12.57c-.55 0-1-.45-1-1s.45-1 1-1h1.51v-19.73h-8.42c-.28 0-.55-.11-.73-.31-.19-.2-.29-.48-.27-.75 1.23-18.97-6.38-41.59-6.46-41.81-.09-.28-.06-.58.08-.83.15-.25.39-.42.67-.48 4.12-.8 8.19 1.76 9.26 5.81.63 2.37 1.36 5.52 1.99 9.15-.49 2.89-.81 6.04-.81 9.27 0 5.09.93 8.48 2.11 10.73-.06 1.09-.16 2.18-.28 3.27.63-.13 1.43-.28 2.38-.44 1.32 1.24 2.48 1.53 2.59 1.55.07.02.14.03.22.03.45 0-.11.46 0 0l16.22.55c-.49.25-.68.85-.43 1.34l1.5 2.92h-10.07v19.73h1.51c.55 0 1 .45 1 1z"/><path d="m109 59.85v5.43c0 .56-.45 1-1 1h-24.21v31.48h7.71c.55 0 1 .45 1 1v4.49c0 .55-.45 1-1 1h-24.42c-.55 0-1-.45-1-1v-4.49c0-.55.45-1 1-1h7.71v-31.48h-24.21c-.55 0-1-.44-1-1v-5.43c0-.55.45-1 1-1h57.42c.55 0 1 .45 1 1z"/><path d="m42.51 52.39c-1.64 5.51-1.8 13.56-1.8 16.34h2.58c4.19 0 7.89 2.51 9.43 6.41l7.63 19.29c.27.68.37 1.44.19 2.16-.29 1.14-1.08 2.02-2.16 2.39-.38.14-.76.2-1.15.2-1.24 0-2.43-.68-3.03-1.84l-7.65-14.82-1.5-2.92s0-.01-.01-.01c-.39-.79-1.08-1.38-1.95-1.41l-13.83-.47c-.08 0-.15-.01-.22-.03-.11-.02-1.27-.31-2.59-1.55-.7-.65-1.44-1.56-2.1-2.83-1.18-2.25-2.11-5.64-2.11-10.73 0-3.23.32-6.38.81-9.27.84-4.97 2.14-9.18 3.05-11.76.88-2.48 3.24-4.15 5.87-4.15h8.69c2.18 0 4.22 1.16 5.34 3.03l4.5 7.54h9.34c1.81 0 3.46 1.22 3.83 3 .5 2.44-1.35 4.59-3.72 4.59h-12.15c-.2 0-.39-.06-.56-.16z"/><ellipse cx="37.38" cy="25.46" rx="9.71" ry="9.71" transform="matrix(.924 -.383 .383 .924 -6.898 16.243)"/><path d="m92.69 52.02h-22.49c-.56 0-1 .44-1 1 0 2.66 2.17 4.83 4.84 4.83h14.81c2.67 0 4.84-2.17 4.84-4.83 0-.56-.45-1-1-1z"/><path d="m70.2 47.13h22.49c.55 0 1-.44 1-1 0-6.12-6.35-8.92-12.25-8.92-5.89 0-12.24 2.8-12.24 8.92 0 .56.44 1 1 1z"/><path d="m70.2 50.63h22.49c.55 0 1-.45 1-1s-.45-1-1-1h-22.49c-.55 0-1 .45-1 1s.45 1 1 1z"/></g></svg>