<svg id="Layer_1" height="512" viewBox="0 0 120 120" width="512" xmlns="http://www.w3.org/2000/svg"><g><path d="m11 46.96h5.1v53.22h-5.1z"/><path d="m28.98 67.81c3.62 0 6.56-2.94 6.56-6.56 0-3.61-2.94-6.55-6.56-6.55-3.61 0-6.55 2.94-6.55 6.55.01 3.62 2.95 6.56 6.55 6.56z"/><path d="m42.99 67.81h2.44v-13.67c-1.41.48-2.44 1.82-2.44 3.4z"/><path d="m101.81 69.89v22.23h-83.63v-22.23h27.25v13.07c0 .58.46 1.04 1.04 1.04 1.84 0 2.8-.47 3.66-.89.75-.36 1.38-.67 2.75-.67 1.29 0 1.89.38 2.64.87.82.54 1.85 1.21 3.77 1.21 1.91 0 2.94-.67 3.76-1.21.76-.49 1.35-.87 2.64-.87 1.3 0 1.89.38 2.64.87.82.54 1.86 1.21 3.76 1.21 1.91 0 2.94-.67 3.78-1.21.75-.49 1.33-.87 2.62-.87 1.3 0 1.89.38 2.64.87.83.54 1.86 1.21 3.77 1.21s2.95-.67 3.77-1.21c.75-.49 1.35-.87 2.64-.87 1.35 0 2 .31 2.74.67.84.42 1.81.89 3.66.89.57 0 1.04-.46 1.04-1.04v-13.07z"/><path d="m49.21 81.25c-.52.25-.99.48-1.7.59v-27.88h38.99c5.61 0 10.17 4.56 10.17 10.16v17.72c-.71-.11-1.18-.34-1.7-.59-.86-.42-1.83-.9-3.66-.9-1.92 0-2.95.68-3.78 1.22-.75.48-1.34.87-2.63.87s-1.88-.39-2.63-.87c-.82-.54-1.86-1.22-3.78-1.22-1.9 0-2.94.68-3.76 1.22-.75.48-1.34.87-2.64.87-1.29 0-1.87-.39-2.62-.87-.84-.54-1.87-1.22-3.78-1.22s-2.94.68-3.77 1.22c-.75.48-1.34.87-2.63.87s-1.89-.39-2.64-.87c-.83-.54-1.86-1.22-3.77-1.22-1.85 0-2.82.48-3.67.9z"/><path d="m103.89 64.7h5.11v35.48h-5.11z"/><path d="m27.34 36.46h6.53l-7.27 7.27c-.3.3-.39.75-.23 1.14s.54.64.96.64h9.05c.58 0 1.04-.47 1.04-1.04s-.47-1.04-1.04-1.04h-6.53l7.27-7.27c.3-.3.39-.75.23-1.14s-.54-.64-.96-.64h-9.05c-.58 0-1.04.47-1.04 1.04s.47 1.04 1.04 1.04z"/><path d="m41.45 29.27h4.76l-5.5 5.5c-.3.3-.39.75-.23 1.14s.54.64.96.64h7.28c.58 0 1.04-.47 1.04-1.04s-.47-1.04-1.04-1.04h-4.76l5.5-5.5c.3-.3.39-.75.23-1.14s-.54-.64-.96-.64h-7.28c-.58 0-1.04.47-1.04 1.04 0 .58.47 1.04 1.04 1.04z"/><path d="m55.38 21.91h3.34l-4.08 4.08c-.3.3-.39.75-.23 1.14s.54.64.96.64h5.86c.58 0 1.04-.47 1.04-1.04 0-.58-.47-1.04-1.04-1.04h-3.33l4.08-4.08c.3-.3.39-.75.23-1.14s-.54-.64-.96-.64h-5.86c-.58 0-1.04.47-1.04 1.04s.46 1.04 1.03 1.04z"/></g></svg>