<svg id="Layer_1" height="512" viewBox="0 0 120 120" width="512" xmlns="http://www.w3.org/2000/svg"><g><path d="m56.37 97.3c.83 1.76.71 3.79-.33 5.43-1.03 1.62-2.79 2.59-4.72 2.59h-4.45v-6.14c0-.55-.45-1-1-1-.56 0-1 .45-1 1v6.14h-21.82v-6.14c0-.55-.45-1-1-1-.56 0-1 .45-1 1v6.14h-4.47c-1.92 0-3.68-.96-4.71-2.59-1.04-1.64-1.16-3.67-.33-5.43 3.54-7.49 12.54-12.52 22.41-12.52s18.88 5.03 22.42 12.52z"/><path d="m21.59 69.68c0-6.82 5.54-12.37 12.36-12.37s12.37 5.55 12.37 12.37-5.55 12.37-12.37 12.37-12.36-5.55-12.36-12.37z"/><path d="m73.68 69.68c0-6.82 5.54-12.37 12.36-12.37s12.37 5.55 12.37 12.37-5.55 12.37-12.37 12.37-12.36-5.55-12.36-12.37z"/><path d="m108.12 102.73c-1.03 1.62-2.79 2.59-4.72 2.59h-4.46v-6.14c0-.55-.44-1-1-1-.55 0-1 .45-1 1v6.14h-21.82v-6.14c0-.55-.44-1-1-1-.55 0-1 .45-1 1v6.14h-4.46c-1.92 0-3.68-.96-4.71-2.59-1.04-1.64-1.16-3.67-.33-5.43 3.54-7.49 12.54-12.52 22.41-12.52s18.88 5.03 22.42 12.52c.84 1.76.72 3.79-.33 5.43z"/><path d="m81.99 54.43c.19.28.5.44.83.44.1 0 .2-.01.29-.04.42-.13.71-.52.71-.96v-21.04c0-2.68-2.18-4.87-4.87-4.87h-.95v8.89c0 4.61-3.75 8.36-8.36 8.36h-15.24c.45 2.22 2.42 3.89 4.77 3.89h19.21z"/><path d="m36.56 51.14c.1.04.2.05.29.05.33 0 .64-.16.83-.44l5.13-7.54h26.82c3.5 0 6.36-2.86 6.36-6.36v-15.81c0-3.51-2.86-6.36-6.36-6.36h-27.41c-3.5 0-6.36 2.85-6.36 6.36v29.15c-.01.44.28.83.7.95zm9.79-27.62h11.84c.55 0 1 .45 1 1s-.45 1-1 1h-11.84c-.55 0-1-.45-1-1s.45-1 1-1zm0 8.84h19.15c.55 0 1 .45 1 1s-.45 1-1 1h-19.15c-.55 0-1-.45-1-1s.45-1 1-1z"/></g></svg>