<svg id="Layer_1" height="512" viewBox="0 0 120 120" width="512" xmlns="http://www.w3.org/2000/svg"><g><g><path d="m108.99 71.22c.07 1.08-.31 2.15-1.05 2.94s-1.79 1.25-2.88 1.25c-1.98 0-3.66-1.49-3.9-3.47-.25-2.12-.71-5.29-1.43-8.28v13.35l1.93 25.19c.1 1.33-.36 2.65-1.27 3.63-.9.98-2.19 1.54-3.52 1.54-2.37 0-4.41-1.76-4.76-4.1l-2.89-19.42-2.88 19.42c-.35 2.34-2.4 4.1-4.76 4.1-1.34 0-2.62-.56-3.53-1.54s-1.37-2.3-1.27-3.63l1.93-25.19v-19.04c-2.21.3-3.97 1.57-6.3 3.25-1.31.95-2.8 2.03-4.61 3.09-2.33 1.36-5.57 2.02-7.83 2.18-.66.05-1.32-.09-1.91-.38-.3-.16-.58-.35-.84-.59-.74-.69-1.16-1.67-1.16-2.68v-.39c0-1.38.79-2.61 2-3.22.35-.19.74-.33 1.16-.4 4.86-.8 8.44-4.25 11.59-7.3 2.9-2.81 5.64-5.46 8.9-5.46h19.02c8.31 0 10.08 22.58 10.26 25.15z"/><path d="m78.88 31.57c0-5.7 4.64-10.34 10.34-10.34s10.34 4.64 10.34 10.34-4.64 10.34-10.34 10.34-10.34-4.64-10.34-10.34z"/></g><path d="m56.06 54.87c-6.93-5.32-13.85-2.54-21.16.42-4.39 1.78-8.88 3.59-13.4 3.59-3.36 0-6.74-.99-10.13-3.74-.24-.19-.37-.48-.37-.78v-33.75c0-.39.22-.74.56-.9.35-.17.76-.12 1.06.12 7.06 5.71 14.09 2.86 21.53-.15 7.13-2.88 14.49-5.85 21.91-1.03v-5.02c0-.55.44-1 1-1 .55 0 1 .45 1 1v45.6c-1.21.61-2 1.84-2 3.22z"/><path d="m63.84 106.37c0 .56-.45 1-1 1h-11.57c-.55 0-1-.44-1-1 0-.55.45-1 1-1h4.79v-42.53c0 1.01.42 1.99 1.16 2.68.26.24.54.43.84.59v39.26h4.78c.55 0 1 .45 1 1z"/></g></svg>