<svg id="Layer_1" height="512" viewBox="0 0 120 120" width="512" xmlns="http://www.w3.org/2000/svg"><g><path d="m69.82 22.56c0-6.37 5.18-11.56 11.55-11.56s11.55 5.19 11.55 11.56-5.18 11.55-11.55 11.55-11.55-5.18-11.55-11.55z"/><path d="m102.99 70.82c-1.31.26-2.63 0-3.72-.75-1.1-.75-1.83-1.88-2.06-3.19l-1.55-8.85c-.4-2.27-1.52-4.37-3.14-5.97v20.28l2.67 30.58c.13 1.56-.39 3.11-1.45 4.27-1.06 1.15-2.56 1.81-4.13 1.81-2.84 0-5.23-2.13-5.56-4.95l-2.68-23.03-2.68 23.03c-.33 2.82-2.72 4.95-5.56 4.95-1.57 0-3.07-.66-4.13-1.81-1.06-1.16-1.58-2.71-1.45-4.27l2.67-30.58v-16.75c-3.78 3.13-8.32 5.16-13.19 5.89l-9.56 1.43c-1.38.21-2.69-.15-3.69-1.01-.99-.86-1.54-2.1-1.54-3.49 0-2.95 2.37-5.74 5.28-6.22l10.3-1.71c1.89-.31 3.56-1.32 4.72-2.85l.64-.84c4.72-6.23 12.22-9.95 20.04-9.95 5.57 0 11.06 1.89 15.46 5.31 3.73 2.91 6.12 7.1 6.72 11.79l1.43 11.28c.34 2.64-1.35 5.1-3.84 5.6z"/><path d="m44.15 97.03c-3.3 0-5.99 2.68-5.99 5.98 0 3.31 2.69 5.99 5.99 5.99s5.99-2.68 5.99-5.99c0-3.3-2.69-5.98-5.99-5.98z"/><path d="m41.27 59.84c-.39-.82-.5-1.75-.29-2.64l1.55-6.65c.12-.51-.18-1.03-.68-1.18l-3.12-.96c-.5-.15-1.04.11-1.23.59l-2.46 6.37c-.33.85-.94 1.56-1.73 2.01-1.31.76-2.28 1.97-2.73 3.42l-.28.91h11.51c-.08-.64-.25-1.28-.54-1.87z"/><path d="m15.88 59.59c-.36.67-.59 1.39-.69 2.13h11.48l-.16-.63c-.37-1.47-1.28-2.73-2.56-3.55-.76-.49-1.34-1.24-1.62-2.1l-2.14-6.48c-.16-.5-.69-.79-1.2-.66l-3.17.81c-.51.13-.83.63-.74 1.15l1.22 6.72c.16.88.01 1.81-.42 2.61z"/><path d="m44.15 95.03c.34 0 .67.03 1 .07v-24.59h1.31c1.87 0 3.4-1.52 3.4-3.4s-1.52-3.4-3.4-3.4h-32.33c-.28 0-.56.12-.75.33s-.28.49-.25.78l3.96 35.84c.43 3.89 3.7 6.82 7.62 6.82h12.82c-.87-1.28-1.37-2.82-1.37-4.47-.01-4.4 3.58-7.98 7.99-7.98z"/></g></svg>