<svg id="Layer_1" height="512" viewBox="0 0 120 120" width="512" xmlns="http://www.w3.org/2000/svg"><g><path d="m106.72 20.97-36.15-9.76c-3.15-.85-6.35.93-7.29 4.06-.93 3.09.74 6.33 3.8 7.37l8.44 2.88-8.43 38.08c-.4 1.8-1.96 3.05-3.8 3.05h-.59c-.65 1.22-1.92 2.02-3.38 2.02-.62.03-2.83-.06-5.4-1.25-.02.07-.03.15-.03.23v5.86c0 .32.15.62.41.81l11.38 8.34c1.79 1.31 2.85 3.42 2.85 5.64v19.7c0 .55.45 1 1 1h36.93c.56 0 1-.45 1-1v-86.06c0-.46-.3-.85-.74-.97zm-3.26 83.03c0 .55-.44 1-1 1-.55 0-1-.45-1-1v-18.16c0-.55.45-1 1-1 .56 0 1 .45 1 1zm0-26.67c0 .55-.44 1-1 1-.55 0-1-.45-1-1v-52.33c0-.55.45-1 1-1 .56 0 1 .45 1 1z"/><path d="m63.17 64.81c0 .18-.01.37-.04.55-.07.46-.22.9-.43 1.29-.65 1.22-1.92 2.02-3.38 2.02-.62.03-2.83-.06-5.4-1.25-1.69-.76-3.54-2.01-5.19-3.99l-2.24-2.69c-2.1-2.53-3.59-4.33-5.86-6.91-.98 5.55-1 8.8-.97 9.87 6.25 5.33 10.31 12.72 11.42 20.87l2.43 17.71c.32 2.41-1.36 4.66-3.76 5.02-2.42.36-4.68-1.3-5.07-3.71l-2.6-16.36c-.88-5.53-3.6-10.71-7.66-14.58l-1.99-1.9c.59 8.07-1.18 16.27-5.1 23.37l-6.25 11.29c-.82 1.5-2.39 2.35-3.99 2.35-.73 0-1.47-.18-2.15-.55-1.08-.58-1.86-1.54-2.21-2.71-.34-1.17-.21-2.41.38-3.48l7.79-14.22c1.23-2.25 1.63-4.89 1.1-7.41l-2.05-9.79c-.47-2.24-.6-4.54-.4-6.81.46-5.36 1.1-12.7 4.51-22.16 1.7-4.71 6.62-7.3 11.44-6.02 1.11.29 2.16.79 3.11 1.47.01 0 .01 0 .02.01 4.09 2.47 6.71 7.27 9.25 11.9 3.15 5.74 6.4 11.68 12.39 13.09 1.7.4 2.9 1.98 2.9 3.73z"/><circle cx="42.05" cy="23.63" r="9.68"/></g></svg>